<svg xmlns="http://www.w3.org/2000/svg" xmlns:xlink="http://www.w3.org/1999/xlink" viewBox="0 0 1636.11 1458.17"><defs><style>.cls-1{isolation:isolate;}.cls-2{fill:url(#Безымянный_градиент_32);}.cls-10,.cls-11,.cls-12,.cls-13,.cls-15,.cls-18,.cls-20,.cls-3,.cls-35,.cls-38,.cls-39,.cls-4,.cls-51,.cls-54,.cls-56,.cls-62,.cls-67,.cls-78,.cls-79,.cls-87,.cls-88,.cls-9,.cls-95{mix-blend-mode:multiply;}.cls-3,.cls-4{opacity:0.53;}.cls-3{fill:url(#Безымянный_градиент_86);}.cls-4{fill:url(#Безымянный_градиент_86-2);}.cls-5{fill:url(#Безымянный_градиент_6);}.cls-6,.cls-8,.cls-85{fill:#ae0000;}.cls-34,.cls-36,.cls-52,.cls-57,.cls-6,.cls-64,.cls-8,.cls-85{mix-blend-mode:screen;}.cls-6{opacity:0.38;}.cls-7{fill:url(#Безымянный_градиент_6-2);}.cls-8{opacity:0.56;}.cls-10,.cls-11,.cls-12,.cls-13,.cls-15,.cls-67,.cls-78,.cls-79,.cls-87,.cls-88,.cls-9{opacity:0.4;}.cls-9{fill:url(#Безымянный_градиент_6-3);}.cls-10{fill:url(#Безымянный_градиент_6-4);}.cls-11{fill:url(#Безымянный_градиент_6-5);}.cls-12{fill:url(#Безымянный_градиент_6-6);}.cls-13{fill:url(#Безымянный_градиент_6-7);}.cls-14{fill:#fff;}.cls-15{fill:url(#Безымянный_градиент_6-8);}.cls-16,.cls-18{fill:#754110;}.cls-17{fill:#6c2300;}.cls-18,.cls-20{opacity:0.55;}.cls-19,.cls-20{fill:#d15900;}.cls-21{fill:#ffb800;}.cls-22,.cls-34{fill:#ffde2a;}.cls-23{fill:#fffc7f;}.cls-24{fill:#e59300;}.cls-25{fill:#232323;}.cls-26,.cls-27{fill:#353535;}.cls-27,.cls-36{opacity:0.64;}.cls-28{fill:#2c0000;}.cls-29,.cls-39{fill:#de9800;}.cls-30,.cls-36{fill:#5b2800;}.cls-31{fill:#ffc100;}.cls-32{fill:#ffb000;}.cls-33{fill:#e38b00;}.cls-35,.cls-38{fill:#7c3400;}.cls-35,.cls-51{opacity:0.48;}.cls-37{fill:#f08e00;}.cls-38{opacity:0.44;}.cls-39{opacity:0.41;}.cls-40{fill:#e8b100;}.cls-41{fill:#ffff86;}.cls-42{fill:#ca4f00;}.cls-43{fill:#861f00;}.cls-44{fill:#ffd800;}.cls-45{fill:#ff52ae;}.cls-46{fill:#ff34a0;}.cls-47{fill:#ff526b;}.cls-48{fill:#ff3e5a;}.cls-49,.cls-51,.cls-52{fill:#362e1b;}.cls-50{fill:#ffbb1b;}.cls-52{opacity:0.6;}.cls-53,.cls-54,.cls-57{fill:#f2b645;}.cls-54,.cls-64{opacity:0.46;}.cls-55,.cls-56{fill:#eea212;}.cls-56{opacity:0.28;}.cls-57{opacity:0.39;}.cls-58{fill:#ed9800;}.cls-59{fill:#c27400;}.cls-60,.cls-62{fill:#b86100;}.cls-61{fill:#973800;}.cls-62{opacity:0.34;}.cls-63,.cls-64{fill:#652200;}.cls-65{fill:#6172ff;}.cls-66{fill:#4040ac;}.cls-67{fill:url(#Безымянный_градиент_6-9);}.cls-68{fill:#7b89ff;}.cls-69{fill:#420c00;}.cls-70{fill:#c55e00;}.cls-71{fill:#d4d4d4;}.cls-72{fill:#e8e8e8;}.cls-73{fill:#aeaeae;}.cls-74{fill:#c5293b;}.cls-75{fill:#8e0b20;}.cls-76{fill:#f94050;}.cls-77{fill:#933b00;}.cls-78{fill:url(#Безымянный_градиент_6-10);}.cls-79{fill:url(#Безымянный_градиент_6-11);}.cls-80{fill:url(#Безымянный_градиент_87);}.cls-81{fill:url(#Безымянный_градиент_92);}.cls-82{fill:#fe4f36;}.cls-83{fill:url(#Безымянный_градиент_3);}.cls-84{fill:url(#Безымянный_градиент_3-2);}.cls-85{opacity:0.83;}.cls-86{fill:#fe4f8d;opacity:0.47;}.cls-87{fill:url(#Безымянный_градиент_6-12);}.cls-88{fill:url(#Безымянный_градиент_6-13);}.cls-89{fill:#570000;}.cls-90{fill:url(#Безымянный_градиент_87-2);}.cls-91{fill:url(#Безымянный_градиент_92-2);}.cls-92{fill:url(#Безымянный_градиент_6-14);}.cls-93{fill:url(#Безымянный_градиент_6-15);}.cls-94,.cls-95{fill:#e06d00;}.cls-95{opacity:0.43;}.cls-96{fill:#ff9a00;}.cls-97{fill:#ffdd59;}</style><linearGradient id="Безымянный_градиент_32" x1="866.89" y1="148.6" x2="952.5" y2="642.72" gradientTransform="translate(32.11 -40.52) rotate(2.36)" gradientUnits="userSpaceOnUse"><stop offset="0" stop-color="#8fa833"/><stop offset="1" stop-color="#9fc233"/></linearGradient><linearGradient id="Безымянный_градиент_86" x1="827.89" y1="165.29" x2="911.97" y2="650.55" gradientTransform="translate(32.11 -40.52) rotate(2.36)" gradientUnits="userSpaceOnUse"><stop offset="0" stop-color="#8fa833"/><stop offset="1" stop-color="#879000"/></linearGradient><linearGradient id="Безымянный_градиент_86-2" x1="1225.87" y1="86.12" x2="1311.52" y2="580.44" xlink:href="#Безымянный_градиент_86"/><linearGradient id="Безымянный_градиент_6" x1="590.13" y1="744.19" x2="778.56" y2="1152.86" gradientTransform="translate(32.11 -40.52) rotate(2.36)" gradientUnits="userSpaceOnUse"><stop offset="0" stop-color="#d40000"/><stop offset="1" stop-color="#680000"/></linearGradient><linearGradient id="Безымянный_градиент_6-2" x1="1214.92" y1="733.61" x2="1344.62" y2="1154.52" xlink:href="#Безымянный_градиент_6"/><linearGradient id="Безымянный_градиент_6-3" x1="697.7" y1="1000.07" x2="782.29" y2="1183.54" xlink:href="#Безымянный_градиент_6"/><linearGradient id="Безымянный_градиент_6-4" x1="1291.13" y1="967.42" x2="1354.95" y2="1174.55" xlink:href="#Безымянный_градиент_6"/><linearGradient id="Безымянный_градиент_6-5" x1="1223.02" y1="731.12" x2="1352.72" y2="1152.03" xlink:href="#Безымянный_градиент_6"/><linearGradient id="Безымянный_градиент_6-6" x1="695.58" y1="998.6" x2="780.17" y2="1182.07" xlink:href="#Безымянный_градиент_6"/><linearGradient id="Безымянный_градиент_6-7" x1="1240.95" y1="725.61" x2="1370.65" y2="1146.5" xlink:href="#Безымянный_градиент_6"/><linearGradient id="Безымянный_градиент_6-8" x1="610.7" y1="818.54" x2="576.7" y2="739.19" xlink:href="#Безымянный_градиент_6"/><linearGradient id="Безымянный_градиент_6-9" x1="1387.65" y1="869.4" x2="1344.52" y2="797.91" xlink:href="#Безымянный_градиент_6"/><linearGradient id="Безымянный_градиент_6-10" x1="1085.48" y1="850.01" x2="1204.08" y2="850.01" xlink:href="#Безымянный_градиент_6"/><linearGradient id="Безымянный_градиент_6-11" x1="1214.42" y1="828.35" x2="1334.53" y2="828.35" xlink:href="#Безымянный_градиент_6"/><radialGradient id="Безымянный_градиент_87" cx="1278.63" cy="847.32" r="41.43" gradientTransform="translate(32.11 -40.52) rotate(2.36)" gradientUnits="userSpaceOnUse"><stop offset="0" stop-color="#ff9707"/><stop offset="0.11" stop-color="#fb9107"/><stop offset="0.27" stop-color="#f08007"/><stop offset="0.44" stop-color="#df6406"/><stop offset="0.63" stop-color="#c63d06"/><stop offset="0.84" stop-color="#a70c05"/><stop offset="0.85" stop-color="#a50905"/></radialGradient><radialGradient id="Безымянный_градиент_92" cx="1150.81" cy="866.48" r="45.45" gradientTransform="translate(32.11 -40.52) rotate(2.36)" gradientUnits="userSpaceOnUse"><stop offset="0" stop-color="#f29a07"/><stop offset="0.11" stop-color="#ef9407"/><stop offset="0.26" stop-color="#e68307"/><stop offset="0.44" stop-color="#d76706"/><stop offset="0.63" stop-color="#c24006"/><stop offset="0.82" stop-color="#a80f05"/><stop offset="0.85" stop-color="#a50905"/></radialGradient><linearGradient id="Безымянный_градиент_3" x1="1130.58" y1="797.55" x2="1161.32" y2="853.53" gradientTransform="translate(32.11 -40.52) rotate(2.36)" gradientUnits="userSpaceOnUse"><stop offset="0" stop-color="#f92c00"/><stop offset="1" stop-color="#680000"/></linearGradient><linearGradient id="Безымянный_градиент_3-2" x1="1238.79" y1="775.02" x2="1274.58" y2="828.24" xlink:href="#Безымянный_градиент_3"/><linearGradient id="Безымянный_градиент_6-12" x1="551.6" y1="867.82" x2="678.19" y2="867.82" gradientTransform="translate(-25.02 63.7) rotate(-5.52)" xlink:href="#Безымянный_градиент_6"/><linearGradient id="Безымянный_градиент_6-13" x1="751.35" y1="853.44" x2="889.51" y2="853.44" xlink:href="#Безымянный_градиент_6"/><radialGradient id="Безымянный_градиент_87-2" cx="810.48" cy="880.96" r="41.44" xlink:href="#Безымянный_градиент_87"/><radialGradient id="Безымянный_градиент_92-2" cx="622.54" cy="899.85" r="45.45" gradientTransform="translate(-25.02 63.7) rotate(-5.52)" xlink:href="#Безымянный_градиент_92"/><linearGradient id="Безымянный_градиент_6-14" x1="575.33" y1="794.7" x2="628.55" y2="872.4" gradientTransform="translate(-25.02 63.7) rotate(-5.52)" xlink:href="#Безымянный_градиент_6"/><linearGradient id="Безымянный_градиент_6-15" x1="715.08" y1="778.72" x2="768.3" y2="856.42" gradientTransform="matrix(-0.99, 0.11, 0.11, 0.99, 1468.12, -86.41)" xlink:href="#Безымянный_градиент_6"/></defs><g class="cls-1"><g id="Слой_2" data-name="Слой 2"><g id="_Layer_" data-name="&lt;Layer&gt;"><path class="cls-2" d="M1351.94,706.16c4.86,13,10.41,26,12.56,39.82.92,6.06,2.45,15.43-1.43,20.9-4.43,6.25-14,6-21.15,7.93-1-32.3-8.25-58.48-21.35-88.16-16.51-37.52-33.89-75.86-56.29-110.36-34.13-52.52-66.91-106.62-103.49-157.43-38.62-53.62-75.91-109.47-104.64-169.11-19.63-40.78-43.34-92.34-42.69-138.41C996,136,975.87,156.06,955.6,178.66,932.91,204,908,227.15,883.35,250.45c-38,35.81-73.48,75.48-108.29,114.27-17.31,19.29-32.64,40.21-47.91,61.12-13.61,18.65-29.76,36.5-41.85,56.11C654.19,532.39,632.84,587.38,616,644.07c-9,30.5-14.33,63.45-25.11,93.28-11.72.26-15.33,3.13-15-9.15.54-21.3,3.65-43.47,11.07-63.52,7.56-20.4,12.09-41.57,19.38-62.29,17-48.19,39-94.66,66.65-137.67C746.51,350.18,846.63,262.26,938,163.13c20.56-22.3,42.67-46.67,51.15-76.51a75.06,75.06,0,0,0-.79-44.89c-3.09-9.07-9.48-23.51-2.75-32.56C990.23,3,998.12,4,1004.85,3.94c14.84-.1,28.16-.55,42.71,2.89,28.67,6.78,51.34,20,67,45.61,8.22,13.38,19.94,36.15,13,52.22-8.13-2.72-17.83-7-27-6.43-1.38,14.9-8.92,21.22-22.93,15.25-2.18-.93-34.83-28.21-36.13-20.67-12.83,74.05,44.32,151.67,77.32,213.13,40.65,75.73,92.63,144.89,138.28,217.59C1293.72,581.81,1327.83,641.45,1351.94,706.16Z"/><path class="cls-3" d="M1252.63,555.55c-7.67-16.47-15.27-33.69-19.16-51.51-1.41-6.33-2.33-13.1-1.43-19.33-38.85-58.88-79.82-116.62-113.18-178.77-33-61.46-90.15-139.08-77.32-213.13,1.3-7.54,34,19.74,36.13,20.67,14,6,21.55-.35,22.93-15.25,9.19-.58,18.89,3.71,27,6.43,2.66-6.17,2.56-13.33,1-20.56a8.23,8.23,0,0,1-5.48,1.18c-16.84-2.27-30.28-15.19-41.37-27.73a52.42,52.42,0,0,1-.43,9.76c-.71,5.21-5.06,11.2-11.15,10.28-8.75-1.34-16.72-5.19-24.52-9.18-17.14-8.76-34.09-20-47.44-34-3.79-4-11.53-9.82-11.2-15.73-4.72,11.66,1.69,24.61,4.28,36,2.91,12.71,0,26.94-4.43,39-9.91,26.74-29.79,48.79-48.83,69.45q-12,13-24.24,25.82c-4,27.77-24,51.79-43.83,71.41-11.41,11.26-23.55,21.72-35.36,32.57-13.57,12.47-26.33,25.86-38.66,39.56-29.85,33.18-58.77,67.07-84.94,103.22Q690.92,463.46,672,492C664,504.25,658.26,517.59,652.4,531c-10.75,24.46-22.32,55-45.72,70.46-.12.33-.24.65-.37,1-7.29,20.72-11.82,41.89-19.38,62.29-7.42,20.05-10.53,42.22-11.07,63.52-.31,12.28,3.3,9.41,15,9.15,10.78-29.83,16.06-62.78,25.11-93.28,16.85-56.69,38.2-111.68,69.31-162.12,12.09-19.61,28.24-37.46,41.85-56.11,15.27-20.91,30.6-41.83,47.91-61.12,34.81-38.79,70.34-78.46,108.29-114.27C908,227.15,932.91,204,955.6,178.66c20.27-22.6,40.41-42.62,57.86-67.32-.65,46.07,23.06,97.63,42.69,138.41,28.73,59.64,66,115.48,104.64,169.11,34.23,47.54,65.14,97.94,96.92,147.25C1256,562.59,1254.27,559.08,1252.63,555.55Z"/><path class="cls-4" d="M1364.5,746c-2.15-13.82-7.7-26.81-12.56-39.82-.29-.83-.65-1.62-.94-2.43-12.49-8-22.19-22-30.69-33.61-7.51-10.21-14.68-20.69-21.6-31.37,7.66,15.88,14.85,32,21.86,47.9,13.1,29.68,20.36,55.86,21.35,88.16,7.14-1.91,16.72-1.68,21.15-7.93C1367,761.41,1365.42,752,1364.5,746Z"/><path class="cls-5" d="M913.13,761.41c68.71,100.86,54.31,236-13.66,334.5-26.11,37.84-55.43,73.25-100.15,90.1-20.75,7.83-43.53,6-65.51,8.88-91.11,12.09-189,13.63-260.71-54.12C424.7,1095,397.52,1029,381.47,965.69c-15.91-62.85-11.22-132,30.94-183.94,46.49-57.29,129-55.39,192.86-79,46.33-17.14,85.72-41.35,136.39-44.61,49-3.17,82.45,13.44,119.34,44.77A297.48,297.48,0,0,1,913.13,761.41Z"/><path class="cls-6" d="M762.18,721c18-1.62,58.88-1.85,62.62-15.23,7.25-25.94-41.18-34.59-57.53-37.74-47.8-9.21-85.86,15-127.82,32.33C596.37,718.18,551.06,729.72,506,741c-39.7,10-71.17,22.3-95.91,56.39-21.8,30-28.8,65.54-26.24,102.12,2.66,38,4.66,89.39,36.23,116.3,29.36,25,59.18-18.89,73.76-41.65,15-23.49,25.09-50.16,37.92-74.85,20.07-38.61,46.9-76,78.88-105.62,38.95-36,94.16-59.81,145.3-71.83A53,53,0,0,1,762.18,721Z"/><path class="cls-7" d="M1547.69,905.61c9.9,104.21-30.47,253.67-142.64,287.63-38.14,11.55-75.54,7.35-114.46,9.34-42.72,2.19-81.27,4.71-123.81-5.65-172.62-42-221.88-236.37-135-380,49.74-82.19,119.71-121,215.36-105.76,44.36,7,87.07,19.61,132.08,22.76,43.53,3.06,75.49,11.5,109.87,39.29C1530.81,807,1542.75,853.59,1547.69,905.61Z"/><path class="cls-6" d="M1049.44,982.91c27.7-38.35,65.23-68.89,106.28-92,41.9-23.6,89.75-42.24,138-46.06,30.87-2.44,61.82.79,92.4,4.85,28.69,3.82,57.27,7.78,86,10.91,24,2.61,48.1,5.64,71.22,12.53-6.78-37.22-20.33-70.47-50.38-96.54a71.33,71.33,0,0,1-5.68,8.19c-16.23,20.05-41.33,28.53-66.12,31.86-34.65,4.67-70,3.35-104.82,4.18-18.27.45-36.52,1.33-54.65,3.68-15.25,2-31.3,4.12-45.85,9.18-1.36.47-2.67,1-4,1.45l-.94.33c-.12.06-.41.16-1,.4-3,1.13-5.93,2.26-8.88,3.42-7.19,2.8-14.36,5.63-21.54,8.42-18,7-36,13.74-54.27,19.73-17.53,5.74-35.38,10.89-53.58,14-15.89,2.73-32.67,4.37-48.51.45a43.51,43.51,0,0,1-17.59-8.79c-22.82,66.12-20.51,136.94,5.81,196.13A224.44,224.44,0,0,1,1049.44,982.91Z"/><path class="cls-8" d="M710.74,704.06c16.65-7.8,30.77-16.41,27-22-6.55-9.76-44.73,4.95-52.68,7.82-45,16.24-86.29,37.73-133.18,49.34-39.91,9.89-91.2,15.23-122.62,44.47-29.58,27.54-43.48,89.17-29.84,127.8,15.28,43.26,46.84-6.41,58.38-25,21.7-34.89,55.06-70.84,86.26-97.6,34.71-29.78,80.53-51.34,123-67.22C671.15,720.22,692.47,712.63,710.74,704.06Z"/><path class="cls-9" d="M949.63,906.12c-3.63,7.85-6,16.4-9.63,24.27-19.25,42-47.39,84.27-85.38,111.56-78.17,56.15-189.24,63.8-281.78,51.84-43-5.54-103.35-33.92-146.27-15-.36.15-.66.38-1,.54,13,22.66,28.65,43.62,47.53,61.46,71.74,67.75,169.6,66.21,260.71,54.12,22-2.92,44.76-1.05,65.51-8.88,44.72-16.85,74-52.26,100.15-90.1A335.25,335.25,0,0,0,947.6,991.16c8.21-31.31,7.2-59.26,4.94-90.63A61.7,61.7,0,0,0,949.63,906.12Z"/><path class="cls-10" d="M1547.69,905.61c-.19-2.08-.41-4.13-.63-6.17-8.4-3.81-18.81-5.05-31.82-2.71-30.69,5.52-54.67,26.1-76.73,46.4-27.59,25.41-54.33,51.69-83.1,75.85-50.55,42.46-108.41,77.26-173.05,92.84a287.1,287.1,0,0,1-95.45,6.09c-.41,0-1-.15-1.82-.31-8-1.63-34.74-8.95-56.33-16.21,29.56,45.3,75.7,80.37,138,95.54,42.54,10.36,81.09,7.84,123.81,5.65,38.92-2,76.32,2.21,114.46-9.34C1517.22,1159.28,1557.59,1009.82,1547.69,905.61Z"/><path class="cls-8" d="M1385.81,784.36c12.53-.18,50.48,3.15,53.88-14.6,6.48-33.89-77.75-28.68-95.13-30.31-77.35-7.25-155-46.75-227.7,3-24.44,16.74-56,38.36-70.8,64.75-6.8,12.13-12.5,33.06-1,42.52,16.55,13.6,44.42,1,61.88-3.91,32.62-9.1,62.55-23.52,92.43-38.42C1256.24,779.06,1324.46,785.25,1385.81,784.36Z"/><path class="cls-11" d="M1547.69,905.61c-.09-.89-.18-1.75-.27-2.63a493.51,493.51,0,0,1-11.28,52.7c-3.25,28.15-14.61,56-30.33,79.15-15.06,22.22-35.76,42.61-59.34,55.66-20.14,11.15-42.69,16.41-65.1,20.73-42,8.1-83.26,19.48-125.19,27.79-67.54,13.4-152.33,22.7-212.09-16.89,29.3,35.18,70.25,62.05,122.69,74.81,42.54,10.36,81.09,7.84,123.81,5.65,38.92-2,76.32,2.21,114.46-9.34C1517.22,1159.28,1557.59,1009.82,1547.69,905.61Z"/><path class="cls-12" d="M922.42,1025.5C898,1066,865.72,1106.82,824,1130.57s-89.14,24.5-135.57,30.29c-56.55,7.06-114,14.12-168.67-6.76-21.3-8.13-41.29-20.5-59-34.7-4.39-3.5-8.77-7.17-13-11.05a244.15,244.15,0,0,0,26.44,29.59c71.73,67.76,169.6,66.21,260.71,54.12,22-2.92,44.75-1,65.5-8.88,44.73-16.86,74-52.27,100.15-90.11,30.79-44.63,50.53-96.77,56.57-149.85A307.28,307.28,0,0,1,922.42,1025.5Z"/><path class="cls-13" d="M1517.4,1039.89c-23.73,42.63-54.08,83.77-95.69,110.39a186.07,186.07,0,0,1-63.1,25.49c-27.55,5.56-56,8.83-83.95,12-49.83,5.68-99.71,6.23-148.62-6-2.58-.65-5.16-1.34-7.76-2.07a245.29,245.29,0,0,0,48.5,17.24c42.54,10.36,81.09,7.84,123.81,5.65,38.92-2,76.32,2.21,114.46-9.34,88-26.65,131.82-124.42,141.83-215.63A475.54,475.54,0,0,1,1517.4,1039.89Z"/><path class="cls-14" d="M1478.74,795.78c.94,1.89,1.92,3.55,2.64,4.73,2.41,4.06,12.29,19,18.53,15.19,9.79-6-8.69-24.52-12.16-28.15-2.68-2.78-7.38-8.46-10.46-4.5C1474.81,786.27,1476.63,791.56,1478.74,795.78Z"/><path class="cls-14" d="M1512.39,874.83c2.42,6.95,4.87,14,5,20.84.07,3.84-2,12.26,3,14.16,8.94,3.45,10.22-18.92,10.62-23.53,1.25-14.71.42-29-7.45-42.07-4.41-7.25-10.9-7.85-14.94.16-2.42,4.81-1.48,10.37-.56,15.48A97.32,97.32,0,0,0,1512.39,874.83Z"/><path class="cls-15" d="M797.32,679.88c-5.88,8.55-16.85,17.09-21.86,21.63-20.83,18.84-44.11,34.29-66.7,50.85C675.15,777,638.52,796.69,602.53,817.5c-39.41,22.78-81.31,45.45-125.14,58.33-22.36,6.57-70.87,18.36-86.3-6.75-17.37-28.27,3.58-65.49,21.32-87.33,29.7-36.6,80.86-50.75,122.3-69,63.84-28,137.38-50.2,206.95-54.68,12.88-.84,59.26-3.66,59.58,11.51C801.31,672.85,799.75,676.37,797.32,679.88Z"/><path class="cls-14" d="M525.38,745.13a9.14,9.14,0,0,0-3.48-6.81c-8.22-6.53-32.53,5-39.5,8.12-29.76,13.33-57.66,37.76-60.15,72.39-2,27.76,30.16,11.61,42.17,1.93,18.61-15,37.11-33.31,51.19-52.63C519.37,763,525.93,752.85,525.38,745.13Z"/><path class="cls-14" d="M586.61,712.75l-.16.07.41-.09.08-.08Z"/><path class="cls-14" d="M600.38,707.62c1-5.51-1.84-10-11.3-9.8-12.13.28-35.39,19.42-17.22,27.62C583.78,730.82,598.49,717.57,600.38,707.62Z"/><path class="cls-14" d="M737.56,679.12a4.86,4.86,0,0,0-3.15-3.7,12.93,12.93,0,0,0-3.66-.69,39.3,39.3,0,0,0-3.92.28,41.29,41.29,0,0,0-5.54,1,47,47,0,0,0-11.54,4.58,5.89,5.89,0,0,0,.6,10.78,12.48,12.48,0,0,0,7.72.57,30.22,30.22,0,0,0,17.9-8.26A5,5,0,0,0,737.56,679.12Z"/><path class="cls-14" d="M403.16,970.36Z"/><path class="cls-14" d="M404,913.44c-2.94-9.08-6.92-15.71-10.92-15.81-12.08-.3-12,26.94-11.5,33.67.64,8.24,4.52,34.75,16.07,34.39C412,965.26,410.52,933.41,404,913.44Z"/><path class="cls-14" d="M403.16,970.36l-.26-.06-.07,0Z"/><path class="cls-16" d="M1133.24,103.43c10.17-22.66-10.35-50.19-24.33-65.32-19.3-20.9-41.29-35.79-70.57-37.15-16.44-.76-42-2.54-57.16,2.25-4.41,17.34,1,36.34,10.39,51.57.41-15.39,18.26,6.9,23.79,7.25,5.95.37,1.91-5.28,9.57-3.22,5.89,1.58,14.55,13.6,18.82,18,10.33,10.73,27,40.34,42.56,42.92,12.21,2,11.13-11.46,15.07-19.65C1112,102.69,1127.24,116.82,1133.24,103.43Z"/><path class="cls-17" d="M1108.64,89.21A63,63,0,0,1,1091.3,81a24.21,24.21,0,0,1-1,5c-5,15.42-23.75,12-33.66,4-12.56-10-19.61-25-31.41-35.75-2.68-2.44-5.25-5-8-7.43-1.18-.82-2.4-1.61-3.56-2.44-.28-.19-.57-.41-.85-.61a14,14,0,0,0-4.06-.24c-8.33.24-15.92-3.22-22.63-8.06a42.41,42.41,0,0,1-4.41-3.69,83.18,83.18,0,0,0,9.82,23c.41-15.39,18.26,6.9,23.79,7.25,5.95.37,1.91-5.28,9.56-3.22,5.9,1.58,14.56,13.6,18.83,18,10.33,10.73,27,40.34,42.56,42.92,12.21,2,11.13-11.46,15.07-19.65,10.59,2.56,25.86,16.69,31.86,3.3,3-6.62,3.27-13.66,1.93-20.68C1129.26,89.66,1118.29,91.91,1108.64,89.21Z"/><path class="cls-18" d="M1118.24,52.62c-2.21.08-4.63,2.64-10,5.25-19.82,9.59-37.42-12-49-27.16,3.53,4.62,29.1,31.6,15.18,34.85-9,2.1-28.63-21.67-35.18-26.71-3.62-2.78-15.1-11.81-20.23-11.34-5.56.5-5.43,6-8.55,6.72C994.09,37.9,990,1.13,984.92,2.29c-1.26.29-2.58.56-3.74.92-4.41,17.34,1,36.34,10.39,51.57.41-15.39,18.26,6.9,23.79,7.25,5.95.37,1.91-5.28,9.56-3.22,5.9,1.58,14.56,13.6,18.83,18,10.33,10.73,27,40.34,42.56,42.92,12.21,2,11.13-11.46,15.07-19.65,10.59,2.56,25.86,16.69,31.86,3.3,6.21-13.84.86-30.48-7-42.57C1122.22,54.62,1120.32,52.53,1118.24,52.62Z"/><path class="cls-19" d="M1064.33,1145s46.17-41.35,213.8-52.81,230.46,24.2,230.46,24.2-31.16,41.32-40.24,45.28c0,0-78.29-22.43-194.59-8s-141.08,33.92-141.08,33.92S1081.83,1175.06,1064.33,1145Z"/><path class="cls-20" d="M1445.45,1098c-7.55,23.83-30,33.32-54.45,35.06-10.69.77-21.41.25-32.12.07-16.21-.27-61,10.94-58.75-18.52-1.15,14.86-20.79,21.42-33.48,21.71a132.81,132.81,0,0,1-20.73-1c-1.65-.23-20.25-7.62-17.65-9.86-4,3.45-5.47,9.19-8.54,13.64-9.15,13.29-34.33,18.76-46.67,6.58-3.81-3.74-18.84-23.36-18-28.17-2.27,12.42,11.32,27.12,6.63,39-5.45,13.74-39.54,8.66-51,6-13.34-3-34.22-8.49-40.88-21.53a50.7,50.7,0,0,0-5.48,4c17.5,30,68.35,42.56,68.35,42.56s24.74-19.53,141.08-33.92,194.59,8,194.59,8c9.08-4,40.24-45.28,40.24-45.28S1489.79,1105.79,1445.45,1098Z"/><path class="cls-20" d="M1492.31,1110.34c-2.86,10.53-10.3,19.26-21.46,24.72-27.43,13.44-50.07,5.43-79.4,5.19-23.8-.18-50.13,5-73.75.59-7.57-1.4-9.17-5.35-14.71-8.79-5.84-3.61-3-3.36-11.21-1.13-6,1.64-15.68,2.09-20,6.16-.88.82-1.1,6.3-2.19,7.84-6.49,9.25-20.81,10.36-30.74,7.83a18.58,18.58,0,0,1-9.38-5.6,42.17,42.17,0,0,1-22,12.75c-9,2-19.94,2.31-28.83-.48a30.81,30.81,0,0,1-7.82-3.73,28.17,28.17,0,0,1-7.61,11.31c-9.45,8.39-23.17,11.06-35.42,11.76a85.25,85.25,0,0,1-13.7-.38,169.12,169.12,0,0,0,24.58,8.71s24.35-19.2,138.81-33.37,191.49,7.89,191.49,7.89c8.94-3.89,39.6-44.55,39.6-44.55S1503.44,1114.18,1492.31,1110.34Z"/><path class="cls-21" d="M1263.94,1086.08c-7.47-3-113.92,9.71-131.59,22.17,0,0,18.13,80.67,35,74,4.24-1.66,104.39-15.18,107.95-22.19S1271.39,1089.1,1263.94,1086.08ZM1249,1150.35c-2.25,4.41-65.35,12.92-68,14-10.64,4.2-22.07-46.63-22.07-46.63,11.14-7.85,78.21-15.86,82.91-14S1251.23,1145.93,1249,1150.35Z"/><path class="cls-22" d="M1258.82,1157.29c-2-11.49-3.58-23.43-2.92-35.12.56-9.85,3.47-21.67,13-26-1.57-5.55-3.24-9.37-4.93-10.05-7.47-3-113.92,9.71-131.59,22.17,0,0,7.83,34.79,18,56.79,17,15.94,43.25,5.84,63.79,2,14.91-2.81,30.08-5,45.07-8.07C1259.07,1158.38,1258.94,1157.84,1258.82,1157.29Zm-9.81-6.94c-2,3.86-50.43,10.84-64.39,13.25-20.5,9.64-27.78-12.29-32.25-27.3-1.8-6-5.41-15.7-3.74-22.14,2.28-8.88,18.21-10,25.38-11.5a392.61,392.61,0,0,1,47.93-7.27c4.2-.36,7.87-1,12,.44,13.31,4.69,14.95,20.93,14.53,32.82,0,.1,0,.18,0,.28C1249.58,1138.84,1250,1148.34,1249,1150.35Z"/><path class="cls-21" d="M1228.12,1117.41c1.35-1.75,51.78-8.9,63.42-9s8.92,23.63,5.78,24.72-63,13.32-65.93,8.31S1224.9,1121.55,1228.12,1117.41Z"/><path class="cls-22" d="M1230.62,1133.67c3.19,1.89,7.92,2,11.24,2.07,10,.25,19.71-2.32,29.55-3.81,7-1.08,16-1.45,21.5-6.6,4.73-4.4,9.68-17.07-1.37-16.94-11.62.12-62,7.26-63.42,9-2.6,3.2-2.08,11.65.71,14.79A7.48,7.48,0,0,0,1230.62,1133.67Z"/><path class="cls-23" d="M1287.37,1111.94c-1.3,3.19-7.69,6.14-10.65,7.83-12.18,6.93-26,9.12-39.84,9-4.06,0-11.77-4.14-7.78-9.4,1-1.29,3.43-1.09,4.83-1.33,4.37-.76,8.71-1.24,13.14-1.73C1260.16,1114.88,1274.16,1110.5,1287.37,1111.94Z"/><path class="cls-23" d="M1227.35,1090.12c-10.92.58-22.08,2.62-32.74,4.91-11,2.37-22.07,4.34-32.66,8.09-4.28,1.51-10.31,3.23-13.77,6.19-3.84,3.33-2.34,8.68-2,13,.75,8.88,2.91,18.38,6.91,26.34,5.65,11.33,14.23,17.25,27.09,16.67,6-.27,12.24-.93,18.19-1.78,5-.7,11.19-2.92,16.24-2-4.09,3.49-11.82,5-17,6.43-8.07,2.24-16.8,4.86-25.23,4-14.4-1.37-22.43-13.79-27.08-26.23-2.44-6.54-3.95-13.46-5.89-20.16-1.25-4.3-3.11-11.45-1.07-15.67,1.81-3.8,11.79-5.12,15.29-6.12,12.19-3.47,24.8-5.27,37.09-8.25C1202.53,1092.82,1215.2,1090.21,1227.35,1090.12Z"/><path class="cls-22" d="M1491.6,930.42a47.6,47.6,0,0,1,.26,4.8c10,4.91,16.74,16.52,16.19,29.92-.72,17.36-13.35,30.94-28.24,30.32-14.41-.59-25.58-14.27-25.63-30.89a29.61,29.61,0,0,1-4.33-4.27,16.15,16.15,0,0,1-.94-1.33,48.42,48.42,0,0,0-1.43,9.6c-.92,22.57,14,41.51,33.33,42.31s35.8-16.85,36.73-39.42C1518.34,951.88,1507.19,935.06,1491.6,930.42Z"/><path class="cls-24" d="M1510.77,945.44a41.87,41.87,0,0,1,.82,5.22c1.26,15.77-1.13,35.28-14.22,45.81-24.79,19.94-45.45-6.33-49.63-30.77-.12.95-.21,1.9-.26,2.87-.92,22.57,14,41.51,33.33,42.31s35.8-16.85,36.73-39.42A45,45,0,0,0,1510.77,945.44Z"/><path d="M1254.41,419.69c-3.62-3.67-56.82,53.76-78.6,37.38-11.09-8.35-18.72-27.84-26.36-39.14-11.61-17.17-24.34-33.57-36.42-50.43-13.28-18.53-26.12-37.33-39.09-56.07-7.63-11-21.64-23.5-26.7-35.88-4.16-10.19,1.5-21.33,5.2-30.69.58.54,7.77,8,8,7.85,17.79-9.77,27.38-26.31,42.13-39.24,19.82-17.4,43.49-32.36,69-39.71,14.37-4.14,17.78-4.95,17.71,6.65,0,11.85-14.51,31.22-6.36,42,6.86,9.09,22.43,3.22,30.82-.12,26.76-10.66,52-25.4,78-37.26,54.82-25,112.28-46.54,173.3-40.63,21.85,2.12,56.82,9.49,71.61,27.42-23.2,33.95-31.68,84.62-31.08,125.19.31,19.2-1.27,60.93,12.42,76.07-4.91,3.57-70.21,29.7-70.28,26.34l.71-40.05c-34.25,4.88-67.92,32.47-96.53,50.16-5.85,3.62-76.9,51.88-80.4,41.07C1268.29,440.63,1261.89,427.19,1254.41,419.69Z"/><path class="cls-25" d="M1164.92,303.79c-8.94-19-20-37.68-26.85-57.55-6.43-18.46,3.71-50.37,21-61a441.92,441.92,0,0,0-72.8,55.46c-4.16,3.92-35.24,31.48-32.53,14-1.78,9-4.15,13.21,1.6,21.89,2.58,3.9,7,7,9.94,10.85,18.42,24.48,37.08,49.41,55.36,74.19,8.75,11.86,17.13,24,25.29,36.26,6.74,10.14,13.21,26.24,22.39,34.11,16.63,14.22,37.24-8.53,48.66-19.31C1203.34,375.69,1181.75,339.64,1164.92,303.79Z"/><path class="cls-25" d="M1498.39,349.12l1.75,2.28c-3.89-4.93-3.15-20-3-25.91.36-13.08-.49-26.15-.18-39.22.36-14.31,3.38-29,6.31-43.07,4.43-21.25,10.06-42.47,22.66-60.52-3.13,4.5-8.42,8.51-12.2,12.74-6.25,7-11.18,14.49-16.07,22.5a165.35,165.35,0,0,0-16.12,34.8c-3.68,11.38-4.27,21.67-4.29,33.49A103.06,103.06,0,0,0,1498.39,349.12Z"/><path class="cls-25" d="M1451.43,189.31c12-.9,36.62-9.86,36.82-25.3.18-14.95-22.34-13.2-33.1-13.57-44.87-1.53-91.2,7.45-133.07,24.77a833.13,833.13,0,0,0-77.18,36.9c-18.31,9.88-85.16,40.61-66.61-8.7-10.3,18.42-7.48,23.56-1.84,36.22,6.68,15.06,43.66,90.36,54.25,115.06,6.37,14.88,17.88,58.88,33.58,60.92,12.69,1.65,32.47-6.33,44.65-9.93A242.11,242.11,0,0,0,1354,387.47c33.19-17.6,58.16-46.93,94.53-58.84C1446.53,318.62,1451.53,189.29,1451.43,189.31Z"/><path class="cls-14" d="M1276.59,344.16a160.69,160.69,0,0,0,22-27.11c6.43-9.74,8.08-21,10.79-32.17.7-3,1.45-8,5.16-8.63,3.53-.57,8.22,1.53,10.46,4.2s1.89,5.91,2.19,9.06c.3,2.83.88,5.16,3.08,7,2.77,2.4,4.73,3.5,5.87,7.27a20.94,20.94,0,0,1,.09,11.51c-1.06,3.43-5.69,4.52-8.72,5.58-4.41,1.55-9.26,3.08-13.06,5.89a66.12,66.12,0,0,0-8.56,7.91c-12.78,13.42-22.93,29.92-38.56,40.44-6,4.07-24,7.5-24,7.5L1232.56,358C1243.86,368.06,1268.82,351.67,1276.59,344.16Z"/><path class="cls-14" d="M1335.76,352.68c2.89.57,4.76,3.59,4.64,6.46-.16,3.75-3.17,6.65-5.21,9.51-3.2,4.49-.21,11.92-6.19,14.56-3.31,1.46-7.24.7-10.64,0-6.84-1.5-13.71,0-20.31,1.86a173.07,173.07,0,0,1-20.36,4.2c-10,1.54-20,2.49-30.1,3.1l-7.72-17.46s39.53-2,49.09-3.75c10-1.84,18.75-6.34,27.16-11.92C1321.9,355.37,1328.5,351.25,1335.76,352.68Z"/><path class="cls-14" d="M1262.68,302.89c3.47-23,.94-50.68-21-64.66-14.78-9.4-37.69-5.29-51.08,4.92-4.31,3.29-6.61,6.66-7.66,10.29,4.85,10.23,11.56,24.15,18.51,38.64l.87-.15a10.56,10.56,0,0,1,5.52.23l2.41,1.15a10.34,10.34,0,0,1,3.57,3.86c.3.84.63,1.68,1,2.51a11.65,11.65,0,0,1-1.38,7.94,7.8,7.8,0,0,1-2.8,2.79,2.43,2.43,0,0,1-.29.2c5.6,11.76,10.89,23,15,32a7.72,7.72,0,0,0,2.27.81c5.69,1,14.1-.15,19.54-2,5.87-1.94,6.84-5.53,8.49-11.14,2.35-7.9,3.91-4.79,10.72-8.51,3.61-2,4.4-3.78,1.61-7.38C1264.23,309.66,1261.63,309.84,1262.68,302.89Zm-32.91,13.5a3.57,3.57,0,0,1-.46.26c-1.51.64-3.76-.23-4.9-.91a15.74,15.74,0,0,1-1.8,4.4c-3.58-2.42-3-12.24-1.12-15.52C1221.16,305.18,1235.76,312.07,1229.77,316.39Zm9-14.54c-6.9,1.66-17.16-5.06-14.73-13,1.15-3.77,8.31-10,11.86-11.56s7.39-.65,10.79.43c3.82,1.21,5.59,3.47,6,6.15C1253.65,290.69,1245.4,300.26,1238.82,301.85Z"/><path class="cls-26" d="M1258.47,210.56c27.36-8.52,55.14-24.11,82.32-34.71,34.85-13.59,74.94-25.12,112.76-22.45-21.57-1.2-45,12.64-63,22.89C1352.48,197.88,1311.33,211.89,1258.47,210.56Z"/><path class="cls-26" d="M1066.83,254.91c-7.31,4-14.06,5.28-14.92-3.53-3.49,8.9-4,18.86,1.4,27.14,8.86,13.57,23.72,25.39,34.19,38,10.75,13,19.55,27.83,29.41,41.56,7.45,10.39,16.57,20.32,23,31.06-14.76-26.5-29.33-53.33-44.44-79.76-16.32-28.56-3.54-52.79,15-75.49,11.65-14.26,25-27.55,34.86-43.37-22.46,13.83-38.8,34.87-59.67,50.6C1083,243.19,1074.57,250.64,1066.83,254.91Z"/><path class="cls-27" d="M1498.18,344.33c-8.58-41.91-.18-82.05,11.08-122.44a219.54,219.54,0,0,1,8.66-26.36c1-2.41,13.36-23,13.17-23.33-2.58-3.88-7.2-6.35-11.55-7.73-9,15.32-28.1,23.58-45.59,26.75-5.74,1.05-10.85-.21-14.4,4-2.77,3.26-2.48,13.4-2.76,17.47-1.75,23-.6,46.58-.35,69.6.44,37.09.29,77.6,45.31,83.34C1501.89,358.56,1499.63,351.37,1498.18,344.33Z"/><path class="cls-28" d="M1082.7,1158.52c-7.71,9.13-15.64,19.16-24.6,26.49-3.64,3-34.94,13.37-34.73,12.69-1.78,5.86,6.23,8.5,10.94,9.32-8.64,10.63-10.46,19.64,4.83,24.69,13.64,4.51,25.81-7.18,10.39-14.16,2.2-2.58,6.24-4,8.14-6.78,2.33-3.46,1.31-6.46,2.59-9.4a36.21,36.21,0,0,1,4.45-7.43c7.8-10.23,20.78-17.92,30.46-25.12.42-.3.95-.64,1.45-1C1091.84,1164.88,1087.18,1161.78,1082.7,1158.52Z"/><path class="cls-28" d="M863,1178.36c-6.49-5.46-12.41-12.36-18.08-19.3-3.52,2.93-7.16,5.7-10.92,8.36,8,5.75,16.55,12.09,22.26,19.78a36.57,36.57,0,0,1,4.34,7.49c1.23,3,.17,5.94,2.45,9.44,1.86,2.85,5.89,4.28,8,6.89-15.52,6.77-3.53,18.62,10.18,14.32,15.36-4.83,13.68-13.86,5.19-24.63,4.72-.74,12.77-3.26,11.07-9.15C897.76,1192.23,866.61,1181.39,863,1178.36Z"/><path class="cls-29" d="M1011.53,1441a26,26,0,0,0-7.2-1.59c-4.22-.39-16.37,1.62-18.18,6.25-2.69,6.92,14,7.76,18.21,7.58s14.58-1.87,11.14-9A7.25,7.25,0,0,0,1011.53,1441Z"/><path class="cls-29" d="M1184.82,1428.53c-6.74-4.59-15.18-3.36-21.85.09-5.77,3-14.39,9.76-3.75,13.4C1168.84,1445.31,1205.39,1442.52,1184.82,1428.53Z"/><path class="cls-29" d="M1202.36,1436.78c-2.78.2-6.25.76-7,2.67-2.28,5.86,8.6,5.65,11.78,4.86,10.3-2.54,8.16-8.11-2.07-7.66C1204.41,1436.68,1203.44,1436.71,1202.36,1436.78Z"/><path class="cls-29" d="M1180.27,1401.84a276.57,276.57,0,0,1-27.68-4.8c-47.72-10.43-94.47-20.51-143.72-19.49-20.2.42-39.86,3.23-59.46-1.88-19.79-5.18-45.17-.84-65.45.19-27.49,1.4-56.1,1.65-82.28,10.55-13.46,4.58-4.54,7.27,2.63,11.58-5.66,3.79-17.89,3.11-24.62,4.63-7.64,1.71-17.42.83-24.46,4.45-16.31,8.41,21.53,13.11,24.08,13.53,24.9,4,49.85,6.88,75,8.69,33.83,2.41,67.63,3.18,101.52,2.64,13.69-.21,27.78,1.42,41.12-2.42,8.16-2.35,16.9-5.86,25.53-4.5-3.92,6,6.14,5.55,9.43,5.14,8.29-1,19.82-6.37,27.77-1.74-8.31,7.83,16.7,9.7,20.28,9.87a260.82,260.82,0,0,0,34.23-1.06c7.42-.65,21.7.93,26.84-5.6-4-5.37-11.86-4.61-15.47-9.71,7.71-5.08,21-2.43,29.75-2.54,10.62-.11,21.35.19,31.7-2.55,4-1,10.67-1.42,10.63-6.76C1197.58,1403.05,1185,1402.38,1180.27,1401.84Z"/><path class="cls-30" d="M836.32,1404l-20-111.26,276.71,11.41c-2.76-.11-26.56,109.34-26.56,109.34Z"/><path class="cls-30" d="M816.34,1292.69s-4.42-9.63,18.28-25.56c0,0,.38-53.58,28.52-68l188.06,7.76s25.3,32.92,22.75,70.14c0,0,17.06,9.57,19.1,27.1Z"/><polygon class="cls-31" points="840.88 1293.7 857.42 1404.82 836.32 1403.95 816.34 1292.69 840.88 1293.7"/><polygon class="cls-31" points="1065.62 1302.58 1042.74 1412.08 1066.57 1413.06 1093.13 1303.71 1065.62 1302.58"/><path class="cls-22" d="M1074,1277c5.28-50.16-22.75-70.14-22.75-70.14l-24.83-1s30.72,1.27,25.26,70.25c0,0,12.71,11.22,13.9,26.88l27.51,1.13C1091,1286.57,1074,1277,1074,1277Z"/><path class="cls-22" d="M856.55,1270c-3-59.85,23.1-70.23,23.1-70.23l-16.51-.68c-28.14,14.45-28.52,68-28.52,68-22.7,15.93-18.28,25.56-18.28,25.56l24.54,1C841.49,1278.61,856.55,1270,856.55,1270Z"/><polygon class="cls-32" points="844.02 1314.11 1061.33 1323.07 1065.53 1302.97 840.88 1293.7 844.02 1314.11"/><path class="cls-33" d="M1057.72,1302.65c-9,15.11-28.13,13.35-44.18,13.68-27.94.58-56.06-2-84-3.08-18.63-.71-37.5-1.22-56-3.45-6.58-.78-13.93-1.69-19.52-5.55a14.49,14.49,0,0,1-6.3-10.26l-6.83-.29,3.14,20.41,217.31,9,4.2-20.1Z"/><path class="cls-34" d="M818.19,1298.1a23.89,23.89,0,0,1,12.95,3.59c5.41,3.11,9.54,8.2,12.92,13.43l-3.18-21.42-24.54-1,1,5.5Z"/><path class="cls-34" d="M1073.54,1302.91c5,3.41,7.46,9.47,6.62,16.59-1.41,12-3.52,24-5.53,36-3.24,19.2-6.84,38.34-10.48,57.48l2.42.1,26.56-109.34Z"/><path class="cls-34" d="M1062.2,1247a84.72,84.72,0,0,1,.34,27.69,67.07,67.07,0,0,1,27,29.26l3.48.14c-2-17.53-19.09-27.1-19.09-27.1,5.28-50.16-22.75-70.14-22.75-70.14l-12-.49C1051.41,1216.24,1059.61,1233.05,1062.2,1247Z"/><path class="cls-34" d="M854.88,1217.66a60.65,60.65,0,0,1,14.68-18.29l-6.42-.27c-28.14,14.45-28.52,68-28.52,68-18,12.62-18.94,21.27-18.57,24.33,3-9.38,10.85-16.24,19.94-20.29,1.65-.74,3.33-1.42,5-2C842.59,1251.35,846.47,1233.49,854.88,1217.66Z"/><polygon class="cls-35" points="854.79 1323.36 862.69 1384.83 1036.29 1391.99 1048.98 1331.37 854.79 1323.36"/><path class="cls-35" d="M878.67,1212.59l116,4.79c-4.85,1.72-10.23,1.48-15.47,2.11-15.88,1.91-32,3.63-48,3.11-11.93-.4-23.81-1.72-35.63-3.29-4-.52-13.61-3.29-17.2-2-3.21,1.13-6.78,10.28-4.1,12.14,1.58,1.1,6.35.14,8.27.3,5,.44,9.89,1.49,14.85,2,11.66,1.15,23.39,1.51,35.1,2,20.12.77,40.31.25,60.4,1.11a365.17,365.17,0,0,1-56.92,3.6c-13.34-.23-27.12-2.24-40.37-3.94-5.93-.76-13.24-2.2-19.15-1.26-7.24,1.14-7.89,11.7-6.15,17.62,19.62,1.51,40.28.78,60.2,2.64,19.66,1.82,41.09,2,59.88,2.82-23.89-1-47.45,3.34-71.36,2.1-12.14-.63-24.27-1.36-36.44-1.94-4.87-.24-11.08-2.76-13.13,1.26-5,9.73,8.45,10,14.71,10.32,18.86,1.07,37.94-.34,56.87.46-6.76.26-13.63,2-20.41,2.62-12.22,1.21-24.74-.54-36.91-1.78-8.39-.85-18.52-1.35-20.79,8.81-1.86,8.25,15,8.37,20.67,8.66,10.89.55,21.72,1.37,32.57,2.37,7.11.64,17.41,3.66,24.36,1.77-5.35,1.57-12,.78-17.56.81-11.5.07-23.17-1.33-34.63-2.47-13.12-1.31-25.7-.79-38.8-1.08,5.91-9.79,16.55-14.25,15.88-26.75-.89-16.82-.07-48.45,18.66-56.71C881.65,1206.46,871.16,1215.14,878.67,1212.59Z"/><path class="cls-35" d="M1029,1335.11a75.32,75.32,0,0,1,7.94,2.28,11.43,11.43,0,0,1,.29,4c-4.34,1.46-10.76,1.9-15.41,1.83,4.69,1.42,10-.37,14.67,1.17,3.58,1.18,8.64,6.24,7.69,10.57.32-1.43,4-23.11,4-23.11-20.39-1.39-41.32-2.6-61.73-2.58C1000.25,1331.73,1015.27,1331.91,1029,1335.11Z"/><path class="cls-35" d="M1022.39,1388.09c-4.13,1-50.34,1.25-50.34,1.25s50.09,2.14,64.24,2.65c0,0,1.66-6.81,3.72-15.56A28.25,28.25,0,0,1,1022.39,1388.09Z"/><path class="cls-35" d="M860.29,1340.24c2.06-.32,4.38-.68,6.38-1,5.57-.76,13.4.37,18.45-1.52-5.21-1-20.46,1.64-23.69-2.8,1.41-5.08,66.36-4.71,66.36-4.71s-72.24-1.68-72.45-3c.67,4.49,1.47,9,1.85,13.49Z"/><path class="cls-35" d="M873.63,1380.84c-2.24-.16-6-.35-7.12-1.57-1.64-1.8,0-1.33-.34-2.77-.1-.48,1.48-1.37,1.18-2.61-.61-2.56-6.29-6.9-7.74-9.71,2.73,5.25,2.2,14.75,3.08,20.65,3.87.34,58,2.89,70.44,2.92-6.2-2-48.18-5.61-58.4-6.81C874.44,1380.9,874.06,1380.87,873.63,1380.84Z"/><path class="cls-36" d="M1018.88,1209.19l-131.58-5.43c-9.3,2.44-14.59,11.89-17.38,20.24-1.58,4.74-2.87,10.78-.77,15.63,2.62,6.08,10.5,7.39,16.21,9.38,43.12,15.08,102.89,24.62,136.17-14.67,3.39-4,10.27-9.6,11.53-14.95C1034.87,1211.7,1024.8,1209.44,1018.88,1209.19Z"/><path class="cls-36" d="M870.81,1275.82a8.59,8.59,0,0,0,.32,2.32c2.37,7.93,16,10.25,22.57,11.75a199.53,199.53,0,0,0,33,5.06c22.56,1.29,43.21,1,65-6,5.63-1.81,11.8-2.72,16.92-5.68.38-.22,1.38-.81,2.6-1.6Z"/><path class="cls-34" d="M842,1226.53a109.17,109.17,0,0,0-4.41,15.46c.6,0,1.19-.08,1.79-.07,7.78.16,13.76,5.06,17.15,11.56a113.76,113.76,0,0,1,3.08-22.38A18.14,18.14,0,0,1,842,1226.53Z"/><path class="cls-34" d="M1061.22,1245.31a16.72,16.72,0,0,1,11.75,1.36,73.5,73.5,0,0,0-13-30.6s0,.09,0,.14a16.79,16.79,0,0,1-4.12,6.27,18.63,18.63,0,0,1-3.26,2.4,16.41,16.41,0,0,1-3.6,1.44,7.91,7.91,0,0,1-1.67.3c2.27,6.08,4,14,4.66,24.19A21.14,21.14,0,0,1,1061.22,1245.31Z"/><path class="cls-22" d="M816.34,1292.69,1093,1304.1S823.2,1298.48,816.34,1292.69Z"/><polygon class="cls-32" points="855.47 1391.73 1045.42 1399.57 1042.74 1412.08 857.42 1404.82 855.47 1391.73"/><path class="cls-37" d="M1037.53,1404.93c-31.44,3.92-62.9-.28-94.42-.47-17.34-.11-34.69.33-52-.17-11.49-.33-26,0-33.45-10.45a15.23,15.23,0,0,1-1.23-2.07l-.93,0,1.95,13.09,185.32,7.25,2.68-12.5-.45,0C1043.9,1402.28,1041.53,1404.43,1037.53,1404.93Z"/><path class="cls-35" d="M865.06,1271.41c1.25-.89,181.64,7.5,181.64,7.5s2.68-44.88-9.59-59.16c0,0,4.39,51.56-.76,53S865.06,1271.41,865.06,1271.41Z"/><polygon class="cls-38" points="816.34 1292.69 1093.04 1304.11 1093.13 1301.87 815.99 1290.44 816.34 1292.69"/><path class="cls-33" d="M1063,1332l-18.06,80.21S1066.67,1341.9,1063,1332Z"/><path class="cls-33" d="M843.57,1322.9,855,1404.33S839,1332.51,843.57,1322.9Z"/><path class="cls-29" d="M1130.83,1372.54c.8,1.18,1.54,2.39,2.24,3.65a50.22,50.22,0,0,0,12.78,16c3.34,2.73,8.15,4.84,10.66,8.31-6.81,5.36-13.78,2.22-21.74,3.35-14.8,2.1-26.93-5.19-41.1-8.31-8.09-1.77-24.29.11-15-11.42,10.77-13.4,10.17-29.77,19-43.84,9.23-14.72,7.78-5.72,12.35,4.65S1124.38,1362.9,1130.83,1372.54Z"/><path class="cls-39" d="M1131.82,1378.91c4.94,8.68,9.33,18.63,19,22.93,4.75,2.11,10.06,2.22,15.13,2.74,2.73.27,10.4,2.91,12.6,2.23-10.18,3.13-23.79,3.9-34.14,1.68-2.88-.62-6.14-1.92-9.16-1.64-1.57.15-1.94,2.18-3.22,2.25-5,.34-7.78-2.51-11.83-4-.78,1.64-.08,5.21-.89,6-1.7,1.73-9,1.87-11.25,1.88-7.83,0-14.53,1.83-22,3.39-.09-4.91,7.5-5,10.55-7.63,1.93-1.67,4.73-6.07,6.16-8.18,2.42-.37,6.42.54,7.81-1.58,1.56-2.41-1.1-6.76-2.29-8.11-2.74-3.13-4.21-.62-4.69-4.93-.29-2.58,2.36-7.47,3-10,.71,2.33.4,5.69,1,8.29,5.76,2.31,9.15-.47,8.16-6.85-.9-5.95-7.38-9.51-9.65-15-2.42-5.8-3.07-16.91-1.17-22.73C1105.59,1357.28,1123.84,1364.83,1131.82,1378.91Z"/><path class="cls-40" d="M907.06,1423.83c-18.6-.38-37.22-.52-55.78-1.93-16.59-1.26-33.5-1.14-50-3.37-3.27-.44-32.67-1.22-31-7.12,1-3.38,11-3.39,13.57-3.86,9.69-1.76,19.09-3.49,28.29-6.76-.08-4-5.87-2.79-7-6.28-2.37-7.24,20.09-13.82,24.71-9.43,4.8,4.56,4.13,16.73,5.5,22.81,8.26-1.06,17.13.81,25.59,1.14,16.43.65,32.79.17,49.25.82,30.65,1.19,62.07-.18,92.55,2.68,1.49.13-5.54,6.1-6,6.33-4.14,2.28-9.44,3.21-14,4-10,1.78-21.19,1-31.48,1.67C937,1425.54,921.52,1424.12,907.06,1423.83Z"/><path class="cls-29" d="M1030.56,1446.17a14.77,14.77,0,0,0-1.62,0c-11.27.87-6.94,10.5,3.08,7.87C1039.68,1452.05,1037,1446.52,1030.56,1446.17Z"/><path class="cls-40" d="M1067,1428.56c.43-11.08,27.3-6.93,33.34-5.56,7.48,1.7,15.79,7.39,4,10.5-7.13,1.88-15.31.6-22.54,0C1078.36,1433.23,1066.84,1434,1067,1428.56Z"/><path class="cls-32" d="M931.47,1323.12c0,.3-.12.57-.13.87-.5,12.17,8.49,33.67,20.66,34.17s22.9-20.18,23.41-32.35c0-.3-.06-.58-.06-.88Z"/><path class="cls-41" d="M941.38,1352c5.8-6.54,13.87-10.3,22.34-12.27a70.4,70.4,0,0,1,8.65-1.36,43.6,43.6,0,0,0,2.77-9.9,82.44,82.44,0,0,1-18.51,9.52,32.24,32.24,0,0,1-19.19.74,23.26,23.26,0,0,1-4-1.72A43.62,43.62,0,0,0,941.38,1352Z"/><polygon class="cls-33" points="931.29 1323.19 934.23 1320.48 971.83 1322.04 975.17 1325 931.29 1323.19"/><path class="cls-42" d="M959.78,1335.84a5.68,5.68,0,1,0-8.38,4.69,2.29,2.29,0,0,0-.08.28l-.32,7.82a2.47,2.47,0,0,0,4.94.21l.32-7.83c0-.06,0-.11,0-.18A5.65,5.65,0,0,0,959.78,1335.84Z"/><path class="cls-43" d="M958.45,1335.18a4.33,4.33,0,1,0-6.39,3.58,1.29,1.29,0,0,0,0,.21l-.32,7.85a1.88,1.88,0,0,0,3.76.16l.32-7.85c0-.05,0-.08,0-.13A4.31,4.31,0,0,0,958.45,1335.18Z"/><path class="cls-44" d="M940.78,1322.45c0-.22,0-.45,0-.67.42-10.07,6.82-18,14.28-17.67s13.19,8.72,12.78,18.78c0,.23-.07.45-.09.67l4.74.2c0-.23.07-.44.08-.67.53-12.87-7.21-23.64-17.3-24.06s-18.69,9.69-19.22,22.55c0,.23,0,.45,0,.67Z"/><path class="cls-41" d="M938.94,1310.46c4-5.75,10.25-9.7,17.46-9a18.29,18.29,0,0,1,9,3.17,21.18,21.18,0,0,1,2.93,2.58c-3.15-4.8-7.8-8-13.13-8.2-7.34-.3-13.86,5-17.09,12.86C938.43,1311.42,938.64,1310.91,938.94,1310.46Z"/><path class="cls-45" d="M439.59,685c12.41-3.33,28.63-8,28.45-22.09-.2-16.1-13.13-38.76-18.7-53.94a74.56,74.56,0,0,0-15.23-24.89c-1.58-1.65-23.45-16.1-23.56-13.51s-2.54,6.15-2.53,8.93c-7.89-5.21-21.12-26.66-31.53-26.7-12.64,0-5.38,10.69-8.68,19.12-16-7.37-24-24.36-41.5-30.67a104.38,104.38,0,0,0-29-5.35c10.23,11.34,10.91,22,15.79,35.88-10-8.72-21.88-12.21-34-16.45-3.42-1.18-40.43-10.58-40.18-9.76.6,2-.17,6.56,1.37,9.31C222,552.13,204.09,543,185,541.33c4.29,7.14,12,10.41,19,13.85-15.34,1.77-29.78,2.59-43.8,10.15-22.89,12.35-41.48,28.48-67.85,34.12C59.07,606.57,18.34,592.26.15,562.8c-3.68,55.17,63.37,71.32,104.36,86-7.17,11.72-25.75,1.6-36.64,0,19.08,19.34,38.82,34,69.29,25.39,26.41-7.43,53-32.43,80.81-33.41,23.36-.82,6.67,9.24-2.63,15.77,12.15.57,93.33-23.48,69.39,8,18.7,5.05,50.55-8.23,71.9-9.37-10.73,3.71-23,8.6-30.1,17.9,3.54-4.67,41.28-3.8,49.79-8.73-1,11.25-3.7,16-13.37,23.49,11.39-.08,23.1-3.19,34.37-3.08C413,684.93,423.15,689.41,439.59,685Z"/><path class="cls-46" d="M434.93,622.42c-4-11.52-11.52-16.16-18.87-25.36-.67,4.67-2,10.41-4.83,14.31-10.86-8.53-17.71-23.06-30.34-29.64a29.21,29.21,0,0,1,3.28,17.12c-20.83,2.65-43.6-21.46-65.7-22.29a120.47,120.47,0,0,1,7.22,13.31c-7-3.18-15.77-6.1-23.24-4.47,1.09,1.44,1.9,3.8,3,5.3-19.13-1.81-38.49-13.59-58.28-16.43-24.13-3.48-62-8.95-85.27.26,7.9,5,20.68,5,30,7.92-18.47-3.14-37.92-.88-54.44,9.71,7-.3,14.41-.71,20.71,1.86-7.26,4.37-16.34,2.42-24.36,5.1S120.57,611.6,115,613.87c-13.88,5.61-44,1.14-59-1.18,19.37,3.47,35.45,14.52,56.68,15.25,25.34.88,46-11.45,69.69-14.56-11.62,8.27-27.35,11.44-39.81,18.38,19,1.22,43.53-4.77,57.84-17.48-2.94,2.6-5.27,6.88-7.45,9.5,21.93-3.91,37.93-23.47,61.83-23.53-6.64.19-14.29,4.06-14.76,10.26,19.74-1.09,44-12.13,63.17-7.25-10.93,6.19-29.31,6.19-35.91,18.32,26.4,6.4,66.55-18.66,93.25-8.77-6,13.57-37.9,22.07-50.88,23.39,21.89-1.46,43.53-3.45,64.49-10.4-3.22,2.17-4.47,6.59-6.49,8.91,3.87-4.42,26.89,4.36,31.13,5.59-6.07,4.93-15.63,8.05-22.4,12.92,11.65,2,24-.22,35.55,3.21,9.64,2.86,17.63,8.66,27.91,8.82C441.29,665.27,436.19,626,434.93,622.42Z"/><path class="cls-47" d="M401.6,668.69c-11.73-7.09-18-15.43-24.85-27.21,1.46,3.14,2,7,3.19,10.24-13-6.06-28.57-12.19-44.54-9.85,3.92,3.31,8.62,6.14,11.62,10.21a62.08,62.08,0,0,0-41.58-10.38c3.64,1.69,5.84,4.35,8.09,6.15-30.25-11.22-66.47-9.11-97,1.22s-49.32,33.79-69.52,57c-25.38,29.22-58.16,53.51-98.87,47.75,20.62,45.9,123.88,57.82,150.62,13.31.33,5.67-1.9,11.32-4.75,16.23,10.46-1.94,20.69-7.07,30.7-11.18-2.8,3.06-1.94,6.1-3.06,8.79,23,6.05,51.53-27,63.86-43.5,15.22-20.35,32.81-38.26,58-45.41C362.92,686.62,421.27,698.78,401.6,668.69Z"/><path class="cls-48" d="M391.88,667.21c-10.28-12.64-36.27-22.12-48.31-20.89a36.07,36.07,0,0,1,8.87,11.94c-6.71-1.89-12.88-5.75-19.73-6.76-7.45-1.1-12,2.66-18.16,3-21.13,1.21-41.45-3.36-63.33,1.28-27,5.73-52.37,17.3-72.14,36.78-13,12.85-21,28.63-32,42.87-13,16.67-26.63,9.73-42.78,18.44,38.05,17.2,68.46-9.06,94.69-33.91-5.14,6.72-9.69,15.15-13.39,22.44,19.48,6.22,41.1-19.8,48.08-34.82-3,6.87-4.71,15.78-.42,22.25,11.56-5,21.24-22.75,30.68-31.39,9.87-9,20.64-16.78,33.48-20.79-8.8,4.6-26.93,17.65-22.1,28.51-5.68-12.76,50.21-28,57.55-28.69,20.5-2,43.6,4.32,63.34-.39C396,673.69,394.43,670.35,391.88,667.21Z"/><path class="cls-49" d="M441.78,774c105.14-62.66,226.11-90.53,347.13-105.09l.21-.17c18.46-17.56,18.08-48.08,22.24-71.14,5-27.88,13.64-55.35,9.92-84.06-23.09.33-44.93-4.86-68.42-5.13-20.22-.24-25.87,2-33.94-16.41-16.06-36.63-20.43-88.06-3.38-123.92C634,326.31,545.4,457,511.78,510.69,490,545.44,470.36,581.3,445.52,614.08c-14,18.43-29.13,36.78-47.33,51.22-21.89,17.38-44.26,15.67-68.47,27.6,13.6,31.64,36.5,76.9,73.95,84.49C416.6,780,429.4,777.89,441.78,774Z"/><path class="cls-50" d="M435,650.53c24.57-28.51,43-62.29,63.35-93.8,18.78-29.05,38-58.09,60.44-84.42,3.6-4.21,7.33-8.33,11.14-12.4,19-23,41.09-43.82,68-56.89,22.47-10.9,46.37-14.75,70.26-13.24a105.27,105.27,0,0,1,7.26-21.73C634,326.31,545.4,457,511.78,510.69,490,545.44,470.36,581.3,445.52,614.08c-14,18.43-29.13,36.78-47.33,51.22-21.89,17.38-44.26,15.67-68.47,27.6,1.7,4,3.6,8.15,5.6,12.44,15.65-3.76,31.37-7.27,46.22-13.46C402.61,683.09,420.28,667.65,435,650.53Z"/><path class="cls-50" d="M821.28,513.51c-23.09.33-44.93-4.86-68.42-5.13-17.24-.2-23.89,1.35-30.47-9.6a50.46,50.46,0,0,0,.75,8.56c1.44,7.49,5.67,11.42,12.08,15,12.4,7,26.87,9.75,40.81,11.66,15.21,2.08,30.5,2.66,45.81,2.81A118.47,118.47,0,0,0,821.28,513.51Z"/><path class="cls-51" d="M711.87,645c0,8.25-3.7,19.64,5.17,23.18,6.09,2.44,21.4-5.93,26.48-8.87,28.21-16.35,51.32-51.76,55.73-83.69,5.07-36.65-39.45-30.54-60.33-42.42-25-14.21-29.58-45.16-34.79-70.62,3.48,28.68.4,58.79,2.72,87.85C709.36,581.89,711.83,613.41,711.87,645Z"/><path class="cls-51" d="M441.78,774c105.14-62.66,226.11-90.53,347.13-105.09.07-.06.15-.11.21-.17,18.46-17.56,18.08-48.08,22.24-71.14,2.23-12.42,5.15-24.76,7.41-37.16-4.91,13.7-20.12,40.14-37.59,55.23-15.56,13.44-32.95,17.87-46.44-3.76-12.24-19.61-22.55-63.5-20.29-86.77a299.93,299.93,0,0,1-25.93,95c-14.28,31.06-40.7,43.7-71.13,56-28.31,11.48-56.42,23.55-85.1,34.27-27.38,10.23-53.86,24.56-81.44,33.68-19.51,6.46-42.29,6.53-61.64-.6-10.23-3.78-16.38-10.39-25.11-16.09-6.31-4.12-21-6.24-24.58-13.36,14,27.78,34.51,57.36,64.15,63.37C416.6,780,429.4,777.89,441.78,774Z"/><path class="cls-14" d="M701,460.28c-3.6-14.48-14.21-21.48-26.92-23.54a30.34,30.34,0,0,0-21.2,5.28c-10.26,7.77-16.36,18.94-12.76,33.4,1.12,4.48,2.76,8.53,5.87,11.7a43,43,0,0,1,5.1,6.5c.85,1.26,2.09,2.7,2.47,4.18.75,2.86-1.26,6.75.76,9.35,1.18,1.56,3.39,2.29,5.26,2.64,3,.57,5.53-2.37,8.05.19,1.93,2,1.77,5.34,3.61,7.41,2.93,3.32,9.87.39,13.45-.76,3.3-1.06,7.92-1.5,8.15-5.41.16-3-1.73-6-1.08-9,1.09-5.08,6.18-1.4,8.7-4.77,1.46-1.95,1.86-4.55.4-6.48-1.61-2.11-3.38-3.74-2.94-6.59.49-3.24,2.31-6.43,3-9.72C701.93,469.55,702.26,465.42,701,460.28Zm-33.34,18.4c.8,6.07-7.25,11-12.52,9.7-4.64-1.14-8.4-6.39-7.28-11.09.75-3.17,5.46-3.19,8.11-3.27,2.81-.08,7.73-.34,10,1.74A4.81,4.81,0,0,1,667.64,478.68Zm11.8,7.66c1.28,2.22,1.75,4.84.47,6-1.46,1.27-3.17.45-4.4-.68-1.19.92-3.18,3.17-4.81,2.68-1.1-2.77-.5-5.55.56-8.23C673.51,480.38,677.46,482.88,679.44,486.34Zm14.79-13.56c-1.39,5.37-8.44,12.39-13.75,7.59-7.46-6.74-2.9-11.18,4.38-14.54,2.21-1,6.45-2.78,8.53-.45C694.9,467.09,694.93,470.05,694.23,472.78Z"/><path class="cls-14" d="M707.84,518.36c-8.5,6.31-17.19,12.4-25.84,18.51-9.21,6.51-18.15,13.45-27.48,19.79-2.35,1.6-4.84,4.36-7.61,5-3.85.84-10.27-2.3-13.45.77-1,1-.88,4.12-.31,5.18,1.05,2,3.33,2,4.88,3.16,2.52,2,1.13,14.66,7.51,11.88,4.72-2,5.18-7.55,7.28-11.52s6.11-6.62,9.68-9.34c10.56-8,21.27-15.7,32.09-23.37,4.48-3.17,9-6.32,13.46-9.49C707.94,525.39,707.86,521.88,707.84,518.36Z"/><path class="cls-14" d="M708.38,536.65c-12.5-1.54-25.09-3.21-37.25-5.9-8.93-2-17.92-3.27-26.84-5.11-2.86-.59-5.81-1.63-7.52-4.14-1.49-2.21-2.09-5.52-5.55-5.58-1.37,0-3.54,2.29-3.89,3.44-.65,2.15,1,3.74,1.23,5.68.39,3.16-9.56,11.17-3.1,13.72,5.2,2,7.8-2.71,12.1-4.14,2.57-.84,5,.34,7.71.84,13.15,2.32,26.43,4.36,39.69,6,8,1,15.89,2.09,23.83,3C708.63,541.85,708.51,539.25,708.38,536.65Z"/><path class="cls-52" d="M625.92,550.21c15.77-34.78,34.42-75.6,29.25-114.15-2.82-21-8.08-39.44-23.15-38.63-4.8.26-10.58,2.45-17.59,7.13-18.77,12.52-34,31.81-48.09,49.1-26.92,32.93-49.59,68.7-74.8,102.86s-47.9,70-76.13,101.85c-5,5.58-29.34,21.26-30.42,27.91-3.83,23.53,57.59,12,67.8,10.16C534.87,682.14,592.49,624,625.92,550.21Z"/><path class="cls-53" d="M1450.68,1296.15c1.57-1,140.3-44.85,172.68-82.09,0,0,19,2.71,10.64,29.85,0,0-115.15,41.55-171.54,90.13C1437.52,1324.29,1450.68,1296.15,1450.68,1296.15Z"/><path class="cls-54" d="M1629.62,1216.87c-20.83,25.69-47.76,43.52-77.26,58.59s-56.35,31.55-89.09,27.89a22.49,22.49,0,0,1,5.43,11.69,34.19,34.19,0,0,1-1.45,15.06c57.88-46.87,166.75-86.19,166.75-86.19C1638.94,1227.76,1634.24,1220.3,1629.62,1216.87Z"/><path class="cls-55" d="M1620.45,1248.86s-14.35,19.85-15.56,32.31,24.72,82.28,22.83,94.69-11.49,26.23-11.49,26.23-89.84,15.07-121.09,23.5c0,0-20,5.41-25.7-8l20.44-7.49s6.23-8,5.91-17.08-21.29-30.54-21.42-44.36.89-25.08.89-25.08S1531.71,1281.43,1620.45,1248.86Z"/><path class="cls-56" d="M1527.4,1304.44c22.95-14.84,51.64-24.84,77.59-20.18a14.64,14.64,0,0,1-.1-3.09c1.21-12.46,15.56-32.31,15.56-32.31-88.74,32.57-145.19,74.71-145.19,74.71s-1,11.24-.89,25.08c.06,7.4,6.11,17,11.79,25.72-1.91-8.49-2-16.64.86-25.46C1493.35,1329.43,1510.77,1315.2,1527.4,1304.44Z"/><path class="cls-56" d="M1475.27,1424.13c5.44-4,9.32-8.28,11.8-13l-17.63,6.46A13.52,13.52,0,0,0,1475.27,1424.13Z"/><path class="cls-56" d="M1551.66,1403.51c-15.1,4.38-28.93,11.69-42.9,18.77,35.24-7.92,97.52-18.51,106.38-20C1594.14,1398.43,1573.76,1397.09,1551.66,1403.51Z"/><path class="cls-57" d="M1603.33,1393.47c-16.14-.72-33.37.49-48.92,5.26a153.47,153.47,0,0,0-24.38,10.1c-9.87,5-23.76,14.77-35.4,13.08,1.66-3.68,6.54-7.27,9.23-10.41a64.74,64.74,0,0,1,22.71-17.43c8.79-4.16,18-7.35,27.11-10.57,12.59-4.44,29.44-7.3,39.61-16.45,9.62-8.66,13-21.9,20.94-31.81,3.08,3,3.39,10.75,4.06,14.85a154.33,154.33,0,0,1,2,27.92c-.07,3.7-.61,14.87-4.57,16C1612.73,1394.83,1606.55,1393.61,1603.33,1393.47Z"/><path class="cls-57" d="M1576.06,1249.14q2.94-1.37,5.77-2.88c8.42-4.51,16.28-10.22,23.76-15.74a75.45,75.45,0,0,0-6.36,6.41c-12.09,12.71-27.87,23.34-43,32-14,8-28.72,13.35-43.8,18.89-12.24,4.5-25.51,8.15-38.67,7.17-8.07-.6,1.44-3.82,3.85-5.06,7-3.58,14.75-5,22.28-7.67,15.11-5.33,29.44-12.34,44.33-18.13,6.45-2.52,12.24-6.37,18.54-9.15C1567.15,1253.07,1571.65,1251.2,1576.06,1249.14Z"/><path class="cls-58" d="M1453.32,1298.32s9.48,2.22,11.76,14.46S1462,1332,1462,1332s-8.25-1.25-11.44-12.19S1453.32,1298.32,1453.32,1298.32Z"/><path class="cls-59" d="M1454.74,1303.17c-1.73,3.37-.39,10.5.44,12.83.53,1.54,8.35,12,8.44,11.84a28.24,28.24,0,0,0,1.12-15.42c-.55-2.94-3.31-12.09-8-11A3,3,0,0,0,1454.74,1303.17Z"/><path class="cls-28" d="M1558,1278.14c6.59-.51,14.28-2,18.17-7.82,3.46-5.17,5.7-13.37,2.45-19.17-1.09-1.93-3.87-3.43-5.47-5.05-7.36-7.41-12-20.25-15.18-30-6.76-20.76-7.56-45.29-7.7-66.95-.07-14.36-.6-22.16-6.34-35.34-7.43-17-7.71-33.13-7.27-51.21.6-23.23,1-46.72,1.89-70,.27-7.37,6.6-51.78-1.6-54.9-17.66-6.67-15.91,97.94-15.94,106-.1,44.13,1.51,92.36,14.52,134.74,4.54,14.72,9.79,29.2,14,44,1.66,6,6.36,13.53,5.69,19.87-.37,3.5-8.86,13.37-6.24,16.13.29.31,4.38-.68,5.47,0,1.35.87,2,3,2.45,4.44,1.28,3.84.68,7.28-.7,11C1555.12,1276.61,1553.88,1278.45,1558,1278.14Z"/><path class="cls-28" d="M1317.83,1201.93c-.1,11.67.37,23.36.17,34.39-.85,52.19-6,105.9-11,157.86-2.19,22.94-7.23,40.07-24.1,55.91,23.73-3.37,28.2-17.79,31.43-38.95,2.18-14.39.76-28.35,1.05-42.82a435.57,435.57,0,0,1,6.26-62.93c.32-1.8.71-3.58,1.11-5.36,7.66-31.93,12-65.25,14.55-98.29C1330.83,1201.84,1324.36,1201.88,1317.83,1201.93Z"/><path class="cls-28" d="M1248.49,1307.49c1.94-34.52,6-68.73,9.29-103.37-6.39.23-12.76.33-19.09.36,0,7.84.16,15.57-.16,22.64-2.48,56.16-4.16,111.83-6,167.89-.44,13.07-3.17,25.58-11.44,35,17.42,2.33,25.67-27.27,26.36-40.2.86-15.79-.12-31.79,0-47.62C1247.43,1330.59,1247.83,1319,1248.49,1307.49Z"/><path class="cls-60" d="M1272,1262.61s-18.58-16.68-42.73-10.46l-17,33s54.93,20,65.26,16.22C1277.53,1301.38,1276.22,1274.42,1272,1262.61Z"/><path class="cls-61" d="M1204.49,1426.76c9-3.89,17.8-21.21,22.67-29.54,4.54-7.71-3.9-95.76-5.16-108.66,10.77,3.66,28.24,9.31,41.07,11.9-1.89,10.75-4.37,24.71-5.48,31.74-1.94,12.36-6.57,40.38-5.13,55.81s3.82,31.34,2.46,48.22l-7.72.36s4.9-9.57-2.63-15-7.14,12.42-15.47,15.85-35.95,1.73-35.95,1.73A20.73,20.73,0,0,1,1204.49,1426.76Z"/><path class="cls-62" d="M1225.21,1283.23a23.86,23.86,0,0,0,28.56-4.12c.57-.58,2.49-3.15,3.49-4.51-.74,1.11-1.09,1.61,0,.1s.74-1,0-.1c1-1.38,2.53-3.73,2.87-4.46a24.54,24.54,0,0,0,2.21-13.7.69.69,0,0,1,0-.13,49.22,49.22,0,0,1,9.67,6.3c4.26,11.81,5.57,38.77,5.57,38.77-10.33,3.8-65.26-16.22-65.26-16.22l4.45-8.65A36.17,36.17,0,0,0,1225.21,1283.23Z"/><path class="cls-63" d="M1226.51,1294.6a19.75,19.75,0,0,0-4.16-2.52c-.15-1.47-.26-2.67-.35-3.52,10.77,3.66,28.24,9.31,41.07,11.9-1.89,10.75-4.37,24.71-5.48,31.74-1.94,12.36-6.57,40.38-5.13,55.81s3.82,31.34,2.46,48.22l-7.72.36s4.9-9.57-2.63-15-7.14,12.42-15.47,15.85c-6.67,2.74-25.76,2.19-33,1.88a64.32,64.32,0,0,0,22-14.55C1256.76,1394.12,1270.53,1329.81,1226.51,1294.6Z"/><path class="cls-60" d="M1344.9,1281.16s-18.6-16.68-42.72-10.46l-17,33s55,20,65.27,16.22C1350.46,1319.93,1349.15,1293,1344.9,1281.16Z"/><path class="cls-61" d="M1277.41,1445.31c9-3.9,17.8-21.22,22.68-29.55,4.53-7.71-3.91-95.75-5.17-108.65,10.77,3.67,28.23,9.3,41.08,11.91-1.91,10.73-4.37,24.7-5.48,31.73-2,12.37-6.58,40.37-5.15,55.81s3.83,31.35,2.47,48.21l-7.72.37s4.9-9.57-2.63-15-7.14,12.43-15.46,15.85-36,1.74-36,1.74A20.76,20.76,0,0,1,1277.41,1445.31Z"/><path class="cls-62" d="M1298.13,1301.78a23.87,23.87,0,0,0,28.57-4.13c.56-.57,2.48-3.14,3.51-4.49-.76,1.09-1.12,1.61,0,.1s.72-1,0-.1c.92-1.39,2.5-3.73,2.85-4.46a24.38,24.38,0,0,0,2.2-13.71.69.69,0,0,1,0-.13,48.89,48.89,0,0,1,9.69,6.3c4.25,11.81,5.56,38.77,5.56,38.77-10.31,3.8-65.27-16.22-65.27-16.22l4.45-8.65A36.43,36.43,0,0,0,1298.13,1301.78Z"/><path class="cls-63" d="M1299.43,1313.15a19.78,19.78,0,0,0-4.17-2.53c-.14-1.46-.24-2.66-.34-3.51,10.77,3.67,28.23,9.3,41.08,11.91-1.91,10.73-4.37,24.7-5.48,31.73-2,12.37-6.58,40.37-5.15,55.81s3.83,31.35,2.47,48.21l-7.72.37s4.9-9.57-2.63-15-7.14,12.43-15.46,15.85c-6.69,2.74-25.77,2.19-33,1.88a64.46,64.46,0,0,0,22-14.55C1329.68,1412.67,1343.45,1348.36,1299.43,1313.15Z"/><path class="cls-64" d="M1225.38,1299.83c5.35,4.16,8.2,11.34,10.36,17.56,2.59,7.43,4.71,15.06,4.87,23a72.42,72.42,0,0,1-3.24,22.11c-.86,2.9-1.84,10.47-5.22,11.72-1.47-1.9-1.35-5.59-1.61-7.93-.71-6.38-.8-12.87-1.1-19.28C1228.7,1331.41,1225.19,1315.6,1225.38,1299.83Z"/><path class="cls-64" d="M1299.06,1327.75c5.38,4.16,8.23,11.33,10.38,17.55,2.58,7.43,4.7,15.06,4.85,23a72.66,72.66,0,0,1-3.23,22.1c-.87,2.91-1.84,10.47-5.21,11.73-1.49-1.92-1.36-5.6-1.62-7.94-.68-6.39-.78-12.86-1.08-19.27C1302.39,1359.31,1298.87,1343.51,1299.06,1327.75Z"/><path class="cls-64" d="M1233.16,1272.88c-7.43.25-6.7-8.79-4.43-13.43,2.88-5.88,10-6.31,15.7-5.31,2.91.5,8.79,1.21,10.07,4.4,1.53,3.8-5.22,8.55-7.92,10.23A28.09,28.09,0,0,1,1233.16,1272.88Z"/><path class="cls-64" d="M1305.21,1291c-7.43.26-6.7-8.77-4.44-13.42,2.88-5.88,10-6.31,15.69-5.32,3,.51,8.84,1.22,10.11,4.4,1.53,3.8-5.21,8.56-7.94,10.24A27.86,27.86,0,0,1,1305.21,1291Z"/><path class="cls-65" d="M1615.43,756.56c-21.59,41.65-59.76,56.21-99,21-11.28-10.1-22.81-21-36.83-27.21-14.34-6.3-30.46-5-44.86-11.19,36.24-14.91,70-20.57,105.34,1,26.75,16.35,51.9,36.53,78.67,9.44C1617.69,752,1616.58,754.34,1615.43,756.56Z"/><path class="cls-65" d="M1570.05,682.53c14,6,33.84,20.92,47.41,10.51-13.86,10.65-22.18,20.13-40.12,24.61-16.56,4.13-37.91,5.74-54.87,4.77-15.11-.87-31-2.23-45.77,1.69-15.13,4-26.93,15.08-42,19.23,14-25.21,27.25-41.44,53.28-54.36,25-12.4,52-16.54,78.88-7.68C1567.85,681.64,1568.94,682.06,1570.05,682.53Z"/><path class="cls-66" d="M1559.25,782.93c-15.24-1.37-36.4-4.72-44.56-19.68-5.3-9.69-4.58-22.34,4.59-29.45a28.07,28.07,0,0,1,3.21-2.15c-29.08-10.81-57.55-4.87-87.74,7.55,14.4,6.18,30.52,4.89,44.86,11.19,14,6.18,25.55,17.11,36.83,27.21,30.37,27.22,60.08,24.56,82,2.69C1585.83,784,1572.17,784.1,1559.25,782.93Z"/><path class="cls-66" d="M1577.34,717.65a64.42,64.42,0,0,0,7.91-2.58l-.28.07a160.35,160.35,0,0,1-72.92.41c-12.31-2.94-25.56-10.89-30.12-23.29-22,12.4-34.4,27.93-47.27,51.08,15.11-4.15,26.91-15.21,42-19.23,14.82-3.92,30.66-2.56,45.77-1.69C1539.43,723.39,1560.78,721.78,1577.34,717.65Z"/><path class="cls-67" d="M1307.41,704.46l-.66,0c-30.33-1.65-60.83.09-91.06,2.41-14,1.07-28.18,1.07-41.9,4.3-13.37,3.16-26.38,8.65-39.34,13.17,5.58,2.26,13.68,2,19.83,3.73a109.17,109.17,0,0,1,26,10.51c16,9.18,34.32,22.34,53.53,21.64,20.77-.76,36.64-2.95,55.25,8.67a143.85,143.85,0,0,1,22.05,16.61c5,4.68,10.3,11.74,17.08,13.5-2.4-14.73,16.31-10.69,24.59-7.53,17.58,6.72,34.82,13,53.58,15.88,24.26,3.75,44.09,8.56,68.11.88,21.45-6.83,17-25.32,1.81-37.33-16.16-12.77-34.21-22.73-52.39-32.15C1387.35,719.74,1348.94,706.85,1307.41,704.46Z"/><path class="cls-65" d="M1137.91,713.6c2.42-2.14,4.8-4.15,6.64-5.88,19.24-18.16,46-21.4,70.84-27.77,43.95-11.3,88-13.55,132.55-4.06a209,209,0,0,1,76.87,33.39c6.36,4.53,58.49,54.51,56.18,56.85-11.41,11.61-39.52,11-54.25,11.88-42,2.41-86.14,1-125.11-15.94-54.48-23.66-115.47-32.44-174.11-36.91C1129.4,721.44,1133.72,717.32,1137.91,713.6Z"/><path class="cls-68" d="M1211,699a89.76,89.76,0,0,1-15.62-3.93c6.9-6,18.92-7.24,27.84-9.57,45.74-11.92,119.27-24.25,156.58,13.83-12.93,10.73-50.45-3-68,.45,10.4,7.58,25.73,6,37,13.22-6.37,5.53-26.35.49-34.16-.56-22.32-3-44.59-6.43-66.92-9.48C1235.63,701.35,1223.09,701.06,1211,699Z"/><path class="cls-66" d="M1424.81,709.28c-10.21-7.24-22.41-15.91-34.86-18.57A59.45,59.45,0,0,1,1408.06,705c1.12,1.27,12.94,16.74,11,16.86-18.54,1.1-38.91-7.76-57.15-6.58,5.55,3.44,71.09,17.76,64.09,30.9-3.14,5.92-32.25-2.7-37.52-3.59-9.12-1.57-19-4.24-28.3-4,5.56,4.2,21.54,15.53,6.72,17.61-10.24,1.43-21.26-2.41-30.82-5.52-13.43-4.37-27.28-7.92-41-11.3-26.77-6.6-54.39-10.34-81.77-13.52-9.07-1.06-18-2.83-27-3.86-8.07-.92-13.81-3.87-20.74-7.57-1.23-.66-17-10.27-15.94-11a65.23,65.23,0,0,0-5.14,4.34c-1.84,1.73-4.22,3.74-6.64,5.88-4.19,3.72-8.51,7.84-10.39,11.56,58.64,4.47,119.63,13.25,174.11,36.91,39,16.93,83.13,18.35,125.11,15.94,14.73-.85,42.84-.27,54.25-11.88C1483.3,763.79,1431.17,713.81,1424.81,709.28Z"/><path class="cls-68" d="M1548.23,713.46a48.2,48.2,0,0,1-21.87-3.6c6.19-1.41,20.45-5.55,24.69-10.13-2.94-2.43-6.76-3.05-10.54-3.78-13.65-2.64-36.68,6.22-48.58-.58,2.79-15.61,56.43-13.63,67.6-10.27,13.79,4.15,26.36,15.64,41.09,15.84-11.1-.15-25.22,7.86-36.39,10.16A107.25,107.25,0,0,1,1548.23,713.46Z"/><path class="cls-68" d="M1531.14,765.53a25.13,25.13,0,0,1-8.07-10.73c4.73,5.52,15.61,10.33,23.52,6.4-1-5.56-6.88-8.59-8.79-14.22.61,1.81,22.88,11.25,26.28,13.11,10.19,5.52,24.13,8.47,35.05,3.64C1586.86,781.47,1548.86,779.84,1531.14,765.53Z"/><path class="cls-28" d="M745.21,1299.44c-.15-12.18-.59-24.34-.53-36.55.05-11.66.49-23.41.58-35.15.09-11.33.25-22.67.26-34-3.92.3-7.83.64-11.71,1.16-2.63.35-5.28.69-7.92,1,.64,3.25,1.25,6.49,2,9.71,2.44,10.83,8.1,23.62,6.83,35.37-.9,8.23-6.16,15.37-7.44,23.59-2.43,15.58,3.36,33.73,5.53,48.67,2.24,15.3,2.72,31.06,5.53,46.1,1.38-7.87,5-15.2,6.14-23,1.08-7.56.69-16.23.78-23.88C745.28,1308.11,745.27,1303.78,745.21,1299.44Z"/><path class="cls-28" d="M676.33,1311.21c-.15-12.19-.59-24.35-.53-36.55.05-11.67.49-23.4.58-35.16.11-13,.34-26,.28-39-7,.38-14,.67-20.93.78,1,5.38,2,10.77,3.25,16.08,2.44,10.84,8.1,23.63,6.83,35.38-.9,8.23-6.16,15.38-7.44,23.59-2.43,15.57,3.36,33.74,5.53,48.66,2.25,15.31,2.72,31.06,5.53,46.1,1.38-7.87,5-15.2,6.14-23,1.08-7.55.69-16.23.78-23.88C676.41,1319.88,676.39,1315.55,676.33,1311.21Z"/><path class="cls-60" d="M713.73,1258.55s18.45-16.81,42.65-10.76l17.2,32.88s-54.8,20.42-65.15,16.68C708.43,1297.35,709.54,1270.38,713.73,1258.55Z"/><path class="cls-61" d="M782.36,1422.22c-9-3.83-18-21.09-22.9-29.38-4.58-7.69,3.23-95.79,4.41-108.69-10.73,3.74-28.18,9.51-41,12.19,2,10.72,4.56,24.67,5.73,31.7,2,12.35,6.85,40.32,5.51,55.77S730.5,1415.18,732,1432l7.71.32s-5-9.55,2.52-15,7.23,12.38,15.57,15.74,36,1.49,36,1.49A20.75,20.75,0,0,0,782.36,1422.22Z"/><path class="cls-62" d="M760.63,1278.84a23.86,23.86,0,0,1-28.59-3.92c-.58-.58-2.52-3.13-3.53-4.48.75,1.09,1.1,1.6,0,.1s-.73-1,0-.1c-1-1.37-2.55-3.72-2.89-4.45a24.31,24.31,0,0,1-2.29-13.68.59.59,0,0,0,0-.13,48.65,48.65,0,0,0-9.62,6.37c-4.19,11.83-5.3,38.8-5.3,38.8,10.35,3.74,65.15-16.68,65.15-16.68l-4.51-8.61A36.61,36.61,0,0,1,760.63,1278.84Z"/><path class="cls-63" d="M759.41,1290.21a19,19,0,0,1,4.14-2.54c.13-1.47.24-2.67.32-3.52-10.73,3.74-28.18,9.51-41,12.19,2,10.72,4.56,24.67,5.73,31.7,2,12.35,6.85,40.32,5.51,55.77S730.5,1415.18,732,1432l7.71.32s-5-9.55,2.52-15,7.23,12.38,15.57,15.74c6.71,2.7,25.78,2,33.07,1.64a63.93,63.93,0,0,1-22.1-14.38C729.87,1390,715.63,1325.72,759.41,1290.21Z"/><path class="cls-60" d="M640.93,1277.61s18.46-16.81,42.64-10.76l17.21,32.89s-54.8,20.4-65.15,16.66C635.63,1316.4,636.74,1289.45,640.93,1277.61Z"/><path class="cls-61" d="M709.56,1441.29c-9-3.85-18-21.1-22.89-29.4-4.58-7.68,3.23-95.78,4.4-108.69-10.73,3.74-28.18,9.51-41,12.19,2,10.73,4.56,24.68,5.71,31.71,2,12.34,6.86,40.31,5.53,55.77s-3.61,31.36-2.12,48.22l7.72.33s-5-9.54,2.51-15,7.23,12.38,15.58,15.74,36,1.48,36,1.48A20.7,20.7,0,0,0,709.56,1441.29Z"/><path class="cls-62" d="M687.83,1297.9a23.85,23.85,0,0,1-28.59-3.93c-.57-.56-2.51-3.13-3.53-4.48.75,1.1,1.11,1.61,0,.11s-.75-1,0-.11c-1-1.37-2.54-3.71-2.89-4.44a24.41,24.41,0,0,1-2.29-13.69.53.53,0,0,1,0-.12,48.94,48.94,0,0,0-9.63,6.37c-4.19,11.83-5.3,38.79-5.3,38.79,10.35,3.74,65.15-16.66,65.15-16.66l-4.5-8.61A37.16,37.16,0,0,1,687.83,1297.9Z"/><path class="cls-63" d="M686.61,1309.27a19.72,19.72,0,0,1,4.14-2.55c.14-1.46.24-2.66.32-3.52-10.73,3.74-28.18,9.51-41,12.19,2,10.73,4.56,24.68,5.71,31.71,2,12.34,6.86,40.31,5.53,55.77s-3.61,31.36-2.12,48.22l7.72.33s-5-9.54,2.51-15,7.23,12.38,15.58,15.74c6.7,2.69,25.78,2,33.06,1.64a64.06,64.06,0,0,1-22.1-14.39C657.07,1409,642.84,1344.8,686.61,1309.27Z"/><path class="cls-69" d="M749.26,1411.86c-8.34-9.08-16.84-9.4-16.87-9.4A170.12,170.12,0,0,0,732,1432l7.71.32s-5-9.55,2.52-15,7.23,12.38,15.57,15.74,36,1.49,36,1.49a16.55,16.55,0,0,0-1.24-2.93C755,1430.8,757.51,1420.84,749.26,1411.86Z"/><path class="cls-69" d="M676.68,1431.06c-8.35-9.08-16.86-9.41-16.88-9.41a170.25,170.25,0,0,0-.39,29.59l7.71.32s-5-9.54,2.52-15,7.22,12.38,15.57,15.74,36,1.49,36,1.49a16.83,16.83,0,0,0-1.26-2.93C682.42,1450,684.92,1440,676.68,1431.06Z"/><path class="cls-64" d="M760.59,1295.44c-5.35,4.2-8.14,11.4-10.27,17.63-2.53,7.44-4.58,15.1-4.68,23a71.68,71.68,0,0,0,3.39,22.08c.88,2.9,1.91,10.45,5.29,11.69,1.48-1.92,1.32-5.61,1.56-7.95.66-6.39.7-12.86,1-19.28C757.48,1327,760.89,1311.2,760.59,1295.44Z"/><path class="cls-64" d="M687.08,1323.87c-5.34,4.19-8.14,11.39-10.26,17.63-2.53,7.44-4.58,15.1-4.69,23a71.87,71.87,0,0,0,3.39,22.07c.89,2.91,1.92,10.46,5.3,11.69,1.47-1.91,1.32-5.6,1.56-7.94.65-6.39.69-12.87,1-19.28C684,1355.46,687.38,1339.63,687.08,1323.87Z"/><path class="cls-64" d="M752.6,1268.54c7.44.2,6.64-8.82,4.34-13.45-2.9-5.87-10-6.24-15.73-5.22-2.92.54-8.8,1.29-10.05,4.47-1.5,3.83,5.27,8.53,8,10.18A27.8,27.8,0,0,0,752.6,1268.54Z"/><path class="cls-64" d="M680.68,1287.15c7.44.21,6.62-8.82,4.33-13.44-2.91-5.87-10-6.24-15.72-5.21-2.93.53-8.81,1.27-10.06,4.47-1.5,3.82,5.28,8.52,8,10.17A27.83,27.83,0,0,0,680.68,1287.15Z"/><path class="cls-70" d="M346.93,1110.54l-14.54,252.17s.14,21.72,3.16,23.92,8.29-28.82,8.29-28.82l15.58-248.63Z"/><path class="cls-71" d="M371.89,1353.25l-5.93-6.8-21.86,7.14-.26,4.22s-5.28,31-8.29,28.82-3.16-23.92-3.16-23.92l.31-5.39-.09,0-33.29,10.58c.43.48,1,.91,1.36,1.4.15.19.25.38.38.57a11.64,11.64,0,0,1,3.36,8.54L302.33,1429,369,1411Q371.17,1382.18,371.89,1353.25Z"/><path class="cls-72" d="M371.89,1353.25l-5.93-6.8-21.86,7.14-.26,4.22s-.33,1.93-.87,4.79q14.43-4.66,28.91-9.13A1.77,1.77,0,0,0,371.89,1353.25Z"/><path class="cls-73" d="M302.81,1417.48l-.48,11.47L369,1411c.41-5.32.82-10.63,1.14-16Q336.61,1406.75,302.81,1417.48Z"/><path class="cls-72" d="M301.1,1369.92a12,12,0,0,1,3.11,6c9.38-3.37,18.78-6.7,28.25-9.83-.06-2-.07-3.35-.07-3.35l.31-5.39-.09,0-33.29,10.58c.43.48,1,.91,1.36,1.4C300.84,1369.53,301,1369.73,301.1,1369.92Z"/><path class="cls-74" d="M377.25,1053.58c-3-3.42-42.35-.28-42.58,2.74-2.28,30.09,12.26,54.22,12.26,54.22l12.49-1.36C371.9,1107.83,380.22,1057,377.25,1053.58Zm-18,42.94-6.72.9a71.93,71.93,0,0,1-6.37-34.18c.13-1.91,21.29-4,22.87-1.89S365.91,1095.61,359.21,1096.52Z"/><path class="cls-75" d="M368.74,1061.17a1.24,1.24,0,0,1,.25.18c1.58,2.16-3.08,34.26-9.78,35.17a55.05,55.05,0,0,0-6.36,1c-1.14.29,3.16,2.65,4.28,2.58,12.45-.89,14.82-21.74,15.65-31.28C373.05,1065.6,373.22,1060.89,368.74,1061.17Z"/><path class="cls-76" d="M348.38,1056c11.56-2.27,28.81-3.16,29.22-1.4a2.88,2.88,0,0,0-.35-1c-3-3.42-42.35-.28-42.58,2.74-2.28,30.09,12.26,54.22,12.26,54.22l3.22-.35a107.82,107.82,0,0,1-8.59-24.68c-1-4.62-2.23-9.2-2.94-13.88-.42-2.67-1.9-9.57-.26-12C339.32,1058.21,343.29,1057,348.38,1056Z"/><path class="cls-77" d="M340.51,1369.92c-5.57-39.08-2-78.92,1.16-118.07,1.58-19.74,3.17-39.4,3.64-59.2.35-15,1.84-27.82,11.35-39.37l2.76-44.1-12.49,1.36-14.54,252.17s.14,21.72,3.16,23.92c1.57,1.14,3.75-6.74,5.48-14.55A11.38,11.38,0,0,1,340.51,1369.92Z"/><path class="cls-29" d="M440.32,1439.2c-36.42,5.53-80.8,21.41-117.52,15.22-24-4.06-49.18-.16-73.4.89-14.6.62-42.38,4.46-55.48-3,14.55-6,31.94-3.48,46.7-8.88-4,.25-6.65-1.44-10.45-2,7.79-11.76,22.92-3,32.75-8.13,12.59-6.63,14.55-33.11,33.32-32.15,9,.49,4.18,3.07,9.13,8,5.7,5.68-1.62,6.53,9.58,8.89,6,1.26,14.9-1.69,20.79-2.83,11.66-2.23,24.11-4.82,35.06-9.52-2.33-6.46-2.84-13.59-.06-20.26,4.15,12.75,9.52,7.29,20,10.62,8.28,2.63,12.87,8,22.89,9.06,11.86,1.24,24,.77,35.84,1.65-5.16,10.07-28.32,5.39-36.36,14.56,17.15,6.72,37.44.66,53.41,10.73C462.31,1439.15,448.05,1438,440.32,1439.2Z"/><path class="cls-39" d="M444.65,1411.18a151.49,151.49,0,0,1-49.51,2.53,24,24,0,0,1-6.1,12.37c-7.33,7.69-20.05,8.63-30,8.89a122.23,122.23,0,0,1-13.8-.48,18.77,18.77,0,0,1-3.29,3.91,29.84,29.84,0,0,1-8.69,5.23,57.14,57.14,0,0,1-13.12,4c-17.51,2.45-37.15-2.87-50.24-15a26.84,26.84,0,0,1-2.62-2.82,17.14,17.14,0,0,1-4.39,3.46c-9.83,5.16-25-3.63-32.75,8.13,3.8.54,6.41,2.23,10.45,2-14.76,5.4-32.15,2.92-46.7,8.88,13.1,7.48,40.88,3.64,55.48,3,24.22-1,49.37-5,73.4-.89,36.72,6.19,81.1-9.69,117.52-15.23,7.73-1.17,22,0,26.23-7.14-16-10.07-36.26-4-53.42-10.73C419.62,1413.94,435.86,1415.53,444.65,1411.18Z"/><path class="cls-28" d="M389.18,1128.57l-3.06-5.65c-6.81-12.47-12.23-27.42-21.16-38.66-5.23-6.6-15.57-9.66-14.84-20.09-.13,1.85-9.24-1.18-10.05-1.68-12.14-7.54,1.73-18.16,10.34-21.23,5.74-2.06,10.6-.21,13.75,5.16-.27-.47,4.82,1,5.36,1.35,2.57,1.78,2.71,3.1,3.2,5.89,1,5.61-2.9,11.14-2.06,16.86,2.95,20.49,22.55,34.82,34.57,50,10.06,12.74,16.86,28,26.22,41.31,3.24-6.17,1.3-17,1-23.68-1.51-31.66-3.72-65-.71-96.55.57-6,2.91-19.91,9.59-10.88,7.69,10.4,5.53,30.66,6,42.57.19,4.59,7.4,126.39-10.88,120.46-4.4-1.42-8.72-9.23-11.4-12.48-6.35-7.73-11.27-15.42-18.08-22.57C399.32,1150.7,394.4,1138.24,389.18,1128.57Z"/><path class="cls-78" d="M1177.65,788.93c35.12,19,22.2,63.92,15.8,94.39-7.55,36-51.38,52.46-85.55,40.72-53.61-18.43-16.74-104.34,12.41-126.89C1135,785.79,1160.58,779.68,1177.65,788.93Z"/><path class="cls-79" d="M1211.72,854.53c2.14,28.19,22.71,60.38,54.24,59.09,20.27-.83,50.87-16.51,59.77-35.76,17.78-38.48-12.68-93.82-49.69-108.77C1221,746.87,1208.77,815.3,1211.72,854.53Z"/><path class="cls-14" d="M1180.38,800.3c35.1,19,22.17,63.91,15.8,94.38-7.55,36-51.4,52.47-85.57,40.73C1057,917,1093.87,831.07,1123,808.51,1137.71,797.16,1163.29,791.05,1180.38,800.3Z"/><path class="cls-14" d="M1214.42,865.9c2.14,28.18,22.73,60.38,54.25,59.09,20.26-.83,50.86-16.52,59.76-35.76,17.78-38.49-12.68-93.84-49.68-108.78C1223.75,758.24,1211.46,826.66,1214.42,865.9Z"/><path class="cls-14" d="M1180.49,982.36s31.2,5.55,57-8.42c0,0-6.86,39.24-25.92,40.47S1180.49,982.36,1180.49,982.36Z"/><path class="cls-72" d="M1191.32,822.11c4.06,18.48-1.87,40.91-5.48,58.17-6.77,32.28-46,47-76.69,36.51-8.61-3-14.58-7.89-18.49-14.06,2.47,12,9.55,21.82,23.42,26.58,30.64,10.53,69.92-4.22,76.67-36.5C1195.25,871.37,1203.26,842,1191.32,822.11Z"/><path class="cls-72" d="M1319.26,831.11c4.66,15,5.06,30.68-1.15,44.09-8,17.3-35.49,31.41-53.7,32.15-18.87.77-33.3-11.78-41.48-27.71,6.06,21.32,22.81,41.24,46.4,40.27,18.21-.75,45.71-14.86,53.71-32.15S1328.2,849.51,1319.26,831.11Z"/><path class="cls-80" d="M1305.69,860.08a30.91,30.91,0,1,1-29.59-32.17A30.9,30.9,0,0,1,1305.69,860.08Z"/><path class="cls-28" d="M1294.38,859.61a19.58,19.58,0,1,1-18.75-20.37A19.59,19.59,0,0,1,1294.38,859.61Z"/><path class="cls-14" d="M1304.83,839.32a6.18,6.18,0,0,0-.6-3.19,9.09,9.09,0,0,0-2.26-4.2l-2.35-2.09-2.8-1.43a9,9,0,0,0-4.73-.58,6.29,6.29,0,0,0-3.2.59,6.09,6.09,0,0,0-2.87,1.4,9,9,0,0,0-3.41,3.22c-.47.93-.94,1.86-1.45,2.78-.21,1-.43,2.08-.66,3.11.06,1.09.11,2.19.17,3.28a9.49,9.49,0,0,0,1.92,4.44,9.29,9.29,0,0,0,3.21,3.41l.52.4,2.56,1.3a8.17,8.17,0,0,0,4.34.54,5.61,5.61,0,0,0,3-.55,8.22,8.22,0,0,0,3.86-2.09l.72-.46c.69-.78,1.36-1.56,2.06-2.34a8.89,8.89,0,0,0,1.76-4.34A6.1,6.1,0,0,0,1304.83,839.32Z"/><path class="cls-14" d="M1271.8,819.85c-5-.42-10.26,5.63-7.16,10.48a3.19,3.19,0,0,1,.26.42c2.87,4.47,8.59,5.33,12,.87.11-.13.22-.25.31-.38C1280.62,826.81,1277.05,820.29,1271.8,819.85Z"/><path class="cls-14" d="M1275.69,888.1a11.31,11.31,0,0,0-2.52-5.26l-2.15-1.91a11.12,11.12,0,0,0-5.37-1.91,10.78,10.78,0,0,0-10.81,6.1,8.59,8.59,0,0,0-1.27,4.11c0,1,.12,2,.15,3a11.3,11.3,0,0,0,2.55,5.27l2.15,1.9a11.23,11.23,0,0,0,5.36,1.91,8.55,8.55,0,0,0,4.43-.63,8.14,8.14,0,0,0,3.82-2.07,8.48,8.48,0,0,0,2.57-3.4,8.35,8.35,0,0,0,1.25-4.11C1275.81,890.09,1275.74,889.09,1275.69,888.1Z"/><path class="cls-81" d="M1177.19,873.94a30.92,30.92,0,1,1-29.63-32.16A30.91,30.91,0,0,1,1177.19,873.94Z"/><path class="cls-28" d="M1165.87,873.48a19.59,19.59,0,1,1-18.78-20.38A19.57,19.57,0,0,1,1165.87,873.48Z"/><path class="cls-14" d="M1176.33,853.19a6.29,6.29,0,0,0-.61-3.19,9,9,0,0,0-2.28-4.21l-2.33-2.08c-.92-.47-1.88-1-2.79-1.43a9.21,9.21,0,0,0-4.75-.59,6.18,6.18,0,0,0-3.19.61,6.09,6.09,0,0,0-2.89,1.39,9.39,9.39,0,0,0-3.41,3.22l-1.42,2.78c-.22,1-.45,2.08-.67,3.11.06,1.09.11,2.19.17,3.28a8.89,8.89,0,0,0,1.92,4.44,9,9,0,0,0,3.21,3.41,5,5,0,0,1,.49.4c.88.43,1.73.86,2.58,1.3a8.35,8.35,0,0,0,4.36.54,5.65,5.65,0,0,0,2.93-.55,8.45,8.45,0,0,0,3.88-2.08l.68-.47,2.09-2.34a9.24,9.24,0,0,0,1.77-4.34A6.33,6.33,0,0,0,1176.33,853.19Z"/><path class="cls-14" d="M1143.29,833.72c-5-.43-10.25,5.64-7.16,10.48.1.14.17.28.27.42,2.85,4.46,8.57,5.34,12,.87.12-.13.2-.26.31-.39C1152.11,840.68,1148.52,834.15,1143.29,833.72Z"/><path class="cls-14" d="M1147.18,902a11.09,11.09,0,0,0-2.55-5.25l-2.12-1.91a11.27,11.27,0,0,0-5.39-1.91,10.77,10.77,0,0,0-10.79,6.1,8.37,8.37,0,0,0-1.27,4.11c0,1,.1,2,.16,3a11.14,11.14,0,0,0,2.54,5.27c.72.63,1.41,1.26,2.12,1.89a11.21,11.21,0,0,0,5.4,1.92,8.41,8.41,0,0,0,4.39-.63,10,10,0,0,0,6.4-5.48,8.41,8.41,0,0,0,1.27-4.1C1147.27,904,1147.24,903,1147.18,902Z"/><path class="cls-82" d="M1245,969.87c-32.74,21.47-64.46,14-68.58,10.9,6.23-.92,17.27-2.46,23.81-11.19,1.46.67,5.29,3.25,6.83,3.15,2.7-.16,4.39-3.48,6.72-4.8C1220.24,971,1236.36,975.18,1245,969.87Z"/><path class="cls-82" d="M1234.73,986.27c-6.13,8.93-8.89,20.29-20.87,21.77-10.49,1.29-23.11-5.46-28.47-15,6.31,11.23,7.54,24.32,21.81,28.8C1223.43,1026.93,1236.47,998.69,1234.73,986.27Z"/><path class="cls-83" d="M1124.23,840.57a182.79,182.79,0,0,0-20.16,5.3c-5.11,1.8-13.1,5.39-16.94,9.28,1.62-3.66,2.46-8.22,4.12-12.17,14-33.6,51.82-66.43,90.37-49.9,12.67,5.43,19.89,16.34,23.35,29.23a56.13,56.13,0,0,1,1.89,14.88c0,3.08.89,8.18-.68,10.95-8-7.83-23-9.79-33.78-10.9A149,149,0,0,0,1124.23,840.57Z"/><path class="cls-84" d="M1275.79,815.49A98.68,98.68,0,0,1,1303,817c5.33,1,18,2.45,21.86,6.41-1.42-1.46-2.71-5-3.77-7.26a91.7,91.7,0,0,0-29.32-35.72c-11.76-8.76-26.6-14.33-41.26-9.3-15.74,5.39-25.59,17-31.2,32.22a135.56,135.56,0,0,0-7.92,43.53c3.44-4.36,7.56-9.5,11.86-13.05a64.9,64.9,0,0,1,16.87-10.32C1251.4,818.84,1263.65,816.55,1275.79,815.49Z"/><path class="cls-28" d="M1343.14,816.08c-2.63,1.78-5.41,3.26-8.19,5-1.34.82-4.84,2.08-5.39,3.55-1.24,3.33,6.11,4.51,8.31,4.51,6.24,0,11.21-3.95,15.56-7.64-3.27,5.19-9.9,9.21-14.64,13.1-2.38,1.94-6,5.65-9.36,5.45a26.83,26.83,0,0,0-2.28-6.49c-4.24-9-14.52-11.84-23.51-13.39a152.14,152.14,0,0,0-30.6-1.83c-12.89.41-25.94,2.47-37.4,8.68-9.7,5.29-17.62,12.39-25,20.39,3.59-9.73,15.92-18.92,24.52-24a97.52,97.52,0,0,1,22-9.59c5.47-1.63,10.71-3.47,16.13-5.28,4.38-1.46,8.32-3.9,12.32-6.22A42.54,42.54,0,0,0,1299.28,790c-3.57,4.72-5.75,9.88-10,14.18-2.35,2.38-9.27,5.42-3.46,7.53a38.46,38.46,0,0,0,21.84,1.37c6.9-1.67,14.86-6.75,19.65-12a51.15,51.15,0,0,0,5.12-7.35c-.83,4.47-4,8.68-7.17,11.82-1.07,1.08-10.81,9.72-11,9.45,1.68,2.76,7.05.85,9.7.61a54.9,54.9,0,0,0,12.51-2.53,50.78,50.78,0,0,0,21.35-13.41,53.29,53.29,0,0,1-11.8,14.2A30.86,30.86,0,0,1,1343.14,816.08Z"/><path class="cls-28" d="M1072.72,845a46.6,46.6,0,0,0,8.3,4.08c1.23.43,5.69,1.19,6.35,2.43,1.68,3.15-5.44,5.28-7.64,5.58-6.17.81-11.62-2.43-16.41-5.52,3.91,4.72,11,7.83,16.23,11a28.71,28.71,0,0,0,7.16,3.57c2.23-7.83,5.4-12.22,12.64-16.28,12.45-7,27.68-9.44,41.66-11a169.28,169.28,0,0,1,42.79.41c6.28.91,12.36,4.25,18.33,5.14-5.31-3.86-10.39-7.12-16.79-8.94a187.75,187.75,0,0,0-26.13-5.26c-15.45-2.17-36.51-2-46.37-16.73a41.3,41.3,0,0,0,9.25,11.51c1.06.92,8.09,7.39,8.44,7.27-10.07,3.27-20.56,7.05-31,2.33-6-2.72-17.87-8.11-18.48-16,.39,5,4.15,9,7.68,12.33,1.15,1.07,12.11,9.82,12.47,9-1.32,3.07-8.51,3-11.12,3-5.1-.17-10.06-1.47-15-2.75a50.35,50.35,0,0,1-19.13-9.6,53.86,53.86,0,0,0,13.57,12.5C1070.58,843.68,1071.64,844.34,1072.72,845Z"/><path class="cls-28" d="M1269.39,750.49c-17.07-3.83-34.82-2.69-37.6-27.06,6.83,5.42,14.87,8.31,23.89,9.72,8.44,1.31,18.74,1,25.24,7.65,3.75,3.84,3.29,15.1,5.92,17.13C1281.58,753.87,1275.52,751.86,1269.39,750.49Z"/><path class="cls-28" d="M1132.17,787.15c17.34-2.41,34.93.19,39.71-23.87-7.26,4.84-15.52,7.07-24.62,7.72-8.52.61-18.74-.52-25.78,5.54-4.07,3.52-4.52,14.78-7.3,16.59C1119.75,789.52,1126,788,1132.17,787.15Z"/><path class="cls-85" d="M1152.59,791.75a51.37,51.37,0,0,0-21.26,9c-8.58,6.07-.16,8.77,6.19,9.88,8.73,1.51,18.56.81,27.38.26,3.92-.25,13.76-.64,15.17-5.64,2.69-9.46-13-13.1-19.67-13.74A32.55,32.55,0,0,0,1152.59,791.75Z"/><path class="cls-85" d="M1257.32,773a51.09,51.09,0,0,0-21.27,9c-8.57,6.06-.16,8.76,6.19,9.87,8.74,1.52,18.56.81,27.38.26,3.92-.25,13.75-.63,15.17-5.64,2.69-9.46-13-13.1-19.64-13.73A32.14,32.14,0,0,0,1257.32,773Z"/><path class="cls-86" d="M1341.82,949.12c-.47,11.3-19.71,19.67-43,18.71s-41.78-10.89-41.32-22.19,19.71-19.68,43-18.71S1342.28,937.83,1341.82,949.12Z"/><path class="cls-86" d="M1152.86,953.09c4.55,10.35-9.09,26.34-30.44,35.69s-42.34,8.56-46.88-1.8,9.1-26.34,30.45-35.7S1148.34,942.73,1152.86,953.09Z"/><path class="cls-87" d="M716.73,802c-12.41-19.76-31.79-30.45-58.42-21.15-25.49,8.91-39,34.35-45.07,58.72-8.46,34.12-8.15,84.15,23,107.36,24.64,18.34,53.87,14.25,75.14-6.23C738.6,914.58,741.09,840.83,716.73,802Z"/><path class="cls-88" d="M865.59,810.24c-16-21.63-42.66-43.19-69.94-47.9-34.23-5.93-45.76,21-46.69,50.37s-1,75.88,19.94,98.09c24.65,26.12,63.94,22.3,90.42,1.12C894.5,883.76,890.89,844.56,865.59,810.24Z"/><path class="cls-14" d="M718.25,817.85c-12.4-19.76-31.79-30.44-58.42-21.15-25.48,8.91-39,34.35-45.06,58.73-8.47,34.1-8.16,84.14,23,107.35,24.65,18.34,53.87,14.25,75.15-6.23C740.13,930.39,742.62,856.64,718.25,817.85Z"/><path class="cls-14" d="M864.94,826.12c-16-21.65-42.66-43.2-69.94-47.91-34.24-5.92-45.76,20.95-46.69,50.38s-1,75.87,19.94,98.08c24.64,26.12,63.93,22.31,90.42,1.11C893.85,899.62,890.23,860.43,864.94,826.12Z"/><path class="cls-72" d="M715.15,823.39c-.19-.32-.41-.6-.6-.91a129.27,129.27,0,0,1,7,25c4.51,24.83,4,52.31-10.88,73.57-7,9.94-17.08,18.55-29.49,20.17-10.49,1.36-20.74-2.89-28.8-9.38-19.29-15.55-29.32-42.39-32-66.34a99.72,99.72,0,0,1-.64-10.38c-.31,1.08-.61,2.18-.88,3.26-7.87,31.74-7.58,78.31,21.44,99.92,23,17.07,50.15,13.27,70-5.8C735.51,928.13,737.83,859.5,715.15,823.39Z"/><path class="cls-72" d="M874.75,854.75c-2,33.16-29.52,63.23-64.18,62.62-29.09-.5-44.55-29.31-50.38-54.2-4-17.26-5.64-37.13-2.39-55.53a80.09,80.09,0,0,0-4.27,24.55c-.84,27-.93,70,18.4,90.45,22.73,24.09,59,20.57,83.38,1C879.48,904.32,883.76,879.33,874.75,854.75Z"/><path class="cls-89" d="M724.45,1002.16s37.92,3.47,63.69-9.86c0,0-7.21,49.91-39.61,49.49S724.45,1002.16,724.45,1002.16Z"/><path class="cls-14" d="M777.05,1007.09c1.15-3.85,2.37-7.69,3.58-11.52-25,9.39-56.18,6.59-56.18,6.59a56.36,56.36,0,0,0-.64,16.18c.3,0,.6.13.91.18s1,.12,1.32.16c1,.07,2,.15,3,.2,2,.09,4.05.11,6.08.06a79.6,79.6,0,0,0,24.68-4.09c2.08-.64,4.13-1.33,6.15-2.1,1.08-.43,2.16-.87,3.23-1.34l1.51-.73A67.18,67.18,0,0,0,777.05,1007.09Z"/><path class="cls-14" d="M763,1034.92a.63.63,0,0,1-.07-.12c-.32-.62-.63-1.23-1-1.82s-.72-1.13-1.08-1.69l-.14-.25-.1-.09c-.82-.86-1.65-1.64-2.53-2.42-.42-.21-.8-.5-1.22-.75a115.64,115.64,0,0,1-28.17,4.72c3.67,5.27,9.75,9.16,19.81,9.29a28,28,0,0,0,15.6-4.37,12.73,12.73,0,0,1-.88-1.82C763.12,1035.23,763.05,1035.05,763,1034.92Z"/><path class="cls-90" d="M836.54,874.39a30.92,30.92,0,1,1-29.62-32.16A30.92,30.92,0,0,1,836.54,874.39Z"/><path class="cls-28" d="M825.21,873.92a19.58,19.58,0,1,1-18.75-20.36A19.57,19.57,0,0,1,825.21,873.92Z"/><path class="cls-14" d="M835.66,853.64a6.1,6.1,0,0,0-.6-3.19,9.17,9.17,0,0,0-2.26-4.21c-.79-.69-1.57-1.38-2.34-2.08l-2.8-1.43a9.08,9.08,0,0,0-4.74-.58,12.24,12.24,0,0,0-6.08,2,9.31,9.31,0,0,0-3.41,3.22c-.47.92-.94,1.86-1.42,2.79-.22,1-.45,2.06-.67,3.1,0,1.08.12,2.18.17,3.28a13.66,13.66,0,0,0,5.13,7.85l.51.39c.84.44,1.71.87,2.56,1.31a8.23,8.23,0,0,0,4.35.54,5.63,5.63,0,0,0,2.94-.55,8.32,8.32,0,0,0,3.86-2.09l.71-.46c.69-.79,1.39-1.56,2.08-2.34a9.24,9.24,0,0,0,1.77-4.34A6.11,6.11,0,0,0,835.66,853.64Z"/><path class="cls-14" d="M802.64,834.17c-5.06-.42-10.28,5.62-7.16,10.47.08.14.18.28.26.43,2.87,4.46,8.58,5.34,12,.86l.3-.38C811.46,841.13,807.87,834.61,802.64,834.17Z"/><path class="cls-14" d="M806.53,902.42a11.06,11.06,0,0,0-2.54-5.26l-2.14-1.91a11.19,11.19,0,0,0-5.37-1.91,8.52,8.52,0,0,0-4.42.63,8.26,8.26,0,0,0-3.84,2.07,12.49,12.49,0,0,0-3.81,7.51c0,1,.09,2,.15,3a11.12,11.12,0,0,0,2.55,5.26l2.12,1.9a11.31,11.31,0,0,0,5.38,1.92,12.64,12.64,0,0,0,8.26-2.69,12.55,12.55,0,0,0,3.81-7.52Z"/><path class="cls-91" d="M712,896.54a30.92,30.92,0,1,1-33.75-27.8A30.92,30.92,0,0,1,712,896.54Z"/><path class="cls-28" d="M700.71,897.63A19.58,19.58,0,1,1,679.34,880,19.59,19.59,0,0,1,700.71,897.63Z"/><path class="cls-14" d="M708.28,876.11a6.06,6.06,0,0,0-1-3.08,9.08,9.08,0,0,0-2.82-3.86l-2.61-1.74-3-1a9.15,9.15,0,0,0-4.79.07,12.34,12.34,0,0,0-5.74,2.8,9.16,9.16,0,0,0-2.94,3.66c-.34,1-.68,2-1,3-.07,1.06-.15,2.11-.24,3.17.21,1.08.42,2.16.62,3.22a9.16,9.16,0,0,0,2.5,4.15,9.26,9.26,0,0,0,3.65,2.93l.57.32,2.72,1a8.55,8.55,0,0,0,4.38-.06,5.79,5.79,0,0,0,2.84-.95A8.53,8.53,0,0,0,705,887l.64-.57c.57-.87,1.15-1.73,1.73-2.6a9.14,9.14,0,0,0,1.16-4.54A6.11,6.11,0,0,0,708.28,876.11Z"/><path class="cls-14" d="M672.89,861.35c-5.06.27-9.4,7-5.65,11.35.11.13.21.26.33.38,3.44,4,9.22,4.11,12-.77.08-.15.16-.28.24-.42C682.59,867,678.14,861.06,672.89,861.35Z"/><path class="cls-14" d="M686.11,928.41a11.2,11.2,0,0,0-3.23-4.86c-.8-.52-1.59-1-2.38-1.59a11.18,11.18,0,0,0-5.59-1.16,11.5,11.5,0,0,0-10.56,11.77c.19,1,.38,2,.56,2.94a11.19,11.19,0,0,0,3.24,4.87l2.38,1.59a11.24,11.24,0,0,0,5.59,1.16,8.68,8.68,0,0,0,4.29-1.23,8.39,8.39,0,0,0,3.52-2.58,12.62,12.62,0,0,0,2.75-8Z"/><path class="cls-92" d="M609.77,863.36c.83-2.52,1.66-4.87,2.14-6.76,3.28-13,8.68-27.35,16.61-38.22,14.73-20.16,37.38-35.49,63.08-27.16,13.12,4.26,23.28,14.12,30.13,25.84,2.5,4.29,20.54,34.56,9.63,38.28-2.73.92-11.73-2.14-14.94-2.32-20.79-1.14-39.9.29-60.06,6.29-12.15,3.62-23.67,8.63-35.11,14.06-4.39,2.08-8.81,5.94-13.24,7.28C605.77,876.24,607.79,869.3,609.77,863.36Z"/><path class="cls-93" d="M869.81,825.69c-1.33-2.31-2.62-4.44-3.47-6.19-5.9-12.07-14.11-25-24.1-34-18.55-16.72-43.85-27.1-67.3-13.68-12,6.85-19.89,18.58-24.19,31.46-1.58,4.71-13,38-1.6,39.43,2.86.35,11-4.5,14.14-5.32,20.11-5.37,39.13-7.88,60.08-6.13,12.64,1,24.94,3.59,37.25,6.57,4.71,1.14,9.84,4,14.45,4.41C876.37,837.47,873,831.09,869.81,825.69Z"/><path class="cls-28" d="M729,852.24c-4.92-1.08-10.08-1.6-14.63-2.2-13.33-1.73-26.55-.17-39.9-2.29-5.23-.82-9.18-1.16-13.53-4.69-2.22-1.8-10.06-10-9.09-13.08-2.7,8.48,2,20.65,10.83,23.24-18.51,1.75-49,14.09-58.49-8.92,4.5,12.94,7.42,18.73,21,21.75-7.06,5-14.65,11.71-22.22,16-12.22,6.92-26.51,1.55-38.84-1.25,19,30.91,46.82,4.71,70.68-6,19.93-8.95,40.56-12.5,62-15.52,14-2,28.23-1.91,42.3-3.57A39.52,39.52,0,0,0,729,852.24Z"/><path class="cls-28" d="M756.15,837.74c4.58-2.09,9.51-3.69,13.84-5.23,12.66-4.51,25.91-5.78,38.51-10.66,4.93-1.91,8.73-3.07,12.25-7.44,1.77-2.22,7.72-11.89,6.11-14.7,4.43,7.72,2.38,20.61-5.68,25,18.46-2.19,50.84,3.44,55.29-21.07-1.67,13.61-3.29,19.88-15.94,25.7,8,3.43,16.78,8.36,25.08,11,13.41,4.18,26.25-4.08,37.7-9.42-12,34.22-44.76,14.48-70.35,9-21.37-4.55-42.29-3.66-63.86-2.09-14.11,1-28,4.08-42.1,5.43A38.64,38.64,0,0,1,756.15,837.74Z"/><path class="cls-82" d="M715.18,998.37c10.14.48,18-3.48,26.5-8.75,8.12-5,8.94-4.4,14.26,3.49a47,47,0,0,0,9.79-8.61c7.78,7,19.72,3.33,28.74.19-1.45.51-4.5,6.18-6,7.52a34,34,0,0,1-8.1,5.21c-6.36,3-12.58,2.64-19.27,4-15.44,3.1-32.62,6.71-46.57-3.07Z"/><path class="cls-82" d="M765,1033.84a25.18,25.18,0,0,1-15.37,4.55c-13.57-.76-26.15-12.12-26-26.23-1.52,11.1,0,26.51,8.51,34.49,8,7.48,22.67,10.21,31.29,3,13.47-11.29,17.17-25.9,21.15-42.22C781.13,1016.76,774.16,1027.77,765,1033.84Z"/><path class="cls-28" d="M603.07,796.57c4.07-8.14,9.32-14.64,18.89-19.79,13.35-7.19,29.29-11,43.88-14.94,14-3.79,26.8-5,36.71-17.42,4.3,8.55-2.94,23.63-10.08,29.11-8.4,6.45-19.48,7.63-29.77,8.86-23.07,2.76-48.72,5.6-64.27,25A117.91,117.91,0,0,1,603.07,796.57Z"/><path class="cls-28" d="M859.2,769.4c-3.39-8.45-8.08-15.35-17.2-21.28-12.72-8.26-28.29-13.37-42.5-18.49-13.69-4.94-26.31-7.17-35.14-20.4-5,8.18,1,23.79,7.64,29.85,7.84,7.11,18.78,9.2,28.93,11.27,22.76,4.66,48.1,9.6,62,30.25C861.76,776.58,860.58,772.86,859.2,769.4Z"/><path class="cls-6" d="M697.38,800.77c-4.39-14.15-31.29-7-40.58-3.33-13.17,5.22-27.52,15.11-27.89,30.76-.25,10.93,8.33,6.12,13.92,1.76,9-7,16.53-14.08,27.7-18,7.26-2.57,15-2.47,22.18-4.79C696.37,806,698.63,804.76,697.38,800.77Z"/><path class="cls-6" d="M798.36,769.25a26.06,26.06,0,0,1,8.5,1.18c2.7.94,9.9,3,11.66,5.15,4.8,5.8-6.12,9.91-9.94,11.17-11.78,3.92-21.88,10.32-33.22,15.19-4.78,2-10.77,6.76-14,.35-2.78-5.58,1.21-15,4.58-19.52,6-8.1,16.23-12,26-13.12C794,769.44,796.16,769.26,798.36,769.25Z"/><path class="cls-86" d="M889.72,962.41c2.49,11-13.92,24.14-36.67,29.27s-43.2.36-45.68-10.67,13.91-24.14,36.66-29.27S887.24,951.39,889.72,962.41Z"/><path class="cls-86" d="M703.72,991.44c1.66,11.19-15.69,23-38.75,26.47s-43.11-2.85-44.77-14,15.68-23,38.75-26.46S702,980.26,703.72,991.44Z"/><path class="cls-94" d="M596.88,1204c3.77-2.29,114.66-65.69,191.83-72.3s76.65,6.22,83.51,3.44,35.89-44.09,37-54.32c0,0-84.46-15.26-164.53-.22C677.49,1093.26,542.47,1129.57,509,1168,498.53,1183.45,596.88,1204,596.88,1204Z"/><path class="cls-95" d="M838.86,1115.25c-33.37.16-66.7,5-99.13,12.76-30.82,7.36-61.7,17-90.57,30.09-24.31,11.07-53,25.4-79.58,13.18-10.12-4.65-23.59-15-28.3-26.64C527.2,1152.21,515.92,1160,509,1168c-10.47,15.48,87.88,36.06,87.88,36.06,3.77-2.29,114.66-65.69,191.83-72.3s76.65,6.22,83.51,3.45c3.11-1.26,10.8-10.5,18.37-21.14C873.5,1116.18,856,1115.16,838.86,1115.25Z"/><path class="cls-95" d="M853.54,1124.74a325.54,325.54,0,0,0-53.14,2.54A557.89,557.89,0,0,0,710.62,1146c-23.86,7-46.62,16-69.71,25.15-20.31,8-41.94,15.91-64.14,15-22.69-.93-40.5-12.69-53.26-30.72A80.66,80.66,0,0,0,509,1168c-10.47,15.48,87.88,36.06,87.88,36.06,3.77-2.29,114.66-65.69,191.83-72.3s76.65,6.22,83.51,3.45c1.8-.74,5.16-4.19,9.13-9C872.13,1126,862.89,1125.14,853.54,1124.74Z"/><path class="cls-21" d="M835.28,1098.09h0a37.53,37.53,0,0,0-42.42-31.62L741.24,1074a37.52,37.52,0,0,0-31.6,42.43h0A37.51,37.51,0,0,0,752.06,1148l51.6-7.53A37.53,37.53,0,0,0,835.28,1098.09Zm-42.54,30.78-33.54,4.9a24.39,24.39,0,0,1-27.58-20.55h0a24.38,24.38,0,0,1,20.55-27.57l33.55-4.9a24.4,24.4,0,0,1,27.57,20.56h0A24.4,24.4,0,0,1,792.74,1128.87Z"/><path class="cls-96" d="M835.28,1098.09h0a37.25,37.25,0,0,0-15.17-24.87,7.93,7.93,0,0,1-5.16,2.84c-13.63,1.45-27.32,2.22-40.92,4a198,198,0,0,0-20.66,3.65c-3.27.79-6.53,1.69-9.72,2.76-1.23.4-2.44.83-3.63,1.33-.48.2-1.79,1-1.92,1-5.11,4.27-9,13.08-15.06,18.54-4.42,4-9.24,5.25-13.76,4.46a37.61,37.61,0,0,0,.36,4.7h0A37.51,37.51,0,0,0,752.06,1148l51.6-7.53A37.53,37.53,0,0,0,835.28,1098.09Zm-27.4,36.4c-5.67,3.33-12.52,4.18-18.92,4.91-6.84.78-13.55,2.17-20.36,3.17-8.46,1.24-18.31,2.55-26.47-.81-5.43-2.23-11.07-5.14-12.81-11.23a11.59,11.59,0,0,1,2.51-10.6,11.15,11.15,0,0,1,1.31-1.27,24.45,24.45,0,0,1-1.52-5.44h0a24.38,24.38,0,0,1,20.55-27.57l33.55-4.9a24.4,24.4,0,0,1,27.57,20.56h0a23.69,23.69,0,0,1,.11,2.38,11.75,11.75,0,0,1,3.74,5.65C820.05,1119.23,817,1129.18,807.88,1134.49Z"/><path class="cls-21" d="M838.39,1112.17l-27.8,1.35a6.6,6.6,0,0,1-6.88-6.26l-.17-3.36a6.59,6.59,0,0,1,6.25-6.88l27.81-1.34a6.59,6.59,0,0,1,6.89,6.25l.16,3.37A6.58,6.58,0,0,1,838.39,1112.17Z"/><path class="cls-96" d="M844.09,1100.37a11.76,11.76,0,0,1-2,1.49,58.69,58.69,0,0,1-8.82,3.69,63.13,63.13,0,0,1-9,2.62c-3.5.7-7.28,1.29-10.83.72a17.59,17.59,0,0,1-7.51-2.52,13,13,0,0,1-2.31-2l.14,2.88a6.6,6.6,0,0,0,6.88,6.26l27.8-1.35a6.58,6.58,0,0,0,6.26-6.87l-.16-3.37A6.27,6.27,0,0,0,844.09,1100.37Z"/><path class="cls-97" d="M718.78,1102.67a7.78,7.78,0,0,1-3.36,2.13c-3.62,1.18-3-1.83-2.14-4.45a36,36,0,0,1,17.43-20c10.23-5,22.7-6.2,33.83-7.69,7.06-1,14.16-1.56,21.24-2.29,3.31-.34,9.46-1.84,12.44.22-.92,1.55-3.14,1.75-4.77,2.11a106.73,106.73,0,0,1-12.17,2.1c-9.68,1-19.22,1.21-28.73,3.58-8.19,2-16.27,4.62-22.16,11-2.32,2.52-3.81,5.64-5.82,8.39A14.91,14.91,0,0,1,718.78,1102.67Z"/><path class="cls-97" d="M745.85,1138.62c-5.68-.91-10.79-3.47-11.51-10,.47,4.29,18.77,6.42,22.24,6.41a209.14,209.14,0,0,0,28.07-2c6.31-.89,18.88-1.29,21.9-8.18-2.13,4.85-7.45,7.33-12.17,9.07-12.46,4.58-25.43,4.54-38.5,5.11A51.37,51.37,0,0,1,745.85,1138.62Z"/><path class="cls-97" d="M809.7,1103.38c-1.88-1.66-1.74-3.82,3.37-4.53,8.25-1.18,17.27-.65,25.61-.44-6,4.09-15.93,7.31-23.21,7.09A9.72,9.72,0,0,1,809.7,1103.38Z"/><path class="cls-22" d="M484.42,993.89c-.3,1.55-.47,3.15-.65,4.75-10.32,4.08-18,15.1-18.59,28.5-.71,17.35,10.77,31.93,25.64,32.54,14.4.59,26.67-12.12,28.09-28.68a28.77,28.77,0,0,0,4.67-3.9c.39-.4.69-.83,1-1.24a46.14,46.14,0,0,1,.64,9.68c-.93,22.57-17.36,40.22-36.71,39.42s-34.27-19.74-33.34-42.31C456,1013.07,468.5,997.23,484.42,993.89Z"/><path class="cls-24" d="M464.08,1007.27a45.48,45.48,0,0,0-1.22,5.14c-2.56,15.62-1.79,35.25,10.38,46.83,23.06,21.91,45.81-2.56,52-26.59,0,1,0,1.92,0,2.89-.93,22.57-17.36,40.22-36.71,39.42s-34.27-19.74-33.34-42.31A45.08,45.08,0,0,1,464.08,1007.27Z"/></g></g></g></svg>