<svg xmlns="http://www.w3.org/2000/svg" xmlns:xlink="http://www.w3.org/1999/xlink" viewBox="0 0 80.97 115.69"><defs><style>.cls-1{isolation:isolate;}.cls-2{fill:#729c00;}.cls-10,.cls-12,.cls-16,.cls-20,.cls-27,.cls-3,.cls-31,.cls-32,.cls-39,.cls-45,.cls-47,.cls-49,.cls-55,.cls-9{mix-blend-mode:multiply;}.cls-11,.cls-3{opacity:0.3;}.cls-4{fill:#72a300;}.cls-5{fill:#5f8400;}.cls-6{fill:#b6cd07;}.cls-7{fill:#a5af00;}.cls-11,.cls-17,.cls-23,.cls-25,.cls-33,.cls-48,.cls-50,.cls-56,.cls-57,.cls-8{mix-blend-mode:screen;}.cls-55,.cls-56,.cls-8,.cls-9{opacity:0.6;}.cls-10{opacity:0.7;}.cls-12,.cls-20{opacity:0.56;}.cls-13{fill:#728a00;}.cls-14{fill:#d1d1d1;}.cls-15{fill:#a7a7a7;}.cls-16,.cls-33{opacity:0.76;}.cls-17,.cls-25{opacity:0.54;}.cls-18,.cls-20,.cls-23{fill:#191919;}.cls-19{fill:#c00;}.cls-21{opacity:0.67;}.cls-22{fill:#7c0000;}.cls-24,.cls-25{fill:#ffca09;}.cls-26,.cls-27{fill:#ce6d00;}.cls-27{opacity:0.64;}.cls-28,.cls-31{fill:#86d300;}.cls-29,.cls-32{fill:#449af0;}.cls-30{fill:#ffff13;}.cls-31,.cls-32{opacity:0.79;}.cls-34{fill:#fff;}.cls-35,.cls-39{fill:#52211c;}.cls-36{fill:#6b0300;}.cls-37{fill:#ff333d;}.cls-38{fill:#e5e5e5;}.cls-39,.cls-57{opacity:0.48;}.cls-40{fill:url(#linear-gradient);}.cls-41{fill:#2c120d;}.cls-42{fill:url(#linear-gradient-2);}.cls-43{fill:#362e00;}.cls-44,.cls-45,.cls-47,.cls-48,.cls-49,.cls-50{fill:#6d3d00;}.cls-45{opacity:0.26;}.cls-46{fill:#1d0c00;}.cls-47{opacity:0.37;}.cls-48{opacity:0.35;}.cls-49{opacity:0.4;}.cls-50{opacity:0.44;}.cls-51,.cls-55,.cls-56{fill:#fcae00;}.cls-52{fill:#dbdbdb;}.cls-53{fill:#c2c2c2;}.cls-54,.cls-57{fill:#eaeaea;}</style><linearGradient id="linear-gradient" x1="347.58" y1="1104.53" x2="352.01" y2="1104.53" gradientTransform="translate(-1102.39 -102.3) rotate(-64.27)" gradientUnits="userSpaceOnUse"><stop offset="0" stop-color="#9a9c00"/><stop offset="1" stop-color="#e9c600"/></linearGradient><linearGradient id="linear-gradient-2" x1="351.14" y1="1110.37" x2="355.57" y2="1110.37" xlink:href="#linear-gradient"/></defs><g class="cls-1"><g id="Слой_2" data-name="Слой 2"><g id="Layer_1" data-name="Layer 1"><path class="cls-2" d="M62,63.27a4.07,4.07,0,0,1,0-.78c.31-3.63,4.84-7.42,8.47-7-1.5,1.78-1.29,4.11-1.53,6.34-.19,1.8-1.14,4.8-3.31,5C63.64,67,62.23,65.07,62,63.27Z"/><g class="cls-3"><path class="cls-4" d="M68.82,56.52A5,5,0,0,0,68,59.24c0,.69.17,1.36.17,2,0,1.52-1.38,3.67-3,3.88-.55-1.81-.44-3.93-1.34-5.61.87-.48,1.42-1.45,2.32-1.92-.3.42-1.68,2.63-.36,2.08.47-.21.86-1.44,1.18-1.84A6.18,6.18,0,0,1,69,56.17Z"/></g><path class="cls-5" d="M64.74,64.89A9.41,9.41,0,0,1,64.26,67c-.63,1.79-2.27,5.32-4.74,4.62-.82-.23-.59-.81-1-1.44a21,21,0,0,1-3.52-14c.6-4.19,4.42-7.31,8.06-9-1.23,1.51-1.15,3.68-.91,5.5a21,21,0,0,0,1.43,4.84A15.38,15.38,0,0,1,64.74,64.89Z"/><path class="cls-2" d="M18,59.57a2,2,0,0,1-.47-.41c-2.58-3-.1-11.09,2.6-13.19-.8,2,1.8,4.3,2.73,5.85a5.4,5.4,0,0,1,.06,6C22,59.15,19.55,60.52,18,59.57Z"/><path class="cls-5" d="M17.27,55c2.57,3.26,2.39,9,.85,12.67-.61,1.43-1.86,4.44-3.62,4.57s-3.5-2.43-4.11-3.87c-1.6-3.72-.54-6.82-.23-10.62.25-3.09-1.19-5.25-2.36-8C11.06,50.45,15.12,52.25,17.27,55Z"/><path class="cls-4" d="M75.34,64.64c0,7.39-3.19,14.46-11.55,14.68-1.17,0-3.9.08-4.49-1-.38-.74.54-4.76.68-5.53C61.63,64,70.38,60.56,74.4,53.24,75.53,56.46,75.34,61.21,75.34,64.64Z"/><g class="cls-3"><path class="cls-4" d="M72,70.77C71,72.65,69.3,75.1,66.89,74.34c-2.23-.71-3.48-3.25-3.49-5.48,0-1.48,2.19-5.78,4-5.62.92.08.38,1.42.76,2C70,63.48,71.32,58.55,74,58c.67,2.11.2,4.58-.29,6.68S73.06,69,72,70.77Z"/></g><g class="cls-3"><path class="cls-4" d="M55.89,55.6c-.15-1.18,1.21-2.87,1.88-3.71a9.28,9.28,0,0,1,2.84-2.38,7.51,7.51,0,0,0-1.75,6.33c.11,1,.45,3,1.54,1.71a6.48,6.48,0,0,0,.76-3.09c1.9,2.35,2.6,6.73,2.75,9.66.05,1,.14,2.51-.91,3.11-1.32.75-2.52-.79-3.42-1.55-1.39-1.18-3-2.56-3.57-4.35A12.12,12.12,0,0,1,55.89,55.6Z"/></g><g class="cls-3"><path class="cls-4" d="M17.74,57.27c.85,2.43-.37,5.44-1.63,7.51-.93,1.51-3.21,5.4-4.57,2C10.06,63,12.79,59.91,12,56.26a13.91,13.91,0,0,0-3-6c1.84,1.16,4.74,2,5.09,4.47.08.57-.21,2.84.76,2.66s.76-2.53.48-3.08A5,5,0,0,1,17.74,57.27Z"/></g><g class="cls-3"><path class="cls-4" d="M21.11,50.4c1,1.3,2.27,3.49,1.5,5.13-.42.9-2.3,2.79-3.31,1.73-.55-.58-.32-1.61-.41-2.32s-.52-1.62-.6-2.5c-.11-1.21.28-4.22,1.63-4.68A4.38,4.38,0,0,0,21.11,50.4Z"/></g><g class="cls-3"><path class="cls-4" d="M72.91,66.21a13.68,13.68,0,0,1-3.45,7c-1.48,1.44-4.21,2.77-4.9-.12-.42-1.79-.35-6.44,1.85-7.23.89.64,1.23,2.49,2.6,1.22,1.08-1,1.45-4.11,3.16-4.59S73.08,65.4,72.91,66.21Z"/></g><path class="cls-6" d="M43.69,52.34c-.81-1.17-2.81-1.06-4.08-1.05a21.28,21.28,0,0,0-5.27,1.13c-1,.25-1.42.09-2,.74a15.06,15.06,0,0,1-2,2.07c-.54.42-1,.56-.86,1.27.16.89.79,1,1.54,1.15-.2.22-.09.56.1.82.47.63,1,.25,1.65.17.07.78,1.48.78,2,.39.31.54,1.1.18,1.35-.31.48.78,1.29.4,1.94.35s1.87.47,2-.78c.31.88.83-.31,1.11-.46.47-.25,1.84-.12,1.38-1.23.68.66,2.14-.9,2-1.52-.06,0,.18.22.13.14.44-.71-.45-1.18-.64-1.72S44,52.86,43.69,52.34Z"/><path class="cls-7" d="M41.89,54.55a.86.86,0,0,0-.11-.43c.91,0,1.36-1.42.52-1.86,1.39,0,.1-1.77-.39-1.29a2.91,2.91,0,0,0,.27-.49c-.61-.54-2.16-.2-2.94-.23s-3.33,0-3.51-1.11c-.49,1.36-2.45,2.14-3.64,2.76-.33.18-2.13.79-1.31,1.39-.56.34-1.06.56-1,1.26A2,2,0,0,0,31,55.88c.27.14,2.69.33,2.77,0-.26,1,1.14.81,1.65.37,0,.6.94.87,1.15.23-.16.48,2.15.83,2.25-.66a.72.72,0,0,0,1.39-.41C40.81,56,41.86,55.31,41.89,54.55Z"/><path class="cls-6" d="M37.88,54.26c-.11.37,4.13,0,2-1.38a.7.7,0,0,0,0-1.39c.56-.63,1-1.52.28-2.23-.51-.52-1.39-.57-2-.95-.9-.58-1.94-1.11-2.78-1.78-.37-.31-.72-.82-1.16-1a9.76,9.76,0,0,1-.62,2.87,11,11,0,0,1-2,3.38c-.35.43-.72.84-.3,1.33.13.14,1.35.53,1.32.16.06.69.9,1.5,1.52.79a1.13,1.13,0,0,0,2.13.09A.84.84,0,0,0,37.88,54.26Z"/><path class="cls-7" d="M35.21,50.37c.32.51.75.48,1.23.25.12,0,1.11-.93.66-1,1.27.34.79-.85.15-1.35.31-.12.77-.22.84-.6s-.43-.41-.79-.59a11.74,11.74,0,0,1-3.64-3.15c.49,1.7-.24,4.12-1,5.65-.16.32-.63.76-.24,1.11.55.49,1.39-.35,1.78-.58C34.13,50.76,35.14,51.28,35.21,50.37Z"/><path class="cls-6" d="M43.24,52.49c.86.94,1.25-.47,1.67-.83h0c.63.74,1.1-.59.89-1.12A.76.76,0,0,0,46,49,1,1,0,0,0,46.73,48a5.85,5.85,0,0,0-1.43-.34c-.56-.17-1-.51-1.6-.71-1.5-.51-2.2-.17-3.7.38a17.3,17.3,0,0,1-3.06.42c-.87.16-1.53,1.16-2.3,1.55s-2,.75-.81,1.27c-.77-.13-.79.79-.41,1.24a1.65,1.65,0,0,0,1.84.23c-.3.61.36,1.23,1,1.13a.12.12,0,0,0,0-.1c.32.37,1.18,1,1.37.14.34.83,1.34.58,1.85.07.41.7,1.6.34,2-.23C41.64,53.88,43,52.94,43.24,52.49Z"/><path class="cls-7" d="M36.37,46.72c-.55.66-2.37,1.64-2.28,2.41s1.51.95,2,.78c-.07.63,1,1.42,1.38.55.22.71,1.42,1,1.79.28.46.56,1.6.13,1.91-.43.38.42,1.68.15,1.33-.49.35.6,1.47.11,1-.41.49.37,1.51-.15,1-.81.5.06,1-.27.73-.88.71.45.49-.52.14-.85a3.79,3.79,0,0,0-1.76-.67C41.14,45.64,37.42,44.91,36.37,46.72Z"/><path class="cls-6" d="M37.5,44.36c-.36.45-.68.93-1.07,1.39s-1.22,1.1-1.24,1.63c0,.75,1,.64,1.61.41-.22.74,1.05,1.39,1.14.44.2.75,1.74,1.31,1.91.28.32.79,1.31.22,1.6-.29.38.37,1.49.09,1.09-.57.39.17,1.36.14,1-.51a.63.63,0,0,0,.81-.89c.06,0,.13,0,.2,0-.36-.59-1.91-1.08-2.56-1.27a10,10,0,0,1-3.73-1.44A7,7,0,0,0,37.5,44.36Z"/><path class="cls-7" d="M40.29,46.71a4.4,4.4,0,0,0,1.31-.24s.89-.41.35-.54c1.36.33.76-1.26,0-1.56.17,0,.17-.1.28-.17-.24-.23-2.36-2-1.23-2a7.76,7.76,0,0,1-2.11-2.58.29.29,0,0,1-.13-.05,19.9,19.9,0,0,1-1,3.3c-.41.93-1,1.74-1.47,2.65s.52,1.42,1.32.82c.29.54,1.5.83,1.79.15A1.76,1.76,0,0,0,40.29,46.71Z"/><path class="cls-7" d="M54.86,58.08c.8.7.88-1.09.86-1.51.85,1.07.33-2.25-.2-2.08,1-.3-.4-1.78-1-1.74.23-1.27-1.53-.86-1.54-.14-.24.3-.36.11-.66.16a20.26,20.26,0,0,1-5.1-.1,8.5,8.5,0,0,0-3.45,0,5.33,5.33,0,0,1-1.59.45c-.5,0-.94-.26-1.42-.22-1.07.08-.72,1.79-.47,1.76-.52.08-.64,1.16-.15,1.36-.48.64.3,1.33,1,1.32-.61.77.64,2.6,1,1.95-.22.38.74,1.18,1.18.74,0,.73,1,.7,1.34.22-.31.84,1,1.55,1.46.74-.28.49,1,.43,1.09.42a1.83,1.83,0,0,0,1.45-.76c-.35.42,2.17,1,2.63-.32.42.53,1.4-.09,1.31-.69.5.32,1.45-.15,1.12-.76C54.18,59.43,54.69,58.48,54.86,58.08Z"/><path class="cls-6" d="M51,58.42a.7.7,0,0,0,1.11.19c.17-.14-.08-.4.15-.56s.49.05.67,0a1.56,1.56,0,0,0,.64-.79,1.26,1.26,0,0,0,.06-.87c1.12.4,1.35-1.26.83-1.93,1-.19-.21-1.33-.63-1.51.44-.51-.72-1-1.16-.94.51-.3.48-.7.29-1.18-1,.4-3.79.29-4-1a5.73,5.73,0,0,1-3.28,1.41,5,5,0,0,1-1.84,0c-.44-.1-1.18-.61-1.61-.41-.6.28-.28,1.3.21,1.66-.58,0-1.9.89-1.06,1.41-1,.3-.23,1.26.14,1.63-1.06.09.5,2.13,1,1.82-.12.8,1.07,2.62,1.67,1.37-.09,1,1.34.8,1.85.41-.38.29.54.59.67.6a1,1,0,0,0,1-.73.92.92,0,0,0,.85.83c.61,0,.83-.48,1.06-1C49.47,58.94,51.23,59.45,51,58.42Z"/><path class="cls-7" d="M50.08,55.48c.69.43,2.38.08,1.45-.79.77.17,1.46-.26,1.23-1.07-.12-.4-.68-.41-.14-.85a1.81,1.81,0,0,0-1.3-1c.42,0,.62-.79.49-1s-1.19-.46-1.5-.63a.47.47,0,0,0,.53-.58c-.05-.15-.61-.35-.76-.44a3.78,3.78,0,0,1-1.7-2,10.18,10.18,0,0,1-2.08,2.41c-.26.17-2,.78-.69,1a4.58,4.58,0,0,0-1.35.37.48.48,0,0,0,.7.52c-.35.36-1.37.47-1.84.72,0,.44.45.63.77.9-.94.11-1.56,1.25-.29,1.51-.25.66.48.65.9.45-.16.65.08,1.68.83,1.88s1.62-1,1.92-1.69a1,1,0,1,0,1.88.63C48.91,56.37,51.21,56.17,50.08,55.48Z"/><path class="cls-6" d="M48.13,46.81a4.61,4.61,0,0,1-.9,1.19c-.46.42-1.29.6-1.56,1.19a1.43,1.43,0,0,0,.95.41c-1.2.85-.8,2.89.58,1.61,0,.31.16.91.53,1s.68-.53.83-.9c.25.67,1.45.21,1-.4a.61.61,0,0,0,1.17-.31,4,4,0,0,0-.56-.77c.61.4,1.39-.11.89-.78-.18-.25-1-.59-1.27-.88a4,4,0,0,1-1.2-2.25Z"/><path class="cls-6" d="M41.89,46.71c-.36-1.26-2-1.57-3-1.83a14.68,14.68,0,0,0-4.39,0c-.81,0-1.15-.21-1.76.28a13.34,13.34,0,0,1-2.05,1.51c-.53.28-.9.32-1,1-.08.86.39,1.06.94,1.39a.74.74,0,0,0-.11.79c.22.68.72.43,1.25.5-.13.74,1,1,1.44.77.12.57.83.39,1.13,0,.2.83.92.64,1.44.74s1.36.82,1.76-.32c0,.88.72-.12,1-.2.43-.14,1.47.27,1.37-.86.39.75,1.9-.39,1.92-1,0-.06.1.24.08.16.51-.57-.08-1.2-.1-1.75S42,47.27,41.89,46.71Z"/><path class="cls-7" d="M40,48.4A.88.88,0,0,0,40,48c.71.19,1.39-1,.84-1.62,1.08.29.49-1.63,0-1.29.12-.09.2-.28.32-.39-.36-.64-1.65-.64-2.26-.83s-2.62-.68-2.5-1.77c-.69,1.17-2.41,1.48-3.49,1.82-.31.1-1.86.29-1.35,1-.52.2-1,.3-1.05,1a2,2,0,0,0,.58,1.47c.19.18,2,.87,2.17.59-.42.85.71,1,1.21.68-.1.57.54,1,.85.46-.23.41,1.5,1.22,1.92-.15.08.8,1.14.91,1.19-.09C38.78,49.52,39.76,49.1,40,48.4Z"/><path class="cls-6" d="M36.88,47.3c-.17.31,3.24.86,1.87-.88.64.24,1.1-1.13.29-1.3a1.72,1.72,0,0,0,.74-2c-.28-.59-1-.82-1.33-1.31a24.06,24.06,0,0,1-1.77-2.23c-.22-.36-.38-.92-.69-1.13A11.22,11.22,0,0,1,34.83,41a10.9,10.9,0,0,1-2.32,2.75c-.38.33-.77.63-.55,1.18.07.16.94.77,1,.42-.11.66.36,1.59,1,1,.08,1.09,1.07,1.31,1.65.53C35.61,47.69,36.45,48.11,36.88,47.3Z"/><path class="cls-7" d="M35.69,43.11c.14.54.48.61.91.5.11,0,1.09-.65.76-.85.92.58.82-.63.44-1.23.27-.05.65-.05.8-.39s-.25-.47-.48-.71A10.31,10.31,0,0,1,36,36.73a9.87,9.87,0,0,1-2.11,5.07c-.2.26-.67.58-.45,1,.32.57,1.17,0,1.54-.18C34.75,43.25,35.43,43.94,35.69,43.11Z"/><path class="cls-7" d="M35.83,54.4c.86.49.61-1.16.52-1.55,1,.83-.09-2.12-.55-1.87.83-.46-.68-1.57-1.25-1.43,0-1.21-1.55-.52-1.43.15-.17.32-.32.16-.58.26a18.38,18.38,0,0,1-4.72.81,8.09,8.09,0,0,0-3.17.65,5.13,5.13,0,0,1-1.38.7c-.44.11-.91-.07-1.34.05-1,.26-.35,1.78-.12,1.7-.47.16-.39,1.18.1,1.28-.33.67.51,1.16,1.15,1-.42.82,1.06,2.28,1.26,1.62-.13.39.9,1,1.22.47.17.67,1,.47,1.27,0-.14.82,1.19,1.25,1.48.42-.18.5,1,.23,1.07.19a1.71,1.71,0,0,0,1.2-1c-.25.45,2.18.55,2.36-.76.49.41,1.27-.33,1.09-.87.52.2,1.3-.4.9-.9C35.45,55.75,35.75,54.79,35.83,54.4Z"/><path class="cls-6" d="M32.31,55.39a.65.65,0,0,0,1,0c.13-.17-.15-.36,0-.55s.46,0,.61-.15a1.5,1.5,0,0,0,.45-.85,1.14,1.14,0,0,0-.11-.8c1.1.17,1-1.4.43-1.92.85-.35-.43-1.2-.85-1.28.31-.55-.84-.8-1.24-.66.42-.37.32-.73.06-1.14-.8.54-3.43.94-3.88-.25a5.37,5.37,0,0,1-2.77,1.89,4.69,4.69,0,0,1-1.7.3c-.42,0-1.18-.35-1.54-.09s0,1.24.48,1.49c-.53.13-1.58,1.16-.73,1.48-.88.46,0,1.21.43,1.48-1,.26.83,1.87,1.26,1.49,0,.76,1.44,2.23,1.78,1,.09.94,1.37.5,1.77,0-.3.34.6.46.71.44a1,1,0,0,0,.79-.84.86.86,0,0,0,.92.61c.57-.08.68-.6.8-1.1C31,56.14,32.74,56.3,32.31,55.39Z"/><path class="cls-7" d="M31,52.85c.71.27,2.21-.35,1.2-1,.73,0,1.3-.49.94-1.19-.18-.36-.7-.27-.28-.77a1.71,1.71,0,0,0-1.36-.65c.39,0,.42-.83.26-1s-1.17-.22-1.48-.32a.44.44,0,0,0,.38-.63c-.07-.13-.62-.21-.78-.26a3.54,3.54,0,0,1-1.92-1.59A9.85,9.85,0,0,1,26.44,48c-.21.2-1.74,1.07-.47,1a4.26,4.26,0,0,0-1.17.58.45.45,0,0,0,.73.35c-.25.39-1.17.68-1.56,1,.1.4.52.5.87.69-.85.27-1.22,1.43,0,1.44-.11.65.56.51.91.26,0,.63.37,1.53,1.1,1.58s1.3-1.25,1.46-1.9a.93.93,0,1,0,1.84.25C30.05,53.87,32.13,53.29,31,52.85Z"/><path class="cls-6" d="M27.64,45.22A4.15,4.15,0,0,1,27,46.47c-.35.46-1.08.78-1.22,1.37a1.34,1.34,0,0,0,.94.22c-.95,1-.23,2.79.82,1.37,0,.29.31.8.66.8s.53-.61.6-1c.34.57,1.37-.06.88-.55a.58.58,0,0,0,1-.49c-.07-.17-.52-.47-.65-.61.62.26,1.25-.35.68-.88-.22-.19-1-.36-1.33-.58a3.82,3.82,0,0,1-1.5-1.86C27.84,44.58,27.75,44.9,27.64,45.22Z"/><path class="cls-6" d="M41.48,63.74c-.55,1.34-1.52,0-2.1-.23h0c-.39,1-1.41-.19-1.39-.85-1.12.5-1.66-1-.77-1.56A1.21,1.21,0,0,1,36,60.27c.39-.46.93-.57,1.4-.92s.92-1,1.43-1.39c1.39-1.14,2.28-1.05,4.09-1.06a19,19,0,0,0,3.43-.74c1-.17,2.08.63,3.06.74.8.1,2.43,0,1.36,1,.77-.44,1.16.53.93,1.16a1.91,1.91,0,0,1-1.88,1,1,1,0,0,1-.58,1.58.14.14,0,0,1,0-.11c-.19.53-.87,1.54-1.39.69-.05,1-1.21,1.15-2,.81-.17.91-1.57,1-2.2.53C43.73,64.59,41.92,64.12,41.48,63.74Z"/><path class="cls-7" d="M46.54,54.89c.84.48,3.17.82,3.38,1.67s-1.24,1.6-1.8,1.6c.32.65-.54,1.92-1.25,1.13.05.84-1.12,1.66-1.8,1-.27.78-1.65.76-2.2.29-.25.6-1.74.82-1.62,0-.13.77-1.52.69-1.22-.05-.38.59-1.68.43-1.41-.46-.51.26-1.23.12-1.13-.65-.58.75-.73-.37-.47-.86a4.18,4.18,0,0,1,1.6-1.4C41,55.61,44.71,53.37,46.54,54.89Z"/><path class="cls-6" d="M44.4,52.81c.57.35,1.1.73,1.69,1.07s1.74.7,2,1.25c.32.79-.84,1.09-1.56,1.07.53.7-.57,1.89-1,.92.08.87-1.35,2.08-1.93,1,0,1-1.31.76-1.82.31-.26.56-1.55.69-1.38-.16-.36.33-1.4.68-1.3-.15a.72.72,0,0,1-1.22-.63c-.07,0-.14,0-.22,0,.15-.77,1.61-1.9,2.23-2.36,1.33-1,2.51-1.58,3.4-3A7.22,7.22,0,0,1,44.4,52.81Z"/><path class="cls-7" d="M42.36,56.41a5,5,0,0,1-1.5.27s-1.11-.09-.58-.44c-1.32.88-1.3-1.05-.62-1.66-.2,0-.21,0-.36-.07.16-.34,1.72-3.08.52-2.64a8.83,8.83,0,0,0,1.23-3.59.24.24,0,0,0,.12-.1,23.14,23.14,0,0,0,2.35,3.14c.81.82,1.79,1.45,2.62,2.24s0,1.71-1.09,1.39c-.1.7-1.27,1.48-1.85.87A1.87,1.87,0,0,1,42.36,56.41Z"/><path class="cls-6" d="M34.72,65c.92,1.4,1.72-.34,2.33-.72h0c.66,1.09,1.54-.52,1.39-1.26,1.36.31,1.63-1.55.53-1.94.75-.12,1-.5,1.23-1.22a8.43,8.43,0,0,0-1.78-.73c-.68-.33-1.25-.89-1.93-1.25-1.82-1-2.8-.69-4.85-.3-1.48.28-2.64-.13-4.05-.1-1.15,0-2.22,1.18-3.3,1.52-.88.28-2.75.55-1.31,1.47-1-.32-1.19.86-.79,1.52a2.18,2.18,0,0,0,2.33.69c-.52.71.2,1.66,1,1.66a.22.22,0,0,0,0-.14c.33.56,1.31,1.55,1.73.48.27,1.15,1.62,1,2.38.48.39,1,2,.77,2.61.12C32.36,66.43,34.3,65.5,34.72,65Z"/><path class="cls-7" d="M27.05,56.07c-.84.73-3.4,1.62-3.45,2.63s1.75,1.55,2.38,1.42c-.22.8,1,2.05,1.67,1,.13,1,1.62,1.64,2.26.75.47.82,2,.49,2.55-.16.41.62,2.14.55,1.83-.35.32.85,1.87.45,1.37-.32.57.58,2,.12,1.5-.83.63.19,1.42-.13,1.13-1,.82.72.74-.57.35-1.07a4.85,4.85,0,0,0-2.12-1.24C33.45,55.68,28.79,54,27.05,56.07Z"/><path class="cls-6" d="M29,53.25c-.57.51-1.09,1.07-1.68,1.58S25.53,56,25.39,56.68c-.19,1,1.19,1,2,.87-.44.9,1.06,2,1.39.8.1,1,2,2.06,2.41.76.24,1.1,1.65.57,2.12,0,.42.56,1.91.43,1.53-.49.48.29,1.74.46,1.44-.46a.83.83,0,0,0,1.23-1,2.44,2.44,0,0,1,.27,0c-.33-.84-2.24-1.79-3-2.18-1.72-.82-3.19-1.24-4.51-2.65A8.52,8.52,0,0,0,29,53.25Z"/><path class="cls-7" d="M32.12,56.88a5.39,5.39,0,0,0,1.75,0s1.24-.33.56-.62c1.69.72,1.25-1.47.34-2,.23,0,.23-.1.39-.16-.25-.35-2.62-3.1-1.17-2.88a10,10,0,0,1-2.17-3.78.24.24,0,0,1-.16-.09,27.17,27.17,0,0,1-2,4.06c-.73,1.11-1.71,2-2.47,3.11s.37,2,1.53,1.35c.27.76,1.76,1.38,2.29.57A2.19,2.19,0,0,0,32.12,56.88Z"/><path class="cls-6" d="M30.62,64c-.9-1.68-3.6-1.81-5.29-2-2.42-.23-4.82.39-7.19.76-1.31.21-1.92-.07-2.79.72a21.34,21.34,0,0,1-3,2.48c-.79.48-1.39.6-1.32,1.57.08,1.21.91,1.4,1.89,1.76-.3.26-.2.73,0,1.1.53.91,1.29.47,2.17.46,0,1,1.86,1.25,2.55.8.34.77,1.45.39,1.85-.23.53,1.12,1.66.72,2.54.76s2.43.89,2.79-.76c.28,1.21,1.15-.3,1.54-.46.66-.28,2.47.09,2-1.46.82,1,3-.89,2.88-1.74-.08-.07.21.32.16.21.68-.89-.43-1.65-.62-2.4C30.72,65,31,64.72,30.62,64Z"/><path class="cls-7" d="M27.91,66.67a1,1,0,0,0-.08-.59c1.21.12,2-1.7,1-2.41,1.85.2.39-2.35-.34-1.78.19-.15.27-.43.43-.61-.75-.81-2.86-.57-3.89-.72s-4.46-.45-4.54-2c-.84,1.75-3.58,2.5-5.24,3.17-.48.19-3,.75-2,1.66-.79.38-1.49.6-1.45,1.56a2.75,2.75,0,0,0,1.32,1.94c.35.22,3.55.81,3.71.4-.48,1.26,1.4,1.24,2.14.73,0,.81,1.14,1.3,1.51.47-.27.62,2.76,1.41,3.1-.57.33,1.1,2.1,1,1.92-.34C26.27,68.44,27.77,67.69,27.91,66.67Z"/><path class="cls-6" d="M22.59,65.72c-.18.47,5.52.59,2.84-1.57a.93.93,0,1,0,.14-1.85c.84-.77,1.51-1.91.69-2.94-.61-.77-1.77-1-2.52-1.56A40.35,40.35,0,0,1,20.28,55c-.46-.46-.85-1.19-1.42-1.44a13.46,13.46,0,0,1-1.23,3.74,14.73,14.73,0,0,1-3.09,4.24c-.55.53-1.1,1-.59,1.74.14.2,1.72.88,1.73.4,0,.93,1,2.13,1.92,1.27a1.52,1.52,0,0,0,2.83.42A1.12,1.12,0,0,0,22.59,65.72Z"/><path class="cls-7" d="M19.58,60.14c.36.74.94.76,1.61.52.17-.06,1.61-1.09,1-1.31,1.65.63,1.17-1,.4-1.79.42-.11,1.06-.18,1.2-.68s-.52-.61-1-.9a15.51,15.51,0,0,1-4.41-4.72c.4,2.34-.91,5.47-2.16,7.4-.25.4-1,.93-.48,1.45.67.72,1.91-.27,2.47-.53C18.09,60.51,19.37,61.35,19.58,60.14Z"/><path class="cls-7" d="M33.9,72.29c-1,1.08-1.37-1.43-1.39-2-1.08,1.61-.73-3.13,0-3-1.39-.32.36-2.56,1.24-2.59-.47-1.76,2.06-1.38,2.16-.36.37.39.52.1,1,.15a28.25,28.25,0,0,0,7.2-.75c1.57-.25,3.38-.77,4.88-.35a7.52,7.52,0,0,0,2.29.46c.7,0,1.3-.48,2-.48,1.51,0,1.23,2.45.87,2.43.74,0,1,1.56.37,1.91.76.85-.27,1.9-1.26,2,1,1-.6,3.75-1.17,2.87.35.51-.91,1.76-1.57,1.19,0,1-1.27,1.09-1.88.47.54,1.14-1.21,2.3-2,1.21.46.65-1.32.72-1.49.72a2.61,2.61,0,0,1-2.13-.9c.55.55-2.94,1.69-3.75-.14-.54.79-2,0-1.94-.83-.66.51-2.06,0-1.66-.94C35,74.11,34.18,72.84,33.9,72.29Z"/><path class="cls-6" d="M39.44,72.31a1,1,0,0,1-1.54.41c-.26-.19.07-.58-.28-.78-.16-.1-.68.13-.95,0a2.29,2.29,0,0,1-1-1.06,1.75,1.75,0,0,1-.18-1.21c-1.53.7-2.06-1.62-1.4-2.62-1.38-.17.14-1.91.71-2.22-.68-.67.9-1.5,1.54-1.46-.76-.37-.77-.94-.55-1.63,1.39.45,5.38,0,5.55-1.94a8.08,8.08,0,0,0,4.8,1.61,6.91,6.91,0,0,0,2.6-.25c.61-.19,1.58-1,2.22-.77.88.33.54,1.8-.11,2.38.83,0,2.79,1,1.67,1.86,1.48.31.47,1.75,0,2.32,1.51,0-.46,3.06-1.23,2.69.27,1.11-1.2,3.83-2.2,2.13.25,1.42-1.8,1.29-2.56.79.57.38-.7.91-.87.93a1.44,1.44,0,0,1-1.48-.91,1.31,1.31,0,0,1-1.09,1.27c-.87.12-1.23-.59-1.62-1.27C41.61,72.87,39.18,73.8,39.44,72.31Z"/><path class="cls-7" d="M40.34,68.07c-.92.67-3.35.38-2.14-1-1.06.34-2.09-.19-1.86-1.36.12-.59.92-.66.1-1.22A2.57,2.57,0,0,1,38.16,63c-.59.12-1-1-.8-1.35s1.63-.8,2-1.07a.66.66,0,0,1-.82-.76c.05-.22.82-.56,1-.69A5.44,5.44,0,0,0,41.76,56c1,1,1.91,2.49,3.23,3.17.39.2,3,.86,1.09,1.28a6.51,6.51,0,0,1,1.94.36.69.69,0,0,1-.92.82c.53.47,2,.5,2.68.8,0,.63-.56.93-1,1.36,1.35.05,2.36,1.59.59,2.1.43.9-.61,1-1.22.74.3.91.09,2.39-.95,2.75s-2.42-1.28-2.91-2.16a1.41,1.41,0,1,1-2.58,1.11C42.1,69.18,38.83,69.17,40.34,68.07Z"/><path class="cls-6" d="M42.09,55.59a6.62,6.62,0,0,0,1.4,1.58c.7.53,1.89.68,2.34,1.49a2,2,0,0,1-1.29.7c1.79,1.06,1.47,4-.63,2.33.07.43-.12,1.3-.64,1.44s-1-.68-1.27-1.18c-.27,1-2,.47-1.51-.45a.87.87,0,0,1-1.69-.29,5.75,5.75,0,0,1,.69-1.15c-.8.63-2,0-1.34-1,.23-.38,1.31-1,1.69-1.39a5.77,5.77,0,0,0,1.43-3.33C41.54,54.75,41.8,55.18,42.09,55.59Z"/><path class="cls-6" d="M57.79,65.42c.45,1.1,1.25,0,1.73-.2h0c.32.85,1.15-.17,1.14-.71a.72.72,0,0,0,.63-1.29,1,1,0,0,0,1-.69c-.33-.38-.77-.47-1.16-.75S60.39,61,60,60.64c-1.15-.93-1.88-.85-3.37-.85a14.36,14.36,0,0,1-2.83-.6c-.82-.13-1.72.54-2.53.64-.65.08-2,0-1.12.86-.63-.36-.94.44-.75,1a1.57,1.57,0,0,0,1.55.79.8.8,0,0,0,.49,1.3.14.14,0,0,0,0-.09c.16.43.72,1.26,1.16.56,0,.84,1,.94,1.61.65.14.75,1.3.81,1.81.43C55.93,66.13,57.42,65.73,57.79,65.42Z"/><path class="cls-7" d="M53.56,58.15c-.69.4-2.6.69-2.77,1.39s1,1.32,1.49,1.32c-.26.53.45,1.58,1,.92,0,.7.92,1.37,1.49.83.23.63,1.36.61,1.81.22.21.49,1.44.66,1.34,0,.11.63,1.25.56,1,0,.32.48,1.39.35,1.16-.39.43.22,1,.09.93-.54.48.62.6-.3.39-.71A3.45,3.45,0,0,0,60.1,60C58.11,58.72,55.06,56.89,53.56,58.15Z"/><path class="cls-6" d="M55.32,56.43c-.47.28-.91.6-1.39.88s-1.43.59-1.61,1c-.27.65.69.89,1.28.87-.43.58.48,1.56.87.75-.06.72,1.12,1.71,1.59.85,0,.81,1.09.62,1.5.25.22.45,1.29.56,1.15-.14.29.27,1.15.55,1.07-.14a.59.59,0,0,0,1-.52c.06,0,.12,0,.19,0-.13-.63-1.34-1.56-1.86-1.93a9.53,9.53,0,0,1-2.82-2.46A6.23,6.23,0,0,0,55.32,56.43Z"/><path class="cls-7" d="M57,59.39a4.06,4.06,0,0,0,1.23.2s.92-.07.48-.36c1.1.72,1.07-.87.5-1.37.17,0,.18,0,.3-.06-.13-.29-1.43-2.53-.44-2.18a7.19,7.19,0,0,1-1-2.94.24.24,0,0,1-.11-.09A18.76,18.76,0,0,1,56,55.19c-.66.68-1.46,1.2-2.14,1.86s0,1.41.9,1.14c.09.58,1.06,1.21,1.53.71A1.68,1.68,0,0,0,57,59.39Z"/><path class="cls-7" d="M42.71,77.23c1.14,1,1.24-1.54,1.22-2.14,1.21,1.52.47-3.18-.28-2.94,1.36-.44-.57-2.52-1.45-2.48.33-1.8-2.16-1.21-2.18-.19-.34.43-.51.15-.93.23a28.32,28.32,0,0,1-7.24-.15c-1.59-.12-3.43-.48-4.89.06a7.66,7.66,0,0,1-2.24.64c-.71,0-1.34-.36-2-.31-1.51.11-1,2.54-.66,2.49-.74.11-.91,1.64-.22,1.93-.68.91.43,1.88,1.42,1.87-.87,1.09.91,3.67,1.41,2.75-.31.55,1.05,1.68,1.66,1.06.07,1,1.36,1,1.91.32-.44,1.18,1.4,2.19,2.07,1-.4.69,1.38.61,1.54.59a2.6,2.6,0,0,0,2.06-1.07c-.51.6,3.07,1.44,3.72-.45.6.74,2-.13,1.86-1,.71.45,2.05-.22,1.59-1.08C41.75,79.14,42.48,77.8,42.71,77.23Z"/><path class="cls-6" d="M37.19,77.71a1,1,0,0,0,1.56.28c.25-.21-.11-.58.22-.8.16-.11.7.07,1,0a2.23,2.23,0,0,0,.9-1.14,1.73,1.73,0,0,0,.08-1.22c1.58.57,1.92-1.78,1.18-2.73,1.36-.28-.29-1.89-.89-2.15.62-.72-1-1.42-1.65-1.33.72-.43.68-1,.41-1.67-1.35.57-5.36.41-5.69-1.48a8.1,8.1,0,0,1-4.65,2,7.21,7.21,0,0,1-2.62,0c-.62-.15-1.65-.87-2.27-.59-.85.4-.39,1.84.3,2.36-.83,0-2.69,1.26-1.51,2-1.44.43-.32,1.79.21,2.32-1.51.11.7,3,1.44,2.57-.17,1.14,1.52,3.73,2.37,2-.13,1.43,1.9,1.13,2.62.57-.54.42.77.85.94.86a1.44,1.44,0,0,0,1.4-1,1.31,1.31,0,0,0,1.2,1.17c.87.05,1.17-.69,1.5-1.4C35.07,78.45,37.57,79.17,37.19,77.71Z"/><path class="cls-7" d="M35.94,73.55c1,.6,3.38.11,2.05-1.13,1.09.25,2.08-.36,1.75-1.51-.17-.57-1-.58-.2-1.21a2.58,2.58,0,0,0-1.84-1.35c.59.07.87-1.12.69-1.42s-1.69-.66-2.12-.89a.67.67,0,0,0,.75-.83c-.07-.21-.86-.49-1.08-.61a5.39,5.39,0,0,1-2.4-2.91c-.9,1.07-1.7,2.63-3,3.42-.37.23-2.88,1.1-1,1.37a6.26,6.26,0,0,0-1.9.52.68.68,0,0,0,1,.73c-.49.51-1.94.67-2.61,1,.05.62.64.88,1.1,1.27-1.34.16-2.22,1.78-.42,2.14-.34.93.69.92,1.28.64-.22.92.11,2.38,1.18,2.66s2.3-1.47,2.72-2.4a1.41,1.41,0,1,0,2.66.9C34.28,74.8,37.54,74.53,35.94,73.55Z"/><path class="cls-6" d="M33.17,61.26A6.25,6.25,0,0,1,31.9,63c-.65.59-1.82.84-2.2,1.68a2,2,0,0,0,1.34.59c-1.7,1.21-1.14,4.09.82,2.27,0,.44.23,1.29.75,1.38s1-.76,1.18-1.27c.34.94,2.05.3,1.47-.58a.86.86,0,0,0,1.65-.43c0-.27-.62-.85-.78-1.09.85.57,2-.17,1.26-1.1-.27-.36-1.39-.84-1.81-1.25A5.69,5.69,0,0,1,33.89,60C33.65,60.38,33.42,60.83,33.17,61.26Z"/><path class="cls-6" d="M46.81,68.22c1-1.76,3.84-1.84,5.63-2,2.56-.18,5.07.52,7.57,1,1.37.25,2,0,2.92.82A23,23,0,0,0,66,70.74c.82.53,1.45.66,1.36,1.68-.12,1.29-1,1.46-2,1.81.31.29.19.78,0,1.17-.58.94-1.37.46-2.3.43,0,1.11-2,1.28-2.71.78-.38.8-1.53.38-1.93-.28-.6,1.16-1.78.71-2.71.73s-2.59.88-2.92-.87c-.33,1.27-1.2-.34-1.61-.52-.7-.31-2.61,0-2.1-1.59-.89,1-3.13-1-3-1.9.07-.08-.24.34-.18.21-.7-1,.5-1.73.71-2.51C46.68,69.3,46.36,69,46.81,68.22Z"/><path class="cls-7" d="M49.6,71.13a1.27,1.27,0,0,1,.1-.63c-1.28.1-2.08-1.84-1-2.56-2,.17-.35-2.49.4-1.87-.2-.17-.28-.46-.43-.65.8-.85,3-.54,4.12-.68s4.71-.36,4.83-2c.84,1.86,3.71,2.72,5.45,3.47.5.22,3.11.86,2,1.8.83.42,1.56.67,1.5,1.68a2.92,2.92,0,0,1-1.44,2c-.38.22-3.77.78-3.92.34.47,1.34-1.51,1.27-2.28.71,0,.85-1.23,1.34-1.61.46.28.66-2.93,1.42-3.24-.67-.38,1.15-2.24,1.06-2-.41C51.29,73,49.73,72.2,49.6,71.13Z"/><path class="cls-6" d="M55.23,70.25c.19.5-5.83.49-2.95-1.72a1,1,0,0,1-.11-2c-.86-.82-1.54-2-.65-3.12.66-.79,1.9-1,2.7-1.58A42.7,42.7,0,0,0,57.93,59c.5-.48.93-1.24,1.53-1.48a14.35,14.35,0,0,0,1.21,4,15.63,15.63,0,0,0,3.16,4.54c.56.57,1.13,1.1.58,1.85-.15.22-1.84.9-1.83.38,0,1-1.11,2.23-2.06,1.29a1.6,1.6,0,0,1-3,.38A1.18,1.18,0,0,1,55.23,70.25Z"/><path class="cls-7" d="M58.55,64.44c-.4.76-1,.77-1.72.5-.17-.06-1.66-1.19-1-1.41-1.75.63-1.21-1.1-.37-1.89-.45-.13-1.11-.22-1.26-.75s.57-.62,1-.92A16.31,16.31,0,0,0,60,55.1c-.49,2.45.83,5.79,2.09,7.86.27.43,1,1,.48,1.53-.72.75-2-.33-2.6-.61C60.11,64.86,58.74,65.72,58.55,64.44Z"/><path class="cls-6" d="M47.08,75.18c1-1.75,3.85-1.83,5.64-2,2.56-.19,5.07.52,7.57,1,1.37.25,2,0,2.92.83a21.14,21.14,0,0,0,3.07,2.68c.82.53,1.45.67,1.36,1.69-.12,1.28-1,1.46-2,1.81.31.29.19.78,0,1.16-.59,1-1.38.47-2.3.44,0,1.1-2,1.27-2.71.78-.38.8-1.54.38-1.94-.28-.59,1.16-1.78.71-2.7.73s-2.59.88-2.92-.87c-.33,1.27-1.21-.34-1.62-.52-.69-.31-2.61,0-2.09-1.59-.89,1-3.13-1-3-1.9.08-.08-.23.33-.18.21-.69-1,.5-1.73.71-2.51C47,76.27,46.64,76,47.08,75.18Z"/><path class="cls-7" d="M49.88,78.1a1.17,1.17,0,0,1,.1-.63c-1.28.1-2.09-1.84-.95-2.57-2,.17-.35-2.48.39-1.87-.19-.16-.27-.45-.42-.64.79-.85,3-.54,4.12-.68s4.71-.36,4.83-2c.84,1.86,3.71,2.72,5.45,3.47.5.21,3.1.86,2,1.8.83.42,1.56.67,1.49,1.68a2.9,2.9,0,0,1-1.44,2c-.37.22-3.76.77-3.91.34.47,1.34-1.52,1.27-2.28.71,0,.85-1.24,1.34-1.61.46.28.66-2.94,1.42-3.25-.67-.37,1.14-2.24,1.06-2-.41C51.57,80,50,79.17,49.88,78.1Z"/><path class="cls-6" d="M55.51,77.21c.19.51-5.84.5-3-1.72a1,1,0,1,1-.1-2c-.86-.82-1.54-2-.65-3.12.66-.79,1.89-1,2.69-1.58A39.69,39.69,0,0,0,58.21,66c.5-.47.92-1.23,1.53-1.47a14,14,0,0,0,1.21,4A15.63,15.63,0,0,0,64.11,73c.56.57,1.13,1.1.58,1.85-.16.22-1.84.9-1.83.38,0,1-1.11,2.22-2.06,1.29a1.61,1.61,0,0,1-3,.38A1.18,1.18,0,0,1,55.51,77.21Z"/><path class="cls-7" d="M58.83,71.41c-.4.76-1,.77-1.72.5-.17-.06-1.67-1.19-1-1.41-1.76.63-1.21-1.1-.38-1.89-.44-.13-1.11-.22-1.25-.75s.56-.63,1-.92a16.31,16.31,0,0,0,4.78-4.87c-.49,2.45.83,5.78,2.09,7.86.26.43,1,1,.47,1.53-.72.75-2-.33-2.59-.62C60.39,71.83,59,72.69,58.83,71.41Z"/><path class="cls-6" d="M47.26,85.51c1.22,1.33,1.77-.66,2.36-1.17h0c.89,1,1.55-.83,1.26-1.59a1.09,1.09,0,0,0,.23-2.16,1.5,1.5,0,0,0,1.11-1.51,8.45,8.45,0,0,0-2-.48c-.79-.24-1.49-.73-2.28-1-2.12-.74-3.12-.25-5.23.52-1.53.56-2.85.33-4.34.6-1.23.23-2.17,1.65-3.26,2.2-.89.45-2.84,1.06-1.15,1.8-1.09-.18-1.12,1.12-.58,1.76a2.37,2.37,0,0,0,2.61.33c-.43.85.5,1.73,1.37,1.6a.26.26,0,0,0,0-.15c.45.53,1.68,1.42,1.93.21.5,1.17,1.91.82,2.63.09.59,1,2.26.49,2.8-.32C45,87.48,46.9,86.15,47.26,85.51Z"/><path class="cls-7" d="M37.52,77.34c-.77.93-3.35,2.33-3.23,3.41s2.14,1.35,2.79,1.1c-.09.9,1.46,2,2,.78.31,1,2,1.46,2.55.41.65.79,2.26.17,2.7-.62.54.6,2.38.21,1.89-.69.49.86,2.08.16,1.41-.58.7.53,2.15-.21,1.46-1.14.7.08,1.48-.4,1-1.25,1,.63.69-.74.19-1.21a5.26,5.26,0,0,0-2.49-.94C44.28,75.81,39,74.78,37.52,77.34Z"/><path class="cls-6" d="M39.13,74c-.52.64-1,1.32-1.51,2s-1.74,1.57-1.77,2.32c0,1.06,1.45.9,2.28.58-.32,1,1.49,2,1.62.62.28,1.06,2.47,1.86,2.71.39.45,1.13,1.85.32,2.25-.42.55.54,2.12.14,1.56-.79.55.23,1.93.2,1.45-.73a.9.9,0,0,0,1.15-1.26c.09,0,.19,0,.28,0-.5-.84-2.7-1.53-3.62-1.79-2-.58-3.62-.78-5.28-2.06A9.79,9.79,0,0,0,39.13,74Z"/><path class="cls-7" d="M43.07,77.32A5.79,5.79,0,0,0,44.94,77s1.26-.58.49-.76c1.93.47,1.07-1.79,0-2.21.24-.07.23-.15.39-.24-.34-.33-3.34-2.86-1.75-2.87a10.72,10.72,0,0,1-3-3.66.31.31,0,0,1-.19-.06,29.18,29.18,0,0,1-1.4,4.67c-.59,1.31-1.46,2.47-2.09,3.76-.55,1.12.74,2,1.87,1.16.42.78,2.12,1.17,2.54.22A2.42,2.42,0,0,0,43.07,77.32Z"/><path class="cls-7" d="M29.73,80.58C30.87,81.56,31,79,31,78.44c1.22,1.51.47-3.18-.27-2.94C32,75.06,30.11,73,29.23,73c.32-1.8-2.17-1.21-2.18-.19-.34.42-.51.15-.94.23a28.25,28.25,0,0,1-7.23-.15c-1.59-.12-3.44-.48-4.89.06a7.81,7.81,0,0,1-2.25.64c-.7,0-1.34-.37-2-.32-1.51.12-1,2.55-.67,2.49-.74.12-.91,1.64-.22,1.94-.67.9.43,1.88,1.42,1.87-.86,1.08.92,3.67,1.41,2.75-.31.55,1.06,1.68,1.66,1.06.07,1,1.36,1,1.92.31-.45,1.19,1.39,2.19,2.06,1.05-.4.69,1.39.61,1.55.59a2.58,2.58,0,0,0,2.05-1.07c-.5.59,3.07,1.44,3.72-.45.6.74,2-.14,1.87-1,.7.44,2.05-.22,1.58-1.08C28.78,82.49,29.5,81.14,29.73,80.58Z"/><path class="cls-6" d="M24.22,81.06a1,1,0,0,0,1.56.27c.24-.2-.11-.57.22-.8.15-.1.69.08.95,0a2.16,2.16,0,0,0,.9-1.13,1.68,1.68,0,0,0,.08-1.22c1.59.57,1.92-1.79,1.19-2.73,1.36-.28-.3-1.9-.9-2.15.62-.72-1-1.42-1.65-1.33.73-.43.69-1,.42-1.67-1.36.57-5.37.41-5.7-1.48a8.11,8.11,0,0,1-4.65,2,7.16,7.16,0,0,1-2.61,0c-.62-.14-1.66-.87-2.27-.58-.86.4-.4,1.84.3,2.36-.83,0-2.69,1.26-1.52,2-1.44.43-.31,1.79.21,2.31-1.5.12.71,3,1.45,2.58-.18,1.13,1.51,3.72,2.36,1.95-.12,1.43,1.9,1.13,2.62.57-.54.42.77.85.94.85a1.42,1.42,0,0,0,1.4-1,1.29,1.29,0,0,0,1.2,1.16c.87.06,1.18-.68,1.5-1.39C22.1,81.8,24.6,82.52,24.22,81.06Z"/><path class="cls-7" d="M23,76.9c1,.6,3.38.1,2.06-1.13,1.09.25,2.07-.36,1.74-1.51-.16-.57-1-.58-.19-1.21a2.63,2.63,0,0,0-1.84-1.36c.59.08.86-1.11.68-1.41s-1.69-.66-2.12-.9a.66.66,0,0,0,.76-.82c-.08-.21-.87-.49-1.08-.61A5.41,5.41,0,0,1,20.56,65c-.9,1.07-1.69,2.63-2.95,3.41-.38.24-2.89,1.11-1,1.38a6.35,6.35,0,0,0-1.9.51.68.68,0,0,0,1,.74c-.49.51-2,.67-2.61,1,0,.63.63.89,1.1,1.27-1.34.17-2.23,1.79-.42,2.15-.35.93.69.91,1.28.64-.23.92.1,2.38,1.18,2.66s2.3-1.48,2.72-2.4a1.41,1.41,0,1,0,2.66.9C21.3,78.15,24.56,77.88,23,76.9Z"/><path class="cls-6" d="M20.2,64.61a6.63,6.63,0,0,1-1.27,1.69c-.65.58-1.83.84-2.21,1.68a2,2,0,0,0,1.34.59c-1.7,1.2-1.13,4.09.82,2.27,0,.44.23,1.29.76,1.38s1-.76,1.17-1.27c.35.94,2.06.29,1.47-.58a.87.87,0,0,0,1.66-.43c-.05-.27-.63-.85-.79-1.09.86.57,2-.17,1.26-1.11-.26-.35-1.38-.83-1.8-1.24a5.8,5.8,0,0,1-1.7-3.2C20.68,63.73,20.45,64.17,20.2,64.61Z"/><g class="cls-8"><path class="cls-6" d="M23.2,61.06a1.94,1.94,0,0,0-.18.13c.08.36-.46,1-.88.74a3,3,0,0,1-3.6-.28,4.89,4.89,0,0,0,2.84-.25c.54-.14,1.91-1.27.76-1.43.85-.09-.27-1.36-.41-1.72a2.28,2.28,0,0,1-3.15-.4,1.49,1.49,0,0,0,1.18.25c0-.06,0-.12,0-.18a1.7,1.7,0,0,0,1.51-.32c-1.88-.69-2.15-2.48-2.28-4.26a9.7,9.7,0,0,1-1,3.1c-.07.17-1.55,3.27-1.69,3.05.41.68,1.45.25,1.87-.21.09.74,1.35.81,1.56.3.18.53,1.09.6,1.48.36.1.57-1,1.27-1.26.71-.52.62-2.47.7-2.24-.42-.28.55-1.62.92-2,.3a3.57,3.57,0,0,1-1.26,1.58c.07,1,1.3,1.44,2.17,1.18.07.26,0,.15.27.36a3.49,3.49,0,0,1-3.12,0s-.15,1.24.15,1.51a1.62,1.62,0,0,0,1.71.07c-.06.79,1.74,1.51,2.08.86a1.09,1.09,0,0,0,1.63-.53c.45.33,1.56.47,1.9,0,.47.24,1.81.14,1.68-.61.29.16,1.5.24,1.51-.32a.74.74,0,0,0,.93-.44c.21-.53-.22-.82-.52-1.18S23.18,61.09,23.2,61.06Z"/></g><g class="cls-8"><path class="cls-6" d="M21.69,77.35c.56,0,2.22-.48,1.5-1.27a2.39,2.39,0,0,0,1.66-1.18c.4-.76-.26-1.22-.22-1.94,0,.07,0,.23,0,.26s-.23-.11-.32-.21a.9.9,0,0,1-1.46.46c-.1.41-.92.9-1,.28a2,2,0,0,1-2.88-.55c.23.21.26.12.51.15,0,0-.08-.12-.08-.16a3.2,3.2,0,0,0,2-.33c-.06-.1,0-.15-.12-.25.73.21,1.55.07,1.45-.8.52-.87.39-.94-.1-1.71a.87.87,0,0,1-1.3.75s.1-.14.1-.11c-1,.88-2.08-.32-2.25-1.24.49.26,1,.87,1.57.45.27-.19.41-.33.13-.54.8.33,1.55-.1,1.17-1,0,0,.49-.37.48-.38-.7-.48-2.26-1.64-2.38-2.5a2.46,2.46,0,0,1-1.27,1.4c-.16.08-1.6.61-1.39,1s1.1.47,1.56.29c-.63.52-1.21,1-1.12,2-.24-.92-1.51-.63-.95.25-.39.07-2,.5-1.5,1-.43-.25-.78,0-1.15.08-.7,0-1.07-.49-1.65-.63-.68.66.09,1.85.86,2-.75.13-1.75,1.74-.59,2,0,1.21,1.9,2.58,2.87,1.69a1.87,1.87,0,0,0,2.38.22c-.37.35,1.21.58,1.35.6.36,0,.72.07,1.09.1A10.68,10.68,0,0,0,21.69,77.35Z"/></g><g class="cls-8"><path class="cls-6" d="M37.12,67.74a1.25,1.25,0,0,1-1,.61c-.11,0-1.12-.29-1.06-.39-.37.58-1.32,0-1.76-.19a.12.12,0,0,1,0,.09.76.76,0,0,1-.53-.76c.42.41,1.55.42,1.64-.32a.72.72,0,0,0,1.2-.45c1.06.69.25-1.46.27-1.49a1,1,0,0,1-1.68-.41,1.12,1.12,0,0,0,1.16-.33C34,64,33.8,62.19,33.66,61.18a5,5,0,0,1-1.22,1.94c-.5.45-1.41.59-1.79,1.13-.57.81,1.13.75,1.55.78-.74.33-1.56,1.38-.53,2a2.18,2.18,0,0,1-1.18-1.15c-.62.54-.92.78-.85,1.68-.65-.51-1.27.94-.32,1-.36,0-1.65,1-1.66,1.38s.71.87,1.09.92c-.42.71.47,1.62,1.22,1.47,0,0,0,0,0,0-.06,1.08,2.23.48,2.75.23.22.68,1.87.34,2.16-.26.57.92,1.94-.73,2-1.38.06,0,.05.06.12.05a1.58,1.58,0,0,0,.1-1.19c-.35.56-.87,1-1.52.6-.38.86-2.26.48-2.65-.21.48.27,1.44.26,1.68-.31,0,0,0,0,0,0,.29.37,1.07.07,1.11-.23C36.68,70.24,37.37,68.41,37.12,67.74Z"/></g><g class="cls-8"><path class="cls-6" d="M35.06,59.88c.37-.14.91-.68.45-.93.76.16,1-.58.6-1.13S35,57.32,34.6,57c-.26.21-.43.66-.84.3a1.79,1.79,0,0,1-2.4,0c.34,0,2.12.24,1.7-.52.51-.11,1.5-.2,1.49-1,0-.55-.91-.86-1.08-1.3-.28.42-1.12.71-1.37.16-.76.53-1.94-.36-2-1.07.28.48,1.57,1.14,1.73.33a1.68,1.68,0,0,0,1.43-.35c-1-.91-2.14-3.44-1.65-4.81A17.75,17.75,0,0,1,30,51.57c-.68,1-1.87,1.81-2.49,2.84s1,1.56,1.47.69c-.08.66,1.34,1.72,1.95,1.23-.36.77-1.5.63-2.21.28.07.73-1.31.19-1.58-.16,0,.33-.75-.11-1-.15-.33,1,1.06,1.18,1.78,1,0,0,0,0,0,0-.34.86.74,1.06,1.33,1,.1.52.78.6,1.21.4-.78,1.54-2.08.53-3.21.23-.05-.07.1.1.13.13a1.53,1.53,0,0,1-1.49-.69c-.26.58-1.32.07-1.22-.4-1.41,1,.49,2.17,1.62,1.75-.32.68.81,1.61,1.47,1.46-.21,0,.44.58.5.6a1.37,1.37,0,0,0,1.13-.16c-.34,1-.63.53-1.56.39-.36-.05-.69.11-1.07,0-.68-.11-1-.72-1.61-1,0,.06,0,.17.06.24-.15-.09-.38-.14-.53-.23.21.78,1.34,2,2.21,1.66-.1.94,1.44,1.25,2.11.84.37.68,1.21-.22,1.52-.57,0,0,.05.07.08.08a1.1,1.1,0,0,0,.63-1c.07.47,1.15-.34,1.26-.44a2.66,2.66,0,0,0,.86-1.5c0,.11.83.51.71-.15C34.38,59.88,34.71,60,35.06,59.88Z"/></g><g class="cls-8"><path class="cls-6" d="M43.93,79.93c.43.12,1.29-.05,1.39-.53,0,.23,1-.5,1-.56a2.07,2.07,0,0,0,.58-1.26c-.78.42-1.08,0-1.35-.61-.15-.38-.1-.7-.46-.71s-.5.57-1,.23c-.19.69-1.37.2-1.69,0,.46.1,1.9,0,1.76-.7a1,1,0,0,0,1.13-.66c-.51-.18-1.29-.71-1.27-1.23,0,.92-1.13.7-1.6.2a1.44,1.44,0,0,1-1.54-.36c.45.19,1.16.29,1.34-.3a.87.87,0,0,0,1.36-.13,5,5,0,0,1-1.94-2.09A13.2,13.2,0,0,1,40.92,69c0,1.86-1,3.63-2,5.17-.22.37-.58.63-.28,1s1,.21,1.25,0a1.84,1.84,0,0,1,0,.25A1,1,0,0,0,41.29,75a.9.9,0,0,0,1.13.26A1,1,0,0,1,41,76a1.24,1.24,0,0,1-1.91,0A.71.71,0,0,1,38,76c-.47.55-2.3,2.25-.83,2.7-.38.32-.61,0-1,.38s-.51,1.1-1.16,1.47a1.26,1.26,0,0,0,1.93.18c-.08.48,1,1.14,1.39.82-.11.31.22.45.53.64.66.41.85.19,1.51,0,.32,1,2,.2,2.41-.38a1,1,0,0,1-1,.9c0,.79-1.33.38-1.73.28-.27.63-1.42.18-1.84-.11l.07.09a1.3,1.3,0,0,1-1.49-.57c-.17.33-.52.27-.79.28.39.82,1.46,2,2.48,1.72.38.89,1.21.47,1.82.32.21.85,1.61.21,2-.11.58.85,1.41-.38,1.7-.87,0,.07.21.19.25.27a2.18,2.18,0,0,0,1.1-1.58l.13.24c.62-.17.76-1.18.67-1.75a2.07,2.07,0,0,1-1.89-.65s0,.12,0,.17A.63.63,0,0,1,43.93,79.93Z"/></g><g class="cls-8"><path class="cls-6" d="M58.1,67.09c0,.27.71.2.86.12a1.46,1.46,0,0,0,.46-.88c.18-.7,0-1.47.2-2.18a15.63,15.63,0,0,1-2,1.92,4.14,4.14,0,0,1-1.71,1.16,4.83,4.83,0,0,0-.77.2c-.13.08-.35.17-.41.32-.12.33,0,.55.4.54-.48.26-1.7.32-1.88.93-.23.77.73.64,1.13.53a3.17,3.17,0,0,1-1.26.51c-1.45.32-1.4,1.54-.83,2.62-.3-.42-.85-.89-1.4-.73-1.13.32-.64,1.3-.45,2a.06.06,0,0,0-.06,0c-.36.86.82,2.16,1.68,2.15-.19.82,1.12,1.18,1.78,1a1.54,1.54,0,0,0,2,.32c-.27.59,1.32.53,1.67.18.41.62,1.74-.34,1.88-.86-.57.44-1.23.48-1.58-.21-.67.08-1.61.43-1.85-.53-.49.58-1.1-.65-1-1.15.33.39,2,1,1.83.2.94,1,2.94.13,3.38-1,.68.59.84-.75,1-1a.86.86,0,0,1-1.51-.06c-.61.38-.85,0-1.42-.11-.32-.09-.68.12-.86-.26.61.22,1.87.36,2-.6.62.37.83-1,.73-1.4,0,0,0,0,0,0,.51.16.33-1.06.23-1.35,0,.07,0,.11,0,.18a1.23,1.23,0,0,1-1.18.24,0,0,0,0,1,0,0,.88.88,0,0,1-.29,0c.59.26.87-.68.94-1.1A.42.42,0,0,0,60,68.3c-.45.38-1.64.1-1.51-.34C58.17,67.82,58.13,67.4,58.1,67.09Z"/></g><g class="cls-8"><path class="cls-6" d="M43.43,60.16a1.67,1.67,0,0,0,.34-.36c.51-.73,0-1.36-.51-1.89a6.55,6.55,0,0,1-1.72-2.61,4.79,4.79,0,0,1-1,2.31c-.51.57-1.07.65-.89,1.54s.8.68,1.15,1.29c-.27.26-.29.66-.62.85.36.44-.27.68-.43,1.07s.18.65-.36.92c.3.45.94.94,1.48.54,0,.91,1.58.29,1.95,0,.16.46,2.88-.45,2.74-1.33-.36.23-1.35.5-1.51,0-.3.48-1.44.3-1.68-.15.91.32,2.19-1.13,2.1-1.91a2.06,2.06,0,0,1-1.51.41c0-.06,0-.12,0-.18-.26,0-.27,0-.47-.27A1.08,1.08,0,0,0,43.43,60.16Z"/></g><g class="cls-8"><path class="cls-6" d="M27.85,45.34a5.26,5.26,0,0,1-.67,1.39c-.17.22-.82.53-.87.78-.08.5.74.64,1.06.47-.6.63.36,1.57,1.12.81a1.11,1.11,0,0,1-1.37.56c-.21.51-.82,0-.9-.42a1.13,1.13,0,0,0,.08,1.85c-.93-.32-.54,2.21.6,1.81-.37,0-2-.35-1.65-.55-.41-.4.13-.84-.1-1.27a1.74,1.74,0,0,1-1.76-.58c-.5.44,0,1.44.66,1.37-.38.52-1.13,1.4-.08,1.72C23.56,54.37,26,55,26,54.35c1.16,0,1.85-1.3,2.1-2.28-.36.15-1-.14-1-.56.37.39,1.32.45,1.48-.2.34.29.92-.22.85-.65.46,0,.41-.66.42-1a1,1,0,0,1-1.08.12,1.42,1.42,0,0,0,1.43-1.28s.05,0,.12,0a1.56,1.56,0,0,0,.12-.93,1.05,1.05,0,0,1-1.34.47s.1.1.08.09a.69.69,0,0,1-.81-.28c.47.16.91-.41,1-.84-.06.53-.89-.41-.92-.44a3,3,0,0,1-.5-1.5Z"/></g><g class="cls-8"><path class="cls-6" d="M38.88,44.56c1.21-.39-.09-1.71-.45-2.18a.62.62,0,0,1-1,.21c-.53.41-1.37-.11-1.56-.64a1.88,1.88,0,0,0,2.39-.27,5,5,0,0,1-2.13-3.44,8.76,8.76,0,0,1-1.53,3.27,4,4,0,0,0-.7,1.09,1.37,1.37,0,0,0,1.38-.27c-.27.47.64,1.16,1.12.81l.06,0c-.22.68-2.44,1.13-2.73.39-.21.19-.44.09-.54-.18-.3.75-.92,2.08.35,2.38-.56.49-.81-.47-1.37-.28s0,1.33.44,1.49a1.42,1.42,0,0,0,1.89.57.73.73,0,0,0,1.24.36.55.55,0,0,0,1,0c.45.53,1.29-.26,1.34-.74-.58.28-1.69-.08-1.77-.82-.18.37-1-.33-1-.74.42.22,1.94.58,1.88-.13C37.24,46.34,39.72,45.76,38.88,44.56Z"/></g><g class="cls-8"><path class="cls-6" d="M42.12,53.82c-.27.93,1.24,2,2,1.41A1.25,1.25,0,0,0,44.42,54a6.88,6.88,0,0,0-.88-1.31c-.13.21-1,.43-1.24.06s.15-.57,0-.85c.37.12.56-.22.82-.46a3.29,3.29,0,0,1-1.68-2.11A2.84,2.84,0,0,1,41,50.73c-.12.22-.67.67-.6.93.17.64.67.42,1.11.19a1.3,1.3,0,0,1-.21.35c-.21.22-.59.24-.71.38-.4.45-.45,1.52-.62,2.11a1,1,0,0,0,1.11-.75C41.28,54.25,42,54.29,42.12,53.82Z"/></g><g class="cls-8"><path class="cls-6" d="M48.63,50.26c.77.76,1.14-.71.89-1.26-.35-.74-1-1.26-1-2.16,0,.79-1.22,1.58-1.87,1.83.2.34,0,.76.47,1C46.52,50.15,48,51.22,48.63,50.26Z"/></g><g class="cls-9"><path class="cls-6" d="M40,52.28a1.9,1.9,0,0,0,.4-1C40.31,51.51,40.14,51.87,40,52.28Z"/></g><g class="cls-9"><path class="cls-6" d="M66.45,77.81a2.13,2.13,0,0,0,.46-1.12c.07-1-.65-1.26-1.46-1.67,0,0,0,0,0,0a.49.49,0,0,0,0-.79c1-.32,1.76-.54,1.87-1.76.08-.94-.45-1.13-1.19-1.58a2.17,2.17,0,0,0,.47-1.12c.06-1-.67-1.26-1.5-1.68.64-.55,0-1-.72-1.32a5,5,0,0,0-.59-.66,18.1,18.1,0,0,1-1.34-1.53l0,0c.5-.53-.21-1.1-.48-1.53v0a1.85,1.85,0,0,0,.26-.4,2.39,2.39,0,0,0-.79-.53.25.25,0,0,0,0-.07c-.07-.15.08-.52,0-.73-.32-.71-1.75-.92-1.92-1.86h0l-.1.12c-1.37.64-1.08-1.89-.89-2.73-.46.65-1.3,2.23-2.18,1.68a1.77,1.77,0,0,1,.59,2l-.24-.09c.59.2,1.28,1,.85,1.55l-.13-.12c.48.75-.17,3.07-1,2.07-.4.57-1.78,1.33-2.11.37-.31.63-1.24.61-1.21-.17-1.3.83-2-1-1.28-1.93-1.9.77,0-2.41.16-2.88a3.14,3.14,0,0,1-1.59.3c-.1,0-1.11-.64-.92-.78-1.13.8-1.84-.93-1.62-1.78-.42,1.18-3.56.91-3.89-.3.2.73,1.4,4.77,2.63,3.24.53.6.88,1.57,1.59,2,.32.17,1,0,1.22.41.33.73-.92,1.42-1.45,1.29.25.64.75,1.32,1.53,1.1-.22.81-1.3,2.78-2.21,1.94-.65,1-1.51,1.47-2.58.71-.42-.29-1-.82-.78-1.29-1.06,1.38-1.46-.93-.77-1.78-.93,1.07-3.08-.07-3.74-.88.08,0,.14-.16.27-.22-.46.06-1.67-.7-1.44-1.35.1-.3,1.11-.51,1.45-.72-.78.31-1.8-.49-1.3-1.28a8.36,8.36,0,0,1,.85.14c-.44-.27-1.22-1.78-.22-1.63.8-1,1.85-1.17,2.17-2.61-1.43,1.91-1.72-1.55-.88-1.33-.81-.21-.6-1.21-.31-2-.2.25-.46.4-.73.21-1.1,1.24-1.57-1.56-1.86-2-.46-.72-.92-.56-.9-1.66a1.68,1.68,0,0,1,.21-1c-1.22.9-4.89-1.71-3.71-2.51-1.23.83-.86-1-.53-1.5-.48.3-1.13.46-1,1.09a1.47,1.47,0,0,0-.89,1.87c.18,1.07.58,1,1.35.16a7.45,7.45,0,0,0,.47,3.2,4.83,4.83,0,0,0,.44,1.36c.3.46.82.52,1,1.29.08.39-.13.75,0,1.06s.74.5,1,.81a1.33,1.33,0,0,1-.45,2.13c.69,0,2.2.09,2.47.92s-.84,1.21-1.18,1.89c0,0-.74,2.67-1.32,1.38a6.62,6.62,0,0,0,2.48,3.16c.53.3,1.36.16,1.53.87.13.55-.57,1.5-1.09,1.37,0,0,0-.05,0,0,.22.23,3.44,3.31,1.88,3a1.7,1.7,0,0,1-.72,2.11c.43,1-.53.9-.89,1.31s-.83,1.9-1.93,1.24c-.61.53-1.71,1.4-2.42.51-1,.8-3-.37-2.27-1.47a1.69,1.69,0,0,1-2.2-.39c-.3-.27-1-1.75-1.35-1.77l.12,0c-.56-.41-.77-2.89.19-2.85-.37-.48.16-.93.67-.73a.7.7,0,0,1,.68-1c-.23-1,.77-1,1.44-1.25-1.82-.53.92-1.55.86-2.34,0,0,0,0,0,0-1.05.87-2.59.69-3.83.48-.58-.1-3.12-1.44-1.54-1.9a1.22,1.22,0,0,1-.77-.64c-1.26.31-2-3.22-.84-2.35-.25-.3.4-.55.82-.5.26,0,.63.37.91.53-.68-.41-1.31-2.09-.41-1.87-.61-.78.85-.94,1.12-1-.14,0-.27-.08-.41-.11-.12-.54.27-1,.5-1.42-.52.5-2.54.18-1.91-.48-1,1.07-3.66-.08-2.28-1.23-1.88-.34-1,1.74-.9,1.71-.47.16-.39,1.18.1,1.28a.49.49,0,0,0,0,.11c.05-.15-2.12-2-2.33-2.35A9,9,0,0,0,19.93,55c.28.66,1,1,.52,1.88.59.62-1.29,1.67-1.79,1a.89.89,0,0,0,1.44.58c1,.58,2.32-.63,2.85,1-.05.15-.09,0-.17.12.22.59-.29,1.53-.89,1.29a2.9,2.9,0,0,1-2.83,1.36c.65.3,2.36.5,2.66-.27a1.08,1.08,0,0,0,1.48-.39c.12,1-.1,2.43,1.41,2.26.39,0-.9,1.61-1.12,1.73a1.5,1.5,0,0,1-1.94-.06.85.85,0,0,1-.76.8c.49.59,1.41,1.35,2.24,1.09-.16.78.24,1.59-.67,2.08.58.62-.69,1-1.32,1a2.23,2.23,0,0,0,2.5-.93c.56.42.24,1,.23,1.55,0,1,.32,1.44-.83,2,.7.22,1.64.14,1.87-.76l.34.16c-.14.88.73,2.41-.32,3,.59.27-.55,1.75-1.33,1.79,0,1.2-1.27,1-2.08.79-.28,1.31-2.24.5-3.07.58a4.71,4.71,0,0,1-1.77.07c-.43-.09-.71.08-1-.21-.89,1.5-4.5-1-4.14-2.32-.83,0-.73-1.13-.28-1.52-.47-.48.17-1.16.53-1.51-.74.07-1.27.18-2,.23-1.51.12-1,2.55-.67,2.49-.74.12-.91,1.64-.22,1.94-.67.9.43,1.88,1.42,1.87-.86,1.08.92,3.67,1.41,2.75-.31.55,1.06,1.68,1.66,1.06.07,1,1.36,1,1.92.31-.45,1.19,1.39,2.19,2.06,1.05-.4.69,1.39.61,1.55.59a2.58,2.58,0,0,0,2.05-1.07c-.5.59,3.07,1.44,3.72-.45.6.74,2-.14,1.87-1,.71.44,2.05-.22,1.58-1.08a.56.56,0,0,0,.84,0,1,1,0,0,0,1.37-.39c-.4.69,1.38.61,1.54.59a2.6,2.6,0,0,0,2.06-1.07c-.12.14,0,.3.24.43-.78.38-1.41.84-.21,1.36-1.09-.18-1.12,1.12-.58,1.76a2.37,2.37,0,0,0,2.61.33c-.43.85.5,1.73,1.37,1.6a.26.26,0,0,0,0-.15c.45.53,1.68,1.42,1.93.21.5,1.17,1.91.82,2.63.09.59,1,2.26.49,2.8-.32.32,1.24,2.23-.09,2.59-.73,1.21,1.33,1.77-.64,2.35-1.17.9,1,1.55-.83,1.26-1.59a1.3,1.3,0,0,0,.55-.08c.43.29,1.25,1.7,1.56.49.33,1.75,1.94.88,2.92.87s2.11.43,2.7-.73c.4.66,1.56,1.08,1.94.28.72.49,2.7.32,2.71-.78.92,0,1.71.51,2.3-.44.24-.38.36-.87,0-1.16,1-.35,1.92-.53,2-1.81C67.72,78.44,67.18,78.26,66.45,77.81Zm-19-.08c-.26,1-1.35,2.49-2.55,2.27a1.41,1.41,0,0,0,1.67.15,3.82,3.82,0,0,1-.11,1.68c-.07,0-.18,0-.21,0-.13.64-.89,1.83-1.63,1.67-.51,1.21-1.6.88-2.56,1.08s-1.88.8-2.45-.26c-.53.59-1.6,0-1.94-.53A1.54,1.54,0,0,1,36.18,82l.39,0c.46.28,1.56.88,1.73.2.82.15,2,.31,2.58-.4a2.07,2.07,0,0,1-1.33-.26,2.26,2.26,0,0,1-2.16-.22.39.39,0,0,1,.11-.09c-.68.13-2.47-.32-2.43-1.33,0-.6.88-1,1.34-1.28-.25-.67-.4-.74-.16-1.31s1-.94,1.19-1.62a1.7,1.7,0,0,0,1.66.12c-2.44,0-.54-2.2,0-3.09a11.48,11.48,0,0,0,1.53-4.8,9.11,9.11,0,0,0,2.1,3.4c.64.69,1.46,2.45,2.3,2.79.06,0,1.18.15,1-.07.32.31,1.44,1.5,1.64.44C48.06,75.09,47.62,77,47.42,77.73Zm14.36.69c.09,1.27-3,2.58-3.36,1.36-.38.93-2.34,1.2-2.44,0a1.63,1.63,0,0,1-2.14.14c-.42-.28-.83-.51-.61-.93-1.21,1.21-3.81-1.18-2.74-2.49a1.55,1.55,0,0,1-.38-2.73l.21.17c-1-1.35.59-2.41,1.75-1.49-.11-.64.53-2.53,1.5-2.35a.73.73,0,0,1-.61-.87c.13-.63.85-.59,1.35-.71-.74-.9.27-1.14.93-1.35a8.57,8.57,0,0,0,4.29-3c-.07,1.26.07,3.29,1.58,3.75-.39,1.65,3.33,3.16,2.37,4.07,1.09.48,1.05,1.64-.15,1.7,0,0,.09.09-.11,0,.67.36.45.86.66,1.41s.83.68.24,1.39a.79.79,0,0,1-1.2.18C63.25,77.4,62.42,79.4,61.78,78.42Z"/></g><g class="cls-10"><path class="cls-6" d="M25.63,71.61h0S25.59,71.57,25.63,71.61Z"/><path class="cls-6" d="M36.17,78.14c.09.3.12.17.38.37-.61-.46-.42.89-.35,1.09.26.69,1.46,1.58,2.21,1.1A1.9,1.9,0,0,0,41.52,82c.77,1.09,2.92-.85,3-1.46.9.59,2.82-.77,2.74-1.83,1.07.19,1.54-1.85,1.58-2.64a3.17,3.17,0,0,0-1.38-2.7c1,.29,2.14-.91,2.24-1.95.66.4,2.32-.31,2.62-1A2.93,2.93,0,0,0,52,72.24c-1.07-1.29-3,.67-1.58,1.87,0,0,0,0,0,0a2.61,2.61,0,0,1-.28,0c-.55,1,.46,2.14,1.57,2.16-.36.45.15,1,.64,1.23,2,.92,2.41-2,2-3.19.54.29,2.72.31,2.32-.53.46.43,2.29.77,2.7.25s-.27-1.14-.68-1.5c.74.29,1.79.7,2.4.21a1.32,1.32,0,0,0,2.09.17c-.82,2.19,2,.29,2.45-.61.59-1.25,0-2.64-.42-3.85-.4-1-1.5-2-2-3l0,.07.08.09.15.16.08.07.22.24a4.5,4.5,0,0,1,.59.67h0l.11,0h0l.09,0,0,0,0,0,.06,0,0,0,0,0,0,0L65,67l0,0,.06,0a0,0,0,0,1,0,0s0,0,.06.05h0a.12.12,0,0,0,0,0v0l0,0,0,0,0,.06h0a.14.14,0,0,1,0,.07h0s0,0,0,.07h0v.07h0s0,.05,0,.07h0l0,.07h0a.25.25,0,0,1,0,.07v0l-.06.07h0l-.09.08c.83.42,1.56.67,1.5,1.68,0,0,0,.1,0,.15a.25.25,0,0,1,0,.07s0,0,0,.07l0,.1s0,0,0,0a.76.76,0,0,1,0,.11v0l-.06.12v0a.83.83,0,0,1-.07.13h0a.57.57,0,0,0-.08.13l-.1.13.52.31,0,0,.08.06,0,0,.07,0,0,0,0,0,0,0,0,0,0,0,0,.06,0,0,0,.06,0,0,0,.07a.43.43,0,0,1,0,0l0,.07V72a.19.19,0,0,1,0,.08.13.13,0,0,1,0,.06.34.34,0,0,0,0,.1v.06s0,.11,0,.17l0,.21h0c0,.06,0,.12,0,.18v0l-.06.15s0,0,0,0a.59.59,0,0,1-.06.14v0l-.07.12v0l-.09.11h0l-.1.1h0l-.11.09h0l-.12.08h0l-.14.08h0l-.14.07h0l-.13.06h0L66,74h0l-.14,0h0l-.13,0-.2.07a.6.6,0,0,1,.08.08h0a.57.57,0,0,1,.08.13h0a.4.4,0,0,1,0,.15.6.6,0,0,1-.21.42s0,0,0,0l.42.21h0l.11.06,0,0,.09,0,0,0,.08.05,0,0,.07.05.05,0,.06,0,.05,0s0,0,0,.05l0,0,.05.06,0,0a.16.16,0,0,1,0,.07l0,0a.21.21,0,0,1,0,.06.14.14,0,0,1,0,.06s0,0,0,.07,0,0,0,.06,0,.06,0,.09,0,0,0,.06a.41.41,0,0,1,0,.11s0,0,0,.06a.76.76,0,0,1,0,.15v0h0s0,.1,0,.15,0,0,0,.06a.24.24,0,0,1,0,.08.29.29,0,0,1,0,.09s0,0,0,.06a.42.42,0,0,1,0,.1.06.06,0,0,0,0,0l-.06.12s0,0,0,0,0,.08-.07.13h0l-.09.13h0l-.09.13.52.31,0,0,.08,0,0,0,.07,0,0,0,.06,0a.08.08,0,0,1,0,0l.05,0,0,0a.21.21,0,0,1,0,.06l0,0,0,.05a.17.17,0,0,1,0,0s0,0,0,.07a.08.08,0,0,1,0,.05.19.19,0,0,1,0,.07s0,0,0,.06,0,0,0,.08v.16s0,0,0,.06,0,.11,0,.17a1.61,1.61,0,0,1-.06.33.3.3,0,0,1,0,.1,1.41,1.41,0,0,1-.32.58l0,.07L67,80.6l-.07.05-.14.08a1.67,1.67,0,0,1-.23.12l-.16.07-.09,0-.18.06-.11,0-.45.15a.64.64,0,0,1,.18.55s0,0,0,.08a1.36,1.36,0,0,1-.22.53,1.26,1.26,0,0,1-.41.44l-.1,0-.11.05-.11,0-.08,0H64.3l-.21,0a7.16,7.16,0,0,0-.84-.1,1.11,1.11,0,0,1,0,.19.85.85,0,0,1-.15.3.81.81,0,0,1-.12.14l-.09.07a2.4,2.4,0,0,1-2.33.08l-.06.11-.06.08a.52.52,0,0,1-.17.13.51.51,0,0,1-.18.09l-.13,0a1.55,1.55,0,0,1-1.34-.71,1.38,1.38,0,0,1-.87.74l-.17,0h-.1l-.17,0a2.79,2.79,0,0,1-.5,0h-.22l-.16,0H55.9c-.37,0-.82.13-1.27.19a1.84,1.84,0,0,1-.33,0A1.14,1.14,0,0,1,53,83.16l0,.11s0,0,0,0l0,.06s0,0,0,0l0,0s0,0,0,0,0,0,0,0l0,0,0,0h0l0,0,0,0h-.25l0,0h0l0,0h0l0,0h0l-.05,0h0c-.3-.24-.62-.67-.84-.82l-.11,0h0l-.12,0h-.31a1.07,1.07,0,0,1,.07.33v.18h0a.28.28,0,0,1,0,.09h0a1.23,1.23,0,0,1,0,.19h0s0,.06,0,.09h0c-.16.73-.66,1.39-1.28.67-.31.28-.61,1-1,1.34h0l-.07.06h0l-.07,0h0l-.06,0a0,0,0,0,0,0,0s0,0-.06,0h0l-.06,0h0l-.06,0H48l-.06,0h0l-.06,0h0l-.07,0,0,0-.07,0,0,0-.07,0,0,0-.08-.07,0,0-.11-.12a3.17,3.17,0,0,1-1.92,1.24.62.62,0,0,1-.67-.51s0,0,0,0a2.1,2.1,0,0,1-.94.69,3.31,3.31,0,0,1-.42.12l-.21,0H43a1.7,1.7,0,0,1-.4,0l-.1,0a1.08,1.08,0,0,1-.61-.49l-.16.15-.11.09-.15.1a3.11,3.11,0,0,1-.41.2l-.09,0a1.65,1.65,0,0,1-.48.1,1.51,1.51,0,0,1-.37,0l-.09,0a1,1,0,0,1-.47-.28,1.11,1.11,0,0,1-.22-.29l0-.09,0-.06c-.25,1.21-1.48.32-1.93-.21,0,0,0,0,0,0a.45.45,0,0,1,0,.11h-.24l-.25,0-.15,0-.15-.06a1.38,1.38,0,0,1-.4-.32l-.06-.07a1.08,1.08,0,0,1-.23-.6,1,1,0,0,1,0-.28s0,0,0,0l.06-.14A2.58,2.58,0,0,1,35,85h-.18a3.06,3.06,0,0,1-.54-.07l-.17,0a1.47,1.47,0,0,1-.72-.46,1.08,1.08,0,0,1-.21-.34l0-.07a2.17,2.17,0,0,1-.07-.24s0,0,0-.08a.19.19,0,0,1,0-.08,1.77,1.77,0,0,1,0-.23s0,0,0-.07a.32.32,0,0,1,0-.14.7.7,0,0,1,.08-.2.76.76,0,0,1,.08-.11l0,0a.63.63,0,0,1,.4-.16,1.36,1.36,0,0,1,.28,0l-.13-.06,0,0-.09,0,0,0-.1-.06h0l-.06-.05,0,0-.07,0h0l0,0,0,0a.08.08,0,0,1,0,0h0l0,0v0a.06.06,0,0,1,0,0v-.07h0s0,0,0,0v0s0,0,0,0h0l0,0a0,0,0,0,1,0,0l0,0s0,0,0,0l.05,0s0,0,0,0l0,0,0,0s0,0,0,0l0,0,.05,0,0,0,0,0,.07,0,0,0,0,0,0,0,.06,0h0l.14-.07-.16-.1h0l-.06,0h0l0,0h0s0,0,0,0V81s0,0,0,0v0l0,0a2.15,2.15,0,0,1-.84.75l-.14.06a3.17,3.17,0,0,1-.4.14l-.16,0-.52.08h-.59a4.52,4.52,0,0,1-.53-.06h0c-.33-.08-.56-.23-.39-.53h0l-.07.09,0,0-.05.06,0,0,0,.05,0,0s0,0,0,0l0,0-.05,0,0,0,0,0h0l0,0h-.57l-.06,0h0l-.07,0h0l-.07,0,0,0h0l0,0h0l0,0h0l-.12,0h-.22a0,0,0,0,1,0,0h-.08l0,0h0l0,0,0,0,0,0,0,0-.06,0a.75.75,0,0,1,.06.13,1.16,1.16,0,0,1,0,.18v.08a.73.73,0,0,1-.21.45h0a1.32,1.32,0,0,1-1.26.34l-.07,0a.61.61,0,0,1-.14-.07.86.86,0,0,1-.08.47,1,1,0,0,1-.08.14,1.41,1.41,0,0,1-.5.47,1.28,1.28,0,0,1-.24.11h0a1.8,1.8,0,0,1-.22.06h0a.78.78,0,0,1-.72-.27,1.43,1.43,0,0,1-.36.58,1.79,1.79,0,0,1-.67.41l-.09,0a2.82,2.82,0,0,1-.82.14h-.18l-.34,0-.29,0a3.15,3.15,0,0,1-.51-.13l-.18-.07a1.24,1.24,0,0,1-.24-.17c-.08-.08-.11-.16-.06-.24a2.67,2.67,0,0,1-2,1,4.14,4.14,0,0,1-1.23-.08.75.75,0,0,1-.31-.16h0a.25.25,0,0,1,0-.29h0a.14.14,0,0,1,0-.06.58.58,0,0,1-.11.15.27.27,0,0,1-.07.08l-.09.08a.87.87,0,0,1-.38.17l-.11,0a1,1,0,0,1-.3,0l-.1,0a1.33,1.33,0,0,1-.74-.49l0,0a1,1,0,0,1-.12-.23l0-.1a1,1,0,0,1,0-.64,1.45,1.45,0,0,1-1,.49.82.82,0,0,1-.93-.8.73.73,0,0,1-.79.12,1.82,1.82,0,0,1-.31-.16,1.29,1.29,0,0,1-.59-.74.44.44,0,0,1,0-.28.3.3,0,0,1-.24.19c-.49.08-1.33-1.08-1.4-2.07a1.27,1.27,0,0,1,.23-.87h-.18l-.11,0a1.63,1.63,0,0,1-1.3-1l0-.14h0a.94.94,0,0,1,.2-.67.6.6,0,0,1-.26-.22.21.21,0,0,0,0-.06,1.17,1.17,0,0,1,0-.11s0-.07,0-.11,0-.14,0-.21v-.08a1.46,1.46,0,0,1,.09-.59l0-.08a.86.86,0,0,1,.11-.19,1,1,0,0,1,.17-.18.62.62,0,0,1,.25-.11.07.07,0,0,1-.06,0,1.42,1.42,0,0,1-.3-.94,1.34,1.34,0,0,1,.76-1.49l.27,0c.31,0,.6-.05.88-.09a2.66,2.66,0,0,1,1.45-.68c-.7-.52-1.16-2-.3-2.36a1.57,1.57,0,0,1,1.17.14.82.82,0,0,1,0-1c-1-.36-1.81-.55-1.89-1.76-.06-.9.45-1.07,1.16-1.47A2.11,2.11,0,0,1,11.8,65a1.26,1.26,0,0,1,.2-.77c.48.74,1.32,4.3,2.74,2.86-.12,1,2.67,1,3.15.51A2.22,2.22,0,0,1,15.84,69c0,.1.08.17.09.27-.36.24-1,.2-1.17.64s.38.82.8.81c-.22.75.34,2.42,1.34,2.06,0,0,0,0,0,0-.25.77,1.09,1.49,1.62.89a1.2,1.2,0,0,0,1.56-.12c.17,1,1.38.75,2.12.87a2.15,2.15,0,0,1-2.32.62c.21,1,2.23,2,3,1.23,2.32.43,4.33-3.45,1.59-4.19.68.29,1.56-.58,1.26-1.1l.1.1c-.09-.22-.12-.53-.21-.77.54-.1.92-1,.91-1.54a2.32,2.32,0,0,0,.7-.24c-.9.9-.82,2.87.55,3.34-.53,1.16,1.6,1.07,2.26,1,0,.52.93.41.95.26.59.41,2.35.33,2.73-.4,0,1.13-1.19,1.31-2.24,1.31.13.07.27.2.39.27-.47.06-1,0-1.43.09.3.75,1.47,2,2.29,1.45.17.71,1.16,1.09,1.53.34.54.52,1-.27,1.29-.69a6.67,6.67,0,0,0,1.36-.71A14,14,0,0,0,38,73a9.16,9.16,0,0,0,1.86-4.3c0-1-1.35-1.49-2-2.21,0,0,.07,0,.08,0,1.07.35,1.46-1,.76-1.55-.34-.29-.9-.26-1.31-.44a5,5,0,0,1-2.61-2.86c.77,1.1,2.88,2.79,4.29,2.05-.65.84.88,1.84,1.63,1.43C40,66,42,66.32,42.56,66c.48.46,1.34.06,1.73-.32C44.41,67,42.8,66.82,42.77,68a1.07,1.07,0,0,0,1.32,1.11A1.48,1.48,0,0,0,46.27,69c.41,1.23,1.68,1.21,2.67,1a1.69,1.69,0,0,1-2.2.72,3.77,3.77,0,0,1-2,1.83c-1.78,0-3.29-3.42-3.78-4.83-.36.9-.66,1.7-1,2.62a16.18,16.18,0,0,1-1.47,3c-.54.89-1,2.37.66,2.29C37.84,75.66,35.55,76.27,36.17,78.14Z"/></g><path class="cls-2" d="M10.37,63.41a2.91,2.91,0,0,1,1,.9c1,1.51.93,3.78,1.18,5.49.34,2.34.59,4.84,2.31,6.59,1.34,1.37,3.35,2.08,4.38,3.75s.52,3.17,2.44,4.11c1,.48,2.53.32,3.32,1-1.22,1.55-2.91,5.34-5.17,5.53-1.08.09-2.85-.76-3.93-1a14.88,14.88,0,0,1-4.43-1.69C5.87,84.61,1.27,80,.31,73.19c-.69-4.94,1.23-9.81.88-14.72C1.1,57.16.58,55.89.51,54.62c4-.21,4.52,4.94,6.51,7C7.91,62.59,9.31,62.78,10.37,63.41Z"/><g class="cls-3"><path class="cls-4" d="M9.6,67.48a29.72,29.72,0,0,0-.49,6c.11,1.31.1,3.23,1.33,4,.93.61,2.18.7,3.16,1.3a7.35,7.35,0,0,1,2.81,2.83c1,2.17-1.55,1.11-2.64.7a31,31,0,0,0-4.69-1.28,23.71,23.71,0,0,1-3.15-.42c-.78-.29-.67-.52-.31-1.45a4.42,4.42,0,0,1,.93-1.43c.31-.34.86-.6,1.11-1,.43-.64-.07-1.3-.29-2.07-.72-2.6-.57-6.26,1.17-8.45C9.66,64.86,9.72,66.46,9.6,67.48Z"/></g><path class="cls-2" d="M65.82,88.6a45.89,45.89,0,0,1-10.07,4.16C52,94,48.63,95.52,44.58,95.9c-.45,0-1.1.38-1.53.1-1.26-.81-1.1-5.83-.85-7.07.53-2.65,2.26-6.07,5.06-6.75,1.36-.33,2.57,0,3.9-.53,1.88-.82,3-2.54,4.29-4,.93-1.08,2-2.47,3.43-2.86,1.17-.3,2.47.17,3.66.26,4.51.35,6.66-4.76,9.91-7,2.35-1.6,6.39-2.18,8.52.24-3.59.36-4.94,6.45-5.8,9.19C73.59,82.55,70.34,85.89,65.82,88.6Z"/><g class="cls-3"><path class="cls-4" d="M78.32,68.86a8.1,8.1,0,0,0-3.1,3.74c-.27.58-1.54,4.26-2.21,4.32-2.07.17,2.13-6.81,1.51-7.37a10.22,10.22,0,0,0-5.94,6.75c-.66,2.09-2,10.41-6,8.92C59.33,84,63.65,78.88,62.34,77c-1.09-1.62-3.65,0-4.26,1.18-1.81,3.53-.33,9.09-4.74,10.88-4.23,1.71-2.43-3-3-5-.42-1.45-3.84-1.44-4.41.18-.32.91,1.53,2.65,1.7,3.9.37,2.86-1.41,1.55-2.42,0a6.09,6.09,0,0,1-1.14-3.47,11.72,11.72,0,0,0-1.85,4.37c-.25,1.24-.41,6.26.85,7.07.43.28,1.08-.06,1.53-.1,4.05-.38,7.37-2,11.17-3.14A45.89,45.89,0,0,0,65.82,88.6c4.52-2.71,7.77-6,9.35-11.12.86-2.74,2.21-8.83,5.8-9.19l-.18-.19A5.25,5.25,0,0,0,78.32,68.86Z"/></g><g class="cls-3"><path class="cls-4" d="M17.72,84.13a6.89,6.89,0,0,0-4.35-6.56c-1.49-.69-2.55,0-3.19-1.6-1-2.34-.14-5.49.07-7.94.07-.8.5-3.8-.88-4-2.17-.28-3.22,5.24-3.46,6.58s.25,6.13-1.48,6.54c-2.75.66-3.28-7.13-3.26-8.64,0-2.4.86-4.72,1-7.05A25,25,0,0,0,.86,64.17c-.42,3-1,6-.55,9,1,6.8,5.56,11.42,11.14,14.91a10.85,10.85,0,0,0,1.84.91C15.61,88.29,17.59,86.61,17.72,84.13Z"/></g><g class="cls-3"><path class="cls-4" d="M78.32,68.86C76.21,70.15,75.69,72.77,75,75c-.47,1.5-1.51,5.42-3.43,5.65-1.22.14-.75-1.17-.57-2a21.35,21.35,0,0,1,1.25-4.15,13.51,13.51,0,0,0,1.2-2.67c-1.63-.76-3.41,2.42-3.84,3.53a41.28,41.28,0,0,0-1.29,5.49c-.76,3.26-2.51,6.34-6.21,6.7S61.38,81,62,79.36c.26-.74.75-1.83-.23-2.12C61,77,59.41,78.32,59,78.83a6.29,6.29,0,0,0-1.07,2,9.58,9.58,0,0,0,.15,4.45c.61,3.41-1.92,5.84-5.23,6.24-6.12.74-.65-6.07-3.67-6.78-2.21-.53-1.09,1.63-.69,2.55s1.13,3.08-.14,3.9c-.83.53-2.08-.34-2.7-1C45.31,89.78,44.49,88,44,88s-1.43,2.28-1.59,2.73c-.51,1.42-1,4.31.62,5.33.43.27,1.08-.07,1.53-.11,4.05-.38,7.37-2,11.17-3.14A45.89,45.89,0,0,0,65.82,88.6c4.52-2.71,7.77-6,9.35-11.12.86-2.74,2.21-8.83,5.8-9.19l-.18-.19A5.25,5.25,0,0,0,78.32,68.86Z"/></g><path class="cls-4" d="M44.21,87.9a6.57,6.57,0,0,0-.86-1.69c-.77-1.06-2-1.32-2.94-2.13-1.87-1.54-3.43-3.84-6-4.18-1.11-.14-1.87.43-2.95.52-2.16.18-3.5-2-5.54-2.25-2.33-.33-4.56.6-6.71,1.38a9.76,9.76,0,0,1-6.84,0c-2.61-1-3.9-1.8-6.6-.38a17.84,17.84,0,0,0-4.15,3.08,8.48,8.48,0,0,1,3.85,2.6c1.65,1.82,2.24,4.37,3.77,6.29,3,3.73,7.27,1,10.74,3.06,1.65,1,3,2.17,4.79,2.86,3.14,1.18,6.56,1.38,9.78,2,2.75.54,5.44-.53,8-1.25A26,26,0,0,0,46,96.67c.62-.28,3-1.92,3.53-1.8A6.47,6.47,0,0,1,45,90.42C44.72,89.61,44.51,88.73,44.21,87.9Z"/><g class="cls-3"><path class="cls-4" d="M45.29,93.56c-2-1.33-2.14,1.22-4,2.26-1.14.65-2.94,1.66-4.3,1.51s-2.28-1-2-2.37c.46-2,1.91-3.63,2.71-5.52,1.05-2.49.82-4.75-1.77-6.08-2.86-1.46-3.84,1-4.23,3.59a14.12,14.12,0,0,0,.06,4.45,7.28,7.28,0,0,1,.11,3.08c-.59,2.09-3.13,2.29-4.82,1.31a5.15,5.15,0,0,1-2.38-5.35c.66-2.69,3.16-4.56,3.77-7.29,1-4.33-3.75-3.94-6.47-3-4.1,1.35-2.27,5.21-1.87,8.51.11.95.29,2.47-.72,2.92-2,.9-3.41-1.23-3.76-2.77-.43-1.89-.5-4.34-1.36-6.08-.77-1.59-2.53-3-4.49-2.7-1.71.31-.86,1.41-.29,2.6.78,1.64,2.81,4.47,1.94,6.41-1.12,2.52-3.19-.87-3.85-2-1.19-2-2.38-4.43-4-6.11a2.41,2.41,0,0,1,.16-.54,22,22,0,0,0-2.24,1.89,8.48,8.48,0,0,1,3.85,2.6c1.65,1.82,2.24,4.37,3.77,6.29,3,3.73,7.27,1,10.74,3.06,1.65,1,3,2.17,4.79,2.86,3.14,1.18,6.56,1.38,9.78,2,2.75.54,5.44-.53,8-1.25.55-.16,1.09-.32,1.63-.5a10.49,10.49,0,0,0,1.55-1.57C46.57,94.74,46.53,94.41,45.29,93.56Z"/></g><g class="cls-3"><path class="cls-4" d="M44.72,95.45a2.73,2.73,0,0,0-1.12,0,26.6,26.6,0,0,0-3.05,1.47,17.32,17.32,0,0,1-4,1.17c-1,.14-2.19.4-2.57-.79-.48-1.48.78-3.77,1.3-5.14S37.24,85.64,34,88.2c-1.94,1.54-.71,4.76-1,6.9s-1.77,2.59-3.87,2.14a6.81,6.81,0,0,1-5.05-3.35c-1.38-2.41-.57-4.39.73-6.66.51-.9,3.44-4.33,2.63-5.29s-3,0-3.76.26a3,3,0,0,0-2.13,2.42,16.63,16.63,0,0,0-.08,5.08c0,.7.33,1.87-.1,2.47-.91,1.29-4.4.3-5.68-.06-2.05-.56-2.52-1.62-2.12-3.68.35-1.81,1-4.65-.81-6-.42-.3-1.55-.66-2-.09s0,.88.27,1.41c.74,1.54,1.82,3.15,2.07,4.88.21,1.45-.71,3.38-2.45,2.84s-2.81-3.14-3.61-4.72a13.37,13.37,0,0,0-2.86-3.85c-.5-.45-1.25-.85-1-1.64a3.46,3.46,0,0,0-1.61,1,8.48,8.48,0,0,1,3.85,2.6c1.65,1.82,2.24,4.37,3.77,6.29,3,3.73,7.27,1,10.74,3.06,1.65,1,3,2.17,4.79,2.86,3.14,1.18,6.56,1.38,9.78,2,2.75.54,5.44-.53,8-1.25.55-.16,1.09-.32,1.63-.5.45-.37,1.46-1,1-1.62A.84.84,0,0,0,44.72,95.45Z"/></g><g class="cls-11"><path class="cls-4" d="M57.06,76.32c-1.72,1.75-3.35,6.27-6.36,5.79-1.37-.22-2.34.4-3.61.53a4.57,4.57,0,0,1,3.24.67c1.08,1-.09,2.82.87,3.84s2.36-.14,2.9-.82c1.19-1.51,1.33-3.71,1.78-5.51.4-1.61,1.25-3.47,2.8-4.27,1.31-.67,3-1.09,4.12.12.79.84.92,2.63,2.2,3,1.67.44,2.44-2.54,3-3.69,1.13-2.55,2.59-5.46,5.24-6.74.44-.21,1.76-.82,2.18-.27.19.25-.15,1.17-.1,1.5a19.16,19.16,0,0,1,4.09-2.9c-3.24-1.55-7,.31-9.27,2.77-1.87,2.06-3.85,5.1-7,4.84C60.78,75,58.91,74.45,57.06,76.32Z"/></g><g class="cls-11"><path class="cls-4" d="M33.64,82.09c-.94.25-2.63,2.36-3.49,2s-.48-1.8-.86-2.45a5.66,5.66,0,0,0-5.08-2.44A9.61,9.61,0,0,0,20,80.81c-1.23.78-1.16,3-2.3,3.53s-1.94-1.36-2.5-2a10,10,0,0,0-3.27-2.46c-.9-.43-3.18-.82-3.93.22-.6.83,1.62,3.68.71,4-.32.12-1.81-1.16-2.07-1.34A16.4,16.4,0,0,1,4.26,81c2.35-1.51,4.31-2.45,7-1.57,2.9.94,6.26,1.9,9.18.62,2-.9,3.95-1.72,6.18-1.26,1.61.33,2.6,1.86,4.07,2.26,1.92.53,3.83-.7,5.79.33,1.74.91,2.73,2.87,4.15,4.15,1,.88,1.68,1,1.92,2.26s.78,2.67,1,4c-.83-1.64-3.34.54-4.46.76-1.39.28-1.13-.38-.77-1.49.26-.81.58-1.61.84-2.42C40.15,85.62,37.11,81.15,33.64,82.09Z"/></g><g class="cls-11"><path class="cls-4" d="M5.26,60.73c-1-1.73-1.84-4.93-4.13-5.35a9.88,9.88,0,0,1,.6,3c0,.7-.46,1.68.12,2.29.21-.13.82-.91,1-.89.66.05.59,1.2.59,1.62,0,2.92-.66,5.92.46,8.77.5,1.25,1,1.43,1.41.24.79-2.09.46-4.92,2.57-6.24,3.36-2.11,3,4.52,2.92,6-.07,2.28,0,5.82,3.16,5.53-2-1.37-1.72-5.41-1.92-7.44a9.21,9.21,0,0,0-1-3.75c-.87-1.47-2.38-1.64-3.89-2A3.17,3.17,0,0,1,5.26,60.73Z"/></g><g class="cls-11"><path class="cls-4" d="M10.43,61.38c-.31-.1.14-3.41.2-4.13a9.53,9.53,0,0,0-1.34-5.46C11.43,54,13,58.27,10.43,61.38Z"/></g><g class="cls-11"><path class="cls-4" d="M68.23,63.4c-.07-.67-.28-1.52-1-1.17.33-1.07,2.49-2.3,3.26-3.16,1.22-1.39,2.37-2.85,3.47-4.33a7,7,0,0,1,.49,3.33c-.38-.79-.75-1.14-1.63-.63-2,1.17-3.38,4.59-4.6,6.49A3.79,3.79,0,0,0,68.23,63.4Z"/></g><g class="cls-11"><path class="cls-4" d="M62,54.85c-.11-1.44-1.67-5.47.13-6.5-1,.59-1.74,2.18-2.19,3.23a4.07,4.07,0,0,0-.38,1.78c0,.18.71,1.57.78,1.38.2-.51.46-1.1.72-1.63A6.6,6.6,0,0,1,62,54.85Z"/></g><g class="cls-3"><path class="cls-4" d="M35.23,84.14a1.63,1.63,0,0,0-2.14,1.25c-.51,1.5.29,3.8,1,5.16s1.21,1.44,2,.06a6.69,6.69,0,0,0,1.19-4.07A3.12,3.12,0,0,0,35.23,84.14Z"/></g><g class="cls-3"><path class="cls-4" d="M24.26,80.4c-1.73.23-3.44,1.4-3.05,3.08.17.71,1,1.24,1.47,1.74a5.44,5.44,0,0,1,1.07,1.32c.08.16.22,1,.37,1.08.83.37,2.51-2.68,2.82-3.35C28.41,81.17,26.33,80.12,24.26,80.4Z"/></g><g class="cls-3"><path class="cls-4" d="M12.34,81.85c-1-.58-2.52-1.24-2.05.43s2.43,3.21,3.54,4.43c.38.41.63-2.13.59-2.32a3.07,3.07,0,0,0-1.48-2.16C12.8,82.13,12.58,82,12.34,81.85Z"/></g><g class="cls-3"><path class="cls-4" d="M59.83,77.18a5.33,5.33,0,0,0-2.3,5.59c.38,2,2.19-.55,2.77-1.23.78-.91,2.28-3.15,1.57-4.39C61.42,76.38,60.54,76.71,59.83,77.18Z"/></g><g class="cls-3"><path class="cls-4" d="M72.71,71c-2.49,1-5,6.67-3.88,9.21,1.27-.89,1.82-3.8,2.54-5.2.47-.94,1.39-1.74,1.76-2.71C73.34,71.75,73.48,70.58,72.71,71Z"/></g><g class="cls-3"><path class="cls-4" d="M67,70.48c-.33-.92-.45-2,.28-2.15s.71.79,1.65.14c1.16-.8,1.34-3.34,2.78-3.73-.06.82-.52,2.41.51,2.79-1.59,1.09-3.77,2.5-4.46,4.35A5,5,0,0,1,67,70.48Z"/></g><path class="cls-4" d="M24.43,34.65a4.38,4.38,0,0,1,3.51,2.11,4.8,4.8,0,0,1-.26-1,8.11,8.11,0,0,0-.43-1.06,11.63,11.63,0,0,0-1.05-1.72A10,10,0,0,0,23.55,30a6.45,6.45,0,0,0,.32.87c-.72-.76-1.25-1.73-2.29-2.1a1.85,1.85,0,0,1,.48,1.34c-.47-.35-.65-.79-1.31-.88a3.49,3.49,0,0,1,.13.37c-1.28-.89-3.52-3-5.12-2.33.28.24.78.49.9.91a2.62,2.62,0,0,0-1-.5.59.59,0,0,1,0,.37c-1.19-.14-1.87-1.51-2.73-2.23a8.27,8.27,0,0,0-2.11-1.08,4.32,4.32,0,0,1,1.26,1.43C11,26,10.22,25.41,9,25.47c-2.15.11-3.56,1.73-5.87,1.27.4.76,1.2.44,1.89.65-1.81.46-3.72-.28-5,1.51a4.7,4.7,0,0,1,2.63,0c1,.29,1.62.9,2.59.16-.8,1-1.81,1.11-3,1.52C4.15,31.49,6,32,8.1,31a2.93,2.93,0,0,1-1.39,1.16,3,3,0,0,0,1.91,0c-.22.15-.24.37-.38.59.84.66,3.17-.15,4-.5a5.37,5.37,0,0,1-.8,1.09,5,5,0,0,0,4-.66c-.11.49-.6.72-.8,1.18A19.08,19.08,0,0,0,17,33.27a10.51,10.51,0,0,1,2.62.45,1.06,1.06,0,0,0-1.22.29,8.08,8.08,0,0,1,1.7.14c0,.08-.09.07-.09.15a5.64,5.64,0,0,0,4.95.5A4.25,4.25,0,0,0,24.43,34.65Z"/><g class="cls-12"><path class="cls-13" d="M23.48,31.32c.23.67,1.38,1.41,1.9,1.86a6.1,6.1,0,0,1,1.64,2,3.88,3.88,0,0,0-2.73-1.88c-.86,0-2.41.64-3.09-.18.43.19,1.45.06.71-.28-.42-.19-1.13,0-1.49-.21.18-.06.39-.11.44-.28a7.27,7.27,0,0,0-1.3-.2,3.44,3.44,0,0,0-1.55.31,3,3,0,0,1,.94-.8,3.42,3.42,0,0,0-2.43-.33.74.74,0,0,0,.32-.38c-1.17-.61-2.42,1.25-3.66,1,.46,0,1.88-1,1.49-1.52a1.57,1.57,0,0,1-.61.29c-.14,0-.39.08-.52,0s0-.27-.09-.32c-.49-.42-1.37.42-1.94.54.14-.35.57-.66.8-1a2.36,2.36,0,0,0-.84-.06c.82-.55-1.35-1-1.66-1.06a9.53,9.53,0,0,1-3.33-.91,13.42,13.42,0,0,0,2.43.49,16.73,16.73,0,0,1,1.87.22,7.23,7.23,0,0,0,1,.26A3,3,0,0,0,10.62,28c.48.19,1,.15,1.5.34s1.05.81,1.65,1a3.28,3.28,0,0,1-.52-1.18,4.11,4.11,0,0,0,1.29,1.3,1.32,1.32,0,0,1-.36-.89c.5.79,1.49.86,2.37,1A10.18,10.18,0,0,1,21,31.21c-.3-.4-.68-.79-.94-1.21.57.41,1.16.91,1.75,1.31a1.58,1.58,0,0,1-.26-.86,5.6,5.6,0,0,0,.83.95,2,2,0,0,0,1.55.85C23.86,31.92,23.59,31.64,23.48,31.32Z"/></g><path class="cls-14" d="M26.61,35.46c.35.08.68.23,1,.34s.71.35.92.29a4.3,4.3,0,0,0-1.21-1.6c-1.72-1.45-3.65-1.58-5.77-1.87s-4.26,1.06-5.91,2a29.21,29.21,0,0,1-6,3.15,4,4,0,0,1-3.54-.35,6.3,6.3,0,0,0,2.5,2.46,6.19,6.19,0,0,0,3.5,1,10.79,10.79,0,0,0,3.57-1h-.07c.27-.66,0-1.5.25-2.17a3,3,0,0,0,.68,1.89,5.3,5.3,0,0,0,.05-2.44c.27.26,1.39,1.81,1.92,1.33.37-.35-.42-1.61-.69-1.87.26.32,1.12,1.3,1.57,1.17.08,0,.22-.3.27-.36A7.4,7.4,0,0,1,21,36.44a6.12,6.12,0,0,1,3.72-1.2A9.85,9.85,0,0,1,26.61,35.46Z"/><path class="cls-15" d="M21.25,32.87a10.57,10.57,0,0,0-5,2,31.37,31.37,0,0,1-4.8,2.92,7.91,7.91,0,0,1-3.06.67s0,0,0,0a6.64,6.64,0,0,0,2.73-.28A11.57,11.57,0,0,0,13.67,37c1.44-.9,2.81-1.92,4.32-2.7a8.49,8.49,0,0,1,2.27-.83,9.5,9.5,0,0,1,2.36-.53A5.78,5.78,0,0,0,21.25,32.87Z"/><g class="cls-16"><path class="cls-14" d="M22.91,33a11.19,11.19,0,0,0-6.75,2,27.7,27.7,0,0,1-3.57,2.38,12.51,12.51,0,0,1-2,.71c-.35.1-1.73.56-2,.35.84.59,2.56,0,3.41-.29-.27.25-.28.69-.36,1a6,6,0,0,0,.73-1.05,1.45,1.45,0,0,0,0,.92,5.51,5.51,0,0,1,.38-.67c-.06.2.14.86.43.83.07,0,.47-.61.63-.71A21.61,21.61,0,0,0,16.3,37v.54a5.4,5.4,0,0,0,.28-1.12.38.38,0,0,0,.48.18c0-.6.23-.55.77-.72a10.11,10.11,0,0,0,2.65-1.32,6.56,6.56,0,0,1,4.22-1.35A4.5,4.5,0,0,0,22.91,33Z"/></g><g class="cls-17"><path class="cls-4" d="M12.38,26a1.16,1.16,0,0,1,.43.93,7.68,7.68,0,0,0-2.4-.52c-.77-.12-2.29-.4-3,.07.42.14,1.09.12,1.3.59-.86-.07-2.21-.44-3,.18a10.78,10.78,0,0,1,3.48.82c.27.1,1,.31,1.22,0s-.08-.48-.08-.7c.34.33,1,.22,1.39.44s.78.78,1.13.69c-.81-1.18.41-.59,1-.31s.94.3,1.4.49a1.1,1.1,0,0,0,1,.1,5.39,5.39,0,0,1-1.07-.39,4.44,4.44,0,0,1-1.11-.5C13.41,27.37,13.16,26.31,12.38,26Z"/></g><g class="cls-17"><path class="cls-4" d="M10.15,30.81c.27-.16,1-.54.81-.91s-1.17-.46-1.45-.54a4.32,4.32,0,0,0-3.16-.09c-.67.35-1.63,1.23-2.39,1.22.55-.16,1.42.36,2,.37A6.82,6.82,0,0,0,8.74,30c-.33.2-.44,1-.57,1.31A7.78,7.78,0,0,0,10.15,30.81Z"/></g><g class="cls-17"><path class="cls-4" d="M15.45,33.37l0,.06a8.65,8.65,0,0,1,3.33-.5,2.93,2.93,0,0,0-1.65-.23,7.18,7.18,0,0,0,1.14-.82c-.6-.47-1.95-.15-2.64,0,.21-.42.69-.51,1.08-.71a3.47,3.47,0,0,0-1.88.48c-.67.33-1.09,1.2-1.85,1.35.35.29,1.07.05,1.44,0a4.78,4.78,0,0,0,1.51-.69A5,5,0,0,1,15.45,33.37Z"/></g><path d="M43.51,32.36s1.27,6.62,1.86,6.92,6.51,1.74,6.84,1.13a12.19,12.19,0,0,0,.71-2,10.22,10.22,0,0,0-.31-2,16.28,16.28,0,0,1-.85-1.82l-.85-1.2-1.43-.75-1.61-.38Z"/><path class="cls-18" d="M58.64,38.49a17,17,0,0,0-3.17-2.21,22,22,0,0,1-2-1.2c-1.19-.89-1.74-2.33-3.28-2.83a14.08,14.08,0,0,0-4-.54,17.71,17.71,0,0,0-2.9.34q.23.29.42.57a9.5,9.5,0,0,1,3.7-.13,5.4,5.4,0,0,1,3.41,1.74,6.39,6.39,0,0,1,1.43,2.33,6.48,6.48,0,0,1,.39,2.16c-.32,1.81-3.92.64-4.93.22a40.22,40.22,0,0,1-5-2.44c-1.44-.84-3-1.39-4.36-2.37-3.35-2.34-8.19-4.76-12.33-3C23.93,32,22.2,34,20.83,35.76A38.21,38.21,0,0,0,16.05,44a10.83,10.83,0,0,0-.94,3.48c-.12,1.78,1.24,1.65,2.54,1.13a17.55,17.55,0,0,1,4.72-1.27,22.14,22.14,0,0,1,5.91.41c2.28.37,4.58.57,6.85.91,3.65.56,7.29,1,10.95,1.33a21.81,21.81,0,0,0,3.61.14,7.47,7.47,0,0,0,3.12-.8,6.52,6.52,0,0,0,1.72-1.47,26.65,26.65,0,0,0,2.16-3.26,28.45,28.45,0,0,1,1.66-2.89c.29-.37.82-.63,1-.94C59.88,40.08,59.17,39,58.64,38.49Z"/><path class="cls-19" d="M52.91,49.24a.31.31,0,0,0-.1,0,7.47,7.47,0,0,1-3.12.8A21.81,21.81,0,0,1,46.08,50c-3.66-.38-7.3-.77-10.95-1.33-2.27-.34-4.57-.54-6.85-.91a25.48,25.48,0,0,0-5-.47,1.3,1.3,0,0,0-.17.61c0,.6.15.6-.28,1s-1.13.69-.35,1.4c-1.64.15-.41,1.5.43,1.86a38.51,38.51,0,0,0,10.24,2.59,37.81,37.81,0,0,0,6.38.34c1.81-.08,3.6-.44,5.41-.51,1.5-.06,3.24.17,4.6-.57a10.77,10.77,0,0,0,2.33-1.75c.49-.51.15-.56.36-1.12s.77-.68.44-1.18A.75.75,0,0,0,52.91,49.24Z"/><path class="cls-20" d="M49.63,48.74a3.83,3.83,0,0,1,.12-1.42c.66-2.87,2.69-5.24,3.32-8.13a7.28,7.28,0,0,0-.18-3c.7.45,1.46.86,2.17,1.32a6.9,6.9,0,0,1,1.65,1.2,8.64,8.64,0,0,1,1.23,1.89c-.81-.25-1.69.54-2.15,1.13A7,7,0,0,0,54,45.25c-.12,1.64,1.66.53,2.16-.18a14.1,14.1,0,0,1-2.69,3.36c-.78.6-2.33,1.36-3.35,1A.8.8,0,0,1,49.63,48.74Z"/><g class="cls-21"><path class="cls-22" d="M50.94,50.59a4.1,4.1,0,0,0,.88-.4A5.39,5.39,0,0,1,50.94,50.59Z"/><path class="cls-22" d="M49.74,50.9a9.6,9.6,0,0,0,1.2-.31C50.55,50.71,50.14,50.8,49.74,50.9Z"/><path class="cls-22" d="M41,49.54a55.17,55.17,0,0,0,6.53.8,12.88,12.88,0,0,0,4-.52,9.74,9.74,0,0,1-1.76.27A21.81,21.81,0,0,1,46.08,50c-3.66-.38-7.3-.77-10.95-1.33-2.27-.34-4.57-.54-6.85-.91a25.48,25.48,0,0,0-5-.47,1.4,1.4,0,0,0-.16.46,2.83,2.83,0,0,1,2.1.58c-.34.57-1.54.38-2.15.32a1.05,1.05,0,0,1-.24.29.86.86,0,0,1-.14.13c.32,0,.7,0,1,0a14.11,14.11,0,0,1,2.13.53c1.41.41,2.87.65,4.31.92.78.15,2,.3,2.42,1.12a6,6,0,0,1-2.42-.06c-1.16-.17-2.3-.32-3.47-.4a19,19,0,0,1-4.13-.71A20.7,20.7,0,0,0,26,51.61a27.77,27.77,0,0,0,3.26.69c.7.1,1.92.23,2.42.84a5.39,5.39,0,0,1-2.93.06,26.32,26.32,0,0,1-4.23-.81c-.83-.25-2.46-.85-2.74-1.78-.28.46.56,1.27,1.18,1.54a38.51,38.51,0,0,0,10.24,2.59,37.81,37.81,0,0,0,6.38.34c1.81-.08,3.6-.44,5.41-.51,1.5-.06,3.24.17,4.6-.57l.49-.3a9.16,9.16,0,0,1-2.79.27c-1.61,0-3.19.06-4.79.15-.94.05-1.88.07-2.81.07a2.37,2.37,0,0,1-1.22-.12,3.51,3.51,0,0,1,1.7-.49c.83-.1,1.7-.13,2.54-.17,1.77-.08,3.53.08,5.3-.14a6,6,0,0,0,3.51-1.43,17.63,17.63,0,0,1-1.92.72c-.34.08-1.29.36-1.58.18,1.21-.41,2.75-.48,3.59-1.62-.49.22-1,.54-1.46.71a15.7,15.7,0,0,1-4,.7,34.28,34.28,0,0,1-5.55-.09c-.77-.09-2.53-.24-2.79-1.18,1-.53,2.79,0,3.82.08,1.43.09,2.85.14,4.27.09a18.39,18.39,0,0,0,3.84-.52h.05c-.62.11-1.24.17-1.82.22a29.89,29.89,0,0,1-5.74-.38,26.82,26.82,0,0,1-5.84-.92,4,4,0,0,1-1.71-.72A26.8,26.8,0,0,1,41,49.54Z"/></g><path class="cls-20" d="M21.43,46.69c-.26.15-1.08.51-1.29.14-.33-.62,1.2-2.17,1.51-2.57,2-2.58,5.53-5.37,8.94-4A17.9,17.9,0,0,1,35,42.94c1.31,1,2.39,2.36,3.67,3.43a30,30,0,0,0,3.92,2.39,6,6,0,0,1-2.54.14c-2.11-.09-4.22-.8-6.32-1.08C29.63,47.27,25.44,45.6,21.43,46.69Z"/><path class="cls-23" d="M37.8,40c-1.53-2.12-2.89-4.35-5.11-5.85a8.58,8.58,0,0,0-3.76-1.36,8.22,8.22,0,0,1-1.79-.35c2.17-1.11,4.68-.72,6.89.06A31.15,31.15,0,0,1,37.33,34c.9.46,1.62,1.11,2.49,1.62a37.42,37.42,0,0,0,8.12,3.89,11.49,11.49,0,0,0,2.83.58c.3,0,.73-.25,1-.15.54.2,0,.71-.14,1-.53.91-.89,1.91-1.38,2.83s-.81,1.71-1.17,2.57c-.19.45-.49,1.32-1,1.53-.64.28-1.9-.29-2.47-.54C43,46.11,40.89,43.8,39,41.6,38.6,41.09,38.19,40.55,37.8,40Z"/><path class="cls-23" d="M22.47,38c.06-.88.31-3.52-1.24-2.11a14.37,14.37,0,0,0-2.65,3.76A24.08,24.08,0,0,0,17,43a5,5,0,0,0-.46,2.13c.16,1,1.22.52,1.74.14A9.49,9.49,0,0,0,21.64,41,10.4,10.4,0,0,0,22.47,38Z"/><path class="cls-20" d="M21.9,46.45a4.57,4.57,0,0,1,1.92-1.77,8.7,8.7,0,0,1,3.53-1.56c2.49-.4,4.78.52,7,1.61a19.67,19.67,0,0,1,4.26,2.73c.37.34,1.55,1.35.4,1.34-1.72,0-3.5-.75-5.21-1-2-.28-4.06-.81-6.1-1.16a20.78,20.78,0,0,0-3-.33,10.89,10.89,0,0,0-1.51.05C22.72,46.43,22.28,46.63,21.9,46.45Z"/><path class="cls-20" d="M49.63,48.74a3.83,3.83,0,0,1,.12-1.42c.66-2.87,2.69-5.24,3.32-8.13.06-.3-.1-1.32.17-1.5s.56.41.65.6a2.84,2.84,0,0,1,0,1.93,22.33,22.33,0,0,1-1.42,3.34c-.52,1.13-1.09,2.55-.69,3.79A2.26,2.26,0,0,1,51.89,49c-.31.63-1.2.64-1.78.42A.8.8,0,0,1,49.63,48.74Z"/><path class="cls-18" d="M38.38,34.13c1.4,1,2.92,1.53,4.36,2.37a32,32,0,0,0,3.19,1.64,13.52,13.52,0,0,0-1.29-3.89,9.54,9.54,0,0,0-4.75-5.09,8.65,8.65,0,0,0-8.42,1.27l-.31.3A20.3,20.3,0,0,1,38.38,34.13Z"/><path class="cls-20" d="M45.08,35.24a1.3,1.3,0,0,1-.7.64A3,3,0,0,1,42,35.35a11.88,11.88,0,0,1-2.55-2,9,9,0,0,1-2.25-3.23,1.91,1.91,0,0,1,.1-1.49,8.25,8.25,0,0,0-5.78,1.82l-.31.3a20.3,20.3,0,0,1,7.22,3.4c1.4,1,2.92,1.53,4.36,2.37a32,32,0,0,0,3.19,1.64A10.69,10.69,0,0,0,45.08,35.24Z"/><path class="cls-23" d="M41.44,33.89a4.21,4.21,0,0,0,1.8.76c1.27,0,.08-1.75-.27-2.25a9.32,9.32,0,0,0-3.17-2.85c-1.34-.72-1.06.53-.76,1.39A5.45,5.45,0,0,0,41.44,33.89Z"/><path class="cls-24" d="M58.64,38.49a17,17,0,0,0-3.17-2.21,22,22,0,0,1-2-1.2c-1.19-.89-1.74-2.33-3.28-2.83a14.08,14.08,0,0,0-4-.54,14.51,14.51,0,0,0-2.9.34s0,.1.07.09a12.48,12.48,0,0,1,3.08-.28,8.55,8.55,0,0,1,3.22.64c1.65.72,2,2.1,2.57,3.83a5.94,5.94,0,0,1,.41,2.39c-.32,1.81-3.92.64-4.93.22a40.22,40.22,0,0,1-5-2.44c-1.44-.84-3-1.39-4.36-2.37-3.35-2.34-8.19-4.76-12.33-3C23.93,32,22.2,34,20.83,35.76A38.21,38.21,0,0,0,16.05,44a10.83,10.83,0,0,0-.94,3.48c-.07,1,.35,1.41,1,1.46v-.08a6.78,6.78,0,0,1,.34-2.09c.32-.91.64-1.83,1-2.73.46-1.14,1.12-2.14,1.68-3.23,1.51-3,3.87-6.49,7-7.88,5.9-2.58,11.28,2.61,16,5.44,2.1,1.27,4.58,2.74,7,3.06.66.09,2.34.57,2.82,0A5.73,5.73,0,0,0,53,38.63a4.12,4.12,0,0,0-.12-1.44c-.09-.36-.22-1-.28-1.25a12.48,12.48,0,0,1,2.8,1.75,10.36,10.36,0,0,1,2.93,2.82,2.32,2.32,0,0,1,.35.66.32.32,0,0,1,0,.14,4,4,0,0,0,.67-.58C59.88,40.08,59.17,39,58.64,38.49Z"/><path class="cls-25" d="M58.64,38.49a17,17,0,0,0-3.17-2.21,22,22,0,0,1-2-1.2c-1.19-.89-1.74-2.33-3.28-2.83a14.08,14.08,0,0,0-4-.54,14.51,14.51,0,0,0-2.9.34.35.35,0,0,0,.07.09,13.15,13.15,0,0,1,3-.28,10.58,10.58,0,0,1,3.64.61c1.64.71,1.68,2.13,2.23,3.86a6,6,0,0,1,.41,2.39c-.32,1.81-3.92.64-4.93.22a40.22,40.22,0,0,1-5-2.44c-1.44-.84-3-1.39-4.36-2.37-3.35-2.34-8.19-4.76-12.33-3C23.93,32,22.2,34,20.83,35.76A38.21,38.21,0,0,0,16.05,44a11.42,11.42,0,0,0-.94,3.38s.05,0,.14-.05l.22-.13a4,4,0,0,0,.44-.46A9.31,9.31,0,0,0,17,44.76c.54-1.27.91-2.61,1.47-3.88a17.63,17.63,0,0,1,7-8.26,9.49,9.49,0,0,1,5-1.36A11,11,0,0,1,35,32.53c2.95,1.46,5.41,3.71,8.23,5.38A17.4,17.4,0,0,0,48.39,40a6.77,6.77,0,0,0,4.49-.51,6,6,0,0,0,.15-.84,4.12,4.12,0,0,0-.12-1.44c-.09-.36-.28-1.25-.28-1.25a7.53,7.53,0,0,1,2.1,1.25.8.8,0,0,1,.36.06c1.45.66,3,1.06,4.18,2.25.07.07.13.15.19.22A3.54,3.54,0,0,0,58.64,38.49Z"/><path class="cls-23" d="M48.69,47.84a1.76,1.76,0,0,0,.67,1.61c-.62.49-2.47.21-3.18.15A9.6,9.6,0,0,1,44,49.11c-.4-.12-.88-.14-.59-.53s1.61-.13,1.68-.8c0-.33-.48-.67-.68-.85a15.5,15.5,0,0,1-3.8-4.76c-1.46-2.8-2.84-6-6-7.14a12,12,0,0,0-5.71-.36c-.95.13-1.9.32-2.85.52-.33.06-2,.63-2.26.28-.39-.58,2-2,2.4-2.23a7.68,7.68,0,0,1,5.28-.35,20.48,20.48,0,0,1,4.36,2c3.34,2,6.21,4.81,9.78,6.45a9.71,9.71,0,0,0,5.28,1.23C50.25,44.43,49,45.84,48.69,47.84Z"/><path class="cls-26" d="M39.21,34.45c-.54.12-.73.78-.79,1.25-.23,1.63-.2,3.27-.27,4.9-.06,1.18-.09,2.37-.11,3.56v.18a.53.53,0,0,0-.28.23c-.28.52-.34,1.34.29,1.61,0,.52,0,1,.05,1.54a27.59,27.59,0,0,1,.1,3.4c-.35.1-.41.82,0,.87-.05.18-.08.41-.12.61s-.34,1-.06,1.12a2.31,2.31,0,0,0,.25-.65c0,.19,0,.51.25.56.08-.11,0-.27.06-.4,0,.2.16.55.39.56.07-.17-.07-.37,0-.55,0,.13.07.29.21.34.45-.36-.41-1.28-.58-1.62.26,0,.28-.4.21-.58a1,1,0,0,0-.37-.35,4.94,4.94,0,0,0,0-1.33V48.21l0-2a.76.76,0,0,0,.35-.36l0,0s0-.05,0-.08a1.51,1.51,0,0,0,0-.94.63.63,0,0,0-.41-.44c0-2.2.12-4.39.27-6.58.05-.62.09-1.24.15-1.86,0-.31.06-.76.37-.93a1.06,1.06,0,0,1,.66,0s0,0,0,0a.61.61,0,0,0-.65-.54Z"/><path class="cls-27" d="M38.88,35.88c0-.31.06-.76.37-.93a1,1,0,0,1,.65,0,.7.7,0,0,0-.23-.41.78.78,0,0,0-.61.36,4.71,4.71,0,0,0-.38,1.82c-.17,1.48-.21,3-.25,4.43a.67.67,0,0,1-.33.58q0,1.2-.06,2.4h0a1,1,0,0,1,.41.87A1.56,1.56,0,0,1,38,46l-.12.1.18.1c0,.52,0,1,.05,1.54a28.7,28.7,0,0,1,.11,3.21h0a.44.44,0,0,1,.15.23.55.55,0,0,1,.07.28v0l0,.2v0a.67.67,0,0,1-.09.21,3.11,3.11,0,0,1,.51,1.81.33.33,0,0,0,.16.07c.07-.17-.07-.37,0-.55,0,.13.07.29.21.34.45-.36-.41-1.28-.58-1.62.26,0,.28-.4.21-.58a1,1,0,0,0-.37-.35,4.94,4.94,0,0,0,0-1.33V48.21l0-2a.76.76,0,0,0,.35-.36l0,0s0-.05,0-.08a1.51,1.51,0,0,0,0-.94.63.63,0,0,0-.41-.44c0-2.2.12-4.39.27-6.58C38.78,37.12,38.82,36.5,38.88,35.88Z"/><path class="cls-28" d="M38.72,42.65a.57.57,0,0,0-.79,0c-.57.45-.7,2,.25,2.13.45.05.69-.32.81-.71A1.38,1.38,0,0,0,38.72,42.65Z"/><path class="cls-29" d="M38.81,46.49a.67.67,0,0,0-.65-.41c-.87,0-.74,1.67.07,1.72S39.08,47,38.81,46.49Z"/><path class="cls-30" d="M38.76,50.6a.45.45,0,0,0-.49-.35.45.45,0,0,0-.42.44v.11a.53.53,0,0,0,0,.25.46.46,0,0,0,.2.29.48.48,0,0,0,.63-.15A.72.72,0,0,0,38.76,50.6Z"/><path class="cls-31" d="M39,43a1.25,1.25,0,0,1,0,.38.9.9,0,0,1-.23.43.93.93,0,0,1-.7.29A1,1,0,0,1,37.6,44L37.49,44a.82.82,0,0,0,.69.81c.45.05.69-.32.81-.71A1.46,1.46,0,0,0,39,43Z"/><path class="cls-32" d="M38.81,46.49a.8.8,0,0,0-.15-.21.63.63,0,0,1,0,.23.57.57,0,0,1,0,.18.71.71,0,0,1-.21.51.74.74,0,0,1-.51.21,1,1,0,0,1-.28,0,.67.67,0,0,0,.57.44C38.92,47.85,39.08,47,38.81,46.49Z"/><path class="cls-20" d="M36.17,46.83c.07.32.15.78-.05,1s-.83-.09-1.12-.15-.83-.14-1.25-.23c-2-.4-4.07-.69-6.1-.92a20.69,20.69,0,0,0-3.15,0c-.54,0-1.75.23-2.2-.21-.72-.69,0-2.18.4-2.88a19.5,19.5,0,0,1,2.12-3c.92-1.16,2.41-3.07,4.07-3A5,5,0,0,1,32,39.1,15.18,15.18,0,0,1,34.64,43a20,20,0,0,1,1.47,3.66A1.67,1.67,0,0,1,36.17,46.83Z"/><g class="cls-33"><path class="cls-14" d="M14.75,40a8.08,8.08,0,0,1-4.76.3,7.85,7.85,0,0,1-1.52-.85,3.59,3.59,0,0,1-1.41-1.24,5.5,5.5,0,0,0,2.15.86c.36,0,1.79,0,2-.31-.14.27-.19.84.08,1.05.43.32.66-.37.92-.63a.47.47,0,0,0,.13.58c.35.19.45-.22.55-.45,0,.63.68.33.94.12.45-.37.72-.92,1.18-1.3,0,.46.43,1.05.23,1.53C15.09,39.93,15,39.92,14.75,40Z"/></g><g class="cls-33"><path class="cls-14" d="M19.7,37a14.41,14.41,0,0,0,1.77-2.74,9.63,9.63,0,0,1-3.57,2c-1.17.29-.33,1.46.22,1.91a5.32,5.32,0,0,0-.44-1.44c.37.22,1.15.75,1.58.68C19.45,37.3,19.57,37.13,19.7,37Z"/></g><path class="cls-34" d="M44.56,68.46c3.61-1.23,3.66-7,2.64-10a3.25,3.25,0,0,0-2.38-2.32c-2-.32-3.51,2.11-4,3.78a10.21,10.21,0,0,0,.23,6.53C41.67,68,42.83,69.05,44.56,68.46Z"/><path class="cls-34" d="M55,59.64c.3,2,.31,4.53-1.34,6a2.92,2.92,0,0,1-4.49-1c-1.26-2.22-2-9.5,2-9.47A3.3,3.3,0,0,1,54.11,57,7.49,7.49,0,0,1,55,59.64Z"/><path class="cls-35" d="M49.1,75.4a1.78,1.78,0,0,0-1,2.4,14.42,14.42,0,0,1,.57,1.91A13.82,13.82,0,0,0,49,81.14c.78,2.47,4,0,2.51-1-.42.3.13.73-.36,1.08s-.9-.25-.88-.75c.05-1,1.19-1.81,1.46-2.76C52.29,75.55,50.39,74.86,49.1,75.4Z"/><path class="cls-36" d="M42.52,70.2s8.34.29,11.59-2.76c0,0,.37,5.56-4.18,7.12S42.52,70.2,42.52,70.2Z"/><path class="cls-37" d="M48.17,72.75A8.15,8.15,0,0,0,43.66,72c1.24,1.6,3.42,3.54,6.27,2.57l.55-.22A11.43,11.43,0,0,0,48.17,72.75Z"/><path class="cls-34" d="M50.88,73.08a12.63,12.63,0,0,1-5.36.75,4.73,4.73,0,0,0,4.41.73,5.78,5.78,0,0,0,1.82-1A4.87,4.87,0,0,0,50.88,73.08Z"/><path class="cls-34" d="M52.25,71a8.12,8.12,0,0,0,.79-2.8c-3.71,2.21-10.52,2-10.52,2a11.09,11.09,0,0,0,.79,1.32,20.41,20.41,0,0,0,4.87.28A14.8,14.8,0,0,0,52.25,71Z"/><path class="cls-38" d="M44.51,67.39c-1.56.52-2.6-.43-3.15-1.8a8.41,8.41,0,0,1-.59-2.83,8.82,8.82,0,0,0,.59,3.58c.55,1.37,1.59,2.32,3.15,1.79,2.25-.77,3-3.5,2.89-6C47.32,64.4,46.54,66.69,44.51,67.39Z"/><path class="cls-38" d="M53.52,64.6a2.67,2.67,0,0,1-4.12-.94,9.57,9.57,0,0,1-.89-3.95,10.25,10.25,0,0,0,.89,4.72,2.68,2.68,0,0,0,4.12.93,4.94,4.94,0,0,0,1.37-4.09A4.53,4.53,0,0,1,53.52,64.6Z"/><path class="cls-35" d="M48.65,68.3a1.3,1.3,0,0,0-.58-1.25,4.37,4.37,0,0,0-3.73-.68,21.19,21.19,0,0,0-3.52,1.45c-.86.36-2.22,1-3.19.86-1.72-.33-1.4-3,.21-3.24.55-.08,1,.31.73.87-.14.29-.45.34-.65.52.55.38,1.3-.22,1.35-.83.08-1-1.1-1.31-1.91-1.17-1.75.3-2.47,2.46-2.3,4,.39,3.81,6,2.44,8.31,1.62a30.44,30.44,0,0,1,4.06-1.3A1.46,1.46,0,0,0,48.65,68.3Z"/><path class="cls-35" d="M62.12,64.19a3.42,3.42,0,0,1-2.81,3.41c-1.6.31-3.28.12-4.89.36-1.22.19-3.58,1-4.74.3s.14-2,.69-2.55a5.38,5.38,0,0,1,3.2-1.37,12.81,12.81,0,0,1,4,.35c.86.22,2.66.8,3.36-.07.51-.64.25-2-.64-2s-1.06.75-.42,1.22c-.52.46-.94-.19-.86-.69a1.34,1.34,0,0,1,1.87-.87A2.43,2.43,0,0,1,62.12,64.19Z"/><path class="cls-39" d="M48.07,67.05a3.47,3.47,0,0,0-1.74-.76A1.35,1.35,0,0,1,46.45,68a5.11,5.11,0,0,1-2.59,1.72,9.07,9.07,0,0,1-3.22.53,5.61,5.61,0,0,1-2.41-.54,1.68,1.68,0,0,1-1-1.18,1.72,1.72,0,0,1,.57-3.12c.55-.08,1,.31.73.87-.14.29-.45.34-.65.52.55.38,1.3-.22,1.35-.83a1,1,0,0,0-.22-.71h0a2,2,0,0,0-2.33.53,2.21,2.21,0,0,1-1.35.85,4.84,4.84,0,0,0-.3,2.2c.39,3.81,6,2.44,8.31,1.62a30.44,30.44,0,0,1,4.06-1.3,1.46,1.46,0,0,0,1.22-.89A1.3,1.3,0,0,0,48.07,67.05Z"/><path class="cls-39" d="M62.06,64.81c-.45-.3-.54-1.05-.7-1.52A1.57,1.57,0,0,0,60,62.2h-.07a1.15,1.15,0,0,0-.86.92c-.08.5.34,1.15.86.69-.64-.47-.45-1.29.42-1.22s1.15,1.4.64,2-2,.42-3,.18A1.08,1.08,0,0,1,58,66.32a3.77,3.77,0,0,1-2.69.74,21.09,21.09,0,0,1-3.36.3,1.79,1.79,0,0,1-1.78-1.27s0-.09,0-.13c-.59.62-1.36,1.75-.45,2.3,1.16.69,3.52-.11,4.74-.3,1.61-.24,3.29,0,4.89-.36a3.58,3.58,0,0,0,2.79-2.76Z"/><path class="cls-35" d="M43.18,54.94c1.71-1,3.17.92,1.53,2.13-.44.33-3.94,1.07-3.82,1.73C40.6,57.21,41.85,55.69,43.18,54.94Z"/><path class="cls-35" d="M49.77,55.64c-.63,0-.64-.93-.48-1.37.39-1,1.11-1.06,2.07-.93a3.63,3.63,0,0,1,3.1,3C53.69,55.16,51,55.62,49.77,55.64Z"/><path class="cls-39" d="M45.2,55.2a1.1,1.1,0,0,1-.34.81,4.48,4.48,0,0,1-2.48,1.17,1.32,1.32,0,0,1-1.11-.36,2.92,2.92,0,0,0-.38,2c-.12-.66,3.38-1.4,3.82-1.73A1.3,1.3,0,0,0,45.2,55.2Z"/><path class="cls-39" d="M53.19,54.13a1,1,0,0,1-.64.85,4.1,4.1,0,0,1-1.81.23,1.46,1.46,0,0,1-1.42-1l0,.05c-.16.44-.15,1.35.48,1.37,1.24,0,3.92-.48,4.69.66A4.09,4.09,0,0,0,53.19,54.13Z"/><path class="cls-40" d="M45.49,60.05a2.21,2.21,0,1,1-3,1A2.22,2.22,0,0,1,45.49,60.05Z"/><path class="cls-41" d="M45.16,60.74a1.45,1.45,0,1,1-1.94.68A1.44,1.44,0,0,1,45.16,60.74Z"/><path class="cls-34" d="M46.38,61.07h0l-.06-.15a.34.34,0,0,0-.09-.12l-.11-.09-.06,0-.07,0h-.14l-.16,0h0l-.09,0a.34.34,0,0,0-.16.1l-.1.12-.06.13a.53.53,0,0,0,0,.22.28.28,0,0,0,0,.15.45.45,0,0,0,.11.19l.11.09a.84.84,0,0,0,.14.06.34.34,0,0,0,.22,0,.27.27,0,0,0,.15,0,.39.39,0,0,0,.19-.12l.09-.11a.83.83,0,0,0,.07-.13A.61.61,0,0,0,46.38,61.07Z"/><path class="cls-34" d="M44.2,60.65a.39.39,0,0,0-.08-.14l-.06,0a.42.42,0,0,0-.15,0,.16.16,0,0,0-.12,0,.24.24,0,0,0-.11.06.21.21,0,0,0-.06.1.21.21,0,0,0,0,.11v.08a.36.36,0,0,0,.08.15l.06.05a.28.28,0,0,0,.15,0A.17.17,0,0,0,44,61a.24.24,0,0,0,.11-.06.21.21,0,0,0,.06-.1.2.2,0,0,0,0-.11Z"/><path class="cls-34" d="M44.19,62.93a.71.71,0,0,0-.32-.45.58.58,0,0,0-.26-.09.45.45,0,0,0-.28,0,.67.67,0,0,0-.33.18.58.58,0,0,0-.19.31h0l0,.18a.52.52,0,0,0,0,.28.56.56,0,0,0,.09.17.52.52,0,0,0,.2.19l.16.07.18,0a.52.52,0,0,0,.28-.06.45.45,0,0,0,.24-.14h0a.75.75,0,0,0,.21-.68Z"/><path class="cls-34" d="M44.86,63.5a.24.24,0,0,0-.06-.11l0,0a.21.21,0,0,0-.12,0l-.09,0a.26.26,0,0,0-.09.05.22.22,0,0,0-.05.08.14.14,0,0,0,0,.09.13.13,0,0,1,0,.06.27.27,0,0,0,.06.12l.05,0,.12,0,.1,0,.08,0a.14.14,0,0,0,.05-.08.16.16,0,0,0,0-.09A.2.2,0,0,0,44.86,63.5Z"/><path class="cls-42" d="M52.29,59.39a2.21,2.21,0,1,1-2.95,1A2.21,2.21,0,0,1,52.29,59.39Z"/><path class="cls-41" d="M52,60.07a1.45,1.45,0,1,1-1.93.68A1.45,1.45,0,0,1,52,60.07Z"/><path class="cls-34" d="M53.18,60.4h0l0-.15a.47.47,0,0,0-.09-.12L52.93,60l-.07,0-.06,0h-.15l-.15,0h0l-.09,0a.42.42,0,0,0-.17.1l-.09.11-.06.14a.42.42,0,0,0,0,.22.37.37,0,0,0,0,.15.47.47,0,0,0,.12.19.52.52,0,0,1,.11.1.84.84,0,0,1,.14.06.53.53,0,0,0,.22,0,.42.42,0,0,0,.15,0A.52.52,0,0,0,53,61l.09-.12.06-.13A.51.51,0,0,0,53.18,60.4Z"/><path class="cls-34" d="M51,60a.28.28,0,0,0-.08-.15l-.05-.05a.42.42,0,0,0-.16,0,.17.17,0,0,0-.12,0,.21.21,0,0,0-.1.06.36.36,0,0,0-.07.1.2.2,0,0,0,0,.11v.09a.29.29,0,0,0,.08.14l.06,0a.24.24,0,0,0,.15,0,.17.17,0,0,0,.12,0,.21.21,0,0,0,.1-.06.23.23,0,0,0,.07-.1.2.2,0,0,0,0-.11Z"/><path class="cls-34" d="M51,62.26a.77.77,0,0,0-.32-.45.62.62,0,0,0-.26-.09.53.53,0,0,0-.28,0,.67.67,0,0,0-.33.18.64.64,0,0,0-.2.31h0l0,.18a.52.52,0,0,0,.05.28.28.28,0,0,0,.09.17.58.58,0,0,0,.19.19l.17.08.18,0a.66.66,0,0,0,.28,0,.61.61,0,0,0,.24-.15h0a.63.63,0,0,0,.19-.31A.66.66,0,0,0,51,62.26Z"/><path class="cls-34" d="M51.67,62.84a.23.23,0,0,0-.06-.12l0,0-.12,0-.1,0-.08.05a.14.14,0,0,0,0,.08.16.16,0,0,0,0,.09.17.17,0,0,0,0,.07.24.24,0,0,0,.06.11l0,0a.21.21,0,0,0,.12,0,.18.18,0,0,0,.1,0,.18.18,0,0,0,.08,0,.22.22,0,0,0,0-.08s0-.06,0-.09A.13.13,0,0,1,51.67,62.84Z"/><path class="cls-43" d="M46,96.67c-.69.3-1.35.55-2,.77-.15.42-.26.81-.35,1.11a26.88,26.88,0,0,0-.74,5.42,40.55,40.55,0,0,0-.21,5.93.09.09,0,0,0,.18,0,49.47,49.47,0,0,1,1.23-6.51c.64-2.1,1.47-4.13,2.21-6.19.09-.23.21-.55.31-.88C46.33,96.48,46.11,96.61,46,96.67Z"/><path class="cls-43" d="M30.85,98.51s0,0,0,0a26.9,26.9,0,0,0-.75,5.42,42,42,0,0,0-.2,5.93.09.09,0,1,0,.18,0,49.44,49.44,0,0,1,1.22-6.51c.47-1.55,1.05-3.06,1.62-4.57Z"/><path class="cls-44" d="M31.11,102.57c-1,.05-2.49,0-3.29.6-.64.46-.85,1.71-1,2.44-.13.57-.62,1.59-.28,2s1.95,0,2.45-.1a21.16,21.16,0,0,1,2.87-.45c.64,0,1.64.19,2.11-.3s.32-3.59-.33-4.14-1.66-.09-2.34,0Z"/><path class="cls-44" d="M34,112.63c-1.33-.15-2.36.71-3.54,1a12.7,12.7,0,0,1,.5-3.06,13.81,13.81,0,0,1,.78-2.76c.1-.23.3-.51.46-.79h-.31a21.16,21.16,0,0,0-2.87.45c-.27,0-.81.2-1.33.28a9.14,9.14,0,0,1,0,1.57c-.14,1.45-.08,2.91-.17,4.36,0,.43-.27,1.48.12,1.78s1.5.07,2,0c-.1-.27,0-.78.32-.79s.3.35.41.46c.58.62,2.09.47,2.93.47s2.32-.06,2.51-1.15S34.8,112.73,34,112.63Z"/><path class="cls-45" d="M35.22,113.25c0,.57-.71,1.08-1.27,1.23a7.85,7.85,0,0,1-2.6-.1,6.73,6.73,0,0,1-2-.19c-1.59-.56-1.07-2.48-.61-3.69.51-1.36,1.45-2.69,3-2.82.11-.19.26-.4.38-.62h-.31a21.16,21.16,0,0,0-2.87.45c-.27,0-.81.2-1.33.28a9.14,9.14,0,0,1,0,1.57c-.14,1.45-.08,2.91-.17,4.36,0,.43-.27,1.48.12,1.78s1.5.07,2,0c-.1-.27,0-.78.32-.79s.3.35.41.46c.58.62,2.09.47,2.93.47s2.32-.06,2.51-1.15A1.4,1.4,0,0,0,35.22,113.25Z"/><path class="cls-45" d="M27.67,108.87a25.8,25.8,0,0,1,4.17-1.3l.31-.51h-.31a21.16,21.16,0,0,0-2.87.45c-.27,0-.81.2-1.33.28A9.78,9.78,0,0,1,27.67,108.87Z"/><path class="cls-46" d="M31.93,114.59c-.66,0-1.31,0-2,0a11.83,11.83,0,0,1-2.59.1,1,1,0,0,0,.22.77c.4.31,1.5.07,2,0-.1-.27,0-.78.32-.79s.3.35.41.46c.58.62,2.09.47,2.93.47s2.32-.06,2.51-1.15a1.26,1.26,0,0,0-.21-.93C34.67,114.55,33.1,114.57,31.93,114.59Z"/><path class="cls-47" d="M34,105.33a2.57,2.57,0,0,1-1.68.74c-.45.05-1,0-1.27.09-.82.19-2,.6-2.72,0-.47-.38-.41-.81-.27-1.32a13.64,13.64,0,0,1,.35-1.4,3.18,3.18,0,0,1,.37-.68,2.64,2.64,0,0,0-.95.39c-.64.46-.85,1.71-1,2.44-.13.57-.62,1.59-.28,2s1.95,0,2.45-.1a21.16,21.16,0,0,1,2.87-.45c.64,0,1.64.19,2.11-.3a2.83,2.83,0,0,0,.32-1.81A1.75,1.75,0,0,1,34,105.33Z"/><path class="cls-47" d="M29.41,107c-.95,0-2.3.3-2.56-1a2.59,2.59,0,0,1,0-.48s0,0,0,0c-.13.57-.62,1.59-.28,2s1.95,0,2.45-.1a21.16,21.16,0,0,1,2.87-.45c.64,0,1.64.19,2.11-.3a1.72,1.72,0,0,0,.31-1C33,106.84,31,106.92,29.41,107Z"/><path class="cls-48" d="M33.16,102.74c.42.15.59.5.69,1.13,0,.12,0,1.46-.27,1.36s-.45-.53-.68-.77a2.26,2.26,0,0,0-1.44-.73c-.57,0-1.84.25-2.25-.33s.68-.31,1-.34c.77-.08,1.51-.4,2.29-.41A1.86,1.86,0,0,1,33.16,102.74Z"/><path class="cls-48" d="M30,113.14c.12-.81.37-1.59.56-2.39a6.37,6.37,0,0,1,.62-2.07c-.31.43-.77.71-1.06,1.17a4.13,4.13,0,0,0-.74,1.59A3.2,3.2,0,0,0,30,113.14Z"/><path class="cls-48" d="M31.37,113.72a3.34,3.34,0,0,1,2.29-.91c.28,0,.94.11.88.53s-.55.37-.79.41A10,10,0,0,1,31.37,113.72Z"/><path class="cls-44" d="M43.88,102.57c-1,.05-2.49,0-3.29.6-.64.46-.85,1.71-1,2.44-.13.57-.63,1.59-.29,2s2,0,2.45-.1a21.41,21.41,0,0,1,2.87-.45c.64,0,1.64.19,2.11-.3s.33-3.59-.33-4.14-1.66-.09-2.33,0Z"/><path class="cls-44" d="M46.72,112.63c-1.33-.15-2.36.71-3.54,1a13.22,13.22,0,0,1,.5-3.06,14.5,14.5,0,0,1,.78-2.76,8.12,8.12,0,0,1,.47-.79h-.32a21.41,21.41,0,0,0-2.87.45c-.26,0-.81.2-1.33.28a8.23,8.23,0,0,1,0,1.57c-.13,1.45-.08,2.91-.17,4.36,0,.43-.27,1.48.12,1.78s1.5.07,2,0c-.09-.27,0-.78.32-.79s.3.35.41.46c.59.62,2.1.47,2.94.47s2.31-.06,2.5-1.15S47.57,112.73,46.72,112.63Z"/><path class="cls-45" d="M48,113.25c0,.57-.7,1.08-1.27,1.23a7.78,7.78,0,0,1-2.59-.1,6.7,6.7,0,0,1-2-.19c-1.6-.56-1.08-2.48-.62-3.69.51-1.36,1.45-2.69,3-2.82.11-.19.26-.4.39-.62h-.32a21.41,21.41,0,0,0-2.87.45c-.26,0-.81.2-1.33.28a8.23,8.23,0,0,1,0,1.57c-.13,1.45-.08,2.91-.17,4.36,0,.43-.27,1.48.12,1.78s1.5.07,2,0c-.09-.27,0-.78.32-.79s.3.35.41.46c.59.62,2.1.47,2.94.47s2.31-.06,2.5-1.15A1.4,1.4,0,0,0,48,113.25Z"/><path class="cls-45" d="M40.44,108.87a25.8,25.8,0,0,1,4.17-1.3c.1-.16.22-.34.32-.51h-.32a21.41,21.41,0,0,0-2.87.45c-.26,0-.81.2-1.33.28A9.78,9.78,0,0,1,40.44,108.87Z"/><path class="cls-46" d="M44.7,114.59c-.66,0-1.31,0-2,0a11.83,11.83,0,0,1-2.59.1.94.94,0,0,0,.21.77c.4.31,1.5.07,2,0-.09-.27,0-.78.32-.79s.3.35.41.46c.59.62,2.1.47,2.94.47s2.31-.06,2.5-1.15a1.26,1.26,0,0,0-.21-.93C47.45,114.55,45.87,114.57,44.7,114.59Z"/><path class="cls-47" d="M46.77,105.33a2.62,2.62,0,0,1-1.69.74c-.44.05-1,0-1.27.09-.82.19-2,.6-2.71,0-.48-.38-.41-.81-.27-1.32a13.59,13.59,0,0,1,.34-1.4,3.69,3.69,0,0,1,.37-.68,2.71,2.71,0,0,0-.95.39c-.64.46-.85,1.71-1,2.44-.13.57-.63,1.59-.29,2s2,0,2.45-.1a21.41,21.41,0,0,1,2.87-.45c.64,0,1.64.19,2.11-.3a2.82,2.82,0,0,0,.33-1.81A2.14,2.14,0,0,1,46.77,105.33Z"/><path class="cls-47" d="M42.19,107c-.95,0-2.31.3-2.57-1a2.59,2.59,0,0,1,0-.48v0c-.13.57-.63,1.59-.29,2s2,0,2.45-.1a21.41,21.41,0,0,1,2.87-.45c.64,0,1.64.19,2.11-.3a1.79,1.79,0,0,0,.32-1C45.8,106.84,43.81,106.92,42.19,107Z"/><path class="cls-48" d="M45.94,102.74c.41.15.58.5.68,1.13,0,.12,0,1.46-.27,1.36s-.45-.53-.68-.77a2.23,2.23,0,0,0-1.44-.73c-.57,0-1.84.25-2.25-.33s.68-.31,1-.34c.77-.08,1.51-.4,2.29-.41A1.92,1.92,0,0,1,45.94,102.74Z"/><path class="cls-48" d="M42.72,113.14c.12-.81.37-1.59.57-2.39a6.12,6.12,0,0,1,.61-2.07c-.31.43-.76.71-1,1.17a4,4,0,0,0-.74,1.59A3.19,3.19,0,0,0,42.72,113.14Z"/><path class="cls-48" d="M44.15,113.72a3.32,3.32,0,0,1,2.28-.91c.28,0,.94.11.89.53s-.55.37-.79.41A10,10,0,0,1,44.15,113.72Z"/><path class="cls-43" d="M18.11,83.38c-.38.1-.74.21-1,.27-1.67.33-3.3.78-4.94,1.19C11,85.13,9,85,8.34,86.2a16.19,16.19,0,0,1,2-5c1.06-1.71,2.13-3.38,3.31-5,.76-1,2.2-2.45,2.59-3.7.3-.92-.76-.86-1.38-.64a4.35,4.35,0,0,0-1.71,1.45,22.13,22.13,0,0,0-2.35,3.92,44.32,44.32,0,0,0-3.14,9c-.12.48-.56,1.45-.28,1.9a17.29,17.29,0,0,0,2.45-.43,39.35,39.35,0,0,0,4.08-2.11,13,13,0,0,1,3.6-1.4,7.48,7.48,0,0,0,2.66-.65A2.22,2.22,0,0,0,18.11,83.38Z"/><path class="cls-44" d="M11,86.39c-.31-.91-.54-2.37,0-3.07s1.94-.35,2.73-.27a21.28,21.28,0,0,0,3.48,0,10.53,10.53,0,0,0,3.58-.57c.93-.42,1.67-1.34,2.69-1.54.83-.17,1.86-.27,2.29.46,1.42,2.39-1.14,3.56-3.1,3-.24.54-.89.35-1.32.33a2.66,2.66,0,0,0-1.65.4c-1.29.69-2.53,1.48-3.85,2.13-.83.42-2.29,1.4-3.26,1a2.81,2.81,0,0,1-1.42-1.55C11.05,86.62,11,86.51,11,86.39Z"/><path class="cls-49" d="M25.68,83.54a1.14,1.14,0,0,0,.19-.67,3.28,3.28,0,0,1-.74.27,6.65,6.65,0,0,1-.77,0c-.33,0-.64.33-1,.42a2.7,2.7,0,0,1-1.06,0,2.68,2.68,0,0,0-1.06.33,6.58,6.58,0,0,1-1.17.25,22.22,22.22,0,0,0-2.77.75,10.82,10.82,0,0,1-1.93.53,4,4,0,0,1-1.51,0,1.9,1.9,0,0,1-.12.81.74.74,0,0,1-.91.46c-1.53-.39-1.89-2.53-1.12-3.77a1.15,1.15,0,0,0-.79.44c-.51.7-.28,2.16,0,3.07,0,.12.09.23.14.34a2.81,2.81,0,0,0,1.42,1.55c1,.38,2.43-.6,3.26-1,1.46-.73,2.83-1.59,4.26-2.36a2,2,0,0,1,1.44-.13c.42.08,1,0,1.08-.48a4.38,4.38,0,0,0,2.1,0A2,2,0,0,0,25.68,83.54Z"/><path class="cls-50" d="M24.59,81.67c.11-.34.05-.6-.41-.67a2.85,2.85,0,0,0-2,.8,6,6,0,0,1-1.95,1,16.28,16.28,0,0,1-4.34.48c-.88,0-1.75,0-2.62,0-.42,0-1.12-.13-1.44.15-.72.62-.34,2.64.81,2.53.38-.54.15-1.71.73-1.92.33-.11,1,.33,1.36.39a5.59,5.59,0,0,0,1.91-.13c2-.34,3.95-1.21,6-1.32a2,2,0,0,0,1.87-1.15C24.53,81.81,24.56,81.73,24.59,81.67Z"/><path class="cls-43" d="M63.58,57.53c.12.31.24.63.35.95a9.73,9.73,0,0,1,1.19-1.12,11.8,11.8,0,0,0,2.63-3.31,16.4,16.4,0,0,0,1.34-6.27c.15-2.33.61-4.59.7-6.93a.11.11,0,0,0-.21,0c-.67,3.23-1.85,6.29-2.6,9.51a15.68,15.68,0,0,0-.49,2.79,1.87,1.87,0,0,1-.2,1,9.45,9.45,0,0,1-2,2l-.92.83C63.43,57.13,63.5,57.33,63.58,57.53Z"/><path class="cls-44" d="M67.89,49.16c-.94-.12-2.36-.57-2.76-1.34s.56-1.89,1-2.57a20.5,20.5,0,0,0,1.53-3.12,11.67,11.67,0,0,0,1.28-5.27A2.94,2.94,0,0,1,70,34c.41-.39.88-1.09,1.52-1s1,.79,1.17,1.3A2.72,2.72,0,0,1,72.31,36c-.3.5-.86.65-1.18,1-.46.59.09,1.06-.06,1.74s-.46.79-.44,1.55c0,1.63.2,3.24.2,4.87,0,.94.23,2.68-.54,3.38a2.81,2.81,0,0,1-2,.57Z"/><path class="cls-49" d="M72.67,34.29a2.13,2.13,0,0,0-.44-.84,2.38,2.38,0,0,1-1,1.55,6.59,6.59,0,0,0-.75.65s-.06.18-.07.25a2.62,2.62,0,0,0,0,.79,4.46,4.46,0,0,1,0,1.67c-.14.55-.34,1.08-.49,1.63a20.85,20.85,0,0,0-.56,2.81,11.73,11.73,0,0,1-.39,2,4,4,0,0,1-.7,1.35,1.94,1.94,0,0,1,.68.47.75.75,0,0,1,0,1c-1,1.19-3.11.55-3.87-.68a1.17,1.17,0,0,0,0,.9c.4.77,1.82,1.22,2.76,1.34l.37,0a2.81,2.81,0,0,0,2-.57c.77-.7.54-2.44.54-3.38,0-1.63-.16-3.24-.2-4.87,0-.76.29-.89.44-1.55s-.4-1.15.06-1.74c.32-.4.88-.55,1.18-1A2.72,2.72,0,0,0,72.67,34.29Z"/><path class="cls-50" d="M70.9,33.61a5.23,5.23,0,0,0-1.14,1c-.76.81-.58,1.33-.62,2.4a15.4,15.4,0,0,1-.24,2.14,15.79,15.79,0,0,1-1.51,4.1c-.39.78-.75,1.57-1.17,2.34-.2.36-.61.94-.51,1.35.24.92,2.21,1.49,2.62.41-.3-.58-1.46-.9-1.38-1.51,0-.34.75-.77,1-1.05A5.58,5.58,0,0,0,68.64,43a25.27,25.27,0,0,0,1.06-6c0-.83-.12-1.19.49-1.82.35-.36,1.24-.93,1-1.55C71.19,33.54,71.06,33.54,70.9,33.61Z"/><path class="cls-51" d="M68.94,36.57l-.48-.12c-.22-.08-.77-.21-.9-.41-.36-.55.19-1.71.37-2.26a11.15,11.15,0,0,1,2.22-3.49c.5-.55.75-.72,1.44-.42a5.92,5.92,0,0,1,2.46,2.19A4,4,0,0,1,74.44,35a5.26,5.26,0,0,1-.86,1.84A11.22,11.22,0,0,1,71.82,39c.76.12,1.53,1.16.86,1.83a1.4,1.4,0,0,1-2.09-.49,2.64,2.64,0,0,1,0-2.23c.19-.46.76-1.22.53-1.74C70.74,36.78,69.67,36.72,68.94,36.57Z"/><path class="cls-52" d="M61.39,0s8,18.34,8.76,30.27a2.16,2.16,0,0,0,2.2,0s3.13-17,.76-22.88C69.79-.75,61.39,0,61.39,0Z"/><path class="cls-53" d="M62.37,2.35c1.75,4.3,5.4,13.85,7,22.3a72.06,72.06,0,0,0-2.87-13.13A31.28,31.28,0,0,0,62.37,2.35Z"/><path class="cls-54" d="M73.11,7.41A11.44,11.44,0,0,0,64,.18a13,13,0,0,1,4.89,3.9c3.32,4.33,3.89,10.22,3.89,15.49,0,3.63-.37,7.23-.68,10.83a1.06,1.06,0,0,0,.21-.11S75.48,13.26,73.11,7.41Z"/><path class="cls-55" d="M71.37,36.26a.85.85,0,0,0-.21.14c.17.53-.36,1.25-.55,1.69a2.64,2.64,0,0,0,0,2.23,1.4,1.4,0,0,0,2.09.49,1,1,0,0,0-.18-1.48c0,.55-.17,1.21-.89,1.08-.48-.08-.72-.69-.74-1.12-.06-1.34,1.25-1.93,2-2.78a3.18,3.18,0,0,0,.68-1.76C72.79,35.18,72.26,36,71.37,36.26Z"/><path class="cls-56" d="M70,31c-.94.9-3.42,4.69-1.44,5a5.66,5.66,0,0,0,3.61-.89c.36-.22,1.67-1.22,1.43-1.7-.49.22-1,.75-1.56.35s.14-1.4.46-1.88c.47-.71.33-1.21-.55-1.07-.36.05-.7.19-1.06.22-.06,0-.79-.1-.73-.15Z"/><path class="cls-56" d="M74,34.79c0-.09.07-.18.11-.28a4.58,4.58,0,0,1-1,2.71c-.22.31-1.22,1.84-1.6,1.79a1,1,0,0,1,.61.39c.28.45-1,.83-1-.25,0-.88,1.16-1.34,1.65-1.94A8.89,8.89,0,0,0,74,34.79Z"/><path class="cls-55" d="M72.91,40.06a1.21,1.21,0,0,1-2.3-.44,2.82,2.82,0,0,1,.83-2.13,6,6,0,0,0,1.16-2,3.84,3.84,0,0,1-1.23.78.85.85,0,0,0-.21.14c.17.53-.36,1.25-.55,1.69a2.64,2.64,0,0,0,0,2.23,1.4,1.4,0,0,0,2.09.49A.94.94,0,0,0,72.91,40.06Z"/><path class="cls-56" d="M69.37,32.23a4.44,4.44,0,0,0-1.23,2.47c-.15,1.58,1.67.3,2.07-.41s.44-2.28-.67-2.12A.49.49,0,0,0,69.37,32.23Z"/><path class="cls-57" d="M73.9,17.39c0-.5,0-1,.07-1.49-.24.47-.49.92-.76,1.36a12.11,12.11,0,0,1-2.67,3.12,5.42,5.42,0,0,1-1.84,1.06c.27,1.1.51,2.21.71,3.29A24.53,24.53,0,0,1,73.9,17.39Z"/><path class="cls-57" d="M71.41,9.82a13.91,13.91,0,0,1,1.85-2l-.15-.43a12,12,0,0,0-2.83-4.23l-.06.5c-.28,2.33-.77,4.83-2.34,6.66a3,3,0,0,1-2.09,1.2c.61,1.79,1.22,3.69,1.78,5.63A22.37,22.37,0,0,1,71.41,9.82Z"/></g></g></g></svg>