<svg xmlns="http://www.w3.org/2000/svg" xmlns:xlink="http://www.w3.org/1999/xlink" viewBox="0 0 1623.26 1372.65"><defs><style>.cls-1{isolation:isolate;}.cls-2{fill:#402501;}.cls-10,.cls-11,.cls-15,.cls-18,.cls-21,.cls-26,.cls-29,.cls-3,.cls-34,.cls-36,.cls-43,.cls-46,.cls-5,.cls-52,.cls-56,.cls-57{mix-blend-mode:multiply;}.cls-3{opacity:0.6;}.cls-4,.cls-5{fill:#814001;}.cls-5{opacity:0.39;}.cls-6{fill:#843407;}.cls-7{fill:#2f1c00;}.cls-11,.cls-8{fill:#592800;}.cls-10,.cls-13,.cls-15,.cls-16,.cls-9{fill:#a15c19;}.cls-10,.cls-13{opacity:0.35;}.cls-11{opacity:0.5;}.cls-12{fill:#4a1d19;}.cls-13,.cls-16,.cls-27,.cls-33,.cls-41,.cls-44,.cls-49,.cls-53,.cls-61{mix-blend-mode:screen;}.cls-14{fill:#744100;}.cls-15,.cls-16{opacity:0.31;}.cls-17{fill:#ffd382;}.cls-18{fill:#ffa553;opacity:0.63;}.cls-19{fill:#93a602;}.cls-20,.cls-21{fill:#596300;}.cls-21{opacity:0.25;}.cls-22{fill:#a44416;}.cls-23{fill:#ffdf01;}.cls-24{fill:#d03002;}.cls-25,.cls-26,.cls-56{fill:#ffc559;}.cls-26,.cls-53,.cls-57{opacity:0.41;}.cls-27{fill:#ffeb9a;opacity:0.34;}.cls-28{fill:#8b0001;}.cls-29{fill:#df0001;}.cls-30{fill:#e40001;}.cls-31{fill:#a90001;}.cls-32{fill:#f00001;}.cls-33{fill:#e52f30;}.cls-34{fill:#d10001;}.cls-35,.cls-36{fill:#814700;}.cls-36{opacity:0.45;}.cls-37{fill:#ffd919;}.cls-38{fill:#fff;}.cls-39{fill:#c9c9c9;}.cls-40{fill:#e3e3e3;}.cls-41{fill:#ececec;opacity:0.54;}.cls-42,.cls-44{fill:#ffcc27;}.cls-43{fill:#e9cc27;opacity:0.68;}.cls-44{opacity:0.36;}.cls-45{fill:#703619;}.cls-46{fill:#684519;opacity:0.59;}.cls-47,.cls-49{fill:#634319;}.cls-48{fill:#482d00;}.cls-50{fill:#010101;}.cls-51{fill:#171717;}.cls-52{fill:#323232;opacity:0.64;}.cls-53{fill:#3f3f3f;}.cls-54{fill:#630000;}.cls-55,.cls-57,.cls-61{fill:#ac4700;}.cls-56{opacity:0.87;}.cls-58{fill:#efefef;}.cls-59{fill:url(#Безымянный_градиент_60);}.cls-60{fill:#521b07;}.cls-61{opacity:0.32;}.cls-62{fill:url(#Безымянный_градиент_60-2);}</style><linearGradient id="Безымянный_градиент_60" x1="1802.18" y1="1032.39" x2="1807.16" y2="1077.71" gradientTransform="matrix(-0.6, 0.8, 0.8, 0.6, 987.36, -1549.77)" gradientUnits="userSpaceOnUse"><stop offset="0" stop-color="#d9930e"/><stop offset="1" stop-color="#a44416"/></linearGradient><linearGradient id="Безымянный_градиент_60-2" x1="1756.84" y1="1091.09" x2="1761.37" y2="1132.26" xlink:href="#Безымянный_градиент_60"/></defs><g class="cls-1"><g id="Слой_2" data-name="Слой 2"><g id="_Layer_" data-name="&lt;Layer&gt;"><path class="cls-2" d="M668.54,1271.58c28-1.14,54.14-6.58,78.41-20.71,14.37-8.4,24.95-19.53,40.58-24.18s34.39-6.37,50.69-7.82c33.72-3,65,3.55,91.47,25.72,6.06-16,16.37-30.13,23.79-45.73,30-63.27,25.83-129.27,28.47-196.82,1.09-28,2.84-71.41-22.32-89.6-56.74-41-150.6-40.36-216.78-43.23-46.85-2-93.77-2.6-140.62-3.89-17.29-.46-37.83,1.3-54.24-5-40.59-15.42-19.91-59.59-29.13-90.92-21.38,21.54-50,36.84-68.93,62.23-33.65,45.11-26.4,116.86-21.89,169.14,4.73,55,50.82,231.52-53.9,228,21.74,32.91,52.21,49.09,92.92,54.6,34.08,4.61,63.55-14.88,95.6-22.15C598.75,1253,631.55,1273.09,668.54,1271.58Z"/><g class="cls-3"><path class="cls-2" d="M927.9,1206.71l13.73-34.3a.87.87,0,0,0,.18-.11C938.06,1183.83,934.68,1197.2,927.9,1206.71Z"/><path class="cls-2" d="M448,968.11c12.57-60.77,60-89.84,116.34-103.92,12.57,1.56,26,.82,37.94,1.13,46.85,1.29,93.77,1.85,140.62,3.89,66.18,2.87,160,2.19,216.78,43.23C984.79,930.63,983,974.07,982,1002c-1.22,31.72-1,63.07-3.44,94-.73,2.36-1.45,4.69-2.2,7a310.25,310.25,0,0,1-19.3,46c-4.08,8-7.08,18.66-15.2,23.31.24-.71.47-1.41.71-2.11l-.89,2.22a5.05,5.05,0,0,1-.51.28,12,12,0,0,1,3.55-8.58c9.79-27.47,15.75-54.89,17-84.18,1.08-24.64,2.47-73.78-29.79-81-17.72-4-39.44,12-51.54,23.25-3.9,3.64-19.41,25.68-24.05,26-5.33.4-2.73-3-6.94-5.78-20-13.35-44.39-14.81-68.23-14-27.13,1-63.63,2.24-88.63,13.48-11.15,5-19.41,15.19-23.29,26.89-4.91,14.74,5.17,39.63-2.69,52.09-7.94,12.63-17.07-2.78-23.59-9.93-15.13-16.48-32.78-29.47-54.41-35.94-27.82-8.27-61.78-12.79-72.73,20.85-7,21.43-3.75,49.13-2.11,71.24,1.05,14.25,2.22,28.47,4.75,42.53,1.66,9.28,9.43,27.64,6.16,36.64-8.29-6.39-11.6-22-16.5-31.15-14-25.94-24.88-53.33-35.26-80.91C454,1084.51,437,1021.24,448,968.11Z"/></g><path class="cls-4" d="M438,876.54c14.22-17.36,49.64-43.78,67-18.29,18.6,27.35-2.95,61.8-13.74,86.92-12.47,29-15.84,60.56-15,92.4,1.3,51.66,16.73,98.69,34.48,146.6,11.07,29.89,22,61,35.51,89.85,10.87,23.36,20.88,44.08,21.26,70.77-48.31-74.09-184-24.87-210.78-123.45,24,7,54.61-20.88,64.87-40.74,25-48.65,1.31-112.4-4.23-162.81C412.13,970.09,405.54,916.22,438,876.54Z"/><path class="cls-5" d="M382.33,1235.15c.11.16,5.31-1.78,5.11-1.68,73.41-27,48.08-133.56,39.63-192.1-2.26-15.64-22.54-162.06,17.24-141.95C465.17,910,473.46,933,467.66,952.17c-20.7,68.45-19.71,131.16,2.88,199.36,9.54,28.85,21.1,56.68,32.69,84.72,6.63,16,16.18,38.36,9.73,55.53-13.56-12.17-39.78-12-57-16.75C431.3,1268.17,397.48,1256,382.33,1235.15Z"/><path class="cls-6" d="M765.83,1282.73c6.12-28.84,12.38-56.76,16.9-85.76,4.18-26.93,9-55.24,22.41-79.33,11.89-21.38,30.82-38.41,39.17-61.82,9.77-27.45,16.69-55,23.64-83.27,1.93-7.73,5.85-29.2,18.83-25,24,7.71-6.2,57.7-11.52,68.57q-21,42.81-40,86.4a1810.47,1810.47,0,0,0-67.53,180.77A1,1,0,0,1,765.83,1282.73Z"/><path class="cls-7" d="M686,1294s12.82,41.6,10.87,43.65-17,14.62-39.28-1.56l10.93-41.4Z"/><path class="cls-8" d="M711,1098s-4.63,68.63-8.24,71-47.18,10.75-55,2.21L634.15,1093Z"/><path class="cls-9" d="M761.51,1341.52c-19-4.76-9.52-52.44-9.37-65.33.25-27.6-.31-55.66,7.26-82.47,4.71-16.7,12.25-29.69,9.66-47.24-.72-4.9-5.33-11.65-1.67-15.88,6.28-7.22,30.6,1.56,36.92,3.77,22.35,7.91,46.41,23.55,57.74,44.56-5.07,4.3-13.22,18.14-18.5,20.63-4.42,2.09-11.81-2.49-17.88.06-28.33,11.86-41.25,72.51-33.9,98.5,2.92,10.27,8.63,20.92,18.9,25.41,7.36,3.2,26.17-2.1,31.18,2.42,5.79,5.22-1.77,12.36-6.1,15.34-10.64,7.32-39.12,8.68-51.73,4.84-3.66-1.09-6.58-5.1-10.31-6S765.78,1342.63,761.51,1341.52Z"/><path class="cls-10" d="M752.14,1276.19c.25-27.6-.31-55.66,7.26-82.47,4.71-16.7,12.25-29.69,9.66-47.24-.72-4.9-5.33-11.65-1.67-15.88,3-3.45,10.18-3.24,17.5-1.85l-.53.55c-13.23,14.33-2.08,31.67,7.21,44.08a73.83,73.83,0,0,1,6.07,8.89,10.85,10.85,0,0,1,.61,1.3c0,.06-.08.16-.13.23-.37-.31-.92-1-.07.11l-.07.08c-.86.52-2.25,2.5-3.06,3.26-3,2.8-6.21,5.17-8.8,8.42-13.67,17.26-14.81,44.29-16.22,65.44-1.38,20.64-.25,44.57,15.33,60.15,14.48,14.49,39.62,21.27,53.1,3.2a7.42,7.42,0,0,1,3.52,1.49c5.79,5.22-1.77,12.36-6.1,15.34-10.64,7.32-39.12,8.68-51.73,4.84-3.66-1.09-6.58-5.1-10.31-6s-7.93,2.5-12.2,1.39C742.46,1336.76,752,1289.08,752.14,1276.19Z"/><path class="cls-11" d="M711,1098s-.48,7.08-1.26,16.79c-13-4.09-28.44-.2-39.51,10.08-12.82,11.88-19.9,30.2-20.51,47.81a7.8,7.8,0,0,1-1.94-1.45L634.15,1093Z"/><path class="cls-12" d="M786.36,1338.29c3.87.81,7.83,1.58,11.67,2.13,15,2.2,32.7.64,43-11.88a16.2,16.2,0,0,0,1.39-1.94c4.56,5.18-2.55,11.83-6.7,14.69-10.64,7.32-39.12,8.68-51.73,4.84-3.38-1-7.66-4-10.76-5.84a34.52,34.52,0,0,0-.21,5.87c-4.23.41-12.69,1.59-16.11-1.27-3.7-3-7.52-16.67-6.53-21.17-.42,1.94,23.74,11.85,26.43,12.46C779.92,1336.89,783.13,1337.62,786.36,1338.29Z"/><path class="cls-13" d="M787.46,1250.64c4.6-6.2,4.37-15.06,6.27-22.26,2-7.62,4.66-15.07,9.37-21.54,5.85-8.11,16.19-15.45,26.68-14.59,8.9.73,12.8,4.16,19.58-3.84,3.73-4.42,7.33-7.36,4.92-12.8-4.6-10.32-18.24-21-27.22-26.84-7.08-4.59-20.25-13.79-29-12.74,2.11,13,19.89,21.23,28.92,28.88,3.49,2.91,14.2,8.14,12,14s-23.25,8.09-29,11c-16.49,8.41-29.21,30.16-26.19,48.84C784.42,1242.8,785.35,1247.1,787.46,1250.64Z"/><path class="cls-14" d="M724.48,1063.94s-1.49,35.78-5.83,38.94-69.55,9.57-88.65-2.3L622.26,1057Z"/><path class="cls-11" d="M678.88,1080.16a222.76,222.76,0,0,0-36.07,10.36c-4.5,1.74-9.16,3.55-13.58,5.78l-7-39.29,102.22,6.93s-.29,6.94-1,15C709.25,1074.85,690.25,1077.92,678.88,1080.16Z"/><path class="cls-9" d="M744.53,990.2c0,.23-6.68,73.2-12.46,77.15s-112,14.7-120.73-4.69c-1.64-3.64-8.46-78.52-8.46-78.52S745.72,981.87,744.53,990.2Z"/><path class="cls-8" d="M690,1172.3c0,28.11-.49,120.85-4,121.66-4.09.9-17.48.69-17.48.69l-4.8-119.7A153.2,153.2,0,0,0,690,1172.3Z"/><path class="cls-11" d="M690,1172.3c0,5.38,0,13.16-.07,22.17a16,16,0,0,0-5.06,3.53c-10.62,11.15-12.64,27-14.44,41.58-2.31,18.81.57,36.61,3.14,55.08-2.84,0-5,0-5,0l-4.8-119.7A153.2,153.2,0,0,0,690,1172.3Z"/><path class="cls-15" d="M722,1030.89c-21.29-6.33-46.26-1.23-67.24,3.76-15.88,3.81-31.13,9.34-44.58,18.77a1.6,1.6,0,0,1-.29.19c-2.56-20.73-7-69.47-7-69.47s142.84-2.27,141.65,6.06c0,.14-2.52,27.4-5.77,49.51A45.9,45.9,0,0,0,722,1030.89Z"/><path class="cls-16" d="M717.07,1065.28c11.54-.67,10.06-5.74,3.17-12.36-14.06-13.38-33.41-14.21-51.53-9.54-8.66,2.22-41.57,8-28.88,19,6.38,5.5,21.69,4.7,29.49,5.58C686.48,1069.82,702.24,1069.42,717.07,1065.28Z"/><path class="cls-4" d="M981.28,963.5c31.4,130.55-2.23,303.5-24.81,312.7-28.53,11.63-69,4.45-96.05-7.46C887.48,1273.94,983.15,1132.18,981.28,963.5Z"/><path class="cls-5" d="M948.07,1268.21c.27,5.2-39.85,5.58-43.68,5.15-4.58-.53-17.76-1.62-20.15-6.6-3.38-7,7.78-13.29,11.86-18.29,12.34-15.15,22.14-30.9,31.52-48.11,13.61-25,27.59-48.45,35.58-76.12,8.11-27.93,8.77-58.23,15.77-85.38,3.08,26.19.63,53.92-2.78,80-3.31,25.43-13.61,49-22.2,72.9-3.92,10.93-6.45,22.32-10.35,33.18-3.21,9-10.65,19.3-6.38,29.24C939.86,1260.19,947.65,1260.89,948.07,1268.21Z"/><path class="cls-17" d="M465.18,727c-19.42,49.74-78.58,195.56-7.77,228.17,20.37,9.39,44.2,15.74,66.09,21.78,70.23,19.32,152.7,27.08,225.3,24.45,64.66-2.37,130.9-5.08,193.22-24.2,48.55-14.86,115.42-40.08,120.8-97.91C1065,856,1058.91,829,1055,806.07c-18.65-108.2-67-210.3-108.61-310.32-36.48-87.67-85.56-179.59-168-232C716.5,224.44,668.3,275.85,641.8,331c-32.51,67.7-60.85,137.61-97.37,203.17C510.23,595.53,490.62,661.87,465.18,727Z"/><path class="cls-18" d="M472.36,902.59c-10.26,13.65-20.84,18.2-29.7.78-14.73-29.07,4.93-86.44,16.94-114.18,18.61-42.93,38.55-81.5,49.15-127.59,11.91-51.65,31.66-100.34,57.12-146.85,22.51-41.12,46-77.17,62.13-121.9,9.64-26.74,24.67-77.7,47.6-94.37,9.66,25.56-3.44,66.11-11.53,91.31-11.16,34.71-26.14,68.06-37,102.87-9.77,31.33-34.65,50.7-47.87,79.69-10,21.89-8.77,48.54-12.56,72.15-9.56,60-32.35,117-55.05,172C506.69,828.49,490,879.07,472.36,902.59Z"/><path class="cls-18" d="M450.53,913.16c-4-33.07,9.19-69.8,20.41-98.94,16.31-42.32,34.62-83.57,47.91-127C533,641,544.22,593.34,565.44,549.67c10.45-21.53,24.15-41.2,34.66-62.72C610.33,466,619,444.39,627.65,422.77c14.53-36.36,29.17-73.56,51.29-106.08.92,24-8.52,53.3-14.87,73.1-11.16,34.71-26.14,68.06-37,102.87-9.77,31.33-34.65,50.7-47.87,79.69-10,21.89-8.77,48.54-12.56,72.15-9.56,60-32.35,117-55.05,172-4.9,11.94-21.57,62.52-39.23,86C465,912.38,457.48,917.51,450.53,913.16Z"/><path class="cls-19" d="M483.12,785.37a82.84,82.84,0,0,0,3.14-26.09c-.2-5.28-2.75-13.71,2-18.3s11.56.08,16.59-7.12c4-5.68,2.35-16,2.1-22.55,25,6.33,23.69-41.06,18.93-55,15.5,1.67,11.47-19.2,12.19-26.54.86-9.34,3.84-12.62,0-22.72-3.73-9.88-9.52-15.6-2.11-25.4,4.45-5.88,10.2-10.15,14.81-16.8,1.45-2.09,5.53-8.71,7.86-9.79,7.46-3.56,10.71,3.49,18.41-5,7.36-8.16,10.68-23.87,11.56-34.43,1-12.06,15.73-19.94,21.59-30,9.62-16.48-1.06-36.36,9.32-51.49,5.3-7.74,9.47-8.54,11.31-18.92.79-4.6-1-6.11,1.4-10.67,2-3.91,8.36-5.22,9.39-9.1,2.59-9.77-8.27-18-5.12-29,2-6.93,6.84-10.57,11.08-15.82,2.1-2.6,5.75-9.62,8-11.39,9.33-7.41,9.86-.32,11.6-17.22.48-4.93,1.33-19.09,10.33-14.14,13.78,7.58-10.06,71.39-13.44,81.9-11.16,34.71-26.14,68.06-37,102.87-9.77,31.33-34.65,50.7-47.87,79.69-10,21.89-8.77,48.54-12.56,72.15-9.56,60-32.35,117-55.05,172-4.9,11.94-21.57,62.52-39.23,86-4.75,6.32-9.59,10.7-14.28,11.82-4-28.43-.29-57.35,8.37-84.61C471.67,813.32,479,800.2,483.12,785.37Z"/><path class="cls-20" d="M463.68,912.45a17.49,17.49,0,0,1-11.83,1.39c-12.94-3.14-14.16-23.5-19.66-33-.44-.76-3.94-4.21-3.93-4.84.16-5.22,6-5.3,9.89-7.92-5.81-7.6-19.25-6.28-27.75-6.45,14.91-19.86,40.43-4.37,58.74-11.32-1.24-7.2-14.95-12.8-19.21-18.45,13-6.5,12.92-9,5.91-20.9,8.73-1.83,18.05-3.82,18.92-13.92.47-5.47-1.17-11.71-.79-17.44.25-3.53,4.5-14.8,3.51-17.35,3.21,8.28-3,58.28,19.2,36.4,0,4.74,3.1,7.26,4,11.05,12.53-4.42,21.85-25.35,27.15-37.35-4,18.59-10.34,37.35-16.64,55.33-5.87,16.73-11.62,33.58-19.55,49.48C486.61,887.12,476.53,906.37,463.68,912.45Z"/><path class="cls-21" d="M441,886.63c8.74,9.27,10,35.94,28.56,20.8,10.53-8.59,17.34-22.75,22.88-34.87,7.74-17,19.15-37.54,21.44-55.83-3.24,4.3-6,13.64-12.82,12.08-5-1.13-9.23-11.61-11.64-15.51-.53,7.54,6.93,12.94,6.8,19.87-10.32-.35-19.55-9.16-30.05-6.33,4.5,5.28,14.6,6.85,16.51,14.54,1.86,7.43-2.87,5.84-9.26,8.08.84,2.81,5.07,3.77,5.77,6.33,1.36,5-.06,1.9-3.62,4.72-8.31,6.57-27.78,5.15-32.9,14.11,6.33,1.22,16.17-.12,19.47,7.26-2.71,2.12-6.81,2-10.07,3.6,1.28,1.23,3.19,3.81,4.74,4.89C452.05,897.14,444.49,890.31,441,886.63Z"/><path class="cls-22" d="M651,379.7c1-6,2.28-10.56,5.28-14.81,1.59-7.88,4.69-15.3,10.78-21.72,3.34-3.59,8.9-1.46,8.67,3.55a157.81,157.81,0,0,1-15.28,59.94,4.9,4.9,0,0,1-9.33-1.26A76.46,76.46,0,0,1,651,379.7Z"/><path class="cls-22" d="M633.84,424.92a5.09,5.09,0,0,1-.72-2.43,9.46,9.46,0,0,1,3.52-7.68,13.34,13.34,0,0,1,2.8-4c3.69-3.55,9.92.77,9.21,5.39-.1.75-.27,1.51-.43,2.25a7.29,7.29,0,0,1,.47,1.74c.55,3.44-.88,6-3.42,8.2-1.75,1.52-3.33,1.79-5.41,2.33-1.45.36-2.87.95-4.24-.11a4.27,4.27,0,0,1-1.37-3.74,8.45,8.45,0,0,1-.41-1.79Z"/><path class="cls-21" d="M666.55,385c7.12-17.29,12-34.85,10-52.85,1.72,15.37-14.39,17.82-22.18,23.72-5.92,4.5-4.28,5.26-5.58,12.54-1.07,5.9-4.11,12.47-4.78,18.19-1,8.15,2.37,15.4.6,24-1.29,6.24-3.26,10.91-7.33,15.18-2.17,2.28-5.24-.89-7.63,3-2.18,3.5,1.48,10.84.72,15.15-.8,4.51-5.31,8.47-5.8,12.53-.41,3.39,3,8.26,2.33,12.78-1.49,10.24-11,17.6-15.16,26.83-3.62,8-5,15.8-10.09,22.82-1.85,2.56-4.85,3.8-6.76,6.77-6.25,9.87-3.91,19.13-12.43,28.42-5.11,5.58-15.3,8.76-21.7,14.36-8.88,7.77-8.08,23.32-8.22,33.91-.08,5.73-2.37,10.28-2.62,14.11-.94,14,1.53,29.55,3,43.5,12.88-30,1.48-64.61,22.76-92.14,11.91-15.44,20.16-31.14,30.37-47.88,12.37-20.21,24.85-40.59,30.58-64S656.62,409.08,666.55,385Z"/><path class="cls-22" d="M550.79,639.23c1-17,8.51-35.33,21.5-46.92,0,21-3.07,45.17-9,65.18-.7,2.35-3.53,2.89-5.55,2.3C549.25,657.28,550.37,646.2,550.79,639.23Z"/><path class="cls-22" d="M542.16,678.79c1.7-3.24,6.62-2.94,7.22,1A27.67,27.67,0,0,1,546.82,697a1.92,1.92,0,0,1-3.52,0,25.88,25.88,0,0,1-2.09-8.71,3.13,3.13,0,0,1-.52-1.43A13.6,13.6,0,0,1,542.16,678.79Z"/><path class="cls-22" d="M493.35,806.75c1.8-9.9-.07-37.22,14.67-38.54,4.48-3.36,11.47-1,10.75,5.59-1.3,12.18-4.34,34-17.5,39.13C497.36,814.46,492.57,811.15,493.35,806.75Z"/><path class="cls-22" d="M517,751.55c.47-1.79.91-3.63,1.45-5.42l.08,0a4.74,4.74,0,0,1,5.07-3c2.46.45,4.69,2.82,4.17,5.48-.31,1.6-.74,3.19-1.09,4.78-.61,2.62-1.27,4.83-3.93,6.07a4.43,4.43,0,0,1-5.14-1.42C516.06,756,516.41,753.89,517,751.55Z"/><path class="cls-22" d="M612.13,463c2.77-2.45,7.09-.16,7.56,3.16a41.26,41.26,0,0,1-8.87,32.51A4.2,4.2,0,0,1,609,500a11.17,11.17,0,0,1-2,1.92,5.14,5.14,0,0,1-8.13-3.43C597.22,484.94,601.83,472.05,612.13,463Z"/><path class="cls-23" d="M615.78,471.17a6.43,6.43,0,0,1-.26-3.29c.12-.74.27-1.43.42-2.14q.27-6.15,1-12.28c.62-5.09,5.15-7.2,9.2-6.45a2.06,2.06,0,0,1,2.42-.61,7.14,7.14,0,0,1,6.08-1.45,4.23,4.23,0,0,1,3.46,3.5c.6,3.31-.67,5.59-2.81,8a35.08,35.08,0,0,0-2.43,3.18,27.15,27.15,0,0,1-1.25,7.65,28.73,28.73,0,0,1-.57,11c-1,3.7-3.54,6.67-7.69,6.58-3.5-.06-7.55-2.8-7.59-6.7C615.7,475.81,615.73,473.48,615.78,471.17Z"/><path class="cls-23" d="M653.51,359.6c.41-3.82,3-9.49,7.9-8.64,4.22.75,5.08,6.15,4.3,9.5-.65,2.79-2.07,5.3-3.06,8-.46,1.22-.84,2.43-1.32,3.6-.44,2.17-1.24,3.91-3.53,4.68-1.63.57-4,0-4.55-1.94C652,370.14,653.05,364.36,653.51,359.6Z"/><path class="cls-23" d="M667.63,328.19c1.56-2.25,4.85-1.95,6.48,0a6.31,6.31,0,0,1,1.44,4.95,17.77,17.77,0,0,1-1.36,3.73c-1,2.93-5.09,2.52-6.24,0-.51-1.11,0,0-.6-1a7.31,7.31,0,0,1-1-2.82A6.15,6.15,0,0,1,667.63,328.19Z"/><path class="cls-23" d="M469,884.8c15.56-23.8,27.31-48.4,37.25-75.06,5.53-14.91,11.77-29.53,17.29-44.45.76-2.11,1.58-4.19,2.38-6.26a5.74,5.74,0,0,1-6.4-4.89c-2.13-15.34,10.81-32.3,18-45,3-5.3,12.81-4.14,11.27,3-2.09,9.77-4.25,19.61-7.19,29.21a3.43,3.43,0,0,1-1.61,2c-.37,1.41-.74,2.83-1.17,4.24-2.45,8.18-5.16,16.3-7.75,24.43-4.83,15.23-9,30.62-14,45.8-8.66,26.21-16.07,55.79-35.61,76.37C474.55,901.41,462.11,892,469,884.8Z"/><path class="cls-24" d="M509.24,764.16a91.59,91.59,0,0,1,8.8-29.82c4.12-8.24,17.14-5.48,16,4.29-.48,3.82-1.31,6.77-3.57,9.17a82.82,82.82,0,0,0-4.82,18.58C523.8,776.85,507.9,774.76,509.24,764.16Z"/><path class="cls-24" d="M558,589.37c-.14-3.32,1.13-6.79,1.89-10,.82-3.5,3.31-6.83,7.22-7.13a8.66,8.66,0,0,1,8.74,5.15,16.2,16.2,0,0,1,.74,10.49,21.77,21.77,0,0,1-1.72,4.9,10.84,10.84,0,0,1-2.93,3.91,28.49,28.49,0,0,1-3.42,1.51c-4.3,1.43-9.94-1.22-10.2-6.22.48,1.78.38,1.4-.27-1.14A9.48,9.48,0,0,1,558,589.37Z"/><path class="cls-24" d="M568.47,598.23a1.42,1.42,0,0,1,.22-.07C567.48,598.6,567.73,598.51,568.47,598.23Z"/><path class="cls-25" d="M425.22,908.64c9.26,13.51,16.36,25.31,38.45,23.18,30.09-2.91,48.78-30.13,64.74-52.86,28.44-40.51,48.86-98.85,61.58-146.57,5.76-21.61,6.94-45.08,6.59-67.19-.39-23.3,4.57-45.72,4.62-69.41,0-23-2.05-47.28,12.58-66.8,18.8-25,30.12-35.95,39.59-66.83,20.55,14.62-9.93,50.18-20,63.1-15,19.09-35.34,86.46,3.92,93.61,1.71-5.29,7.32-11.68,8-16.31,12.78,17.21,10.63,66.6-7.21,80.86-10.77-25.19-19.18,5.48-21.75,17.15-4.73,21.42-6.43,39.83,4.26,59.32,2.14,3.85,7.73,17.13,10.22,21.66,15.1,27.54,35.26,4.38,25.83-20,8.67,8.68,20.68,27.22,24.85,38.5,8.28,22.23-5.34,20.22-8.38,42.89-6.76,50.42,35.65,36.75,66.06,37.69-2.92,12.61-19.29,20.19-20.58,33.1,14.13,5.12,59-10.71,60.38,12-8.71,3.26-15.65-3.55-24.64-1.3-4.87,1.21-17.23,13.81-24.91,16.53-26.7,9.44-60,11.71-77.55,36.2,16.62,6.33,144.73,19.91,115.37-17.73,23.4-12.51,53.6-11.79,76.91-24.41,17.77-9.67,31.23-37,54.83-23.48-3.79,5.54-7.9,11.67-14.81,14.58,38,21,102.94-18.15,102.34-57.48,20.77,6.25.6,24.3,2,36.92,44.15-18,67.06-81.75,39.53-123.43,26.34,29.61,14,69.2,19.94,104.64,3.71-1.5,9.44-5.27,15-10.23,0,1-.11,1.85-.18,2.76-5.38,57.83-72.25,83.05-120.8,97.91C879.7,996.33,813.46,999,748.8,1001.41,676.2,1004,593.73,996.28,523.5,977c-21.89-6-45.72-12.39-66.09-21.78C438.43,946.46,428.8,929.59,425.22,908.64Z"/><path class="cls-26" d="M541,889.65c36.73-52.21,66.08-144.42,58.42-208.3,8.71,28.35-5.36,60,6.39,87.42,2.15-.61,3.88-1.56,6.09-1.92,2.28,5,14.11,45.68,15,45.84-17.94-2.93-20,28-17.68,39.42,2.56,12.47,12.7,31.27,28.95,18.67,10.43-8.12,3.94-39.26.28-50.63,26.2,40.09,5,63.77-13.48,97.85,12.35,6.19,26.66,6.47,40.1,5.77-.07,9.33-66.56,53.37-69.51,51.75,37.63,20.77,103.93,22.15,146.25,20.36,14.55-.63,107.59-6.38,93.08-25.29,24.44-9.58,55,6.07,76.41-9.37,9-6.49-.27-17.35,16.16-16.92,4.94.14,1.31,13.4.59,15,28.8-5.38,90.69-30.75,95.85-63.59,13.47-1.7,21.65,9.1,24.24,21.67-23.45,31.91-69.89,48.75-106.11,59.86C879.7,996.33,813.46,999,748.8,1001.41,676.2,1004,593.73,996.28,523.5,977c-21.89-6-45.72-12.39-66.09-21.78a51.77,51.77,0,0,1-25.33-24.74C479.45,956.64,512.72,929.82,541,889.65Z"/><path class="cls-27" d="M646.27,690.16c11.81-14.94,11.87-6,16.11-24.39,4.41-19.16,7.56-43.2,5.41-62.77-4.33-39.16-21.33.45-33-26.8-19-44,50.13-71.88,47.21-115.57-1.1-16.24-6-22.87-.68-42.08,5.86-21,13.78-39,17-61,2.28-15.85,3.38-29.12.32-44.87-.27-1.44-9.31-32.71-12.45-26.5,10.07-19.91,41-26.66,64.09-23.28a56.58,56.58,0,0,1,14.5,4c105,46.37,145.08,175.07,189.37,269.87,37.41,80,78.46,158.93,89,248.29-6.93-8.45-13-22-26.75-18.57-1.52,23,15.64,41.32,13.94,64.92-.2,2.91-16.07,47.41-23.23,33.29-6-11.75-6.63-25.85-13.52-36.43-14.81,12.84-11.93,39.36-27.47,53-13,11.44-26.87,12.68-27-4.44-.19-23.52,28.44-44.59,25.16-72.48C962,785.88,950.06,773.58,938.45,761c40.52-26.32-.7-119.45-26.23-142.47-25.74-23.22-66.37-10.93-40.82,25.4-22.66,7-48.74,4.85-68.94-9.67-17-12.28-9.28-28.91-25.59-42.09-15.89-12.83-41.25-8.1-55.8,4.24-24.39,20.63-2.7,38.81,12.66,57.5-14.05,18.84-39.68,12.53-48.4,41-7.45,24.28,6.5,50.36,2.6,72.75-15-10.75-36.16-34.63-38-54.86.92,13,5,30.68-2.81,39.9C626.83,738.07,635.14,704.26,646.27,690.16Z"/><path class="cls-27" d="M799.25,415.7c-15.16-23.54-31.23-53.76-33.06-82-.09-1.66,1.52-66.85-15.58-56,27.15-17.21,70.46,27.35,88.06,45.42,31.89,32.73,53.43,79.65,74.6,119.62,27.69,52.17,53.67,106.14,75.9,161.1,17.88,44.12,41.38,99.48,41.94,147.66-21.58-23.78-31.67-42.14-40.43-72.68-7.37-25.83-13.85-53.78-34.62-72.52.65,4.57-1.92,9.44-2,12.54-23.56-11.89-44.35-34.32-67.78-48.21-19-11.24-35.61-37.22-57.47-36.21s-35.83,19.93-58.76,6.43c-30.53-17.94-10.7-43.49,6.67-65.21,19.82,6.21,26,35.07,47.85,36.19C867.52,514,807.2,428,799.25,415.7Z"/><path class="cls-27" d="M760.66,651.42c2.48-2.57,6.33-4.41,9.89-2.66A168.19,168.19,0,0,1,801,667.82c4.75,2.89,11.09,7.42,12.33,12.84,2.94,12.64-17.15,20.23-26.64,20.82-12.39.76-24.14-5.07-29.94-16.26C751.25,674.53,752.13,660.31,760.66,651.42Z"/><path class="cls-27" d="M732,706a10.93,10.93,0,0,1,1-2.18c-1.78-1.28-1.7-4.57,1-4.73a24.66,24.66,0,0,1,3.65.08,14.2,14.2,0,0,1,5.7-1.86,11.56,11.56,0,0,1,8.05,2.08c2.81,2.1,3.36,5.63,2.42,8.8.46.67.92,1.35,1.33,2.07,2,3.63-2.05,7-5.35,6.87a33.71,33.71,0,0,1-14.9-4.24A5.48,5.48,0,0,1,732,706Z"/><path class="cls-25" d="M878.48,803.9c12.15-17,39.88-24.59,56.14-8.83,10.48,10.15,6,21.16.07,31.72-.7,2.28-1.44,4.39-2,6.15a107.12,107.12,0,0,1-19.52,34.95c-3.13,3.75-6.46,5.63-9.79,6.09-4.18,4.6-13.51,4-15.43-2.71-.5-1.77-1-3.59-1.48-5.45C871,849.78,864.83,823,878.48,803.9Z"/><path class="cls-25" d="M844.89,870.69A25.44,25.44,0,0,1,841.1,854c.42-2.92,3.13-6.22,6.33-6.27,4.69-.08,8.8.71,12.35,4a16.76,16.76,0,0,1,5.68,13.43,17,17,0,0,1-5.7,11.07l-.45.87A4.4,4.4,0,0,1,855,879a9.07,9.07,0,0,1-8.6-1.84,5.31,5.31,0,0,1-1.66-6.08A4.11,4.11,0,0,0,844.89,870.69Z"/><path class="cls-26" d="M871.83,819.28c3.14-8.72,10.76-20,20.75-21.25,6.65-.86,10.77,2.73,13.38,7.71a14.24,14.24,0,0,1,6.6,9.74c2.83,12.94-2.78,30.27-6.08,42.71-2.71,10.2-7.13,19.47-19,13.09-8.44-4.53-14.27-13.93-16.74-22.95A48.43,48.43,0,0,1,871.83,819.28Z"/><path class="cls-26" d="M843,865.8a5.7,5.7,0,0,1,1.67-3.3,3.89,3.89,0,0,1,3.76-2.21,4.18,4.18,0,0,1,3.32,2,6.61,6.61,0,0,1,2,3.53,16.71,16.71,0,0,1,0,4.79,5.2,5.2,0,0,1-5.24,4.51,5.33,5.33,0,0,1-5.19-4.57A16.54,16.54,0,0,1,843,865.8Z"/><path class="cls-26" d="M885.29,658.43c4.52-5.71,12.5-7.57,19.41-6.27,8.22,1.57,14,8.07,17.31,15.47a61.2,61.2,0,0,1,3.24,9.19c4.33,8.07,6.24,17.08,3.11,24.39-9.47,22.2-35.67-9.18-41.58-18.73C882.26,675.22,879.45,665.86,885.29,658.43Z"/><path class="cls-26" d="M876.33,706.44a6.24,6.24,0,0,1,2.39-4.6,5.06,5.06,0,0,1,6,0,6.52,6.52,0,0,1,2.52,4.66,6.2,6.2,0,0,1-1.34,5.15,5.13,5.13,0,0,1-4.11,2,5.44,5.44,0,0,1-4.07-2C876.34,710.17,876.22,708.37,876.33,706.44Z"/><path class="cls-26" d="M863.4,736.23c6.14-3.45,14.6-1.13,18.6,4.61a15.37,15.37,0,0,1,2.47,11.66,10.4,10.4,0,0,1-2.09,4.52c.1,1,.14,1.93.16,2.84,0,5.09-3.38,9.4-8.91,8.77a19.66,19.66,0,0,1-15.54-12C855.07,749.66,856.3,740.2,863.4,736.23Z"/><path class="cls-26" d="M726,616.83c2.82-6.08,9.15-10.42,15.47-12.15,15-4.12,28.75,6.72,31.37,21.33.94,5.23-4.15,9.51-9.05,9-7.08,7.26-23,3.78-30.67-1.27C726.74,629.5,722.42,624.38,726,616.83Z"/><path class="cls-28" d="M543.21,372.16c-10.89-1.89-16.23.3-15.49,11.43s3.08,22,2.17,33.46c-1,12.54-10.74,20.77-10.27,33.65.49,13.25,6.33,26.6,7.93,40,1.39,11.75,3.3,35.56-8,43.66-12.83,9.16-15.63-16.52-23.3-23-5.4-4.56-24.67-11.6-26.47-.86,10.44-2.36,18.26,4.52,23.61,13.36,5.15,8.47,2.54,18.09,7.25,26.43,7.57,13.38,14.33,6.62,22.31-.93,5.94-5.61,15.77-6.61,20.85-11.29,4.44-4.1,3.12-11.36,3.91-17.1,3.17-23.2,14.28-41.41,7.78-65.24-2.58-9.37-6-21.6-.46-30.72,8.66-14.31,16.25,2.62,25.7-4.31C601.09,405.63,554.9,374.17,543.21,372.16Z"/><path class="cls-29" d="M531.85,510.78c.46-13.95-2.9-27.59-5.18-41.24-1.95-11.71-4.09-22.52.74-33.92,2.58-6.13,5.36-12.31,6.17-19,1.42-11.8-6.12-23.25-3.45-35-1.66,7.28,7.23,21.4,11,27.07,6.12,9.07,8.8,19.43,9.52,30.37.87,12.56,4.1,24.95,3.77,37.6-.35,12.81-7.14,22.79-9.84,35.09-1.43,6.35-.87,14-3.11,20-2.18,5.79-9.42,6.47-14.71,8.05-3,.91-8.12,2.25-11.27,1.26,2.43-3,6.87-5.25,9.62-8.44C530.67,526.25,531.58,519,531.85,510.78Z"/><path class="cls-30" d="M571.8,434.44a3.88,3.88,0,0,0-2.4-.24c-2,.39-8.1,14.17-10.47,16.46-5.79,5.55-12.13,8.93-20.37,7.91-22.28-2.78-54.7-33.65-78.12-21.31-14.27,7.52-7.77,43.21-33.72,34.47-17.44-5.89-27.11-41.17-51.79-28.31,8.71,2.28,13.29-.08,20.49,8.83,8.42,10.41,8,24.51,15.92,34.42,13.16,16.34,30.43,7.64,43-4.61,13-12.72,18.29-24.61,37-10.1,17.26,13.36,37.16,29.65,61.29,19.12,12.75-5.55,23.94-24.19,25.2-37.75C578.25,448.76,576.76,436.57,571.8,434.44Z"/><path class="cls-31" d="M620.07,396.65c-2.64-7-7.08-12.52-13.75-14-10.68-2.42-24.83,9.32-31,16.91-11.76,14.61-12.78,33.2-1.28,49.62,14.64,20.88,37.52,1.74,45.65-14.68C623.83,426.23,624.76,409.07,620.07,396.65Z"/><path class="cls-32" d="M628.45,336.33q-7.77,12.15-14.77,24.76c-7.39,13.36-15.82,27.93-20.14,42.64-2.65,8.95-1.81,16-6.13,24.33-11.14,21.67,17.75,34.37,35.14,40.95,27.14,10.28,57.29,10.48,86.07,11.52,41.51,1.51,83.36-1.19,123.87-10.66,27.67-6.47,65-8.5,88.89-25.72,12.33-8.89,6.38-10.17,2.65-18.89-2-4.74-2.79-1-2.52-6.86.13-3.11,5.4-2.85,4.42-8s-7.23-7.26-10.06-11.24c-3-4.26-4.81-10-6.49-14.85-4.5-13.16-6.42-27.25-12.42-39.88-20.46-43-47.44-86-85.91-115.45-15.44-11.84-32.58-21.3-47.94-32.93-16.68-12.62-36.54-11.63-56.74-7.67-10.27,2-29,13.38-38.69,9.37-15.29-6.35-19.5-35.79-41.75-26,19.28-3,18.55,19.16,23.46,30.25,7.61,17.1,31.15,13.75,40.19,29.51,12.68,22.07-11.53,38.55-23.79,53.58A563.41,563.41,0,0,0,628.45,336.33Z"/><path class="cls-29" d="M587.41,428.06c4.32-8.36,3.48-15.38,6.13-24.33,4.32-14.71,12.75-29.28,20.14-42.64q7-12.63,14.77-24.76a563.41,563.41,0,0,1,37.34-51.2c12.26-15,36.47-31.51,23.79-53.58-9-15.76-32.58-12.41-40.19-29.51-4.91-11.09-4.18-33.21-23.46-30.25,4.47-2,8.23-2.34,11.48-1.65,5.17,3.37,10,8.49,14.21,15.76,6.19,10.61,13.32,20.38,24.67,25.21,12.57,5.37,26.56,5.43,37.86,14.21,0-7.49-12.78-15.48-17.43-17,26.28,8.67,51.48,24.54,56.47,55.8.84,5.25.9,25.33-7,27.07-6.69,1.44-9.18-14-13.88-17.44-20.46-15-32.18,20.94-36,33.72-2,6.67-10.45,36.24-.4,40.05,14.07,5.39,13.87-29.53,18.77-34.71,16.12,9-7.55,41.76,5.76,57.38,6.34,7.47,46.57,22.7,34.85,36.46-6.51,7.66-59.93,3.32-53.76,24.41,5.3,18.14,49,3.62,59.7,12.06-11.83,7.13-26.45,2.8-36.36,14,8.22,7.74,28.27,4.54,39,4.6,18.77.09,37.59.15,56.19-1.66s47.79-2.29,58.21-21.19c-7.79-4-26.6.47-35.54,1.18-10.78.87-23.79,4.11-33.51-.56,30.37-7.72,61.21-10.43,91.33-20.06,3.36-1.06,19.11-4.49,25.27-9.49a2.94,2.94,0,0,1,.17.57c1,5.11-4.29,4.85-4.42,8-.27,5.82.5,2.12,2.52,6.86,3.73,8.72,9.68,10-2.65,18.89-23.88,17.22-61.22,19.25-88.89,25.72C792,479.34,750.13,482,708.62,480.53c-28.78-1-58.93-1.24-86.07-11.52C605.16,462.43,576.27,449.73,587.41,428.06Z"/><path class="cls-33" d="M770.05,264.12c-7.29-28.7-31.79-53.31-60.85-59.86,0-23,56.44,2.4,63.39,6.43,23.91,13.84,44.09,31.56,62.52,52.13,20,22.33,33.45,52.05,47,78.23C887.3,351,896,362.34,899.4,373c2.83,9-3.31,11.54-2.94,20.06.37,8.28,9.47,8.59,10.8,14.13,3.09,13-71.47,27.41-82.5,23.25,7.25-5.6,52.59-23.07,22.83-30.88-20-5.25-59.64,26.18-75.38-1.28-5-8.77-.66-14.82-9.36-23.1C753.29,366.09,746,361,740.66,348c-5.66-13.83-4.14-26.4-7.15-39.83-1.71-7.54-2-9-10.24-12.53,17.41-17.44,25.56,34.83,44.42,19.66C781.09,304.53,773.49,277.75,770.05,264.12Z"/><path class="cls-29" d="M593.54,403.73c4.32-14.71,12.75-29.28,20.14-42.64q7-12.63,14.77-24.76a563.41,563.41,0,0,1,37.34-51.2c12.26-15,36.47-31.51,23.79-53.58-9-15.76-32.58-12.41-40.19-29.51-2.34-5.34-3.42-13.17-6-19.58,5.79,6.32,9.83,14.63,16.62,21.77,17.08,18.05,45.45,19.3,62.91,36.4,7,6.87,15,19.65,2.84,22.07-4.58.89-11.25-4.47-16.66-3.7-6.14.9-10.88,5.3-15.24,9.36-12.68,11.77-21.91,31-28,47-3.84,10.11-10,28.57-6.41,39.59,4.68,14.39,23.73,21.65,26.93,3.12,11,3.78,16.41,32.46,6.29,39.14-11,7.3-46.86,1.46-46.92,21.34-.12,30.49,52.77,22,67.77,31.46-2.57,3.91-9.73,5.7-7.07,11,2.78,5.48,20.12,4.3,24.59,4.54,19.17,1,37.87-.35,56.85-2.07,18.54-1.71,37.08.88,55.7-1.15,13.24-1.43,58.18-4.43,61.65-20.46-22-3.54,2.2-13.63,17.38-19a7.28,7.28,0,0,1,1.46,2.44c3.73,8.72,9.68,10-2.65,18.89-23.88,17.22-61.22,19.25-88.89,25.72C792,479.34,750.13,482,708.62,480.53c-28.78-1-58.93-1.24-86.07-11.52-17.39-6.58-46.28-19.28-35.14-40.95C591.73,419.7,590.89,412.68,593.54,403.73Z"/><path class="cls-29" d="M540.7,460.89c-7.41.44-13.55-1.92-19.94-5.45-10.12-5.57-22.64-15.79-34.59-16.28,2.79,2,4.47,5.81,5.89,8.76,3.46,7.23,6.46,14.66,11,21.3,7.63,11,21,24.8,35.72,23.37,8.61-.85,12.52-8.19,16.35-15.1,3.68-6.64,7.5-15.84,4.68-23.45C555.31,459.28,547.13,460.5,540.7,460.89Z"/><path class="cls-34" d="M593.54,403.73c4.32-14.71,12.75-29.28,20.14-42.64q7-12.63,14.77-24.76a385.13,385.13,0,0,1,26.66-37.06c9.38-11.36,20.46-21.19,29.66-32.67,10.13-12.57,20.11-25.9,4.55-39.07,6.68-.41,15.65,6.38,20.27,10.7,2.18,2,11.35,11.86,9.25,15.63-1.62,2.9-6.18.5-8.68.62-4,.19-5.68,1.52-9,3.44-7.79,4.48-14.2,8.87-19.85,16-13.72,17.33-29.23,38.32-35.18,60-4,14.48,7.71,46.37-6,53.75-9,4.8-17.29-2.15-21.69,11-3.28,9.75,2.3,21.64,7.88,29.31,8,10.9,18.78,16.45,31.63,19.66,8.1,2,22.61-.24,28.49,5.18-3.52,9.18-19,5.82-7.17,15.69,9.87,8.18,24.86,2.16,34.88,9.64-7.94,7-32.73,1.55-42.91.71-16.53-1.35-33.08-3.86-48.64-9.78-17.39-6.58-46.28-19.28-35.14-40.95C591.73,419.7,590.89,412.68,593.54,403.73Z"/><path class="cls-29" d="M414.71,487.58c8.67,10,26.58,4.85,33.2-4.88,4.79-7.05,7.21-18.63,2.91-26.44.3,4.64-2.93,10.89-5.82,14.3-3.76,4.38-10.57,5.05-16,3.79-16.53-3.85-21.43-22.72-36-29.46,2.91,1.62,4.5,4.94,5.82,7.83,2.86,6.28,4.91,12.94,7.43,19.37C408.32,477.47,410.9,483.17,414.71,487.58Z"/><path class="cls-35" d="M1006.07,627.76S756,909.15,507,974.67l58.68,13.15S807,932.92,1021.86,664Z"/><path class="cls-36" d="M658.27,911.34c.26.06.54.14.83.19,57.48,10,110.35-22.63,154.17-56.35,31.94-24.57,84.9-57.87,79.57-104.93A20.41,20.41,0,0,0,890,742c7.94-7.09,15.57-14.05,22.85-20.78,4.26,5.09,9.34,9.29,16.06,10.85a26.08,26.08,0,0,0,19.65-3.62c10.3-6.44,16-20.21,14.9-32.11a4.34,4.34,0,0,0-.11-.61c16.71.74,31.62-8.78,43.71-20.09a93.85,93.85,0,0,0,13.24-15.31l1.61,3.73C807,932.92,565.67,987.82,565.67,987.82L507,974.67C558.11,961.21,609.25,938.66,658.27,911.34Z"/><path class="cls-37" d="M900.33,739.49l25.21,25.93a11,11,0,0,0,15.56.5l40.4-39.86a11.13,11.13,0,0,0-.17-15.63L956.09,684.5a11,11,0,0,0-15.54-.5l-40.41,39.86A11.13,11.13,0,0,0,900.33,739.49Zm11.34-13,31.24-30.8a7.74,7.74,0,0,1,11,.35l4.35,4.47c-1.63,1.41-3.33,2.86-5,4.29-2,1.74-4.49,3.36-5.5,5.92s1.16,6.34,4.23,5.61a10.37,10.37,0,0,0,1.06-.32,4.6,4.6,0,0,0,2.75-.87s0,0,0,.06c2.94-2.65,5.75-5.33,8.54-8.11l.16-.13,5.32,5.46a7.89,7.89,0,0,1,.12,11.05l-31.25,30.81a7.78,7.78,0,0,1-11-.35l-16-16.39A7.87,7.87,0,0,1,911.67,726.47Z"/><path class="cls-38" d="M960.23,691c1.65,1.71,5.34,5.75,3.75,7.35-1.84,1.84-7.28-3.65-8.75-4.59-3.51-2.27-8.22-5-12.59-4.15-7.82,1.47-11.31,11-17.63,14.56,3.35-6.82,9.15-12,14.88-16.8,7.58-6.37,13.46-3.61,19.76,3C959.77,690.56,960,690.76,960.23,691Z"/><path class="cls-38" d="M909.56,737.6q5.78,5.5,11.54,11a2.77,2.77,0,0,1-2.72,4.74,3.76,3.76,0,0,1-1.29-.76c-1.82-.92-3.66-3.12-4.76-4.13a78.24,78.24,0,0,1-6.62-7C903.73,739.14,907.29,735.44,909.56,737.6Z"/><path class="cls-6" d="M996.51,615.34q-3.12-7.76-6.3-15.5A161,161,0,0,0,1005.5,593c12.63-6.49,27.34-11.6,37.74-21.6,4.34-4.15,5.64-10,9.28-14.46,8.92-11,23.46-17.37,35.65-24,19.57-10.61,38.82-25.13,56.38-38.94,12.19-9.59,26.67-20.41,32.41-34.63,5.86-14.59,9.24-29.18,23.21-38.49,8.29-5.51,16.73-11.2,20.54-.28,3.69,10.58-1.66,34.7-10.38,40.71-8.21,5.64-19.93,4.18-27.44,10.79-5.43,4.78-8.68,12.95-13.72,18.63-10.21,11.5-22.24,21.24-32.43,32.67-18.82,21.12-39.88,45.27-65.61,58.27-14.71,7.43-28.52,3.42-43.56,13.15C1017.57,601.32,1007.23,608.66,996.51,615.34Z"/><path class="cls-39" d="M1623,0s7.86,94.88-60.89,201.51c-27.95,43.39-79,86.25-129.83,121.86-6.36-4-13.4-6.54-20.9-5.72-10.38,1.16-17.14,9.46-20.72,18.62a88.16,88.16,0,0,0-4.74,17.86c-55.5,34.95-101,57.56-101,57.56l-14-32.83Z"/><path class="cls-40" d="M1347.2,347.6c65.9-40.31,127.92-86,176.8-146.41a546.85,546.85,0,0,0,66.11-103.77c15-30.6,30.72-62.28,32.92-96.68.55,9,4.26,99.62-60.93,200.77-27.95,43.39-79,86.25-129.83,121.86-6.36-4-13.4-6.54-20.9-5.72-10.38,1.16-17.14,9.46-20.72,18.62a88.16,88.16,0,0,0-4.74,17.86c-55.5,34.95-101,57.56-101,57.56l-9.18-21.56C1299.58,376,1323.56,362.08,1347.2,347.6Z"/><path class="cls-41" d="M1385.91,354.13c-1,.6-2,1.21-2.9,1.83,1.29-2.16,2.53-4.35,3.76-6.52C1386.46,351,1386.17,352.55,1385.91,354.13Z"/><path class="cls-41" d="M1319.76,326.29c-16.16,26.34-30.56,53.5-36.17,82.3l-12.67-29.73Z"/><path class="cls-42" d="M1257.93,369.92c31.32,2.6,38.24,35.25,33.54,61.17-5.85,32.33-28.17,67.16-60.08,79.27-14.28,5.44-29.67,5.37-41.28-5.7-8.5-8.12-15.41-21.46-9.36-32.64,4.81-8.94,8.87-7,18.31-9.48,12.19-3.19,19.46-16.91,20-29,.68-15.32-10.79-13.86-13.19-24C1200,384.9,1239.48,368.41,1257.93,369.92Z"/><path class="cls-43" d="M1180.75,472c4.81-8.94,8.87-7,18.31-9.48,12.19-3.19,19.46-16.91,20-29,.68-15.32-10.79-13.86-13.19-24-2.5-10.55,3.29-19.58,12.19-26.37,0,.94-.08,1.88,0,2.85.53,15.22,10.94,26.52,15.63,38.75,1.23,3.22,1.32,2.29.71,5.79.06-.36-1.29,5-1.59,6-1.53,5.23-3.71,10.18-5.49,15.3a114,114,0,0,0-5.8,24.47c-1.22,10.78-.49,23.26,10.06,29.35a20,20,0,0,0,5.61,2.18c-1.86.91-3.78,1.72-5.73,2.46-14.28,5.44-29.67,5.37-41.28-5.7C1181.61,496.54,1174.7,483.2,1180.75,472Z"/><path class="cls-44" d="M1256.63,376.2a29.29,29.29,0,0,1,10.57,2c17.63,7.39,20.24,27.36,17.76,44-1.35,9.31-5.81,45.23-20,44.52-7.6-.35-4.56-15.43-4.69-20.42-.26-11.53-.82-22.17-8.21-31.2-7-8.57-22.1-20.26-12.69-32.7C1242.87,377.83,1249.94,376.06,1256.63,376.2Z"/><path class="cls-43" d="M1180.75,472c4.81-8.94,8.87-7,18.31-9.48,12.19-3.19,19.46-16.91,20-29,.68-15.32-10.79-13.86-13.19-24a21.08,21.08,0,0,1,2.43-15.69c-6.37,11.12,18.9,27.54,18.54,38.78-.45,14.39-16.65,28.05-21.81,41-6.77,17,8.55,44.9,28,31.4-13.8,9.6-28.57,13.25-42.88-.39C1181.61,496.54,1174.7,483.2,1180.75,472Z"/><path class="cls-38" d="M1239.87,378.09c6.15-6.39,24.57-6.62,31.05.77a23.43,23.43,0,0,1,8.32,10c2.06,4.39-2.85,8.11-6.84,6.8a62.41,62.41,0,0,0-15.37-3.09c-4.11-.25-8.48.81-12.53-.15C1237.78,390.86,1234.88,383.28,1239.87,378.09Z"/><path class="cls-38" d="M1278.69,404a2.94,2.94,0,0,1,2.61-2,3.56,3.56,0,0,1,3.11.67,7.12,7.12,0,0,1,2.44,4.21,5.09,5.09,0,0,1-1.95,4.9c-1.39,1.31-4,.79-5-.67a6.89,6.89,0,0,1-1-1.59,10.93,10.93,0,0,1-.42-2A6.18,6.18,0,0,1,1278.69,404Z"/><path class="cls-9" d="M1212.19,455.32A22,22,0,0,0,1216,450c5.48-10.5,10.23-30.61-3.71-36.94-8.81-4-23.81,9.87-28.8,19.29-4.83,9.07-6.28,19.28-11.94,28.13-6.26,9.82-15.43,16.75-24.68,23.67-23.09,17.19-50.34,31.42-71.12,50.91,9.1,13.95,19.64,37.47,19.86,54.8,31-8.67,54.79-44.17,68.89-71.31,7.35-14.22,10.5-30.59,18.22-44.42C1189,462.74,1203.33,464.32,1212.19,455.32Z"/><path class="cls-10" d="M1114.27,557.69c13.08-9.78,23.86-22.64,33.73-35.5,4.09-5.34,8.21-10.69,11.21-16.7,5.84-11.78,9.21-24.71,15.71-36.16,1-1.74,2.38-3.25,3.41-4.87,2.6-1.87,5.14-3.87,7.7-5.79,7.32-5.54,14.7-11.21,21.12-17.78,5.69-5.8,11-12.79,12.29-20.95,4.36,8.83.67,22.18-3.46,30.09a22,22,0,0,1-3.79,5.29c-8.86,9-23.15,7.42-29.49,18.84-7.72,13.83-10.87,30.2-18.22,44.42-14.1,27.14-37.88,62.64-68.89,71.31-.1-7.58-2.16-16.33-5.21-25C1098.92,566.61,1107.53,562.73,1114.27,557.69Z"/><path class="cls-13" d="M1091.82,538c-8.46-12.32,23.3-26.18,29.76-30.16a180.12,180.12,0,0,0,42.3-35.77c10-11.52,17.15-25.91,25.85-38.48,3.44-5,6.35-12.14,12.87-13.8,8.64-2.2,7.59,7.34,4.79,12.41-1.29,2.27-19.24,18.8-21,16.76,3.53,4.21-6.29,9.95-8.86,12.62-11.51,11.87-16.86,29.34-25.68,43.09-11.66,18.11-27.2,33.94-49.84,34.65C1099.83,539.38,1093.45,540.34,1091.82,538Z"/><path class="cls-45" d="M228.41,159.17l189,1199.75s1.7,13.67-8.35,13.73-10.47-10.14-10.47-10.14L216.14,159.66Z"/><path class="cls-46" d="M313.42,712.2c-4.94,14.3-6.77,29.37-6.69,44.6L284.34,609.25c4.43,8.93,10.32,16.79,18.53,22.64L315,708.72A21.53,21.53,0,0,0,313.42,712.2Z"/><path class="cls-46" d="M336,913.05c6.79,38.18,13.14,76.48,20.65,114.54a749.75,749.75,0,0,0,22.5,88.09l38.32,243.24s1.7,13.67-8.35,13.73-10.47-10.14-10.47-10.14l-79-520.68C325.23,865.55,331.69,889.1,336,913.05Z"/><path class="cls-46" d="M229.65,248.65l-13.51-89,12.27-.49L235,201A223.15,223.15,0,0,0,229.65,248.65Z"/><path class="cls-6" d="M427.69,751.05c-17.36-13.65-43.52-38.28-47.43-41.86-20.85-19.05-41.95-35.89-64.41-53.06-21.5,35.69-57.85-36-27.32-40,3.3-.44,11.79,1.59,14.85,1.95,6.42.77,12.14-.32,16.64,8.11,4,7.56,1.63,15.48,7.25,23,11.4,15.07,30.57,21.55,47,29.5,19.22,9.3,39.06,18,56.33,30.72,8.85,6.5,12.71,16.64,19.34,25,36.5-18.76,48.32-68.6,63.74-103,5.19-11.55,17.66-54.88,33.14-52.95,36.87,4.63-26.39,96.76-34,108-9.63,14.16-19.51,28.25-30.91,41-5.84,6.56-10.3,14.86-17.56,19.93-6.79,4.74-14.63,7.42-21.41,12.73C441.44,761.11,435.45,757.19,427.69,751.05Z"/><path class="cls-9" d="M328.37,634.56c5.9,19.45,17.69,24.14,35.31,31.9a551.48,551.48,0,0,1,63.24,32.39c-8.67-5.25-24.72,47.65-25.95,50.89-19-4.65-32.22-24.14-42.7-39.16-2.8-4-35.07-51.41-39.83-46.71-27.86,27.46-62.68-47.32-33.43-53.21,5.77-1.16,12.95,2.57,17.92,3,6.58.53,9.16-3,15.76,2.08C323.89,619.69,326.56,628.6,328.37,634.56Z"/><path class="cls-10" d="M276.41,616.54a17.8,17.8,0,0,0,.32,10.91c3.93,11.46,17.69,16.45,28.45,18.66,4.28.89,8.58,1.23,12.88,1.9a31.81,31.81,0,0,1,4.13.84,10.09,10.09,0,0,1,2.19,1.25c-.34-.27,2.75,2.83,3.55,3.67.62.66,3,3.39,3.17,3.52,1.66,2,3.27,4.15,4.88,6.24,4.93,6.45,9.77,12.94,14.89,19.24,14.93,18.43,36,40.22,58.65,42.44-4.49,11.68-8,23.1-8.55,24.53-19-4.65-32.22-24.14-42.7-39.16-2.8-4-35.07-51.41-39.83-46.71C294.39,687.56,265.17,635.14,276.41,616.54Z"/><path class="cls-47" d="M201.81,152.75a19.2,19.2,0,1,0,18.41-19.94A19.19,19.19,0,0,0,201.81,152.75Z"/><path class="cls-48" d="M203.27,144.65c3.2,9.14,11.39,16.39,21.64,16.26a18.8,18.8,0,0,0,15.25-8.18,19.19,19.19,0,0,1-38.35,0A18.9,18.9,0,0,1,203.27,144.65Z"/><path class="cls-49" d="M217.68,145.43c2.54,3.64,7.5,6.61,12.33,5.76,14.16-2.5,1.83-17.22-7.17-16.16C215,135.91,214.68,141.14,217.68,145.43Z"/><path class="cls-13" d="M408.79,710A136.53,136.53,0,0,1,416,696.24c-6.94-1.63-13.65-8-20.09-11.56-25.74-14.12-62-20-73.22-51-1.3-3.59-3.78-18.3-10.7-15.94-5.91,2,4.48,8.74-6.82,5.92-5.95-1.49-26.84-17-22.89-.19,2.67,11.18,22.8,24,33.06,15.32,11.91,12.63,24.25,24.33,35.54,37.72,15,17.79,32.64,32.29,54.74,40C406.66,714.43,407.72,712.22,408.79,710Z"/><path class="cls-50" d="M219.46,196.47a35.77,35.77,0,0,1,.45,3.74c.38,6.3,1.93,12.56,3.11,18.74,1.6,8.24,1.7,19.44,5.32,27,5.5,11.42,23.86,16.54,34.76,19.85,20.56,6.22,41.53,8.51,62.95,9.42,16.95.74,36.37-.76,51.17-9.76a136.58,136.58,0,0,0,24-17.77c7.45-7.11,16.43-14.53,22.06-23.15,4.28-6.56,5.72-17.08,1.66-24-3.32-5.73-9.56-8.25-15.17-11.17-8.12-4.27-16.68-8.7-25.55-11.17-7.48-2.06-14.88-4.66-22.34-7a150.21,150.21,0,0,0-23.65-5.36,175.35,175.35,0,0,0-23-1.38c-7,0-13.68-.67-20.58-.84-3.9-.1-7.49.68-11.31,1.32-13.71,2.31-26,6.53-38.55,12-5.5,2.39-9.57,6.65-14.89,9.53-2.85,1.55-8.77,4.84-10.37-.29C218.28,189.15,218.91,193,219.46,196.47Z"/><path class="cls-51" d="M14.24,363.48c-4.17-31.22-7.67-62.53-12-93.93-.62-4.45.28-7-2.28-10.67,38-42.74,93.43-49.62,148.61-39.6,43.89,8,84.71,26.83,128.56,34,39,6.39,75.53.6,112.23-12.44,12.5-4.44,29.68-11.7,35.41-24.7C431.28,201.46,415,193.58,404,188c-12.77-6.41-26.54-10.44-40.38-13.76-13.64-3.25-27.73-6.41-41.7-7.67-6.45-.58-12.88-1.34-19.38-1.51-17.26-.52-37.55,2.51-53,10.6-7,3.71-13.38,8.47-20.18,12.52-2.1,1.24-5.08,3.65-7.59,2.84-4.17-1.28-1.73-5.06-2.83-7.61,5.11,11.66,18.93-5.05,25.12-8.08a117.53,117.53,0,0,1,33.69-10.19c22.24-3.46,45.11-1.88,67.25,1.59C366,170,451.45,187.29,427.59,223.34c-11.49,17.3-27.84,31.13-38.23,49.84-15.5,28-21.16,62.25-19.2,94.1a113.05,113.05,0,0,0,6.36,32.66c3.59,10.05,5.46,6.23-1.31,13.6-23.1,25-84.26,26.42-114.94,26.88A287.57,287.57,0,0,1,175.91,429c-19.33-5.57-37.61-10.18-57.81-9.54-35.2,1.13-55.7,12.19-78,36.86C22.17,434,18,391.32,14.24,363.48Z"/><path class="cls-52" d="M29.19,408.44c.8,3.06,15.54,37.1,15.77,36.95,5.91-4.5,11.1-10.65,18.06-14.52,17.37-9.68,37.38-14.7,57-17,21.33-2.51,41.79,3.93,62.12,9.82,11.09,3.22,21.79,7.14,33.2,9.08a208.67,208.67,0,0,0,45.3,2.26c17.36-.85,34.3.68,51.62-2,8.52-1.29,20.41-3.06,27.65-8.16-6.54-3.05-15.49-3.2-22.67-5.17-15.77-4.32-31.83-8.27-47-14.44-24.14-9.82-46.82-24.34-67.5-40A280.31,280.31,0,0,1,150,312.81c-14.05-18.14-27-36.76-44.62-51.74C88.68,246.92,66.61,242,45.72,249c-31.13,10.36-25.64,49-25.88,75C19.64,352.07,22.07,381.21,29.19,408.44Z"/><path class="cls-38" d="M182.6,335.26c1.31,3.95,10.45-3,11.73-.48s2.75,11.73,4.24,12.57c5.18,2.91,15.1,3.82,20.74,1.9,1.63-.57,4.75-9.34,6.48-11.58s9.43,6.24,11.41,2.58c1.66-3,7.08-11,3.71-14.46s-2.54-3.52-.83-5.72,7.29-14.32,5.94-26.29c-2.82-24.65-24-28.35-29.3-28.84s-27.07-.72-34.3,23c-3.53,11.5-.25,24.46,1,26.93s2.07,2.71-1.87,5.47S181.53,332,182.6,335.26Zm34.91-18.05a28.52,28.52,0,0,1-1.33-6.91s1.41-5.36,2.49-5.68,13.29-1.42,15,1.2,1.2,8.08-1.16,10.14S218.56,319.93,217.51,317.21Zm-12.08,8.87c.39-2.11,3.93-12.33,4.8-12.17s1.57,1.24,1.78,1.57c.29-.28,1.33-1.22,2.07-1.21s2.48,10.7,2.49,12.84-1.08,2.51-2.46,3.39-3-1.11-3.34-1.51c-.38.32-2.47,1.92-3.53.89C206,328.75,205,328.21,205.43,326.08ZM192.49,302c2.15-2.26,14,1,15,1.55s1.4,6.06,1.4,6.06a28.45,28.45,0,0,1-2.57,6.53c-1.51,2.48-12.57-1.49-14.52-3.94S190.33,304.31,192.49,302Z"/><path class="cls-38" d="M149.58,398.61c-2.84-1.48-5.48-3.13-5.07-6.61.32-2.55,3.06-7.14,6.06-6.74a79.38,79.38,0,0,1,10.93,2.87l36-12.73,13.09-4.61,36-12.72a79,79,0,0,1,6.69-9.1c2.28-2.4,6.42-.19,8.36,1.48,3.3,2.83,2.52,5.21,1.4,9,6.54,1.27,7.94,14.18,1,15.9-4.48,1.1-12.94-4.57-12.94-4.57l-36,12.73L202,388.15l-36,12.72s-3,9.71-7.17,11.67c-2.6,1.21-8-1.22-9.79-3.31C147.8,407.79,147.7,397.61,149.58,398.61Z"/><path class="cls-38" d="M153.39,353.26c-1-3.08-1.68-6.11,1.1-8.28,2-1.58,7.2-2.89,9-.49a82.18,82.18,0,0,1,5.7,9.77l34.48,16.47,12.49,6,34.45,16.47a78.5,78.5,0,0,1,11.19-1.68c3.32-.11,4.65,4.38,4.85,6.92.35,4.36-1.91,5.47-5.39,7.4,3.74,5.51-4.43,15.63-10.57,11.93-4-2.39-5.91-12.37-5.91-12.37L210.36,388.9l-12.49-6-34.48-16.47s-9,4.74-13.33,3.17c-2.7-1-4.8-6.53-4.57-9.27C145.64,358.47,152.72,351.19,153.39,353.26Z"/><path class="cls-53" d="M245.39,264.31c14.29,7.45,24.34,25.89,32.09,39.49,8.38,14.75,16,30.17,27.22,43,9.1,10.45,20.08,19.05,31.56,26.68,11.24,7.46,23.18,12.86,34.64,19.69-3.73-3.7-3.83-10.81-4.45-15.71a162.13,162.13,0,0,1-.83-29c.5-8.38,2.34-16.7,3.46-25a142.46,142.46,0,0,1,4-21.19c3.53-12.32,9.16-24.54,15.18-35.81a130.59,130.59,0,0,1,12-18.43c2.77-3.55,8.46-8.34,9.25-12.68-.21,1.2-17.14,5.89-19.16,6.57-5.6,1.93-10.3,4.87-16.07,6.46-14.14,3.93-28.68,6.27-43.25,8.06-17.22,2.08-32.87,1.43-50.1-1.17a443,443,0,0,1-67.38-15.6c-24.14-7.62-47.66-14.28-72.84-17.64-25.35-3.37-55.72-5.28-79.35,6.68,2.13.48,5.15-.74,7.51-1.12a142.06,142.06,0,0,1,27.39-1.67c27.77,1,55.32,6.11,82,13.71C201,246.1,224.34,253.36,245.39,264.31Z"/><path class="cls-54" d="M862.16,664s-46.55,24.81-116.26,27.12c0,0,27.26,41.47,75.57,33.1C862.67,717.14,862.16,664,862.16,664Z"/><path class="cls-38" d="M856.58,666.73c-5.61,13.68-7.32,28.61-12.7,42.48a24,24,0,0,0-1.33,5.15,42,42,0,0,1-21.08,9.9c-48.31,8.37-75.57-33.1-75.57-33.1C801.44,689.31,842.28,673.2,856.58,666.73Z"/><path class="cls-55" d="M835.66,757.47c14.37,25.68,28-28.35,23.35-41.23,17.83,3.63,33.78,15.73,42.81,31.31,13.15,22.6,11,50.44-5.35,71.11C884.9,833.3,855.18,842,854.93,863.43c-.19,15.74,11.7,25.88,2,41,3.43-17.13-26.19-21.62-37.94-24-33.54-6.68-58.23-17.1-75.72-48.17-12.79-22.7-15.24-51.57-9.68-76.9,2.45-11.11,8.39-30.53,18.42-36.87,4.52,16.62,23.24,41,39.76,47.61,29,11.67,17.09-22,15.55-35.74,8.58,2.77,21-.5,29.69-2.74.35-.43.33-.48-.07-.09C832.81,735.59,830.88,748.93,835.66,757.47Z"/><path class="cls-55" d="M601.53,687.27c30.43,25.15,74.9,32.62,113,25.33,31.55-6.06,79.27-28.52,85.36-64.28,4.92-28.83-12.33-52.16-40.48-58.5C724.59,582,690,597.74,661.8,617c-22.83,15.57-75.39,41.86-95.43,6.31C564.18,647.42,584.26,673,601.53,687.27Z"/><path class="cls-56" d="M779.89,571.55c-27.2,15.39-56.16-15.11-56.41-40.86-.23-21.61,11.59-51.46,34.14-58.46C798.61,459.48,805.73,556.9,779.89,571.55Z"/><path class="cls-56" d="M799.17,500.61c-.1-8.9.53-18,4.66-24.46,14.79-23.06,42.06,4.73,49.72,20.12,6.76,13.67,12.05,37.6,5.41,52.12-7.33,16-37.72,28.08-50.35,12.55-9.16-11.28-9.21-30.25-9-44C799.63,512.14,799.25,506.43,799.17,500.61Z"/><path class="cls-55" d="M807.5,635.42c-1.15-11.74,1.86-24.29,10-36.24,11.82-17.35,34.92-28.55,55.47-29.07,44.81-1.15,97.95,40.21,128.78-11.65,10.43,12.09,6.21,31.87,2.69,46-7.61,30.75-25.55,54.56-54.92,67.6-29.65,13.18-66.4,22.13-98.37,12.37C826.42,676.91,809.65,657.55,807.5,635.42Z"/><path class="cls-57" d="M733.54,755.33c1.7-7.66,5-19.27,10.24-27.81-6.55,10.78,2.7,31.93,4.13,43.5,1.59,12.77,3,28.08,11.85,38.19,6.33,7.19,13.77,1.82,13.9-6.53,2,19,9.39,38.56,29.76,44.43,13.88,4,12.15-11.6,18.16-21.12-3.1,14.72,2.21,33.25,12.91,43.7,4.42-17.27,19.53-26.4,27.3-42.89,7.14-15.16,11.56-34.89-3.63-46.82,11.79,9.8,19.38,18.72,20.23,34.72,16,1.73,22.82-31.58,22.57-42-.13-5.53-.68-28-3.86-32.11a63.65,63.65,0,0,1,4.72,7c13.15,22.6,11,50.44-5.35,71.11C884.9,833.3,855.18,842,854.93,863.43c-.19,15.74,11.7,25.88,2,41,3.43-17.13-26.19-21.62-37.94-24-33.54-6.68-58.23-17.1-75.72-48.17C730.43,809.53,728,780.66,733.54,755.33Z"/><path class="cls-57" d="M608.72,643.31c1.69,21.76,30.49,31.69,48.95,27.59,7.47-1.67,13.83-7.67,20.38-8.67-.87,7.47-7.64,13.14-9,20,19.12,1,34.89-7.4,49.05-18.58-5.69,6.92-8.06,14.86-10.72,22.89,25.45,2.2,53.6-30.65,63.51-51.62-1.58,7.52-5,18.64-1.14,25.5,9.74-4.53,30.78-36.06,24.14-47,5.92,9.77,8.3,21.76,6,34.93-6.09,35.76-53.81,58.22-85.36,64.28-38.13,7.29-82.6-.18-113-25.33-17.27-14.3-37.35-39.85-35.16-64,9.21,16.38,25.35,19.62,42.32,16.82A21.63,21.63,0,0,0,608.72,643.31Z"/><path class="cls-57" d="M817.5,599.18a58.81,58.81,0,0,1,9-10.19,52.22,52.22,0,0,0-3.08,17.65c-.3,20.35,23.45,59.21,47.79,53.92,10-2.19,10.88-10.8,1.84-14.7,13.21,10.06,49.86,21.51,63.35,6.58-5.62-7-16.78-8.88-24.78-11.66,14.76-3.52,50.39,10.27,61-9.48,6.64-12.37-9.06-13.71-18.19-16.27,12.57-1.68,27.3-8.35,35.88-17.9,5.36-5.94,18.38-30.32,11.66-38.36,10.12,12.12,5.94,31.68,2.46,45.72-7.61,30.75-25.55,54.56-54.92,67.6-29.65,13.18-66.4,22.13-98.37,12.37-24.73-7.55-41.5-26.91-43.65-49C806.35,623.68,809.36,611.13,817.5,599.18Z"/><path class="cls-38" d="M779.45,581.6C752.26,597,723.3,566.52,723,540.76c-.22-21.63,11.62-51.46,34.14-58.48C798.2,469.53,805.29,567,779.45,581.6Z"/><path class="cls-38" d="M798.72,510.68c-.1-8.9.54-18,4.67-24.47,14.79-23.06,42.09,4.73,49.72,20.12,6.79,13.67,12,37.58,5.4,52.14-7.32,16-37.68,28.06-50.32,12.51-9.18-11.25-9.22-30.23-9.05-44C799.19,522.22,798.8,516.49,798.72,510.68Z"/><path class="cls-55" d="M750.48,453.37c-12,10.76-42.79,42.91-5,34,10.23-2.43,26-9.54,29.3-20.62C779.48,451,761.69,443.33,750.48,453.37Z"/><path class="cls-55" d="M818.83,448.13c12.85,9.77,46.06,39.36,7.71,33.51-10.39-1.58-26.65-7.42-30.83-18.19C789.72,448.13,806.84,439,818.83,448.13Z"/><path class="cls-57" d="M758.17,474.55c8.36-3.12,14.67-9.66,16.61-17.25a15,15,0,0,1,0,9.48c-3.33,11.08-19.07,18.19-29.3,20.62-19.38,4.55-20.71-1.71-15.79-10.34A58.39,58.39,0,0,0,758.17,474.55Z"/><path class="cls-57" d="M798.83,457.72c-2.74-1.86.64.49,1.21.93,1.12.88,2.21,1.79,3.34,2.67,2.55,2,5.15,4,7.84,5.82a36.72,36.72,0,0,0,16.61,6.62c5.12.56,10.12-.54,13.79-3.41,5.41,8.07,4.43,14.25-15.08,11.29-10.39-1.58-26.65-7.42-30.83-18.19a15,15,0,0,1-.86-9.25A22.56,22.56,0,0,0,798.83,457.72Z"/><path class="cls-58" d="M775.44,567.31c8-4.54,12.19-18.87,12.4-34.32,1.76,18.83-2.26,38.72-12,44.25-22.26,12.62-46-12.36-46.2-33.46,0-1.46,0-2.95.14-4.47C733.49,558.92,755.09,578.86,775.44,567.31Z"/><path class="cls-58" d="M810.93,558.31c10.88,13.36,37.05,3,43.34-10.8a31.38,31.38,0,0,0,2.52-11.33c1,7.88.65,15.75-2.12,21.78-6.3,13.77-32.43,24.15-43.32,10.77-6.83-8.4-7.77-21.79-7.81-32.88C804.27,544.12,806.15,552.42,810.93,558.31Z"/><path class="cls-59" d="M737.83,546.47a24.36,24.36,0,1,0-5-34.09A24.36,24.36,0,0,0,737.83,546.47Z"/><path class="cls-60" d="M742.63,540.05a16.33,16.33,0,1,0-3.31-22.88A16.32,16.32,0,0,0,742.63,540.05Z"/><path class="cls-38" d="M726.58,531.87a7.42,7.42,0,0,1-1.83-3.41c-.08-.68-.16-1.35-.21-2a7.46,7.46,0,0,1,1.15-3.81,5.47,5.47,0,0,1,2-2.06,5.55,5.55,0,0,1,2.63-1.28,5.65,5.65,0,0,1,3-.06,5.55,5.55,0,0,1,2.78,1c.5.4,1,.82,1.51,1.24a7.47,7.47,0,0,1,1.83,3.4c.08.68.16,1.36.22,2a7.55,7.55,0,0,1-1.15,3.79,5.63,5.63,0,0,1-2,2.07,5.71,5.71,0,0,1-2.62,1.28,5.54,5.54,0,0,1-3,.05,5.74,5.74,0,0,1-2.81-1Z"/><path class="cls-38" d="M736.7,513.06c2.71-3.64,8.73.09,6,3.75S734,516.72,736.7,513.06Z"/><path class="cls-38" d="M762.86,522.4a2.9,2.9,0,0,1-1-1,4.51,4.51,0,0,1-.94-1.94,1.24,1.24,0,0,1,0-.22c-.06-.52-.11-1.05-.16-1.56a4.31,4.31,0,0,1,.56-2.26,2.9,2.9,0,0,1,.8-1.27,2.83,2.83,0,0,1,1.08-1,4.24,4.24,0,0,1,2-1l1.58-.16c.52.09,1,.19,1.56.26a4.59,4.59,0,0,1,2,1.13,2.84,2.84,0,0,1,1,1.07,3,3,0,0,1,.7,1.31,4.59,4.59,0,0,1,.45,2.3c-.08.52-.16,1-.26,1.53s-.42.94-.61,1.41l-1,1.14a4.35,4.35,0,0,1-1.91,1.17,4.62,4.62,0,0,1-2.3.44h-.2l-1.49-.24A4.08,4.08,0,0,1,762.86,522.4Z"/><path class="cls-61" d="M867.84,732.34c16,14,32.71,35.78,21.47,57.35-7.56,14.54-13.43.53-20.58-5.89-6-5.36-19-11.86-26.92-7.9,2.66,5.17,8,8.63,10.31,14.29,3.55,8.59,1.92,19.08-2.3,27-3.1,5.9-8.09,15.75-15.25,10.57-6.46-4.66-7.3-19.58-12.65-26.29,1,4.58-4.51,9.14-7.62,11.88-7,6.2-11.83,5.11-19.77-.48-18.64-13.1-33.71-53-36.57-65.14,5.32,16.26,27.09,34.21,45.45,25.34,15.92-7.67,7.37-25.59,15.14-37.56,4.74,9.21,10,27.9,21.77,30.77,17.36,4.22,32.54-24.58,22.81-37.9C864.66,729.64,866.26,731,867.84,732.34Z"/><path class="cls-61" d="M834.15,591.74c7.75-20.43,49.43-16.34,65.36-13.82,28,4.47,53.79,21.2,83,12.05C971.17,609,950.68,610.1,931.82,615c5.87,2.82,23.33,5.89,12.14,14.17-13.53,9.95-43.57,2.25-57.74-1.39,6,2.38,25.28,11,14.87,17.59-11.37,7.21-37.34-9.68-43.6-18.12,7.42,8.56-4.47,11.29-11.15,6.7C831.23,623.61,826.87,601.69,834.15,591.74Z"/><path class="cls-61" d="M782.07,624a7.17,7.17,0,0,0,2.64-2.46c4.2-6.16-3.05-17.85-8-21.29-8.48-6-20.14-9.79-30.47-10.71-34.21-3-57.76,19.2-85.92,33.92-7.17,3.74-22.49,6.76-28,12.13-3.64,3.57-3.37,1.92-.33,5.74,10.77,13.6,44.77,5.87,56.61-.58-5.14,6.64-7.89,20.37,3.3,20.88,7.12.31,18.12-7.39,24.12-10.72,6.37-3.51,13.56-8.25,16.95-15-4.45,10.74-4,19.61,9.11,14,15.88-6.9,20.91-23.8,30.54-36.61C771.74,619.1,777.16,626.5,782.07,624Z"/><path class="cls-62" d="M811.85,542.12a22.14,22.14,0,1,0-4.48-31A22.14,22.14,0,0,0,811.85,542.12Z"/><path class="cls-60" d="M816.21,536.27a14.85,14.85,0,1,0-3-20.78A14.89,14.89,0,0,0,816.21,536.27Z"/><path class="cls-38" d="M801.64,528.83a7,7,0,0,1-1.67-3.11c-.08-.6-.13-1.21-.19-1.83a7,7,0,0,1,1.05-3.46,5.08,5.08,0,0,1,1.84-1.87,4.84,4.84,0,0,1,2.39-1.16,7.65,7.65,0,0,1,5.29.85l1.37,1.13a6.82,6.82,0,0,1,1.67,3.09c.08.62.13,1.22.19,1.83a7,7,0,0,1-1,3.46,5.14,5.14,0,0,1-1.84,1.89,5.3,5.3,0,0,1-2.4,1.17,5,5,0,0,1-2.75,0A4.93,4.93,0,0,1,803,530C802.57,529.57,802.1,529.2,801.64,528.83Z"/><path class="cls-38" d="M810.84,511.74c2.47-3.29,7.93.08,5.45,3.4S808.38,515.06,810.84,511.74Z"/><path class="cls-38" d="M834.59,520.22a2.62,2.62,0,0,1-.88-.93,4,4,0,0,1-.87-1.79.52.52,0,0,1,0-.18c0-.48-.1-.93-.15-1.43a4.32,4.32,0,0,1,.53-2,2.74,2.74,0,0,1,.72-1.14,2.41,2.41,0,0,1,1-.92,3.78,3.78,0,0,1,1.83-.91c.47-.06,1-.09,1.42-.15s.94.16,1.42.24a3.84,3.84,0,0,1,1.77,1,5.26,5.26,0,0,1,1.59,2.18,3.87,3.87,0,0,1,.4,2.08c-.08.47-.17.94-.23,1.4s-.39.85-.58,1.27-.58.7-.86,1a4.19,4.19,0,0,1-1.76,1.07,4.09,4.09,0,0,1-2.07.38l-.18,0-1.35-.23A3.93,3.93,0,0,1,834.59,520.22Z"/></g></g></g></svg>