<svg xmlns="http://www.w3.org/2000/svg" xmlns:xlink="http://www.w3.org/1999/xlink" viewBox="0 0 58.8 68.72"><defs><style>.cls-1{isolation:isolate;}.cls-2,.cls-3{fill:#567f00;}.cls-14,.cls-16,.cls-20,.cls-27,.cls-3,.cls-31,.cls-33,.cls-40,.cls-46,.cls-49,.cls-7,.cls-9{mix-blend-mode:multiply;}.cls-20,.cls-22,.cls-3{opacity:0.53;}.cls-4{fill:#bbb300;}.cls-5{fill:#a4ce03;}.cls-6{fill:#c5c000;}.cls-11,.cls-22,.cls-36,.cls-37,.cls-41,.cls-6{mix-blend-mode:screen;}.cls-33,.cls-37,.cls-6{opacity:0.5;}.cls-27,.cls-7{fill:#9a9c00;}.cls-7{opacity:0.16;}.cls-8{fill:#eaf376;}.cls-9{opacity:0.24;}.cls-10{fill:#799700;}.cls-11{opacity:0.4;}.cls-12{fill:#84a300;}.cls-13,.cls-14{fill:#631300;}.cls-14{opacity:0.44;}.cls-15,.cls-16{fill:#c76300;}.cls-16{opacity:0.27;}.cls-17{fill:#e88000;}.cls-18{fill:#ef1a0b;}.cls-19{fill:#c50f00;}.cls-20,.cls-22{fill:#bc1d0f;}.cls-21{fill:#6d0000;}.cls-23{fill:#fff;}.cls-24,.cls-31{fill:#8d3e00;}.cls-25{fill:#7c0900;}.cls-26{fill:#dedede;}.cls-27{opacity:0.78;}.cls-28{fill:#702d00;}.cls-29{fill:url(#radial-gradient);}.cls-30{fill:#2f1800;}.cls-31{opacity:0.65;}.cls-32,.cls-33,.cls-37{fill:#7e2d00;}.cls-34,.cls-36{fill:#ffd100;}.cls-35{fill:#ffe500;}.cls-38{fill:#bd7c00;}.cls-39{fill:#330900;}.cls-40,.cls-41,.cls-44{fill:#8e3900;}.cls-40,.cls-41{opacity:0.25;}.cls-42{fill:#e08800;}.cls-43{fill:#c55400;}.cls-45,.cls-46,.cls-49{fill:#fbcf00;}.cls-46{opacity:0.61;}.cls-47{fill:#d3d3d3;}.cls-48{fill:#efefef;}.cls-49{opacity:0.79;}</style><radialGradient id="radial-gradient" cx="23.29" cy="41.62" r="1.22" gradientUnits="userSpaceOnUse"><stop offset="0" stop-color="#ffff12"/><stop offset="1" stop-color="#927f00"/></radialGradient></defs><g class="cls-1"><g id="Слой_2" data-name="Слой 2"><g id="Layer_1" data-name="Layer 1"><path class="cls-2" d="M35.37,25.18c-.49,2-.94,4.05-1.52,6a27,27,0,0,0-.91,2.61c-.11.68.32,1.2.61,1.77.39.78.77,1.39.14,2.16-.18.23-.41.54-.73.44s-.36-.47-.48-.59a6.36,6.36,0,0,0-1.6-1.06c-.61-.33-1.22-.64-1.85-.92-.19-.09-.69-.2-.8-.37s.2-.72.48-.94c.77-.58,1.89-.3,2.77-.13.67.13,2-4.77,2.16-5.31a37.55,37.55,0,0,0,1.2-5.29c.71-3.61,1.92-7.7,4.58-10.37A6.49,6.49,0,0,1,43,11.1c.73-.08,2.26,0,2.09,1.17s-3.21,1.18-4,1.49a6.23,6.23,0,0,0-3,2.88C36.47,19.24,36.06,22.31,35.37,25.18Z"/><path class="cls-3" d="M45,11.71l-.08.06c-1.51,1-3.51,1-5.06,2a6.26,6.26,0,0,0-2.23,2.63c-1.67,3.25-1.92,6.66-2.78,10.1a44.2,44.2,0,0,1-1.46,4.62c-.27.74-.62,2.94-1.39,3.24.92.55.72,1.73-.34,1.65a4.79,4.79,0,0,1-2.79-1.51l-.1-.14h0c-.28.22-.69.62-.48.94s.61.28.8.37c.63.28,1.24.59,1.85.92a6.36,6.36,0,0,1,1.6,1.06c.12.12.31.53.48.59s.55-.21.73-.44c.63-.77.25-1.38-.14-2.16-.29-.57-.72-1.09-.61-1.77a27,27,0,0,1,.91-2.61c.58-2,1-4,1.52-6,.69-2.87,1.1-5.94,2.6-8.54a6.23,6.23,0,0,1,3-2.88c.84-.31,3.87-.3,4-1.49A.9.9,0,0,0,45,11.71Z"/><path class="cls-4" d="M32,35.77a8.2,8.2,0,0,1,3.78,4.83C37.39,46,35.88,53.1,31,56.39c-4,2.69-9.84,2.87-12.91-1.25a11.42,11.42,0,0,1-2-4.85C14.68,41.81,22.55,30.48,32,35.77Z"/><path class="cls-5" d="M40,13.1c-1-.69-1.45-1.94-2.72-2.42-2.14-.82-4.59-.67-6.73-1.58a46.82,46.82,0,0,1-7.65-4.4c-1.89-1.28-4.67-2.49-7-2.06C19.29.1,24.73-.63,28.85.55A11.35,11.35,0,0,1,35.08,5C37,7.57,38,10.73,40,13.1Z"/><path class="cls-6" d="M17.42,43.63c-.2,1,0,1.75.93,2s2.38-.89,3.07-1.44c1.31-1.05,2.51-2.1,3.92-3,1.58-1,6.89-4.47,8.73-2.28a4.79,4.79,0,0,0-2.43-2.69,8.66,8.66,0,0,0-10.32,1.11C20.59,38,17.89,41.34,17.42,43.63Z"/><path class="cls-7" d="M34.8,42.4a5,5,0,0,0-3,1.54A45.42,45.42,0,0,0,27,50c-1.46,1.92-3.19,3.9-5.69,4.34-3.32.58-4.8-2.26-5.32-5.37a10,10,0,0,0,.15,1.35,11.42,11.42,0,0,0,2,4.85c3.07,4.12,9,3.94,12.91,1.25C35.3,53.5,37,47.64,36.19,42.61A3.46,3.46,0,0,0,34.8,42.4Z"/><path class="cls-7" d="M34.61,47.54a1.56,1.56,0,0,0-.41-.2c-.93-.27-1.78.84-2.31,1.42-.73.79-1.41,1.64-2.12,2.45a12.59,12.59,0,0,1-5,3.94,7.88,7.88,0,0,1-6.63-1l-.06,0c.13.2.26.4.41.6,2.9,3.89,8.44,3.72,12.18,1.18a10.86,10.86,0,0,0,3.55-4.17C34.66,50.89,35.69,48.38,34.61,47.54Z"/><path class="cls-6" d="M29.73,36.87c-2.25-3.87-7.6-.49-9.64,1.88s-3.38,5.71-2.71,8.79c.86,3.9,4.69,2.32,6.84.67A15.43,15.43,0,0,0,30,40.6,4.35,4.35,0,0,0,29.73,36.87Z"/><path class="cls-8" d="M18.75,40.13c-.33.55-3.45,5.87-1.44,6.13.45.06.88-.81,1.06-1.12.59-1,1.08-2,1.76-3a24.59,24.59,0,0,1,5.44-5.62c.31-.23,1.29-.65,1.36-1,.22-1.21-3.89.3-4.36.58A11.7,11.7,0,0,0,18.75,40.13Z"/><g class="cls-9"><path class="cls-10" d="M34.2,4a1.15,1.15,0,0,1-.11.93c-.53.75-2.13-.34-2.67-.64C29,2.91,25.39,1,22.55,1.7c1.09.3,2.22.32,3.33.69a29,29,0,0,1,3.55,1.5c1.52.74,3.44,1.95,4,3.63s-1.28,1.18-2.33.93C28,7.71,25.72,5.1,22.55,4.25l-.65-.16c.34.19.67.4,1,.61a46.82,46.82,0,0,0,7.65,4.4c2.14.91,4.59.76,6.73,1.58,1.27.48,1.69,1.73,2.72,2.42-2-2.37-3-5.53-4.9-8.07C34.79,4.65,34.5,4.3,34.2,4Z"/></g><g class="cls-11"><path class="cls-5" d="M24.05.23c2-.14,7,0,7.77,2.41a5.09,5.09,0,0,1-2.12-.46A18.15,18.15,0,0,0,26,1.27a19.9,19.9,0,0,0-5.29.24,7.17,7.17,0,0,1,2.8.44,23.17,23.17,0,0,1,4.19,1.4c.95.4,5.09,2.13,4.73,3.69-.26,1.1-5.08-1.82-5.74-2.23a21.23,21.23,0,0,0-5.39-2.23,9,9,0,0,0-2.52-.42,3.1,3.1,0,0,1-.92,0A13,13,0,0,1,24.05.23Z"/></g><g class="cls-9"><path class="cls-10" d="M36.33,6.93h0c-.61.49-2.37-.93-3.1-1.17.54.66,2.14,2.07,1.48,3.09-.82,1.28-2.7.58-4,.3,2.1.84,4.49.72,6.58,1.52,1.27.48,1.69,1.73,2.72,2.42C38.47,11.29,37.54,9,36.33,6.93Z"/></g><g class="cls-9"><path class="cls-10" d="M40.49,14.84a2.44,2.44,0,0,1,.65-.45c0-.47-.07-.94-.08-1.41a7.6,7.6,0,0,0-2,3.83A4.4,4.4,0,0,1,40.49,14.84Z"/></g><path class="cls-5" d="M41.06,13c-1.31,1-1.93,3.61-2.27,5.17a13.76,13.76,0,0,0,1,9A15.76,15.76,0,0,0,45.51,33c2.5,1.53,5.14,1.79,7.88,2.59-.67-1.15-2.28-2.15-3.22-3.14C45.16,27.24,41.26,20.38,41.06,13Z"/><g class="cls-9"><path class="cls-10" d="M45.51,33c2.5,1.53,5.14,1.79,7.88,2.59-.67-1.15-2.28-2.15-3.22-3.14-.32-.33-.63-.67-.94-1,.36,1.3.07,1.86-1.14,1.52a14,14,0,0,1-2.8-1A10.42,10.42,0,0,1,41,27.73a16.27,16.27,0,0,1-1.47-9.27c.09-.7.12-2,1-1.93a1.66,1.66,0,0,1,1.05.78A23.1,23.1,0,0,1,41.06,13c-1.31,1-1.93,3.61-2.27,5.17a13.76,13.76,0,0,0,1,9A15.76,15.76,0,0,0,45.51,33Z"/></g><g class="cls-9"><path class="cls-10" d="M51.62,33.76A5.46,5.46,0,0,1,50,34.1a7.64,7.64,0,0,1-4.45-1.48l-.41-.27a8.5,8.5,0,0,1-.75-.47,13.2,13.2,0,0,1-4.21-4.79,13.14,13.14,0,0,1-1.25-4.2,17.45,17.45,0,0,1-.16-4.43,13.74,13.74,0,0,0,1.09,8.69A15.76,15.76,0,0,0,45.51,33c2.5,1.53,5.14,1.79,7.88,2.59A7.88,7.88,0,0,0,51.62,33.76Z"/></g><g class="cls-11"><path class="cls-5" d="M41.08,17.94c-1.38,1.92-.49,5.92.59,7.73a11.71,11.71,0,0,0,5.18,4.21c-1-1.63-2-3.26-3-4.95a20.62,20.62,0,0,1-1.83-4.46c-.19-.68-.38-2.17-.94-2.59Z"/></g><path class="cls-12" d="M39.88,13.13c-1.82-.33-3.5-1.23-5.4-1.34-1.75-.1-3.34-.84-5.09-1-2.95-.29-5.87.26-8.78.54s-4.7-.53-7.15-2c-.14,2.35-.12,4.44,1.62,6.24A10.09,10.09,0,0,0,24.33,18c4.8-.92,8.94-3.93,14-4.08a2.72,2.72,0,0,0,2.12-.73A3.08,3.08,0,0,1,39.88,13.13Z"/><g class="cls-9"><path class="cls-10" d="M40.41,13.21a3.08,3.08,0,0,1-.53-.08c-1.82-.33-3.5-1.23-5.4-1.34a38.69,38.69,0,0,1-4.38-.91,1.14,1.14,0,0,1,.47.45,55,55,0,0,0-6.52.66c-2,.36-4.84,1.12-6.93.3,3.25,1.59,7.37.13,10.76-.41,1-.17,4.62-.8,5.3.41s-3.17,3.29-4,3.61a28.74,28.74,0,0,1-6.84,1.84,11.4,11.4,0,0,1-4-.09,11.3,11.3,0,0,0,5.94.37c4.8-.92,8.94-3.93,14-4.08A2.72,2.72,0,0,0,40.41,13.21Z"/></g><g class="cls-11"><path class="cls-5" d="M14,10.38c.3,2.46,2.43,4.35,4.62,5.28,2.86,1.21,6.21.49,9-.65.63-.26,5.64-2.39,3.13-3.31-1.13-.42-2.65,0-3.75.32a35.65,35.65,0,0,1-4.45.86c-1.4.17-5.14.72-5.94-.88,3.33.71,7-.49,10.33-1-2-.15-4.08.45-6.11.54a21.12,21.12,0,0,1-3.18-.09,7.68,7.68,0,0,1-3.69-1.7A4.92,4.92,0,0,0,14,10.38Z"/></g><path class="cls-2" d="M47.28,30.19c-.54-.91-1.13-1.79-1.67-2.71s-1.06-1.82-1.52-2.77a41.76,41.76,0,0,1-2.37-5.86c-.35-1.14-.59-2.3-.84-3.46,0,0,0,0,0,0a14.8,14.8,0,0,0,.47,3.11,24.83,24.83,0,0,0,1,3,24.57,24.57,0,0,0,1.33,2.91c.51.95,1.07,1.88,1.63,2.81s1.27,2,2,3C47.25,30.25,47.3,30.22,47.28,30.19Z"/><path class="cls-2" d="M30.68,11.29a11,11,0,0,0-2.07,0,15.76,15.76,0,0,0-2.05.27c-.68.12-1.36.27-2,.4s-1.37.24-2.05.34a20.86,20.86,0,0,1-2.37.21s0,0,0,0a21.14,21.14,0,0,0,4.13-.26c1.38-.19,2.75-.4,4.13-.6.77-.12,1.55-.21,2.33-.3C30.75,11.39,30.73,11.3,30.68,11.29Z"/><path class="cls-2" d="M37,9.29a18.12,18.12,0,0,0-1.52-1.86,14.64,14.64,0,0,0-1.8-1.62,16.73,16.73,0,0,0-4.14-2.39A17,17,0,0,0,27,2.59a0,0,0,0,0,0,0,19.74,19.74,0,0,1,2.25.87c.72.34,1.41.71,2.1,1.11a23.52,23.52,0,0,1,3.78,2.82A21.08,21.08,0,0,1,37,9.33S37,9.33,37,9.29Z"/><path class="cls-2" d="M25.69,2l-1-.25a7.23,7.23,0,0,0-1-.21,9.67,9.67,0,0,0-2.15-.11,0,0,0,0,0,0,.06c.68.13,1.37.22,2.06.31.34,0,.67.09,1,.11a11,11,0,0,1,1.13.16S25.73,2.05,25.69,2Z"/><path class="cls-13" d="M48.9,59.61c-.21-.31-1.08-.28-1.39-.31-1.44-.18-2.86-.23-4.28-.55a13.89,13.89,0,0,1-7-3.59,7.48,7.48,0,0,1-1.7-2.58A11.33,11.33,0,0,1,31,56.39c-3.52,2.39-8.55,2.8-11.78,0a3.76,3.76,0,0,0,.42,1.91,5.33,5.33,0,0,0,1.44,1.44c.4.29.87.4,1.05.82.54,1.25.2,2.8,1.22,3.87s2.37.31,3.61.52a1.84,1.84,0,0,0,2.67,1.48c1.12-.42,2.08-.63,3.08.25a10.81,10.81,0,0,0,2.59-2.37c.42-.59.64-1.14,1.38-1.43.36-.14.8-.15,1.16-.26.06.55,1.75,1.29,2.21,1.78.45-.15,1-.21,1.42-.41.74-.32,1.48-.63,2.23-.91,1.68-.6,4.18-.69,5-2.53C48.82,60.23,49.05,59.84,48.9,59.61Z"/><path class="cls-14" d="M20.82,57.42c.29.73.43,1.48,0,1.85a3.79,3.79,0,0,1,1.38.9,11.83,11.83,0,0,1-.82-2.48A6.28,6.28,0,0,1,20.82,57.42Z"/><path class="cls-14" d="M23.3,58.22c.18.32.34.63.48.9a26.24,26.24,0,0,1,1.94,4.2,1.15,1.15,0,0,1-.29,1.33c.44-.1,1.4-.32,1.79,0-.3-.67-2.33-4.31-2.52-6.34A10.87,10.87,0,0,1,23.3,58.22Z"/><path class="cls-14" d="M47.3,58.32a7.11,7.11,0,0,0-1.9,0,20.34,20.34,0,0,1-2.7-.13c-2.77-.29-7-.91-8.25-3.84-.15-.35-.27-.72-.39-1.08a10.82,10.82,0,0,1-3,3.12,11.31,11.31,0,0,1-4.42,1.79,18,18,0,0,1,2,3.43,11.12,11.12,0,0,1,1.34,4.1,8.89,8.89,0,0,1,3.44.31c-.3-.69.2-1.22.14-1.9a8.93,8.93,0,0,0-1.13-2.35,17.7,17.7,0,0,1-.76-2.11c-.12-.35-.52-1.15-.36-1.55.41-1,2.85,1.76,3.22,2.17.52.59,1.14,1.06,1.7,1.61.16.15.28.35.48.41.27-.89.62-.94,1.51-.67a12.28,12.28,0,0,0,3.28.73c1.57.06,2.73-.82,4-1.65a7.45,7.45,0,0,0,2.49-2.05A1.39,1.39,0,0,0,47.3,58.32Z"/><path class="cls-14" d="M24.54,58.33c-.36,0-.71,0-1.05-.08a34.49,34.49,0,0,0,1.77,3.25,11.18,11.18,0,0,1-.75-2.7A2,2,0,0,1,24.54,58.33Z"/><path class="cls-14" d="M20.81,57.41a0,0,0,0,1,0,0,6.21,6.21,0,0,0,1,2.09,9.18,9.18,0,0,1-.48-1.85Q21.1,57.56,20.81,57.41Z"/><path class="cls-14" d="M45.4,58.32a20.34,20.34,0,0,1-2.7-.13c-2.77-.29-7-.91-8.25-3.84-.15-.35-.27-.72-.39-1.08a10.82,10.82,0,0,1-3,3.12A11.49,11.49,0,0,1,27.53,58c.41.51.75,1.08,1,1.46.8,1.05,1.64,2.53,2.78,3.24a20,20,0,0,1-.84-3.41c-.08-.6-.18-2.5.53-2.78s1.45.69,1.82.94c1.17.8,2.34,1.57,3.57,2.25a7.74,7.74,0,0,0,5.68,1,15.32,15.32,0,0,0,4.44-2.28A11.26,11.26,0,0,0,45.4,58.32Z"/><path class="cls-15" d="M37,55.14a4.92,4.92,0,0,1-1.71-1.77c-.14-.26-.74-1.48-.41-1.72-2.68,2-.79,5.29,1.59,6.45,2.13,1,4.48.86,6.78,1,2,.09,5.5-.34,6.23,2.17.21.72.42,1.45,1.25,1.6a6,6,0,0,0,5-2.38c-3.41,2.12-4.53-3.29-7.19-4.08-2.33-.7-5-.08-7.42-.07A7.59,7.59,0,0,1,37,55.14Z"/><path class="cls-16" d="M43.42,56.38c-1.85.39-3.82.68-5.6-.18a5.93,5.93,0,0,1-1.5-1,4.12,4.12,0,0,1-1.39-2.45c.07,2.37.79,4.79,3.34,5.53,2.06.6,4.22-1.52,6.26-1.73a4.57,4.57,0,0,1,4,1.17c1.07,1.23,1,3.21,2.07,4.42.84,1,2.51.18,3.14-.64-1.18,0-1.86-1-2.55-1.83a9.26,9.26,0,0,0-3.5-3.11A7.62,7.62,0,0,0,43.42,56.38Z"/><path class="cls-16" d="M41.81,56.87c-.62.53-2.55.46-3.31.27a4.51,4.51,0,0,1-2.67-1.69,3.76,3.76,0,0,0,2.61,2.72A4.23,4.23,0,0,0,41.81,56.87Z"/><path class="cls-16" d="M53.25,61.68c-.34.42-2-.77-2.22-1a10.15,10.15,0,0,1-1.65-2.19c.43,1.19.71,2.72,1.72,3.58A1.68,1.68,0,0,0,53.25,61.68Z"/><path class="cls-17" d="M36.68,57.37a3.53,3.53,0,0,1-1.52-2.14,7.42,7.42,0,0,1-.6-2.78c-1.15,1.18-.51,3.23.52,4.23a7.32,7.32,0,0,0,2.56,1.65c2.4.88,5.09.12,7.59.24a8.22,8.22,0,0,1,2.42.39,8.29,8.29,0,0,1,1.46.9,4,4,0,0,0-3-2.69c-2-.31-3.87.85-5.84,1.1A5.39,5.39,0,0,1,36.68,57.37Z"/><path class="cls-18" d="M37.28,42.77c2-.08,1.91,3.16,2.1,4.52.11.79.28,2.34,1.24,2.56s1.68-.65,2.12-1.23a3.19,3.19,0,0,1-1.28,2.77c-.88.46-2.07-.22-2.69-.83a4.58,4.58,0,0,1-1.12-3.2C37.58,46,38.3,44.08,37.28,42.77Z"/><path class="cls-19" d="M37,42.49c.9,2.3-1.57,4.95-1.83,7.2-.22,2,2.74,2.37,2.47,4.21a1.68,1.68,0,0,0,.08-1.79,3.72,3.72,0,0,1-.53-2.2A33,33,0,0,1,38,46.69,5.06,5.06,0,0,0,37,42.49Z"/><path class="cls-20" d="M40.35,49.92c-.73-.25-1-1.16-1.07-1.83-.18-1-.25-2-.36-2.94,0-.31-.16-.63-.17-.95,0,1.47-1.11,3.14-.48,4.59a3,3,0,0,0,1.87,1.78,1.53,1.53,0,0,0,1.58-.88A1.85,1.85,0,0,1,40.35,49.92Z"/><path class="cls-20" d="M37.28,44.56c0-.14.08-.43.11-.53a3.09,3.09,0,0,1,.1,1.9c-.15.5-.83,1.5-.41,2a.73.73,0,0,0,.26-.2,8.32,8.32,0,0,0-.42,2.38,5.61,5.61,0,0,0,.68,2.33c-.48-.54-1.11-.92-1.59-1.46a2,2,0,0,1-.44-2.06C36,47.38,36.91,46.09,37.28,44.56Z"/><path class="cls-21" d="M36.63,41.43a.64.64,0,0,1,.51-.14c.29,0,.77.56.92.81.29.52.23,1.67-.45,1.86C36.55,44.25,36,42,36.63,41.43Z"/><path class="cls-18" d="M32.48,34.09a7.61,7.61,0,0,0-2.2-.74,12.15,12.15,0,0,0-5.09.26,7.94,7.94,0,0,0-2.32.83,4.55,4.55,0,0,0-.84.74,4.42,4.42,0,0,0-.27,1c.79-.49,2.4.19,3.25.41a22,22,0,0,1,7.78,4.23,24.42,24.42,0,0,1,3,2.51c.55.6.94,1.41,1.34.32.63-1.73-.18-4-1-5.58A8.85,8.85,0,0,0,32.48,34.09Z"/><path class="cls-20" d="M36.21,38a10.15,10.15,0,0,0-.92-1.51c.24.33.43,1.24.1,1.58s-.76.09-1.07-.06-1.46-1.22-2-1.11c-.79.16,1.23,1.9-.56,1.71-2.3-.25-4.35-1.84-6.49-2.63-.24-.09-3.29-.84-2.48-1.3A1.76,1.76,0,0,0,21.92,36a3.66,3.66,0,0,1,1.71.31c.46.11.92.18,1.38.3a22,22,0,0,1,7.78,4.23,24.42,24.42,0,0,1,3,2.51c.55.6.94,1.41,1.34.32C37.8,41.89,37,39.61,36.21,38Z"/><path class="cls-20" d="M36.85,39.54c-.32,1.55-1.39.61-2.05-.1-.18-.19-.88-1.17-.92-.57,0,.42.95,1.71-.14,1.65a5.85,5.85,0,0,1-2.36-1.27A14.2,14.2,0,0,0,28,37.66a29.49,29.49,0,0,1,4.83,3.13,24.42,24.42,0,0,1,3,2.51c.55.6.94,1.41,1.34.32A6.18,6.18,0,0,0,36.85,39.54Z"/><path class="cls-22" d="M26.74,33.62a2.11,2.11,0,0,0-1.43.46c-.48.63,1,1.22,1.44,1.4.64.27,1.24.62,1.9.84.37.12,1.3.57,1.65.28s-.43-1.15-.68-1.43c.76-.31,2.22.48,2.91.79a7.27,7.27,0,0,0,1.81.85c.45,0,.4.07.19-.37-1.16-2.4-3.81-2.75-6.24-2.82C28,33.61,27.35,33.58,26.74,33.62Z"/><path class="cls-4" d="M25.43,41.34c.34-1.88-2.17-3.58-3.57-2a3.4,3.4,0,0,0-.66,1.71c-.13,1,.15,2.7,1.5,2.7A3,3,0,0,0,25.43,41.34Z"/><path class="cls-23" d="M25.43,41.79c.34-1.89-2.17-3.58-3.57-2a3.4,3.4,0,0,0-.66,1.71c-.13,1,.15,2.7,1.5,2.7A3,3,0,0,0,25.43,41.79Z"/><path class="cls-24" d="M23.41,38.81l-.86-.25c1-.54,2.49-1.57,3.64-.85,1,.61-.1,1.6-.9,1.52A12.15,12.15,0,0,1,23.41,38.81Z"/><path class="cls-24" d="M27.5,41.62a.84.84,0,0,1-.47-.55c-.19-.66.57-1.29.92-1.73,0,1.54,2.5,1.41,3.2,2.21,0,0-2.12.29-2.4.27A3.6,3.6,0,0,1,27.5,41.62Z"/><path class="cls-25" d="M22.86,45.26A5,5,0,0,0,27,46s-1.59,4.43-3.07,4S22.86,45.26,22.86,45.26Z"/><path class="cls-26" d="M25.18,41.41a2.62,2.62,0,0,1-2.41,2.16c-.93,0-1.28-.88-1.34-1.71-.06.92.23,2.2,1.34,2.2a2.63,2.63,0,0,0,2.41-2.17,1.45,1.45,0,0,0,0-.55A.15.15,0,0,1,25.18,41.41Z"/><path class="cls-23" d="M25.92,46.15a5,5,0,0,1-2.64-.62c-.1.74-.25,1.47-.42,2.19.11,1,.39,2,1.07,2.24s1.56-.83,2.15-1.91C26,47.42,26,46.78,25.92,46.15Z"/><path class="cls-24" d="M24.14,44.11a8,8,0,0,0-2.9-.71c-1.65-.22-1.86-1.15-2.9-2.15-.52,1,0,2.74,1.32,2.79-1.45,0-1,1.53.41,1.15-.29.07-.88.43-.79.84.18.75,1.87.06,2.23-.11a.33.33,0,0,0-.12.55c.56.5,1.34,0,1.76-.46,0,.05,0,.19,0,.24C23.75,46.31,24.79,44.67,24.14,44.11Z"/><path class="cls-24" d="M25.41,45.15c.37-1.29,2.47-.67,3.24-.24,1.35.75,2.86,1.82,4.48,1.25h0c-.21,1-.81,1.75-2,1.15.41.16.32.51.1.83-.56.78-1.41.26-2-.1.11.38-.14.33-.54.38a1.7,1.7,0,0,1-1.67-1.17c.16,1.07-1,0-1.3-.34C24.93,45.88,25.32,45.42,25.41,45.15Z"/><path class="cls-27" d="M31,44.36a7.39,7.39,0,0,1-2.35-.51c-.36-.09-1.81-.36-2.08-.09,1-1,3.26-1.8,4.44-.64-.78.41-1.91-.11-2.59.32A3.84,3.84,0,0,1,31,44.36Z"/><path class="cls-28" d="M24.27,44.71c-.26.22-.41.5-.78.62s-1.14,0-.6-.36c-.35.14-1.34.72-1.7.32-.2-.24.26-.38.42-.48-.41,0-1.27.07-1.48-.4-.13-.28.18-.61.42-.71a4.08,4.08,0,0,1-1.46-.57c-.27-.21-1-.84-.93-1.23A1.78,1.78,0,0,0,19.66,44c-1.45,0-1,1.53.41,1.15-.29.07-.88.43-.79.84.18.75,1.87.06,2.23-.11a.33.33,0,0,0-.12.55c.56.5,1.34,0,1.76-.46,0,.05,0,.19,0,.24.32,0,.61-.3.79-.53a1.64,1.64,0,0,0,.3-.55C24.24,45.08,24.21,44.76,24.27,44.71Z"/><path class="cls-28" d="M25.48,45.2l.1-.15a1.68,1.68,0,0,0,.66,1.42c.19.15.64.41.82.11s0-.46,0-.65c0,.37.72.82,1,1s.57.34.7.12-.09-.42-.11-.54c.11.43,1.06.71,1.41.78s1.24,0,.6-.49c.24.34,1.1.22,1.43.09a2.28,2.28,0,0,0,.81-.63h0a.57.57,0,0,0,.29-.08h0c-.21,1-.81,1.75-2,1.15.41.16.32.51.1.83-.56.78-1.41.26-2-.1.11.38-.14.33-.54.38a1.7,1.7,0,0,1-1.67-1.17c.16,1.07-1,0-1.3-.34a2,2,0,0,1-.53-1.07A.84.84,0,0,1,25.48,45.2Z"/><path class="cls-29" d="M24.51,41.62a1.22,1.22,0,1,1-1.22-1.22A1.22,1.22,0,0,1,24.51,41.62Z"/><path class="cls-30" d="M24,41.62a.67.67,0,1,1-.67-.68A.67.67,0,0,1,24,41.62Z"/><path class="cls-23" d="M24.44,41.21a.57.57,0,0,0-.12-.23l-.1-.07a.49.49,0,0,0-.24-.08.41.41,0,0,0-.19,0,.42.42,0,0,0-.17.1.4.4,0,0,0-.1.15.41.41,0,0,0-.05.18c0,.05,0,.09,0,.13a.51.51,0,0,0,.12.23l.1.08a.48.48,0,0,0,.24.07.4.4,0,0,0,.19,0,.42.42,0,0,0,.17-.1.36.36,0,0,0,.1-.15.41.41,0,0,0,.05-.19S24.44,41.26,24.44,41.21Z"/><path class="cls-23" d="M22.71,41.72s0,0,0,0h-.05a.1.1,0,1,0,0,.19A.1.1,0,0,0,22.71,41.72Z"/><path class="cls-23" d="M22.76,42.37a.3.3,0,0,0-.08-.16l-.07-.06a.43.43,0,0,0-.18-.06.32.32,0,0,0-.14,0,.24.24,0,0,0-.12.07.44.44,0,0,0-.08.11.32.32,0,0,0,0,.14s0,.06,0,.09a.32.32,0,0,0,.09.17s0,0,.07,0a.35.35,0,0,0,.17.06.32.32,0,0,0,.14,0,.19.19,0,0,0,.12-.07.28.28,0,0,0,.08-.11.31.31,0,0,0,0-.13A.34.34,0,0,0,22.76,42.37Z"/><path class="cls-27" d="M30.23,44.21c-.44.15-1.12-.24-1.55-.36a11,11,0,0,0-1.61-.18,3.22,3.22,0,0,1,1.5-.62,3.3,3.3,0,0,1,1.13,0c.15,0,.42,0,.49.15a2.68,2.68,0,0,1-.9.09,2.27,2.27,0,0,0-.45,0,1.78,1.78,0,0,0-.58.22,11,11,0,0,1,1.27.25C29.75,43.82,30.2,44,30.23,44.21Z"/><path class="cls-31" d="M24.67,38.8a1.67,1.67,0,0,1-1.17-.73l0,0c-.34.18-.66.37-.93.52l.86.25a12.15,12.15,0,0,0,1.88.42,1.24,1.24,0,0,0,1.28-.87A3.12,3.12,0,0,1,24.67,38.8Z"/><path class="cls-31" d="M30.69,41.23l-.16,0a9.6,9.6,0,0,1-1.61.09,1.89,1.89,0,0,1-1.63-.75,1.48,1.48,0,0,1-.12-.29,1,1,0,0,0-.14.77.84.84,0,0,0,.47.55,3.6,3.6,0,0,0,1.25.2c.28,0,2.35-.32,2.4-.27A1.57,1.57,0,0,0,30.69,41.23Z"/><path class="cls-32" d="M16,48a136.06,136.06,0,0,1,16.5,7.23,6.46,6.46,0,0,1-2.26,1.68,81.26,81.26,0,0,0-13.83-5.53A18.47,18.47,0,0,1,16,48Z"/><path class="cls-33" d="M29,53.46a1.52,1.52,0,0,1-1.58,1.23,3.74,3.74,0,0,1-2.24-1,3.83,3.83,0,0,1-1.24-2.5h0l-1.11-.47a1.41,1.41,0,0,1,0,.46,1.43,1.43,0,0,1-1,1.14,1.78,1.78,0,0,1-2.16-.71,1.3,1.3,0,0,1-.14-.39,2.48,2.48,0,0,1-2.74-.73,3.35,3.35,0,0,1-.68-1c.12,1,.32,1.93.32,1.93A81.26,81.26,0,0,1,30.21,56.9a6.46,6.46,0,0,0,2.26-1.68C31.29,54.6,30.11,54,29,53.46Z"/><path class="cls-33" d="M30.27,54.09a2.39,2.39,0,0,1-.43.78,2.2,2.2,0,0,1-2.54.45,4.45,4.45,0,0,1-1.9-1.22,5.31,5.31,0,0,1-.76-1.8,2.48,2.48,0,0,0-1.19-1.22c.05.19.26.64.19.85s-.22.11-.4.17-.28.29-.45.41a2,2,0,0,1-1.67,0,1.75,1.75,0,0,1-1.26-1.14,1,1,0,0,1,.72-1.14,1.67,1.67,0,0,0-1.39,1c-.17.32-.24.56-.61.53a4.18,4.18,0,0,1-1.53-.5,6.92,6.92,0,0,1-.78-.44c.06.36.11.6.11.6A81.26,81.26,0,0,1,30.21,56.9a6.46,6.46,0,0,0,2.26-1.68C31.73,54.83,31,54.45,30.27,54.09Z"/><path class="cls-34" d="M22.53,50c-1.48-.61-3-.3-3.43.7s.47,2.3,2,2.91,3,.29,3.43-.7S24,50.58,22.53,50ZM24,52.66c-.3.72-1.51.9-2.71.41s-1.93-1.47-1.63-2.19,1.5-.89,2.7-.4S24.26,52,24,52.66Z"/><path class="cls-35" d="M24.37,52.6c0-.24-.47-.34-.67-.39a.24.24,0,0,0-.14.46c.1,0,.25.12.4.17l.08.06a.23.23,0,0,0,.32,0A.23.23,0,0,0,24.37,52.6Z"/><path class="cls-36" d="M19.45,50.69c-.38.13-.25.81-.16,1.08a2.36,2.36,0,0,0,.67,1,2.72,2.72,0,0,0,1.66.72,3.49,3.49,0,0,1-2-1.5A1.76,1.76,0,0,1,19.45,50.69Z"/><path class="cls-36" d="M24.39,52.3a2.79,2.79,0,0,0-1.93-2.23,3,3,0,0,0-1.05-.3c.35.15.73.21,1.06.37a4.91,4.91,0,0,1,.91.66A3.76,3.76,0,0,1,24.39,52.3Z"/><path class="cls-37" d="M18.58,50.21c.3-.15.81-.37,1-.68a17.66,17.66,0,0,0-2.63-1c-.14,0-.56-.22-.61-.05s.3.68.45.88a2.93,2.93,0,0,0,.9.74A1,1,0,0,0,18.58,50.21Z"/><path class="cls-37" d="M21.6,51.51c.26,0,.93-.41.79-.76S21,50.4,20.6,50.51s-.42.15-.23.46A1.14,1.14,0,0,0,21.6,51.51Z"/><path class="cls-37" d="M25.53,53.23a1.6,1.6,0,0,0,1.57.45c1.09-.4-.12-1-.63-1.22-.26-.09-.5-.19-.75-.3s-.51-.22-.69-.13.06.64.18.82A1.85,1.85,0,0,0,25.53,53.23Z"/><path class="cls-30" d="M18.18,55.2l-.05-.06A9.1,9.1,0,0,1,17.42,54c-.69.5-1.39,1-2.06,1.5s-1.17.88-1.76,1.32c-.34.25-1,.56-1.11,1s.38,1.32.59,1.8a35.07,35.07,0,0,1,2,5.21,1.15,1.15,0,0,0,.25-.12,7.85,7.85,0,0,0-.26-1.55,21.05,21.05,0,0,0-.43-2.64,4.66,4.66,0,0,0-1.25-2.38c.07.06,3.6-2.15,3.93-2.36S17.91,55.42,18.18,55.2Z"/><path class="cls-38" d="M13.26,62.67l-.36-.41c-.21-.24-1.2-1.12-.94-1.51.44-.66,2.9-.24,3.4.26.68.67.23,2.32.26,3.17a17.76,17.76,0,0,0,.73,3c.14.64-.23,1.21-.93,1.1,0,0-.09-.16-.1-.18.09.81-2,.76-2.42.36s-.16-.49.22-.52.4.06.7-.11a1.64,1.64,0,0,0,.84-1.41A5.87,5.87,0,0,0,13.26,62.67Z"/><path class="cls-39" d="M12.91,68c-.22.07-.26.24,0,.48.41.4,2.51.45,2.42-.36,0,0,.08.18.1.18.7.11,1.07-.46.94-1.1C15.46,68.06,13.92,68.74,12.91,68Z"/><path class="cls-40" d="M16.35,67.16a17.76,17.76,0,0,1-.73-3c0-.85.42-2.5-.26-3.17a4.34,4.34,0,0,0-3-.5,2,2,0,0,1,2.21,1.07,4,4,0,0,1,.42,1.67c.05.65.34,1.24.44,1.88a2.36,2.36,0,0,1-1.54,2.69l-.1,0a.72.72,0,0,1-.3.06,2.07,2.07,0,0,1-.43,0c-.3.06-.39.24-.11.51s2.51.45,2.42-.36c0,0,.08.18.1.18C16.12,68.37,16.49,67.8,16.35,67.16Z"/><path class="cls-41" d="M13.75,61.3A2,2,0,0,1,14.43,63c0,.19,0,.36,0,.55a1.31,1.31,0,0,0,.28.58,1.7,1.7,0,0,1,.17,1.71c-.09-.28-.13-.6-.2-.89a6.73,6.73,0,0,0-1.84-3c-.17-.15-.81-.66-.59-.93S13.52,61.14,13.75,61.3Z"/><path class="cls-40" d="M16.35,67.16a14.5,14.5,0,0,0-.45-1.54,3.08,3.08,0,0,1-.26,1.4A1.89,1.89,0,0,1,13,68h0c-.25.07-.31.24,0,.49.41.4,2.51.45,2.42-.36,0,0,.08.18.1.18C16.12,68.37,16.49,67.8,16.35,67.16Z"/><path class="cls-30" d="M33.23,62.39c-.24,0-.48,0-.65,0-.52,0-1,0-1.57,0a21.19,21.19,0,0,0-2.52,0,7,7,0,0,0-1.2.41c-.82-1.9-.93-4.28-1.31-6.31-.09-.46-.29-2-1-1.54-1.15.69.11,3.85.41,4.72.45,1.35,1.1,2.6,1.62,3.93a16,16,0,0,0,3.38-.22,8.79,8.79,0,0,0,3.4-.9A1,1,0,0,0,33.23,62.39Z"/><path class="cls-38" d="M31.51,63.83,31,64c-.29.13-1.44.78-1.73.42-.48-.63.7-2.83,1.32-3.15.86-.43,2.28.52,3.09.76a16.63,16.63,0,0,0,3.06.25c.66.08,1.08.61.76,1.24l-.21,0c.8.18.08,2.15-.43,2.42s-.51,0-.42-.38.18-.36.12-.7a1.7,1.7,0,0,0-1.07-1.25A5.87,5.87,0,0,0,31.51,63.83Z"/><path class="cls-39" d="M36.41,65.84c0,.23.15.33.45.17.51-.27,1.23-2.24.43-2.42l.21,0a.84.84,0,0,0-.75-1.24C37.32,63.46,37.48,65.13,36.41,65.84Z"/><path class="cls-40" d="M36.74,62.32a16.63,16.63,0,0,1-3.06-.25c-.81-.24-2.23-1.19-3.09-.76a4.38,4.38,0,0,0-1.43,2.74,2,2,0,0,1,1.71-1.76,4,4,0,0,1,1.72.14c.63.15,1.28.06,1.92.18a2.33,2.33,0,0,1,2.06,2.3V65a.74.74,0,0,1,0,.31,2.77,2.77,0,0,1-.12.41c0,.3.09.45.44.27.51-.27,1.23-2.24.43-2.42l.21,0C37.82,62.93,37.4,62.4,36.74,62.32Z"/><path class="cls-41" d="M30.37,62.93a2,2,0,0,1,1.81-.11,4.44,4.44,0,0,0,.52.15,1.28,1.28,0,0,0,.64-.08,1.71,1.71,0,0,1,1.67.39c-.29,0-.6-.07-.9-.09a6.65,6.65,0,0,0-3.44.79c-.2.11-.88.56-1.07.26S30.14,63.1,30.37,62.93Z"/><path class="cls-40" d="M36.74,62.32c-.54-.06-1.07,0-1.6-.06a3.2,3.2,0,0,1,1.25.7,1.9,1.9,0,0,1,0,2.83h0c0,.26.13.37.45.21.51-.27,1.23-2.24.43-2.42l.21,0C37.82,62.93,37.4,62.4,36.74,62.32Z"/><path class="cls-42" d="M13.36,14.26c-.08-.41-.66-.25-.62.14a31.87,31.87,0,0,1-.68,11.39A50.72,50.72,0,0,1,8,36.45C4.62,43.18.18,49.92,0,57.7a16.12,16.12,0,0,0,3.3,10.55c.32.4.89-.14.57-.54-4.72-6-3.23-14.08-.42-20.53C5,43.54,7.07,40.11,8.84,36.56a51.22,51.22,0,0,0,3.9-10.2A27.5,27.5,0,0,0,13.36,14.26Z"/><path class="cls-43" d="M13.36,14.26a.28.28,0,0,0-.09-.17c.37.34.24,2.21.25,2.7,0,1,0,1.95-.09,2.92A38.48,38.48,0,0,1,9.06,35.17c-1,2-2.17,4.1-3.12,6.13C4.36,44.69,2.8,48.1,1.22,51.5a.82.82,0,0,1-.31.33A24,24,0,0,0,0,57.7a16.12,16.12,0,0,0,3.3,10.55c.32.4.89-.14.57-.54-4.72-6-3.23-14.08-.42-20.53C5,43.54,7.07,40.11,8.84,36.56a51.22,51.22,0,0,0,3.9-10.2A27.5,27.5,0,0,0,13.36,14.26Z"/><path class="cls-44" d="M46.14,43.53A6.54,6.54,0,0,0,45,45c-.38.53-.78,1.06-1.18,1.59-.16.23-.44.48-.49.76a.3.3,0,0,0,.42.07c.15-.07.35-.42.45-.54a28,28,0,0,0,2.44-3.23,1.43,1.43,0,0,0-.37-.23Z"/><path class="cls-30" d="M44.41,44.87l0,.06c-1.11,1.46-2.92,2-4.52,2.67a5.52,5.52,0,0,0-1.61,1.16,3.77,3.77,0,0,1-1.64.77,20.84,20.84,0,0,1-3.05.61c-.44.07-2.64.47-2.11,1.33.37.62,2.88-.43,3.4-.58,1.18-.35,2.33-.77,3.48-1.22a14.64,14.64,0,0,0,3-1.28,13.13,13.13,0,0,0,1.35-1.23,6.53,6.53,0,0,1,1.29-1c.31-.15.51-.07.82-.15a1.34,1.34,0,0,0,.94-1c.08-.37.09-.74-.4-.67A1.48,1.48,0,0,0,44.41,44.87Z"/><path class="cls-45" d="M45.92,43.1a2.58,2.58,0,0,0-1.83,1.23c-.39.87.66,1.91,1.46,2.1.42.1.91-.58,1.14-1A2.86,2.86,0,0,0,47,44.2C47.06,43.29,46.54,43,45.92,43.1Z"/><path class="cls-45" d="M43.27,48c.61.34,1.26-.82.62-1.09S42.59,47.63,43.27,48Z"/><path class="cls-46" d="M46.81,43.37s0,.09,0,.13,0,.21-.07.32a1.61,1.61,0,0,1-.71,1,1.28,1.28,0,0,1-1.75-.48.53.53,0,0,1-.08-.17l-.09.15c-.39.87.66,1.91,1.46,2.1.42.1.91-.58,1.14-1A2.86,2.86,0,0,0,47,44.2,1.21,1.21,0,0,0,46.81,43.37Z"/><path class="cls-47" d="M46.29,43.28s10.72-11.2,12-16.42a11.61,11.61,0,0,1,0,7.17C57,38.22,46.77,44,46.77,44Z"/><path class="cls-48" d="M58.34,27.13a14.92,14.92,0,0,1-3.75,10.32,22.68,22.68,0,0,1-4.17,3.84c-1.23.88-2.54,1.63-3.83,2.41l.18.26S57,38.22,58.25,34A11.88,11.88,0,0,0,58.34,27.13Z"/><path class="cls-49" d="M44,44.61c-.11.8.81,1.65,1.53,1.82.42.1.91-.58,1.14-1a.59.59,0,0,0,0-.08A1.71,1.71,0,0,1,44,44.61Z"/><path class="cls-30" d="M18.08,40.48a12.08,12.08,0,0,1-1-1.21,9.31,9.31,0,0,1-1.41-2.86,6.51,6.51,0,0,0-1.46-2.15,15.83,15.83,0,0,1-1.62-2.7,3.39,3.39,0,0,1-.23-2.75c0-.11.3-.51.25-.61-.24-.53-.9.72-.93,1-.26.09-.51-.18-.81-.12-.6.12-.67,1-.55,1.48a.61.61,0,0,0,1.05.29c.22.42.57.74.81,1.15a5.91,5.91,0,0,1,.62,1.44,17.11,17.11,0,0,0,1,3A11.19,11.19,0,0,0,15.14,38c.9,1.12,1.44,2.58,2.25,3.79C17.6,41.36,17.83,40.91,18.08,40.48Z"/></g></g></g></svg>