<?xml version="1.0" encoding="UTF-8"?><svg xmlns="http://www.w3.org/2000/svg" xmlns:xlink="http://www.w3.org/1999/xlink" viewBox="0 0 128.95 192.95"><defs><style>.m{fill:#3a070b;}.n{fill:url(#l);}.o{fill:#d58e58;}.o,.p,.q,.r{fill-rule:evenodd;}.s{fill:url(#k);}.s,.t,.u,.v,.w,.p{mix-blend-mode:multiply;}.x{fill:#3f020e;}.y{isolation:isolate;}.t{fill:#823b47;}.u{fill:#ae413a;}.a`{fill:url(#f);}.aa{fill:url(#j);}.aa,.ab,.ac,.r{mix-blend-mode:screen;}.ab{fill:#4b2413;}.ad{fill:#771339;}.v{opacity:.35;}.ae{fill:url(#d);}.af{fill:url(#e);}.w{opacity:.6;}.p{fill:url(#g);}.q{fill:#ffad66;}.ac{fill:url(#i);}.r{fill:url(#h);opacity:.53;}.ag{fill:#7c2409;}</style><linearGradient id="d" x1="3506.04" y1="192.61" x2="3519.18" y2="144.46" gradientTransform="translate(3580.48) rotate(-180) scale(1 -1)" gradientUnits="userSpaceOnUse"><stop offset="0" stop-color="#87251b"/><stop offset=".43" stop-color="#560f15"/><stop offset=".72" stop-color="#4a0b10"/><stop offset="1" stop-color="#3a070b"/></linearGradient><linearGradient id="e" x1="3455.57" y1="137.98" x2="3524.94" y2="137.98" gradientTransform="translate(3580.48) rotate(-180) scale(1 -1)" gradientUnits="userSpaceOnUse"><stop offset="0" stop-color="#87251b"/><stop offset="1" stop-color="#560f15"/></linearGradient><linearGradient id="f" x1="3464.65" y1="133.47" x2="3553.06" y2="133.47" gradientTransform="translate(3580.48) rotate(-180) scale(1 -1)" gradientUnits="userSpaceOnUse"><stop offset="0" stop-color="#f57c33"/><stop offset=".12" stop-color="#e66b2a"/><stop offset=".35" stop-color="#bf4013"/><stop offset=".53" stop-color="#9f1b00"/><stop offset=".72" stop-color="#7e1b00"/><stop offset=".85" stop-color="#6f1b00"/></linearGradient><linearGradient id="g" x1="3478.92" y1="14.76" x2="3548.76" y2="84.61" gradientTransform="translate(3580.48 -1.57) rotate(179.71) scale(1 -1)" gradientUnits="userSpaceOnUse"><stop offset=".26" stop-color="#fff"/><stop offset=".37" stop-color="#f5ebec"/><stop offset=".6" stop-color="#dcb9be"/><stop offset=".93" stop-color="#b36a73"/><stop offset="1" stop-color="#ab5963"/></linearGradient><linearGradient id="h" x1="3469.39" y1="5.23" x2="3516.53" y2="52.37" gradientTransform="translate(3580.48 -1.57) rotate(179.71) scale(1 -1)" gradientUnits="userSpaceOnUse"><stop offset="0" stop-color="#ff8e4a"/><stop offset="1" stop-color="#000"/></linearGradient><linearGradient id="i" x1="-5029.39" y1="-2725.12" x2="-5022.48" y2="-2785.5" gradientTransform="translate(3660.48 -192.9) rotate(48.59) scale(.44 -1.02)" gradientUnits="userSpaceOnUse"><stop offset=".22" stop-color="#ff8e4a"/><stop offset="1" stop-color="#000"/></linearGradient><linearGradient id="j" x1="3454.08" y1="54" x2="3561.28" y2="54" xlink:href="#h"/><linearGradient id="k" x1="3527.31" y1="34.57" x2="3558.01" y2="34.57" gradientTransform="translate(3580.48) rotate(-180) scale(1 -1)" gradientUnits="userSpaceOnUse"><stop offset="0" stop-color="#823b47"/><stop offset=".18" stop-color="#a06a73"/><stop offset=".5" stop-color="#d2b9be"/><stop offset=".73" stop-color="#f2ebec"/><stop offset=".84" stop-color="#fff"/></linearGradient><linearGradient id="l" x1="3489.39" y1="39.08" x2="3560.09" y2="109.78" gradientTransform="translate(3580.48) rotate(-180) scale(1 -1)" gradientUnits="userSpaceOnUse"><stop offset="0" stop-color="#560f15"/><stop offset="1" stop-color="#87251b"/></linearGradient></defs><g class="y"><g id="a"/><g id="b"><g id="c"><g><path class="x" d="M68.63,143.41c-2.14-7.28,14.75,21.18,10.64,21.44-2.87,.18-5.26,7.66-8.57,15.77,0,.01-.13,.38-.34,.85l.33-.83c-.14,.34-.28,.68-.41,1,.03-.06,.06-.12,.08-.17l-2.26,5.63-6.78,.42s-5.73,.59-5.42-4.73c.22-3.71,4.42-4.95,7.63-4.2,1.75-6.38,7.25-27.84,5.09-35.19Z"/><g class="v"><path class="ad" d="M72.57,175.91s-11.73,11.82-12.83,11.56c-1.1-.26-2.13-.75-2.13-.75l10.29-17.54,6.79,1.57-2.12,5.16Z"/></g><path class="ae" d="M66.84,152.17c.38-7.58,.54-11.48,.54-11.48h9.52s-.7,5.54,.32,11.89c.95,5.92,7.86,22.09,18.13,32.33,1.34-3.83,7.64-3.86,9.52,.64,1.45,3.47-.92,5.16-2.44,5.85-.61,.28-1.27,.4-1.94,.4h-8.68s-15.83-19.81-19.06-19.97c-2.87-.14-10.44,9.57-16.25,16.14,0,.01-.24,.31-.6,.69l.58-.68c-.25,.28-.48,.55-.72,.81,.04-.05,.09-.09,.13-.14l-3.7,4.28h-6.28c-.67,0-1.33-.13-1.94-.4-1.52-.69-3.88-2.38-2.44-5.85,1.43-3.43,6.2-3.67,8.99-1.9,3.76-5.44,15.91-24.97,16.29-32.63Z"/><g class="w"><path class="ad" d="M76.7,150.24c-1.43,1.83-9.77,0-9.77,0l.44-9.55h9.52l-.2,9.55Z"/></g><g class="w"><path class="ad" d="M72.76,171.84c-2.87-.14-10.44,9.57-16.25,16.14,0,.01-.24,.31-.6,.69l.58-.68c-.25,.28-.48,.55-.72,.81,.04-.05,.09-.09,.13-.14l-3.7,4.28h-1.74s19.83-34.79,23.36-29.74c3.53,5.04,20.13,28.6,22.31,28.6h-4.33s-15.83-19.81-19.06-19.97Z"/></g><path class="u" d="M95.21,185.61c.36,2.13,4.3,3.03,5.33,2.61,1.03-.42-.16-3.88-1.03-4.07-.87-.19-1.55,1.19-1.03,1.79,.52,.6-.42,.72-1-.54-.58-1.26,.03-1.92,2.71-1.68,2.68,.24,2.52,3,.61,5.03-1.91,2.04-4.14,.84-4.94-.96-.81-1.8-.65-2.19-.65-2.19Z"/><path class="u" d="M51.1,187.69s.85,3.51-2.64,3.62c-4.03,.12-6.11-2.67-5.16-3.62,.95-.95,3.39-2.81,5.09-2.01,1.7,.8,.14,3.04-.85,3.26-.99,.21-1.63-.92-1.1-1.18,.53-.26,1.66-.21,1.38,.74,0,0,1.48-.32,.25-1.63-1.23-1.31-3.14-1.05-3.85,1.23-.72,2.28,2.08,3.13,3.25,2.83,1.17-.3,2.77-1.74,3.63-3.24Z"/><polygon class="m" points="93.56 120.99 91.86 120.87 52.12 13.89 53.17 13.44 93.56 120.99"/><path class="af" d="M27.41,133.09c.46-1.1,88.41,0,88.41,0,0,0,.12,5.32-.26,6.17,0,2.89-19.67,4.1-44.09,4.1s-44.32-1.21-44.32-4.1c0,0-.2-5.07,.26-6.17Z"/><path class="a`" d="M27.41,133.09c0,.78,19.65,2.17,44.06,2.17s44.35-1.39,44.35-2.17-19.79-1.41-44.2-1.41-44.2,.63-44.2,1.41Z"/><path class="m" d="M76.89,132.62s-5.28,1.45-9.52,0v-8.35h9.52v8.35Z"/><g><path class="q" d="M72.88,7.05c-30.81,.16-55.66,24.89-55.5,55.23,.16,30.35,25.26,54.82,56.07,54.66,30.81-.16,55.66-24.89,55.5-55.23-.16-30.35-25.26-54.82-56.07-54.66h0Z"/><path class="o" d="M71.34,5.13c-31,.16-56,25.42-55.84,56.41,.16,31,25.42,56,56.41,55.84,31-.16,56-25.42,55.84-56.41-.16-31-25.42-56-56.41-55.84h0Z"/><path class="ag" d="M37.5,58c1.22,.07,2.43,.13,3.65,.2,1.37,.08,2.34-.61,2.9-2.12,.21-.56,.41-1.12,.67-1.64,.39-.81,.52-1.62,.28-2.55-.23-.89,.14-1.68,.42-2.49,.49-1.4,.94-2.82,1.35-4.25,.36-1.27,.1-2.44-.58-3.5-.36-.56-.73-1.11-1.03-1.71-.34-.68-.06-1.22,.62-1.17,.59,.04,1.17,.19,1.75,.25,.5,.05,1.01,.04,1.25-.64,.2-.56-.02-1.24-.53-1.72-.76-.7-1.62-.75-2.45-.31-.66,.34-1.14,.27-1.68-.34-.78-.88-1.16-.88-2.01-.11-.79,.72-1.7,.93-2.65,1-.68,.04-1.19,.34-1.71,.91-.37,.41-1.01,.61-1.55,.66-.76,.08-1.54,.01-2.29-.13-1.87-.36-3.21,.58-4.23,2.31-.38,.65-.73,1.34-1.01,2.06-.41,1.06-1.08,1.67-1.98,2.03-1.32,.53-2.4,1.46-3.27,2.75-.75,1.11-1.01,2.42-1.1,3.79-.16,2.71-.3,5.42-.46,8.13-.1,1.75,.23,3.36,1.1,4.77,.79,1.29,1.21,2.72,1.28,4.3,.2,4.44,1.71,8.22,4.06,11.59,.75,1.08,1.38,2.31,2.51,2.91,.26,.14,.71,.28,.84,.13,.21-.24,.35-.73,.31-1.09-.06-.54-.28-1.07-.46-1.58-.31-.88-.27-1.71,.06-2.58,.41-1.08,.77-2.2,1.13-3.31,.21-.66,.55-1.09,1.14-1.29,.76-.25,.97-.55,.94-1.51-.07-2.22-.19-4.44-.32-6.66-.09-1.59-.25-3.17-.33-4.76-.07-1.44,.29-1.98,1.47-2.22,.63-.13,1.29-.13,1.93-.19v.08Z"/><path class="ag" d="M92.1,19.01c-2.3,.04-3.71,.89-4.83,2.45-.49,.67-.95,1.37-1.44,2.04-.64,.89-1.46,1.32-2.44,1.29-.31,0-.63,0-.94-.01-1.52-.07-2.61,.75-3.29,2.32-.64,1.47-1.22,2.98-1.81,4.48-.27,.69-.06,1.49,.55,1.95,.47,.35,1.02,.61,1.56,.79,.58,.19,1.2,.25,1.8,.36,.8,.15,1.54-.03,2.18-.59,.93-.82,1.86-1.64,2.73-2.55,1.03-1.09,2.17-1.53,3.53-1.28,.76,.14,1.53,.15,2.28,.33,.82,.19,1.64,.45,2.43,.79,.99,.43,1.4,.32,1.97-.76,.04-.08,.09-.16,.12-.24,.33-.9,.87-1.27,1.7-1.04,.23,.06,.47,.06,.7,.03,.66-.06,1.09-.51,.99-1.27-.26-1.93-.47-3.88-2.12-5.06-.97-.69-1.79-1.67-2.69-2.51-1.04-.96-2.19-1.55-2.97-1.53Z"/><path class="ag" d="M40.47,80.41c0-.51-.02-1.03,0-1.54,.04-1.18,.4-1.58,1.41-1.56,.45,.01,.9,.08,1.35,.13,1.05,.12,1.9-.29,2.44-1.41,.54-1.12,.56-2.29-.1-3.3-.7-1.06-.82-2.18-.62-3.43,.06-.38,.07-.8,.03-1.19-.08-.9-.49-1.38-1.24-1.52-1.26-.23-2.52-.46-3.78-.66-1.67-.27-3.07,1.8-2.59,3.73,.18,.72,.32,1.51,.27,2.25-.04,.55-.35,1.13-.65,1.59-.39,.62-.68,1.25-.69,2.03-.02,1.73-.06,3.45-.51,5.13-.1,.39,.08,1.06,.33,1.39,.77,1.04,1.79,1.68,2.94,1.93,.81,.18,1.2-.17,1.3-1.14,.08-.81,.1-1.63,.14-2.45h-.02Z"/><path class="ag" d="M92.99,112.08c.27-1.36,.92-2.22,2.12-2.49,.63-.15,1.26-.37,1.86-.65,.67-.31,.86-.8,.68-1.62-.3-1.38-.04-2.64,.47-3.87,.51-1.24,1.31-1.79,2.47-1.68,.58,.05,1.2,.09,1.75-.09,.45-.15,1.02-.53,1.19-.99,.84-2.26,1.72-4.52,1.86-7.06,.09-1.78,.19-2,1.66-2.35,1.31-.31,2.2-1.27,3.01-2.41,.54-.76,.61-1.64,.14-2.47-.33-.6-.76-1.13-1.17-1.66-1.09-1.43-1.88-3-1.8-5.03,.04-.91-.01-.99-.76-.92-2.37,.23-4.73,.62-7.02,1.42-.83,.29-1.55,.79-2.13,1.56-.56,.75-1.08,1.55-1.68,2.25-.83,.97-1.29,2.06-1.01,3.47,.21,1.59-.24,2.9-1.18,4.01-.7,.82-1.36,1.69-2.08,2.48-.43,.47-.91,.9-1.4,1.27-.43,.32-.92,.31-1.3-.15-1.11-1.34-2.55-1.91-3.98-2.48-1.01-.4-2.04-.46-3.08-.18-1.5,.41-2.99,.82-4.55,.5-.53-.11-.85,.27-1.1,.76-.47,.92-.9,1.87-1.38,2.78-.83,1.55-1.47,1.76-2.86,.91-.85-.52-1.72-.93-2.68-.98-.79-.04-1.57-.13-2.35-.18-1.27-.08-1.47,.12-1.67,1.59-.02,.12-.03,.23-.04,.35-.1,1.14-.45,2.11-1.22,2.86-.59,.57-.92,1.35-.91,2.27,0,.84,0,1.7,.13,2.51,.17,1.01-.04,1.85-.55,2.62-.11,.17-.33,.39-.45,.36-.17-.05-.3-.31-.42-.5-.07-.13-.09-.31-.13-.46-1.01-3.71-1.18-7.54-1.04-11.39,.05-1.51,.44-2.91,1.27-4.08,.66-.93,1.37-1.8,2.07-2.68,1.3-1.62,2.81-3.07,3.87-4.89,1.34-2.3,2.96-3.73,5.31-3.98,.82-.09,1.42-.59,1.8-1.49,.14-.33,.33-.65,.56-.89,.74-.78,1-1.72,.94-2.88-.07-1.38,.43-2.5,1.38-3.3,.5-.42,1.01-.82,1.5-1.24,2.15-1.82,2.62-6.52-.32-8.46-.98-.65-1.59-1.64-1.96-2.88-.6-2.01-.78-4.1-.92-6.21-.07-1.17-.2-1.24-1.13-1.67-1.18-.55-2.33-1.2-3.49-1.83-.41-.22-.79-.53-1.2-.74-1.78-.9-3.23-2.11-3.6-4.6-.15-.98-.65-1.32-1.5-1.35-.82-.03-1.53,.35-2.21,.83-.17,.12-.43,.05-.65,.07-.01-.26-.07-.54-.02-.78,.05-.24,.18-.47,.31-.67,.91-1.46,2.1-2.17,3.65-2.08,2.55,.14,5.11,.28,7.66,.33,1.34,.03,2.48,.4,3.27,1.78,.13,.23,.33,.4,.49,.61,.75,1.04,1.57,1.35,2.71,.75,1.56-.82,2.56-.11,2.94,1.9,.12,.62,.2,1.24,.36,1.85,.32,1.23,1.08,1.59,2.02,.97,.39-.26,.75-.59,1.11-.92,.6-.56,1.26-.73,1.99-.45,.19,.07,.39,.19,.57,.16,.31-.06,.72-.11,.87-.35,.17-.28,.17-.8,.09-1.16-.09-.39-.35-.72-.54-1.08-.49-.94-1.15-1.4-2.12-1.26-.85,.13-1.13-.28-1.06-1.31,.07-1.07,.49-1.91,1.19-2.56,.44-.41,.48-.87,.12-1.38-.24-.34-.5-.67-.69-1.05-.1-.21-.19-.6-.1-.75,.52-.86,.92-1.79,1.82-2.32,1.43-.84,2.85-1.49,4.46-1.21,1.28,.22,2.56,.47,3.83,.77,1.2,.28,1.62,.15,2.29-1.08,.43-.79,1.02-1.27,1.77-1.53,.38-.13,.75-.27,1.14-.37,.62-.18,1-.61,1.08-1.38,.15-1.44,1.33-1.92,1.95-2.94,.03-.05,.1-.08,.16-.08,.84-.04,.99-.75,1.06-1.54,.03-.33,.01-.69,.13-.96,.22-.5,.44-1.17,.81-1.37,1.3-.68,2.65-.94,4.03-.12,.76,.45,1.48,.95,2.17,1.49,8.71,9.83,14.03,22.75,14.1,36.91,.12,23.64-14.4,43.95-35.05,52.32,.02-.09,.04-.2,.08-.33,.09-.28,.15-.58,.21-.88Z"/><path class="ag" d="M69.85,8.39c.05,.52,.23,.84,.58,1.13,.64,.53,.99,1.27,.94,2.22-.08,1.38-.46,2.63-1.39,3.52-.51,.48-.56,.95-.39,1.64,.16,.66,.26,1.38,.2,2.05-.12,1.29-.4,2.56-.56,3.85-.18,1.4-.98,2.32-2.18,2.35-.24,0-.47,0-.71-.04-1.25-.18-1.41,0-1.81,1.41-.19,.65-.49,1.39-.93,1.78-.57,.5-.9,1.05-1.03,1.84-.05,.29-.15,.58-.26,.85-.53,1.27-1.25,1.68-2.41,1.35-.44-.12-.87-.29-1.28-.51-2.73-1.45-5.59-2.33-8.48-3.17-1.38-.4-2.32-.15-3.21,1.23-1.32,2.02-1.58,2.03-3.55,1.05-1.47-.73-2.97-1.13-4.59-1.07-.76,.03-1.55-.27-2.29-.55-.91-.35-1.79-.85-2.69-1.25-1.22-.54-2.34-.24-3.16,.93-.7,1.01-1.29,2.16-1.81,3.33-.4,.91-.83,1.73-1.57,2.3-.27,.21-.53,.5-.7,.83-1.12,2.17-2.74,3.69-4.49,5.08-.51,.41-.93,.98-1.35,1.53-.53,.69-.97,1.48-1.52,2.13-.41,.48-.85,.36-1-.19C25.12,22.56,44.6,6.73,68.02,5.24c1.05,.57,1.7,1.62,1.83,3.14Z"/><path class="ab" d="M24.01,54.55c.08-1.43,.16-2.85,.24-4.28,.08-1.27,.31-2.14,.76-2.81,.67-.99,1.44-1.65,2.37-2.02,1.47-.59,2.51-1.65,3.09-3.15,.22-.56,.51-1.15,.87-1.76,.95-1.62,1.71-1.47,2.17-1.38,1.01,.19,1.97,.25,2.86,.16,.68-.07,1.95-.33,2.82-1.31,.22-.25,.29-.26,.37-.26,.91-.06,2.21-.25,3.44-1.17,.14,.12,.28,.23,.42,.32-.5,.81-.51,1.85-.03,2.81,.32,.64,.69,1.21,1.04,1.75l.09,.14c.42,.65,.53,1.24,.34,1.9-.38,1.32-.81,2.68-1.32,4.14l-.1,.28c-.3,.83-.72,1.98-.36,3.34,.11,.42,.07,.76-.15,1.2-.29,.61-.52,1.22-.74,1.81-.32,.87-.61,.86-.94,.84-.62-.04-1.24-.07-1.86-.1v-.33l-2.09,.15c-.18,.02-.37,.03-.55,.04-.48,.03-1.03,.07-1.6,.18-3.22,.66-3.08,3.36-3.04,4.24,.04,.87,.11,1.74,.18,2.62,.06,.72,.11,1.44,.15,2.16,.14,2.36,.24,4.35,.31,6.36-.72,.34-1.54,1.03-1.98,2.38l-.05,.14c-.35,1.07-.67,2.08-1.05,3.07-.13,.35-.23,.7-.3,1.05-2.01-3.11-3.06-6.33-3.22-9.81-.08-1.92-.61-3.69-1.57-5.25-.63-1.03-.9-2.21-.81-3.63,.08-1.28,.15-2.56,.22-3.85Z"/><path class="ab" d="M90.04,27.2c-.33-.06-.69-.1-1.08-.1-1.26,0-2.79,.44-4.23,1.96-.82,.87-1.72,1.66-2.6,2.43-.17,.15-.3,.18-.52,.14-.21-.04-.41-.07-.62-.1-.35-.05-.68-.11-.93-.19-.3-.1-.58-.23-.82-.38,.54-1.4,1.1-2.83,1.7-4.2,.51-1.18,1.06-1.16,1.39-1.14,.21,0,.42,.01,.63,.01,.12,0,.24,0,.35,0,1.65,.05,3.07-.68,4.1-2.1,.24-.34,.48-.68,.71-1.02,.24-.34,.48-.68,.72-1.02,.71-.98,1.5-1.6,3.27-1.63,.2,.03,.86,.31,1.6,1,.28,.26,.56,.54,.83,.82,.63,.64,1.28,1.29,2.06,1.85,.71,.51,.97,1.37,1.17,2.66-1.32-.03-2.42,.74-3.02,2.09-.73-.29-1.52-.54-2.34-.73-.54-.13-1.07-.19-1.54-.24-.28-.03-.57-.06-.85-.11Z"/><path class="ab" d="M38.63,73.45c.37-.59,.88-1.48,.95-2.52,.06-.85-.05-1.79-.32-2.87-.16-.64,.22-1.24,.42-1.31,1.08,.19,2.21,.39,3.34,.59,0,.19,0,.37-.03,.52-.3,1.85,0,3.42,.91,4.82,.09,.14,.37,.56-.03,1.38-.16,.34-.2,.34-.45,.31l-.34-.04c-.35-.04-.75-.09-1.18-.1-.99-.02-3.3,.27-3.42,3.45-.01,.39,0,.78,0,1.17v.78c0,.11,0,.23,0,.34,0,.19-.02,.38-.03,.57-.27-.18-.51-.41-.73-.69,.44-1.78,.5-3.5,.51-5.4,0-.25,.07-.5,.38-1Z"/><path class="ab" d="M102.74,33.16c.21-.39,.42-.52,.67-.6l.32-.11c.24-.08,.48-.17,.72-.24,1.43-.4,2.34-1.52,2.5-3.06,.02-.21,.11-.33,.59-.82,.18-.18,.38-.38,.58-.62,.88-.31,1.82-1.13,2-3.16,0-.1,.01-.21,.02-.31,0-.05,0-.1,0-.15,.02-.06,.05-.12,.08-.18,.03-.08,.08-.18,.12-.27,.96-.42,1.43-.24,1.8-.02,.58,.34,1.18,.75,1.83,1.24,8.63,9.81,13.42,22.4,13.49,35.48,.1,19.38-9.92,36.89-26.11,46.64-.01-.22-.04-.46-.1-.71-.18-.82-.06-1.66,.36-2.72,.15-.36,.27-.46,.27-.46,0,0,.06-.02,.19,0,.76,.07,1.65,.12,2.55-.18,.89-.29,1.99-1.01,2.42-2.17l.11-.31c.85-2.27,1.72-4.61,1.86-7.33,0-.1,.02-.31,.03-.51,.04,0,.08-.02,.12-.03,2.04-.49,3.3-1.96,4.16-3.19,.98-1.39,1.07-3.1,.25-4.56-.36-.65-.79-1.21-1.17-1.7l-.15-.2c-1.03-1.34-1.44-2.46-1.39-3.75,.03-.64,.07-1.61-.72-2.36-.77-.73-1.73-.64-2.19-.6-2.92,.28-5.3,.76-7.48,1.52-1.23,.43-2.26,1.18-3.05,2.24-.2,.27-.4,.54-.59,.82-.34,.48-.67,.94-1.01,1.33-1.31,1.52-1.8,3.22-1.46,5.05,.11,.95-.11,1.71-.74,2.44-.26,.31-.51,.62-.77,.93-.43,.53-.85,1.03-1.27,1.51-.13,.15-.28,.29-.43,.43-1.28-1.2-2.74-1.78-4.05-2.3-1.44-.58-2.89-.66-4.36-.26-1.36,.37-2.54,.69-3.64,.47-.5-.1-2.2-.27-3.24,1.8-.19,.37-.37,.74-.55,1.11-.27,.57-.53,1.1-.81,1.62-.03,.06-.07,.12-.09,.17-.91-.55-2.13-1.19-3.61-1.27-.42-.02-.83-.06-1.24-.09-.36-.03-.73-.06-1.09-.08-2.86-.18-3.49,1.47-3.74,3.28-.02,.15-.03,.29-.05,.44-.09,.99-.38,1.39-.63,1.63l-.05,.05c-.02-1,0-2.05,.03-3.17,.04-1.21,.35-2.23,.9-3.01,.58-.81,1.2-1.59,1.85-2.4l.15-.19c.39-.49,.8-.96,1.24-1.46,.97-1.12,1.98-2.27,2.79-3.67,1.14-1.95,2.28-2.85,3.82-3.02,1.54-.17,2.75-1.12,3.4-2.69,.07-.16,.14-.26,.17-.3,1.08-1.14,1.56-2.56,1.47-4.33-.04-.73,.18-1.27,.69-1.71,.23-.2,.47-.39,.71-.58,.27-.21,.53-.43,.79-.65,1.62-1.38,2.57-3.83,2.43-6.25-.14-2.26-1.21-4.21-2.94-5.35-.33-.22-.82-.65-1.16-1.8-.55-1.84-.72-3.86-.84-5.77-.13-2.01-.8-2.66-2.26-3.33-.88-.41-1.75-.88-2.66-1.38l-.72-.39c-.14-.07-.27-.17-.4-.25-.24-.16-.52-.35-.85-.51-1.63-.82-2.32-1.67-2.54-3.13-.1-.64-.3-1.19-.61-1.63,1.87,.1,3.88,.19,5.87,.23,.99,.02,1.3,.26,1.6,.8,.18,.31,.38,.54,.51,.69,.03,.03,.06,.07,.09,.1,1.36,1.86,3.24,2.35,5.18,1.35,.04,.12,.09,.29,.13,.51,.03,.18,.07,.36,.1,.54,.08,.46,.16,.94,.29,1.43,.43,1.63,1.35,2.28,2.05,2.55,.55,.21,1.66,.42,2.96-.45,.51-.34,.94-.73,1.35-1.11,.31,.1,.87,.33,1.58,.21h.07c.46-.09,1.55-.29,2.14-1.29,.6-1.01,.39-2.23,.32-2.58-.13-.58-.39-1.02-.58-1.34-.04-.07-.09-.15-.13-.22-.78-1.51-1.85-2.09-2.78-2.28,.09-.19,.22-.35,.39-.51,1.16-1.08,1.32-2.63,.39-3.95l-.15-.2c-.05-.06-.09-.13-.13-.19,.24-.42,.46-.76,.7-.9,1.22-.72,2.17-1.13,3.13-.97,1.33,.23,2.55,.47,3.71,.74,2.1,.49,3.4-.1,4.46-2.05Z"/><path class="ab" d="M66.74,5.25c.19,.22,.39,.61,.45,1.3,.09,1.03,.51,1.84,1.3,2.48,.12,.1,.24,.23,.22,.59-.06,1.04-.31,1.75-.78,2.2-1.46,1.39-1.07,3-.95,3.53,.17,.7,.18,1.15,.15,1.41-.06,.67-.17,1.36-.29,2.08-.09,.57-.19,1.14-.26,1.71-.05,.43-.19,.61-.23,.62,0,0-.02,0-.06,0-.12,0-.25,0-.37-.02-.31-.04-.6-.06-.86-.06-2.11,.01-2.7,1.42-3.12,2.89-.15,.54-.31,.81-.36,.86-.92,.8-1.45,1.76-1.65,2.98-.01,.07-.04,.19-.13,.41-.04,.09-.07,.16-.1,.21-.31-.09-.6-.21-.86-.35-2.89-1.54-5.84-2.45-8.86-3.32-2.31-.67-4.08,0-5.41,2.04-.19,.29-.33,.5-.44,.65-.22-.1-.47-.22-.59-.28-1.87-.93-3.68-1.34-5.53-1.27-.34,0-.97-.22-1.5-.42-.46-.18-.94-.41-1.44-.66-.39-.19-.77-.38-1.16-.56-1.88-.83-3.79-.43-5.13,1.04C38.02,13.92,51.73,6.41,66.74,5.25Z"/><path class="ab" d="M25.41,54.63c.08-1.42,.16-2.85,.24-4.27,.06-1.01,.22-1.66,.53-2.11,.51-.76,1.06-1.24,1.73-1.5,1.82-.73,3.16-2.09,3.88-3.95,.19-.49,.45-1.01,.77-1.55,.38-.64,.61-.75,.61-.75,0,.01,.04,.03,.08,.03,1.14,.22,2.23,.28,3.26,.18,.84-.08,2.39-.4,3.57-1.6,.47-.05,1.01-.14,1.59-.31,.06,.52,.22,1.04,.47,1.54,.36,.71,.76,1.33,1.12,1.88l.09,.14c.25,.38,.22,.55,.17,.75-.37,1.3-.79,2.63-1.29,4.06l-.1,.27c-.32,.89-.86,2.38-.4,4.17,.01,.05,.01,.07,.01,.07,0,0,0,.04-.06,.17-.31,.64-.55,1.27-.76,1.84h-.17l-.02-.51-3.53,.26c-.2,.02-.37,.03-.54,.04-.5,.03-1.13,.07-1.79,.21-1.64,.34-4.37,1.53-4.16,5.69,.04,.89,.11,1.77,.18,2.65,.06,.71,.11,1.42,.15,2.13,.12,2.04,.21,3.79,.28,5.51-.71,.53-1.45,1.38-1.88,2.72l-.05,.14c-.11,.35-.22,.69-.33,1.03-.9-2.04-1.39-4.13-1.49-6.35-.1-2.16-.69-4.16-1.78-5.92-.48-.78-.68-1.68-.61-2.81,.08-1.28,.15-2.57,.22-3.85Z"/><path class="ab" d="M94.15,26.57c-.45-.15-.92-.27-1.4-.39-.63-.15-1.23-.22-1.71-.27h-.06c-.23-.03-.46-.06-.68-.1-1.2-.22-2.4-.13-3.51,.25,.67-.44,1.27-1.01,1.78-1.72,.25-.34,.49-.69,.73-1.04,.25-.35,.47-.68,.7-1,.42-.58,.79-.97,1.92-1.04,.17,.09,.49,.28,.85,.62,.26,.24,.51,.49,.76,.75,.67,.67,1.39,1.41,2.27,2.04,.11,.08,.2,.21,.29,.41-.75,.3-1.41,.8-1.94,1.49Z"/><path class="ab" d="M81.5,30.18c-.09-.02-.19-.03-.28-.04l-.13-.02c.36-.92,.75-1.88,1.15-2.8,.06-.14,.11-.23,.15-.29,.19,0,.39,0,.58,0,.13,0,.22,0,.31,0,.73,.02,1.42-.08,2.08-.29-.58,.36-1.13,.81-1.64,1.35-.69,.73-1.46,1.42-2.22,2.09Z"/><path class="ab" d="M40.76,68.36c.24,.04,.49,.09,.73,.13-.12,1.58,.17,3.04,.87,4.34-.14,0-.28-.02-.42-.02-.04,0-.09,0-.13,0-.45,0-.9,.06-1.34,.17,.25-.57,.45-1.23,.5-1.96,.06-.82-.01-1.7-.21-2.66Z"/><path class="ab" d="M77.43,44.7c1.36,1.87,3.28,2.7,5.26,2.35,.06,.32,.13,.66,.22,1.01,.61,2.32,2.09,3.19,2.92,3.51,.8,.3,2.41,.63,4.24-.6,.34-.23,.65-.47,.93-.72,.4,.09,.9,.13,1.46,.03h.07c.54-.11,2.18-.4,3.11-1.96,.84-1.42,.61-2.99,.48-3.6-.18-.81-.54-1.41-.75-1.76-.04-.07-.07-.11-.08-.14-.53-1.02-1.17-1.71-1.83-2.18,.75-1.28,.78-2.82,.04-4.2,.9-.5,1.43-.67,1.84-.6,1.3,.22,2.49,.46,3.63,.73,2.73,.64,4.64-.23,6.01-2.73l.22-.08c.24-.08,.44-.15,.65-.21,1.9-.54,3.19-2.03,3.49-4.01,.05-.05,.12-.13,.23-.23,.14-.14,.28-.28,.42-.44,.96-.45,2.26-1.52,2.54-4.01,.48,.29,.98,.63,1.51,1.03,8.35,9.54,12.98,21.77,13.04,34.45,.08,15.25-6.16,29.3-17.07,39.21,.65-1.82,1.24-3.73,1.41-5.9,2-.77,3.28-2.32,4.09-3.47,1.29-1.84,1.42-4.11,.33-6.06-.41-.74-.9-1.36-1.28-1.87l-.16-.2c-.82-1.07-1.14-1.89-1.1-2.83,.03-.73,.09-2.25-1.16-3.44-1.24-1.18-2.73-1.03-3.29-.98-3.03,.29-5.51,.79-7.8,1.59-1.5,.52-2.75,1.44-3.72,2.72-.2,.27-.4,.54-.59,.81-.35,.49-.66,.92-.95,1.27-1.56,1.82-2.18,3.95-1.79,6.17,.06,.54-.06,.91-.42,1.33-.25,.3-.5,.61-.75,.91-.27,.34-.53,.65-.78,.95-1.16-.81-2.36-1.29-3.38-1.69-1.72-.69-3.48-.79-5.25-.31-1.19,.33-2.22,.61-2.99,.45-1.53-.31-3.59,.19-4.77,2.54-.19,.38-.37,.76-.56,1.14-.08,.16-.16,.32-.23,.48-.83-.38-1.81-.7-2.95-.76-.39-.02-.77-.05-1.15-.08-.42-.04-.79-.07-1.17-.09-.53-.03-1.01-.01-1.44,.05,.24-.31,.5-.63,.75-.95l.15-.19c.37-.46,.77-.93,1.2-1.41,1.02-1.17,2.07-2.37,2.95-3.88,1.11-1.91,1.99-2.25,2.76-2.33,2.03-.22,3.68-1.5,4.53-3.51,1.28-1.4,1.88-3.17,1.77-5.28-.02-.35,.07-.45,.2-.56,.23-.19,.46-.38,.69-.57,.27-.22,.55-.44,.82-.67,1.95-1.65,3.09-4.56,2.92-7.4-.16-2.7-1.46-5.05-3.57-6.44-.09-.06-.35-.23-.59-1.03-.51-1.7-.67-3.62-.78-5.45-.17-2.67-1.25-3.68-3.08-4.52-.83-.39-1.67-.84-2.56-1.33l-.74-.4c-.08-.04-.15-.1-.23-.14l-.07-.05c-.26-.17-.59-.39-1-.6-1.32-.66-1.63-1.16-1.77-2.01,1.17,.05,2.5,.1,3.83,.13,.2,0,.32,.02,.38,.03,.01,.02,.02,.04,.03,.06,.25,.43,.52,.74,.68,.92h0Z"/><path class="ab" d="M43.21,24.6c-1.89-.85-3.74-1.24-5.64-1.17-.1-.01-.35-.08-1.01-.33-.4-.15-.84-.37-1.31-.61-.4-.2-.81-.4-1.22-.58-.45-.2-.91-.34-1.36-.43,8.72-8.94,20.36-14.6,32.69-15.81,.12,1.23,.62,2.27,1.48,3.1-.07,.66-.24,.89-.32,.96-.93,.89-1.93,2.45-1.35,4.87,.14,.58,.13,.88,.12,.95-.06,.62-.17,1.28-.28,1.97-.06,.37-.12,.73-.18,1.1-3.53-.12-4.35,2.72-4.69,3.91-.05,.17-.09,.28-.12,.36-.78,.73-1.33,1.57-1.66,2.55-2.79-1.39-5.59-2.25-8.44-3.08-2.75-.8-5.07-.02-6.72,2.25Z"/><path class="ab" d="M29.35,50.11c2.62-1.07,4.64-3.09,5.74-5.72,.6,.02,1.2,0,1.79-.06,.66-.07,1.62-.23,2.66-.63-.23,.73-.48,1.48-.75,2.26l-.09,.24c-.26,.72-.71,1.95-.78,3.51l-1.03,.08c-.14,.01-.27,.02-.4,.03-.62,.04-1.42,.09-2.33,.28-2.08,.43-3.77,1.4-4.98,2.79,.04-.77,.09-1.54,.13-2.31,.01-.23,.03-.38,.05-.47Z"/><path class="ab" d="M85.3,81.1c1.36-1.67,2.14-3.69,2.3-5.92,.14-.12,.29-.24,.43-.36,2.83-2.4,4.45-6.39,4.2-10.4-.21-3.52-1.81-6.64-4.41-8.7-.1-.4-.18-.83-.25-1.26,2.1,.4,4.31-.07,6.24-1.35,.36-.03,.68-.07,1.01-.13h.07c3.16-.57,4.79-2.32,5.6-3.69,1.5-2.54,1.13-5.21,.9-6.24-.31-1.4-.91-2.39-1.19-2.86-.2-.37-.39-.7-.6-1.01,.08,.02,.17,.04,.25,.06,3.8,.89,7.02-.25,9.21-3.21,2.51-.88,4.41-2.83,5.24-5.33,.27-.19,.56-.4,.84-.66,6.41,8.44,9.94,18.77,9.99,29.44,.04,7.63-1.58,14.92-4.69,21.47-.46-.74-.93-1.35-1.28-1.81l-.15-.2c-.22-.28-.31-.44-.34-.52,.04-1.03,.11-3.9-2.3-6.18-1.42-1.34-3.18-2.02-5.24-2.01-.3,0-.61,.02-.92,.05-3.32,.31-6.07,.88-8.65,1.78-2.2,.77-4.03,2.11-5.43,3.98-.22,.29-.43,.59-.64,.88-.29,.41-.56,.79-.75,1.01-1.7,1.98-2.65,4.32-2.77,6.75-.08-.03-.16-.06-.23-.09-2.47-.99-5.02-1.14-7.56-.44-.51,.14-1.18,.32-1.48,.36l-.13-.02c1.14-.86,2.08-2.01,2.76-3.37Z"/><path class="ab" d="M38.64,18.29c6.48-5.18,14.13-8.66,22.22-10.08-.76,1.71-.93,3.66-.45,5.65-1.8,.73-3.67,2.22-4.75,5.34-2.02-.79-4.01-1.39-5.93-1.94-3.25-.94-6.31-.38-8.71,1.52-.79-.23-1.59-.39-2.39-.48Z"/><path class="ab" d="M95.49,62.91c-.18-2.92-1.14-5.59-2.78-7.79,.99-.26,1.96-.67,2.88-1.22,.22-.02,.43-.06,.64-.09h.06c4-.72,6.09-2.98,7.14-4.76,1.9-3.23,1.45-6.58,1.16-7.87-.06-.29-.14-.57-.22-.84,2.78-.26,5.2-1.57,7.08-3.84,1.95-.82,3.58-2.18,4.73-3.91,4.94,7.53,7.66,16.47,7.71,25.5,.03,5.34-.78,10.47-2.4,15.33-.47-1.62-1.33-3.02-2.58-4.2-1.85-1.75-4.14-2.64-6.79-2.62-.37,0-.75,.02-1.13,.06-3.5,.33-6.41,.93-9.17,1.89-2.63,.92-4.81,2.52-6.49,4.75-.23,.31-.45,.62-.67,.93-.22,.31-.5,.7-.62,.85-1.37,1.6-2.34,3.39-2.86,5.31-.78-.16-1.56-.26-2.34-.29,1-1.54,1.65-3.28,1.92-5.15,3.21-2.87,5.02-7.45,4.74-12.03Z"/><path class="ab" d="M54.46,15.59c-1.45-.5-2.85-.91-4.1-1.27-.65-.19-1.3-.33-1.94-.41,3.03-1.52,6.22-2.71,9.49-3.54-.02,.49-.01,.99,.03,1.49-1.21,.76-2.47,1.93-3.47,3.74Z"/><path class="p" d="M71.34,5.13c1.47,0,2.92,.04,4.36,.14C51.04,7.36,31.74,28.08,31.87,53.25c.14,26.47,21.7,47.81,48.17,47.68,25.17-.13,45.69-19.65,47.53-44.32,.12,1.44,.18,2.89,.19,4.36,.16,31-24.84,56.25-55.84,56.41-31,.16-56.25-24.84-56.41-55.84-.16-31,24.84-56.25,55.84-56.41Z"/><path class="r" d="M67.32,10.6c-13.67,.07-32.59,11.18-42.28,19.36C35.06,15.06,52.04,5.23,71.34,5.13c31-.16,56.25,24.84,56.41,55.84,.09,17.32-7.68,32.85-19.97,43.21,6.07-9.02,16-26.05,15.94-37.74-.16-31-25.42-56-56.41-55.84Z"/><path class="ac" d="M53.24,51.42c10.71,16.14,45.65,27.45,69.08,6.11,10.31-9.39-5.56-32.67-15.02-39.62C89.68,4.97,66.32,1.44,55.92,9.99c-15.15,12.46-9.01,31.88-2.68,41.42Z"/><path class="t" d="M115.02,66.45c-8.98,7.45-21.92,13.93-36.43,18.26-14.51,4.33-28.88,5.98-40.48,4.67-8.59-.97-14.96-3.51-18.58-7.32-.7-1.72-1.33-3.49-1.87-5.3,3.77,12.65,30.91,15.73,60.61,6.87,29.7-8.86,50.73-26.29,46.96-38.94,.54,1.82,.99,3.64,1.34,5.46-.95,5.17-4.89,10.78-11.54,16.3Z"/><path class="aa" d="M78.6,84.71c14.51-4.33,27.99-10.2,36.43-18.26,8.48-8.09,10.59-11.13,11.54-16.3-.95,5.17-4.35,11.12-11.01,16.64-8.98,7.45-22.18,14.36-36.69,18.69s-29.16,5.69-40.75,4.38c-8.59-.97-14.96-3.99-18.58-7.8,3.62,3.8,9.99,6.34,18.58,7.32,11.6,1.31,25.97-.34,40.48-4.67Z"/></g><path class="s" d="M53.17,13.36c-15,9.81-24.22,29.79-26.37,38.71-2.15,8.91-7.79,.32-1.33-10.44,6.45-10.76,18.37-23.98,26.65-28.18l1.05-.08Z"/><polygon class="m" points="49.63 3.91 53.17 13.36 51.94 13.89 48.44 4.48 49.63 3.91"/><path class="n" d="M52.01,0l1.38,3.66C21.69,15.95,4.83,49.57,15.56,80.43c11.05,31.78,47.2,48.64,80.92,37.85l1.37,3.64c-40.65,13.15-83.03-3.52-94.8-37.38C-8.41,51.55,13.4,14.39,52.01,0Z"/><g class="w"><path class="ad" d="M3.05,84.53C-5.38,60.27,4.21,33.77,25.22,15.71,7.98,32.19,.97,56.39,9.29,79.13c8.95,24.48,33.1,40.34,59.93,42.07,8.9,.86,18.16-.02,27.25-2.93l.3,.76,1.04,2.75c-10.51,3.23-21.13,4.67-31.38,4.54-29.16-1.09-54.66-16.72-63.37-41.79Z"/></g></g></g></g></g></svg>