<svg xmlns="http://www.w3.org/2000/svg" xmlns:xlink="http://www.w3.org/1999/xlink" viewBox="0 0 59.16 92.08"><defs><style>.cls-1{isolation:isolate;}.cls-2{fill:#214380;mix-blend-mode:multiply;opacity:0.47;}.cls-3{fill:#3f1b0b;}.cls-4{fill:url(#linear-gradient);}.cls-5{fill:#4a1a0a;}.cls-6{fill:#95401a;}.cls-7{opacity:0.85;}.cls-11,.cls-8{fill:#54240f;}.cls-8{opacity:0.51;}.cls-9{fill:#a44d18;}.cls-10{fill:#c35f14;}.cls-12{fill:#de8d30;}.cls-13,.cls-14,.cls-15{fill:#fff280;}.cls-13{opacity:0.27;}.cls-14{opacity:0.39;}.cls-16{fill:#2e1e36;}.cls-16,.cls-21{opacity:0.49;}.cls-17{fill:url(#radial-gradient);}.cls-18{fill:url(#radial-gradient-2);}.cls-19{mix-blend-mode:screen;fill:url(#radial-gradient-3);}.cls-20{fill:#312625;}.cls-22,.cls-23{fill:#332e2f;}.cls-23,.cls-25,.cls-26,.cls-27{fill-rule:evenodd;}.cls-24{opacity:0.45;}.cls-25{fill:#d3c3af;}.cls-26{fill:#857769;}.cls-27{fill:#e4ddd1;}</style><linearGradient id="linear-gradient" x1="30.02" x2="30.02" y2="51.94" gradientUnits="userSpaceOnUse"><stop offset="0" stop-color="#581809"/><stop offset="1" stop-color="#54240f"/></linearGradient><radialGradient id="radial-gradient" cx="3.06" cy="36.68" r="22.49" gradientUnits="userSpaceOnUse"><stop offset="0" stop-color="#1cbeca"/><stop offset="1" stop-color="#54240f"/></radialGradient><radialGradient id="radial-gradient-2" cx="27.6" cy="49.47" r="25.02" xlink:href="#radial-gradient"/><radialGradient id="radial-gradient-3" cx="22.86" cy="-1.87" r="47.05" gradientUnits="userSpaceOnUse"><stop offset="0.1" stop-color="#c35f14"/><stop offset="1"/></radialGradient></defs><g class="cls-1"><g id="Слой_2" data-name="Слой 2"><g id="Слой_11" data-name="Слой 11"><path class="cls-2" d="M57.47,29.31c-2-5.7-6.32-10.07-10.72-14.08a8,8,0,0,0-4-2.38A7.7,7.7,0,0,0,40,13c.59-2.26-.36-3.11-2.17-4.43-2.78-2-7.29-4.91-10.43-2-2.14,2-2.37,5.25-2.39,8,0,1.39.12,2.78.1,4.17,0,1.08-.3,2.16-.31,3.24-.73-.21-1.52-.39-2.25-.65l-5.22-1.91c-3.24-1.18-6.8-3-10.2-3.64a3.7,3.7,0,0,0-.57-.07H6a4.35,4.35,0,0,0-3.52,2C-.53,21.89-.06,27.68.18,32.5s-.62,11,2.3,15.29,7.27,1.14,10.76-.55c3.83-1.86,7.89-2.93,11.92-4.23,0,2.29-.1,5.28.2,8,.13,4.25.8,8.5,3.89,9.56C33,61.84,37.1,58.07,40,56a84.4,84.4,0,0,0,10.82-9.56c4.6-4.66,7.37-9.08,7.37-13.37A11.27,11.27,0,0,0,57.47,29.31Z"/><path class="cls-3" d="M1.34,26c-.15-4.5-.17-9.62,2.14-13,2.92-4.25,7.27-1.14,10.76.55,3.85,1.86,7.93,2.94,12,4.25C26.77,13.32,24.94,2.1,30.26.27c3.11-1.07,6.18,1.23,8.61,3,3.15,2.28,2.79,2.48,1.52,6C41,7.58,44,7.57,45.09,8.11c2.44,1.2,4.78,4.32,6.7,6.27,4.6,4.66,7.37,9.08,7.37,13.37s-2.77,8.71-7.37,13.37A83.57,83.57,0,0,1,41,50.67c-2.87,2.06-7,5.84-10.72,4.55-5.31-1.83-3.48-13-4-17.56-4,1.3-8.12,2.38-12,4.25-3.49,1.68-7.84,4.8-10.76.55-2.31-3.36-2.07-8-2.14-13C1.36,28.89,1.28,27.31,1.34,26Z"/><path class="cls-4" d="M1.34,24.67c-.15-4.25-.17-9.09,2.13-12.26,2.9-4,7.22-1.07,10.68.53A95.48,95.48,0,0,0,26,17c.55-4.27-1.26-14.86,4-16.59,3.09-1,6.14,1.16,8.55,2.82,3.14,2.16,2.77,2.34,1.51,5.69.61-1.61,3.57-1.62,4.67-1.1,2.43,1.12,4.75,4.07,6.66,5.91,4.56,4.4,7.31,8.58,7.32,12.62S56,34.52,51.45,38.92a81.92,81.92,0,0,1-10.75,9c-2.84,2-6.92,5.51-10.64,4.3-5.28-1.73-3.47-12.32-4-16.58a95.44,95.44,0,0,0-11.89,4c-3.46,1.6-7.78,4.54-10.68.53C1.17,37,1.41,32.63,1.34,27.93,1.36,27.38,1.28,25.88,1.34,24.67Z"/><path class="cls-5" d="M53.53,15.76c3.64,6.09,5.82,11.07,1.29,17.49-2.37,3.34-5.38,5.45-8.36,8.12-3.5,3.13-14.95,15-18,5.07-1.46-4.78-1.6-10.31-1.64-15.29,3.69,3.06,6.11,14.69,12.27,8.6,3.09-3.06,4-10,3.34-14.07,3.33,2.51,8.22,7.35,11.21,1.51,1.59-3.09.5-8.59-.73-11.68Z"/><path class="cls-5" d="M22.26,29.45c6.35-.22,6.67,7.3,7.12,11.81a30,30,0,0,0,.89,4.08c.15.62.25,2.76.68,3.18-2.83-2.76-2.9-5.49-3.7-9.21-.5-2.29-1.58-6.74-4.86-5.57-4,1.41-7.57,4.41-12.09,4.11C6.8,37.62,6.53,35.11,6.52,32,11.44,37.63,17.17,29.62,22.26,29.45Z"/><path class="cls-6" d="M56.7,21.11c-.69-2.85-2.9-5.17-5.25-7.43-1.91-1.84-4.23-4.79-6.66-5.91-1.1-.52-4.06-.51-4.67,1.1,1.26-3.35,1.63-3.53-1.51-5.69C36.2,1.52,33.15-.65,30.06.36,24.78,2.09,26.59,12.68,26,17a95.48,95.48,0,0,1-11.89-4c-3-1.37-6.59-3.73-9.39-1.81-1.3,2.26-1.39,5.24-1.35,7.76A72.8,72.8,0,0,0,5.28,32.82a7.91,7.91,0,0,0,1.54,3.53c5,5.91,17.8-9.53,20.36-1.46,1.08,3.43.36,15.69,6.56,14,5.62-1.5,9.17-5.67,14-10.17,1-.94,2.83-2.19,3-3.56a10.77,10.77,0,0,0-1.26-3.67c1.84.74,2.26,1.46,3.81.17s2.53-4.22,3.14-6.19A8.15,8.15,0,0,0,56.7,21.11Z"/><g class="cls-7"><path class="cls-8" d="M27.36,2.94a82.43,82.43,0,0,1,10.77-.09,26.06,26.06,0,0,0-2.72-1.69,31.77,31.77,0,0,0-7.1.34A5.46,5.46,0,0,0,27.36,2.94Z"/><path class="cls-8" d="M41.65,11.42c2.9.37,5.77.72,8.63,1.07l-.39-.41a.35.35,0,0,0-.08.16c0-.07,0-.12.06-.18-1.56-1.64-3.29-3.46-5.08-4.29a2,2,0,0,0-.39-.14l-1.56-.15c-1.15,0-2.36.42-2.72,1.39l.6-1.58A107.6,107.6,0,0,0,26.35,7c-.07.68-.13,1.38-.15,2.08C31.36,9.62,36.49,10.78,41.65,11.42Z"/><path class="cls-8" d="M38.81,26.75c5.81.06,11.55.06,17.3,0l.39-1.22a9.32,9.32,0,0,0,.35-1.78c-3.11-.07-6.22-.11-9.34-.15-14.25-.13-28.28,1.25-42.43,2L4,25.68l.18,1.21C15.69,27.31,27.36,26.64,38.81,26.75Z"/><path class="cls-8" d="M14.92,17.55c13.49.79,27,.43,40.54.72a19.06,19.06,0,0,0-1.69-2.21c-9.19-.82-18.38-1.62-27.61-1.86A22.23,22.23,0,0,1,26,17C23,16,19.93,15.2,17,14.09c-4.34,0-8.68.07-13,.21-.13.23-.24.47-.37.7a21.42,21.42,0,0,0-.15,2.38C7.26,17.31,11.09,17.32,14.92,17.55Z"/><path class="cls-8" d="M26.49,33.54a4.26,4.26,0,0,1,.69,1.35,9.77,9.77,0,0,1,.26,1.16c2.19.08,4.39.17,6.58.33,5.3.39,10.64.39,16,.34a3.13,3.13,0,0,0,.82-1.52,8.87,8.87,0,0,0-.54-2.11C42.35,33,34.44,33.21,26.49,33.54Z"/><path class="cls-8" d="M35.51,47.22c-1.69.53-4.17.68-5.27,0,.72,3.05,5.18.36,6.52-.58A4.88,4.88,0,0,1,35.51,47.22Z"/><path class="cls-8" d="M15.65,36c1.46-.71,2.93-1.51,4.32-2.16l-2.22.09A111.69,111.69,0,0,1,5.49,33.6a7.49,7.49,0,0,0,1.16,2.52C9.65,36.05,12.65,36,15.65,36Z"/><path class="cls-8" d="M28.62,44.16h0c4.74-.18,9.31-.37,13.88-.46.49-.44,1-.89,1.48-1.36-5.29-.34-10.6-.69-15.87-.79C28.26,42.43,28.42,43.32,28.62,44.16Z"/><path class="cls-8" d="M27.76,38.5l.06.55c3.41-.16,6.82-.25,10.24-.22C34.6,38.78,31.19,38.62,27.76,38.5Z"/><path class="cls-9" d="M16.63,18.25A147.79,147.79,0,0,0,36,18.82c6.44-.34,13.1-.41,19.57-.38l-.11-.2A33.84,33.84,0,0,0,46,17.4c-6.52.14-12.94.83-19.46.38s-14.63-1.15-21.19,0l-.58.38C8.45,17.47,12.9,18,16.63,18.25Z"/><path class="cls-9" d="M18.83,27.43c6.61-.14,13.23-.06,19.93,0a136.71,136.71,0,0,0,17.54-1.3l.09-.27c-3,0-6,.25-9,.31-6.35.15-12.9.06-19.29.4-4.89.26-9.78-.32-14.66-.16-2.83.09-6.15.68-9.23.67a2.17,2.17,0,0,1,0,.25C9,27.89,14.44,27.53,18.83,27.43Z"/><path class="cls-9" d="M27,3.81c2.89-.15,5.79-.33,8.79-.49.93,0,1.9-.1,2.87-.1l-.06,0-1-.66a54.39,54.39,0,0,0-10,0A7.45,7.45,0,0,0,27,3.81Z"/><path class="cls-9" d="M27.87,39.47c0,.22.05.44.08.67,2.52,0,5,0,7.53-.14,3.67-.2,7.29-.06,10.9.08l.69-.66c-.77,0-1.54-.09-2.32-.09C39.09,39.28,33.45,39.19,27.87,39.47Z"/><path class="cls-9" d="M42.18,11.06a141.09,141.09,0,0,0-16-2.46c0,.39,0,.79,0,1.19,7.55.91,15.24,2.2,23.08,2.29C46.87,11.66,44.52,11.52,42.18,11.06Z"/><path class="cls-9" d="M50,36.72c-3.81,0-7.6,0-11.4.07A97.34,97.34,0,0,1,27.42,36c0,.29.1.6.14.93,7.31.15,14.68.45,22,.27A5.49,5.49,0,0,0,50,36.72Z"/><path class="cls-9" d="M31.26,44.54l-2.57-.11q.16.65.36,1.23A92.88,92.88,0,0,0,38.8,45c.82-.1,1.66-.17,2.5-.24l.91-.77A79.45,79.45,0,0,1,31.26,44.54Z"/><path class="cls-10" d="M50.91,18c-10.14-.1-20.61,3.63-30.6-.25,8.15.36,16.36.11,24.61.19Z"/><path class="cls-10" d="M28.67,44.38l.09.33a89.48,89.48,0,0,0,12.68-.08l1-.89C37.88,43.89,33.28,44.2,28.67,44.38Z"/><path class="cls-10" d="M4.31,27.83c.07.38.13.76.2,1.14,6.75,1.11,14.74-1,21.08-.9l6.91.07c-2.59,0-5.18-.19-7.77-.4C17.93,27.2,11.09,27.94,4.31,27.83Z"/><path class="cls-10" d="M26.19,9.43c1.48.31,3,.62,4.44,1,6.06,1.76,13.34,3,20,2.33l-.66-.68c-1.26-.1-2.6-.17-3.66-.31C39.62,10.91,32.89,9.61,26.2,9,26.19,9.16,26.19,9.29,26.19,9.43Z"/></g><path class="cls-5" d="M33.29,43.38c-1.61.2-3.38.39-4.91.54a6.34,6.34,0,0,0-.61-2.34c1.51-.18,3.22.34,4.75.48,1.3.12,4.07.91,5.27.49A25,25,0,0,1,33.29,43.38Z"/><path class="cls-11" d="M13.52,34.55a19.14,19.14,0,0,0,2.36.17h0C15,34.94,4.19,36,4.21,36.45A11.25,11.25,0,0,0,4,34c1.61.19,3.37,0,5,.07C10.49,34.1,12,34.37,13.52,34.55Z"/><path class="cls-10" d="M25.91,17.07l-.8-.4a84.19,84.19,0,0,1-11-3.73c-3-1.37-6.59-3.73-9.39-1.81a13.11,13.11,0,0,0-1.34,6.25C4.19,8.31,12.53,14.57,25.91,17.07Z"/><path class="cls-10" d="M26.72,4.82a7.31,7.31,0,0,1,1.59-2.38c2.93-2.82,5.8-.5,8.54,1.22,1.89,1.2,3.61,3,2.9,5.47A4.48,4.48,0,0,0,41,5.75c-.16-1.2-1.51-1.94-2.42-2.57C36.2,1.52,33.15-.65,30.06.36,28.2,1,27.23,2.68,26.72,4.82Z"/><path class="cls-10" d="M44.55,15.32a59.1,59.1,0,0,0,9.11.62c-.7-.77-1.45-1.52-2.21-2.26-1.91-1.84-4.23-4.79-6.66-5.91a4.54,4.54,0,0,0-2.63-.22A4.09,4.09,0,0,0,40.85,8a5.36,5.36,0,0,0-1.12,1.06c1.08-1,4.42-.16,5.58.46a18.91,18.91,0,0,1,3.34,2.37c1.37,1.21,2.22,2.37.11,3A11.08,11.08,0,0,1,44.55,15.32Z"/><path class="cls-12" d="M52.57,17.46a41,41,0,0,0-8.66.36c-3.14.32-6.07.74-9.23.87a2.12,2.12,0,0,0,1.6.38c5.77-.55,12.06-1.2,17.83-.48a12.31,12.31,0,0,1,1.78.25c-.33-.09-.53-.72-.82-.88a5.49,5.49,0,0,0-1.8-.41C53,17.51,52.8,17.48,52.57,17.46Z"/><path class="cls-13" d="M34.11,14.59c.74.88-.15,2.84-2,4.39s-3.92,2.08-4.66,1.2.15-2.85,2-4.39S33.37,13.71,34.11,14.59Z"/><path class="cls-14" d="M40.12,8.87c1.26-3.35,1.63-3.53-1.51-5.69C36.2,1.52,33.15-.65,30.06.36a6,6,0,0,0-.63.29,10.65,10.65,0,0,0-1.27,1c-1.67,2-2,5.56-2,8.94a10.73,10.73,0,0,0,6,1A24.21,24.21,0,0,0,43.7,7.5C42.37,7.36,40.58,7.65,40.12,8.87Z"/><path class="cls-13" d="M5.77,18.35c2.4-.34,2.44-4.52-.16-2.71C4.65,16.3,3.83,18.63,5.77,18.35Z"/><path class="cls-15" d="M30.22.44a4.15,4.15,0,0,0-1.31.85c-3.39,3.22-2.62,9.92-2.63,14.1,0-5,1.21-17.23,9.26-12.8,1.53.84,2.9,2,4.48,2.7C38.11,2.57,33.76-1,30.22.44Z"/><path class="cls-15" d="M41.2,8.38C43,6.24,47.15,9.7,48.5,11c.47.45.88.95,1.38,1.38a17.32,17.32,0,0,0-4-2.78c-1.59-.81-3-.81-4.57-1.19Z"/><path class="cls-15" d="M14.7,13.63C12.6,12,7,9,4.93,11.73a7.4,7.4,0,0,0-1.15,3c1.28-4.34,5.67-2.82,8.63-1.84a13.65,13.65,0,0,1,2.62.94Z"/><path class="cls-16" d="M41.07,39.35A29.14,29.14,0,0,1,36.2,39c-3-.68-7.82-4.12-6.9-7.77-.87,2.57-1.76,7.12.35,9.36,2.6,2.75,6.06.47,9.17.54.18,0,.18,0,0,0-4.31.5-11,8.5-4,6.37,3.61-1.11,9.42-6,11.69-9.07C46,39.15,43.49,39.36,41.07,39.35Z"/><path class="cls-16" d="M26,29.87C21,31.29,5.27,33.11,5.53,24c-.1,3.58.35,10.17,5.43,8.41C9,33,7.1,35.4,9.53,36.6,13.18,38.42,22.8,31.14,26,29.87Z"/><path class="cls-12" d="M30.06,27.47c-4.08-.14-8.19.3-12.28.3-3,0-7.82.5-10.53-.77,6.09.14,12-.61,18.12,0a34.54,34.54,0,0,1,4.68.52C30.17,27.47,30.18,27.47,30.06,27.47Z"/><path class="cls-12" d="M56.24,27.57a10.89,10.89,0,0,0-.21-8c.77,1.53.89,3.8-.3,5.16S53.42,25.84,52,26c-1.8.22-3.6.44-5.41.5a12.6,12.6,0,0,0-1.84,0c.72.09,10.26,1,10.32.78-.45,1.33-1.84,5.37-3.77,4.93C53.8,32.78,55.51,29.62,56.24,27.57Z"/><path class="cls-12" d="M49.53,31.38c.49,1.32,1,2.73,1.42,4.07a63.18,63.18,0,0,1-6.81,6.47c-.77.69-1.44,1.46-2.27,2.08,1.77-1.88,3.37-3.9,5.13-5.79,1.14-1.23,2.84-2.4,2.69-4.14-.07-.87-.15-1.76-.28-2.62Z"/><path class="cls-17" d="M2,15.88c-.18,6.36-.25,15.25.5,20,1.2,7.68,7.55,5,13.07,2.53a55.07,55.07,0,0,1,9.85-3.54c-4.19.56-8.38,2.5-12.48,3.58a18.62,18.62,0,0,1-5.35.63,3.13,3.13,0,0,1-2-.68c-.23-.2-1.37-2.31-1.16-2.34,2.72-.39,6-.55,8.71-1.35-4.05-.16-6.55-.24-9.29-.26C3.43,28.62,2.68,22.73,2,16.88Z"/><path class="cls-18" d="M36.16,50.19c-2.47.81-5.21,1.32-6.79-1.06A11.41,11.41,0,0,1,27.3,43.4l5.79-.6a48.44,48.44,0,0,1-6.21-1.37,48.89,48.89,0,0,0-.51-6,62.89,62.89,0,0,0,.16,7.47c.25,3.59.59,6.17,1.29,7.44,1.13,2,4.09,2.33,6.11,1.82,3-.74,5.73-2.74,8-4.69,2.59-2.22,5.24-4.43,7.68-6.78a21,21,0,0,0,3.15-3.17c-2.75,2.38-5,4.3-7.47,6.45a39.58,39.58,0,0,1-7.44,5.53A12.3,12.3,0,0,1,36.16,50.19Z"/><path class="cls-19" d="M56.41,25.8l.09-.29a8.15,8.15,0,0,0,.2-4.4c-.69-2.85-2.9-5.17-5.25-7.43-1.91-1.84-4.23-4.79-6.66-5.91-1.1-.52-4.06-.51-4.67,1.1,1.26-3.35,1.63-3.53-1.51-5.69C36.2,1.52,33.15-.65,30.06.36,24.78,2.09,26.59,12.68,26,17a95.48,95.48,0,0,1-11.89-4c-3-1.37-6.59-3.73-9.39-1.81a11.56,11.56,0,0,0-1.29,5,27.86,27.86,0,0,0,13.89,19c4.35-2.22,8.48-4.43,9.82-.21a24.31,24.31,0,0,1,.59,3.7,32.43,32.43,0,0,0,3.85.29,29.55,29.55,0,0,0,18.5-6.22,2.83,2.83,0,0,0-.57-1.13c.51.2.91.4,1.26.56A28.18,28.18,0,0,0,56.41,25.8Z"/><path class="cls-20" d="M25.64,33.73c1.78-2,1.57-5.15,1.73-7.69.17-2.94,1-6.75-.87-9.29-.12-.16-.87.14-.8.29,1.28,2.7,1.15,5.49,1,8.41-.14,2.74.19,6-1.39,8.36-.07.1.28,0,.33-.08Z"/><path class="cls-20" d="M24.1,16.66c-3.15,4.14-3.34,12.62.27,16.61.22.24,1.14-.09,1-.44-2-5.06-3.8-11.18-.52-16.2.21-.32-.61-.16-.75,0Z"/><g class="cls-21"><path class="cls-22" d="M23.12,16.43c-3.18,8.07-.21,16.39-1.42,24.65,0,0,.69-.14.73-.33,1.63-8-1.44-16.3.9-24.4,0,0-.19,0-.21.08Z"/></g><g class="cls-21"><path class="cls-22" d="M25.07,16.57c1.38,1.78-.05,6.59-.06,8.83,0,1.72,1.34,6.58-.46,7.59-.42.23-.11.26.17.11,2-1,1.57-3.45,1.35-5.37a40.07,40.07,0,0,1-.19-6c.06-1.85,1-3.78-.59-5.26,0,0-.23.08-.22.1Z"/></g><g class="cls-21"><path class="cls-22" d="M23.48,22.67c-.58-.43-1.37-.17-2,0-.05,0-.57.21-.4.32a1.44,1.44,0,0,0,.53.21l.27,0,.14,0a.15.15,0,0,1,.18.09c-.06.09-.11.19-.16.28a1.72,1.72,0,0,1,.64,0c0-.07-.05-.13-.07-.2a1.66,1.66,0,0,1-.39.31c-.11.06-.39.29-.09.29h.68c0-.08,0-.16,0-.24a1.71,1.71,0,0,1-.57.25c-.12,0-.55.33-.2.33h.34c.07-.11.14-.22.2-.33a3.44,3.44,0,0,0-.53.21c-.46.26.27.23.47.12a.3.3,0,0,0,.15,0c.1,0,.57-.33.2-.33h-.34l-.2.33a4.16,4.16,0,0,0,.94-.42c.11-.08.23-.24,0-.24h-.67c0,.1-.07.19-.1.29a4.33,4.33,0,0,0,.71-.5c.12-.09.08-.19-.07-.19a3.51,3.51,0,0,0-1.4.21c-.06,0-.39.24-.16.28a1.67,1.67,0,0,0,1.47-.55s.06-.1,0-.12c-.42-.18-.92-.1-1.3-.35l-.4.32A2.59,2.59,0,0,1,23,22.87c.1,0,.56-.12.44-.2Z"/></g><g class="cls-21"><path class="cls-22" d="M23.44,28.19a5.39,5.39,0,0,0-2.65.63c-.08,0-.39.21-.23.34a3.46,3.46,0,0,0,2.13.57c.07-.16.15-.32.23-.48a3.69,3.69,0,0,0-1.18.32c-.24.11-.39.42,0,.42a2.32,2.32,0,0,1,1.4.27l.34-.37c-.63.16-1.27-.06-1.91.12-.2,0-.59.31-.21.44a11.71,11.71,0,0,0,1.56.22V30.3a4,4,0,0,1-1.15.32c-.1,0-.61.29-.29.42s.23.2.31.43.67.1.74-.11c.13-.38,0-.57-.36-.72l-.3.42a5.35,5.35,0,0,0,1.58-.47c.16-.1.27-.31,0-.37-.52-.12-1.06,0-1.57-.22l-.21.45c.61-.17,1.27,0,1.9-.12.09,0,.53-.22.34-.37a2.84,2.84,0,0,0-1.85-.45v.43a2,2,0,0,1,.73-.21c.29,0,.75-.47.23-.48a2.72,2.72,0,0,1-1.68-.41l-.23.34a11.17,11.17,0,0,1,2.19-.7c.11,0,.38-.25.13-.29Z"/></g><g class="cls-21"><path class="cls-22" d="M23,37.89a4.3,4.3,0,0,0-3.51,1.22.12.12,0,0,0,0,.19c.9.34,1.87.27,2.79.52l.21-.39a2.61,2.61,0,0,0-1.43.72c-.09.1,0,.18.12.2a7.1,7.1,0,0,0,1.66-.05l-.2-.21a1.8,1.8,0,0,1-1,.56L22,41a5.58,5.58,0,0,1,1.21-.21c.05-.13.09-.26.13-.4-.65.12-1.31.24-2,.31-.16,0-.78.32-.34.42a16,16,0,0,0,2.3.06c.11,0,.72-.2.43-.33-.69-.3-1.47,0-2.19-.14-.11.14-.22.28-.34.41.7-.08,1.4-.2,2.09-.34.36-.08.49-.45,0-.39a8.42,8.42,0,0,0-1.65.31c-.46.16-.17.44.2.34a3,3,0,0,0,1.62-.92c.11-.14-.09-.21-.2-.21a6.61,6.61,0,0,1-1.47.06l.12.21a1.42,1.42,0,0,1,.76-.36c.17,0,.58-.29.21-.39-.87-.24-1.79-.17-2.64-.48,0,.06,0,.12,0,.18a3.34,3.34,0,0,1,2.5-.89c.21,0,.7-.31.26-.33Z"/></g><path class="cls-20" d="M25.63,16.42c-1.89,2-1.5,4.85-1.37,7.4S24,29,23.91,31.61c-.11,2.83.4,5.52-.05,8.36,0,.1.69-.11.73-.29.85-3.72.15-7.73.35-11.54.16-3.07-1.21-9.28.88-11.77,0,0-.16,0-.19.05Z"/><path class="cls-20" d="M25.63,21.58c-.58-.44-1.36-.2-2,0-.07,0-.59.22-.38.36.41.28.89.2,1.33.39,0-.08,0-.16,0-.24a.31.31,0,0,1-.29.16l-.16.39a2.05,2.05,0,0,1,.82-.08c0-.11-.07-.21-.1-.32a3.25,3.25,0,0,1-.47.36c-.24.11-.31.35,0,.36h.68l-.1-.31a1.92,1.92,0,0,1-.57.24c-.26.08-.5.4-.08.41h.33l.09-.4a3,3,0,0,0-.53.22c-.1.06-.23.23-.06.29a.7.7,0,0,0,.56-.1.15.15,0,0,0,.15,0c.24-.09.52-.41.09-.41H24.6l-.09.4a3.9,3.9,0,0,0,.93-.42c.23-.14.14-.31-.1-.31h-.68c0,.12,0,.24,0,.36a3.59,3.59,0,0,0,.63-.45c.21-.15.16-.31-.1-.31a3.14,3.14,0,0,0-1.22.16c-.15.06-.54.34-.17.4a1.55,1.55,0,0,0,1.36-.51c.07-.08.11-.19,0-.24-.4-.16-.89-.09-1.25-.32l-.38.37a2.59,2.59,0,0,1,1.69-.12c.1,0,.55-.13.4-.24Z"/><path class="cls-20" d="M25.53,27.1a5.29,5.29,0,0,0-2.59.62c-.17.07-.36.25-.17.41a3.51,3.51,0,0,0,2.08.54c.07-.17.14-.34.22-.51a3.45,3.45,0,0,0-1.18.32c-.24.1-.39.44,0,.45a2.23,2.23,0,0,1,1.4.26l.34-.39c-.63.15-1.27-.06-1.9.11-.22.06-.59.34-.21.48a13.45,13.45,0,0,0,1.55.22v-.4a3.69,3.69,0,0,1-1.15.31c-.22.07-.58.33-.21.48.22.09.17.21.23.39s.67.12.75-.11c.14-.42-.07-.6-.45-.75L24,30a4.83,4.83,0,0,0,1.58-.48c.16-.1.26-.33,0-.39-.52-.12-1.06-.05-1.56-.22l-.21.48c.61-.17,1.27,0,1.9-.12.09,0,.53-.23.34-.4a2.93,2.93,0,0,0-1.86-.45v.45a2.15,2.15,0,0,1,.73-.2c.31,0,.75-.5.23-.51a2.77,2.77,0,0,1-1.73-.45l-.17.41a11.92,11.92,0,0,1,2.19-.71c.2,0,.34-.27.06-.31Z"/><path class="cls-20" d="M25.2,36.82A4.35,4.35,0,0,0,21.69,38a.1.1,0,0,0,0,.17c.88.34,1.82.26,2.71.51l.3-.35a2.5,2.5,0,0,0-1.43.71c-.09.1,0,.17.11.19a8.39,8.39,0,0,0,1.66-.06l-.2-.19a1.77,1.77,0,0,1-1,.56c.06.11.13.21.19.31a5.58,5.58,0,0,1,1.21-.21c.05-.12.09-.24.14-.37-.65.12-1.31.24-2,.31-.15,0-.77.29-.35.39a18.29,18.29,0,0,0,2.22.06c.11,0,.81-.18.52-.31-.69-.3-1.47,0-2.19-.14l-.35.39c.7-.08,1.4-.21,2.09-.35.36-.07.5-.41,0-.35a7.63,7.63,0,0,0-1.65.31c-.46.16-.17.41.19.3a2.94,2.94,0,0,0,1.62-.9c.12-.14-.08-.2-.19-.19a6.69,6.69,0,0,1-1.48.05l.12.19a1.46,1.46,0,0,1,.76-.36c.06,0,.59-.27.29-.35-.89-.25-1.84-.18-2.72-.5l.05.17a3.24,3.24,0,0,1,2.49-.89c.2,0,.7-.3.27-.32Z"/><path class="cls-20" d="M23.37,56.11a141.3,141.3,0,0,0-.51,16.46c.17,3.89.71,7.77.29,11.66A30.12,30.12,0,0,0,23,92.05c0,.1.4-.06.41-.17.8-11.95,0-23.88.29-35.86,0-.1-.29,0-.3.09Z"/><path class="cls-20" d="M24.18,64.14c-.26-.4-1-.12-1.36,0a2.86,2.86,0,0,0-1.52.81c-.47.76,1.57.76,1.93.9,0-.14.05-.28.08-.42a1.75,1.75,0,0,1-.8.22c-.35,0-.74.57-.21.56a7.22,7.22,0,0,1,1.61,0v-.45c-.45.27-.92.52-1.39.77-.21.11-.34.47,0,.52A5.12,5.12,0,0,0,24,66.91c.36-.06.7-.66.14-.62s-1.26.22-1.43.79.63.3.78.06a.35.35,0,0,1,.39-.22l.15-.62a4,4,0,0,1-1.09.12v.52c.46-.27.91-.54,1.35-.83.18-.12.3-.39,0-.46a8.23,8.23,0,0,0-1.79,0l-.21.56a3.2,3.2,0,0,0,1.38-.44c.14-.07.3-.33.08-.41-.56-.21-1.18-.16-1.74-.34-.13,0-.14,0-.05,0a2.93,2.93,0,0,1,.56-.28,3.39,3.39,0,0,1,1.36-.32c.08,0,.38-.09.29-.23Z"/><path class="cls-20" d="M23.7,69.05a2.7,2.7,0,0,0-2.19.76c-.09.09-.1.19,0,.25.49.26,1,.26,1.55.48a2.87,2.87,0,0,0,.05-.31c-.21.15-.4.32-.61.47s-.16.33.1.34a4.1,4.1,0,0,1,.86.06l-.13-.21c-.48.62,0,1,.69,1,.28,0,.84-.4.3-.45s-.49-.21-.25-.53c.08-.11,0-.19-.13-.22a5.31,5.31,0,0,0-1.05-.08c0,.11.07.22.11.33.21-.15.4-.32.61-.47s.23-.23.06-.31c-.51-.22-1.07-.24-1.57-.5a2.28,2.28,0,0,1,0,.26,2.55,2.55,0,0,1,1.37-.58c.06,0,.4-.21.19-.26Z"/><path class="cls-20" d="M23.79,85.25a2.21,2.21,0,0,0-1.05.08,1.16,1.16,0,0,0-.91.55c-.24.53,1.36.46,1.59.46l-.25-.12c-.15.18-.2.42-.35.6s.67.07.73.05.41,0,.46,0,.62-.06.51-.19c-.3-.34-1.13-.14-1.49,0l.73,0c.15-.19.2-.42.35-.61s-.22-.12-.25-.12a3.8,3.8,0,0,1-1-.08c-.2-.06-.11-.32,0-.39a3.29,3.29,0,0,1,.64-.09s.47-.15.26-.21Z"/><path class="cls-20" d="M20.8,52.83c.79,6.67-1.68,12.71-1.4,19.24,0,.05.28,0,.3-.11,1.32-6.1,2.7-13.09,1.42-19.29,0-.06-.33.07-.32.16Z"/><path class="cls-20" d="M20.38,68.54c0-.44-.88-.25-1.14-.19a2.82,2.82,0,0,0-1.35.72s-.07.08,0,.13c.48.56,1.24,0,1.82.13,0-.08,0-.15-.05-.23a3.13,3.13,0,0,0-.73.63c0,.06,0,.1.08.12a2.29,2.29,0,0,0,1.75-.19l-.7-.11a3.51,3.51,0,0,0-.6.79c-.07.13.2.16.26.16a3.68,3.68,0,0,0,1-.12l-.32-.28a3.6,3.6,0,0,0-.89.41c-.08,0-.21.18,0,.22s.06.17.07.25.73.06.8-.09.25-.34,0-.47c0,.07,0,.15,0,.22a2.16,2.16,0,0,1,.47-.26c.06,0,.45-.14.31-.27s-.47,0-.63,0l-.23,0,.26.15a3.18,3.18,0,0,1,.5-.7c.26-.27-.61-.15-.7-.11a.59.59,0,0,1-.43.07l.07.11a2.16,2.16,0,0,1,.51-.44c.15-.1.14-.2-.05-.23a2.28,2.28,0,0,0-.69,0c-.3,0-.65.22-.88,0,0,0,0,.09,0,.13a.92.92,0,0,1,1.11-.34c.1,0,.57,0,.56-.18Z"/><path class="cls-23" d="M27,56.75l0,0a7.35,7.35,0,0,1-1,.32,5.16,5.16,0,0,1-1,.25,11.18,11.18,0,0,1-2.52,0c-1.72-.14-2.29-1.36-2.93-2.81a8.18,8.18,0,0,0-2.68-3.29c-1.58-1.31-1.54-2.56-1-4.47.29,2.09,2,4.31,3.48,5.75,2.22,2.15,7.62,2.42,9.74-.1a11.06,11.06,0,0,0-1.27,3A3.93,3.93,0,0,1,27,56.75Z"/><g class="cls-24"><path class="cls-23" d="M28.31,44.7c-.8-1.28-1.76-3-3.27-3.41a15.28,15.28,0,0,0-5.31,0c-2.26.32-3.49,2.76-4.48,4.71-.89,1.77-1.87,3.64-.72,5.52s3.28,2.13,4.34,3.83a12.41,12.41,0,0,1,.92,2.16,3,3,0,0,0,1.33,1.68c-.26-.15.3-2.64.68-2.82.46.66.27,2.07.37,2.92l1.62.08a8.54,8.54,0,0,1-.23-2.95,11.19,11.19,0,0,1,1.13.09,11.37,11.37,0,0,1,.08,2.4c.14,0,1.07,0,1.12-.16.49-1.29,0-1.77,1-2.91a10.18,10.18,0,0,0,2.25-4.51C29.72,48.71,29.71,47,28.31,44.7Z"/></g><path class="cls-25" d="M29.38,43.46c-.8-1.19-1.77-2.82-3.27-3.2a16.6,16.6,0,0,0-5.31,0c-2.27.3-3.5,2.59-4.48,4.42-.89,1.66-1.87,3.4-.71,5.17s3.28,2,4.33,3.59a10.56,10.56,0,0,1,.92,2A2.89,2.89,0,0,0,22.2,57c-.26-.14.3-2.47.68-2.64.45.62.27,1.94.37,2.74.54,0,1.09,0,1.61.08a7.33,7.33,0,0,1-.22-2.77c.36,0,.74,0,1.13.09a10.53,10.53,0,0,1,.08,2.24c.14,0,1.07,0,1.12-.15.49-1.2,0-1.66,1-2.72a9.43,9.43,0,0,0,2.24-4.23C30.79,47.23,30.78,45.59,29.38,43.46Z"/><path class="cls-26" d="M22.42,57.16a12.51,12.51,0,0,1,.13-2.34,7.27,7.27,0,0,1-2.26-5.36,10.34,10.34,0,0,1,1.87-6c1.09-1.73,2.11-3.75,4.61-3a9.28,9.28,0,0,0-6.17-.31c-2.53.77-3.13,2.38-4.28,4.52-.89,1.66-1.87,3.4-.71,5.17s3.28,2,4.33,3.59c.85,1.34.28,3.55,2.47,3.88A.5.5,0,0,0,22.42,57.16Z"/><path class="cls-26" d="M27.26,55.27a2.29,2.29,0,0,1-1.4.82c0,.24,0,.47,0,.69.14,0,1.07,0,1.12-.15A4.43,4.43,0,0,0,27.26,55.27Z"/><path class="cls-26" d="M24.86,57.22A4.73,4.73,0,0,1,24.63,56a5.34,5.34,0,0,1-1.47-.7c.08.61,0,1.33.09,1.84C23.79,57.16,24.34,57.18,24.86,57.22Z"/><path class="cls-23" d="M27.56,46.18c-1.35,1-2.39,3.21-1.42,4.33a1.87,1.87,0,0,0,2.14.46c1.14-.51,2.52-3.83,1.55-4.83A1.63,1.63,0,0,0,27.56,46.18Z"/><path class="cls-23" d="M24.18,48.55c-.12-2.41-2.83-4.42-5.16-3-1.19.73-.22,3,.28,3.91C20.51,51.76,24.31,51.53,24.18,48.55Z"/><path class="cls-23" d="M24.81,49.14a6.89,6.89,0,0,0,1.61,3.28,8.42,8.42,0,0,1-2,1.47c.1-.06-1-1.75-1-2.08,0-.73.8-1.66,1.09-2.33Z"/><path class="cls-27" d="M26.34,44c.61.24,1.29.38,1.83.61,1.88.77,1.14-.64.37-1.56-.55-.66-2.42-2.83-3.43-2.22C23.83,41.64,25.53,43.72,26.34,44Z"/><path class="cls-23" d="M16.35,50.19c.77.63,1.63.83,2.3,1.65a10.22,10.22,0,0,1-2-3.63,6.77,6.77,0,0,1,1.21-5.12,32.71,32.71,0,0,0-1.78,2.77C15.32,47.3,14.93,49,16.35,50.19Z"/></g></g></g></svg>