<svg xmlns="http://www.w3.org/2000/svg" xmlns:xlink="http://www.w3.org/1999/xlink" viewBox="0 0 84.18 84.18"><defs><style>.cls-1{isolation:isolate;}.cls-2{fill:#214380;mix-blend-mode:multiply;opacity:0.47;}.cls-3{fill:#57371d;}.cls-4{fill:#d6b36a;}.cls-14,.cls-5{fill:#c89c50;}.cls-6,.cls-9{fill:#b1733b;}.cls-6{opacity:0.73;}.cls-7{fill:#8b5e35;}.cls-8{fill:#684728;}.cls-9{opacity:0.6;}.cls-10{fill:#c08749;}.cls-11,.cls-13{fill:#e8c67b;}.cls-11{opacity:0.76;}.cls-12{fill:#f1ddb0;}.cls-14{opacity:0.53;}.cls-15{fill:#1cbeca;}.cls-16{fill:#fff;}.cls-17{opacity:0.7;}.cls-18{fill:#9a724f;}.cls-19{mix-blend-mode:screen;fill:url(#radial-gradient);}</style><radialGradient id="radial-gradient" cx="60.8" cy="19.05" r="60.25" gradientUnits="userSpaceOnUse"><stop offset="0.1" stop-color="#c35f14"/><stop offset="1"/></radialGradient></defs><g class="cls-1"><g id="Слой_2" data-name="Слой 2"><g id="Слой_11" data-name="Слой 11"><path class="cls-2" d="M72,84.18c-9.31-.46-19-.69-28.91-.69s-20.3.23-31,.69h-.19A11.95,11.95,0,0,1,0,72.24V72C.91,53.14.91,33,0,12.14v-.2A11.95,11.95,0,0,1,11.94,0c12.81.19,23.26.28,33,.28S63.6.19,72.14,0h.1A11.95,11.95,0,0,1,84.18,11.94v.18c-.76,19.51-.76,39.68,0,60v.17A11.95,11.95,0,0,1,72.24,84.18Z"/><path class="cls-3" d="M72.17,81.09c-9.36-.46-19.13-.69-29.06-.69s-20.39.23-31.11.69h0a8.84,8.84,0,0,1-8.91-8.85C4,53.2,4,33,3.09,12a8.84,8.84,0,0,1,8.85-8.91c12.77.19,23.24.28,33,.28s18.76-.09,27.32-.28h0a8.84,8.84,0,0,1,8.88,8.85c-.76,19.64-.76,39.89,0,60.25a8.84,8.84,0,0,1-8.85,8.9Z"/><path class="cls-4" d="M79.59,72.24a7.34,7.34,0,0,1-7.35,7.35c-20.1-1-40.2-.86-60.3,0a7.34,7.34,0,0,1-7.35-7.35c.94-19.63.9-39.75,0-60.3a7.34,7.34,0,0,1,7.35-7.35c20.33.3,40.43.44,60.3,0a7.34,7.34,0,0,1,7.35,7.35C78.8,32.36,78.85,52.44,79.59,72.24Z"/><path class="cls-5" d="M6.74,77.44A7.13,7.13,0,0,0,9.12,79c2.63-2.12,5.77-3.62,8.59-5.43-2.58-3.75-3-8.76-3.73-13.14-1.28-7.5-.44-15.52-.32-23.08a138.39,138.39,0,0,1,1.17-16c.31-2.35,1-4.83-.42-6.88A46.59,46.59,0,0,0,6.77,6.72l0,0a7.36,7.36,0,0,0-2.15,5.2c.9,20.55.94,40.67,0,60.3A7.36,7.36,0,0,0,6.74,77.44Z"/><path class="cls-6" d="M12.22,16.06c-.32-4.84-3.11-5.43-5.77-8.85,1,1.24.91,3.06.9,4.55,0,3.07-.62,6.11-.62,9.27,0,8-.37,15.67.45,23.62.87,8.49,2.33,17,1.49,25.59-.24,2.41-.32,4.83-1.64,6.93,3.14-1.33,5.51,0,5.81-4,.36-4.62.27-9.31.62-14,.69-9.33,1.51-18.74.41-28.07C13.28,26.12,12.56,21.13,12.22,16.06Z"/><path class="cls-7" d="M6.74,6.74l6.54,6.12c0,4.06-1.22,9.85.75,13.41,1.78,3.22,5.35,5.84,8.27,8A15.59,15.59,0,0,0,16,35.64c-3.71,1.58-3,6.7-3.09,10.21-.15,4.92.06,9.83.14,14.74a46.26,46.26,0,0,1-.2,6.56c-.27,2.14.55,4.09-.16,6.2-2.45-2.6-2-6.82-2.09-10.11A198,198,0,0,0,9.34,43.18c-1.24-9.6-2.88-18.44.72-27.78,1.07-2.78-1.79-6.16-3.56-8.17Z"/><path class="cls-7" d="M9.76,52.51A7.8,7.8,0,0,1,5.24,50c1,1.84,3.8,4,4.09,5.9.21,1.37-.6,1.74,0,3.21.4,1,1.39,1.35,1.55,2.56,0-.83.34-8.91.21-8.92A12.15,12.15,0,0,1,9.76,52.51Z"/><path class="cls-7" d="M7.1,66.34a2.61,2.61,0,0,0-.56.48C4.93,68.5,5.89,73.2,8.62,71,10.51,69.5,9.32,64.89,7.1,66.34Z"/><path class="cls-8" d="M7.1,66.34a2.61,2.61,0,0,0-.56.48,2.1,2.1,0,0,0-.31.41c1.92-1.18,3,2.18,2,4A3.9,3.9,0,0,0,8.62,71C10.51,69.5,9.32,64.89,7.1,66.34Z"/><path class="cls-4" d="M12,72.78c-2.5.92-3.76,2.7-5.17,4.82,1.58-.87,4.53-3,5.25-4.75Z"/><path class="cls-4" d="M5.35,50.35C6.48,52.14,8.4,53,9.15,55c.53,1.36-.43,2.69.18,3.87C8.7,57.69,8.87,56.28,8.19,55S6.65,52.91,6,51.79c-.33-.57-.32-.9-.64-1.44Z"/><path class="cls-7" d="M9.11,19.21c-.13.7-.22,1.48-.32,2.21a21,21,0,0,0-2.57-1.68c.82-.13,2.11,0,2.81-.45Z"/><path class="cls-4" d="M6.5,7.19A13.81,13.81,0,0,1,10,12.66a7.24,7.24,0,0,1,.29,2c-.65-1.27-1.06-2.56-1.67-3.82S7,8.51,6.5,7.27Z"/><path class="cls-5" d="M79.59,72.24c-.74-19.8-.79-39.88,0-60.3a7.36,7.36,0,0,0-2.15-5.2l-.13-.11c-1.24,1.45-2.37,3.06-3.57,4.47-.93,1.11-2.41,2.18-3.18,3.36-1.87,2.84-1.3,7.93-1.48,11.15-.55,9.76.59,19.42.47,29.18-.06,4.94-1.42,12.3.94,17,1,1.89,2.93,2.43,4.22,4a13.18,13.18,0,0,1,1.5,2.67,7.56,7.56,0,0,0,1.23-1A7.36,7.36,0,0,0,79.59,72.24Z"/><path class="cls-9" d="M77.44,6.74l-5.16,5.77c-.67.76-.09,5.08-.1,6-.12,9.39-.46,18.78-.52,28.17,0,4.71,0,9.46-.2,14.16s.35,8.79-.81,13.39c.81-3.23,5.86,2.9,6.22,3.31-.21-2.1-1.11-4.18-1.31-6.27-.29-3.25,1-6.51,1.14-9.76.15-5.52-1.1-11-1.24-16.49-.24-8.83,1.67-18.31.15-27-.43-2.45-2-4.74-.6-7.21C75.8,9.46,76.66,8.05,77.44,6.74Z"/><path class="cls-7" d="M66.89,33c.06-.63.64-2,.39-2.6-.19-.41-.86-.56-1.24-.68-.87-.28-2.18-.54-1.79-1.76s1.92-2.72,2.8-3.73a19.73,19.73,0,0,0,2.5-2.76,9.7,9.7,0,0,0,.67-3.24,13.94,13.94,0,0,1,2.63-6.78C74,10,75.65,9.2,76.7,7.71c-.94,1.33-2.32,3.86-3.63,4.84,3.63,4.7,2,12.2,1.13,17.45-.49,3.07-1.07,6.64-1.38,10.12a41.08,41.08,0,0,0-.11,6.71c.24,3.05,1,6.16,1.48,9.19.91,6.3,2.49,12.29-1.55,17.88A5,5,0,0,1,71.72,75c.25-1.14-.54-2.29-.68-3.41a26,26,0,0,0-.77-3.54c-.72-2.78-1.37-5.59-1.9-8.42a105,105,0,0,1-1.85-17.23A80.45,80.45,0,0,1,66.89,33Z"/><path class="cls-7" d="M74.73,38.35c2.44.89,4.86-6.57,1.9-6.44C74.49,32,71.94,37.33,74.73,38.35Z"/><path class="cls-8" d="M76.63,31.91a3,3,0,0,0-2,1.34,2,2,0,0,1,1-.42c2-.09,1.52,3.43.2,5.33C77.83,37,79.1,31.8,76.63,31.91Z"/><path class="cls-7" d="M73.2,51.77c2.12,1.5,4.24,4.19,5.93,6.21a19.91,19.91,0,0,1-4.3-2.75c-.32.88-.54,1.73-.83,2.64h0c-.4-2-.31-4.1-.57-6.1Z"/><path class="cls-4" d="M79.13,58a12.94,12.94,0,0,1-4.42-2.83c-.86,1.25.83,1.39,1.73,1.7a27.9,27.9,0,0,0,2.61,1Z"/><path class="cls-10" d="M72.24,79.59A7.34,7.34,0,0,0,77,77.85c-1.64-2.21-3-4.75-4.59-6.92-6.34,2.81-15,1.12-21.71.65-5.43-.38-10.68-.34-16.12-.19-6.15.17-12.34.69-18.49.48-3.6-.13-4.14,1.27-6.6,3.43-.86.76-1.71,1.53-2.54,2.31a7.36,7.36,0,0,0,5,2C32,78.73,52.14,78.61,72.24,79.59Z"/><path class="cls-6" d="M72,76.56a2.54,2.54,0,0,1,1.3-.34c1,0,2.48,1.25,3.49,1.62-.51-.51-4.63-6.82-4.43-6.91-6.34,2.81-15,1.12-21.71.65-5.43-.38-10.68-.34-16.12-.19-5.86.16-11.71.4-17.56.5-3.08.06-7.27,3.64-10.06,5.72,2.16.23,4.11-.66,6.49-.25s4.74,1.2,7.19,1.3c9.63.41,19.09-2.53,28.75-2.43,6.18.06,14.76,4.41,20.72,1.61C70.81,77.49,71.38,76.93,72,76.56Z"/><path class="cls-7" d="M6.93,77.61l5.74-5.18c1.44-1.3,8.9.13,11.07-.33,3.22-.67,5.75-2.79,7.85-5.22.92-1.08,1.59-2.85,2.73-3.68,1.32-1,2,.22,1.71,1.52-.31,1.57-1.23,3-.31,4.57.78,1.34,2.48,1.93,3.9,2.29,3.51.89,7.23.53,10.8.19,1.83-.17,3.68-.38,5.53-.42,1.63,0,15.57-1.75,16.44-.42L77,77.85a11.85,11.85,0,0,0-1.73-1.66c-.83-.78-1.76-1.49-2.55-2.31a4.78,4.78,0,0,1-2.31,2.56,7.75,7.75,0,0,1-4.35.61c-1.89-.29-3.7-.93-5.55-1.3a64.36,64.36,0,0,0-8.08-1,48,48,0,0,0-11,.45c-3.09.51-6.23,1-9.32,1.39a58,58,0,0,1-9.13.14A23.41,23.41,0,0,1,18,76.22c-1.51-.39-3-1.22-4.59-.93a25.28,25.28,0,0,0-3.71,1.33C8.77,77,7.85,77.28,6.93,77.61Z"/><path class="cls-7" d="M50.17,77.47c1.11.58,2.24,1.12,3.31,1.57-.71-.3-1.73-1.64-2.31-2.21-.34-.34-1.12-.9-1.21-1.4s.49-.83.46-1.23a1.21,1.21,0,0,0-2.05-.81c-.61.52-.66,1.78-1.15,2.43C48.14,76.38,49.15,76.94,50.17,77.47Z"/><path class="cls-4" d="M47.18,75.87A50.46,50.46,0,0,1,52,78.48c.4.21.84.31,1.21.54a21.58,21.58,0,0,0-4-1.54,35,35,0,0,0-3.41-1.11,8.17,8.17,0,0,1,2-1.81A4,4,0,0,0,47.18,75.87Z"/><path class="cls-4" d="M72.68,73.93A20.76,20.76,0,0,1,75,76.12a8.89,8.89,0,0,1,1.9,1.82,7.56,7.56,0,0,1-4.24-4Z"/><path class="cls-11" d="M7.31,6.2C15.6,7.83,23.19,7.93,31.57,7.65c5.8-.19,11.51-.4,17.26-.76a121.7,121.7,0,0,1,20,.17c3.13.31,4.93,1.27,8-.16-3,1.85-3,4.61-7,4.95-10,.84-20,.12-30,0a195.92,195.92,0,0,0-20,1.25c-2.68.24-5-.91-7.32-2.21C10.71,9.8,9,7.92,7.2,6.57c.32-.09.38-.36.57-.49Z"/><path class="cls-12" d="M77.44,6.74a56,56,0,0,0-5.73,6.15c-3.25,0-6.72-.24-10-.2-5.92.07-7.64,1.56-12.21,5.09.28-1.71,1.63-4.07-.71-4.88-1.83-.64-5.08,0-7,.08l-13.55.2-14.69.21L6.74,6.74l7.57,3.67c4.93-.57,9.88-1.08,14.83-1.48,8-.64,16-1.06,24-1,3.46,0,6.92.2,10.37.52.58.06,7.43.46,8.35,2.43C74,9,75.74,8.34,77.44,6.74Z"/><path class="cls-12" d="M31.64,9.3a33,33,0,0,1,4.75-4.56,18.19,18.19,0,0,0-1.71,4.38,12.39,12.39,0,0,0-2.92.41Z"/><path class="cls-13" d="M53,73a108.42,108.42,0,0,0-13.11.68c-1.79.18-6.37.8-9.9,1.43,2.15-2.8,3.74-7.25,5.61-10.6-2.23,2.72-3.59,6.3-6.18,8.74-3.1,2.91-7,1.91-11.2,1.64-6.55-.44-6.93-3.17-6.74-8.82a191.53,191.53,0,0,0-.52-26A107,107,0,0,0,9.66,29c2.81,1.06,6.28,1.7,9,3.36-4.15-2.52-9.34-3.58-9-9.06.24-4,1-8.51,4.37-11.14,2.84-2.21,11.57-1.94,15.14-2.27,4.57-.43,9.17-.59,13.76-.62,3.63,0,8.65-.77,12,.52-1.57,2.33-3.27,4.57-4.86,6.89,2.18-2.36,3.89-5.68,7.08-6.86,2.84-1,6.5-.12,9.44.11,4,.32,6.44,2.39,7.3,6.31,1.05,4.81-5.37,8.86-8.24,12.12a30.46,30.46,0,0,1,8.19-5.83c-1.19,3.62-1.11,8.4-1.54,12.23a47.74,47.74,0,0,0,.08,13.61C73.67,55.65,75,62.63,73.09,70c-1.47,5.7-4,5.65-10.16,4.22A50.16,50.16,0,0,0,53,73Z"/><path class="cls-12" d="M14.79,20.38c2.86-1,6-6.19,2.93-7.15-2.86-.89-7.44,3.76-5.46,6.5A2,2,0,0,0,14.79,20.38Z"/><path class="cls-5" d="M15.36,19.8c2.86-1,6-6.18,2.94-7.14-2.86-.9-7.45,3.76-5.46,6.49A2,2,0,0,0,15.36,19.8Z"/><path class="cls-6" d="M18.3,12.66c-1.51-.47-3.48.59-4.73,2.1a4.34,4.34,0,0,1,3.81-1.18c2.11.65,1.29,3.28-.35,5.2C19.21,16.91,20.77,13.43,18.3,12.66Z"/><path class="cls-12" d="M13.76,25.78c3,.59,5.36-5.26,1-4C12.6,22.42,10.36,25.11,13.76,25.78Z"/><path class="cls-5" d="M14.22,25.4c3,.59,5.36-5.26,1-4C13.06,22,10.82,24.73,14.22,25.4Z"/><path class="cls-6" d="M15.23,21.4a4.66,4.66,0,0,0-2.41,1.68,4.89,4.89,0,0,1,1.49-.76c2.7-.78,2.82,1.17,1.81,2.62C18,23.67,18.58,20.43,15.23,21.4Z"/><path class="cls-12" d="M24.39,74a16.78,16.78,0,0,1-6.94-.44c-1.34-.41-3.3-.89-4.37-1.8-1.28-1.08-1.38-2.56-1.67-4.06,0,4.56.88,6.81,6.77,7.21,4.18.27,8.1,1.27,11.2-1.64,2.28-2.15,3.61-5.19,5.44-7.75.24-.38.49-.76.75-1.15a58.39,58.39,0,0,0-5.56,7C28.7,73.06,26.48,73.64,24.39,74Z"/><path class="cls-12" d="M65.51,74c1.69,1.13,4.17-1.59,4.58-3.06C71.36,66.31,61.54,71.33,65.51,74Z"/><path class="cls-5" d="M66.05,73.44c1.69,1.12,4.17-1.6,4.57-3.06C71.9,65.77,62.08,70.79,66.05,73.44Z"/><path class="cls-6" d="M65.59,70.65c1.87-1.46,4.86-2,4.12.65a4.88,4.88,0,0,1-.92,1.6,5.73,5.73,0,0,0,1.83-2.52C71.5,67.2,67.1,68.61,65.59,70.65Z"/><path class="cls-12" d="M13.55,30.22c-1.27-.33-2.59-.84-3.87-1.14a108.68,108.68,0,0,1,1.24,11c.32,3.16.51,6.3.62,9.44,0-.66.06-1.32.06-2,0-4.74,0-6-.28-8.94-.21-2.44-.3-3.76-.4-7.87,2.14.32,4.27.74,6.42,1A34.13,34.13,0,0,0,13.55,30.22Z"/><path class="cls-12" d="M72.85,14.3A17.28,17.28,0,0,1,74,18.21a9.39,9.39,0,0,0-2.68-6.78,6.91,6.91,0,0,0-3-1.74c-1.12-.31-2.7.28-3.63,0,1.84.65,4,.5,5.77,1.56A6.71,6.71,0,0,1,72.85,14.3Z"/><path class="cls-12" d="M74,60.77a86,86,0,0,0-1.67-12.45,47.74,47.74,0,0,1-.08-13.61c.43-3.83.35-8.61,1.54-12.23a34.7,34.7,0,0,0-7.12,4.76l-.12.11a6,6,0,0,0-.44.43,46.22,46.22,0,0,1,6.23-3.51c.21,1.53-.39,3.14-.73,4.63C69.14,39.8,71.07,50.11,74,60.77Z"/><path class="cls-12" d="M66.33,27.55a4.73,4.73,0,0,1-.79.56l.54-.31C66.16,27.72,66.24,27.63,66.33,27.55Z"/><path class="cls-14" d="M69.67,16.61c1.24.42,2.88-.31,3.53,1.09a7.39,7.39,0,0,0,.32-2.65c-1-3.17-3.36-4.88-7-5.17-2.94-.23-6.6-1.15-9.44-.11-3.26,1.2-5.65,4.85-7.23,7.78,3.71-3.51,10.33-6,15.32-3.85C66.73,14.34,68.12,16.07,69.67,16.61Z"/><path class="cls-5" d="M11.61,14.89A12.31,12.31,0,0,0,11,16.1l2.91-2.63a22.34,22.34,0,0,1,2.44-1.31A13.28,13.28,0,0,0,11.61,14.89Z"/><path class="cls-14" d="M42.3,13.25c4.51-2.1,9.74-2.81,8.27,3.9.56-2.56,2.89-5.29,4.32-7.41-3.37-1.29-8.39-.55-12-.52-4.59,0-9.19.19-13.76.62-1.44.13-3.74.17-6.14.31a27.73,27.73,0,0,0-6.6,2l.67-.25c4.48-1.63,7.93-.72,12.48-.41-.83,2.15-3.85,3.45-4.4,6.08,5.75-1.29-.52,8.74-1.09,9.91-1.77,3.66-4.63,9-4.62,13.08,4.91-8.67,10.39-17.66,18-24.28A22.05,22.05,0,0,1,42.3,13.25Z"/><path class="cls-14" d="M11.79,67c7.08,8.36,20.49-14.51,24.75-17.89-.06,1.06.5,1.14.72,1.85,4.43-1.86,6.79-2.71,10.07-6.85.82,4.29,8.6,12.68,13.46,10.51,1.63-.72,5-6,5.94-7.55,1.73-2.79,2.08-6,3.38-8.92-.26,9.93,4.06,20.35,2.21,30.17-.48,2.53-1.27,5-3.28,6.69,1.76-2.67,4.4-11.17-1-10.56-3.7.42-6,5.53-10.11,6.23-3.74.63-7.58,0-11.36.19-3.95.21-7.8,1.2-11.77,1.37,1.15-2.22,6.4-10.3,3.54-11.7s-9.68,6.07-11.4,7.49c-5.54,4.54-10.5,7.69-15.12.81Z"/><path class="cls-14" d="M20.82,44.54c-3.59.15-10.4,9.18-5.85,11.58,4.81,2.52,14.67-10.64,6.46-11.58Z"/><path class="cls-14" d="M47.58,30c2.46,6.57,15.61-3.81,9.7-7.19C52.79,20.24,45.66,24.87,47.58,30Z"/><path class="cls-14" d="M35.81,37.19c-.51,4,5,3.18,5.16,0,.16-2.85-3.06-3.11-4.54-1.26Z"/><path class="cls-15" d="M72.24,79.59a7.36,7.36,0,0,0,5.2-2.15l0,0c-1.42,1.48-6.1,1.5-8,1.59a69.92,69.92,0,0,1-8.31-.26c-2.68-.2-5.77,0-8.39-.47-2-.4-3.8-2.5-6-2.57-.08,0-.07,0,0,0,1.27.72,3.21,1.28,3.88,2.62-.9,0-1.89-.14-2.83-.09A134.28,134.28,0,0,1,34,78.14c-4.47-.11-8.95.2-13.42-.2a50.37,50.37,0,0,0-5.33-.35c-2.11,0-4.34.7-6.43.26s-2.92-2-3.88-3.48a7.32,7.32,0,0,0,7,5.22C32,78.73,52.14,78.61,72.24,79.59Z"/><path class="cls-15" d="M5.73,40.88c.31-5.59.82-10.67.13-16.27a43.37,43.37,0,0,0-1-4.52Q5.59,41.32,5,61.9c.2-2,.43-4.08.63-6.08a13.74,13.74,0,0,0,.12-4.15c.38,1,1.84,1.82,2.38,2.88-.71-2.43-2.3-3.38-2.37-6S5.58,43.43,5.73,40.88Z"/><path class="cls-16" d="M65.27,9.56a13.52,13.52,0,0,1,3.11.36,10.71,10.71,0,0,1,2.3,1.13,5.67,5.67,0,0,1,1.37,1c.27.31.4.49.38.51a12.75,12.75,0,0,0-1.91-1.27,12.61,12.61,0,0,0-2.26-1,15.92,15.92,0,0,0-3-.31c-2.22-.07-4.16-.56-5.57-.53s-2.27.27-2.29.19a5.19,5.19,0,0,1,2.29-.52C61.15,9,63.11,9.49,65.27,9.56Z"/><path class="cls-16" d="M34.08,9.37a132.19,132.19,0,0,1,14.63-.49,26,26,0,0,1,4.45.28,10,10,0,0,1,1.54.57,11.91,11.91,0,0,1-1.58-.4,31.27,31.27,0,0,0-4.41-.12c-3.75,0-8.93.09-14.63.62-2.85,0-5.56.2-8,.35s-4.71.24-6.57.32a12.58,12.58,0,0,0-4.27.88,4.55,4.55,0,0,0-1.38.82s.33-.53,1.3-1a11.94,11.94,0,0,1,4.33-1c1.88-.13,4.09-.22,6.56-.41S31.21,9.38,34.08,9.37Z"/><path class="cls-16" d="M53,12.91a11.69,11.69,0,0,1-2.15,3,20.55,20.55,0,0,1,1.77-3.2,9.64,9.64,0,0,1,2.25-2.88A33.77,33.77,0,0,1,53,12.91Z"/><g class="cls-17"><polygon class="cls-16" points="19.16 78.03 18.95 77.86 19.12 77.99 19.16 78.03"/><polygon class="cls-16" points="19.55 78.31 19.31 78.19 19.41 78.13 19.55 78.31"/><path class="cls-18" d="M32.77,54.89s0,0,.1,0a.43.43,0,0,1,0,.35c-.08.07-.14.06-.14,0A1.19,1.19,0,0,1,32.77,54.89Z"/><path class="cls-18" d="M33.1,54.08s0,.12,0,.19-.08.08-.12.06S33,53.94,33.1,54.08Z"/><path class="cls-18" d="M19.58,36.5a.12.12,0,0,1-.09-.2l.09,0C19.66,36.3,19.68,36.46,19.58,36.5Z"/><polygon class="cls-18" points="22.04 58.87 22.07 58.86 22.11 58.93 22.08 58.95 22.04 58.87"/><path class="cls-18" d="M19.87,37.1s0,0-.08,0,0-.16.06-.14S19.9,37,19.87,37.1Z"/><path class="cls-18" d="M22.48,60.06l-.08.07a.36.36,0,0,1-.12-.47C22.33,59.77,22.54,59.89,22.48,60.06Z"/><path class="cls-18" d="M18.62,38.39c-.13,0-.27,0-.22-.21s.12-.14.22-.14S18.69,38.29,18.62,38.39Z"/><path class="cls-18" d="M28.58,34.89v0c0,.27,0,.64-.29.78-.11,0-.05-.19,0-.3s.25-.32.28-.53C28.59,34.8,28.52,34.88,28.58,34.89Z"/><path class="cls-18" d="M40.71,62.06s-.05-.05-.09,0l.11-.14c-.15-.19.18-.18.15-.32a.66.66,0,0,1,.59.07c.11.2.05.22.15.42-.16.06.11.41-.21.39-.1.17-.26,0-.4.11.1,0-.08-.1-.14-.13h-.11c.08-.13,0-.2-.14-.26C40.7,62.19,40.68,62.1,40.71,62.06Z"/><path class="cls-18" d="M27.56,36.61c0,.06-.09.15-.16.17s0-.28,0-.39l.16-.15A.82.82,0,0,1,27.56,36.61Z"/><path class="cls-18" d="M27.9,37.58s-.06,0-.07.07h0c0-.22.14-.34.21-.52A.78.78,0,0,1,27.9,37.58Z"/><path class="cls-16" d="M27.86,37.47s0-.11,0-.11Z"/><path class="cls-18" d="M28.25,37.81v0l0-.08S28.29,37.8,28.25,37.81Z"/><path class="cls-18" d="M28.05,43.17s0,0-.06,0l.05,0S28.05,43.16,28.05,43.17Z"/><path class="cls-18" d="M22.37,47.45a.13.13,0,0,1-.14,0c0-.08,0-.1,0-.16S22.4,47.34,22.37,47.45Z"/><path class="cls-18" d="M25.61,49.27a.11.11,0,0,1-.05.12s-.14,0-.14-.11S25.56,49.21,25.61,49.27Z"/><path class="cls-18" d="M27.5,49.52c-.05.07-.1.2-.24.17s-.21-.06-.21-.18.12-.12.14-.18S27.41,49.43,27.5,49.52Z"/><path class="cls-18" d="M26,49.44s0,.06,0,.07a.16.16,0,0,1-.14,0C25.86,49.39,26,49.36,26,49.44Z"/><path class="cls-18" d="M22.38,50s0,.1-.08.13-.15,0-.19-.09A.14.14,0,0,1,22.38,50Z"/><polygon class="cls-18" points="23.31 40.93 23.29 40.75 23.35 40.81 23.31 40.93"/><path class="cls-18" d="M22.82,41.78c-.07.1-.12.25-.24.16s0-.5.07-.67v-.05c0,.05.08,0,.11.05,0-.23.2-.05.2-.26A1.37,1.37,0,0,1,22.82,41.78Z"/><path class="cls-18" d="M25.5,50.41c0,.07-.08.06-.12.09a.07.07,0,0,1,0-.14C25.44,50.35,25.46,50.38,25.5,50.41Z"/><path class="cls-18" d="M22.76,51c0,.05-.09,0-.14,0s0-.09,0-.13S22.8,50.94,22.76,51Z"/><path class="cls-18" d="M24.05,51.13a.12.12,0,0,1-.18,0c0-.05,0-.11.06-.12S24,51.11,24.05,51.13Z"/><path class="cls-18" d="M22.94,51.24c-.08.08.06.3-.16.24,0-.1-.12-.22,0-.31S22.91,51.18,22.94,51.24Z"/><path class="cls-18" d="M22.82,43.75c0,.1,0,.18.05.24s.09-.11.15-.06c-.15.37-.13.87-.54,1-.09,0-.15-.07-.2-.15a.5.5,0,0,0,0-.29c.17-.12,0-.42.16-.57,0,0,0,0,0,.09a2.12,2.12,0,0,1,.34-.39Z"/><path class="cls-18" d="M20.92,44.33c-.3,0-.09-.37-.07-.51l.2-.25A.72.72,0,0,1,20.92,44.33Z"/><polygon class="cls-16" points="20.95 44.13 20.85 44.02 21 43.95 20.87 44.03 20.95 44.13"/><path class="cls-18" d="M27.4,65.63v.13c-.44.13-.91-.27-1.17-.55L26.08,65A2,2,0,0,1,27.4,65.63Z"/><polygon class="cls-18" points="20.44 44.97 20.51 44.89 20.52 44.98 20.44 44.97"/><path class="cls-18" d="M20.17,45.94a.83.83,0,0,1-.13.14c-.08,0-.13-.1-.15-.17a.75.75,0,0,1,.2-.54l0,0,.05.09c.08,0,.05-.09.07-.14A.78.78,0,0,1,20.17,45.94Z"/><path class="cls-16" d="M20.05,45.72l.06,0c-.09-.08,0,0,0-.09C20,45.69,20.19,45.62,20.05,45.72Z"/><path class="cls-18" d="M19.65,46.39a.72.72,0,0,1,0,.64c-.06.07-.16.18-.22,0a.89.89,0,0,1,0-.56c.13,0,.11-.21.17-.32S19.49,46.48,19.65,46.39Z"/><polygon class="cls-16" points="19.63 46.63 19.59 46.65 19.59 46.63 19.63 46.63"/><path class="cls-18" d="M13.7,48.25c0,.06-.07,0-.1,0s-.07-.41,0-.58,0-.18.07-.26C13.67,47.7,13.82,48,13.7,48.25Z"/><path class="cls-18" d="M33.12,51c-.25.06-.21-.09-.27-.16s.31-.32.36-.5l.1-.1C33.19,50.47,33.6,50.8,33.12,51Z"/><path class="cls-18" d="M17.49,54.27s0,.1-.06.13a.16.16,0,0,1-.24-.08l-.05-.4s0,0,.06,0l.06-.17C17.47,53.81,17.46,54.08,17.49,54.27Z"/><polygon class="cls-16" points="17.21 51.34 17.19 51.21 17.21 51.25 17.21 51.34"/><path class="cls-18" d="M18,57.43l.07,0s0-.08,0-.12c.18.06.23.25.37.42,0,.14,0,.32-.13.41s-.19-.05-.29-.1,0-.33-.13-.45h0L18,57.3S18,57.39,18,57.43Z"/><polygon class="cls-18" points="30.12 51.97 30.16 51.94 30.17 51.97 30.12 51.97"/><path class="cls-18" d="M29.44,52.1s-.11,0-.07,0l-.12.08.09-.09Z"/><path class="cls-18" d="M29.41,52.13c.05,0,0,0,0,0a.34.34,0,0,1-.16,0c-.05,0,0,0,0,0l.08,0c.08,0,.09-.06.08-.07l-.06,0,0,0h.09Z"/><path class="cls-18" d="M30.28,52.12h0l-.06,0S30.25,52.12,30.28,52.12Z"/><path class="cls-18" d="M22.1,55.25c0,.25.35.44.19.75a.19.19,0,0,1-.32-.06c-.1-.22.07-.45.08-.67Z"/><path class="cls-18" d="M18.1,60.14c.06.15.18.31.09.45s-.18,0-.28-.07-.08-.24-.13-.36.09,0,.06-.07C18,60.1,18,60,18.1,60.14Z"/><path class="cls-18" d="M26.07,54.58a.23.23,0,0,1-.08.22c-.11.05-.18,0-.2,0s-.07-.16,0-.24S26,54.56,26.07,54.58Z"/><path class="cls-18" d="M17.74,61c.11.06.06-.12.1-.09s0,.1,0,.12v.05a.26.26,0,0,1-.16-.28S17.67,61,17.74,61Z"/><path class="cls-18" d="M31.94,52.16s0,0-.11.09-.26.12-.24.09A1,1,0,0,1,31.94,52.16Z"/><path class="cls-18" d="M29.36,53.42s0,0,.06,0,0,0,0,0,.23.1,0,.31a.52.52,0,0,1-.29.1l0-.16h0a.82.82,0,0,1,.2-.3S29.31,53.43,29.36,53.42Z"/><path class="cls-18" d="M24.78,55.91c-.05,0-.07.05-.1.09l0,0v0h0s0,0,0,0-.05.14.05.12.19-.11.22-.22c.06.08.21.22,0,.39a.3.3,0,0,1-.23,0c0-.07-.11-.13-.15-.2s0,0,0,0l0,0,0-.12s.08-.06.13,0v-.1S24.74,55.91,24.78,55.91Z"/><path class="cls-18" d="M15.88,64.84c0,.18-.15.1-.23,0-.25-.16-.21-.51-.43-.62A1.44,1.44,0,0,1,15.88,64.84Z"/><path class="cls-16" d="M24.79,56s-.06,0,0,0h0Z"/><path class="cls-16" d="M24.91,56.05a.24.24,0,0,0-.09.11h-.07s0,0-.06.05l.07-.11c.07,0,.1,0,.15-.05h-.08S24.88,56.05,24.91,56.05Z"/><path class="cls-18" d="M36.42,70.85l-.14-.11c0-.06.59.16.42-.15.4.12.95,0,1.19.32,0,0,.12,0,.15,0l-.16-.08c.27-.06.57-.23.86-.13,0,0,.12.12.06.18-.36.43-1.08-.15-1.33.49a1.47,1.47,0,0,1-1,.07l-.33.1c.26,0,0-.2.1-.29H36l.15-.11L36,71C36.07,71,36.32,71,36.42,70.85Z"/><path class="cls-18" d="M18.89,63c.05.16.26.3.14.48s-.23-.11-.37-.14,0-.17-.12-.24h0C18.62,63,18.77,62.78,18.89,63Z"/><path class="cls-18" d="M28.62,54.51c.1,0,.13.05.09.14s-.07.09-.12.1-.11-.09-.1-.17S28.58,54.52,28.62,54.51Z"/><polygon class="cls-16" points="28.6 54.61 28.57 54.56 28.59 54.55 28.6 54.61"/><path class="cls-18" d="M19.16,65.42c-.11-.11.09,0,.07-.1s.31.19.29.35-.17,0-.28,0l-.16-.24Z"/><polygon class="cls-16" points="19.22 65.45 19.33 65.56 19.21 65.55 19.25 65.55 19.18 65.4 19.26 65.41 19.22 65.45"/><path class="cls-18" d="M21.92,67.2a.63.63,0,0,1,.51.2.61.61,0,0,1,.19.35c-.21.19-.51-.1-.75-.15h0c0-.11-.12-.19-.17-.28A.21.21,0,0,0,21.92,67.2Z"/><path class="cls-18" d="M19.79,70.88s0-.09,0-.12l-.08-.05c.34.2.77.25,1,.57,0,.14-.28.15-.47,0a2.67,2.67,0,0,1-.66-.52Z"/><path class="cls-18" d="M29.69,54.9c.11-.06.19,0,.19.06a.4.4,0,0,1-.13.24.46.46,0,0,1-.27.15c-.05,0,0-.1-.1-.07.21-.14,0-.13.16-.22V55S29.66,55,29.69,54.9Z"/><path class="cls-18" d="M26.84,57.66h0l0,0-.05,0v-.1S26.82,57.66,26.84,57.66Z"/><path class="cls-18" d="M22,68.83l.06-.09c.14.2.72.3.68.61s-.36.09-.58.06c0-.13-.18-.11-.28-.17s0,0,.06,0c-.19-.12,0-.11-.16-.26h0l-.11-.14C21.91,68.93,21.79,68.67,22,68.83Z"/><path class="cls-18" d="M27.09,57.9c-.06.07-.13,0-.15,0l-.09-.13.08,0c-.12.08,0,.12,0,.14s.08,0,.11-.07-.06-.12-.09-.14h0l0-.09C27,57.64,27.21,57.68,27.09,57.9Z"/><path class="cls-18" d="M27.7,61.27s0,0,0,0l0,.07,0-.07S27.7,61.29,27.7,61.27Z"/><path class="cls-18" d="M26.46,68.19s0,0,0,.07l-.12,0s.07-.09,0-.16S26.43,68.17,26.46,68.19Z"/><path class="cls-18" d="M30.14,61.63h0l0,.08S30.09,61.64,30.14,61.63Z"/><path class="cls-18" d="M30.24,61.72l0,0,0,.06.11,0v0s0-.08.05-.11-.11,0-.18,0v0c.11-.06.2,0,.32.05a.22.22,0,0,1,0,.14c-.15.09-.27,0-.36-.1Z"/><polygon class="cls-16" points="30.33 61.85 30.32 61.83 30.38 61.78 30.33 61.85"/><path class="cls-18" d="M33.15,69.93c.18.06.15.21.07.31s-.19.08-.3.08,0-.19-.13-.15c.12.07-.08.12-.18.13l.1,0c-.06-.09-.16,0-.25-.11l.1,0L32.44,70C32.68,70,32.88,69.85,33.15,69.93Z"/><path class="cls-18" d="M31.45,64.35c.21,0,.4-.08.51.16s-.17.19-.26.21l-.28,0,0,0-.09-.13,0,0-.07-.07C31.4,64.45,31.5,64.39,31.45,64.35Z"/><path class="cls-16" d="M31.72,64.44s-.1,0-.14,0a.17.17,0,0,1,.12,0c.08.06,0,.16,0,.22s-.21,0-.26,0C31.62,64.56,31.5,64.4,31.72,64.44Z"/><path class="cls-18" d="M31.7,64.53s-.05,0,0,0v0H31.6v0h0l-.05-.09Z"/><path class="cls-18" d="M31.6,70.49s0,.1,0,.14-.27.05-.43,0c.09,0,.14,0,.23,0l-.06-.13c-.05,0-.14.06-.17,0A.51.51,0,0,1,31.6,70.49Z"/><path class="cls-18" d="M32.67,63.63l0,.09-.14.06s0,0,0,0l0,0-.12.11c0-.07-.07,0-.1-.06h.07v0l0,0,.07-.11-.27,0C32.4,63.61,32.54,63.55,32.67,63.63Z"/><path class="cls-18" d="M49.47,70.72c0-.2-.21,0-.3,0s.22,0,.23-.15a.3.3,0,0,0-.31,0h0c.11-.14.5-.16.51-.41-.07,0-.17,0-.12-.1.22-.1.24-.29.44-.4l-.11,0a4,4,0,0,1,.59-.25c-.22-.13.32-.15.21-.29.16.07.34.07.39,0,.26,0,.63.09.73.32s0,.17.06.34l0,0c0,.06-.07.16,0,.18a.38.38,0,0,0-.2.25.2.2,0,0,1-.15.27.07.07,0,0,0,0,.09.24.24,0,0,0-.14.12,2.65,2.65,0,0,0-.75.61l.08-.08-.08-.07-.17.27c0-.1.14-.26,0-.32s-.19.08-.28.12l.08-.09c-.13,0-.24.17-.41.13.11-.21-.06-.25-.23-.27l-.33.11C49.34,71,49.49,70.86,49.47,70.72Z"/><path class="cls-18" d="M33.9,64.66s0,0,0,.08.13.07.19.1l0-.09c0-.08-.1,0-.13-.06s.2,0,.3,0c0,.16-.14.16-.23.15s-.18-.09-.27-.13S33.83,64.62,33.9,64.66Z"/><path class="cls-18" d="M35.73,65.16c.14.06.28.22.23.3s0,.11-.05.14c.14,0,.31.14.21.31-.46.22-.88-.12-1.1-.25l.09-.08L35,65.52A.88.88,0,0,1,35.73,65.16Z"/><path class="cls-18" d="M56.12,59.74l0,0c.06-.06.06-.16.09-.25s-.09,0-.13,0v0s.18-.11,0-.19h0c.24-.12.16-.34.38-.45.05-.29.39-.22.53-.32,0,.08.15,0,.23.08l.27.39a.67.67,0,0,0-.06.33.73.73,0,0,1,.49.07c.25.15,0,.35,0,.55-.15,0-.24.16-.3.27l0,.08c0-.24-.29,0-.43.06l-.08.05c0-.07.11-.11.07-.18l-.18.12s.07-.06.07-.12l-.1,0s0-.07,0-.1-.07,0-.1,0l0-.11c-.1,0-.18,0-.21-.09l-.28.12,0-.1a.14.14,0,0,0-.15,0v-.07l-.2.09C56.11,59.94,56.33,59.76,56.12,59.74Z"/><path class="cls-18" d="M41.91,71l-.08,0c.18-.13.29-.45.67-.5a1.37,1.37,0,0,1,.6,0c.17.26.06.44-.13.68-.18,0-.45.21-.65.22l0,0,.08-.09-.49,0C41.93,71.21,41.88,71.09,41.91,71Z"/><polygon class="cls-16" points="36.16 67.65 36.16 67.63 36.26 67.63 36.26 67.65 36.16 67.65"/><path class="cls-18" d="M37.87,66.8s0,0,0,.06-.06-.15-.12-.07S37.87,66.72,37.87,66.8Z"/><path class="cls-18" d="M39,66.79l0,0s.14-.08.07-.15c.3-.22.49.32.76,0,.2.14.46,0,.56.25s-.13.33-.3.42l-.28.1s-.06-.07-.09,0l-.13,0c.06-.17-.19,0-.27-.13h0c0-.17-.24,0-.33-.18l-.11,0C38.84,66.89,38.94,66.85,39,66.79Z"/><path class="cls-18" d="M46.91,65.4c-.09,0,.14-.09,0-.12.13,0,.06-.17.15-.23h0c.23,0,.06-.33.44-.28.08-.2.29,0,.41-.06a.43.43,0,0,1,.3.48c-.06.22-.07.08-.17.33l-.07.11c-.12-.15-.09.25-.25.09-.1.05-.13.14-.25.15a.06.06,0,0,0,0-.08c-.08,0-.16,0-.22,0v-.09h-.17s0-.06,0-.09H47C46.85,65.54,47.12,65.46,46.91,65.4Z"/><polygon class="cls-16" points="47.6 66.52 47.4 66.61 47.52 66.55 47.6 66.52"/><path class="cls-18" d="M54.06,68.16l0-.07c.11,0,0-.11.07-.17.19-.07.43-.23.55-.11l.05.26c-.11,0-.15.15-.23.23,0-.09-.18,0-.17,0v0a.61.61,0,0,1-.3,0C54.08,68.27,54.11,68.2,54.06,68.16Z"/><polygon class="cls-16" points="54.18 68.26 54.17 68.23 54.3 68.17 54.31 68.19 54.18 68.26"/><path class="cls-18" d="M57.67,73.38c.19-.1.44-.06.39.15a.53.53,0,0,1-.36.25C57.49,73.8,57.35,73.48,57.67,73.38Z"/><path class="cls-18" d="M56.63,63.67c-.06-.06,0-.05-.06-.15s.22-.21.35-.18a.22.22,0,0,1,.14.24c-.07.13-.06.08-.16.19s-.26,0-.31-.08Z"/><path class="cls-18" d="M57.12,62.92s0,.08,0,.13-.14,0-.14,0Z"/><path class="cls-18" d="M56.39,68.59c0-.09.13-.17.25-.22s.17,0,.1.13a.52.52,0,0,1-.23.21s-.15,0-.07-.12Z"/><path class="cls-16" d="M56.58,68.56h.05c0-.08-.08.17-.15,0S56.54,68.55,56.58,68.56Z"/><path class="cls-18" d="M60.75,68.26l-.19,0a.39.39,0,0,0,.2-.26.08.08,0,0,0-.08,0c.1,0,.12-.12.19-.18l-.12,0c.35-.16.78-.68,1.23-.46l.18.4h0c0,.24-.16.37-.2.59l0,0h-.22c0,.12-.06,0-.15,0l-.19.26s0-.08,0-.11-.14.06-.19.12c0-.11-.18-.1-.39-.15,0,0-.05.06-.09.08s.06-.1.09-.15v0l-.25.11C60.58,68.45,60.86,68.38,60.75,68.26Z"/><path class="cls-18" d="M59.21,64.34c0-.1,0-.13-.05-.16H59.1s.08-.08.14,0-.08-.18.09-.23-.12-.07-.17-.12c.14-.11.21,0,.33-.12,0-.32.41-.19.48-.39,0,0,.16-.12.22,0s0-.08.05-.1.35.13.45,0,.14.06.24,0a.1.1,0,0,0,.13.07c-.12.22.3,0,.12.21,0,.09.15,0,.19,0s-.16,0-.2.14c.33,0-.06.27.15.4-.08,0-.13.09-.11.15l0,0c-.19,0-.15.24-.25.31s-.4,0-.41.32c-.08.12-.31-.17-.41.1l0,.12c-.13,0,.09-.2-.08-.2s-.06.12-.13.2.09-.36-.19-.24l-.17.19a.82.82,0,0,0,0-.27c-.13-.09-.18.17-.21.07s.13-.14,0-.19l-.26,0C59.29,64.6,59.08,64.46,59.21,64.34Z"/><path class="cls-18" d="M66.55,62.94s0,0-.06,0,.05-.33-.1-.4c.2-.18-.07-.38.2-.51.08-.11-.09-.17.11-.21a.09.09,0,0,0,0-.1c.29-.16.43-.48.74-.55.13-.11.25.05.37-.13l0,.1c.13,0,.39-.14.39.11l.16,0a.54.54,0,0,0,.08.44c0,.11-.23.28-.09.35-.22.11,0,.24-.09.36l-.1,0,0,.15s0-.09-.1-.06a.64.64,0,0,0-.18.39s0,0,0-.08-.08.15-.18.21l0,0-.11.1v0c-.15,0-.18.16-.27.24s0-.17-.07-.15l-.2,0s0,.07-.06.1l0-.2c-.16,0-.1.23-.23.25C66.77,63.11,66.48,63.15,66.55,62.94Z"/><path class="cls-18" d="M60.05,58.54c.05,0,.13,0,.15.09s-.15.17-.22.14S59.9,58.65,60.05,58.54Z"/><path class="cls-18" d="M58.12,54c0-.05.08,0,.12,0s0,.17,0,.23,0,0-.15,0A.18.18,0,0,1,58.12,54Z"/><path class="cls-18" d="M66.31,60.28c.09,0,.15-.13.25-.11s.08.14,0,.22l-.08.08c-.1,0,.09-.22-.11-.12v.11C66.34,60.4,66.27,60.37,66.31,60.28Z"/><path class="cls-18" d="M63.79,57a.53.53,0,0,1-.11-.2.85.85,0,0,1,.29-.47c.27,0,.4-.13.53,0,.14,0,0,.21.17.11,0,.08-.16.24,0,.24,0-.08-.16.13-.18.19l0,0s-.11,0-.13.07-.15.06-.19.18c0,0,0-.06,0-.08s-.09.07-.14.1v0h-.19v-.09l-.09,0Z"/><path class="cls-18" d="M64.79,57.06c0-.06.18-.19.06-.26.06,0,.05-.09,0-.13l0,0c.06,0,.08-.06.12-.08s0-.06-.06-.1.09-.05.15-.05l0-.12s.07,0,.11,0c.06-.23.28-.13.41-.22s.19.16.37,0c0,.33.35.14.35.53,0,0,0,.06-.09.06s.06.15.12.14-.1.05-.16.06c.11.21-.21.32-.22.46-.07-.08-.12.11-.2.1v.09l-.05-.11c0,.07-.14.07-.11.2-.14,0-.21-.24-.34-.05,0-.08,0-.11-.07-.16C64.89,57.54,65,57,64.79,57.06Z"/><path class="cls-18" d="M68.26,55.44c0-.11-.18,0-.22,0a.16.16,0,0,0-.06-.15c-.07,0-.09.07-.12.1s.22-.21.07-.26l-.09,0L67.9,55l-.15,0c.07-.06.16-.28,0-.34l-.16,0a.07.07,0,0,1,.07,0c.08-.14-.22-.1,0-.24-.17-.05-.21-.28-.31-.32.09-.07,0-.11,0-.17s.09,0,.12-.1c-.13-.09.1-.07,0-.18s.26-.09.26-.24c.05.19.23,0,.33,0,.1-.21-.19-.08-.17-.26.18,0,.23.23.41,0l0-.13c.07,0,.23,0,.21-.13h.19l0-.11s.06.06.11,0,0-.08,0-.12a.22.22,0,0,0,.26,0l0-.13.19.11c.09-.22.14.11.28-.1,0,.25.23,0,.3,0s-.07.14,0,.18.15-.11.23-.14l-.09.21c0,.08.15.08.22.08l0,0c.06,0,0,.35.17.19,0,0,0,.05,0,.09s.16-.05.22,0-.34.16-.17.31l.24.09-.24,0c-.15.44.41.36.17.81-.1-.08-.22.08-.26.17s.11.25-.05.45c-.16-.16-.43.16-.45.32s.1.17,0,.28-.08-.3-.27-.19l-.05.21c0-.09-.12-.11-.21-.09l0,.15s0-.19-.13-.09l-.07.18c-.06,0,0-.14-.08-.13s-.18,0-.16.16,0-.18-.19,0l-.09.11c0-.08,0-.22-.09-.24l-.16.21c0-.06,0-.17,0-.18l-.18.15C68.23,55.65,68.34,55.52,68.26,55.44Z"/><path class="cls-18" d="M50.86,61.66c.13,0,.25-.18.4,0s.14.44-.12.43l0,.08-.22-.05c0-.13-.18-.1-.12-.25S50.92,61.74,50.86,61.66Z"/><path class="cls-18" d="M51.67,61.65l.13-.13Z"/><polygon class="cls-18" points="52.07 61.26 51.9 61.44 51.88 61.41 51.84 61.47 51.82 61.42 52.07 61.26"/><path class="cls-18" d="M52.24,60.89s0,0-.07,0a.31.31,0,0,0,.09-.11l-.16,0a.34.34,0,0,0,.11-.28h0a.86.86,0,0,1,.56-.43c.17,0,.39.11.54,0,.1.05-.08.12,0,.13s.24.17.37.25c-.11.18,0,.24,0,.4s-.16.14-.05.22l-.12,0c-.07.11.05.17.07.26l-.18,0c0,.14-.24.22-.3.31-.2-.08-.27.19-.32.32-.1-.06,0-.34-.17-.38,0,0,0,.08,0,.09s.07-.27-.13-.27l-.17.34C52.33,61.34,52.49,61.11,52.24,60.89Z"/><path class="cls-18" d="M52.15,61.18l.09-.1Z"/><polygon class="cls-18" points="53.8 61.61 53.78 61.62 53.73 61.54 53.8 61.61"/></g><path class="cls-19" d="M69.26,25.71a17.1,17.1,0,0,0-2.75,1.85c-.11.12-.1.13,0,0C68,24.7,70.63,23,72.25,20.36,78.49,10.28,63.06,9.53,56.73,9.67c-10.43.23-20.9.3-31.33.61-8.88.38-6.35,12.32-5.89,19.66.84,13.46,4.61,20,16.27,26.78,8.84,5.15,23.38,1.33,30.76-4.67,5.75-4.69,4.56-10.25,5.23-16.79C72.29,30.13,74,23.35,69.26,25.71Z"/></g></g></g></svg>