<svg xmlns="http://www.w3.org/2000/svg" xmlns:xlink="http://www.w3.org/1999/xlink" viewBox="0 0 101.06 98.44"><defs><style>.cls-1{isolation:isolate;}.cls-2{fill:#2b4a80;}.cls-13,.cls-2,.cls-4{mix-blend-mode:multiply;}.cls-13,.cls-2{opacity:0.25;}.cls-3{fill:url(#radial-gradient);}.cls-4{fill:url(#radial-gradient-2);}.cls-5{fill:url(#radial-gradient-3);}.cls-6{fill:url(#radial-gradient-4);}.cls-11,.cls-12,.cls-16,.cls-18,.cls-19,.cls-33,.cls-36,.cls-7{mix-blend-mode:screen;}.cls-7{fill:url(#radial-gradient-5);}.cls-8{opacity:0.63;fill:url(#linear-gradient);}.cls-10,.cls-9{fill:#81e2e8;}.cls-9{opacity:0.8;}.cls-11{fill:#2fb8d6;opacity:0.7;}.cls-12{fill-rule:evenodd;opacity:0.64;fill:url(#radial-gradient-6);}.cls-13{fill:#2a2e85;}.cls-14{fill:#a8bbd2;}.cls-15{fill:url(#linear-gradient-2);}.cls-16{fill:url(#radial-gradient-7);}.cls-17{fill:url(#linear-gradient-3);}.cls-18{fill:url(#radial-gradient-8);}.cls-19{opacity:0.82;fill:url(#radial-gradient-9);}.cls-20{fill:#fff;}.cls-21{fill:#0c5596;opacity:0.33;}.cls-22{fill:#b06528;}.cls-23{fill:#d29051;}.cls-24{fill:#ffc889;}.cls-25{fill:#4c2810;}.cls-26{fill:url(#radial-gradient-10);}.cls-27{fill:url(#radial-gradient-11);}.cls-28{fill:url(#radial-gradient-12);}.cls-29{fill:url(#radial-gradient-13);}.cls-30{fill:url(#radial-gradient-14);}.cls-31{fill:url(#radial-gradient-15);}.cls-32{opacity:0.37;fill:url(#radial-gradient-16);}.cls-34{fill:url(#radial-gradient-17);}.cls-35{fill:url(#radial-gradient-18);}.cls-36{opacity:0.57;}.cls-37{fill:url(#radial-gradient-19);}.cls-38{fill:url(#radial-gradient-20);}.cls-39{fill:url(#radial-gradient-21);}.cls-40{fill:url(#radial-gradient-22);}.cls-41{fill:url(#radial-gradient-23);}</style><radialGradient id="radial-gradient" cx="44.79" cy="38.27" r="76.83" gradientUnits="userSpaceOnUse"><stop offset="0.59" stop-color="#fff"/><stop offset="0.74" stop-color="#a8bbd2"/><stop offset="1" stop-color="#296195"/></radialGradient><radialGradient id="radial-gradient-2" cx="50.73" cy="45.67" r="50.63" gradientUnits="userSpaceOnUse"><stop offset="0.5" stop-color="#0c5596"/><stop offset="1" stop-color="#fff"/></radialGradient><radialGradient id="radial-gradient-3" cx="48.16" cy="5.79" r="95.2" gradientUnits="userSpaceOnUse"><stop offset="0" stop-color="#81e2e8"/><stop offset="0.4" stop-color="#67dfed"/><stop offset="0.79" stop-color="#45c0de"/><stop offset="1" stop-color="#0c5596"/></radialGradient><radialGradient id="radial-gradient-4" cx="50.09" cy="44.86" r="43.43" gradientUnits="userSpaceOnUse"><stop offset="0" stop-color="#67dfed"/><stop offset="0.58" stop-color="#45c0de"/><stop offset="0.66" stop-color="#3eb7d8"/><stop offset="0.79" stop-color="#2b9fc9"/><stop offset="0.96" stop-color="#0c77b0"/><stop offset="1" stop-color="#056eaa"/></radialGradient><radialGradient id="radial-gradient-5" cx="42.86" cy="29.43" r="57.8" gradientUnits="userSpaceOnUse"><stop offset="0" stop-color="#67dfed"/><stop offset="1" stop-color="#130c0e"/></radialGradient><linearGradient id="linear-gradient" x1="75.39" y1="96.67" x2="58.34" y2="63.23" gradientUnits="userSpaceOnUse"><stop offset="0.36" stop-color="#433c80"/><stop offset="1" stop-color="#056eaa"/></linearGradient><radialGradient id="radial-gradient-6" cx="48.15" cy="42.3" r="33.91" gradientUnits="userSpaceOnUse"><stop offset="0" stop-color="#21e9ff"/><stop offset="0.91" stop-color="#231f20"/></radialGradient><linearGradient id="linear-gradient-2" x1="26.58" y1="115.55" x2="-21.76" y2="47.97" gradientTransform="translate(52.01 -43.03) rotate(3.82)" gradientUnits="userSpaceOnUse"><stop offset="0" stop-color="#dbeaf1"/><stop offset="1" stop-color="#a8bbd2"/></linearGradient><radialGradient id="radial-gradient-7" cx="47.91" cy="85.99" r="63.72" gradientTransform="translate(52.01 -43.03) rotate(3.82)" gradientUnits="userSpaceOnUse"><stop offset="0" stop-color="#fff"/><stop offset="0.12" stop-color="#c8c7c7"/><stop offset="0.24" stop-color="#999696"/><stop offset="0.36" stop-color="#706b6c"/><stop offset="0.48" stop-color="#4e494a"/><stop offset="0.61" stop-color="#342e30"/><stop offset="0.73" stop-color="#221b1d"/><stop offset="0.86" stop-color="#171012"/><stop offset="1" stop-color="#130c0e"/></radialGradient><linearGradient id="linear-gradient-3" x1="-11.31" y1="60.78" x2="6.72" y2="90.08" xlink:href="#linear-gradient-2"/><radialGradient id="radial-gradient-8" cx="21.19" cy="71.34" r="42.77" xlink:href="#radial-gradient-7"/><radialGradient id="radial-gradient-9" cx="-9.19" cy="57.81" r="43.18" xlink:href="#radial-gradient-7"/><radialGradient id="radial-gradient-10" cx="1114.2" cy="-175.89" r="16.24" gradientTransform="matrix(-0.93, 0.37, 0.35, 0.89, 1149.82, -209.37)" gradientUnits="userSpaceOnUse"><stop offset="0" stop-color="#934f2c"/><stop offset="0.08" stop-color="#8b4b2c"/><stop offset="0.48" stop-color="#643b2d"/><stop offset="0.8" stop-color="#4d312e"/><stop offset="0.99" stop-color="#442d2e"/></radialGradient><radialGradient id="radial-gradient-11" cx="1113.56" cy="-176.08" r="12.45" gradientTransform="matrix(-0.93, 0.37, 0.35, 0.89, 1149.82, -209.37)" gradientUnits="userSpaceOnUse"><stop offset="0.01" stop-color="#442d2e"/><stop offset="0.18" stop-color="#4d312e"/><stop offset="0.45" stop-color="#643b2d"/><stop offset="0.8" stop-color="#8b4b2c"/><stop offset="0.87" stop-color="#934f2c"/><stop offset="0.89" stop-color="#b07348"/><stop offset="0.92" stop-color="#ca9360"/><stop offset="0.95" stop-color="#dcaa72"/><stop offset="0.98" stop-color="#e7b87c"/><stop offset="1" stop-color="#ebbd80"/></radialGradient><radialGradient id="radial-gradient-12" cx="1113.14" cy="-176.64" r="11.3" gradientTransform="matrix(-0.93, 0.37, 0.35, 0.89, 1149.82, -209.37)" gradientUnits="userSpaceOnUse"><stop offset="0" stop-color="#ebbd80"/><stop offset="0.13" stop-color="#e7b87c"/><stop offset="0.28" stop-color="#dcaa72"/><stop offset="0.43" stop-color="#ca9360"/><stop offset="0.6" stop-color="#b07348"/><stop offset="0.75" stop-color="#934f2c"/><stop offset="0.9" stop-color="#7d432d"/><stop offset="1" stop-color="#743f2d"/></radialGradient><radialGradient id="radial-gradient-13" cx="1114.68" cy="-173.66" r="8.33" xlink:href="#radial-gradient-12"/><radialGradient id="radial-gradient-14" cx="1114.73" cy="-173.93" r="6.97" gradientTransform="matrix(-0.93, 0.37, 0.35, 0.89, 1149.82, -209.37)" gradientUnits="userSpaceOnUse"><stop offset="0" stop-color="#ebbd80"/><stop offset="0.11" stop-color="#e7b87c"/><stop offset="0.25" stop-color="#dcaa72"/><stop offset="0.39" stop-color="#ca9360"/><stop offset="0.53" stop-color="#b07348"/><stop offset="0.67" stop-color="#934f2c"/><stop offset="0.69" stop-color="#8b4b2c"/><stop offset="0.82" stop-color="#643b2d"/><stop offset="0.93" stop-color="#4d312e"/><stop offset="0.99" stop-color="#442d2e"/></radialGradient><radialGradient id="radial-gradient-15" cx="1114.51" cy="-173.83" r="7.72" gradientTransform="matrix(-0.93, 0.37, 0.35, 0.89, 1149.82, -209.37)" gradientUnits="userSpaceOnUse"><stop offset="0" stop-color="#ebbd80"/><stop offset="0.17" stop-color="#e7b87c"/><stop offset="0.37" stop-color="#dcaa72"/><stop offset="0.58" stop-color="#ca9360"/><stop offset="0.8" stop-color="#b07348"/><stop offset="1" stop-color="#934f2c"/></radialGradient><radialGradient id="radial-gradient-16" cx="455.64" cy="-257.92" r="3.09" gradientTransform="matrix(0.82, -0.57, 0.57, 0.77, -172.49, 506.5)" gradientUnits="userSpaceOnUse"><stop offset="0" stop-color="#915434"/><stop offset="0" stop-color="#915434"/><stop offset="0.43" stop-color="#6a4335"/><stop offset="0.78" stop-color="#533936"/><stop offset="0.99" stop-color="#4a3536"/></radialGradient><radialGradient id="radial-gradient-17" cx="1114.91" cy="-173.84" r="4.49" gradientTransform="matrix(-0.93, 0.37, 0.35, 0.89, 1149.82, -209.37)" gradientUnits="userSpaceOnUse"><stop offset="0" stop-color="#f9e0c6"/><stop offset="0.2" stop-color="#f6ddc4"/><stop offset="0.34" stop-color="#edd5bc"/><stop offset="0.46" stop-color="#dec7b0"/><stop offset="0.56" stop-color="#c8b39e"/><stop offset="0.66" stop-color="#ac9988"/><stop offset="0.76" stop-color="#8a796c"/><stop offset="0.85" stop-color="#61544a"/><stop offset="0.93" stop-color="#332925"/><stop offset="1" stop-color="#070001"/></radialGradient><radialGradient id="radial-gradient-18" cx="1113.41" cy="-175.47" r="5.33" xlink:href="#radial-gradient-17"/><radialGradient id="radial-gradient-19" cx="1113.02" cy="-177.13" r="10.65" gradientTransform="matrix(-0.93, 0.37, 0.35, 0.89, 1149.82, -209.37)" gradientUnits="userSpaceOnUse"><stop offset="0.77" stop-color="#070001"/><stop offset="0.93" stop-color="#af9c8a"/><stop offset="1" stop-color="#f9e0c6"/></radialGradient><radialGradient id="radial-gradient-20" cx="1112.78" cy="-175.48" r="10.13" xlink:href="#radial-gradient-19"/><radialGradient id="radial-gradient-21" cx="1115.56" cy="-173.9" r="9.98" xlink:href="#radial-gradient-19"/><radialGradient id="radial-gradient-22" cx="1113.47" cy="-175.05" r="7.58" xlink:href="#radial-gradient-19"/><radialGradient id="radial-gradient-23" cx="1112.16" cy="-181.82" r="11.1" xlink:href="#radial-gradient-19"/></defs><g class="cls-1"><g id="Слой_2" data-name="Слой 2"><g id="Слой_5_копия_" data-name="Слой 5 (копия)"><path class="cls-2" d="M50.53,98.44C22.67,98.44,0,76.36,0,49.22S22.67,0,50.53,0s50.53,22.08,50.53,49.22S78.39,98.44,50.53,98.44Z"/><path class="cls-3" d="M50.09,94.07a47,47,0,1,1,47-47A47.09,47.09,0,0,1,50.09,94.07Z"/><path class="cls-4" d="M52,91.17A42.21,42.21,0,1,1,94.23,49,42.26,42.26,0,0,1,52,91.17Z"/><path class="cls-5" d="M50.09,89.24A42.21,42.21,0,1,1,92.3,47,42.26,42.26,0,0,1,50.09,89.24Z"/><path class="cls-6" d="M91.34,47A41.25,41.25,0,1,1,50.09,5.79,41.25,41.25,0,0,1,91.34,47Z"/><path class="cls-7" d="M11.42,53A41.25,41.25,0,0,1,89.9,35.24,41.24,41.24,0,1,0,13.5,65.91,41.25,41.25,0,0,1,11.42,53Z"/><path class="cls-8" d="M84.87,24.88A41.24,41.24,0,0,1,11.45,61.47,41.25,41.25,0,1,0,84.87,24.88Z"/><path class="cls-9" d="M16.46,22.79c2.63,3.38,8,3.26,12.17,2.76,7.85-.94,19.9-6.05,21.2-14.83a6.73,6.73,0,0,0-1-4.92A45.29,45.29,0,0,0,16.46,22.79Z"/><path class="cls-9" d="M22.32,28.31c1,1.21-.17,3.94-2.69,6.1s-5.4,2.94-6.44,1.73.18-3.94,2.69-6.1S21.28,27.1,22.32,28.31Z"/><path class="cls-10" d="M28.75,28.32a1.6,1.6,0,0,1-2.61,1.74,1.45,1.45,0,0,1,.59-1.95A1.46,1.46,0,0,1,28.75,28.32Z"/><path class="cls-11" d="M77.78,71.43c1,1.2-.16,3.93-2.69,6.09s-5.4,2.94-6.43,1.73.17-3.94,2.69-6.09S76.75,70.22,77.78,71.43Z"/><path class="cls-12" d="M87,43A37.89,37.89,0,1,1,49.15,5.1,37.89,37.89,0,0,1,87,43Z"/><path class="cls-13" d="M3.71,52.07c-2.3-3.46-3.6-7.25-1.85-11.72,1.29-3.31,4.81-4.62,7.9-5.72,8.42-3,17-4.18,25.25-8.1A175.06,175.06,0,0,0,59.42,11.86,9.32,9.32,0,0,1,71.6,15.13a111,111,0,0,0,6,13.4c2,3.61,4.67,4.77,7.27,7.87,4.24,5.07,11.59,7.82,10.41,16.53-.88,6.53-5.27,8.32-10.82,10.25A160.65,160.65,0,0,0,65.8,71.11,247,247,0,0,0,34.46,90.17c-4.37,2.24-8.75.92-11.27-3.28-2.23-3.73-2.8-9.28-4.7-13.35a73,73,0,0,0-6.87-11.66C9.32,58.68,6,55.54,3.71,52.07Z"/><path class="cls-14" d="M6.15,46.59c-2.3-3.47-3.6-7.25-1.85-11.73,1.29-3.3,4.81-4.61,7.89-5.71,8.42-3,17-4.19,25.26-8.1A175.06,175.06,0,0,0,61.86,6.38,9.31,9.31,0,0,1,74,9.64a109.71,109.71,0,0,0,6,13.41c2,3.61,4.67,4.77,7.26,7.87,4.25,5.07,11.6,7.82,10.42,16.53C96.87,54,92.47,55.76,86.93,57.7a158.94,158.94,0,0,0-18.69,7.93A247.41,247.41,0,0,0,36.89,84.69c-4.36,2.24-8.75.92-11.26-3.29-2.23-3.73-2.8-9.28-4.7-13.35A72.61,72.61,0,0,0,14.05,56.4C11.76,53.2,8.45,50.06,6.15,46.59Z"/><path class="cls-15" d="M6.34,42.17a9.3,9.3,0,0,1,3.68-13A233.73,233.73,0,0,0,62.16,1.88,9.3,9.3,0,0,1,74.33,5.15c4.89,12.92,11.55,24.5,21.37,33.69A9.3,9.3,0,0,1,92.09,52.1C70.57,59,53,70,38.16,80.41a9.3,9.3,0,0,1-12.23-3.5C22.16,61.81,15.1,51.71,6.34,42.17Z"/><path class="cls-16" d="M95.7,38.84C85.88,29.65,79.22,18.07,74.33,5.15a9.27,9.27,0,0,0-6-4.14A9.16,9.16,0,0,1,71,3.8C75.92,16.72,82.59,28.3,92.4,37.49a9.3,9.3,0,0,1-3.61,13.26C67.27,57.67,49.71,68.67,34.86,79.06a9.28,9.28,0,0,1-6,.85,9.27,9.27,0,0,0,9.34.5C53,70,70.57,59,92.09,52.1A9.3,9.3,0,0,0,95.7,38.84Z"/><path class="cls-2" d="M60.68,40.7l14.17-34c-2-5.47-6.61-5.55-10.53-3.5C47.89,14.59,29.6,24.88,11.26,31.68c-2.27,1.18-5.34,4-6,6.44-.57,2,.87,3.82,2.1,5.22l35,7Z"/><path class="cls-17" d="M59.43,38.17l14.18-34A9.3,9.3,0,0,0,62.16,1.88,233.73,233.73,0,0,1,10,29.15,9.26,9.26,0,0,0,5.74,40.93l35.35,6.93Z"/><path class="cls-18" d="M72.9,3.49l-14,33.58L39.75,47.58l1.34.28,18.34-9.69,14.18-34C72.63,3,72.49,3,72.9,3.49Z"/><path class="cls-19" d="M70.11,5.34c.83-.74,1.64-1.5,2.45-2.23a9.29,9.29,0,0,0-10.4-1.23A233.73,233.73,0,0,1,10,29.15a9.32,9.32,0,0,0-4.65,5.72c0,.09,0,.19-.07.3,11.76,3.11,25.21.42,35.76-4.62C53.38,24.68,60.27,14.18,70.11,5.34Z"/><path class="cls-20" d="M66.46,4.44a1.18,1.18,0,1,1-2.35-.22A1.21,1.21,0,0,1,65.4,3.08,1.22,1.22,0,0,1,66.46,4.44Z"/><path class="cls-20" d="M63.55,5c.44.67-.06,1.85-1.12,2.63s-2.26.86-2.69.19S59.8,6,60.86,5.19,63.12,4.33,63.55,5Z"/><path class="cls-21" d="M60.55,43.28c-.6-.84-1.87-.9-2.68-1.46s-1.2-1.69-2-2.32S54,39,52.86,39s-1.7-.68-2.72-1.05c-1.55-.57-2.13.71-2.7,1.83a.07.07,0,0,1,0-.05.19.19,0,0,0,0-.08v0l-.27-.65A.56.56,0,0,0,47,38.8h0a.53.53,0,0,0,0-.12.22.22,0,0,0,0-.08v0c-.09-.22-.19-.44-.3-.65a.36.36,0,0,0-.09-.13h0a.31.31,0,0,0,0-.13.29.29,0,0,0,0-.08v0c-.12-.21-.23-.42-.36-.63a.32.32,0,0,0-.1-.12h0s0-.09-.05-.12a.56.56,0,0,0,0-.08l0,0c-.13-.21-.27-.4-.41-.6a.42.42,0,0,0-.13-.11h0a.67.67,0,0,0-.06-.12.22.22,0,0,0-.06-.07v0l-.5-.54-.13-.08h0a.41.41,0,0,0-.07-.11.17.17,0,0,0-.06-.06h0L44,34.39a.31.31,0,0,0-.13-.09h0a1,1,0,0,0-.08-.11l-.07-.06a0,0,0,0,0,0,0c-.18-.16-.37-.33-.56-.47a.44.44,0,0,0-.15-.08h0a.22.22,0,0,0-.09-.1.18.18,0,0,0-.08-.06,0,0,0,0,1,0,0,4,4,0,0,0-.68-.36.29.29,0,0,0-.17,0h0a.29.29,0,0,0-.12-.07l-.09,0h0a3.5,3.5,0,0,0-.79-.11.35.35,0,0,0-.17,0s0,0,0,0l-.13,0h-.13a2.65,2.65,0,0,0-.77.2.3.3,0,0,0-.15.09h0l-.14,0-.09,0h0a2.84,2.84,0,0,0-.61.53.27.27,0,0,0-.09.15h0l-.11.09-.06.09v0a3.57,3.57,0,0,0-.34.71A.59.59,0,0,0,38,35h0a.83.83,0,0,0-.07.13.18.18,0,0,0,0,.09v0a5,5,0,0,0-.09.77.32.32,0,0,0,0,.16h0l0,.13a.55.55,0,0,0,0,.09v0a6,6,0,0,0,.1.74.3.3,0,0,0,.06.16h0a.28.28,0,0,0,0,.13.22.22,0,0,0,0,.1v0a4.76,4.76,0,0,0,.28.71.38.38,0,0,0,.09.14h0l0,.13.05.08v0a7.07,7.07,0,0,0,.44.63.45.45,0,0,0,.13.1h0a.75.75,0,0,0,.07.12.17.17,0,0,0,.06.06,0,0,0,0,0,0,0,4.44,4.44,0,0,0,.56.5.29.29,0,0,0,.15.07h0l.09.1.08.06h0a6.58,6.58,0,0,0,.63.38.26.26,0,0,0,.15,0h0a.39.39,0,0,0,.1.08.19.19,0,0,0,.08,0h0c.21.11.44.21.66.3a.33.33,0,0,0,.15,0h0l.1.07.09,0h0c.22.09.45.17.67.24l.16,0h0l.11.06.09,0h0l.68.2a.27.27,0,0,0,.15,0h0a.41.41,0,0,0,.11.07l.09,0h0l.67.18c-.19.13-.37.25-.55.39-1.51,1-2.68,3.19-2,4.82A8.63,8.63,0,0,1,43.5,51c0,1.51-.09,4,2.31,3.67.77-.13,1.28-.61,2.11-.5s1.34.71,2,1c1.73.73,2.22-.51,3.5-1l.19.44.07.1h.06s0,0,0,0a.7.7,0,0,0,.06.28l.25.59a.44.44,0,0,0,.08.1h.05s0,0,0,0a.64.64,0,0,0,.06.28l.25.6a.24.24,0,0,0,.06.1h0v0a.64.64,0,0,0,.05.28l.24.6a.24.24,0,0,0,.06.1H55v0a.51.51,0,0,0,0,.28l.22.6a.26.26,0,0,0,.07.1s0,0,0,0a5.36,5.36,0,0,0,.16-.52c0-.19.08-.39.11-.61a.35.35,0,0,0,0-.21l-.26-.66a.26.26,0,0,0-.08-.13h0a.53.53,0,0,0,0-.13.19.19,0,0,0,0-.08v0L55,55.69a.36.36,0,0,0-.09-.13h0l0-.13a.22.22,0,0,0,0-.08v0l-.27-.65a.48.48,0,0,0-.09-.13h0l0-.12a.22.22,0,0,0,0-.08,0,0,0,0,1,0,0L54.21,54c1.07-.07,2.37.55,3.35.05l.18.31a.42.42,0,0,0,.1.12h0s0,.08,0,.12l0,.08h0l.34.61a.32.32,0,0,0,.1.12h0l0,.12a.19.19,0,0,0,0,.08v0l.33.61a.32.32,0,0,0,.1.12h0l0,.13,0,.07v0l.33.62a.24.24,0,0,0,.09.12h0a.37.37,0,0,0,0,.12l0,.08a0,0,0,0,0,0,0l.32.62a.27.27,0,0,0,.09.13h0l0,.12a.19.19,0,0,0,0,.08v0c.1.2.21.42.3.62a.41.41,0,0,0,.08.12h0s0,.08,0,.12a.19.19,0,0,0,0,.08v0l.24.65a.6.6,0,0,0,.07.14h0a.45.45,0,0,0,0,.12.26.26,0,0,0,0,.09v0c.09.23.18.46.29.68a.36.36,0,0,0,.1.13s.06,0,.06,0a2.65,2.65,0,0,1,0-.64,2.28,2.28,0,0,1,.13-.5.65.65,0,0,0,0-.29c-.07-.2-.14-.4-.22-.61a.35.35,0,0,0-.07-.11h0a.61.61,0,0,0-.06-.3l-.28-.59a.49.49,0,0,0-.08-.1h0v0a.54.54,0,0,0-.07-.27l-.29-.58a.21.21,0,0,0-.08-.1h0s0,0,0,0a.6.6,0,0,0-.09-.28l-.3-.57a.29.29,0,0,0-.07-.1h-.06v0a.64.64,0,0,0-.09-.28l-.3-.57a.38.38,0,0,0-.08-.09H59v0a.64.64,0,0,0-.09-.28l-.32-.56a.21.21,0,0,0-.08-.1h-.05a.53.53,0,0,0-.09-.28l-.24-.41a1.7,1.7,0,0,0,.15-.22,2.78,2.78,0,0,0,.31-1.48,5.55,5.55,0,0,0,.18-1.93c.47-1.33,1.88-3,1.94-4.52A2.11,2.11,0,0,0,60.55,43.28Zm-16.21-2a.63.63,0,0,0-.26-.13L43.47,41a.27.27,0,0,0-.12,0l0,0s0,0,0,0l0,0a.58.58,0,0,0-.24-.14l-.59-.21a.3.3,0,0,0-.12,0s0,0,0,0,0,0,0,0a0,0,0,0,0,0,0,.5.5,0,0,0-.24-.16l-.56-.25a.24.24,0,0,0-.12,0l0,0h0v0a.66.66,0,0,0-.21-.17c-.18-.1-.35-.21-.52-.32a.3.3,0,0,0-.11,0h-.05v0a.47.47,0,0,0-.18-.2,5.82,5.82,0,0,1-.45-.4.35.35,0,0,0-.09-.06h0v0a.55.55,0,0,0-.13-.23,4.21,4.21,0,0,1-.35-.48.11.11,0,0,0-.07-.08h0v0A.45.45,0,0,0,39,38a3.62,3.62,0,0,1-.2-.55.46.46,0,0,0,0-.1h0v0a.49.49,0,0,0,0-.27,5.6,5.6,0,0,1-.07-.59.53.53,0,0,0,0-.11s0,0,0,0h0v0a.55.55,0,0,0,.06-.26,3.7,3.7,0,0,1,.07-.57.2.2,0,0,0,0-.11s0,0,0,0v0h0a1,1,0,0,0,.12-.23,2.94,2.94,0,0,1,.23-.51.14.14,0,0,0,0-.1s0,0,0,0h0a.59.59,0,0,0,.19-.15,1.69,1.69,0,0,1,.41-.35s.06,0,.07-.08a0,0,0,0,0,0,0v0h0a.5.5,0,0,0,.24-.06,3.16,3.16,0,0,1,.53-.13.23.23,0,0,0,.1,0,0,0,0,0,0,0,0h0a.58.58,0,0,0,.25.05,2.51,2.51,0,0,1,.55.07.23.23,0,0,0,.11,0s0,0,0,0v0l0,0a.51.51,0,0,0,.21.14,2.49,2.49,0,0,1,.51.27.37.37,0,0,0,.11,0s0,0,0,0h0v0a.54.54,0,0,0,.18.21,5.71,5.71,0,0,1,.47.39.28.28,0,0,0,.1.06h0v0a.74.74,0,0,0,.17.23l.46.45.1.07h0v0a.59.59,0,0,0,.16.24c.15.14.28.29.42.44a.18.18,0,0,0,.09.07h0v0a.51.51,0,0,0,.12.25c.12.16.24.33.35.5l.08.09h.06v0a.48.48,0,0,0,.09.27l.3.54a.29.29,0,0,0,.07.1h.05v0a.67.67,0,0,0,.07.27l.27.58a.35.35,0,0,0,.07.09s0,0,0,0h0v0a.7.7,0,0,0,.06.28l.25.59a.26.26,0,0,0,.07.1h0v0a.58.58,0,0,0,.06.29l.12.31a4.09,4.09,0,0,1-1.18,1.09l-.24-.07a.26.26,0,0,0-.12,0s0,0,0,0l0,0v0a.57.57,0,0,0-.26-.13l-.62-.17a.26.26,0,0,0-.12,0,0,0,0,0,0,0,0v0ZM39,34.43h0Zm.69-.67h0Zm1.88-.25h0Zm-2.45,4.81Z"/><path class="cls-22" d="M56,54.7a.36.36,0,0,0-.09-.13s0,0,0,0c0,.23-.05.44-.08.62a3,3,0,0,1-.13.52.78.78,0,0,0,0,.28l.23.6a.16.16,0,0,0,.06.1s0,0,0,0c.06-.17.11-.34.16-.53a5.12,5.12,0,0,0,.11-.61.42.42,0,0,0,0-.21Z"/><path class="cls-23" d="M56.18,55.26,56,54.83l0-.1,0,0a.34.34,0,0,0,0,.08c0,.08,0,.2,0,.31a1.59,1.59,0,0,1-.05.28v.14a1.23,1.23,0,0,0,.06.22l0,.09.13.34s0,.06.05.07,0,0,0,0a1.18,1.18,0,0,0,.09-.3.55.55,0,0,0,0-.16,1.66,1.66,0,0,0,0-.22.57.57,0,0,0,0-.12A.74.74,0,0,0,56.18,55.26Z"/><path class="cls-24" d="M56,54.9c0-.06,0-.1-.07-.07s0,.08,0,.16,0,.17,0,.19a2.37,2.37,0,0,0,.13.34,1,1,0,0,0,.11.25s0,0,0-.07a.66.66,0,0,0,0-.13.4.4,0,0,0,0-.16l-.09-.24Z"/><path class="cls-22" d="M55.57,53.69a.36.36,0,0,0-.09-.13s0,0,0,0a5.51,5.51,0,0,1-.07.63,3.19,3.19,0,0,1-.12.51.58.58,0,0,0,.06.29l.23.59a.21.21,0,0,0,.06.1s0,0,0,0,.1-.34.14-.53a3.53,3.53,0,0,0,.1-.61.45.45,0,0,0,0-.21Z"/><path class="cls-23" d="M55.77,54.24l-.19-.42a.19.19,0,0,0,0-.1s0,0,0,0a.15.15,0,0,0,0,.08,2.31,2.31,0,0,0,0,.32,1.43,1.43,0,0,1,0,.26v.16a1.43,1.43,0,0,0,.06.21l0,.08.13.35.05.07s0,0,0,0a1.07,1.07,0,0,0,.09-.3l0-.16a1.64,1.64,0,0,0,0-.22.62.62,0,0,0,0-.12A.83.83,0,0,0,55.77,54.24Z"/><path class="cls-24" d="M55.58,53.89c0-.06,0-.1-.06-.07a.42.42,0,0,0,0,.16c0,.08,0,.16,0,.19a3.27,3.27,0,0,0,.14.33,1.27,1.27,0,0,0,.11.26s0,0,0-.08,0-.1,0-.12a.91.91,0,0,0,0-.17l-.11-.24Z"/><path class="cls-22" d="M55.14,52.69a.36.36,0,0,0-.09-.13s0,0-.06,0c0,.23,0,.44-.05.63a5,5,0,0,1-.11.51.68.68,0,0,0,.05.29l.25.59a.26.26,0,0,0,.07.1s0,0,0,0a4.27,4.27,0,0,0,.13-.54,5.24,5.24,0,0,0,.09-.61.45.45,0,0,0,0-.21Z"/><path class="cls-23" d="M55.34,53.24l-.18-.43a.23.23,0,0,0-.06-.09s0,0,0,0a.15.15,0,0,0,0,.08c0,.08,0,.2,0,.31a1.42,1.42,0,0,1,0,.27v.16a.76.76,0,0,0,.06.21l0,.09.14.33,0,.08h0a2,2,0,0,0,.08-.31.88.88,0,0,0,0-.16,1.64,1.64,0,0,0,0-.22s0-.07,0-.12A.88.88,0,0,0,55.34,53.24Z"/><path class="cls-24" d="M55.16,52.88c0-.05-.06-.09-.07-.07a1.3,1.3,0,0,0,0,.17.92.92,0,0,1,0,.19c0,.11.1.22.15.33s.08.23.12.25,0,0,0-.08a.57.57,0,0,0,0-.12.91.91,0,0,0,0-.17l-.11-.23Z"/><path class="cls-22" d="M54.7,51.69a.36.36,0,0,0-.08-.13s-.06,0-.06,0a5.63,5.63,0,0,1-.06.63,3.65,3.65,0,0,1-.11.52.94.94,0,0,0,.06.28l.26.59a.2.2,0,0,0,.07.1s0,0,0,0a4.27,4.27,0,0,0,.13-.54c0-.19.06-.39.08-.61a.37.37,0,0,0-.05-.21Z"/><path class="cls-23" d="M54.91,52.24l-.19-.43a.36.36,0,0,0,0-.09s0,0-.05,0a.45.45,0,0,1,0,.08c0,.09,0,.2,0,.32s0,.2,0,.27v.15a1.43,1.43,0,0,0,.06.21l0,.08.15.34a.1.1,0,0,0,.05.07h0a1.27,1.27,0,0,0,.08-.31,1,1,0,0,0,0-.16c0-.07,0-.15,0-.22a1,1,0,0,0,0-.12A.45.45,0,0,0,54.91,52.24Z"/><path class="cls-24" d="M54.72,51.88c0-.05,0-.09-.07-.07s0,.09,0,.17,0,.16,0,.18a3.49,3.49,0,0,0,.15.34c0,.06.08.23.12.25s0,0,0-.08a.62.62,0,0,0,0-.12,1,1,0,0,0,0-.17l-.1-.23Z"/><path class="cls-25" d="M55.77,55.11l-.06.28,0,.21c0,.06-.05.09-.07.07s0,0,0,0a.29.29,0,0,0,0,.06s.07,0,.09-.05,0-.13.06-.21l.06-.27.06-.27a2.24,2.24,0,0,0,0-.24.86.86,0,0,0,0-.23c0-.07-.05-.1,0-.1s0,0,0,.09a1.15,1.15,0,0,1,0,.19,2.23,2.23,0,0,1,0,.23Z"/><path class="cls-25" d="M55.36,54.1c0,.1,0,.2,0,.28l-.05.22c0,.06,0,.08-.06.07l0,0,.05.05s.06,0,.08-.05a1.91,1.91,0,0,0,.06-.21l0-.27a2.56,2.56,0,0,0,.05-.27,1,1,0,0,0,0-.24.86.86,0,0,0,0-.23.37.37,0,0,0,0-.09s0,0,0,.08a1.15,1.15,0,0,1,0,.19,2.23,2.23,0,0,1,0,.23C55.4,53.92,55.38,54,55.36,54.1Z"/><path class="cls-25" d="M54.93,53.1c0,.1,0,.19,0,.28l0,.22s0,.08-.06.07l0,0a.11.11,0,0,0,0,.05s.07,0,.08-.05,0-.13.06-.21,0-.17,0-.27,0-.19.05-.27a2.11,2.11,0,0,0,0-.25.83.83,0,0,0,0-.22c0-.07,0-.1,0-.09a.24.24,0,0,1,0,.08.57.57,0,0,1,0,.19c0,.07,0,.14,0,.23S55,53,54.93,53.1Z"/><path class="cls-22" d="M54.26,50.69a.22.22,0,0,0-.09-.13s0,0-.05,0c0,.23,0,.44,0,.63s-.07.36-.11.52A.64.64,0,0,0,54,52l.26.59s0,.09.07.1,0,0,0,0,.09-.34.13-.53a5.87,5.87,0,0,0,.07-.62.45.45,0,0,0,0-.21Z"/><path class="cls-23" d="M54.47,51.24l-.18-.42a.29.29,0,0,0-.06-.1h0a.12.12,0,0,0,0,.07c0,.09,0,.21,0,.32a1.85,1.85,0,0,1,0,.27v.15a.65.65,0,0,0,.07.21l0,.09.15.34a.18.18,0,0,0,0,.07s0,0,0,0a1.73,1.73,0,0,0,.08-.31s0-.11,0-.16,0-.15,0-.22a.62.62,0,0,0,0-.12A1.2,1.2,0,0,0,54.47,51.24Z"/><path class="cls-24" d="M54.28,50.88c0-.05-.05-.09-.06-.06a1.09,1.09,0,0,0,0,.17.82.82,0,0,1,0,.18,3.31,3.31,0,0,0,.15.33,1,1,0,0,0,.12.25s0,0,0-.08v-.12a.81.81,0,0,0,0-.16l-.11-.24Z"/><path class="cls-22" d="M53.82,49.69a.31.31,0,0,0-.1-.12s0,0,0,0a5.76,5.76,0,0,1-.05.63,2.66,2.66,0,0,1-.1.52.6.6,0,0,0,.07.28l.26.59a.18.18,0,0,0,.07.1s0,0,0,0,.09-.34.12-.53.06-.4.08-.62a.48.48,0,0,0,0-.21Z"/><path class="cls-23" d="M54,50.24l-.19-.42a.17.17,0,0,0-.06-.09l0,0a.15.15,0,0,0,0,.08c0,.08,0,.2,0,.31s0,.21,0,.27v.15a.73.73,0,0,0,.06.22l0,.08.15.34s0,.06,0,.07,0,0,0,0a1.8,1.8,0,0,0,.07-.31s0-.11,0-.16a1.48,1.48,0,0,0,0-.22s0-.06,0-.12A.35.35,0,0,0,54,50.24Z"/><path class="cls-24" d="M53.84,49.89c0-.06-.05-.09-.07-.07a.67.67,0,0,0,0,.17c0,.08,0,.16,0,.18s.1.23.15.34.09.22.13.24,0,0,0-.07a.72.72,0,0,0,0-.13.85.85,0,0,0,0-.16L54,50.15Z"/><path class="cls-22" d="M53.36,48.71a.36.36,0,0,0-.1-.13s0,0-.06,0a6.05,6.05,0,0,1,0,.63,3.69,3.69,0,0,1-.1.52.55.55,0,0,0,.07.28l.27.59a.16.16,0,0,0,.06.09s.05,0,.05,0,.09-.35.12-.53a5.92,5.92,0,0,0,.06-.62.37.37,0,0,0-.05-.21Z"/><path class="cls-23" d="M53.58,49.25l-.21-.42a.36.36,0,0,0,0-.09s0,0,0,0,0,0,0,.08,0,.2,0,.32a1.06,1.06,0,0,1,0,.27v.15a1.7,1.7,0,0,0,.07.21l0,.08.16.34a.13.13,0,0,0,.05.07s0,0,0,0a1.19,1.19,0,0,0,.07-.31c0-.05,0-.11,0-.16s0-.15,0-.22a.32.32,0,0,0,0-.12A.45.45,0,0,0,53.58,49.25Z"/><path class="cls-24" d="M53.37,48.9s0-.09-.06-.06a.54.54,0,0,0,0,.16.92.92,0,0,1,0,.19l.16.33s.09.22.13.24,0,0,0-.08v-.12a1,1,0,0,0,0-.17l-.11-.23Z"/><path class="cls-22" d="M52.88,47.72a.34.34,0,0,0-.1-.13s-.05,0-.05,0a6.05,6.05,0,0,1,0,.63,3.5,3.5,0,0,1-.09.52.55.55,0,0,0,.07.28l.27.58.07.1s0,0,0,0,.08-.34.11-.53a5.67,5.67,0,0,0,.06-.62.69.69,0,0,0-.05-.21Z"/><path class="cls-23" d="M53.11,48.26l-.2-.42-.07-.09s0,0,0,0a.45.45,0,0,0,0,.08,2.91,2.91,0,0,0,0,.31c0,.1,0,.21,0,.27v.16a.48.48,0,0,0,.07.2l0,.09.16.33a.13.13,0,0,0,0,.07s0,0,0,0a1.2,1.2,0,0,0,.07-.3c0-.06,0-.12,0-.17s0-.15,0-.22,0-.06,0-.12A1.2,1.2,0,0,0,53.11,48.26Z"/><path class="cls-24" d="M52.9,47.92c0-.06,0-.1-.07-.07v.35c0,.11.1.22.15.33a1.29,1.29,0,0,0,.13.24s0,0,0-.07v-.13a.85.85,0,0,0,0-.16L53,48.18Z"/><path class="cls-25" d="M54.07,51.11a1.41,1.41,0,0,0,0,.27l0,.22c0,.06,0,.08-.06.08l-.05,0,.06.06s.06,0,.08-.06a1.93,1.93,0,0,0,.05-.2c0-.09,0-.18,0-.27a2.74,2.74,0,0,0,0-.28,1.94,1.94,0,0,0,0-.24.85.85,0,0,0,0-.23c0-.06,0-.09,0-.09s0,0,0,.09a.53.53,0,0,1,0,.19,2.07,2.07,0,0,1,0,.22C54.1,50.93,54.08,51,54.07,51.11Z"/><path class="cls-25" d="M54.5,52.11c0,.09,0,.19,0,.27l0,.22c0,.06,0,.08-.06.07s0,0,0,0a.12.12,0,0,0,0,.06s.07,0,.08-.06a1.42,1.42,0,0,0,.06-.21,1.57,1.57,0,0,1,0-.27c0-.09,0-.18,0-.27a1.07,1.07,0,0,0,0-.25.71.71,0,0,0,0-.21c0-.07-.05-.11-.05-.1a.24.24,0,0,1,0,.08.59.59,0,0,1,0,.19,2.08,2.08,0,0,1,0,.23C54.54,51.93,54.52,52,54.5,52.11Z"/><path class="cls-25" d="M53.62,50.12c0,.09,0,.19,0,.27l0,.22c0,.06,0,.08-.06.08l0,0a.18.18,0,0,0,.05.06s.06,0,.08-.06,0-.13,0-.21,0-.17.05-.27,0-.18,0-.27a2.29,2.29,0,0,0,0-.25.73.73,0,0,0,0-.22c0-.07-.05-.1-.05-.09a.24.24,0,0,1,0,.08,1,1,0,0,1,0,.19c0,.07,0,.14,0,.23A2.51,2.51,0,0,1,53.62,50.12Z"/><path class="cls-25" d="M53.16,49.13a2.7,2.7,0,0,0,0,.28l0,.21c0,.06,0,.09-.06.08s0,0,0,0a.2.2,0,0,0,0,0s.06,0,.08-.06a1.65,1.65,0,0,0,.05-.21c0-.08,0-.17,0-.27s0-.18,0-.27a2.11,2.11,0,0,0,0-.25,1.7,1.7,0,0,0,0-.22c0-.07,0-.1,0-.09a.24.24,0,0,1,0,.08.58.58,0,0,1,0,.19,1,1,0,0,1,0,.23A2.51,2.51,0,0,1,53.16,49.13Z"/><path class="cls-22" d="M52.4,46.74a.32.32,0,0,0-.1-.12s0,0,0,0a6.05,6.05,0,0,1,0,.63,2.58,2.58,0,0,1-.08.52.6.6,0,0,0,.07.29l.28.58a.24.24,0,0,0,.08.09s0,0,0,0,.07-.34.1-.53a6,6,0,0,0,0-.62.37.37,0,0,0,0-.21Z"/><path class="cls-23" d="M52.63,47.28l-.21-.42s0-.07-.06-.08,0,0,0,0a.15.15,0,0,0,0,.08,2.91,2.91,0,0,0,0,.31c0,.11,0,.21,0,.28v.15a1,1,0,0,0,.08.21l0,.08.17.33s0,.06.05.07,0,0,0,0a1.22,1.22,0,0,0,.06-.31c0-.05,0-.11,0-.16v-.22a.35.35,0,0,0,0-.12A1.2,1.2,0,0,0,52.63,47.28Z"/><path class="cls-24" d="M52.42,46.94c0-.06-.05-.09-.06-.07a.63.63,0,0,0,0,.17v.18a2,2,0,0,0,.16.33c0,.06.09.22.13.24s0,0,0-.08v-.12a.85.85,0,0,0,0-.16l-.12-.24Z"/><path class="cls-22" d="M51.91,45.77a.28.28,0,0,0-.1-.13s-.05,0-.05,0a6.22,6.22,0,0,1,0,.63c0,.19-.05.36-.08.52a.55.55,0,0,0,.07.28l.29.58a.26.26,0,0,0,.07.1s0,0,0,0a4.32,4.32,0,0,0,.1-.54,4,4,0,0,0,.05-.62.4.4,0,0,0-.06-.21Z"/><path class="cls-23" d="M52.14,46.31l-.2-.42a.35.35,0,0,0-.07-.09s0,0,0,0a.45.45,0,0,1,0,.08c0,.08,0,.2,0,.31a2,2,0,0,1,0,.27v.15a1,1,0,0,0,.07.21l0,.09.16.33,0,.06h0a1.42,1.42,0,0,0,.06-.31,1,1,0,0,0,0-.17,1.48,1.48,0,0,0,0-.22s0-.06,0-.12A.52.52,0,0,0,52.14,46.31Z"/><path class="cls-24" d="M51.94,46c0-.05-.06-.09-.07-.06a.54.54,0,0,0,0,.16v.19a3.24,3.24,0,0,0,.17.32c0,.06.09.23.13.24s0,0,0-.07v-.13a.85.85,0,0,0,0-.16l-.12-.23Z"/><path class="cls-22" d="M51.42,44.79l-.09-.12s-.06,0-.06,0c0,.23,0,.43,0,.63a3.79,3.79,0,0,1-.08.52.5.5,0,0,0,.08.28l.28.57s0,.09.08.1,0,0,0,0c0-.18.07-.35.1-.55a5.68,5.68,0,0,0,0-.61.69.69,0,0,0,0-.21Z"/><path class="cls-23" d="M51.66,45.33l-.21-.41-.06-.09s0,0,0,0,0,0,0,.07,0,.2,0,.32a2,2,0,0,1,0,.27v.15a.8.8,0,0,0,.08.21l0,.08.17.33s0,.06,0,.07,0,0,0,0a2,2,0,0,0,0-.31s0-.11,0-.16v-.22a.74.74,0,0,0,0-.12A.88.88,0,0,0,51.66,45.33Z"/><path class="cls-24" d="M51.45,45c0-.05-.06-.09-.07-.06a.54.54,0,0,0,0,.16,1.16,1.16,0,0,1,0,.19l.16.32a2.21,2.21,0,0,0,.14.24s0,0,0-.08v-.12a.86.86,0,0,0,0-.16l-.12-.23Z"/><path class="cls-22" d="M50.93,43.83a.28.28,0,0,0-.1-.13s0,0,0,0c0,.22,0,.43,0,.63a3.79,3.79,0,0,1-.08.52.6.6,0,0,0,.08.28l.28.57a.49.49,0,0,0,.08.1s0,0,0,0,.07-.35.1-.54a5.7,5.7,0,0,0,0-.62.31.31,0,0,0-.06-.2Z"/><path class="cls-23" d="M51.17,44.36,51,44a.23.23,0,0,0-.07-.09s0,0,0,0,0,0,0,.08,0,.2,0,.32,0,.2,0,.27v.15a.8.8,0,0,0,.08.21l0,.08.17.33s0,.06,0,.07a0,0,0,0,0,0,0,2,2,0,0,0,0-.31.86.86,0,0,0,0-.16,1.62,1.62,0,0,0,0-.22.74.74,0,0,0,0-.12A1.2,1.2,0,0,0,51.17,44.36Z"/><path class="cls-24" d="M51,44c0-.06-.06-.09-.07-.07a.63.63,0,0,0,0,.17v.19l.16.32a.89.89,0,0,0,.14.24s0,0,0-.08a.47.47,0,0,0,0-.12.86.86,0,0,0,0-.16l-.12-.23Z"/><path class="cls-25" d="M52.69,48.15c0,.09,0,.19,0,.27l0,.22c0,.06,0,.09-.06.08s0,0,0,0l.06,0s.06,0,.08,0,0-.14,0-.22l0-.27a2.48,2.48,0,0,0,0-.27,2.29,2.29,0,0,0,0-.25.54.54,0,0,0,0-.22.37.37,0,0,0,0-.09s0,0,0,.08a1.09,1.09,0,0,1,0,.19,1,1,0,0,1,0,.23C52.72,48,52.71,48.05,52.69,48.15Z"/><path class="cls-25" d="M52.21,47.17l0,.28,0,.22s0,.08-.06.07l0,0a.12.12,0,0,0,.05.06.07.07,0,0,0,.08-.06,1.12,1.12,0,0,0,0-.21c0-.08,0-.18,0-.27a1.41,1.41,0,0,0,0-.28,1,1,0,0,0,0-.24.85.85,0,0,0,0-.23c0-.07-.05-.1-.05-.09a.41.41,0,0,1,0,.09.92.92,0,0,1,0,.18,2,2,0,0,1,0,.23A2.51,2.51,0,0,1,52.21,47.17Z"/><path class="cls-25" d="M51.73,46.2l0,.27,0,.22c0,.06,0,.09-.06.08l0,0a.11.11,0,0,0,0,0s.07,0,.08-.06a1,1,0,0,0,0-.21c0-.08,0-.17,0-.27s0-.19,0-.27a1.07,1.07,0,0,0,0-.25.78.78,0,0,0,0-.22c0-.07-.05-.1-.05-.09a.24.24,0,0,1,0,.08.39.39,0,0,1,0,.19,1,1,0,0,1,0,.23Z"/><path class="cls-25" d="M51.24,45.22c0,.1,0,.2,0,.28l0,.22c0,.06,0,.09,0,.08l-.05,0,.05,0s.07,0,.09-.06,0-.12,0-.21,0-.18,0-.27a2.66,2.66,0,0,0,0-.28,1.93,1.93,0,0,0,0-.24.51.51,0,0,0,0-.22c0-.07,0-.1,0-.09l0,.08a1,1,0,0,1,0,.19c0,.07,0,.14,0,.23A2,2,0,0,0,51.24,45.22Z"/><path class="cls-22" d="M50.44,42.85a.24.24,0,0,0-.1-.12,0,0,0,0,0-.05,0,6.22,6.22,0,0,1,0,.63,3.71,3.71,0,0,1-.08.53.71.71,0,0,0,.07.28l.3.57a.2.2,0,0,0,.07.1s0,0,0,0,.06-.35.09-.54a5.87,5.87,0,0,0,0-.62.64.64,0,0,0-.05-.2Z"/><path class="cls-23" d="M50.68,43.39,50.47,43l-.06-.09s0,0,0,0a.45.45,0,0,1,0,.08c0,.09,0,.21,0,.32a2,2,0,0,1,0,.27l0,.15a.52.52,0,0,0,.07.21l0,.08.17.33,0,.07s0,0,0,0a2,2,0,0,0,.05-.31c0-.06,0-.12,0-.16v-.22a.74.74,0,0,0,0-.12A.88.88,0,0,0,50.68,43.39Z"/><path class="cls-24" d="M50.47,43.05c0-.06-.06-.09-.07-.07a.67.67,0,0,0,0,.17,1.16,1.16,0,0,1,0,.19l.16.32a2.21,2.21,0,0,0,.14.24s0,0,0-.08V43.7a1,1,0,0,0,0-.17l-.12-.23Z"/><path class="cls-22" d="M50,41.88a.42.42,0,0,0-.1-.12s0,0,0,0a6.05,6.05,0,0,1,0,.63,2.81,2.81,0,0,1-.08.53.57.57,0,0,0,.08.27l.29.58a.29.29,0,0,0,.07.1s0,0,0,0,.06-.35.09-.54,0-.4,0-.62a.57.57,0,0,0-.06-.21Z"/><path class="cls-23" d="M50.19,42.42,50,42a.18.18,0,0,0-.06-.08l0,0a.45.45,0,0,0,0,.08,2.91,2.91,0,0,0,0,.31c0,.11,0,.21,0,.28l0,.14a.55.55,0,0,0,.07.22L50,43l.17.33.05.07h0a2.24,2.24,0,0,0,0-.31,1,1,0,0,0,0-.16,1.62,1.62,0,0,0,0-.22.74.74,0,0,0,0-.12A.7.7,0,0,0,50.19,42.42Z"/><path class="cls-24" d="M50,42.08c0-.06,0-.09-.07-.07v.35c.05.11.1.22.16.33a1.73,1.73,0,0,0,.13.24s0,0,0-.08a.62.62,0,0,0,0-.12,1,1,0,0,0,0-.17l-.12-.23Z"/><path class="cls-22" d="M49.48,40.91a.27.27,0,0,0-.09-.13s0,0-.06,0c0,.23,0,.44,0,.63s-.05.37-.09.53a.6.6,0,0,0,.07.28l.29.58a.23.23,0,0,0,.07.09s0,0,.05,0a4.34,4.34,0,0,0,.09-.54,5.77,5.77,0,0,0,.05-.62.42.42,0,0,0-.05-.2Z"/><path class="cls-23" d="M49.71,41.45l-.2-.42-.06-.09s0,0-.05,0a.45.45,0,0,1,0,.08c0,.09,0,.21,0,.32a2,2,0,0,1,0,.27v.15a.8.8,0,0,0,.08.21l0,.08.16.34a.17.17,0,0,0,.06.06s0,0,0,0a1.22,1.22,0,0,0,.06-.3c0-.06,0-.12,0-.17v-.22s0-.06,0-.12A.82.82,0,0,0,49.71,41.45Z"/><path class="cls-24" d="M49.51,41.1c0-.05-.06-.09-.07-.06a.54.54,0,0,0,0,.16v.18a2,2,0,0,0,.16.33c0,.06.09.22.13.24s0,0,0-.07v-.13a.85.85,0,0,0,0-.16l-.12-.23Z"/><path class="cls-22" d="M49,39.93a.22.22,0,0,0-.09-.13s-.05,0-.05,0a5.87,5.87,0,0,1,0,.62,3.64,3.64,0,0,1-.09.53.63.63,0,0,0,.08.28l.28.58a.43.43,0,0,0,.07.1s0,0,0,0a4.32,4.32,0,0,0,.1-.54,4,4,0,0,0,0-.62.36.36,0,0,0,0-.2Z"/><path class="cls-23" d="M49.24,40.47l-.2-.42A.35.35,0,0,0,49,40s0,0,0,0a.12.12,0,0,0,0,.07c0,.08,0,.2,0,.32s0,.2,0,.27v.15A.74.74,0,0,0,49,41l0,.08.16.34a.22.22,0,0,0,.06.07h0a1.31,1.31,0,0,0,.06-.31c0-.06,0-.12,0-.16s0-.15,0-.22a.74.74,0,0,0,0-.12A.88.88,0,0,0,49.24,40.47Z"/><path class="cls-24" d="M49,40.12s0-.09-.07-.06a.58.58,0,0,0,0,.16v.19a3.13,3.13,0,0,0,.15.32c0,.06.1.23.14.25s0,0,0-.08,0-.1,0-.13a1,1,0,0,0,0-.16l-.11-.23Z"/><path class="cls-25" d="M50.26,43.28a2.66,2.66,0,0,0,0,.28l0,.22c0,.06,0,.08-.06.08s0,0,0,0a.17.17,0,0,0,.06,0s.06,0,.08-.06l0-.21a2.51,2.51,0,0,1,0-.27l0-.28a2,2,0,0,0,0-.24.73.73,0,0,0,0-.22.34.34,0,0,0-.06-.1l0,.09a.9.9,0,0,1,0,.18,2,2,0,0,1,0,.23C50.29,43.1,50.27,43.19,50.26,43.28Z"/><path class="cls-25" d="M50.75,44.25c0,.1,0,.2,0,.28l0,.22c0,.06,0,.08-.06.08s0,0,0,0,0,0,0,0,.07,0,.09-.06,0-.13,0-.21,0-.18,0-.27l0-.28a1.93,1.93,0,0,0,0-.24.72.72,0,0,0,0-.22.24.24,0,0,0,0-.1s0,0,0,.09a.9.9,0,0,1,0,.18,1.79,1.79,0,0,0,0,.23C50.78,44.07,50.76,44.16,50.75,44.25Z"/><path class="cls-25" d="M49.77,42.31l0,.28,0,.22s0,.08-.05.07a.08.08,0,0,1,0,0,.08.08,0,0,0,.06,0s.06,0,.08-.06,0-.12,0-.2a2.48,2.48,0,0,1,0-.27c0-.1,0-.19,0-.28a2.18,2.18,0,0,0,0-.25.57.57,0,0,0,0-.22.23.23,0,0,0,0-.09l0,.09a.51.51,0,0,1,0,.18,2,2,0,0,1,0,.23A2.51,2.51,0,0,1,49.77,42.31Z"/><path class="cls-25" d="M49.3,41.33a2.7,2.7,0,0,0,0,.28l0,.22c0,.06,0,.08-.06.08l0,0a.2.2,0,0,0,0,0s.07,0,.08-.06a1.12,1.12,0,0,0,0-.21c0-.09,0-.18,0-.27a2.7,2.7,0,0,0,0-.28,1,1,0,0,0,0-.24.73.73,0,0,0,0-.22.24.24,0,0,0,0-.1.85.85,0,0,1,0,.09.53.53,0,0,1,0,.19,1.8,1.8,0,0,1,0,.22A2.51,2.51,0,0,0,49.3,41.33Z"/><path class="cls-22" d="M48.57,39a.26.26,0,0,0-.08-.13s-.05,0-.06,0a5.63,5.63,0,0,1-.06.63c0,.19-.06.36-.09.52a.48.48,0,0,0,.07.28l.27.59a.43.43,0,0,0,.07.1s.05,0,.05,0a4.32,4.32,0,0,0,.1-.54,5.48,5.48,0,0,0,.06-.61.37.37,0,0,0,0-.21Z"/><path class="cls-23" d="M48.78,39.49l-.19-.42L48.54,39s0,0,0,0a.45.45,0,0,1,0,.08c0,.08,0,.2,0,.31s0,.2,0,.27v.16a1.21,1.21,0,0,0,.07.2l0,.09.16.34a.17.17,0,0,0,.06.06h0a2.38,2.38,0,0,0,.07-.31.76.76,0,0,1,0-.16,1.62,1.62,0,0,0,0-.22.3.3,0,0,0,0-.12A.41.41,0,0,0,48.78,39.49Z"/><path class="cls-24" d="M48.59,39.14s-.05-.09-.07-.07,0,.09,0,.17a1.53,1.53,0,0,0,0,.18,3.31,3.31,0,0,0,.15.33,1.17,1.17,0,0,0,.13.25s0,0,0-.08a.56.56,0,0,0,0-.13.76.76,0,0,0,0-.16l-.12-.23Z"/><path class="cls-22" d="M48.16,38a.36.36,0,0,0-.09-.13s0,0-.06,0a4.08,4.08,0,0,1-.06.63,3.47,3.47,0,0,1-.12.51.58.58,0,0,0,.06.29l.27.6a.43.43,0,0,0,.07.1s0,0,0,0,.08-.35.11-.54a3.75,3.75,0,0,0,.08-.61.32.32,0,0,0,0-.2Z"/><path class="cls-23" d="M48.35,38.5l-.17-.43a.35.35,0,0,0-.06-.09s0,0,0,0a.15.15,0,0,0,0,.08,2.36,2.36,0,0,0,0,.31c0,.1,0,.2,0,.27v.16A.76.76,0,0,0,48,39l0,.08.15.34a.14.14,0,0,0,.06.07s0,0,0,0a1.29,1.29,0,0,0,.07-.31,1,1,0,0,0,0-.16,1.64,1.64,0,0,0,0-.22.28.28,0,0,0,0-.12A.51.51,0,0,0,48.35,38.5Z"/><path class="cls-24" d="M48.17,38.15c0-.06-.05-.1-.06-.07a.42.42,0,0,0,0,.16c0,.08,0,.16,0,.19s.09.22.14.33.09.23.13.25,0,0,0-.08v-.12a.42.42,0,0,0,0-.16l-.09-.24Z"/><path class="cls-22" d="M47.74,36.94a.27.27,0,0,0-.09-.13s0,0-.06,0a5.76,5.76,0,0,1-.05.63c0,.19-.08.36-.13.52a.56.56,0,0,0,.06.28l.25.6a.24.24,0,0,0,.06.1s0,0,0,0,.09-.34.13-.53a5.24,5.24,0,0,0,.09-.61.45.45,0,0,0,0-.21Z"/><path class="cls-23" d="M47.94,37.5l-.18-.43a.29.29,0,0,0-.06-.1s0,0,0,0a.15.15,0,0,0,0,.08l0,.32a1.73,1.73,0,0,1,0,.27v.15a.69.69,0,0,0,0,.21l0,.09.14.34s0,.06.05.07a0,0,0,0,0,0,0c0-.09,0-.19.08-.31A1,1,0,0,0,48,38l0-.22a.74.74,0,0,0,0-.12A.64.64,0,0,0,47.94,37.5Z"/><path class="cls-24" d="M47.75,37.14c0-.06,0-.1-.06-.07a1.09,1.09,0,0,0,0,.17.82.82,0,0,1,0,.18,3.27,3.27,0,0,0,.14.33c0,.06.08.23.12.25s0,0,0-.07a.62.62,0,0,0,0-.12.91.91,0,0,0,0-.17l-.1-.24Z"/><path class="cls-22" d="M47.28,35.93a.27.27,0,0,0-.09-.13s0,0-.06,0a4.16,4.16,0,0,1,0,.63A3.69,3.69,0,0,1,47,37a.66.66,0,0,0,0,.28l.25.59a.43.43,0,0,0,.07.1s0,0,0,0a4.58,4.58,0,0,0,.14-.53c0-.19.06-.4.08-.62a.37.37,0,0,0-.05-.21C47.49,36.36,47.39,36.14,47.28,35.93Z"/><path class="cls-23" d="M47.51,36.49l-.2-.43a.23.23,0,0,0-.06-.09s0,0,0,0a.15.15,0,0,0,0,.08l0,.31a1.7,1.7,0,0,1,0,.28v.15a.74.74,0,0,0,.07.21l0,.09.15.34a.43.43,0,0,0,0,.07s0,0,0,0a2,2,0,0,0,.08-.31.88.88,0,0,0,0-.16,1.64,1.64,0,0,0,0-.22.3.3,0,0,0,0-.12A.45.45,0,0,0,47.51,36.49Z"/><path class="cls-24" d="M47.31,36.13c0-.05-.05-.09-.07-.07a.67.67,0,0,0,0,.17v.19c0,.11.09.22.14.33s.09.23.13.25,0,0,0-.08a.57.57,0,0,0,0-.12.48.48,0,0,0,0-.17l-.11-.24Z"/><path class="cls-25" d="M48.83,40.35a2.7,2.7,0,0,0,0,.28l0,.22c0,.06,0,.08,0,.07a.08.08,0,0,1-.05,0,.11.11,0,0,0,.06.06s.06,0,.08-.06,0-.13,0-.21,0-.18,0-.27a2.7,2.7,0,0,0,0-.28,1.94,1.94,0,0,0,0-.24.73.73,0,0,0,0-.22l0-.1a.85.85,0,0,1,0,.09.57.57,0,0,1,0,.19,2.15,2.15,0,0,1,0,.23C48.86,40.17,48.84,40.26,48.83,40.35Z"/><path class="cls-25" d="M48.37,39.36c0,.09,0,.2,0,.28l0,.22c0,.06,0,.09-.06.08s0,0,0,0l.05,0s.06,0,.08-.06,0-.12,0-.21,0-.18,0-.27a2.56,2.56,0,0,0,.05-.27,2.42,2.42,0,0,0,0-.25.83.83,0,0,0,0-.22c0-.06,0-.1,0-.09a.25.25,0,0,1,0,.09,1,1,0,0,1,0,.18,2.23,2.23,0,0,1,0,.23Z"/><path class="cls-25" d="M47.94,38.36c0,.09,0,.19,0,.28l0,.22s0,.08-.06.07l0,0a.1.1,0,0,0,0,.05s.06,0,.08-.05a1.08,1.08,0,0,0,0-.21c0-.08,0-.18.06-.27a2.56,2.56,0,0,0,0-.27,1.13,1.13,0,0,0,0-.25.82.82,0,0,0,0-.22.39.39,0,0,0,0-.1l0,.09a.6.6,0,0,1,0,.19l0,.23C48,38.18,48,38.27,47.94,38.36Z"/><path class="cls-25" d="M47.53,37.36c0,.09,0,.19-.05.27l0,.22c0,.06,0,.08-.06.07l0,0a.18.18,0,0,0,.05.06s.07,0,.09-.06,0-.13.05-.21,0-.17.06-.27a2.56,2.56,0,0,1,.05-.27,2.11,2.11,0,0,0,0-.25.82.82,0,0,0,0-.22.69.69,0,0,0-.05-.1.85.85,0,0,1,0,.09.59.59,0,0,1,0,.19,2.08,2.08,0,0,1,0,.23C47.57,37.18,47.55,37.26,47.53,37.36Z"/><path class="cls-22" d="M46.76,34.94a.68.68,0,0,0-.11-.12s0,0,0,0a3.47,3.47,0,0,1,0,.64,2.11,2.11,0,0,1-.07.52.83.83,0,0,0,.07.27c.1.19.18.38.27.58A.43.43,0,0,0,47,37s0,0,0,0a4.12,4.12,0,0,0,.12-.53,4,4,0,0,0,0-.62.37.37,0,0,0,0-.21C47,35.36,46.88,35.15,46.76,34.94Z"/><path class="cls-23" d="M47,35.49s-.22-.4-.24-.42a.35.35,0,0,0-.06-.09s0,0,0,0,0,0,0,.07v.33a2.18,2.18,0,0,1,0,.27l0,.15a.74.74,0,0,0,.07.21l0,.08.16.33,0,.07s0,0,0,0a2.21,2.21,0,0,0,.07-.32s0-.11,0-.16,0-.15,0-.22a.35.35,0,0,0,0-.12A.88.88,0,0,0,47,35.49Z"/><path class="cls-24" d="M46.8,35.14s-.06-.09-.07-.06a.44.44,0,0,0,0,.17,1.58,1.58,0,0,1,0,.19c0,.1.11.22.17.32A1.29,1.29,0,0,0,47,36s0,0,0-.08V35.8s0-.11,0-.17L47,35.4Z"/><path class="cls-22" d="M46.13,34a.36.36,0,0,0-.13-.12s0,0,0,0a4,4,0,0,1,.09.63,3,3,0,0,1,0,.53.57.57,0,0,0,.09.26,5.86,5.86,0,0,1,.3.55.23.23,0,0,0,.07.09s0,0,0,0a2.92,2.92,0,0,0,.08-.54,4.21,4.21,0,0,0,0-.62.62.62,0,0,0-.08-.21C46.42,34.4,46.28,34.2,46.13,34Z"/><path class="cls-23" d="M46.46,34.52l-.28-.4-.08-.07s0,0-.05,0v.08c0,.09,0,.2,0,.32s0,.2,0,.27l0,.15a1,1,0,0,0,.09.2l.05.07.18.32s0,.06.06.06,0,0,0,0a2.53,2.53,0,0,0,0-.32V35c0-.07,0-.15,0-.22s0-.07,0-.12A.51.51,0,0,0,46.46,34.52Z"/><path class="cls-24" d="M46.19,34.2c0-.05-.07-.08-.08-.06a1,1,0,0,0,0,.17,1.52,1.52,0,0,0,0,.19c.06.1.14.21.2.3a1.31,1.31,0,0,0,.15.23s0,0,0-.08,0-.1,0-.12a1.11,1.11,0,0,0,0-.17l-.15-.22A2.29,2.29,0,0,0,46.19,34.2Z"/><path class="cls-22" d="M45.37,33.15a.31.31,0,0,0-.13-.09s-.05,0-.05,0a4.64,4.64,0,0,1,.19.61,3.37,3.37,0,0,1,0,.52.56.56,0,0,0,.12.25c.13.16.24.33.36.51a.15.15,0,0,0,.08.08s0,0,0,0a3.14,3.14,0,0,0,0-.54,2.83,2.83,0,0,0-.07-.63.48.48,0,0,0-.11-.19A6.39,6.39,0,0,0,45.37,33.15Z"/><path class="cls-23" d="M45.78,33.62l-.34-.36a.24.24,0,0,0-.09-.07H45.3a.25.25,0,0,0,0,.08c0,.09.06.2.09.31a1.76,1.76,0,0,1,.05.27l0,.14a.84.84,0,0,0,.12.19l.06.07.21.29.07.06s0,0,0,0a1.11,1.11,0,0,0,0-.32.7.7,0,0,0,0-.16,1.7,1.7,0,0,0,0-.22.66.66,0,0,0-.06-.12A.49.49,0,0,0,45.78,33.62Z"/><path class="cls-24" d="M45.46,33.33s-.08-.07-.08,0,0,.08,0,.16a1.18,1.18,0,0,1,.06.18l.24.28c.05.05.15.2.19.21s0,0,0-.08a.86.86,0,0,0,0-.13.53.53,0,0,0,0-.16s-.08-.1-.18-.2Z"/><path class="cls-22" d="M44.59,32.39a.46.46,0,0,0-.14-.09s-.05,0,0,.05a4.11,4.11,0,0,1,.19.6,3.64,3.64,0,0,1,.1.52.63.63,0,0,0,.16.24,5.77,5.77,0,0,1,.42.44s.06.07.09.07,0,0,0,0a3.44,3.44,0,0,0,0-.54,3.94,3.94,0,0,0-.16-.61.38.38,0,0,0-.12-.17Z"/><path class="cls-23" d="M45,32.82l-.34-.32s-.06-.06-.08-.06,0,0,0,0a.22.22,0,0,0,0,.08l.09.31a2.08,2.08,0,0,1,.07.26l.06.14a.7.7,0,0,0,.14.17l.07.07.26.25s.05,0,.07,0h0a1.33,1.33,0,0,0,0-.32l0-.16c0-.06,0-.14-.07-.21s0-.05-.06-.1A.6.6,0,0,0,45,32.82Z"/><path class="cls-24" d="M44.68,32.57s-.08-.07-.09,0,0,.08,0,.16a.88.88,0,0,1,.06.17,3,3,0,0,0,.26.25,1.16,1.16,0,0,0,.21.19s0,0,0-.09a.66.66,0,0,0,0-.11c0-.05,0-.11-.05-.16l-.19-.17Z"/><path class="cls-25" d="M46.6,35.39c0,.09,0,.19,0,.27l0,.22c0,.06,0,.09,0,.08l0,0s0,0,.06.05.06,0,.08-.06,0-.13,0-.21l0-.27a2.62,2.62,0,0,0,0-.28,1,1,0,0,0,0-.25.71.71,0,0,0-.06-.22l-.06-.09s0,0,0,.08a.9.9,0,0,1,0,.19,1.85,1.85,0,0,1,0,.23C46.62,35.2,46.61,35.29,46.6,35.39Z"/><path class="cls-25" d="M47.09,36.36c0,.09,0,.19,0,.28l0,.21c0,.06,0,.08-.06.08l-.05,0A.12.12,0,0,0,47,37S47,37,47,36.9a1.67,1.67,0,0,0,.06-.2l0-.28a2.19,2.19,0,0,0,0-.27,1.07,1.07,0,0,0,0-.25.73.73,0,0,0,0-.22.34.34,0,0,0-.06-.1s0,0,0,.09a1,1,0,0,1,0,.19,2.15,2.15,0,0,1,0,.23C47.12,36.17,47.11,36.27,47.09,36.36Z"/><path class="cls-25" d="M46,34.46V35C46,35,46,35,46,35h0a.19.19,0,0,0,.06,0s.06,0,.07-.07a1.15,1.15,0,0,0,0-.21v-.27a2.62,2.62,0,0,0,0-.28L46,34,46,33.78a.38.38,0,0,0-.08-.09s0,0,.06.08A.47.47,0,0,1,46,34c0,.07,0,.14,0,.23S46,34.37,46,34.46Z"/><path class="cls-25" d="M45.34,33.62l0,.27c0,.08,0,.16,0,.22s0,.08,0,.09h0a.1.1,0,0,0,.06,0s.06,0,.06-.07a1.46,1.46,0,0,0,0-.21l0-.27a2.33,2.33,0,0,0,0-.28,1.69,1.69,0,0,0-.08-.24.57.57,0,0,0-.1-.19c-.05-.06-.08-.08-.08-.07a.23.23,0,0,1,.06.07.6.6,0,0,1,.08.16,1.32,1.32,0,0,1,.05.23A1.07,1.07,0,0,1,45.34,33.62Z"/><path class="cls-22" d="M43.73,31.65a.29.29,0,0,0-.15-.07s0,0,0,.05a2.61,2.61,0,0,1,.25.58,2.85,2.85,0,0,1,.12.51.54.54,0,0,0,.16.23l.46.45a.37.37,0,0,0,.1.07s0,0,0,0a5.07,5.07,0,0,0-.09-.54,3.93,3.93,0,0,0-.17-.6.38.38,0,0,0-.13-.18C44.11,32,43.93,31.8,43.73,31.65Z"/><path class="cls-23" d="M44.19,32.07s-.35-.3-.37-.32a.29.29,0,0,0-.1-.05h0a.13.13,0,0,0,0,.08c0,.08.08.19.13.3l.08.26.07.13a1,1,0,0,0,.14.17l.07.06.27.26a.13.13,0,0,0,.07,0s0,0,0,0a1.24,1.24,0,0,0,0-.31c0-.06,0-.12,0-.16a1.31,1.31,0,0,0-.08-.21s0-.06-.06-.11A.71.71,0,0,0,44.19,32.07Z"/><path class="cls-24" d="M43.85,31.82c-.05,0-.09-.06-.1,0s0,.08.07.15l.08.18.27.24a1.59,1.59,0,0,0,.22.18s0,0,0-.08,0-.1,0-.12l-.07-.16-.2-.17C44,31.92,43.86,31.84,43.85,31.82Z"/><path class="cls-22" d="M42.71,31.05a.38.38,0,0,0-.17,0s0,0,0,.06a2,2,0,0,1,.4.51,2,2,0,0,1,.2.48.69.69,0,0,0,.17.2,5.84,5.84,0,0,1,.48.39.18.18,0,0,0,.1.06s0,0,0,0a3.64,3.64,0,0,0-.12-.53,2.82,2.82,0,0,0-.24-.59.48.48,0,0,0-.16-.16A4,4,0,0,0,42.71,31.05Z"/><path class="cls-23" d="M43.27,31.37a4.92,4.92,0,0,0-.45-.24l-.11,0s-.05,0,0,0a.13.13,0,0,0,0,.07,2.94,2.94,0,0,1,.2.26,2.36,2.36,0,0,1,.14.24l.08.12a.85.85,0,0,0,.17.14l.07.06.29.22.08,0s0,0,0,0a1.58,1.58,0,0,0-.08-.31l-.06-.15-.1-.2-.09-.1A.7.7,0,0,0,43.27,31.37Z"/><path class="cls-24" d="M42.87,31.19c-.06,0-.1,0-.1,0s.06.08.11.14l.12.16.31.19c.06,0,.2.15.24.15s0,0,0-.08a1.3,1.3,0,0,0-.06-.12,1.51,1.51,0,0,0-.09-.14l-.24-.14Z"/><path class="cls-22" d="M41.51,30.81a.31.31,0,0,0-.17,0s0,0,0,.06a1.76,1.76,0,0,1,.56.33,1.63,1.63,0,0,1,.33.39.56.56,0,0,0,.22.14A4.19,4.19,0,0,1,43,32a.19.19,0,0,0,.1,0s0,0,0,0a2.21,2.21,0,0,0-.19-.5,2,2,0,0,0-.39-.52.45.45,0,0,0-.21-.11A3,3,0,0,0,41.51,30.81Z"/><path class="cls-23" d="M42.17,30.91l-.27,0-.25,0h-.12s0,0,0,0,0,0,.06.05a3.23,3.23,0,0,1,.28.18,1.37,1.37,0,0,1,.21.18l.12.09a.68.68,0,0,0,.19.08l.09,0,.32.15.08,0s0,0,0,0a1,1,0,0,0-.14-.28l-.1-.14c-.05,0-.1-.12-.16-.17L42.35,31Z"/><path class="cls-24" d="M41.72,30.88c-.07,0-.12,0-.1,0l.16.1.16.1.36.08a1.36,1.36,0,0,0,.28.08s0,0,0-.08a.37.37,0,0,1-.09-.09.85.85,0,0,0-.14-.11L42,30.92A2.3,2.3,0,0,0,41.72,30.88Z"/><path class="cls-22" d="M40.31,31a.32.32,0,0,0-.16.1s0,.05,0,.05a1.82,1.82,0,0,1,.65.09,1.37,1.37,0,0,1,.45.24.52.52,0,0,0,.25,0,2.61,2.61,0,0,1,.55.08h.11s0,0,0,0a1.75,1.75,0,0,0-.33-.41,1.9,1.9,0,0,0-.56-.34.5.5,0,0,0-.23,0A2.57,2.57,0,0,0,40.31,31Z"/><path class="cls-23" d="M41,30.88l-.27.05-.25.08-.1.06s0,0,0,0l.07,0,.34.05.26.09.14,0a1.46,1.46,0,0,0,.21,0h.09a2.11,2.11,0,0,1,.35,0h.09s0,0,0,0a.81.81,0,0,0-.23-.22L41.5,31l-.21-.1-.13,0Z"/><path class="cls-24" d="M40.53,31c-.07,0-.11,0-.09.07l.18,0,.19,0,.37-.06a2.16,2.16,0,0,0,.29,0s0,0-.06-.06l-.12,0a.56.56,0,0,0-.17-.06l-.28.05Z"/><path class="cls-25" d="M44.56,32.86a2.61,2.61,0,0,0,.06.27l.05.21c0,.07,0,.1,0,.1h0s0,0,.07,0,.06,0,.05-.08a.88.88,0,0,0,0-.21c0-.08,0-.18-.06-.27a2.56,2.56,0,0,0,0-.27c0-.09,0-.16-.08-.24a.86.86,0,0,0-.11-.19.32.32,0,0,0-.09-.08s0,0,.07.08a.87.87,0,0,1,.09.17,1.19,1.19,0,0,1,0,.22Z"/><path class="cls-25" d="M43.75,32.12l.08.27c0,.08.05.15.06.21s0,.09,0,.09a.07.07,0,0,1,0,0l.07,0s.06,0,0-.09,0-.12,0-.2l-.07-.27-.09-.27a1.6,1.6,0,0,0-.1-.23,1.43,1.43,0,0,0-.15-.18c-.06-.05-.1-.07-.1-.06a.35.35,0,0,1,.08.06.64.64,0,0,1,.11.16.85.85,0,0,1,.09.22A2,2,0,0,1,43.75,32.12Z"/><path class="cls-25" d="M42.85,31.51a1.93,1.93,0,0,1,.13.24l.08.2c0,.06,0,.09,0,.1s0,0,0,0a.14.14,0,0,0,.07,0s.05,0,0-.09,0-.13-.07-.2-.08-.16-.12-.25a1.2,1.2,0,0,0-.15-.24,1.56,1.56,0,0,0-.16-.2.66.66,0,0,0-.2-.14q-.12,0-.12,0a.35.35,0,0,1,.1,0,.56.56,0,0,1,.16.12,1.57,1.57,0,0,1,.15.19A1.88,1.88,0,0,1,42.85,31.51Z"/><path class="cls-25" d="M41.81,31.18l.21.18.13.17s0,.08,0,.09l0,0h.07s0-.05,0-.1l-.12-.16-.2-.19a1,1,0,0,0-.22-.18,1,1,0,0,0-.23-.13.69.69,0,0,0-.24-.05c-.08,0-.12,0-.12,0s.05,0,.1,0a.51.51,0,0,1,.2.06,1.13,1.13,0,0,1,.21.12A1.18,1.18,0,0,1,41.81,31.18Z"/><path class="cls-22" d="M39.29,31.76a.52.52,0,0,0-.09.15c0,.05,0,.06,0,0a1.82,1.82,0,0,1,.62-.21,1.35,1.35,0,0,1,.5,0,.6.6,0,0,0,.24-.05,2.44,2.44,0,0,1,.53-.14.29.29,0,0,0,.11,0,0,0,0,0,0,0-.05,1.78,1.78,0,0,0-1.12-.35.57.57,0,0,0-.23.08A2.84,2.84,0,0,0,39.29,31.76Z"/><path class="cls-23" d="M39.81,31.33l-.22.17c-.09.08-.17.17-.18.18a.26.26,0,0,0-.07.1s0,0,0,0l.08,0,.31-.1.28,0,.14,0a1.21,1.21,0,0,0,.2-.07s.07,0,.08,0a1.42,1.42,0,0,1,.33-.12l.07,0a0,0,0,0,0,0,0,1.46,1.46,0,0,0-.3-.11l-.17,0h-.23l-.14,0Z"/><path class="cls-24" d="M39.48,31.65c0,.05-.08.09,0,.09l.18,0,.19-.06.3-.22a1.22,1.22,0,0,0,.26-.14s0,0-.08,0h-.13a1.1,1.1,0,0,0-.18,0l-.25.17C39.61,31.52,39.5,31.63,39.48,31.65Z"/><path class="cls-22" d="M38.69,32.83a.37.37,0,0,0,0,.17s0,0,0,0a2.36,2.36,0,0,1,.49-.43,1.41,1.41,0,0,1,.47-.19.85.85,0,0,0,.19-.16,1.69,1.69,0,0,1,.41-.35.22.22,0,0,0,.07-.07s0,0,0-.05a1.54,1.54,0,0,0-.53,0,1.65,1.65,0,0,0-.62.2.53.53,0,0,0-.17.17A3.06,3.06,0,0,0,38.69,32.83Z"/><path class="cls-23" d="M39,32.25a3.29,3.29,0,0,0-.23.46.74.74,0,0,0,0,.12s0,.05,0,0l.07,0a1.94,1.94,0,0,1,.25-.22,1.58,1.58,0,0,1,.23-.14l.12-.09a1.22,1.22,0,0,0,.14-.16l0-.07a2.83,2.83,0,0,1,.24-.25s0,0,0-.07,0,0,0,0a.93.93,0,0,0-.32,0l-.16.05-.21.11-.11.09A.44.44,0,0,0,39,32.25Z"/><path class="cls-24" d="M38.82,32.66c0,.06,0,.11,0,.1l.13-.11a.7.7,0,0,1,.15-.13,3.37,3.37,0,0,1,.19-.32c0-.06.15-.21.16-.25s0,0-.09,0l-.12.06a1,1,0,0,0-.15.1l-.14.25A3.15,3.15,0,0,0,38.82,32.66Z"/><path class="cls-22" d="M38.48,34a.65.65,0,0,0,0,.17s.05,0,.06,0a3,3,0,0,1,.34-.56,1.69,1.69,0,0,1,.38-.34.7.7,0,0,0,.12-.23,2.38,2.38,0,0,1,.24-.51.21.21,0,0,0,0-.1s0,0,0,0a1.58,1.58,0,0,0-.49.21,2,2,0,0,0-.49.41.57.57,0,0,0-.1.22A4.78,4.78,0,0,0,38.48,34Z"/><path class="cls-23" d="M38.58,33.37c0,.05-.06.48-.06.51s0,.09,0,.11,0,0,0,0l0-.06.17-.28.18-.21.07-.13a.76.76,0,0,0,.08-.2l0-.08a2.3,2.3,0,0,1,.12-.34.31.31,0,0,0,0-.08s0,0,0,0a1.1,1.1,0,0,0-.28.15l-.13.12a1.21,1.21,0,0,0-.16.16l-.06.12A.63.63,0,0,0,38.58,33.37Z"/><path class="cls-24" d="M38.56,33.81c0,.07,0,.11,0,.1a.61.61,0,0,0,.1-.15.76.76,0,0,1,.1-.16l.07-.37a2,2,0,0,0,.06-.28s0,0-.08,0l-.08.09a.85.85,0,0,0-.11.14s0,.14,0,.28S38.56,33.79,38.56,33.81Z"/><path class="cls-22" d="M38.59,35.18a.3.3,0,0,0,.07.15s0,0,.05,0a2.91,2.91,0,0,1,.2-.61,1.67,1.67,0,0,1,.28-.44.63.63,0,0,0,.05-.26,3.68,3.68,0,0,1,.07-.58.2.2,0,0,0,0-.11s0,0,0,0a2.26,2.26,0,0,0-.74.91.43.43,0,0,0,0,.22A6.42,6.42,0,0,0,38.59,35.18Z"/><path class="cls-23" d="M38.53,34.55a3.61,3.61,0,0,0,.07.49.53.53,0,0,0,0,.11s0,0,0,0l0-.07c0-.09.06-.21.1-.31s.09-.19.12-.25l0-.14a.52.52,0,0,0,0-.22V34.1s0-.32,0-.36a.19.19,0,0,0,0-.08s0,0,0,0a1.63,1.63,0,0,0-.22.23s-.06.11-.09.15l-.1.2a.86.86,0,0,0,0,.13A1,1,0,0,0,38.53,34.55Z"/><path class="cls-24" d="M38.62,35c0,.06,0,.1.05.08a1.07,1.07,0,0,1,0-.16c0-.08.05-.16.06-.18l0-.37a1.14,1.14,0,0,0,0-.28s0,0-.06.06l-.06.11c0,.05,0,.1-.06.16l0,.27C38.59,34.8,38.61,35,38.62,35Z"/><path class="cls-25" d="M39.77,31.78l.27,0h.21c.06,0,.08,0,.08,0s0,.05,0,0,0,0,0-.05,0-.06-.06-.08l-.2,0h-.27l-.28.05-.25.1a1,1,0,0,0-.2.16.29.29,0,0,0-.06.1.35.35,0,0,1,.06-.08.64.64,0,0,1,.18-.13,1,1,0,0,1,.23-.08Z"/><path class="cls-25" d="M40.73,31.26l.25.09.19.1s.06.06,0,.08,0,0,0,0l.06,0a.07.07,0,0,0,0-.1l-.18-.11-.25-.11a1.34,1.34,0,0,0-.27-.07,1.24,1.24,0,0,0-.27,0,.66.66,0,0,0-.25.05.26.26,0,0,0-.1.07l.09,0a.71.71,0,0,1,.21,0,1.1,1.1,0,0,1,.25,0A1.38,1.38,0,0,1,40.73,31.26Z"/><path class="cls-25" d="M39.13,32.66l.24-.14.19-.08c.06,0,.09,0,.1,0s0,0,0,0a.35.35,0,0,0,0-.07s0,0-.09,0l-.19.07-.24.12a1.43,1.43,0,0,0-.24.16l-.19.18a.75.75,0,0,0-.12.21.34.34,0,0,0,0,.12.43.43,0,0,1,0-.1.48.48,0,0,1,.12-.17.93.93,0,0,1,.18-.16Z"/><path class="cls-25" d="M38.86,33.72l.18-.21.15-.15c.05,0,.09,0,.1,0l0,0a.1.1,0,0,0,0-.07s0,0-.1,0l-.16.14c-.06.05-.12.13-.19.2a1.28,1.28,0,0,0-.17.22,1.59,1.59,0,0,0-.13.22.71.71,0,0,0-.06.23.23.23,0,0,0,0,.12.31.31,0,0,1,0-.1.49.49,0,0,1,.07-.19,1.57,1.57,0,0,1,.12-.21Z"/><path class="cls-22" d="M39,36.29a.33.33,0,0,0,.1.14s0,0,0,0a2.6,2.6,0,0,1,0-.64,1.66,1.66,0,0,1,.17-.49.6.6,0,0,0,0-.27,3.81,3.81,0,0,1-.08-.59.29.29,0,0,0,0-.11s0,0,0,0a2.52,2.52,0,0,0-.3.45,4.2,4.2,0,0,0-.21.6.49.49,0,0,0,0,.23A4.71,4.71,0,0,0,39,36.29Z"/><path class="cls-23" d="M38.75,35.69c0,.05.16.44.18.47a.64.64,0,0,0,.06.1s0,0,0,0,0-.05,0-.08,0-.21,0-.33a1.64,1.64,0,0,1,0-.27v-.15a.59.59,0,0,0,0-.21l0-.09S39,34.83,39,34.8a.22.22,0,0,0,0-.08h0a1.13,1.13,0,0,0-.16.27s0,.12-.06.16,0,.15-.05.22a.55.55,0,0,0,0,.13A.74.74,0,0,0,38.75,35.69Z"/><path class="cls-24" d="M38.93,36.08c0,.06.06.1.07.08A.72.72,0,0,0,39,36c0-.09,0-.17,0-.2l-.11-.35a1.46,1.46,0,0,0-.08-.27s0,0-.05.07a1,1,0,0,0,0,.12.47.47,0,0,0,0,.17,2.73,2.73,0,0,0,.08.27Z"/><path class="cls-22" d="M39.59,37.29a.45.45,0,0,0,.13.1s.06,0,.05,0a2.58,2.58,0,0,1-.12-.63,2,2,0,0,1,.05-.51.72.72,0,0,0-.07-.26,5.2,5.2,0,0,1-.21-.55.23.23,0,0,0-.05-.1s0,0,0,0a3.25,3.25,0,0,0-.18.5,2.58,2.58,0,0,0-.06.64.54.54,0,0,0,.08.22A6.26,6.26,0,0,0,39.59,37.29Z"/><path class="cls-23" d="M39.24,36.76l.3.4a.29.29,0,0,0,.08.08s0,0,.05,0v-.08a2.46,2.46,0,0,1-.06-.33,1.28,1.28,0,0,1,0-.27l0-.15a.71.71,0,0,0-.08-.19l0-.08a3.31,3.31,0,0,1-.15-.33.21.21,0,0,0,0-.07h0a1.27,1.27,0,0,0-.08.31s0,.12,0,.16v.23a.58.58,0,0,0,0,.13A1.08,1.08,0,0,0,39.24,36.76Z"/><path class="cls-24" d="M39.52,37.09s.08.08.09.06a1.63,1.63,0,0,0,0-.18,1.05,1.05,0,0,1,0-.18l-.2-.32a.9.9,0,0,0-.15-.24s0,0,0,.08v.12a1.24,1.24,0,0,0,0,.18l.15.23Z"/><path class="cls-22" d="M40.44,38.09a.44.44,0,0,0,.15.08s0,0,0-.05a4,4,0,0,1-.25-.59,2.55,2.55,0,0,1-.08-.51.57.57,0,0,0-.13-.24,4.14,4.14,0,0,1-.34-.48.2.2,0,0,0-.08-.08s0,0,0,0a2.92,2.92,0,0,0-.05.54,3.14,3.14,0,0,0,.1.63.56.56,0,0,0,.13.18A6.47,6.47,0,0,0,40.44,38.09Z"/><path class="cls-23" d="M40,37.66a3.8,3.8,0,0,0,.37.33.19.19,0,0,0,.1,0h0a.15.15,0,0,0,0-.08c0-.08-.08-.19-.12-.3l-.08-.26-.06-.14a.77.77,0,0,0-.12-.17L40,37a3.45,3.45,0,0,1-.23-.28.17.17,0,0,0-.06-.06s0,0,0,0a1.59,1.59,0,0,0,0,.31l0,.17a1,1,0,0,0,.06.22l.06.11A.49.49,0,0,0,40,37.66Z"/><path class="cls-24" d="M40.32,37.92s.1.06.1,0a1,1,0,0,0-.07-.16l-.08-.17L40,37.36s-.16-.19-.2-.2,0,0,0,.09a.35.35,0,0,0,0,.12.4.4,0,0,0,.06.16l.19.19Z"/><path class="cls-22" d="M41.4,38.72a.41.41,0,0,0,.16.05s0,0,0-.06a2.68,2.68,0,0,1-.34-.54,2.15,2.15,0,0,1-.19-.49.53.53,0,0,0-.18-.2,5.48,5.48,0,0,1-.44-.4l-.1-.06s0,0,0,0a2.88,2.88,0,0,0,.32,1.12.54.54,0,0,0,.15.16Q41.08,38.54,41.4,38.72Z"/><path class="cls-23" d="M40.89,38.37s.39.24.42.26l.1,0s0,0,0,0a.16.16,0,0,0,0-.08l-.16-.27a2.59,2.59,0,0,1-.12-.25l-.09-.12a.65.65,0,0,0-.17-.15l-.07,0-.28-.23s-.05,0-.07,0,0,0,0,0a1.39,1.39,0,0,0,.06.31l.07.15a1.89,1.89,0,0,0,.09.21l.08.09A.61.61,0,0,0,40.89,38.37Z"/><path class="cls-24" d="M41.26,38.57c.06,0,.1,0,.1,0a.56.56,0,0,0-.09-.14l-.11-.16-.3-.2a1.14,1.14,0,0,0-.24-.15s0,0,0,.08l.06.11a.55.55,0,0,0,.09.14l.22.15A1.89,1.89,0,0,1,41.26,38.57Z"/><path class="cls-25" d="M38.89,34.81l.12-.25.11-.19s.07-.06.08,0,0,0,0,0a.26.26,0,0,0,0-.07s-.06,0-.1,0a1.56,1.56,0,0,0-.12.17l-.13.24a1.36,1.36,0,0,0-.11.25.9.9,0,0,0-.08.25.65.65,0,0,0,0,.24.39.39,0,0,0,0,.11s0,0,0-.1a.71.71,0,0,1,0-.2c0-.07.05-.14.08-.22S38.84,34.89,38.89,34.81Z"/><path class="cls-25" d="M39.16,35.86l.06-.27c0-.07.05-.15.07-.2s.05-.07.07-.06,0,0,0,0l0-.06s-.07,0-.09.05a.68.68,0,0,0-.08.19c0,.08,0,.17-.08.26s0,.19,0,.28a1.13,1.13,0,0,0,0,.26.59.59,0,0,0,.05.23c0,.08.06.11.06.1a.44.44,0,0,1,0-.09,1,1,0,0,1,0-.2,2.09,2.09,0,0,1,0-.24C39.11,36.05,39.14,36,39.16,35.86Z"/><path class="cls-25" d="M39.68,36.82v-.28a1.34,1.34,0,0,1,0-.21c0-.06,0-.08.05-.08s0,0,0,0l-.06,0s-.06,0-.08.06l0,.21v.27a2.64,2.64,0,0,0,0,.28,2,2,0,0,0,0,.26.7.7,0,0,0,.11.21.24.24,0,0,0,.08.08s0,0-.06-.08a.75.75,0,0,1-.08-.18,1.57,1.57,0,0,1,0-.23A2.64,2.64,0,0,1,39.68,36.82Z"/><path class="cls-25" d="M40.42,37.62l-.07-.27c0-.08,0-.15,0-.21s0-.09,0-.09.06,0,0,0l-.06,0s-.06,0-.06.08a1.83,1.83,0,0,0,0,.21l.06.27c0,.09.06.18.09.27a.67.67,0,0,0,.1.23.62.62,0,0,0,.14.18c.06.06.1.07.09.06a.18.18,0,0,1-.07-.06.5.5,0,0,1-.11-.16.91.91,0,0,1-.09-.22A2,2,0,0,1,40.42,37.62Z"/><path class="cls-22" d="M42.42,39.2a.25.25,0,0,0,.16,0s.05,0,0,0a3.26,3.26,0,0,1-.39-.5,2.34,2.34,0,0,1-.25-.46.71.71,0,0,0-.22-.18,5.58,5.58,0,0,1-.52-.32.3.3,0,0,0-.11,0s0,0,0,0a2.64,2.64,0,0,0,.19.51,3.44,3.44,0,0,0,.31.55.56.56,0,0,0,.18.13Z"/><path class="cls-23" d="M41.88,38.92s.41.19.43.2l.11,0s0,0,0,0a.61.61,0,0,0,0-.06l-.2-.26-.15-.22-.1-.12a1.28,1.28,0,0,0-.19-.12l-.08,0-.31-.18-.08,0s0,0,0,0a1.38,1.38,0,0,0,.12.29l.08.15a2,2,0,0,0,.13.18l.09.09Z"/><path class="cls-24" d="M42.27,39.07c.06,0,.1,0,.09,0l-.1-.13-.12-.14a3.36,3.36,0,0,0-.33-.16,1.44,1.44,0,0,0-.26-.12s0,0,0,.08a.53.53,0,0,0,.07.1.63.63,0,0,0,.11.13L42,39Z"/><path class="cls-22" d="M43.46,39.59a.33.33,0,0,0,.16,0s.05,0,0-.06a4.62,4.62,0,0,1-.44-.46,4.73,4.73,0,0,1-.29-.44.71.71,0,0,0-.24-.16l-.56-.25a.17.17,0,0,0-.11,0s0,0,0,0a4.44,4.44,0,0,0,.25.48,4.92,4.92,0,0,0,.37.5.62.62,0,0,0,.19.12Z"/><path class="cls-23" d="M42.91,39.36l.45.16.1,0s0,0,0,0a.23.23,0,0,0,0-.07l-.21-.24a1.42,1.42,0,0,1-.17-.21L43,38.9a.75.75,0,0,0-.2-.1l-.08,0-.34-.14-.08,0s0,0,0,0a1.64,1.64,0,0,0,.16.28l.09.13.15.17.1.08A.59.59,0,0,0,42.91,39.36Z"/><path class="cls-24" d="M43.3,39.47c.07,0,.11,0,.1,0s0-.07-.11-.13l-.13-.13-.34-.13a1.41,1.41,0,0,0-.27-.09s0,0,0,.08a.37.37,0,0,0,.09.09.41.41,0,0,0,.11.12l.25.09Z"/><path class="cls-22" d="M44.52,39.91a.29.29,0,0,0,.15,0s0,0,0-.06a3.79,3.79,0,0,1-.45-.44,5,5,0,0,1-.33-.42.58.58,0,0,0-.24-.15,5.89,5.89,0,0,1-.59-.21l-.12,0s0,0,0,0a3.21,3.21,0,0,0,.29.46,4.3,4.3,0,0,0,.41.47.41.41,0,0,0,.19.11Z"/><path class="cls-23" d="M44,39.71l.45.14a.22.22,0,0,0,.11,0s0,0,0,0l-.05-.06a2.28,2.28,0,0,0-.22-.23l-.18-.2-.12-.1-.2-.09-.09,0L43.35,39l-.08,0s0,0,0,0a1,1,0,0,0,.17.27l.11.12a1.14,1.14,0,0,0,.15.16l.1.07Z"/><path class="cls-24" d="M44.36,39.8c.06,0,.1,0,.09,0l-.12-.11a1.49,1.49,0,0,1-.13-.13l-.35-.11a1.08,1.08,0,0,0-.27-.07s0,0,0,.07l.08.09a.75.75,0,0,0,.13.11l.25.08Z"/><path class="cls-22" d="M45.57,40.21a.46.46,0,0,0,.16,0s0,0,0-.06a4.92,4.92,0,0,1-.46-.43,3,3,0,0,1-.33-.42.58.58,0,0,0-.25-.13L44.09,39A.26.26,0,0,0,44,39s0,0,0,.05a5.36,5.36,0,0,0,.32.44,4.32,4.32,0,0,0,.42.45.42.42,0,0,0,.2.1Z"/><path class="cls-23" d="M45,40l.45.13h.11s0,0,0,0a.23.23,0,0,0,0-.07l-.22-.22a1.65,1.65,0,0,1-.19-.2L45,39.56l-.2-.09-.09,0-.36-.1h-.09s0,0,0,0a1.22,1.22,0,0,0,.18.26l.11.12.16.15.11.07Z"/><path class="cls-24" d="M45.41,40.1c.06,0,.1,0,.09,0a.62.62,0,0,0-.12-.12.83.83,0,0,1-.13-.12l-.35-.1a1.77,1.77,0,0,0-.28-.06s0,0,.05.07l.09.09a.44.44,0,0,0,.12.11l.25.06Z"/><path class="cls-25" d="M42.28,38.75l-.15-.23L42,38.33c0-.06,0-.09,0-.1h0s0,0,0,.1l.1.19.14.23c0,.09.1.16.15.24a1,1,0,0,0,.16.19.49.49,0,0,0,.18.14.2.2,0,0,0,.1,0l-.09,0a.79.79,0,0,1-.14-.13,1.89,1.89,0,0,1-.14-.19Z"/><path class="cls-25" d="M41.31,38.26,41.19,38l-.08-.2s0-.09,0-.09,0,0,0,0a.09.09,0,0,0-.07,0s-.05,0,0,.08a1,1,0,0,0,.07.2l.1.25a2.1,2.1,0,0,0,.13.26,2.39,2.39,0,0,0,.13.21.85.85,0,0,0,.17.16l.1,0-.08,0a.64.64,0,0,1-.13-.15,1,1,0,0,1-.12-.2Z"/><path class="cls-25" d="M43.29,39.16c0-.08-.12-.16-.17-.23L43,38.75s0-.08,0-.09l0,0H43s0,0,0,.1l.11.18.16.22.17.22a1.49,1.49,0,0,0,.17.18.59.59,0,0,0,.19.13c.06,0,.1,0,.1,0l-.09,0a.79.79,0,0,1-.15-.12,1.41,1.41,0,0,1-.14-.18Z"/><path class="cls-25" d="M44.33,39.49c-.06-.08-.13-.15-.18-.21L44,39.1S44,39,44,39s0,0,0,0A.1.1,0,0,0,44,39s0,0,0,.09a1.36,1.36,0,0,0,.12.17l.18.22a1.81,1.81,0,0,0,.18.21,1,1,0,0,0,.17.18.76.76,0,0,0,.19.12c.06,0,.11,0,.11,0a.19.19,0,0,1-.1,0,.6.6,0,0,1-.14-.11,1.29,1.29,0,0,1-.16-.17Z"/><path class="cls-22" d="M46.6,40.5a.32.32,0,0,0,.16,0s0,0,0-.06-.31-.3-.44-.45A3,3,0,0,1,46,39.6a.63.63,0,0,0-.26-.13l-.62-.17H45s0,0,0,0a4.34,4.34,0,0,0,.34.44c.12.14.27.29.42.44a.43.43,0,0,0,.19.1Z"/><path class="cls-23" d="M46.06,40.31l.44.13.1,0,0,0a.13.13,0,0,0,0-.06c-.05-.07-.14-.15-.21-.23a1.7,1.7,0,0,1-.19-.2l-.12-.09a.71.71,0,0,0-.21-.08l-.09,0-.36-.1h-.08s0,0,0,0a1.84,1.84,0,0,0,.19.25l.11.12.16.15.11.06A.48.48,0,0,0,46.06,40.31Z"/><path class="cls-24" d="M46.45,40.39c.06,0,.1,0,.09,0a.51.51,0,0,0-.11-.11l-.14-.13L46,40a1.22,1.22,0,0,0-.27-.06s0,0,0,.08a.38.38,0,0,1,.09.08s.07.08.13.1l.24.07Z"/><path class="cls-22" d="M47.6,40.86l.15,0s0,0,0-.06-.28-.33-.39-.48-.23-.3-.32-.43a.52.52,0,0,0-.26-.14l-.62-.19a.31.31,0,0,0-.13,0s0,0,0,0,.21.29.33.44l.41.45a.43.43,0,0,0,.18.11C47.18,40.69,47.39,40.77,47.6,40.86Z"/><path class="cls-23" d="M47.08,40.63l.42.15.1,0s0,0,0,0l0-.07c0-.07-.13-.15-.2-.24l-.17-.21-.12-.1a.56.56,0,0,0-.19-.1l-.1,0-.35-.1s-.07,0-.09,0,0,0,0,0a1.65,1.65,0,0,0,.19.25l.1.12.15.16.1.06A.48.48,0,0,0,47.08,40.63Z"/><path class="cls-24" d="M47.45,40.73c.06,0,.1,0,.1,0a.82.82,0,0,0-.11-.12l-.12-.14c-.11,0-.23-.08-.34-.12a1,1,0,0,0-.26-.07s0,0,0,.08l.09.08a.57.57,0,0,0,.11.11l.24.09Z"/><path class="cls-22" d="M48.56,41.29a.41.41,0,0,0,.16.05s0,0,0-.06l-.36-.51a4.56,4.56,0,0,1-.27-.46.63.63,0,0,0-.25-.16l-.62-.23a.2.2,0,0,0-.12,0s0,0,0,0a5.31,5.31,0,0,0,.31.46c.11.15.23.32.37.49A.53.53,0,0,0,48,41Z"/><path class="cls-23" d="M48.06,41l.41.19.1,0s0,0,0,0l0-.07-.18-.26-.16-.23-.1-.1a.62.62,0,0,0-.2-.11l-.09,0-.34-.14h-.09s0,0,0,0a1.19,1.19,0,0,0,.17.27l.09.13a2.09,2.09,0,0,0,.14.17s0,0,.09.07A.43.43,0,0,0,48.06,41Z"/><path class="cls-24" d="M48.43,41.16s.1,0,.09,0a.42.42,0,0,0-.09-.14l-.12-.14a2.3,2.3,0,0,0-.32-.15.81.81,0,0,0-.26-.09s0,0,0,.07.06.08.07.1.07.09.11.12l.23.1Z"/><path class="cls-22" d="M49.5,41.8a.33.33,0,0,0,.15.05s0,0,0-.05c-.13-.19-.23-.37-.33-.54s-.17-.32-.24-.48a.57.57,0,0,0-.23-.17c-.2-.1-.4-.2-.6-.28s-.09,0-.12,0,0,0,0,0l.28.48c.1.16.21.34.33.51a.4.4,0,0,0,.17.13Z"/><path class="cls-23" d="M49,41.49l.4.22.1,0h0a.25.25,0,0,0,0-.07l-.16-.28a1.58,1.58,0,0,1-.14-.23l-.1-.12a.63.63,0,0,0-.18-.12l-.09-.05-.33-.16-.09,0s0,0,0,0a1.46,1.46,0,0,0,.14.28l.09.14.12.18.09.08Z"/><path class="cls-24" d="M49.37,41.65c.06,0,.1.05.09,0a.43.43,0,0,0-.08-.15,1.26,1.26,0,0,1-.1-.15L49,41.2a.77.77,0,0,0-.25-.11s0,0,0,.08a.43.43,0,0,0,.07.1.77.77,0,0,0,.09.13l.22.11Z"/><path class="cls-25" d="M45.38,39.79a2,2,0,0,0-.19-.21l-.14-.17s0-.08,0-.1,0,0,0,0H45s0,.05,0,.1.08.1.12.17l.18.21.19.21.17.17a1,1,0,0,0,.19.12.3.3,0,0,0,.1,0s0,0-.08,0a.48.48,0,0,1-.15-.11,1.33,1.33,0,0,1-.16-.17A1.63,1.63,0,0,1,45.38,39.79Z"/><path class="cls-25" d="M46.42,40.08l-.18-.21-.15-.17c0-.05,0-.08,0-.1h0s0,0-.08,0,0,0,0,.1l.12.17.18.21.18.21a1,1,0,0,0,.17.18,1.09,1.09,0,0,0,.17.13l.1,0-.08,0-.14-.12-.15-.17Z"/><path class="cls-25" d="M47.45,40.42a1.84,1.84,0,0,0-.17-.22L47.15,40c0-.05,0-.09,0-.1s.06,0,0,0h-.07s0,.05,0,.1.07.11.12.17l.16.23c.05.08.11.15.16.22l.15.19a1,1,0,0,0,.17.14.25.25,0,0,0,.09,0l-.07,0a.8.8,0,0,1-.13-.13l-.14-.19Z"/><path class="cls-25" d="M48.45,40.84a1.82,1.82,0,0,0-.15-.23l-.12-.19c0-.05,0-.09,0-.1s.06,0,0,0h-.07s0,.05,0,.1l.11.19c0,.07.1.15.14.23a2.52,2.52,0,0,0,.15.24l.13.2a.56.56,0,0,0,.16.15.18.18,0,0,0,.1.05.19.19,0,0,1-.08-.05.33.33,0,0,1-.12-.14.88.88,0,0,1-.12-.19Z"/><path class="cls-22" d="M50.4,42.36a.24.24,0,0,0,.14.06s.05,0,0,0c-.1-.2-.2-.38-.28-.56a4.8,4.8,0,0,1-.21-.49.55.55,0,0,0-.22-.2c-.19-.11-.38-.22-.58-.32a.19.19,0,0,0-.12,0s0,0,0,0,.15.33.23.5.19.35.3.54a.41.41,0,0,0,.15.14Z"/><path class="cls-23" d="M49.93,42l.39.25.09,0h.05a.45.45,0,0,1,0-.08L50.29,42c0-.09-.09-.18-.12-.24l-.09-.12a.49.49,0,0,0-.17-.14l-.09-.05-.31-.19-.09,0s0,0,0,0a2.21,2.21,0,0,0,.13.29.64.64,0,0,0,.08.14l.11.19a.29.29,0,0,0,.08.08A.47.47,0,0,0,49.93,42Z"/><path class="cls-24" d="M50.28,42.21s.09,0,.09,0a.56.56,0,0,0-.07-.14l-.1-.17-.3-.19c-.06,0-.2-.13-.24-.12s0,0,0,.08l.06.1a1,1,0,0,0,.09.13l.22.14Z"/><path class="cls-22" d="M51.26,43a.37.37,0,0,0,.14.07s.05,0,0-.05c-.09-.2-.18-.39-.25-.57a5,5,0,0,1-.17-.5.7.7,0,0,0-.21-.22l-.55-.35a.28.28,0,0,0-.12,0s0,0,0,0,.13.34.21.51.16.36.26.56a.47.47,0,0,0,.14.15C50.9,42.71,51.08,42.85,51.26,43Z"/><path class="cls-23" d="M50.82,42.62l.36.27a.21.21,0,0,0,.09,0s0,0,0,0a.28.28,0,0,0,0-.08c0-.08-.09-.19-.13-.29a2.16,2.16,0,0,1-.1-.25L51,42.19a.59.59,0,0,0-.16-.15l-.08,0-.31-.2a.2.2,0,0,0-.08,0s0,0,0,0a2.63,2.63,0,0,0,.1.3l.07.15.1.19.08.09A.51.51,0,0,0,50.82,42.62Z"/><path class="cls-24" d="M51.15,42.83c.05,0,.09.05.09,0l-.06-.15a.74.74,0,0,1-.08-.16l-.3-.21a.9.9,0,0,0-.23-.15s0,0,0,.09l.06.1a.5.5,0,0,0,.08.14l.2.15Z"/><path class="cls-22" d="M52.08,43.67a.38.38,0,0,0,.13.08s0,0,0,0c-.08-.2-.15-.4-.21-.58s-.11-.36-.15-.52a.52.52,0,0,0-.19-.22,6.55,6.55,0,0,0-.53-.39.24.24,0,0,0-.11-.06s0,0,0,0,.1.34.17.52a6,6,0,0,0,.22.57.59.59,0,0,0,.13.17Z"/><path class="cls-23" d="M51.66,43.27l.35.3a.2.2,0,0,0,.09,0s0,0,0,0a.28.28,0,0,0,0-.08c0-.08-.07-.19-.1-.29s-.07-.2-.09-.26l-.08-.13a.55.55,0,0,0-.15-.16l-.07-.06-.3-.23-.08,0s0,0,0,0a2.54,2.54,0,0,0,.09.31l.05.15.09.2.07.1Z"/><path class="cls-24" d="M52,43.5c.05,0,.09.06.09,0L52,43.38l-.07-.17a3,3,0,0,0-.27-.23c-.06,0-.19-.16-.23-.16s0,0,0,.08l0,.11a.66.66,0,0,0,.07.15l.19.16Z"/><path class="cls-22" d="M52.85,44.4a.38.38,0,0,0,.13.08s.05,0,0,0c-.07-.21-.12-.41-.18-.6s-.08-.36-.1-.52a.52.52,0,0,0-.18-.23c-.17-.15-.33-.29-.51-.43a.27.27,0,0,0-.1-.06s0,0,0,0c0,.18.09.35.14.54a5.57,5.57,0,0,0,.19.58.33.33,0,0,0,.12.17Z"/><path class="cls-23" d="M52.46,44l.33.31a.35.35,0,0,0,.09.06s0,0,0,0v-.07c0-.09-.06-.2-.09-.31l-.08-.26-.06-.14a.67.67,0,0,0-.14-.16l-.08-.07a3.48,3.48,0,0,0-.28-.24l-.07-.05s0,0,0,0a2.1,2.1,0,0,0,.06.31,1,1,0,0,1,.05.16c0,.06,0,.13.08.2a.28.28,0,0,0,.06.1A.6.6,0,0,0,52.46,44Z"/><path class="cls-24" d="M52.77,44.22s.08.07.08,0,0-.08,0-.16a.88.88,0,0,1-.06-.17,3.2,3.2,0,0,0-.27-.25,1,1,0,0,0-.21-.17s0,0,0,.09l0,.11a.53.53,0,0,0,0,.15l.2.17Z"/><path class="cls-25" d="M50.34,41.9a1.36,1.36,0,0,0-.11-.25l-.09-.21s0-.08,0-.09h0s0,0,0,.09l.08.2a2.72,2.72,0,0,1,.11.25c0,.09.07.18.11.26l.11.22a1.09,1.09,0,0,0,.13.17l.09,0a.21.21,0,0,1-.07,0,.62.62,0,0,1-.1-.16,1.21,1.21,0,0,1-.09-.2Z"/><path class="cls-25" d="M49.42,41.34a1.88,1.88,0,0,0-.14-.24l-.1-.2c0-.06,0-.09,0-.1h0s0,0,0,.1a1.72,1.72,0,0,1,.09.19l.13.24c0,.09.09.17.13.25a1.05,1.05,0,0,0,.12.21.61.61,0,0,0,.15.17l.08.05s0,0-.07-.06a.57.57,0,0,1-.11-.14,2.09,2.09,0,0,1-.1-.21Z"/><path class="cls-25" d="M51.24,42.53c0-.09-.07-.19-.1-.26l-.08-.22s0-.09,0-.09h0l-.07,0S51,42,51,42a1.08,1.08,0,0,0,.06.2,2,2,0,0,1,.09.26,2,2,0,0,0,.1.26l.09.23a1.13,1.13,0,0,0,.12.18.22.22,0,0,0,.09.06.22.22,0,0,1-.07-.06,1,1,0,0,1-.16-.38Z"/><path class="cls-25" d="M52.09,43.21,52,42.94l-.06-.22c0-.06,0-.09,0-.09a.08.08,0,0,1,0,0s0,0-.07,0-.06,0,0,.08,0,.13,0,.21.05.17.07.26.05.19.08.27,0,.16.08.23a1.6,1.6,0,0,0,.11.19l.08.07s0,0-.06-.07a.6.6,0,0,1-.08-.16c0-.07,0-.14-.07-.22Z"/><path class="cls-22" d="M53.58,45.17s.09.09.12.09,0,0,0,0c0-.22-.11-.42-.14-.61s-.06-.37-.08-.53a.57.57,0,0,0-.16-.25l-.47-.45a.28.28,0,0,0-.11-.07s0,0,0,0c0,.18.06.36.11.55s.09.38.15.59a.4.4,0,0,0,.11.18C53.28,44.83,53.43,45,53.58,45.17Z"/><path class="cls-23" d="M53.22,44.73l.31.33.08.07s0,0,0,0v-.07c0-.09,0-.2-.07-.31s0-.2,0-.27l-.06-.14a.62.62,0,0,0-.13-.18l-.07-.06a3.31,3.31,0,0,0-.27-.26.1.1,0,0,0-.07-.05h0a2.3,2.3,0,0,0,.05.32c0,.05,0,.11,0,.15a1.66,1.66,0,0,0,.06.21.25.25,0,0,0,0,.11A.92.92,0,0,0,53.22,44.73Z"/><path class="cls-24" d="M53.51,45s.07.07.08,0a1.17,1.17,0,0,0,0-.16,1.71,1.71,0,0,0,0-.18,3,3,0,0,0-.24-.26s-.16-.18-.2-.19,0,0,0,.09a.66.66,0,0,0,0,.11.53.53,0,0,0,0,.15l.18.19Z"/><path class="cls-22" d="M54.26,46l.11.11s.06,0,.05,0c0-.22-.08-.42-.1-.62s0-.37,0-.53a.59.59,0,0,0-.15-.26l-.44-.48a.22.22,0,0,0-.1-.07s-.05,0,0,0a5.52,5.52,0,0,0,.07.55,4.93,4.93,0,0,0,.11.61.37.37,0,0,0,.1.18Z"/><path class="cls-23" d="M53.92,45.53l.29.35.07.07s0,0,0,0a.21.21,0,0,0,0-.08,2.19,2.19,0,0,0,0-.31c0-.1,0-.2,0-.27l0-.14a.67.67,0,0,0-.12-.19L54,44.9l-.25-.28-.07,0s0,0,0,0a2,2,0,0,0,0,.31l0,.16a2.09,2.09,0,0,0,.05.21.31.31,0,0,0,0,.11A.65.65,0,0,0,53.92,45.53Z"/><path class="cls-24" d="M54.2,45.81s.06.08.07,0a.6.6,0,0,0,0-.16,1.3,1.3,0,0,1,0-.19,2.76,2.76,0,0,0-.23-.27c0-.05-.15-.19-.19-.2s0,0,0,.08,0,.1,0,.12,0,.1,0,.16l.17.19Z"/><path class="cls-22" d="M54.89,46.86A.29.29,0,0,0,55,47s0,0,0,0a4.9,4.9,0,0,1-.07-.62,3.18,3.18,0,0,1,0-.53.72.72,0,0,0-.13-.27L54.43,45a.31.31,0,0,0-.1-.08s0,0,0,0,0,.35,0,.55,0,.39.08.61a.35.35,0,0,0,.09.19Z"/><path class="cls-23" d="M54.57,46.37l.27.37s0,.07.08.08,0,0,0,0a.21.21,0,0,0,0-.08,1.89,1.89,0,0,0,0-.31c0-.11,0-.2,0-.28l0-.14a.53.53,0,0,0-.1-.2l-.06-.07-.23-.3s0-.05-.07-.05,0,0,0,0a1.79,1.79,0,0,0,0,.32c0,.05,0,.11,0,.16a1.3,1.3,0,0,0,0,.21.37.37,0,0,0,0,.11A.59.59,0,0,0,54.57,46.37Z"/><path class="cls-24" d="M54.83,46.67s.07.08.08.06a.71.71,0,0,0,0-.17c0-.07,0-.15,0-.18s-.14-.2-.21-.3-.13-.19-.18-.2,0,0,0,.08l0,.11a1.22,1.22,0,0,0,0,.17l.15.2Z"/><path class="cls-22" d="M55.5,47.75s.08.1.11.11,0,0,0,0c0-.23,0-.43-.06-.63a4.68,4.68,0,0,1,0-.53.47.47,0,0,0-.11-.26l-.38-.53s-.06-.08-.09-.09,0,0,0,0,0,.35,0,.55,0,.4.06.61a.35.35,0,0,0,.08.2Z"/><path class="cls-23" d="M55.2,47.25l.26.38a.3.3,0,0,0,.07.08s0,0,0,0v-.07a1.91,1.91,0,0,0,0-.32c0-.11,0-.21,0-.28l0-.14a.53.53,0,0,0-.1-.2l0-.08s-.19-.27-.21-.3l-.07-.06s0,0,0,0a1,1,0,0,0,0,.31.76.76,0,0,0,0,.16,1.64,1.64,0,0,0,0,.22.51.51,0,0,0,0,.11A.65.65,0,0,0,55.2,47.25Z"/><path class="cls-24" d="M55.45,47.56s.06.09.07.06a.55.55,0,0,0,0-.17c0-.08,0-.16,0-.18l-.21-.3a1.4,1.4,0,0,0-.17-.22s0,0,0,.08a.83.83,0,0,1,0,.13.44.44,0,0,0,0,.15l.15.22Z"/><path class="cls-25" d="M52.89,43.94c0-.1,0-.19-.06-.28l-.06-.21c0-.06,0-.09,0-.1h.05a.19.19,0,0,0-.08,0s-.05,0-.05.09,0,.13,0,.21a2.14,2.14,0,0,1,.06.27l.06.27a1.68,1.68,0,0,0,.07.24.44.44,0,0,0,.1.19c0,.06.07.08.07.07a.23.23,0,0,1-.06-.07,1,1,0,0,1-.07-.17c0-.07,0-.14-.05-.22Z"/><path class="cls-25" d="M53.65,44.71c0-.09,0-.19,0-.27l0-.22c0-.06,0-.09,0-.1h0a.11.11,0,0,0-.07,0s-.06,0-.06.08,0,.13,0,.21,0,.18,0,.27,0,.19,0,.28,0,.16.05.24a1.21,1.21,0,0,0,.09.2c0,.06.07.08.07.07l0-.07a.43.43,0,0,1-.06-.17c0-.07,0-.15,0-.23Z"/><path class="cls-25" d="M54.35,45.54a1.33,1.33,0,0,0,0-.28l0-.22c0-.06,0-.09,0-.09h0l-.07,0s-.07,0-.07.08,0,.13,0,.21a2.4,2.4,0,0,1,0,.28,2.48,2.48,0,0,0,0,.27.88.88,0,0,0,0,.24.49.49,0,0,0,.08.21.21.21,0,0,0,.06.08.26.26,0,0,1-.05-.08.84.84,0,0,1,0-.17,1.64,1.64,0,0,1,0-.23Z"/><path class="cls-25" d="M55,46.41c0-.09,0-.19,0-.28v-.22c0-.06,0-.09.05-.09s0,0,0,0a.19.19,0,0,0-.06,0s-.07,0-.07.07a1.6,1.6,0,0,0,0,.22c0,.08,0,.18,0,.27a2.61,2.61,0,0,0,0,.28,1.57,1.57,0,0,0,0,.24.52.52,0,0,0,.07.22.21.21,0,0,0,.06.08l0-.08a.8.8,0,0,1,0-.18,1.62,1.62,0,0,1,0-.23Z"/><path class="cls-22" d="M56.1,48.65a.19.19,0,0,0,.11.11s0,0,0,0a4.7,4.7,0,0,1,0-.63,4.6,4.6,0,0,1,0-.53.54.54,0,0,0-.11-.26l-.36-.54a.75.75,0,0,0-.09-.09s0,0,0,0a4.79,4.79,0,0,0,0,.55,4.35,4.35,0,0,0,0,.61.48.48,0,0,0,.07.2Z"/><path class="cls-23" d="M55.8,48.15l.26.38a.19.19,0,0,0,.07.08s0,0,0,0,0,0,0-.08,0-.2,0-.31,0-.2,0-.27l0-.15a.75.75,0,0,0-.1-.2L56,47.53s-.18-.28-.2-.3,0-.06-.07-.06,0,0,0,0a2.85,2.85,0,0,0,0,.31,1,1,0,0,1,0,.17,1.36,1.36,0,0,1,0,.21l0,.12Z"/><path class="cls-24" d="M56.05,48.46s.07.08.08.06,0-.09,0-.17a1.55,1.55,0,0,0,0-.18,3.13,3.13,0,0,0-.2-.3c0-.06-.12-.21-.16-.22s0,0,0,.08,0,.1,0,.12a1.1,1.1,0,0,0,0,.16l.14.21Z"/><path class="cls-22" d="M56.68,49.56s.08.1.11.11.05,0,.05,0c0-.22,0-.43,0-.62a4.22,4.22,0,0,1,0-.53.59.59,0,0,0-.11-.27l-.36-.54a.38.38,0,0,0-.08-.09s-.05,0-.05,0c0,.17,0,.36,0,.55a4.42,4.42,0,0,0,0,.62.48.48,0,0,0,.08.2Z"/><path class="cls-23" d="M56.4,49.05l.25.39a.19.19,0,0,0,.07.08s0,0,0,0a.15.15,0,0,0,0-.07c0-.09,0-.21,0-.32v-.27l0-.15a.92.92,0,0,0-.1-.2l0-.08-.2-.31-.07-.06s0,0,0,0a1.57,1.57,0,0,0,0,.32v.16a1.5,1.5,0,0,1,0,.22l0,.11A.48.48,0,0,0,56.4,49.05Z"/><path class="cls-24" d="M56.64,49.37c0,.05.06.09.08.06s0-.09,0-.17a1.55,1.55,0,0,0,0-.18c0-.1-.13-.21-.19-.31s-.12-.21-.16-.22,0,0,0,.08,0,.1,0,.12a.88.88,0,0,0,0,.16l.14.22Z"/><path class="cls-22" d="M57.26,50.48a.42.42,0,0,0,.1.12s.06,0,.06,0a4.84,4.84,0,0,1,0-.63,4.33,4.33,0,0,1,0-.53.68.68,0,0,0-.1-.28L57,48.59a.38.38,0,0,0-.08-.09s-.05,0-.05,0l0,.55c0,.2,0,.4,0,.62a.4.4,0,0,0,.07.2Z"/><path class="cls-23" d="M57,50l.24.39a.3.3,0,0,0,.07.08s0,0,0,0a.14.14,0,0,0,0-.07c0-.09,0-.21,0-.32v-.27l0-.15a.83.83,0,0,0-.09-.2l-.05-.08-.2-.31s0-.06-.06-.07,0,0,0,0a2.88,2.88,0,0,0,0,.32v.16a1.64,1.64,0,0,0,0,.22.49.49,0,0,0,0,.12A.59.59,0,0,0,57,50Z"/><path class="cls-24" d="M57.21,50.29c0,.05.07.09.08.06a.55.55,0,0,0,0-.17c0-.07,0-.16,0-.18a2,2,0,0,0-.19-.31,1,1,0,0,0-.16-.23s0,0,0,.09a.49.49,0,0,1,0,.11c0,.05,0,.11,0,.17l.14.21Z"/><path class="cls-22" d="M57.82,51.4a.32.32,0,0,0,.1.12s0,0,0,0c0-.23,0-.44,0-.63a4.24,4.24,0,0,1,0-.53.68.68,0,0,0-.1-.28l-.34-.55a.38.38,0,0,0-.09-.09s0,0,0,0c0,.18,0,.36,0,.55a4.34,4.34,0,0,0,0,.62.37.37,0,0,0,.07.2Z"/><path class="cls-23" d="M57.54,50.89l.24.4.07.08s0,0,0,0,0,0,0-.07,0-.21,0-.32v-.28l0-.14a.53.53,0,0,0-.09-.21l-.05-.08L57.54,50a.46.46,0,0,0-.07-.07l0,0c0,.08,0,.19,0,.31a.76.76,0,0,0,0,.16,1.62,1.62,0,0,0,0,.22.41.41,0,0,0,0,.12A1,1,0,0,0,57.54,50.89Z"/><path class="cls-24" d="M57.78,51.22c0,.05.06.08.07.06a.55.55,0,0,0,0-.17c0-.08,0-.16,0-.19s-.12-.21-.18-.31-.12-.21-.16-.22,0,0,0,.08v.12a1,1,0,0,0,0,.16l.14.22Z"/><path class="cls-25" d="M56.23,48.21V47.7c0-.06,0-.08.05-.08h0a.11.11,0,0,0-.06,0s-.06,0-.07.07a1.34,1.34,0,0,0,0,.21,2.44,2.44,0,0,1,0,.27v.28c0,.09,0,.17,0,.25a.65.65,0,0,0,.06.21.21.21,0,0,0,.06.09s0,0,0-.08a.8.8,0,0,1,0-.18.88.88,0,0,1,0-.23Z"/><path class="cls-25" d="M55.62,47.3a2.62,2.62,0,0,0,0-.28V46.8c0-.06,0-.09,0-.08s.05,0,.05,0l-.06,0s-.07,0-.08.07v.76c0,.09,0,.17,0,.25a.74.74,0,0,0,.07.21.37.37,0,0,0,.06.09.56.56,0,0,1,0-.08.53.53,0,0,1,0-.19,1.62,1.62,0,0,1,0-.23Z"/><path class="cls-25" d="M56.82,49.12c0-.1,0-.2,0-.28v-.22c0-.06,0-.09.05-.09l0,0a.1.1,0,0,0-.07,0s-.06,0-.07.07,0,.13,0,.21v.27c0,.1,0,.2,0,.28a2,2,0,0,0,0,.25,1.42,1.42,0,0,0,0,.22.22.22,0,0,0,.06.08s0,0,0-.08a.48.48,0,0,1,0-.18.88.88,0,0,1,0-.23Z"/><path class="cls-25" d="M57.4,50c0-.1,0-.2,0-.28v-.22c0-.06,0-.09,0-.09l0,0-.06,0s-.07,0-.07.07a1.25,1.25,0,0,0,0,.21,2.72,2.72,0,0,1,0,.28,2.53,2.53,0,0,0,0,.27,2,2,0,0,0,0,.25,1.08,1.08,0,0,0,0,.21c0,.07.06.1.06.09a.48.48,0,0,1,0-.08.48.48,0,0,1,0-.18.88.88,0,0,1,0-.23A2.44,2.44,0,0,1,57.4,50Z"/><path class="cls-22" d="M58.36,52.34a.69.69,0,0,0,.1.12s.06,0,.06,0c0-.23,0-.43,0-.63a4.34,4.34,0,0,1,0-.53.77.77,0,0,0-.09-.27l-.34-.56L58,50.35s0,0,0,0a4.87,4.87,0,0,0-.06.55,4.34,4.34,0,0,0,0,.62.37.37,0,0,0,.06.2Z"/><path class="cls-23" d="M58.09,51.82l.24.4a.19.19,0,0,0,.07.08s0,0,0,0a.45.45,0,0,0,0-.08c0-.08,0-.2,0-.31a2.27,2.27,0,0,1,0-.28l0-.15a.56.56,0,0,0-.09-.2l-.05-.08-.19-.32a.17.17,0,0,0-.06-.06s0,0,0,0a1.51,1.51,0,0,0,0,.32v.16a1.62,1.62,0,0,0,0,.22.35.35,0,0,0,0,.12A.82.82,0,0,0,58.09,51.82Z"/><path class="cls-24" d="M58.33,52.15c0,.05.05.09.07.06a.87.87,0,0,0,0-.17c0-.08,0-.16,0-.18s-.12-.22-.18-.32-.11-.21-.15-.22,0,0,0,.08a.47.47,0,0,0,0,.12,1.15,1.15,0,0,0,0,.16l.13.22Z"/><path class="cls-22" d="M58.9,53.29a.29.29,0,0,0,.1.12s0,0,0,0c0-.23,0-.44,0-.63a4.08,4.08,0,0,1,.06-.53.56.56,0,0,0-.1-.28l-.32-.56-.08-.09s0,0,0,0a4.63,4.63,0,0,0-.06.55,4.07,4.07,0,0,0,0,.61.52.52,0,0,0,.06.21Z"/><path class="cls-23" d="M58.64,52.76l.22.4.07.09s0,0,0,0a.54.54,0,0,0,0-.08v-.31a2,2,0,0,1,0-.27l0-.16a1.59,1.59,0,0,0-.09-.2l0-.08-.19-.32a.22.22,0,0,0-.06-.07h0a1.51,1.51,0,0,0,0,.32.86.86,0,0,0,0,.16.81.81,0,0,0,0,.22.41.41,0,0,0,0,.12A.52.52,0,0,0,58.64,52.76Z"/><path class="cls-24" d="M58.86,53.09s.06.09.07.06a.4.4,0,0,0,0-.16c0-.08,0-.16,0-.19s-.12-.21-.18-.31a1.27,1.27,0,0,0-.14-.24s0,0,0,.08a.49.49,0,0,0,0,.13.46.46,0,0,0,0,.16l.13.22Z"/><path class="cls-22" d="M59.42,54.23a.24.24,0,0,0,.09.12s.05,0,.06,0q0-.34,0-.63a4.08,4.08,0,0,1,.06-.53.68.68,0,0,0-.09-.28l-.31-.56a.38.38,0,0,0-.08-.09s0,0,0,0a4.86,4.86,0,0,0-.07.55c0,.2,0,.4,0,.62a.49.49,0,0,0,.06.2Z"/><path class="cls-23" d="M59.16,53.71l.22.4.07.09s0,0,0,0a.14.14,0,0,0,0-.07v-.32c0-.1,0-.21,0-.27V53.4a.74.74,0,0,0-.09-.21l0-.08-.18-.33-.06-.06a0,0,0,0,0,0,0,2.36,2.36,0,0,0,0,.31v.38a.35.35,0,0,0,0,.12A.7.7,0,0,0,59.16,53.71Z"/><path class="cls-24" d="M59.38,54c0,.05.06.09.07.06a.4.4,0,0,0,0-.16v-.19c-.05-.1-.12-.21-.17-.32s-.11-.21-.15-.23,0,0,0,.08a.24.24,0,0,0,0,.12.5.5,0,0,0,0,.17l.13.22Z"/><path class="cls-22" d="M59.92,55.19a.31.31,0,0,0,.09.12s.05,0,.06,0c0-.23,0-.44,0-.63s0-.37.07-.53a.54.54,0,0,0-.08-.27l-.31-.57a.29.29,0,0,0-.08-.1s0,0,0,0-.06.35-.08.54,0,.4,0,.62a.4.4,0,0,0,.06.21Z"/><path class="cls-23" d="M59.68,54.66l.21.41s0,.07.06.09,0,0,0,0,0,0,0-.08a2.91,2.91,0,0,0,0-.31c0-.11,0-.2,0-.27l0-.16a.69.69,0,0,0-.07-.2l-.05-.08-.18-.33,0-.07h0c0,.09,0,.2,0,.32v.16a1.61,1.61,0,0,0,0,.22s0,.06,0,.12A.52.52,0,0,0,59.68,54.66Z"/><path class="cls-24" d="M59.89,55s.06.09.07.06v-.35a3.24,3.24,0,0,0-.17-.32c0-.06-.1-.22-.14-.23s0,0,0,.07v.13s0,.1,0,.16l.13.22Z"/><path class="cls-25" d="M58,51c0-.1,0-.2,0-.28v-.22c0-.06,0-.09,0-.09l0,0a.17.17,0,0,0-.06,0s-.06,0-.07.07a1.25,1.25,0,0,0,0,.21,2.53,2.53,0,0,0,0,.28,2.65,2.65,0,0,0,0,.27,2,2,0,0,0,0,.25.65.65,0,0,0,.05.21.53.53,0,0,0,0,.09l0-.08a.8.8,0,0,1,0-.18c0-.07,0-.15,0-.23Z"/><path class="cls-25" d="M58.52,51.91c0-.1,0-.2,0-.29V51.4c0-.06,0-.08.05-.08l0,0-.06-.05s-.07,0-.08.06,0,.14,0,.22,0,.18,0,.27,0,.19,0,.28v.24a.71.71,0,0,0,0,.22c0,.07.06.1.06.09a.48.48,0,0,1,0-.08.54.54,0,0,1,0-.19,1.93,1.93,0,0,1,0-.23Z"/><path class="cls-25" d="M59.06,52.85c0-.1,0-.19,0-.28v-.22c0-.06,0-.09.06-.08l0,0a.08.08,0,0,0-.06,0s-.06,0-.07.06,0,.13,0,.21,0,.18,0,.28a2.45,2.45,0,0,0,0,.27,1,1,0,0,0,0,.25.78.78,0,0,0,0,.22l0,.09s0,0,0-.09a.48.48,0,0,1,0-.18c0-.07,0-.15,0-.23Z"/><path class="cls-25" d="M59.58,53.8a2.66,2.66,0,0,0,0-.28l0-.22s0-.09,0-.08l0,0-.06-.05s-.07,0-.08.06,0,.13,0,.21,0,.18,0,.28a2.45,2.45,0,0,0,0,.27,1,1,0,0,0,0,.25.54.54,0,0,0,0,.22c0,.06.05.1.05.09a.48.48,0,0,1,0-.08,1,1,0,0,1,0-.19,2,2,0,0,1,0-.23C59.56,54,59.57,53.9,59.58,53.8Z"/><path class="cls-22" d="M60.41,56.16a.41.41,0,0,0,.09.12s0,0,.06,0a4.23,4.23,0,0,1,0-.63,3.71,3.71,0,0,1,.08-.53.76.76,0,0,0-.08-.28l-.3-.57a.29.29,0,0,0-.08-.1s0,0,0,0-.06.35-.09.54a6.13,6.13,0,0,0,0,.62.33.33,0,0,0,.05.2Z"/><path class="cls-23" d="M60.17,55.62l.21.41.06.09s0,0,.05,0,0,0,0-.08,0-.2,0-.31a2,2,0,0,1,0-.28l0-.15a.57.57,0,0,0-.07-.21l0-.08-.17-.33-.06-.06h0a2.51,2.51,0,0,0,0,.31c0,.06,0,.12,0,.17a1.61,1.61,0,0,0,0,.22s0,.06,0,.12A.82.82,0,0,0,60.17,55.62Z"/><path class="cls-24" d="M60.38,56s.06.09.07.07a.63.63,0,0,0,0-.17,1,1,0,0,1,0-.18c-.05-.11-.11-.22-.17-.33s-.1-.22-.14-.23,0,0,0,.07a.56.56,0,0,0,0,.13.85.85,0,0,0,0,.16l.12.23Z"/><path class="cls-22" d="M60.87,57.12a.31.31,0,0,0,.09.12s0,0,.06,0c0-.22,0-.42,0-.61a3.64,3.64,0,0,1,.09-.53.76.76,0,0,0-.08-.28l-.29-.58a.43.43,0,0,0-.07-.1s0,0-.05,0-.07.35-.09.54,0,.4,0,.62a.49.49,0,0,0,.06.2Z"/><path class="cls-23" d="M60.66,56.59l.2.41a.15.15,0,0,0,0,.09l0,0A.15.15,0,0,0,61,57a2.51,2.51,0,0,0,0-.31,1.85,1.85,0,0,1,0-.27l0-.15a.65.65,0,0,0-.07-.21l0-.09-.17-.33a.22.22,0,0,0-.06-.07h0a2.14,2.14,0,0,0-.06.31c0,.06,0,.12,0,.17s0,.14,0,.21a.74.74,0,0,0,0,.12A.56.56,0,0,0,60.66,56.59Z"/><path class="cls-24" d="M60.86,56.93c0,.06,0,.09.06.07a.37.37,0,0,0,0-.17.82.82,0,0,1,0-.18c0-.11-.11-.22-.16-.32s-.1-.23-.14-.24,0,0,0,.07v.13a.46.46,0,0,0,0,.16l.11.23Z"/><path class="cls-22" d="M61.25,58.11a.37.37,0,0,0,.08.14s.05,0,.06,0a4.74,4.74,0,0,1,.1-.62c0-.19.08-.36.12-.52a.52.52,0,0,0-.06-.3c-.1-.21-.18-.4-.28-.59a.29.29,0,0,0-.07-.1s-.05,0-.05,0-.07.35-.1.54,0,.39-.07.6a.39.39,0,0,0,0,.2C61.1,57.67,61.17,57.89,61.25,58.11Z"/><path class="cls-23" d="M61.08,57.55l.16.43a.19.19,0,0,0,0,.1s0,0,0,0a.14.14,0,0,0,0-.07c0-.08,0-.2.06-.32l.05-.26V57.3a1.23,1.23,0,0,0-.06-.22l0-.09s-.14-.31-.16-.34,0-.06-.05-.07,0,0,0,0a2.14,2.14,0,0,0-.06.31l0,.16a1.36,1.36,0,0,0,0,.21.62.62,0,0,0,0,.12A.62.62,0,0,0,61.08,57.55Z"/><path class="cls-24" d="M61.25,57.91c0,.06,0,.1.06.08a1.3,1.3,0,0,0,0-.17,1.64,1.64,0,0,1,0-.18c0-.11-.08-.23-.13-.34s-.08-.22-.12-.24,0,0,0,.07a.62.62,0,0,0,0,.12.81.81,0,0,0,0,.16l.09.24Z"/><path class="cls-22" d="M61.68,59.16a.36.36,0,0,0,.1.13s0,0,0,0a3.23,3.23,0,0,1,0-.64,3.15,3.15,0,0,1,.13-.51.5.5,0,0,0,0-.28c-.07-.2-.14-.41-.22-.62a.35.35,0,0,0-.07-.11s0,0,0,0-.1.34-.15.53a5.07,5.07,0,0,0-.12.61.35.35,0,0,0,0,.21A5.79,5.79,0,0,0,61.68,59.16Z"/><path class="cls-23" d="M61.46,58.58s.17.42.19.45a.23.23,0,0,0,.06.09s0,0,0,0a.15.15,0,0,0,0-.08c0-.09,0-.21,0-.32s0-.2,0-.27v-.15a.43.43,0,0,0,0-.21l0-.09-.12-.35a.13.13,0,0,0-.05-.07h0a1.75,1.75,0,0,0-.1.3c0,.06,0,.12,0,.16a1.66,1.66,0,0,0,0,.22.62.62,0,0,0,0,.12A.49.49,0,0,0,61.46,58.58Z"/><path class="cls-24" d="M61.65,59s.05.09.07.07a1.39,1.39,0,0,1,0-.17v-.2a2.37,2.37,0,0,0-.13-.34c0-.06-.07-.23-.11-.25s0,0,0,.07,0,.1,0,.13a.76.76,0,0,0,0,.16l.1.25C61.58,58.81,61.64,58.94,61.65,59Z"/><path class="cls-25" d="M60.59,55.73l0-.28,0-.22c0-.06,0-.08.06-.08l0,0a.17.17,0,0,0-.06-.05s-.06,0-.08.06l0,.21c0,.08,0,.18,0,.27l0,.28a1,1,0,0,0,0,.24.85.85,0,0,0,0,.23.24.24,0,0,0,0,.09.85.85,0,0,1,0-.09.5.5,0,0,1,0-.18,2,2,0,0,1,0-.23Z"/><path class="cls-25" d="M60.09,54.76a2.66,2.66,0,0,0,0-.28l0-.22c0-.06,0-.08.05-.08l0,0-.06-.05s-.07,0-.08.06a.66.66,0,0,0,0,.21c0,.09,0,.18,0,.28A2.45,2.45,0,0,0,60,55a1.07,1.07,0,0,0,0,.25.78.78,0,0,0,0,.22.24.24,0,0,0,.05.09.41.41,0,0,1,0-.09.9.9,0,0,1,0-.18c0-.07,0-.14,0-.23Z"/><path class="cls-25" d="M61.07,56.71c0-.1,0-.19,0-.28l0-.22c0-.06,0-.09.06-.08s.05,0,.05,0l-.06,0s-.06,0-.08.06,0,.13,0,.21,0,.18,0,.27,0,.19,0,.27a2.32,2.32,0,0,0,0,.24.68.68,0,0,0,0,.21.18.18,0,0,0,0,.1.4.4,0,0,1,0-.09.54.54,0,0,1,0-.18A2.07,2.07,0,0,1,61,57Z"/><path class="cls-25" d="M61.48,57.71a1.47,1.47,0,0,0,.06-.27l.05-.22c0-.06,0-.09.07-.08l0,0a.18.18,0,0,0-.05-.06s-.07,0-.08,0a1.05,1.05,0,0,0-.06.21c0,.08,0,.18-.07.27a1.31,1.31,0,0,0-.06.27,2,2,0,0,0-.05.24.86.86,0,0,0,0,.23c0,.07,0,.11,0,.1a.4.4,0,0,1,0-.09.6.6,0,0,1,0-.19c0-.07,0-.15,0-.23S61.46,57.8,61.48,57.71Z"/><path class="cls-26" d="M43,45.41c-.76-1.9,1-4.53,2.82-5.26,1.21-.46,1.77-.66,2.37-1.77.52-1,1.25-1.68,2.4-1.26s1.55,1,2.72,1.05,2-.18,3,.55,1.16,1.7,2,2.31,2.07.24,2.67,1.08c1.3,1.82-1.21,4.33-1.66,6.08-.25,1,.13,2.25-.4,3.13-1.06,1.73-3,.4-4.38.7-1.64.35-2,2-4,1.16-.7-.3-1.25-.91-2-1s-1.33.37-2.1.5c-2.4.38-2.35-2.15-2.32-3.67S43.42,46.5,43,45.41Z"/><path class="cls-27" d="M43.78,44.84a3.26,3.26,0,0,1,.31-3.28c.89-1.42,2.65-1.68,3.54-3,.77-1.17,1.21-3.32,3.14-2.61,1,.37,1.54,1,2.71,1.05s2-.18,3,.54,1.17,1.7,2,2.32,2.08.62,2.68,1.46C62.48,43.1,60,45.22,59.5,47c-.25,1,.13,2.26-.4,3.13-1.06,1.73-3,.41-4.38.71-1.64.35-2,2-3.95,1.16-.7-.3-1.26-.91-2.05-1s-1.33.38-2.1.5c-2.4.39-1.74-1.51-1.71-3A8.3,8.3,0,0,0,43.78,44.84Z"/><path class="cls-28" d="M52.2,37a4.27,4.27,0,0,0,1.35.59,11.75,11.75,0,0,1,1.58.11A3.69,3.69,0,0,1,56.81,39c.62.79,1.11,1.66,1.79,2.4a5.47,5.47,0,0,0,1.5,1c1.07.65,0,1.48-.29,2.23a16.08,16.08,0,0,0-.8,2.16c-.2.84-.28,1.71-.47,2.56-.21,1-1.06.72-1.83.81-.46,0-.87.18-1.33.2a3.38,3.38,0,0,0-1.38.2,9.6,9.6,0,0,1-2,.9c-1.07.2-1.81-.71-2.8-.95-1.32-.31-3.92.6-3.19-1.65a3.06,3.06,0,0,0-.29-2.62c-.43-.77-1.22-1.52-1.33-2.43-.18-1.54,2-2.7,3-3.54a7.74,7.74,0,0,0,2.33-3.52C50.05,35.83,51.58,36.62,52.2,37Z"/><path class="cls-29" d="M57.9,45.83c1.65-3.44-1.77-7.48-5.41-7.33a8.6,8.6,0,0,0-5.4,2.43c-2.63,2.62-.76,7.19,2.23,8.4A7,7,0,0,0,57.9,45.83Z"/><path class="cls-30" d="M47.58,46.87a4.67,4.67,0,0,1,3.51-7.14c3-.39,6.16,1.3,5.94,4.56C56.7,48.91,50.15,50.74,47.58,46.87Z"/><path class="cls-31" d="M49,48.57A5.58,5.58,0,0,0,57.58,44c.09-4.34-4.25-6.86-8.21-4.72a5,5,0,0,0-2.48,6.31A4.89,4.89,0,0,0,49,48.57Zm-2.23-3.83c0,.27.09.54.15.8A2.84,2.84,0,0,1,46.73,44.74ZM47.9,41.1a5.19,5.19,0,0,1,9.25,2.35,5.43,5.43,0,0,1-1.39,4,5.09,5.09,0,0,1-5.9,1.09C47.37,47.24,46.07,43.44,47.9,41.1Z"/><path class="cls-32" d="M53.66,42.94a.68.68,0,0,1,1,.06c.24.16.25.61.07,1,0,0,.22.29.24.34a.75.75,0,0,1,.1.32.93.93,0,0,1-1.27.83l-.09,0-.09,0h0l-.09,0,.1.05a7.76,7.76,0,0,0,1.56.46c.1,0,.36.08.41.17s-.11.24-.15.27l-.05,0c-.16-.19-.49-.21-.71-.29L54,45.84l-.31-.16-.5-.28a1.11,1.11,0,0,1,.61,1,.92.92,0,0,1-1,.76h-.14a1.91,1.91,0,0,0-.33-.06c-.23,0-.4.15-.63.1a1,1,0,0,1-.47-.29c-.34-.29-.2-.73.08-1.07.13-.16.64-.66.57-.87s-.56.37-.63.47a6,6,0,0,1-.5.69,1.06,1.06,0,0,1-.67.37.85.85,0,0,1-.42-.07c-.44-.22-.42-.76-.23-1.18,0,0-.23-.31-.26-.36a.75.75,0,0,1-.09-.34.86.86,0,0,1,.53-.78h0l.22-.06a1.9,1.9,0,0,1,.95.26c.09,0,.74.52.76.5.26-.16-1.88-.91-1-2a1,1,0,0,1,.67-.3,1.45,1.45,0,0,1,.36,0c.09,0,.2.1.29,0l.29-.18c.38-.12.59-.14.84.13a.61.61,0,0,1,.22.54,2.3,2.3,0,0,1-.67,1.12,1.46,1.46,0,0,0-.32.47.13.13,0,0,0,.15.13c.08,0,.22-.19.23-.2l.11-.14.13-.18a4,4,0,0,1,.72-.87l0,0S53.64,42.94,53.66,42.94Z"/><g class="cls-33"><path class="cls-34" d="M51.07,49c2.09.25,3.69-.79,5.11-2.13a3.72,3.72,0,0,1-1.43,1.54,6.44,6.44,0,0,1-4.37.72c-1.72-.42-2.48-1.77-2.91-3.33C48.16,47.25,49.28,48.75,51.07,49Z"/></g><g class="cls-33"><path class="cls-35" d="M54.9,39.57a5.53,5.53,0,0,1,2.55,3c-.68-2.23-2.13-4-4.75-4.09a6.61,6.61,0,0,0-5.47,2.66,4.32,4.32,0,0,0-.81,1.58,6.71,6.71,0,0,1,3.4-3.38A5.27,5.27,0,0,1,54.9,39.57Z"/></g><g class="cls-36"><path class="cls-37" d="M59,47.82c-.09.76.1,2.46-.7,2.88-1.16.62-2.43-.89-3.61-.45-1,.37-1.47,1.6-2.63,1.59s-2.42-1-3.51-1.38c1-.12,2,.33,3,.2a8.82,8.82,0,0,0,2.88-1,15.35,15.35,0,0,0,3.13-1.85,14.36,14.36,0,0,0,1.92-2.54A8.25,8.25,0,0,0,59,47.82Z"/></g><g class="cls-36"><path class="cls-38" d="M52.89,50.33a21.08,21.08,0,0,0-3.64,0c-.94.09-2.33.51-3.23.1-1.12-.51-.45-1.36-.34-2.3.14-1.23-.6-1.88-1.14-2.89a2.41,2.41,0,0,1,.55-3c-.5,1.72.71,4.31,1.77,5.59A6.4,6.4,0,0,0,50,49.92a6.23,6.23,0,0,0,2.06.3Z"/></g><g class="cls-36"><path class="cls-39" d="M56.58,39.53A4.31,4.31,0,0,0,55,38c-.83-.39-1.27,0-2.08,0-1.51,0-2.14-2-3.52-.36a7.92,7.92,0,0,0-1.06,1.85,6.4,6.4,0,0,1,6.92-.88c.5.29.82.78,1.39,1Z"/></g><g class="cls-36"><path class="cls-40" d="M54.56,49.62c1.63-.69,3.44-1.71,4-3.45-.36,1.15.35,3.38-1.48,3.51a7,7,0,0,0-3.55.79,3.58,3.58,0,0,1-2.3.55A4.39,4.39,0,0,1,50,50.66a3.3,3.3,0,0,0-1.37-.23s0,0,0,0C50.54,49.73,52.67,50.42,54.56,49.62Z"/></g><g class="cls-36"><path class="cls-41" d="M58,40.86c.48,1.2,2.06,1.75,2,2.71-.09,1.24-1.12,2-1.61,3h0c.78-1.71.36-3.72-.23-5.38Z"/></g></g></g></g></svg>