<svg xmlns="http://www.w3.org/2000/svg" xmlns:xlink="http://www.w3.org/1999/xlink" viewBox="0 0 119.46 119.47"><defs><style>.cls-1{isolation:isolate;}.cls-2{fill:#111422;opacity:0.5;}.cls-3{fill:url(#Безымянный_градиент_403);}.cls-4{fill:url(#Безымянный_градиент_25);}.cls-5{fill:#53606b;}.cls-6{fill:url(#Безымянный_градиент_25-2);}.cls-7{fill:#616f73;}.cls-8{fill:#80888b;}.cls-9{fill:#335368;opacity:0.36;}.cls-10{fill:#303d4f;}.cls-11{fill:#212c41;}.cls-12{fill:#87edf3;opacity:0.1;}.cls-12,.cls-14,.cls-18,.cls-19,.cls-20,.cls-27,.cls-28,.cls-29,.cls-30,.cls-32,.cls-33,.cls-34,.cls-38,.cls-39,.cls-40,.cls-41,.cls-42,.cls-47,.cls-51{mix-blend-mode:screen;}.cls-13{fill:#529fc2;opacity:0.23;}.cls-14{opacity:0.74;fill:url(#radial-gradient);}.cls-15{fill:#23323f;opacity:0.52;}.cls-16{fill:#51030b;}.cls-17{fill:url(#Безымянный_градиент_22);}.cls-18{fill:url(#Безымянный_градиент_23);}.cls-19{opacity:0.19;fill:url(#Безымянный_градиент_19);}.cls-20{opacity:0.3;fill:url(#Безымянный_градиент_19-2);}.cls-21{fill:url(#Безымянный_градиент_22-2);}.cls-22{fill:url(#Безымянный_градиент_22-3);}.cls-23{fill:url(#Безымянный_градиент_21);}.cls-24{fill:url(#Безымянный_градиент_21-2);}.cls-25{fill:url(#Безымянный_градиент_21-3);}.cls-26{fill:url(#Безымянный_градиент_21-4);}.cls-27{fill:url(#Безымянный_градиент_18);}.cls-28{fill:url(#Безымянный_градиент_18-2);}.cls-29{opacity:0.75;fill:url(#Безымянный_градиент_18-3);}.cls-30{fill:url(#Безымянный_градиент_18-4);}.cls-31,.cls-37{fill:#833c09;}.cls-32,.cls-33{opacity:0.34;}.cls-32{fill:url(#Безымянный_градиент_18-5);}.cls-33{fill:url(#Безымянный_градиент_18-6);}.cls-34,.cls-38,.cls-40,.cls-41{opacity:0.63;}.cls-34{fill:url(#Безымянный_градиент_19-3);}.cls-35{fill:#9d2610;opacity:0.37;}.cls-36,.cls-40{fill:#e1ab00;}.cls-36{mix-blend-mode:overlay;opacity:0.58;}.cls-37{opacity:0.9;}.cls-38{fill:#f1e041;}.cls-39{fill:url(#Безымянный_градиент_18-7);}.cls-41{fill:#ce740e;}.cls-42,.cls-46{fill:#ffee80;}.cls-43{fill:#981a13;}.cls-43,.cls-44,.cls-48,.cls-50,.cls-52{fill-rule:evenodd;}.cls-44{fill:#f8c100;}.cls-45{fill:#ef9800;}.cls-46{opacity:0.67;}.cls-47{fill:url(#radial-gradient-2);}.cls-48{fill:#ea7c00;}.cls-49{fill:#7d2800;}.cls-50{fill:#15c9d7;}.cls-51{opacity:0.4;fill:url(#Безымянный_градиент_4);}.cls-52{fill:#1be7f6;}</style><linearGradient id="Безымянный_градиент_403" x1="59.73" y1="2.18" x2="59.73" y2="118.66" gradientUnits="userSpaceOnUse"><stop offset="0" stop-color="#1c2633"/><stop offset="1" stop-color="#111422"/></linearGradient><linearGradient id="Безымянный_градиент_25" x1="59.73" y1="5.11" x2="59.73" y2="123.86" gradientUnits="userSpaceOnUse"><stop offset="0" stop-color="#293545"/><stop offset="1" stop-color="#212a3a"/></linearGradient><linearGradient id="Безымянный_градиент_25-2" x1="58.68" y1="6.13" x2="57.53" y2="111.49" xlink:href="#Безымянный_градиент_25"/><radialGradient id="radial-gradient" cx="56.81" cy="-1142.53" r="31.34" gradientTransform="translate(0 284.82) scale(1 0.16)" gradientUnits="userSpaceOnUse"><stop offset="0" stop-color="#21d9ff"/><stop offset="1"/></radialGradient><linearGradient id="Безымянный_градиент_22" x1="63.84" y1="29.01" x2="57.8" y2="88.61" gradientUnits="userSpaceOnUse"><stop offset="0.02" stop-color="#ce740e"/><stop offset="0.12" stop-color="#d07b0c"/><stop offset="0.69" stop-color="#dc9e03"/><stop offset="1" stop-color="#e1ab00"/></linearGradient><radialGradient id="Безымянный_градиент_23" cx="99.5" cy="112.61" r="102.62" gradientUnits="userSpaceOnUse"><stop offset="0.1" stop-color="#ce740e"/><stop offset="1"/></radialGradient><linearGradient id="Безымянный_градиент_19" x1="37.56" y1="73.56" x2="66.96" y2="14.21" gradientUnits="userSpaceOnUse"><stop offset="0" stop-color="#e1ab00"/><stop offset="0.06" stop-color="#cc9b00"/><stop offset="0.25" stop-color="#8e6c00"/><stop offset="0.44" stop-color="#5c4600"/><stop offset="0.61" stop-color="#342700"/><stop offset="0.76" stop-color="#171200"/><stop offset="0.9" stop-color="#060500"/><stop offset="1"/></linearGradient><linearGradient id="Безымянный_градиент_19-2" x1="62.17" y1="81.33" x2="87.32" y2="30.55" xlink:href="#Безымянный_градиент_19"/><linearGradient id="Безымянный_градиент_22-2" x1="48.1" y1="32.27" x2="61.35" y2="11.62" xlink:href="#Безымянный_градиент_22"/><linearGradient id="Безымянный_градиент_22-3" x1="79.74" y1="59.28" x2="92.6" y2="34.73" xlink:href="#Безымянный_градиент_22"/><linearGradient id="Безымянный_градиент_21" x1="22.57" y1="66.31" x2="54.72" y2="9.8" gradientUnits="userSpaceOnUse"><stop offset="0" stop-color="#be5a0f"/><stop offset="0.33" stop-color="#ce740e"/><stop offset="0.59" stop-color="#d48609"/><stop offset="1" stop-color="#e1ab00"/></linearGradient><linearGradient id="Безымянный_градиент_21-2" x1="36.09" y1="83.5" x2="-4.11" y2="72.2" xlink:href="#Безымянный_градиент_21"/><linearGradient id="Безымянный_градиент_21-3" x1="82.17" y1="96.33" x2="-14.21" y2="69.24" xlink:href="#Безымянный_градиент_21"/><linearGradient id="Безымянный_градиент_21-4" x1="99.42" y1="84.61" x2="61.29" y2="73.9" xlink:href="#Безымянный_градиент_21"/><radialGradient id="Безымянный_градиент_18" cx="55.62" cy="45.97" r="24.08" gradientUnits="userSpaceOnUse"><stop offset="0.1" stop-color="#e1ab00"/><stop offset="1"/></radialGradient><radialGradient id="Безымянный_градиент_18-2" cx="54.36" cy="59.61" r="47.07" xlink:href="#Безымянный_градиент_18"/><radialGradient id="Безымянный_градиент_18-3" cx="62.4" cy="60.25" r="38.93" xlink:href="#Безымянный_градиент_18"/><radialGradient id="Безымянный_градиент_18-4" cx="78.92" cy="55.77" r="40.72" xlink:href="#Безымянный_градиент_18"/><radialGradient id="Безымянный_градиент_18-5" cx="31.74" cy="20.38" r="75.18" xlink:href="#Безымянный_градиент_18"/><radialGradient id="Безымянный_градиент_18-6" cx="19.59" cy="10.8" r="80.34" xlink:href="#Безымянный_градиент_18"/><linearGradient id="Безымянный_градиент_19-3" x1="61.93" y1="64.96" x2="93.56" y2="1.11" xlink:href="#Безымянный_градиент_19"/><radialGradient id="Безымянный_градиент_18-7" cx="50.86" cy="90.98" r="18.34" xlink:href="#Безымянный_градиент_18"/><radialGradient id="radial-gradient-2" cx="58.05" cy="58.11" r="20.14" gradientUnits="userSpaceOnUse"><stop offset="0.1" stop-color="#ffcb01"/><stop offset="1"/></radialGradient><radialGradient id="Безымянный_градиент_4" cx="74.91" cy="47.01" r="80.3" gradientUnits="userSpaceOnUse"><stop offset="0.02" stop-color="#1cbac6"/><stop offset="0.08" stop-color="#1aadb8"/><stop offset="0.41" stop-color="#0f646a"/><stop offset="0.69" stop-color="#072e31"/><stop offset="0.89" stop-color="#020d0d"/><stop offset="1"/></radialGradient></defs><g class="cls-1"><g id="Слой_2" data-name="Слой 2"><g id="Слой_8" data-name="Слой 8"><path class="cls-2" d="M119.46,98.75a20.71,20.71,0,0,1-20.71,20.72h-78A20.72,20.72,0,0,1,0,98.75v-78A20.72,20.72,0,0,1,20.72,0h78a20.71,20.71,0,0,1,20.71,20.72Z"/><path class="cls-3" d="M56.93,118.07c-1.57,0-3.16,0-4.75-.15-2.07-.14-4-.36-5.77-.58a58.52,58.52,0,0,0-7.17-.58,27.78,27.78,0,0,0-2.91.15c-2.75.27-5.85.59-8.91.59-8,0-13.75-2.44-17-7.25A60.4,60.4,0,0,1,7,104.44c-.72-1.36-1.38-2.6-2.06-3.69a10.2,10.2,0,0,1-3.51-6.46,15.52,15.52,0,0,1,.9-7c.11-.37.25-.79.31-1.05.54-3.51,1-7.24,1.49-11,1-8.75,0-17.67-1.15-27.11-.33-2.82-.68-5.73-1-8.64-.15-1.59-.36-3.18-.56-4.78C1.07,31.6.67,28.44.55,25.13c-.22-6.13.64-14.41,6-19,4.94-4.23,12.1-4.72,17.05-4.72,1.87,0,3.58.08,5.1.14l1.39.06c2.25.08,4.52.2,6.8.32,3.87.21,7.88.42,11.73.42,1.81,0,3.45,0,5-.14,3-.17,6.17-.25,9.73-.25,4.42,0,8.88.13,13.2.25s8.6.25,12.81.25c1.56,0,3.12,0,4.67-.06h1.18c11.42,0,17.2,4.55,20,8.37,4.48,6,3.85,13,3.3,19.08a52.12,52.12,0,0,0-.33,6.55,195.06,195.06,0,0,1-.76,21.19c-.38,5.2-.77,10.58-.81,15.83a67.69,67.69,0,0,0,1.08,10.43c.91,5.9,1.84,12,.6,17.92-.73,3.5-5.26,10-8,12A13.8,13.8,0,0,1,105.9,116a24.7,24.7,0,0,1-7.27.93,85.47,85.47,0,0,1-9.82-.78,61.29,61.29,0,0,0-6.55-.58c-2.36,0-4.62.1-6.72.31-1.88.18-3.85.56-6,1A65.66,65.66,0,0,1,56.93,118.07Z"/><path class="cls-4" d="M104.78,112.35c-6.62,2-16.63-.6-22.52-.6-2.49,0-4.87.1-7.09.32-2.06.2-4.13.6-6.32,1a63.52,63.52,0,0,1-16.42,1c-5.9-.38-10.55-1.6-16.49-1-2.65.27-5.65.58-8.52.58-2.49,0-10.06,0-13.86-5.57a59.67,59.67,0,0,1-3.18-5.49c-.81-1.52-1.57-2.95-2.42-4.27A1.62,1.62,0,0,0,7.6,98a6.48,6.48,0,0,1-2.38-4.28A12.23,12.23,0,0,1,6,88.38c.16-.54.36-1.2.41-1.49C7,83.23,7.5,79.45,8,75.66c1.07-9.2,0-18.34-1.15-28-.33-2.8-.67-5.7-1-8.56-.16-1.63-.37-3.26-.58-4.89-.37-3-.76-6.06-.88-9.21-.15-4.33.24-12.16,4.67-16,4-3.4,10.2-3.8,14.54-3.8,1.79,0,3.46.08,4.94.14l1.39.06c2.25.08,4.5.2,6.76.32,3.92.21,8,.42,11.93.42,1.87,0,3.59,0,5.24-.14,2.9-.17,6-.25,9.5-.25,4.37,0,8.81.13,13.1.26s8.64.25,12.91.25c1.59,0,3.19,0,4.77-.06l1.08,0c9.83,0,14.64,3.71,17,6.83,5.1,6.87,1.91,15.72,2.2,23.47.47,12.34-1.48,24.54-1.56,36.85-.06,8.87,3.59,18.84,1.76,27.59-.52,2.48-4.51,8.22-6.56,9.79A10,10,0,0,1,104.78,112.35Z"/><path class="cls-5" d="M52,9c-5.89.55-11.73,1.71-17.67,1-6.74-.79-19.16-4.76-24.94.19-3,2.59-3.46,9.1-3.32,12.9C6.39,31.2,8.92,39.05,8.49,47,8,56,7.55,65.21,6.58,74.18c-.83,7.6,1.67,15.14.67,22.71,3.3.53,5.14,2,7.5,4.42,3,3.08,2.43,3,6.74,3.76,9.19,1.56,21.47,5.78,30.67,5.15,4.89-.34,10.2-2.31,15-3.44a52.85,52.85,0,0,1,15.75-1.73c2.4.14,4.35.06,6.5,1.37,1.65,1,2.31,3.53,4.1,4.17,5.75,2,10.38-2.92,13.72-6.38-1.29-6.24.67-10.41,2.3-16.27,2-7.15-.58-11.7-3.07-18.29-2.59-6.87-1.23-11.57.11-18.47,1.16-6-.44-11.22-.47-17.18,0-5.45,6.29-21.61-.42-24.57-3.4-1.5-7.14,0-10.63.2s-6.58-.58-10.09-1c-9.4-1-19.12,0-28.54.13C54.92,8.81,53.47,8.91,52,9Z"/><path class="cls-6" d="M10.79,29.05c.33,6.41,3,13.18,3.65,19.93-1.53-6.86-3.91-13.63-5.24-20.4-.73-3.73-.37-4.3,1.39-8.5,1.93-4.61,2-7.27-.9-11.56,2.13-1.63,5.36-1.35,8.11-1.2C17.52,7.31,10.68,26.82,10.79,29.05Zm45.66,80.56a12.52,12.52,0,0,0,4.34-1.5c-1.77.27-3.51-.29-5.29-.12-1.49.15-2.68.64-4.23.47s-12.45-5.39-12.51-5.33c8.84-8.24,27.86-4.6,36.63,2-3.74-2.8-11-6-13-10C70.45,89,78.19,82.83,85.63,76c-11.33,6.31-23.31,17.77-36,20.56-7.45,1.63-17,3.29-24.56,2.1C21.82,98.13,9.2,96.35,9,91.75c-.32-6.44,1.19-13.49-1.37-19.44-.44,7.29,1.62,14.91-1,21.92a38,38,0,0,1,9,3.43c9,4.62,17.76,10.18,27.71,12.47A28.86,28.86,0,0,0,55,109.89Zm49.83-76.73c-2.87,2.38-3.25,6.88-6.09,9.71s-9.4,4.77-10,9c-.13.9,1.6,3.73,1.56,5.23-.08,2.73-1.59,4.55-3,6.87-2.06,3.43-4.48,6.9-5.77,10.7,3.94-7.34,12.21-16,14.24-22.57.08-.25-1.16-1.2-.88-2.26.22-.85,1.32-1.72,1.76-2.49a32.36,32.36,0,0,1,4-4.62c2.36-2.65,4.52-6.36,7.46-8.27-2.18-1.11-2.73-3.46-2.39-5.85-1.1,2.49-1.4,5.35-3.43,7.13Z"/><path class="cls-7" d="M76,105.92a28.85,28.85,0,0,1,6.76.06,15.84,15.84,0,0,1,3.66.36c1.1.42,1,.94,1.93,1.52,1.86,1.14,5.58,3.07,7.78,3,1.71-.09,2.87-.85,4.4-1.6a30.59,30.59,0,0,0,7.15-5c-2.34-3-.29-6.54.16-9.7.62-4.41,1.75-8.92.81-13.36-.68-3.21-4.79-10.09-3.21-13.3-2.07,4.22,1.5,9.87,1.29,15.07-.3,7-1.24,18.65-7.76,22.53-6.08,3.61-9-.73-15.72-1.73-7-1.06-11.53,1.2-18,1.76-3.47.3-6.51-1.36-9.84-1.61-4.74-.35-9.47,1.28-14.3.78,4.84.25,9.43,4,13.1,4.5s7.73-1.89,11.51-2.09C69.19,106.86,72.11,106.49,76,105.92Z"/><path class="cls-7" d="M32.78,106.68c-7.39,0-17.33-6.71-23.43-10.52C13,98.4,17.28,97.94,21,99.45,25.17,101.11,29,104.36,32.78,106.68Z"/><path class="cls-7" d="M10.9,58.19c-.54-10,.41-19.28-4.37-28.45a17.84,17.84,0,0,0,.84,6.65,28.41,28.41,0,0,1,1,7,145.34,145.34,0,0,1,0,17.71c-.66,8.23-3,15.94-1.17,24.21C6.79,75.94,11.4,67.38,10.9,58.19Z"/><path class="cls-8" d="M16.14,18.78c-3.51,4.81-5,12.27-4,18.09-.44-2.51-1.91-5.88-1.52-8.38.17-1.11,1.2-2.43,1.65-3.48,1.2-2.8,2-5.8,3.16-8.65a53.33,53.33,0,0,0,2.17-6.58c.49-1.92.79-2.09,2.82-2.08,2.38,0,5.6-.75,7.85-.43,1.95.28,2.68,1.9,4.22,3,3.12,2.25,7.27,2.64,11,2.64,8.12,0,16-2.65,24.1-2.67,3.43,0,7-.91,10.37-.55s6.29,1.9,9.84,1.83c7.39-.13,14-1.55,21.44-1.23a83.33,83.33,0,0,0-2.07,12.21c-.46,5.12-1.55,12.09-4.23,16.56S94.69,45.3,91.29,49.36c3.84-5,8.94-9.38,10.35-15.43,1.25-5.35,6.28-13.91,4.3-19.35S97.43,14,93,14.82s-8.41-1.2-12.75-1.23c-2.42-5.7-13,.11-17.62.43-6.83.48-13.2-1.59-20-.13-3.57.78-4.56,1.86-8,.2C32,12.8,30.48,9.74,27.38,8.82c-4.26-1.26-4.27-.43-6.34,2.82C19.4,14.21,18,16.29,16.14,18.78Z"/><path class="cls-8" d="M66.3,95.24c3.62-1.63,5.75-4.47,8.19-7.4s6-5.08,8.56-8a29.19,29.19,0,0,1,4.35-4.4A95.57,95.57,0,0,0,73.73,85.85c-2.08,1.87-4,3.85-6,5.79-1.63,1.57-3.21,1.78-4.9,3,2.17,4.74,8.6,5.49,12.15,8.66C72,100.68,69.24,97.85,66.3,95.24Z"/><path class="cls-8" d="M69.18,102.92c-7.29-2.46-22.06-6.2-28,1.2-2.49-.94-1.49-1.67.06-2.9,4.81-3.83,8.39-4.3,14.43-2.87C60.31,99.45,64.66,101.4,69.18,102.92Z"/><path class="cls-8" d="M106.28,42.28a33,33,0,0,1-1.36,12.25c-1.27,3.46-3.67,5.52-3.21,9.53.42,3.63,2.73,7.09,3.27,10.79.51,3.44,1,6.82,1.3,10.3.41,5,.1,10.17.31,15.25-.21-5,1.31-9,2.92-13.79q.31.08.33.48c-1.74-10.41-6.21-20.64-4.39-31.34.61-3.58,2-8.76.83-11.77Z"/><path class="cls-9" d="M23.41,13.23c-5.06,8.71-19.14,26.45-7,35.88-6,5.22-3.91,12-4.44,19-.58,7.52.13,19.49-2.48,26.43,0,.15,28.65,1.76,32.33,1.32,10.73-1.31,20.25-14,30-18.58-7.5,5.2-19.15,5.65-28,5.85-10.88.24-9.23-2.14-8.6-11,.78-10.88-12.35-30.47-5-40.57,3.4-4.66,16.21-8,21.77-9.5C39.83,19.37,30.36,25,22.13,13.23Z"/><path class="cls-9" d="M100.86,84.73c-1.92-6.39-10.09-6.27-7.81-14.41-2.36,4.46-3,9.72-6.56,13.53-3.71,4-9,6.54-11.77,11.44,7.27,1.65,13.63,6.87,21,8.18C95.43,96.77,102.82,91.24,100.86,84.73Z"/><path class="cls-8" d="M20.75,93.08c7-.92,8.86-8.89,3.81-13.3-4.55-4-12.67-2.15-13,4.37C11.36,89.49,15.17,93.82,20.75,93.08Z"/><path class="cls-10" d="M22,91.8c7-.92,8.86-8.89,3.82-13.3-4.56-4-12.68-2.15-13,4.37C12.65,88.21,16.45,92.54,22,91.8Z"/><path class="cls-11" d="M24.56,81.06A7.84,7.84,0,0,1,27.17,89,7.63,7.63,0,0,0,25.85,78.5c-4.21-3.69-11.43-2.39-12.75,2.94C15.72,78.35,21.14,78.06,24.56,81.06Z"/><path class="cls-8" d="M90.68,32.56c5.15,0,10.84-3.79,7.44-10.77a6.13,6.13,0,0,0-7.53-3.25,9.07,9.07,0,0,0-6.19,5.77C82.62,29.91,86.47,32.53,90.68,32.56Z"/><path class="cls-10" d="M92,31.28c5.14,0,10.83-3.79,7.44-10.77a6.14,6.14,0,0,0-7.54-3.25A9,9,0,0,0,85.69,23C83.9,28.63,87.76,31.24,92,31.28Z"/><path class="cls-11" d="M99.41,20.51a6.14,6.14,0,0,0-7.54-3.25A9,9,0,0,0,85.69,23l0,0a9.29,9.29,0,0,1,3.63-2,6.12,6.12,0,0,1,7.54,3.25,8.18,8.18,0,0,1,.9,5.17C100.19,27.78,101.46,24.72,99.41,20.51Z"/><path class="cls-10" d="M84.6,91.72c-3.56,1.68.57,4.52,2.45,1.63,1.64-2.52-1.12-4-2.77-1.63Z"/><path class="cls-10" d="M92.29,82.75c-1.79,3.66,5.13,4.61,4.11-.27-1.44-.57-2.86-.81-3.79,0Z"/><path class="cls-10" d="M99.34,97.16a5.72,5.72,0,0,0-.92,3.48c4,.74,5.41-6.22,1.56-4.76Z"/><path class="cls-10" d="M18.29,30.21c-1.57,2.51-.24,7.69,3.08,4.52,2.39-2.28-.75-6.37-3.08-4.2Z"/><path class="cls-10" d="M18.29,60.64c-1.85,1-3.49,2.6-3.17,4.85,4.39,1.81,9.75-5.86,4.13-5.81Z"/><path class="cls-10" d="M69.86,59.08c.75-2.3-1.77-5.51-4.09-3.78C62.31,57.87,68.54,63.13,69.86,59.08Z"/><path class="cls-10" d="M59,73.78c-2,1.1-1.18,3.88,1.12,3.18,2.13-.65,2-4.09-.48-3.5Z"/><path class="cls-10" d="M76.31,19.74c-2.29,2.23-4.48-.2-3.24-2.66.44-.89,2.33-1.19,3.13-.72C77.45,17.1,77.21,18.87,76.31,19.74Z"/><path class="cls-12" d="M58,18.1c-5.28.76-10.47-.51-15.67-1.28s-10.22.77-15.2-.25c-2.05-.42-3.4-1.93-5.09-3,1.47,2,1.27,4,0,6-.87,1.36-4.44,3.52-4.46,5.07,0,.55,1.56,2.09,1.86,2.67a14.45,14.45,0,0,1,1.13,3.38A49.74,49.74,0,0,1,21.44,38c.32,4.2,1,7.7-.25,11.83-.94,3.1-2.61,6-3.86,9-.85,2.06-2.67,3.86-3.34,5.88s.78,3.84,1,6c0-.42,12,3.75,13.14,4.5,4.48,3,6.58,8.69,7.1,13.93.33,3.34,1,3.79,4.38,3.35a33.62,33.62,0,0,0,8.94-2.3c5.61-2.45,11.1-4.87,16.65-7.4,4.93-2.24,11-5.49,12.79-11,2.26-7,.51-13.76,4.21-20.78,3.6-6.83,9.41-12.18,15.59-16.65-5.39,2.6-12.38.2-16.74-3.37-2.15-1.76-4-3.77-3.83-6.62.22-3.31,2.51-6.07,4.46-8.56C73.88,15.31,65.78,17,58,18.1Z"/><path class="cls-13" d="M99.66,54.23c-5,8.39-6.48,18.68-12.14,26.63-4.16,5.84-9.27,11-13.23,17,7.38-8.77,16.47-14.8,20.37-25.64,4,2.73,5.83,10.44,6.28,15.12-.21-9.89-6.75-23.87-.64-33.13Z"/><path class="cls-13" d="M23.41,13.87c3.06.53,5.87,5.57,10.63,6.41s9-1.84,13.64-1.3c4,.48,7,2.73,11.06,3.22,3.77.45,8-.75,12-.54.87,9.91,13.2,14.17,21.65,15.89a55.54,55.54,0,0,0-8.64,11.51c2.75-6.23,8.23-9.54,12.49-14.58-5.74.64-9.79-2-14.26-5.3s-5-8.61-8.82-10.62C69.59,16.68,61,18.92,57,19c-6.16.1-10.43-1.6-16.28-2.57-3-.49-6.47.78-9.39,0s-4.55-2.77-7.29-3.84Z"/><path class="cls-13" d="M30.67,34.16c-4.8,9.5-7.9,13.41-.76,21.31,4.35,4.83,5.71.74,6.47,6.62.22,1.7-3.34,6-3.28,8.77.28,12.65,21.08,10.8,30.63,10.29-8.57.67-28.23-7.55-28.66-13.08-.24-3.14,4.25-6.3,4-9-.3-3.94-3-3.45-4.72-6.73C31.52,46.87,27.9,43.49,29,36.72Z"/><path class="cls-8" d="M6,22.21c0,8.37,1.47,16,2.29,24.16.4,4.05-.72,7.19-.91,11.05a29.24,29.24,0,0,0,.44,6.1c.4,2.7-.21,5.19-.39,7.91A46.94,46.94,0,0,0,7.2,79.3c.26,2.64.83,5.64.17,8.25a149.13,149.13,0,0,1,2.4-21c.92-4.48.6-9.34.37-13.9a35.68,35.68,0,0,1-.24-6,40.56,40.56,0,0,0,.7-6.1c-.13-3.33-2.49-5.91-3.18-9.15A75.78,75.78,0,0,1,6,22.21Z"/><path class="cls-8" d="M8.07,94.48c4,2.72,8.65,4.5,12.9,6.68,1.83.94,3.67,2,5.52,2.75,1.61.67,3.07,2,4.8,2.62-2.51-2.53-4.74-5.31-8.12-6.78-3.17-1.37-6.65-1.9-9.71-3.41C11.62,95.45,9.84,93.93,8.07,94.48Z"/><path class="cls-8" d="M23.72,96.32c3.86-.28,7.8.62,11.75.23,2.93-.28,6,.16,9-.23,2.66-.35,5.3-1.95,7.84-2.8s5.05-1.69,7.48-2.72a45.46,45.46,0,0,0,7.92-3.87,84.47,84.47,0,0,1-17,8.76c-6.9,2.67-14.37,3-21.87,2.94A22.48,22.48,0,0,1,23,97.72c-1.31-.38-4.13-.71-5.07-1.57A27.67,27.67,0,0,1,23.72,96.32Z"/><path class="cls-8" d="M51.57,107.09c7,2.25,14.57-1.73,21.58-2.43,6.14-.6,13-.47,18.31,2.77,2.43,1.47,6,4,8.91,2.06a14.84,14.84,0,0,1-4.26,1.22c-1.82.21-2.23-.28-4.07-1a16,16,0,0,1-4.57-2.5c-1.5-1.2-2.67-1.12-4.65-1.12-4.46,0-8.84-.66-13.26.21-3.68.73-7.14,1.74-10.78,2.68-2.27.58-4.32.08-6.6-.49a20.16,20.16,0,0,1-2.86-.85c-.64-.28-1.16-.86-1.86-1.22A22.18,22.18,0,0,0,51.57,107.09Z"/><path class="cls-8" d="M92.45,97.54c2.69,0,5.67-2,3.89-5.64a3.21,3.21,0,0,0-4-1.7,4.76,4.76,0,0,0-3.23,3C88.23,96.15,90.24,97.52,92.45,97.54Z"/><path class="cls-10" d="M93.12,96.87c2.69,0,5.67-2,3.89-5.64a3.21,3.21,0,0,0-4-1.7,4.74,4.74,0,0,0-3.23,3C88.9,95.48,90.91,96.85,93.12,96.87Z"/><path class="cls-11" d="M97,91.23a3.21,3.21,0,0,0-4-1.7,4.74,4.74,0,0,0-3.23,3s0,0,0,0a4.93,4.93,0,0,1,1.9-1,3.21,3.21,0,0,1,4,1.7A4.26,4.26,0,0,1,96.14,96C97.42,95,98.08,93.43,97,91.23Z"/><path class="cls-8" d="M27,25.39c1.36-1.63,1.53-4.25-.29-5.64-2.73-2.08-5.91.51-5.74,3.37C21.23,26.65,24.59,28.36,27,25.39Z"/><path class="cls-10" d="M27.69,24.54c1.35-1.64,1.52-4.26-.3-5.64-2.73-2.08-5.91.51-5.73,3.37C21.87,25.79,25.23,27.51,27.69,24.54Z"/><path class="cls-11" d="M27.39,18.9a3.42,3.42,0,0,0-5.12,1,3.29,3.29,0,0,1,3.84.24,3.86,3.86,0,0,1,.51,5.32,4.72,4.72,0,0,0,1.07-1C29,22.9,29.21,20.28,27.39,18.9Z"/><ellipse class="cls-14" cx="56.81" cy="104.08" rx="32.2" ry="5.09"/><polygon class="cls-15" points="21.94 102.17 9.19 76.2 32.09 25.27 66.55 23.09 100.62 76.16 77.76 103.29 21.94 102.17"/><polygon class="cls-16" points="27.6 96.5 14.86 70.53 37.75 19.6 72.22 17.42 106.29 70.5 83.43 97.62 27.6 96.5"/><polygon class="cls-17" points="44.23 29.61 27.08 70.13 38.97 88.84 84.36 87.47 93.13 61.56 68.97 27.85 44.23 29.61"/><path class="cls-18" d="M42.32,33.12c-2.87,2.26-4.36,6.16-5.54,9.54-2.77,7.92-4.61,16.17-7.41,24-.5,1.41-1.83,3.81-1.7,5.31s2,3.72,2.88,5.17c1.23,2.06,3,5.52,5.11,6.23,3.11,1.05,7.43-.27,10.49-.61.65-3.4-4.17-4.85-5-7.74,4.13-.09,5.09,4.86,8.4,6.07,2.53.92,4.61.51,7.17.56s5.23,1,7.89.94c4.42-.11,10.51,1.91,14.42-1A15.67,15.67,0,0,0,82,78a28.11,28.11,0,0,1,6.4-6.34c1.67-1.2,3.68-3.53,6-2.64-1.8-1.49-3.86-2.62-5.74-4-4.5-3.34-8.09-7.81-12.45-11.53-4-3.43-8.48-7.32-11.76-11.59-6.95,3.78-12.28,10-18.93,14.29-2.36,1.52-5.38,4.77-8,5.36,5.65-8.47,11.19-16.48,19.11-23,2.19-1.81,6.18-3.59,7.28-6.43s-2.29-2.21-4.48-2.64a30.09,30.09,0,0,0-9.27-.56C47,29.25,44.79,31.18,42.32,33.12Z"/><path class="cls-19" d="M45,32.33c-.25,3.6-3.51,7.83-4.73,11.3-1.36,3.89-2.66,7.55-4.38,11.3C34.33,58.39,33,62,31.43,65.3c-.82,1.71-1.83,2.68-1,4.56S31.87,73,32.54,74.8A21,21,0,0,0,37,81.94c1.23,1.26,1.36,1,3.52.85,1.9-.11,3.75-.34,5.64-.42A39.11,39.11,0,0,1,41.28,75c-4.61.23-3.33-5-3.06-8.49.48-6.21,2.34-12.61,4.07-18.58,1.07-3.68,1.42-7.49,2.13-11.21C44.7,35.29,45.29,33.07,45,32.33Z"/><path class="cls-20" d="M43.65,73.25c9.32,4.2,22,3.52,31.36-.63,4-1.81,10.93-6.39,9-11.44-1.23-3.2-3.23-7.66-5.33-10.12,2.27,3,4.43,6,6.59,9.15A41.47,41.47,0,0,0,91.4,67.8c-1.68,2.43-3.94,4.69-5.84,7-2.43,2.95-4.5,6.06-6.65,9.19-1.2,1.73-1.19,1.72-3.32,1.45s-4.56-.59-6.84-.84c-4.87-.51-10.67,1.13-15.41,0-2.09-.52-3.81-3.42-5.24-5.17A31.24,31.24,0,0,1,43.65,73.25Z"/><polygon class="cls-21" points="39.16 21.42 71.11 19.67 65.07 30.58 45.59 31.75 39.16 21.42"/><polygon class="cls-22" points="103.65 70.33 89.04 67.02 65.07 30.58 71.11 19.67 103.65 70.33"/><polygon class="cls-23" points="45.59 31.75 39.16 21.42 17.14 70.91 30 68.96 45.59 31.75"/><polygon class="cls-24" points="36.63 82.41 28.83 94.29 17.14 70.91 30 68.96 36.63 82.41"/><polygon class="cls-25" points="36.63 82.41 78.71 82.41 82.9 95.66 28.83 94.29 36.63 82.41"/><polygon class="cls-26" points="78.71 82.41 89.04 67.02 103.65 70.33 82.61 95.36 78.71 82.41"/><path class="cls-27" d="M71.42,20.14l-.29-.45c-5.54,5.3-13.59,5.73-20.86,5.73a11.91,11.91,0,0,1-6.41-1.68A26.75,26.75,0,0,1,40,21.37l-.88.05,6.43,10.33,19.48-1.17,3.17,4.82a6,6,0,0,1,.41.62l.14.22C66.26,30.67,68.89,25.3,71.42,20.14Z"/><path class="cls-28" d="M102.25,69.3c-1-1-2.06-1.88-3.09-2.83A63.82,63.82,0,0,1,93.8,60.2c-1.57-1.89-3.42-3.41-4.9-5.45-1.84-2.54-3.5-5.21-5.2-7.85a129.23,129.23,0,0,1-7.27-12.24,61.15,61.15,0,0,1-2.92-7.78A12.59,12.59,0,0,1,73,22.63L71.58,20.4c-.67.83-1.44,1.61-2.19,2.39l-4.32,7.79L83.77,59c2.44,2.77,4.91,5.53,8.08,7.47a34.46,34.46,0,0,0,4.39,2.17L103,70.18C102.69,69.8,102.41,69.46,102.25,69.3Z"/><path class="cls-29" d="M82.61,95.36l21-25-2.49-.57c-3.06-.24-7.28-1.69-10.28-.59-1.34.49-4.47,2.07-5.3,3.15-.64.82-1.22,2-1.84,2.87-1.52,2.21-3.77,4.28-3.41,7s2.3,5.38,2,8.37c-.08.86-.26,1.85-.35,2.83Z"/><path class="cls-30" d="M76.5,91.83a23.53,23.53,0,0,0-12.78-7.12c-2.77-.52-5.5-1.21-8.3-1.55-2.63-.32-5.61.58-8.07,0-2.19-.47-4.78-.16-7-.51-2.54-.4-4.08.49-5.32,2.7-.23.41-.49.82-.76,1.24L32.37,88.9l-3.54,5.39,50.51,1.28C78.39,94.35,77.56,93,76.5,91.83Z"/><path class="cls-31" d="M36.28,92.93a7.38,7.38,0,0,1-1.76.1,11.41,11.41,0,0,0,3.4-2.34A16.21,16.21,0,0,0,40.68,88,6.08,6.08,0,0,1,43,85.89c1.32-.7,4-2,3.41-4-.81-2.65-3.67-4.11-4.81-6.54,1.31,1.1,2.77,2,4,3.13a19.4,19.4,0,0,0,3,2.8,9,9,0,0,0,4,.8c1.51.08,2.85.61,4.41.59,1.33,0,4-.64,5.06-.1-2.81.81-6.18.81-9.07,1-1,.08-1.95.24-2.89.39a15.08,15.08,0,0,0-4.23,2,8,8,0,0,0-1.74,1.44c-1.08,1.1-2.09,2.2-3.27,3.2A9.93,9.93,0,0,1,36.28,92.93Z"/><path class="cls-32" d="M28.83,93.85l1.32-2a31,31,0,0,0,1.28-4.4,16.86,16.86,0,0,0-2.14-12.62,12.07,12.07,0,0,0-4.57-4.43c-2-1-4.38-.15-6.63-.07l-.95.14Z"/><path class="cls-33" d="M33.61,50.32c.25-1.4.52-2.8.81-4.21C36,38.38,37.53,30.7,38.51,22.89l-21.37,48L28.46,69.2a2.65,2.65,0,0,0,.95-.79c1-1.43,1.06-3.39,1.54-5,.53-1.77.81-3.52,1.19-5.33C32.68,55.5,33.13,52.91,33.61,50.32Z"/><path class="cls-34" d="M52.22,31.36c-.57,0-6.47,1-6.59.55-1.05-3.72-3.72-6.92-6.1-10,1,1,2.42,1.62,3.49,2.61s1.93,2.44,3.43,3c2.58.94,6.57.45,9.24.18,1.91-.18,3.64,0,5.39-.79A27.28,27.28,0,0,0,65.67,24c1.45-1,3.14-2.7,4.8-3.14,1,1.45.18,4.85.55,6.71a37.45,37.45,0,0,0,2.63,7.54,109.45,109.45,0,0,0,8.66,15.36c3.85,5.91,8.4,12.25,14.52,16,1.29.78,2.54.88,3.82,1.53a25.36,25.36,0,0,1,2.55,2c-1-.71-4.16-.06-5.48-.34-1.52-.32-2.4-1-4.07-.48-2.85.91-5.27,3.07-7.32,5.17-1.59,1.63-3,3.44-4.66,5.06-1.09,1.08-2.61,2.09-3.35,3.38.7-2.89,4.11-6.31,5.81-8.75,3.45-5,4-9.56.3-14.71-2.79-3.84-6.1-7.39-8.61-11.45-1.61-2.6-3.59-5-5.12-7.57-1.64-2.8-2.57-6-4.8-8.45-2-2.15-4.81-.76-7.35-.65C56.42,31.26,54.33,31.36,52.22,31.36Z"/><path class="cls-35" d="M18.48,70.15c2.3-3.28,3.29-7.91,5.15-11.41A217.29,217.29,0,0,0,33.57,37.2c-3.95,10-3,21.56-5.56,31.42.12-.44-9.5,2.19-10.15,2.35A9.79,9.79,0,0,0,18.48,70.15Z"/><path class="cls-35" d="M21.05,78.9c2.37,1.07,6.72,11.54,8,15.47,1.89-3.78,5.45-7.66,7.2-11.63C31,85.34,25.3,82.86,21.05,78.9Z"/><path class="cls-35" d="M81.49,91.68c-.61-1.94-1.09-3.92-1.78-5.84-.45-1.26-.71-3-1.95-3.43H74.84c-.48.06-.94.12-1.33.14-2.93.15-5.86.15-8.77.15a34.55,34.55,0,0,1-3.52-.29c-3-.31-6-.13-9-.2s-5.84.25-8.84.2c-1.83,0-4.51-.51-6.27,0a3.82,3.82,0,0,0-.65.25l-7.23,11c3.77-2.24,6.7-5.39,11.34-5.63,3.81-.2,7.63.53,11.4.27,2.87-.19,6.47-1.07,9.07.87A38.5,38.5,0,0,1,54.76,95c1.93-.25,3.87-2.12,5.51-3.15a8.45,8.45,0,0,1,8.12-.23c1.31.71,3.9,2.27,4.92,3.8l9.35.24A29.3,29.3,0,0,1,81.49,91.68Z"/><path class="cls-35" d="M78.91,82.8c1.47,4,3.06,7.88,4.33,11.82,2-2.12,3.55-4.64,5.62-6.72a33.44,33.44,0,0,0,5.61-6.59c-1.88,2.47-5.72,5.32-8.93,5.39C83.55,86.74,79.06,85.17,78.91,82.8Z"/><path class="cls-36" d="M36.63,93.9c4.33-1.53,7.45-4,12.08-4.28,4.14-.22,8.3-.19,12.36-.41-4.15,1.71-6.75,5.33-11.39,5.09C46.53,94.13,40.84,94.24,36.63,93.9Z"/><path class="cls-37" d="M80.34,89.86a27.21,27.21,0,0,1-2.76-7.28c-.08-.44-14.62-.11-16.06-.17a19.67,19.67,0,0,1-4-.3c1.92-.1,3.71.75,5.56,1.14,1.62.34,3.31.49,4.9,1a36.18,36.18,0,0,1,4.46,1.86,12,12,0,0,1,2.28.82c.41.3.43.94.62,1.11,2.74,2.46,5,5.23,7.47,7.86C83.05,93.83,81.27,91.61,80.34,89.86Z"/><path class="cls-38" d="M71.12,19.47c-1.9,3.85-4.59,7.46-8.68,9-3.75,1.41-7.81,1.56-11.73,2.15a41.12,41.12,0,0,0-5.25,1.09c5,.43,9.9-.37,14.85-.5,2-.06,3.81-.34,5.33,1.08s2.51,3.78,3.73,5.5a57.65,57.65,0,0,1,4.69,7c-2-4.4-4.24-8.9-5.53-13.64-.59-2.22.23-3.38.85-5.59C69.71,24.34,71.15,21,71.12,19.47Z"/><path class="cls-38" d="M39.75,22.2c.41,2.75,3.92,7,5.42,9.33A18.14,18.14,0,0,0,39.75,22.2Z"/><polygon class="cls-38" points="44.13 33.89 30 68.96 36.46 82.66 46.77 82.11 41.64 75.38 42.67 80.36 37.41 79.78 32.15 68.38 44.13 33.89"/><polygon class="cls-38" points="50.86 81.97 77.75 82.41 82.81 94.88 79.5 81.63 89.04 67.02 76.43 80.65 50.86 81.97"/><polygon class="cls-38" points="76.43 48.8 88.56 66.92 103.65 70.33 89.73 64.43 76.43 48.8"/><path class="cls-39" d="M35.08,93.12c1.56-.75,3.67-1.25,5.27-1.93,1.87-.81,2.49-2.33,3.88-3.82a14.46,14.46,0,0,1,10.13-4.18c1.94-.07,5.36-.88,7,.15-6.08.11-11.8,1.59-16.65,5.38C41.47,91.26,39.36,93,35.08,93.12Z"/><circle class="cls-40" cx="90.02" cy="78.9" r="1.46"/><path class="cls-40" d="M73.07,72.47A1.17,1.17,0,1,1,71.9,71.3,1.17,1.17,0,0,1,73.07,72.47Z"/><path class="cls-40" d="M54.07,50.4a2.19,2.19,0,1,1-2.19-2.19A2.19,2.19,0,0,1,54.07,50.4Z"/><path class="cls-40" d="M45.89,69a1.46,1.46,0,1,1-1.46-1.46A1.46,1.46,0,0,1,45.89,69Z"/><path class="cls-40" d="M64.3,38.71a.44.44,0,1,1-.44-.43A.44.44,0,0,1,64.3,38.71Z"/><path class="cls-41" d="M36.83,40a1.17,1.17,0,1,1-1.17-1.17A1.17,1.17,0,0,1,36.83,40Z"/><circle class="cls-41" cx="35.51" cy="50.7" r="2.48"/><circle class="cls-41" cx="26.45" cy="76.71" r="1.61"/><path class="cls-41" d="M52.61,91.76a1.46,1.46,0,1,1-1.46-1.46A1.46,1.46,0,0,1,52.61,91.76Z"/><path class="cls-41" d="M73.65,88.25a1.46,1.46,0,1,1-1.46-1.46A1.46,1.46,0,0,1,73.65,88.25Z"/><circle class="cls-40" cx="59.62" cy="25.12" r="1.46"/><path class="cls-40" d="M83.88,53.18a.59.59,0,0,1-.58.59.6.6,0,0,1-.59-.59.59.59,0,0,1,.59-.58A.58.58,0,0,1,83.88,53.18Z"/><path class="cls-37" d="M17.54,70.33C20.71,69.66,30,68.52,30,68.52s1.66-4,2.44-5.41A50.12,50.12,0,0,0,35.27,57c.93-2.41,1.81-4.89,2.64-7.33C33.46,57.23,27.28,70.05,17.54,70.33Z"/><path class="cls-37" d="M28.83,93.86c1.3-1.92,2.61-3.83,3.92-5.75.36-.53,4-4.94,3.71-5.45,0,0-6.06-12.08-6.06-12.09,1.62,3.24,2.13,9,1.46,12.49A56.79,56.79,0,0,1,28.83,93.86Z"/><path class="cls-35" d="M38.7,46.94a27.21,27.21,0,0,0,1.47-7.19,52,52,0,0,0,.46-6.69c-.06-1.3-.11-2.6-.2-3.89a63.09,63.09,0,0,0-1.26-7.52,12.11,12.11,0,0,0,1.32,2.83,37,37,0,0,0,2.27,3.85c.52.76,1.91,2.15,2.06,3,0,.26-.32.87-.4,1.12-.65,2.07-1.62,4.1-2.47,6.14-.61,1.45-1.16,2.93-1.76,4.38A16.12,16.12,0,0,0,38.7,46.94Z"/><polygon class="cls-42" points="40.03 44.7 30 68.96 36.63 82.41 42.68 82.11 36.58 80.96 31.17 68.76 40.03 44.7"/><polygon class="cls-42" points="84.13 73.99 79.5 81.63 80.17 86.97 78.32 82.74 72.83 82.4 78.27 81.45 84.13 73.99"/><polygon class="cls-42" points="69.38 23.36 67.14 30.43 71.28 39.93 64.89 31.12 49.53 31.82 65.41 29.92 69.38 23.36"/><path class="cls-43" d="M73.35,49.23c-1.45-2.9-4.54-6.1-8.07-5.91a7.87,7.87,0,0,1,2.06,6.35,4.85,4.85,0,0,1-.53,1.49c-.49-2.33-2.59-4.4-4.53-5.63C58,42.82,53.09,42.24,49.08,44a14.69,14.69,0,0,0-8.46,12.75c0,.58.22,2.65.77,3s.36-.18.55-.64a8.31,8.31,0,0,1,2-2.93,5.85,5.85,0,0,1,3.75-1.64,7.31,7.31,0,0,0-.7,1,14.8,14.8,0,0,0-2.09,8.38,12.53,12.53,0,0,0,7.59,11.17A16.38,16.38,0,0,0,59,76.53,12,12,0,0,0,62.55,76a7.84,7.84,0,0,0,2.35-1.17,4.56,4.56,0,0,0,1.75-3.6C65,72.72,62.77,72.37,61,71.17a2.8,2.8,0,0,1-1-1.24,7.45,7.45,0,0,0,2.2.32,12.79,12.79,0,0,0,5.43-1.42,14.41,14.41,0,0,0,7-9.1A15.7,15.7,0,0,0,73.35,49.23Z"/><path class="cls-44" d="M42.18,57.37a6.66,6.66,0,0,1,7.55-3.54c-.43.85-1.2,1.47-1.67,2.28a13.34,13.34,0,0,0-1.91,7.65A11.35,11.35,0,0,0,53,73.84a13.38,13.38,0,0,0,9.18.88,5.27,5.27,0,0,0,3-2.09c-1.32.76-3.63-.06-4.8-.86-1.52-1-1.68-2.39-2-4,2.46,2,5.92,1.24,8.54-.05,3.08-1.5,5.44-5,6.28-8.26a14.27,14.27,0,0,0-1.08-9.61,11.41,11.41,0,0,0-2.6-3.45,12.91,12.91,0,0,0-2.84-1.67c2.41,1.78,2,7.87-1.16,8.72.95-2.75-1.8-5.48-3.89-6.8-3.58-2.27-8-3.17-12-1.4A14.06,14.06,0,0,0,42.39,54,18.21,18.21,0,0,0,42,57.85,4.1,4.1,0,0,1,42.18,57.37Z"/><path class="cls-45" d="M72.14,49.87a11.41,11.41,0,0,0-2.6-3.45,12.91,12.91,0,0,0-2.84-1.67,2.51,2.51,0,0,1,.52.51,5.29,5.29,0,0,1,1.09,1.3,12.14,12.14,0,0,1,1,3.14,12.64,12.64,0,0,1-3.08,11.1c-2,2.3-7.15,5.87-10.48,4.51.5,1.58,2.93,3,4.42,3.42,2.27.71,4.75,0,6.82-1,3.08-1.5,5.44-5,6.28-8.26A14.27,14.27,0,0,0,72.14,49.87Z"/><path class="cls-45" d="M49.61,53.81l.07,0,0-.11Z"/><path class="cls-46" d="M68.24,46.84a6.79,6.79,0,0,0-.72-1.66c-.27-.13-.54-.27-.82-.43,2.41,1.78,2,7.87-1.16,8.72.95-2.75-1.8-5.48-3.89-6.8-3.58-2.27-8-3.17-12-1.4A13.35,13.35,0,0,0,42.32,56.7c0-2.51,2.57-5,4.52-6.16,2.94-1.78,5.7-3.46,9.3-2.47a7.41,7.41,0,0,1,4.12,2.64,9.12,9.12,0,0,1,1.49,5.51c0,.86-.1,3.38-1,3.86,3.67-2,8-4.4,8-9.13A13.92,13.92,0,0,0,68.24,46.84Z"/><path class="cls-45" d="M49.77,53.81a4.65,4.65,0,0,0-1.05,1.07,13.27,13.27,0,0,0,.33,15.62,11.72,11.72,0,0,0,7.83,4.37c2.26.37,6,0,7.57-1.89a5.84,5.84,0,0,1-4,.72c-3.65-.36-6-3-7.8-5.91-2.7-4.42-3.84-10.06-1.37-14.91A12.14,12.14,0,0,0,49.77,53.81Z"/><path class="cls-47" d="M67.69,51.29c-.67,1.5-2.39,4.22-4.29,4.29a15.42,15.42,0,0,0,.37-2.19,8.21,8.21,0,0,0-.45-2.69,7.16,7.16,0,0,0-4.24-4.48,12.21,12.21,0,0,0-7.57-.6A14,14,0,0,0,44.4,51c-.95,1.37-2.36,3.63-2.18,5.36a10.41,10.41,0,0,1,2-2.46c2.26-1.67,5.31-2.4,7.83-.75-.49-.32-1.56,1.11-1.77,1.45a16.4,16.4,0,0,0-2.65,7.7,10.54,10.54,0,0,0,.65,4.12,21.39,21.39,0,0,0,1.22,3.15c1.91,3.37,7,5.3,10.69,4.75a9.14,9.14,0,0,0,2.66-.88,6.82,6.82,0,0,1-5.43-1.64,5.36,5.36,0,0,1-1.55-6.11A5.64,5.64,0,0,0,60,67.5c5.34,0,9.66-3.89,11.07-9a15.51,15.51,0,0,0,.47-5.67A13.66,13.66,0,0,0,71,49.58a7.41,7.41,0,0,0-3.79-4.65c.84.36,1.06,1.88,1.11,2.7A7.31,7.31,0,0,1,67.69,51.29Z"/><path class="cls-48" d="M50.27,53.64c-.76.29-1.51,1.86-2,2.56A9.38,9.38,0,0,0,47,59.11,17.66,17.66,0,0,0,47,65.43a10.19,10.19,0,0,0,7.61,8.16c2.35.56,4.28.25,6.62.09-3.3.63-8.24-2.14-10.13-4.74-2.22-3-2.55-7.7-2-11.35a14.27,14.27,0,0,1,.46-2.27C49.67,54.75,50,54.38,50.27,53.64Z"/><path class="cls-48" d="M57.34,66.86c.56.56,2,.42,2.81.27,3.1-.59,6.2-1.71,8.31-4.11a17.52,17.52,0,0,0,3.88-8.1,4.67,4.67,0,0,0,0-2.84c.9,1.22.83,3.53.81,5,0,4.18-3.17,8.71-6.88,10.61C63.48,69.12,59.63,69.19,57.34,66.86Z"/><path class="cls-49" d="M46.74,59.64c-.17,2.48-.53,4.32.24,6.76a9.74,9.74,0,0,0,3.67,5.46,9.59,9.59,0,0,0,3.47,1.44c-2.69-.34-4.72-3.79-5.66-6A19.74,19.74,0,0,1,46.74,59.64Z"/><path class="cls-49" d="M62.19,68.36C66,68,70.93,63.77,71.9,60.12a9.92,9.92,0,0,0,.61-3.5,9.5,9.5,0,0,1-2.36,8.21C68,67.34,65.38,68.05,62.19,68.36Z"/><path class="cls-42" d="M42.15,54.84a13.54,13.54,0,0,1,7.29-9.32c2.88-1.47,8.53-1.72,10.79,1.17a7.6,7.6,0,0,0-2.9-.93C51.5,44.89,43.44,48.47,42.15,54.84Z"/><path class="cls-42" d="M67.1,45.17c1.45,1.13,1.19,4.61.44,6.12a8.79,8.79,0,0,1-4.64,4.36C67.17,55.72,71,48.15,67.1,45.17Z"/><path class="cls-50" d="M46.62,66.35c2.47,9.48,15.24,11,18.54,6.48C57,77,48.44,72.47,46.62,66.35Z"/><path class="cls-50" d="M72.22,50.05c3.85,11-2.37,19-10.71,19C70.1,68,75.15,59.86,72.22,50.05Z"/><path class="cls-50" d="M42,57.85c1.17-4.38,3.82-5.63,7.8-4C45.89,53.26,43.37,54.71,42,57.85Z"/><polygon class="cls-51" points="27.6 96.5 14.86 70.53 37.75 19.6 72.22 17.42 106.29 70.5 83.43 97.62 27.6 96.5"/><polygon class="cls-50" points="36.46 82.66 29 94.37 17.14 70.91 28.81 91.2 36.46 82.66"/><path class="cls-50" d="M29.79,94.42a347.29,347.29,0,0,1,52.82.94Z"/><polygon class="cls-52" points="30 68.96 17.33 70.75 39.16 21.42 19.75 68.67 30 68.96"/></g></g></g></svg>