<svg xmlns="http://www.w3.org/2000/svg" xmlns:xlink="http://www.w3.org/1999/xlink" viewBox="0 0 543.11 451.99"><defs><style>.cls-1{mask:url(#mask);}.cls-2,.cls-4{mix-blend-mode:multiply;}.cls-2{fill:url(#radial-gradient);}.cls-3{mask:url(#mask-2);}.cls-4{fill:url(#radial-gradient-2);}.cls-5{isolation:isolate;}.cls-6{fill:url(#Безымянный_градиент_2);}.cls-10,.cls-11,.cls-14,.cls-19,.cls-20,.cls-21,.cls-22,.cls-23,.cls-24,.cls-25,.cls-27,.cls-28,.cls-32,.cls-36,.cls-37,.cls-38,.cls-40,.cls-41,.cls-43,.cls-45,.cls-46,.cls-47,.cls-50,.cls-51,.cls-52,.cls-54,.cls-55,.cls-56,.cls-57,.cls-59,.cls-61,.cls-7{mix-blend-mode:overlay;}.cls-11,.cls-14,.cls-19,.cls-20,.cls-21,.cls-22,.cls-23,.cls-24,.cls-25,.cls-27,.cls-28,.cls-32,.cls-37,.cls-38,.cls-43,.cls-45,.cls-46,.cls-47,.cls-50,.cls-51,.cls-52,.cls-55,.cls-57,.cls-7{opacity:0.41;}.cls-7{fill:url(#Безымянный_градиент_7);}.cls-8{fill:#442908;opacity:0.17;}.cls-12,.cls-13,.cls-15,.cls-16,.cls-17,.cls-18,.cls-26,.cls-29,.cls-35,.cls-9{opacity:0.63;}.cls-9{fill:url(#Безымянный_градиент_2-2);}.cls-10,.cls-54{opacity:0.33;}.cls-10{fill:url(#Безымянный_градиент_7-2);}.cls-11{fill:url(#Безымянный_градиент_7-3);}.cls-12{fill:url(#Безымянный_градиент_2-3);}.cls-13{fill:url(#Безымянный_градиент_2-4);}.cls-14{fill:url(#Безымянный_градиент_7-4);}.cls-15{fill:url(#Безымянный_градиент_2-5);}.cls-16{fill:url(#Безымянный_градиент_2-6);}.cls-17{fill:url(#Безымянный_градиент_2-7);}.cls-18{fill:url(#Безымянный_градиент_2-8);}.cls-19{fill:url(#Безымянный_градиент_7-5);}.cls-20{fill:url(#Безымянный_градиент_7-6);}.cls-21{fill:url(#Безымянный_градиент_7-7);}.cls-22{fill:url(#Безымянный_градиент_7-8);}.cls-23{fill:url(#Безымянный_градиент_7-9);}.cls-24{fill:url(#Безымянный_градиент_7-10);}.cls-25{fill:url(#Безымянный_градиент_7-11);}.cls-26{fill:url(#Безымянный_градиент_2-9);}.cls-27{fill:url(#Безымянный_градиент_7-12);}.cls-28{fill:url(#Безымянный_градиент_7-13);}.cls-29{fill:url(#Безымянный_градиент_2-10);}.cls-30{fill:url(#Безымянный_градиент_2-11);}.cls-31{fill:url(#Безымянный_градиент_2-12);}.cls-32{fill:url(#Безымянный_градиент_7-14);}.cls-33{fill:url(#Безымянный_градиент_2-13);}.cls-34{fill:url(#Безымянный_градиент_2-14);}.cls-35{fill:url(#Безымянный_градиент_2-15);}.cls-36,.cls-40,.cls-41{opacity:0.3;}.cls-36{fill:url(#Безымянный_градиент_7-15);}.cls-37{fill:url(#Безымянный_градиент_7-16);}.cls-38{fill:url(#Безымянный_градиент_7-17);}.cls-39{fill:url(#Безымянный_градиент_2-16);}.cls-40{fill:url(#Безымянный_градиент_7-18);}.cls-41{fill:url(#Безымянный_градиент_7-19);}.cls-42{fill:url(#Безымянный_градиент_2-17);}.cls-43{fill:url(#Безымянный_градиент_7-20);}.cls-44{fill:url(#Безымянный_градиент_2-18);}.cls-45{fill:url(#Безымянный_градиент_7-21);}.cls-46{fill:url(#Безымянный_градиент_7-22);}.cls-48{fill:url(#Безымянный_градиент_7-23);}.cls-49{fill:url(#Безымянный_градиент_7-24);}.cls-50{fill:url(#Безымянный_градиент_7-25);}.cls-51{fill:url(#Безымянный_градиент_7-26);}.cls-52{fill:url(#Безымянный_градиент_7-27);}.cls-53{fill:url(#Безымянный_градиент_7-28);}.cls-54{fill:url(#Безымянный_градиент_7-29);}.cls-55{fill:url(#Безымянный_градиент_7-30);}.cls-56{opacity:0.2;fill:url(#Безымянный_градиент_7-31);}.cls-57{fill:url(#Безымянный_градиент_7-32);}.cls-58{mask:url(#mask-3);}.cls-59,.cls-61{opacity:0.83;}.cls-59{fill:url(#Безымянный_градиент_130);}.cls-60{mask:url(#mask-4);}.cls-61{fill:url(#Безымянный_градиент_130-2);}.cls-62{filter:url(#luminosity-noclip-2);}.cls-63{filter:url(#luminosity-noclip);}</style><filter id="luminosity-noclip" x="50.54" y="-8999.16" width="229.96" height="32766" filterUnits="userSpaceOnUse" color-interpolation-filters="sRGB"><feFlood flood-color="#fff" result="bg"/><feBlend in="SourceGraphic" in2="bg"/></filter><mask id="mask" x="50.54" y="-8999.16" width="229.96" height="32766" maskUnits="userSpaceOnUse"><g class="cls-63"/></mask><radialGradient id="radial-gradient" cx="-280.81" cy="514.31" r="91.63" gradientTransform="matrix(-0.92, -0.86, -0.85, 0.91, 347.2, -492.41)" gradientUnits="userSpaceOnUse"><stop offset="0" stop-color="#fff"/><stop offset="0.01" stop-color="#f9f9f9"/><stop offset="0.13" stop-color="#bfbfbf"/><stop offset="0.25" stop-color="#8c8c8c"/><stop offset="0.37" stop-color="#616161"/><stop offset="0.49" stop-color="#3e3e3e"/><stop offset="0.62" stop-color="#232323"/><stop offset="0.74" stop-color="#0f0f0f"/><stop offset="0.87" stop-color="#040404"/><stop offset="1"/></radialGradient><filter id="luminosity-noclip-2" x="237.18" y="-8999.16" width="295.58" height="32766" filterUnits="userSpaceOnUse" color-interpolation-filters="sRGB"><feFlood flood-color="#fff" result="bg"/><feBlend in="SourceGraphic" in2="bg"/></filter><mask id="mask-2" x="237.18" y="-8999.16" width="295.58" height="32766" maskUnits="userSpaceOnUse"><g class="cls-62"/></mask><radialGradient id="radial-gradient-2" cx="-369.58" cy="352.98" r="117.78" xlink:href="#radial-gradient"/><linearGradient id="Безымянный_градиент_2" x1="343.26" y1="68.78" x2="281.56" y2="582.74" gradientTransform="matrix(1, -0.04, 0.04, 1, -48.71, -1.6)" gradientUnits="userSpaceOnUse"><stop offset="0.02" stop-color="#c9920d"/><stop offset="1" stop-color="#b8772c"/></linearGradient><linearGradient id="Безымянный_градиент_7" x1="419.18" y1="60.18" x2="429.99" y2="311.99" gradientTransform="matrix(1, -0.04, 0.04, 1, -48.71, -1.6)" gradientUnits="userSpaceOnUse"><stop offset="0" stop-color="#edfdab"/><stop offset="0.96" stop-color="#ffc96b"/></linearGradient><linearGradient id="Безымянный_градиент_2-2" x1="447.92" y1="218.68" x2="447.92" y2="123.86" xlink:href="#Безымянный_градиент_2"/><linearGradient id="Безымянный_градиент_7-2" x1="344.46" y1="56.24" x2="256.08" y2="382.49" xlink:href="#Безымянный_градиент_7"/><linearGradient id="Безымянный_градиент_7-3" x1="300.41" y1="128.88" x2="307.46" y2="532.17" xlink:href="#Безымянный_градиент_7"/><linearGradient id="Безымянный_градиент_2-3" x1="493.4" y1="265.41" x2="501.2" y2="210.19" xlink:href="#Безымянный_градиент_2"/><linearGradient id="Безымянный_градиент_2-4" x1="404.99" y1="228.06" x2="409.19" y2="166.84" xlink:href="#Безымянный_градиент_2"/><linearGradient id="Безымянный_градиент_7-4" x1="561.62" y1="200.38" x2="540.02" y2="424.9" xlink:href="#Безымянный_градиент_7"/><linearGradient id="Безымянный_градиент_2-5" x1="286.88" y1="344.17" x2="300.68" y2="273.35" xlink:href="#Безымянный_градиент_2"/><linearGradient id="Безымянный_градиент_2-6" x1="317.87" y1="338.85" x2="324.48" y2="290.84" xlink:href="#Безымянный_градиент_2"/><linearGradient id="Безымянный_градиент_2-7" x1="181.15" y1="341.76" x2="205.76" y2="258.95" xlink:href="#Безымянный_градиент_2"/><linearGradient id="Безымянный_градиент_2-8" x1="112.5" y1="307.32" x2="128.7" y2="240.11" xlink:href="#Безымянный_градиент_2"/><linearGradient id="Безымянный_градиент_7-5" x1="472.37" y1="92.81" x2="422.59" y2="249.42" xlink:href="#Безымянный_градиент_7"/><linearGradient id="Безымянный_градиент_7-6" x1="458" y1="79.56" x2="425.25" y2="227.92" xlink:href="#Безымянный_градиент_7"/><linearGradient id="Безымянный_градиент_7-7" x1="508.61" y1="174.49" x2="492" y2="249.69" xlink:href="#Безымянный_градиент_7"/><linearGradient id="Безымянный_градиент_7-8" x1="495.24" y1="248.25" x2="528.27" y2="248.25" xlink:href="#Безымянный_градиент_7"/><linearGradient id="Безымянный_градиент_7-9" x1="185.9" y1="280.81" x2="232.6" y2="280.81" xlink:href="#Безымянный_градиент_7"/><linearGradient id="Безымянный_градиент_7-10" x1="332.5" y1="236.78" x2="301.77" y2="295.88" xlink:href="#Безымянный_градиент_7"/><linearGradient id="Безымянный_градиент_7-11" x1="179.45" y1="300.29" x2="225.84" y2="300.29" xlink:href="#Безымянный_градиент_7"/><linearGradient id="Безымянный_градиент_2-9" x1="424.75" y1="346.59" x2="430.87" y2="274.63" xlink:href="#Безымянный_градиент_2"/><linearGradient id="Безымянный_градиент_7-12" x1="344.11" y1="222.71" x2="306.28" y2="277.09" xlink:href="#Безымянный_градиент_7"/><linearGradient id="Безымянный_градиент_7-13" x1="404.87" y1="257.39" x2="412.62" y2="166.34" xlink:href="#Безымянный_градиент_7"/><linearGradient id="Безымянный_градиент_2-10" x1="237.86" y1="267.88" x2="241.25" y2="228.09" xlink:href="#Безымянный_градиент_2"/><linearGradient id="Безымянный_градиент_2-11" x1="96.44" y1="397.18" x2="102.12" y2="330.44" xlink:href="#Безымянный_градиент_2"/><linearGradient id="Безымянный_градиент_2-12" x1="306.2" y1="372.48" x2="308.73" y2="342.77" xlink:href="#Безымянный_градиент_2"/><linearGradient id="Безымянный_градиент_7-14" x1="453.56" y1="233.71" x2="424.32" y2="304.31" xlink:href="#Безымянный_градиент_7"/><linearGradient id="Безымянный_градиент_2-13" x1="434.67" y1="328.55" x2="356.18" y2="406.09" xlink:href="#Безымянный_градиент_2"/><linearGradient id="Безымянный_градиент_2-14" x1="539.52" y1="307.59" x2="380.2" y2="464.99" xlink:href="#Безымянный_градиент_2"/><linearGradient id="Безымянный_градиент_2-15" x1="475.81" y1="297.78" x2="425.42" y2="347.56" xlink:href="#Безымянный_градиент_2"/><linearGradient id="Безымянный_градиент_7-15" x1="534.21" y1="349.44" x2="484.42" y2="409.6" xlink:href="#Безымянный_градиент_7"/><linearGradient id="Безымянный_градиент_7-16" x1="360.34" y1="288.66" x2="337.27" y2="316.54" xlink:href="#Безымянный_градиент_7"/><linearGradient id="Безымянный_градиент_7-17" x1="273.44" y1="206.41" x2="235.48" y2="252.28" xlink:href="#Безымянный_градиент_7"/><linearGradient id="Безымянный_градиент_2-16" x1="253.27" y1="332.39" x2="243.66" y2="451.21" xlink:href="#Безымянный_градиент_2"/><linearGradient id="Безымянный_градиент_7-18" x1="450.56" y1="377.33" x2="427.31" y2="435.98" xlink:href="#Безымянный_градиент_7"/><linearGradient id="Безымянный_градиент_7-19" x1="303.62" y1="354.72" x2="280.36" y2="414.39" xlink:href="#Безымянный_градиент_7"/><linearGradient id="Безымянный_градиент_2-17" x1="362.99" y1="367.26" x2="319.81" y2="476.14" xlink:href="#Безымянный_градиент_2"/><linearGradient id="Безымянный_градиент_7-20" x1="199.19" y1="237.24" x2="127.91" y2="361.61" xlink:href="#Безымянный_градиент_7"/><linearGradient id="Безымянный_градиент_2-18" x1="478.34" y1="466.51" x2="518.79" y2="376.51" xlink:href="#Безымянный_градиент_2"/><linearGradient id="Безымянный_градиент_7-21" x1="32.63" y1="458.63" x2="144.15" y2="326.46" xlink:href="#Безымянный_градиент_7"/><linearGradient id="Безымянный_градиент_7-22" x1="140.17" y1="524.87" x2="340.08" y2="287.93" xlink:href="#Безымянный_градиент_7"/><linearGradient id="Безымянный_градиент_7-23" x1="281.55" y1="496.52" x2="373.71" y2="387.29" xlink:href="#Безымянный_градиент_7"/><linearGradient id="Безымянный_градиент_7-24" x1="340.82" y1="535.05" x2="547.46" y2="290.15" xlink:href="#Безымянный_градиент_7"/><linearGradient id="Безымянный_градиент_7-25" x1="326.5" y1="181.8" x2="359.62" y2="181.8" xlink:href="#Безымянный_градиент_7"/><linearGradient id="Безымянный_градиент_7-26" x1="251.75" y1="225.71" x2="237.09" y2="261.11" xlink:href="#Безымянный_градиент_7"/><linearGradient id="Безымянный_градиент_7-27" x1="110.64" y1="236.84" x2="92.09" y2="281.63" xlink:href="#Безымянный_градиент_7"/><linearGradient id="Безымянный_градиент_7-28" x1="330.18" y1="223.26" x2="299.54" y2="332.76" xlink:href="#Безымянный_градиент_7"/><linearGradient id="Безымянный_градиент_7-29" x1="485.29" y1="260.94" x2="354.83" y2="727.19" xlink:href="#Безымянный_градиент_7"/><linearGradient id="Безымянный_градиент_7-30" x1="433.17" y1="15.74" x2="300.88" y2="488.51" xlink:href="#Безымянный_градиент_7"/><linearGradient id="Безымянный_градиент_7-31" x1="158.7" y1="131.64" x2="-143.4" y2="1211.26" xlink:href="#Безымянный_градиент_7"/><linearGradient id="Безымянный_градиент_7-32" x1="389.86" y1="322.93" x2="459.97" y2="322.93" xlink:href="#Безымянный_градиент_7"/><mask id="mask-3" x="50.54" y="103.13" width="229.96" height="229.83" maskUnits="userSpaceOnUse"><g class="cls-1"><path class="cls-2" d="M81.35,139c-43.27,46.07-40.64,118.81,5.84,162.45s119.25,41.67,162.5-4.4,40.65-118.82-5.84-162.46S124.6,93,81.35,139Z"/></g></mask><radialGradient id="Безымянный_градиент_130" cx="-280.81" cy="514.31" r="91.63" gradientTransform="matrix(-0.92, -0.86, -0.85, 0.91, 347.2, -492.41)" gradientUnits="userSpaceOnUse"><stop offset="0" stop-color="#edfdab"/><stop offset="0.96" stop-color="#ffc983"/></radialGradient><mask id="mask-4" x="237.18" y="0" width="295.58" height="295.41" maskUnits="userSpaceOnUse"><g class="cls-3"><path class="cls-4" d="M276.78,46.14c-55.61,59.21-52.24,152.71,7.5,208.8s153.28,53.57,208.88-5.66,52.23-152.72-7.52-208.82S332.37-13.09,276.78,46.14Z"/></g></mask><radialGradient id="Безымянный_градиент_130-2" cx="-369.58" cy="352.98" r="117.78" xlink:href="#Безымянный_градиент_130"/></defs><g class="cls-5"><g id="Слой_2" data-name="Слой 2"><g id="_Layer_" data-name="&lt;Layer&gt;"><path class="cls-6" d="M365.51,93.61c-2.24.09-21.68-1.39-31.43,16.13S315.81,138,298.86,143.16s-35.52,6.59-40.86,22.45S241.29,196.08,236.85,197s-62.76,15.12-79.59,23.22-27.59,19-36.49,20-23.76,2.42-29,1.13-16-7.57-30.06-6.28-24.87,12.14-32,19.13a51.61,51.61,0,0,0-14,23.65c-2.63,9.05-4.46,19.55-1.19,26.88s5.76,13.94-.36,29.08-18.76,35-12.32,47.44,5,12.48,9.83,22.72,30.18,28.64,54.74,27.69,27.36-5.54,46-5.52S133,440.29,154.8,444.66s18.16,6.74,41.11,2.87,19.87-6.73,31.51-13.9S256,440,261.4,445s30.21,10,48.64,4.82,27.44-3.3,43.07-3.91,40.07-4.54,55.3-15.57,32.63-4.25,51.32-2.74,42.71,5.79,52-5,6.06-16.63,16.82-27.49,21.76-34.38,8.48-50.26-22.42-20.75-26.57-31.76-12.66-18.89-13-27.08-1.64-23,1.5-38.07,2.1-22.44-10.47-39.09S473,193,463,186.71s-16.28-16.51-13.74-27.79,7.83-9.25,9.52-23.47-4-26.68-10.95-32.37-23.33-5.8-33-5.43S372.94,93.32,365.51,93.61Z"/><path class="cls-7" d="M380.34,99.2s-20.25-7.65-30.33.61-9.8,15.28-14.49,24.74,3.42,8.57-8.28,18.3-25.74,10-34.43,10.61-16.92-1.59-13.34,11.2,13.76,14.07,29.75,13.45,22.71,6.14,27.57,15.51,6.69,12.67,15,17.4,33.93,5.42,42.84,3.67,20.5-.51,25.64,1.81-2.32,5.15.89,15.42.72,11.5,4.65,18.65,49.22,29.84,59.67,16.79,7.65-12.94,5.85-30.3-.7-25-16.3-36.17-21-11.55-26.26-17.81-9.41-3.56-6.82-16.31,5.23-17.06,8.15-29,5.11-13.12.33-20.24-11.59-16.41-23.66-15.94-8.66,1.18-22.41,1.71S383.76,100.47,380.34,99.2Z"/><path class="cls-8" d="M387.82,223.64c-14.88-3.45-37.38,4.13-44.28-1a40.88,40.88,0,0,1-12.73-16.94c-1.5-4-6-15.85-33.07-22.85s-19-6-31.46-16.2c-3.49-2.86-2.84-7.25-.09-12.09a21.93,21.93,0,0,0-8.19,11c-5,14.75-15.14,28.4-20.11,31,5.45,2.14,9.39,6.35,13.94,12.22,7.06,9.11,11.07,9,32.49,8.13s14.93,4.78,23.12,8.48S332,236.53,345.55,240s36.25,1.27,41.44-2.95,18.75-.73,24.1-.94S402.7,227.08,387.82,223.64Z"/><path class="cls-8" d="M459.73,427.58c18.69,1.51,42.71,5.79,52-5s6.06-16.63,16.82-27.49c7.38-7.44,14.87-20.84,14.57-33.65-5.69,7.83-21.74,10.21-32.49,8.59-13-2-18.18-7.92-27.47-24.82s-9.71-11.94-5.73-20.73-2.12-22.71-18-19.63-10.76,8.43-10.21,22.58,3.2,19-2.74,24.76-11,2.28-25.41,12.08-22.41,10.11-41.32-.86-15.89-12.32-28.15-26.64-10.8-24.22-26.33-11.3-32.41,6.19-68.07,8.19-15.53-3.09-33-9.19-13.93,6.09-20.93,16.22-10.55,14-16.71,14.21-9.87-.23-21-1-13.72,11.62-45.22,9.77-34-19.63-41.85-30.42,5.62-13.78,6.94-27.39-31.5-1.85-46.46-6.2c-11.88-3.46-14.13-29-14.55-39.43a53,53,0,0,0-8.71,17.69c-2.63,9.05-4.46,19.55-1.19,26.88s5.76,13.94-.36,29.08-18.76,35-12.32,47.44,5,12.48,9.83,22.72,30.18,28.64,54.74,27.69,27.36-5.54,46-5.52S133,440.29,154.8,444.66s18.16,6.74,41.11,2.87,19.87-6.73,31.51-13.9S256,440,261.4,445s30.21,10,48.64,4.82,27.44-3.3,43.07-3.91,40.07-4.54,55.3-15.57S441,426.07,459.73,427.58Z"/><path class="cls-9" d="M416,122.9s-17.63-9.79-28.66-8.13-17.8,1.92-10.72,9.66,15.22,11.12,21.57,15.8,7.11,8.35,7.44,17-5.68,12.55,8.76,19.38,20.21,12.77,21.61,1,1.17-17.3-5.27-24.44-14.77.57-15.07-7.43S423.58,128.76,416,122.9Z"/><path class="cls-8" d="M408.38,124.43s-15.74-8.64-21.14-4.73S388,124,397.55,131s13.61,17.34,15.17,9.89S418.37,127.74,408.38,124.43Z"/><path class="cls-8" d="M420,152.11s-12.49-4.44-7.83,4.62,22.37,20.7,20.83,12.75S434.25,154.64,420,152.11Z"/><path class="cls-10" d="M237.13,210.87s-11.32-13.08-48.91,7.85-37.74,30.67-57.73,30.9-29.76-.46-46.65-3.59-28.71-15.11-40.54.5-6.57,25.66,2.47,35.59,26.85,9.23,44.5,4.22,27,0,30,6.4,5.25,10.07,1.15,15.64-14.48,3.26-3.65,17.45,22.06,25.09,47.06,14.39,31.23-17.44,38.22-32.31,12.45-13.46,22.54-4.66S256,319.91,273.83,320.3s46,.37,50.73-16.57,9.46-20.92,18.58-8.84-2.61,16.33,7.57,27.83,16.17,26.4,43.5,19.94,42.09-16.24,37.05-34.43.2-22.72,9.07-17.12,18.9-.73,1-15.18-17.66-23.11-29.81-29.66-30.19,2.25-48.52,4-34,1.32-46.68-4.68-19.65-18.7-33.73-19.24-10.16,3.1-23.82-.69-5.55,10.49-19.17,7.77S247.64,217,237.13,210.87Z"/><path class="cls-11" d="M532.28,382.71c-9.83,13.71-16.58,11.75-21.32,23.05s-12.54,20.48-30.46,16.74-21.82-8.78-33.07-12.05-22.92.89-32.22,9.4-19.14,3-22.7,6.81-8.62,7-18.86,10.36-22.35-3.57-32-4.68-19.76,6-28.49,10-36.25,1.41-46.15-5.61-35-23.83-39.24-18.48-16.54,12.49-32,16.06-36.13,4.37-44.43.24S142.74,423,138.21,421s-34.77-17.91-48.43-26.27,11.65,13.63,14,17.24-1.11,9.67-19.51,12.61-22.25-.62-36.42-3S13.77,402.12,8.45,379.37,23,333.62,29.5,330.4s.77-18.55-3.11-22.84c-2.84-3.16-7.88-21.44-10.34-30.91-.13.42-.28.82-.4,1.24-2.63,9.05-4.46,19.55-1.19,26.88s5.76,13.94-.36,29.08-18.76,35-12.32,47.44,5,12.48,9.83,22.72,30.18,28.64,54.74,27.69,27.36-5.54,46-5.52S133,440.29,154.8,444.66s18.16,6.74,41.11,2.87,19.87-6.73,31.51-13.9S256,440,261.4,445s30.21,10,48.64,4.82,27.44-3.3,43.07-3.91,40.07-4.54,55.3-15.57,32.63-4.25,51.32-2.74,42.71,5.79,52-5,6.06-16.63,16.82-27.49a54.42,54.42,0,0,0,13.36-23.68A78,78,0,0,0,532.28,382.71Z"/><path class="cls-8" d="M476.6,363a16.09,16.09,0,0,0-18.22-1.34,20,20,0,0,0-4.23,3.47c-7.84,8.48-19,11.43-7.56,15.38s8.51,9.1,22.25,6.68S481,393.64,488.78,399s12.33,10.21,19.35-3.26S499.19,376,494.7,373.62C490.61,371.49,490.35,373.91,476.6,363Z"/><path class="cls-8" d="M84,365.08c-3-1-18.54-8.08-27.13-2.71s-24.78,9.13-13.24,15,26.07,7.79,38.57,6.05l12.5-1.75s4.83,11.13,11.3,15.9a39.13,39.13,0,0,0,20.4,7.38c6.3.38,14.46.07,3.93-12.09s-12.92-8.93-22.57-14.84S99.26,370.14,84,365.08Z"/><path class="cls-8" d="M254.53,387.36S231,379.48,217,390.71s.94,8.13,14.34,13.26,18.59,9.34,28.87,15.22,12.85,7,24.72,5.33,33.93-.07,30.5-7.47-8.22-1.57-19.74-6.78-11.39-2.07-18.54-8.08S279.37,395.82,254.53,387.36Z"/><path class="cls-8" d="M510,311.91c-4.3-10.41-12.21-18-12.51-25.92-.26-6.65-1.19-17.72.17-29.7-1.93,6.34-4.56,13.15-7.51,15.7-6.08,5.26-4.58,11.49-14.13,8.09s-31.77-8.82-22.77-3.51,16.61,6.89,24.41,13.5,12.46,13.34,26.46,17.83A14.7,14.7,0,0,1,510,311.91Z"/><path class="cls-12" d="M468.06,205.6s-4.06-7.38-11.53-5.83-2.4,3.23-8.42,9.75-19.12,9.54-17,16.37,7.2,7.26,14.1,7,9.15-7.27,12.79-10.56,4.32-2.05,13.1-2.39,14.51,1.32,10.55-3.56S473.25,209.8,468.06,205.6Z"/><path class="cls-13" d="M382.31,157.57s-5.2-5.09-16.76-2.13-23,2-31.07,1.76-.68,11.15,12.15,12.32,15.51,5.79,25.66,9,27.19,5.89,28.48,3.34-9.1-12.44-10.28-14.06S382.31,157.57,382.31,157.57Z"/><path class="cls-8" d="M371.23,158.55s-4.18-.11-10.27.4-14.5-1.1-10,1.5,11.9,5.65,17.47,6,5.43,3.41,13.29,5.61,14.34,3.89,6.88-1.94S385.16,159.12,371.23,158.55Z"/><path class="cls-8" d="M336.24,330.87a7.71,7.71,0,0,0-5,1.2,224.1,224.1,0,0,1-20.34,11.05c-12.38,5.88-6.36,10.15,9,11.35s25.16-1.42,36.66,4.89,13.86,8.91,4.93-.65-14.41-11.59-17.71-15.52C340.9,339.76,342.65,331.66,336.24,330.87Z"/><path class="cls-14" d="M496.3,317s-13.45-10.28-11.52,4.5,14,11.62,17.19,25.45,13.29,17.49,24.51,16.61,14.77-2.38,5.81-12.84-8.94-10-15.93-16-10.45-2.29-13.77-6.67S505.9,320.68,496.3,317Z"/><path class="cls-15" d="M272.33,269.43a15,15,0,0,0-12.26-2.68c-7.14,1.63-9.65,6.68-17.6,10.59s-16.56,2.45-16.32,8.74,12,7.19,22.86,9,16.73,1.6,26-3.26,19.65-3.92,14.05-9.11S288.29,274.66,272.33,269.43Z"/><path class="cls-16" d="M295.91,296.88s-6-3.37-14.35,1.45-19.43,9.76-10,10.3,10.84.93,19.34-.76S304.11,299.26,295.91,296.88Z"/><path class="cls-17" d="M163.4,261.3s-3-1.18-10.41-.57-17.85-8.07-20.17-.84,3.58,8.63,13.14,12.16,11.29,6.38,14.7,10.79,12.73,9.9,18.93,10.63,8.76,0,7.93-4.85-1.35-1.25-3.59-8.63.23-2.61-4.23-8.61S182.18,259.92,163.4,261.3Z"/><path class="cls-18" d="M101.52,253.32s-8.61-4.22-11.76-1.82-6.68,3.51-10.49,5.93-.92-7.11-9.85-11.31-22.35,1.52-13.69,7,11.14,10.93,17.91,9.69,1.93-.4,10.2,3.5,18.4,5.46,26.46,4.17,4.42-3.42,2.32-7.24S112.52,260.68,101.52,253.32Z"/><path class="cls-19" d="M406.51,108.28s-9.69-4.23-17.6-2.39-7.15,5.5-11.4,6.89-4.5,2.64,8.32.6,10.73-.42,24.44,4.89,14.15,8.35,12.26,15.18-4.47,11.23.8,12.56,9.48,7,12.16,12.73,9.44,13.75,4.91-.19-2.17-16.19-6.93-20S431.08,132.2,430,127,428.05,109.59,406.51,108.28Z"/><path class="cls-20" d="M386.13,137.3s13.18,4.63,15.06,11.06,1.36,14,2.1,19.15,4.4,8.77,11.08,13.12,19.18,12.8,21.14,7.31,4-.7,3.95,3.91-5.92,8.08-15.33,3-15-8.63-18-10.95-2.92-5.3-9.47-13.45-10.07-15-14.74-16.77-7.72-3.49-15.26-2.38-15.53,4.94-20.81,1.62,3.72-2,14-3.52,9.1-2.79,14.49-3.55,8.88-1.7,4.11-5.85S357.49,118.36,386.13,137.3Z"/><path class="cls-21" d="M466,196.54s-12-8-16.19-7.85-8.11.32-8.17,7.74-4.73,14.65-7.08,17.57,2.78-1.17,8.64-4.57,3.72-4.38,7.41-9.47,5.78-5.52,11.57-1.86S470,207,474.94,208.19,478,205.25,466,196.54Z"/><path class="cls-8" d="M461.75,204.82c-1.18-.48-3-4.12-7.09-.78s-7.39,9.82-11.21,11.38-8.52,7.74-1.46,7.82,9-4.93,13.17-6.16,2.82-9.29,7.91-5.6S472.87,209.33,461.75,204.82Z"/><path class="cls-22" d="M485.63,218.38s1.83,5.2-10,4.44-11.22,3.27-15.55,6.69-7.88,6,3.85,5.12,10.49-1.22,17-.25,8.09-.73,7.86-6.4S486.31,215.11,485.63,218.38Z"/><path class="cls-8" d="M237.52,347.53c-1.27.28-9.27-4.41-17.57,5s-12.06,13.47-2.43,15.69,6.66,4.08,24.32,1.23,20.3-1.66,29-.26,8.61,9.63,13.24,17.25,5,6.31,15.55,9.8,11.87,4.3,23.59,4.72,21.63-.84,28.07-13.67-.61-15.57-15.53-20.63-26.2-5.05-38.06-8.92-10.62-5.66-22.79-6.48S242.25,346.48,237.52,347.53Z"/><path class="cls-8" d="M406.71,396c-1.71-.28-13.4.95-19.28,5.95s-6.22,7.17-14.34,10.09-7.53-4-16.28,5-5.43,16.25,7.15,16.62,18.43-5.48,19.54-10.29-2-6.86,8.8-7.71,6.7,4.94,16.36-2.8S425.9,399.15,406.71,396Z"/><path class="cls-8" d="M163.18,263.73a92.62,92.62,0,0,0-12.55.49c-4.74.62,4.46,3.29,11.47,5.19s10.53,3.49,11.52,6.49.26,6.49,4.23,8.5,5.73,2.38,2.43-4.43-4.7-9.35-7-12.73S173,264,163.18,263.73Z"/><path class="cls-23" d="M167.09,252.75s-9.11-.08-16,1.92-4.24,2.33,6.63,3.21,14.75.29,17.39,1.49,4.49,3.73,4.57,5.89,1.44,3.41,3.36,8.54,2.85,6.39,5.22,11.5,5.88,6.27,5.08-3.23,3.92-10.56-1.17-18.6-5.52-8.45-9.51-10.89S167.09,252.75,167.09,252.75Z"/><path class="cls-8" d="M48,308.85s-11,.42-3.4,10.63,8.79,5.39,17.25,1.72,8.59.14,9.77-6.59S69.78,304.66,48,308.85Z"/><path class="cls-8" d="M170.07,403.88s-8.62-.63-7.42,5.53,2.35,11.37,15.11,8,16.52-4.94,18.2-10.74S175.33,404.15,170.07,403.88Z"/><path class="cls-8" d="M157.46,361.87c-1.84.51-23.27,3.3-22.61,8.05s11.59,3.37,16.38,3.66,6.43,5.95,14,5.18,9.55.1,17-5.43,11.16-7.6,3.38-11.12S169.73,358.54,157.46,361.87Z"/><path class="cls-24" d="M280.76,254.92c-1.34-.48-10.22-4.85-22.36,1.82s-17.59,14.06-22.26,17.1-1.77,3.41,12.74-3.84,23.22-4.72,28.06-3,5.52,6.95,13.67,8.07,10.52.06,11.83-2.85S300.12,261.81,280.76,254.92Z"/><path class="cls-25" d="M144.68,278.83s10.14,2.95,16.1,8.92,16,8,22.73,8.43,9.88,7.49-6.39,6.69-15.2,2-24.55-5.25S138.37,276.21,144.68,278.83Z"/><path class="cls-8" d="M64,364.08c-1.43-.06-20,1.26-15,5.84s8.42,7.79,22.23,6.77,20-.3,18.93-4.08S81.66,364.82,64,364.08Z"/><path class="cls-26" d="M376.18,278.46s-27.6-.46-17.73,16.77,26.83.49,41.36-.07,28.48,3.49,25.12-4-8.75-8.09-20.36-11.47S391.27,272.51,376.18,278.46Z"/><path class="cls-27" d="M288.47,232.82s-15.69-8.29-26.7.23,4.54,12.78,27.33,15.94S310.68,241.67,288.47,232.82Z"/><path class="cls-28" d="M380.73,184.26c-1.8-.58-26.69-5.11-30.6-8.27s-19.64-6.34-21.89-3.41,11.92,14.68,22.17,22.79,13.94,17.44,34.09,12.87,29.46-9.18,21.15-16S389.84,187.22,380.73,184.26Z"/><path class="cls-29" d="M201.22,227.67c-3.31-.21-18.43.72-15.36,6.75s13.22,11.31,22.56,8.11S219.71,228.85,201.22,227.67Z"/><path class="cls-30" d="M72.74,342.9s-16,1.1-29.33,12-14.1,14.74-5.23,11.56,14.31-9.08,27.07-9.57,18.13,4,27.66,5.55-3.5-4.6-9-11S80.32,343.08,72.74,342.9Z"/><path class="cls-31" d="M276.94,337.81c-3.33-.32-22.39-3.86-28.31,2s-3.07,6.27,14,8,27,1.79,34-2.27S294.51,339.49,276.94,337.81Z"/><path class="cls-32" d="M413,259.44s-15.24-8.79-41.71,6-5.11,10.69,4.17,8.12,21,.29,27.69,2.24,21.74,5.23,19.36.9S428.08,262.72,413,259.44Z"/><path class="cls-8" d="M388.42,277.51s-21.78,6.16-9.44,11,17.47.08,28.83-.36S402.94,280,388.42,277.51Z"/><path class="cls-8" d="M316.89,367.48c-1.87-.28-12.95-4.7-11.79.93s1.11,4.22,12.14,8,16.26,4.58,21.64,9.1,9.52,1.52,9.76-4.64S336.87,370.49,316.89,367.48Z"/><path class="cls-8" d="M107.47,384.14s-6,5,4.09,7.88,11.56,5.23,16.81,6.44,5.69-1.42-1.38-6S114,382.94,107.47,384.14Z"/><path class="cls-33" d="M353,360.4s-12.93-4.23-20.44-2.52-21.86-2.47-10.35,1.35,13.92,5.14,26.88,9.83,7.2,14.86,5.47,19.19,7.58.18,11.57-6.6S369.42,367.8,353,360.4Z"/><path class="cls-34" d="M408.82,383.3c-1.78-.64-12.5-5.19-23.14,1.38s-6.22,10.17-12.14,16.08-8.48,13.11,1.65,6.09,20.79-13.11,30.24-13.48,12.92,3.76,16.21,3.16S424.18,388.86,408.82,383.3Z"/><path class="cls-35" d="M404.49,308.72s-15.08,1.06-8.19,8.36,6.8,4.47,12.86,1.87S417.29,309.17,404.49,308.72Z"/><path class="cls-36" d="M468.06,343.26s-8.41-2.78-14.72,8.36-13.49,13.5-13.85,17.67,10.84-.69,15.78-7.5,15.92-3.92,21.2-1.88,13.86,9,17.47,8.3-1.78-5.64-8.77-12.12S476.91,344,468.06,343.26Z"/><path class="cls-37" d="M305.76,280s-7.67,2.9-2.25,8.91,7.06,8,5.66,12.24,2.75,4,6.62-3.37S313.5,278.69,305.76,280Z"/><path class="cls-38" d="M211.87,214.66a70.29,70.29,0,0,0-20,7c-10.68,5.6-8.71,2.93,3.21,2.47s14.61,2,21.5,5.9,12,2.65,13.4-2.59S229,213.47,211.87,214.66Z"/><path class="cls-8" d="M287.93,188.77S278.41,197,293.07,203s14.17,10,21.38,9.67,10.55,1.55,3-6.68S305.69,190.05,287.93,188.77Z"/><path class="cls-39" d="M192.19,374.08c-2.52-.18-14.57,2.59-22.39,9.47s-13.57,2.55-16.87,8.75,7.92,8.3,20,6.31,24.87,2.07,31.73-3.76,12.13-13.12,24.25-13.6,17.22.35,30.49,3.37,19.08,9.38,16.15-1.13S264,372.3,248.79,372.39s-18.1,2.73-26.7,3.06S196.76,374.41,192.19,374.08Z"/><path class="cls-40" d="M397.89,381.77s-13.56,2.55-7.8,7.39,14.21,1.46,21.36,3.21,11.2,1.59,9.12.15S416.66,383.06,397.89,381.77Z"/><path class="cls-41" d="M243.8,374.1s-16.69.14-9,3.39a107.77,107.77,0,0,0,26.59,7.06c10.68,1.6,17.88,4.36,14.12-1.06S266.53,373.21,243.8,374.1Z"/><path class="cls-42" d="M287.66,396.17s-12.05,2.49,3.34,8,17.49,7.41,24.57,7.13,6.27,5.33,1.4,10.07,5.56-.21,11.92-5.52,13.79-9.64-1.44-11.08-25.4-2.55-29.47-3.41S295.23,395.88,287.66,396.17Z"/><path class="cls-8" d="M254.06,390.9s-11.81-4.6-17.85-3.86-13.63,1-9,3.89,8.83,5.73,15.51,8.5,5.65,2.31,14.26,2.49,10.77,3.62,11.11-.44S260.7,392.67,254.06,390.9Z"/><path class="cls-8" d="M282.56,408s-13.69-.48-7.91,4.86S285,418,294.1,418.69s15.21.92,10.63.09-12.38-6.1-12.38-6.1Z"/><path class="cls-8" d="M172.49,361.69c-1.52-.1-24.76,1-17.54,4.23s9.81,5.18,20.34,2.75S186.18,362.68,172.49,361.69Z"/><path class="cls-43" d="M86.34,319S74.88,323.5,85,336.26s19.47,19.48,31.62,19.51-1.41-10.06-8.79-17.87-5.76-4.84-9.14-13.81S88.3,317.41,86.34,319Z"/><path class="cls-8" d="M283.17,358.91s-9.52,2.39-1.82,5.13,10.81,4.64,14.74,1.95S290.75,358.61,283.17,358.91Z"/><path class="cls-44" d="M461,391.46c-3,.11-8.63-9.5-14.41-10.94s.54,5.4,5.8,10.77,6.07,12.91,16.72,13.51,11.15.58,17.78,1.84,7.65,1.73.36-3.56-7.35-6.79-12.51-9.63S461,391.46,461,391.46Z"/><path class="cls-45" d="M77.67,427.47A43.86,43.86,0,0,1,64,425c-4.84-.83-9.29-2.27-16.15-3.43-14.17-2.41-34.09-19.42-39.41-42.17-.14-.56-.24-1.13-.34-1.69-3-3.89-5.54-7.37-7.5-10.12-1,5.07-.88,9.77,1.17,13.73,6.45,12.42,5,12.48,9.83,22.72s30.18,28.64,54.74,27.69a137.38,137.38,0,0,0,25.89-3.27A111.45,111.45,0,0,0,77.67,427.47Z"/><path class="cls-46" d="M227.58,433.54c-1.81-3.49-7.4-4.84-13.11-5.85a86.67,86.67,0,0,1-18.7,6.62c-15.42,3.56-36.13,4.37-44.43.24-6.82-3.37-8.24-8.95-11-12-3.85.75-6.65,1.83-7.81,3.35-1.9,2.51-1.18,5.52,1,8.68,5.26,3.86,11.13,8,21.29,10.06,21.79,4.37,18.16,6.74,41.11,2.87s19.87-6.73,31.51-13.9Z"/><g class="cls-47"><path class="cls-48" d="M310,449.8l1.16-.31a22.67,22.67,0,0,0-3.57-3,29.58,29.58,0,0,0-4.58-2.33c-11.87.52-28.77-2.27-36.08-7.45-1.22-.87-2.68-1.89-4.3-3a10.9,10.9,0,0,0-4.64.54c-2,1-2.33,3.4-1.74,6.45,2.15,1.63,3.92,3.15,5.11,4.26C266.81,450,291.61,455,310,449.8Z"/><path class="cls-49" d="M408.41,430.32a31,31,0,0,1,8.73-4.45c1.12-4.54.14-6.05-1.87-6.07l-.06.05c-5,4.59-10.19,5.09-14.46,5.18-1.57.31-4.05.57-7.12.83a3.7,3.7,0,0,0-1.12.8c-3.56,3.84-8.62,7-18.86,10.36-7.51,2.47-16-.61-23.86-2.86-.19.12-.4.22-.58.34-8.66,5.6-5.08,8,3.25,11.41l.65,0C368.74,445.28,393.18,441.35,408.41,430.32Z"/></g><path class="cls-50" d="M287.49,160.36s-8,5.09,2.13,10.84,13.46,3.91,22.6,1.85,5.87-7.05-1.44-10.87S295.56,157.31,287.49,160.36Z"/><path class="cls-8" d="M263.52,184.84s-10.95-.6-3.5,6.62,14.48,3.54,17.78.68S270.66,183.88,263.52,184.84Z"/><path class="cls-8" d="M375.82,228.27c-1,0-27-.32-21.37,3.56s9.42,5.44,20.93,2.94S398,228.77,375.82,228.27Z"/><path class="cls-51" d="M182.86,236.67a25,25,0,0,0,18.8,9,44.8,44.8,0,0,0,20.57-5s-4.79,7.11-13,9.27S188,249.38,182.86,236.67Z"/><path class="cls-52" d="M43.62,251.41s-11.24,8.48-2.87,16.7,12.89,8.54,27,8.5,11.94-3-.44-11S53.57,249,43.62,251.41Z"/><path class="cls-53" d="M271,230s-10.42,3.42,3.3,7.41,29.36,5.39,23.7,2.1S286,228.42,271,230Z"/><path class="cls-54" d="M425,340.11c-2.05.3-21.81,7.89-27,16.63s.12,16.08,13.38,8S430.17,357,437,352.21,449,336.67,425,340.11Z"/><path class="cls-55" d="M350,99.81s-10.18,6.42-9.8,15.85-1.48,18.22,11.18,7.55,12.47-15.74,22.46-20.48S368.94,94.52,350,99.81Z"/><path class="cls-56" d="M71.66,402.15c-19.92-7.95-28.1-12.72-33.51-21.22s3.06-14.65,11.56-20.06,35.43-4.29,26.47-10.48-33.27,3.48-50,2.67c-14.3-.68-5.29-14.44-13.53-15.76-6.43,14.61-16.82,32.49-10.86,44,6.45,12.42,5,12.48,9.83,22.72s30.18,28.64,54.74,27.69c17.24-.67,23.77-3.13,32.57-4.53C101.28,418.42,88.16,408.72,71.66,402.15Z"/><path class="cls-8" d="M169.44,319.89c-2.91-.05-27.76-4-20.17,4.42s6.22,10.65,19.2,8S182.52,320.11,169.44,319.89Z"/><path class="cls-8" d="M464.68,309.14s-21.74,1.57-14.14,10,8.26,6.94,16.07,2.28S477.77,309.36,464.68,309.14Z"/><path class="cls-57" d="M353.09,297.49s8.48,12.75,28.53,5.43,25.95-5.36,34.79-2.08,8.32,8.4,4.7,8.54-18.36-5.1-25.59-4.09-3.46,4.49-9.21,6.17S369,315,364.56,312.3,353,312.76,353.09,297.49Z"/><g class="cls-58"><path class="cls-59" d="M81.35,139c-43.27,46.07-40.64,118.81,5.84,162.45s119.25,41.67,162.5-4.4,40.65-118.82-5.84-162.46S124.6,93,81.35,139Z"/></g><g class="cls-60"><path class="cls-61" d="M276.78,46.14c-55.61,59.21-52.24,152.71,7.5,208.8s153.28,53.57,208.88-5.66,52.23-152.72-7.52-208.82S332.37-13.09,276.78,46.14Z"/></g></g></g></g></svg>