<svg xmlns="http://www.w3.org/2000/svg" viewBox="0 0 720.97 576.55"><defs><style>.cls-1{fill:#4f290a;}.cls-17,.cls-2{fill:#512b0b;}.cls-3{fill:#708782;}.cls-11,.cls-4{fill:#1b0628;}.cls-4{opacity:0.35;}.cls-19,.cls-21,.cls-5{fill:#fff;}.cls-5{opacity:0.37;}.cls-22,.cls-6,.cls-7{fill:#c47d49;}.cls-6{opacity:0.52;}.cls-8{fill:#603811;}.cls-12,.cls-14,.cls-9{fill:#965e2f;}.cls-10,.cls-13{fill:#0a0400;}.cls-10,.cls-14{opacity:0.44;}.cls-12{opacity:0.39;}.cls-13,.cls-21{opacity:0.22;}.cls-15{fill:#dd8b14;}.cls-16,.cls-18{fill:#ffc943;}.cls-16{opacity:0.59;}.cls-17{opacity:0.33;}.cls-19{opacity:0.57;}.cls-20{fill:#4e385e;}.cls-22{opacity:0.55;}</style></defs><g id="Слой_2" data-name="Слой 2"><g id="_Layer_" data-name="&lt;Layer&gt;"><path class="cls-1" d="M216.21,513.05c-1.13-10.45.5-28.29-.49-46.12s-8.38-20.44-11.76-26.54-8.7-3.93-8.7-3.93-11.59,3.64-13.9,23c-1,8.54-.32,25.27.52,33.82-.21,12-1.26,26.07-4.79,32.44l-6.77,12.17s3,6.09,4.69,6.53,8.87-4.65,12.81-16.64c.32,1.35.64,2.73,1,4,4.49,17.84,3.46,26.1,3.77,33.93s-.64,10.87,1.11,10.87,6.83-15.22,7.77-19.14-.09-19.57-.09-19.57l4,19.57s3.55-3,5.86-9.57,0-25.23,1.74-23.92,4.68,7,7.3,6.52a6.26,6.26,0,0,0,4-2.6S217.33,523.48,216.21,513.05Z"/><path class="cls-2" d="M194.24,461.17c-.19,0-.38,0-.58,0a3.86,3.86,0,0,1-3.24-4.38c0-.21,2.88-20,1.5-65C190.51,345.6,192,239,192.06,238a3.86,3.86,0,0,1,3.86-3.79H196a3.86,3.86,0,0,1,3.79,3.93c0,1-1.55,107.41-.14,153.41,1.4,45.83-1.47,65.54-1.59,66.36A3.86,3.86,0,0,1,194.24,461.17Z"/><path class="cls-3" d="M207.65,311.51c-.11,6.35-5.88,11.5-12.88,11.5s-12.58-5.15-12.46-11.5,5.88-11.5,12.87-11.5S207.76,305.16,207.65,311.51Z"/><path class="cls-4" d="M190.86,316c-5.93-6.21-3.16-11.06-.42-13.74a10.49,10.49,0,0,0-6.76,9.3c-.1,5.66,4.87,10.25,11.12,10.25s11.37-4.59,11.47-10.25a8.52,8.52,0,0,0-.2-2.09C205.22,316.7,197.09,322.54,190.86,316Z"/><path class="cls-5" d="M196.77,302.14s-6-.17-4.14,5.08,9.39,8.76,11.18,4.2C205.47,307.22,201.17,302,196.77,302.14Z"/><path class="cls-3" d="M208.67,284.2c-.12,6.34-5.88,11.5-12.88,11.5s-12.58-5.16-12.46-11.5,5.87-11.5,12.87-11.5S208.78,277.84,208.67,284.2Z"/><path class="cls-4" d="M191.87,288.7c-5.92-6.21-3.15-11.06-.41-13.74a10.46,10.46,0,0,0-6.76,9.29c-.1,5.67,4.88,10.26,11.11,10.26s11.38-4.59,11.48-10.26a9.38,9.38,0,0,0-.2-2.07C206.24,289.38,198.1,295.23,191.87,288.7Z"/><path class="cls-5" d="M197.79,274.83s-6-.18-4.14,5.08,9.38,8.76,11.18,4.2C206.49,279.91,202.18,274.65,197.79,274.83Z"/><path class="cls-3" d="M207.45,342.15c-.11,6.35-5.88,11.5-12.88,11.5s-12.57-5.15-12.46-11.5S188,330.64,195,330.64,207.56,335.79,207.45,342.15Z"/><path class="cls-4" d="M190.66,346.65c-5.93-6.21-3.16-11.06-.41-13.74a10.49,10.49,0,0,0-6.77,9.29c-.09,5.66,4.88,10.26,11.11,10.26s11.39-4.6,11.49-10.26a9.38,9.38,0,0,0-.2-2.07C205,347.33,196.89,353.17,190.66,346.65Z"/><path class="cls-5" d="M196.57,332.78s-6-.18-4.14,5.08,9.39,8.76,11.19,4.2C205.28,337.86,201,332.6,196.57,332.78Z"/><path class="cls-3" d="M205.63,370.86c-.11,6.36-5.88,11.5-12.88,11.5s-12.58-5.14-12.46-11.5,5.87-11.5,12.87-11.5S205.74,364.5,205.63,370.86Z"/><path class="cls-4" d="M188.84,375.37c-5.93-6.22-3.16-11.07-.42-13.75a10.47,10.47,0,0,0-6.76,9.29c-.1,5.67,4.88,10.26,11.11,10.26s11.38-4.59,11.48-10.26a8.87,8.87,0,0,0-.2-2.07C203.2,376.05,195.06,381.89,188.84,375.37Z"/><path class="cls-5" d="M194.74,361.5s-6-.18-4.12,5.07,9.37,8.76,11.18,4.2C203.45,366.57,199.14,361.32,194.74,361.5Z"/><path class="cls-3" d="M206.86,400c-.12,6.36-5.88,11.5-12.88,11.5s-12.58-5.14-12.46-11.5,5.87-11.5,12.87-11.5S207,393.65,206.86,400Z"/><path class="cls-4" d="M190.06,404.52c-5.92-6.23-3.15-11.06-.41-13.75a10.46,10.46,0,0,0-6.76,9.29c-.1,5.66,4.87,10.26,11.11,10.26s11.37-4.6,11.48-10.26a9.53,9.53,0,0,0-.2-2.08C204.43,405.2,196.29,411,190.06,404.52Z"/><path class="cls-5" d="M196,390.64s-6-.17-4.13,5.08,9.38,8.76,11.18,4.2C204.68,395.72,200.38,390.47,196,390.64Z"/><path class="cls-3" d="M208.94,430c-.12,6.34-5.88,11.5-12.88,11.5s-12.58-5.16-12.47-11.5,5.89-11.5,12.88-11.5S209.05,423.67,208.94,430Z"/><path class="cls-4" d="M192.15,434.52c-5.93-6.2-3.16-11-.42-13.73a10.48,10.48,0,0,0-6.76,9.29c-.1,5.66,4.88,10.26,11.12,10.26s11.38-4.6,11.47-10.26a9,9,0,0,0-.19-2.08C206.51,435.21,198.38,441.05,192.15,434.52Z"/><path class="cls-5" d="M198.06,420.65s-6-.16-4.13,5.08,9.37,8.77,11.17,4.21C206.77,425.73,202.46,420.49,198.06,420.65Z"/><path class="cls-3" d="M209.36,255c-.11,6.35-5.88,11.5-12.87,11.5S183.91,261.31,184,255s5.88-11.5,12.88-11.5S209.48,248.61,209.36,255Z"/><path class="cls-4" d="M192.57,259.46c-5.93-6.21-3.15-11.06-.41-13.74a10.46,10.46,0,0,0-6.76,9.3c-.1,5.66,4.87,10.25,11.11,10.25S207.88,260.68,208,255a9.56,9.56,0,0,0-.2-2.09C206.94,260.15,198.8,266,192.57,259.46Z"/><path class="cls-5" d="M198.49,245.59s-6-.17-4.14,5.08,9.38,8.76,11.18,4.2C207.19,250.67,202.89,245.42,198.49,245.59Z"/><path class="cls-6" d="M205.72,448.77a28,28,0,0,1,8.13,17.35c.78,10.72-1.13,29.09,0,38.52s1.39,13.63,4.26,17.54,3.17,5.19,3.17,5.19-5.21-.64-7.69-8.11-2.87-21.44-3.13-25.67S210,464.69,205.72,448.77Z"/><path class="cls-6" d="M187.45,449.05s-2.74,12-2.88,35-2.1,39.18-5.87,45.89-6.06,8.4-6.06,8.4l2.2,2.8a56.56,56.56,0,0,0,8.64-12c4.36-7.83,6.68-27.41,6.68-27.41s3.07,33,3.8,38.89,2.36,25.46,2.33,26.86,1.83-8.11,2.47-12.31-.42-39.45-.37-42-3-67.42-3-67.42S189.52,443.46,187.45,449.05Z"/><path class="cls-6" d="M200.32,448.33s1.39,29.6,1.81,41.7,4.07,58.24,4.07,58.24l.29,1.91s3.63-6.69,3.7-10.19-.29-19.41-.84-24.5-3.75-40.74-3.83-54.11S201.05,443.24,200.32,448.33Z"/><path class="cls-7" d="M208.62,450.75s-2,1.48-.37,12.4,1.29,15,1.67,22.78,3.33,8.52,3.7-6.12S211.77,454.82,208.62,450.75Z"/><path class="cls-7" d="M202.51,464.63c-.69,1.72-.19,15.38.37,25.37s3.52,10.74,3.7,3.15-.56-19.81-.73-23S204.73,459.08,202.51,464.63Z"/><path class="cls-7" d="M185.66,454.26s-2.22,4.44-2.42,19.08,3.52,22.78,3.16,18.7,1.11-21.67.92-28.52S187.69,450.92,185.66,454.26Z"/><path class="cls-7" d="M191.58,458.89s-.93,6.85-.18,20.56,5.74,21.67,5.19,7.6-.56-20.38-.75-24.45S192.7,451.29,191.58,458.89Z"/><path class="cls-8" d="M7.25,92.6S-3.29,85,24.21,78,85.67,75,146.55,75s82.52-5.26,104.17-8.78S119.62,121.28,7.25,92.6Z"/><path class="cls-9" d="M.81,95.08S-9.74,80,45.19,72.31s86.23,1.77,146.47-.6l60.25-2.36a336.78,336.78,0,0,1-73.24,8.27c-40.16,0-115.17-4.72-140.57,1.77s-24.81,11.82-24.81,16S5.46,100.14.81,95.08Z"/><path class="cls-10" d="M24.51,102.43s17.72-17.72,91.55-19.49,95.68,10.63,95.1,13.58S81.22,136.68,24.51,102.43Z"/><path class="cls-8" d="M713.73,92.6S724.27,85,696.76,78,635.3,75,574.44,75s-82.53-5.26-104.19-8.78S601.36,121.28,713.73,92.6Z"/><path class="cls-9" d="M720.16,95.08S730.71,80,675.78,72.31s-86.22,1.77-146.47-.6l-60.24-2.36a336.78,336.78,0,0,0,73.24,8.27c40.15,0,115.17-4.72,140.56,1.77s24.82,11.82,24.82,16S715.51,100.14,720.16,95.08Z"/><path class="cls-10" d="M696.46,102.43s-17.72-17.72-91.55-19.49-95.68,10.63-95.09,13.58S639.76,136.68,696.46,102.43Z"/><path class="cls-11" d="M552.21,176.3c-3.3-3.67-110.8-3.42-191.72,5.34-80.91-8.76-188.41-9-191.71-5.34-2,2.22-.58,19.9,2.35,26.92s0,17,2.33,21.66-5.85,10.53,5.27,19.31,68.48,38.64,176.18,38.64c1.91,0,3.74-.08,5.58-.12s3.68.13,5.59.12c108.81-1.18,165.06-29.86,176.18-38.64s2.93-14.62,5.27-19.31-.59-14.63,2.34-21.66S554.21,178.52,552.21,176.3Z"/><path class="cls-1" d="M512.07,83.87S498.65,30.23,422.54,8.66c-85.94-24.35-169,7.17-194.1,38.68s-25.07,53.72-25.78,62.32S492.74,146.9,512.07,83.87Z"/><path class="cls-10" d="M512.07,83.87S506.13,60.22,479.86,38C494,58.77,492,64.23,453.28,74.6,406.1,87.22,300.43,79.91,269.86,56.65c-15.17-11.54-15.77-23.25-12.52-32.11-12.7,7-22.62,14.9-28.9,22.8-25.07,31.52-25.07,53.72-25.78,62.31S492.74,146.9,512.07,83.87Z"/><path class="cls-8" d="M363.87,5.43s-61-3-69.53,17S407.4,81.47,458.42,69,459.92,12.43,363.87,5.43Z"/><path class="cls-8" d="M709.73,84.26c5.91,4.92-.49,5.9-12.79,8.85S577.89,89.67,518.36,76.39,442.6,61.14,433.74,61.63C427,62,403.59,84.18,383.87,100h-.31l-.16.4a151.1,151.1,0,0,1-16.57,11.9,24.5,24.5,0,0,1-6.39,2.69,24.84,24.84,0,0,1-6.4-2.69,149.19,149.19,0,0,1-16.55-11.9,3.84,3.84,0,0,1-.17-.4H337c-19.72-15.83-43.14-38-49.86-38.38-8.86-.49-25.09,1.47-84.62,14.76S36.24,96.07,23.93,93.11,5.24,89.18,11.14,84.26-2.63,82.78.81,95.08c1.92,6.83,38.38,52.64,129.39,92s156.45,27.55,187.93,42.8c16.29,7.89,30.58,10.75,42.31,10.61,11.73.14,26-2.72,42.31-10.61,31.49-15.25,96.92-3.45,187.93-42.8s127.47-85.17,129.39-92C723.51,82.78,703.83,79.34,709.73,84.26Z"/><path class="cls-12" d="M709.73,84.26c5.91,4.92-.49,5.9-12.79,8.85S577.89,89.67,518.36,76.39c-8.32-1.86-15.76-3.48-22.48-4.93L484.65,75.4s35.64,58,98.4,60.1c58.82,2,117.17-20.77,137.41-42.9C720.83,82.34,704.25,79.69,709.73,84.26Z"/><path class="cls-12" d="M196.37,140.29c12.42-17.07,13.75-46.19,12.84-65.39l-6.69,1.49C143,89.67,36.24,96.07,23.93,93.11c-6.51-1.56-11.34-2.58-13.59-3.91L7.25,92.6c3,3,17.85,16.84,75.82,33.86S183.6,157.84,196.37,140.29Z"/><path class="cls-13" d="M720.07,95.08c.09-.35.16-.69.23-1-8.3,8.57-24.65,22.7-54.23,39.23-48.71,27.22-186.94,50.14-207,33S444.75,96,441.88,106.79s-34.38,80.94-48.71,106S358.08,241.45,335.88,225s-53.72-99.56-63.75-123.91-4.3,36.53-12.17,51.57-55.87,33.67-99.56,21.49c-28.26-7.88-87.64-29.22-126.68-43.91,20.76,17,52.13,37.69,96.48,56.87,91,39.35,156.45,27.55,187.93,42.8,16.29,7.89,30.58,10.75,42.31,10.61,11.73.14,26-2.72,42.31-10.61,31.49-15.25,96.92-3.45,187.93-42.8S718.15,101.91,720.07,95.08Z"/><path class="cls-9" d="M696.94,93.11s-23.11,59.32-162.66,109.1c-9.83,3.5-18.15,6.81-25.2,9.94a387.33,387.33,0,0,0,81.6-25.07c91-39.36,127.47-85.17,129.39-92,1.86-6.66-3.06-10.71-7-12.26l-2.88,1.84C715.23,89.22,708.89,90.25,696.94,93.11Z"/><path class="cls-9" d="M115.62,171.1c-75.54-42.66-102.21-72-102.21-72L1,89a9.26,9.26,0,0,0-.23,6.1c1.92,6.83,38.38,52.64,129.39,92a389,389,0,0,0,89,26.44C190.34,205.14,149.86,190.43,115.62,171.1Z"/><path class="cls-12" d="M433.74,61.63C427,62,403.59,84.18,383.87,100h-.31l-.16.4a151.1,151.1,0,0,1-16.57,11.9,24.5,24.5,0,0,1-6.39,2.69,24.84,24.84,0,0,1-6.4-2.69,149.19,149.19,0,0,1-16.55-11.9,3.84,3.84,0,0,1-.17-.4H337c-18.93-15.19-41.22-36.17-48.93-38.18l-10.45,5.54S328,232.14,361.67,227.12c28.59-4.26,65.62-128.31,74.38-165.56C435.22,61.57,434.45,61.59,433.74,61.63Z"/><path class="cls-12" d="M404.87,86l-3.75-.41c-5.74,4.88-11.64,9.89-17.25,14.38h-.31l-.16.4a151.1,151.1,0,0,1-16.57,11.9,24.5,24.5,0,0,1-6.39,2.69,24.84,24.84,0,0,1-6.4-2.69,149.19,149.19,0,0,1-16.55-11.9,3.84,3.84,0,0,1-.17-.4H337c-2.63-2.1-5.32-4.33-8-6.6l-7.07,3.27s30.84,28.18,33,38.82,3.73,50,8.51,57.44,20.75-52.12,29.79-75S404.87,86,404.87,86Z"/><path class="cls-7" d="M360.44,115s4.48,63.36,2.94,83.29l-1.54,19.93s7.11-42.67,8.89-73.78l1.77-31.11A83.3,83.3,0,0,1,360.44,115Z"/><path class="cls-9" d="M709.73,84.26c5.91,4.92-.49,5.9-12.79,8.85S577.89,89.67,518.36,76.39,442.6,61.14,433.74,61.63C427,62,403.59,84.18,383.87,100h-.31l-.16.4a151.1,151.1,0,0,1-16.57,11.9,24.5,24.5,0,0,1-6.39,2.69,24.84,24.84,0,0,1-6.4-2.69,149.19,149.19,0,0,1-16.55-11.9,3.84,3.84,0,0,1-.17-.4H337c-19.72-15.83-43.14-38-49.86-38.38-8.86-.49-25.09,1.47-84.62,14.76S36.24,96.07,23.93,93.11,5.24,89.18,11.14,84.26C16.33,79.94,1.78,82.07.5,91c1.17,3.56,4.07,6.69,9.84,8.53,20.88,6.68,86.72,1,133.5-6.47s120-24.85,133.78-25.68S290.15,72,312.29,89.92s39.56,36.54,49.58,34.87,67.63-55.12,76.47-58.15S455.53,69.87,504,82s96.47,16.84,150.49,20.06c29.82,1.77,54.12-1.36,65.93-8.73C721.6,82.47,704.13,79.58,709.73,84.26Z"/><path class="cls-7" d="M308.61,81.45s33,30.37,46.47,34.29,34.43-21.55,55.43-36.35,14.47-3.1,1,7.57-40.28,35.46-50.95,35.81-34.44-21.35-43.72-29.61S305.51,79.39,308.61,81.45Z"/><path class="cls-14" d="M380,11.12s-23.11,6.71,9.7,20.14,48.47,12.68,64.88,17.15,20.14-11.19-10.44-23.87S390.45,6.65,380,11.12Z"/><path class="cls-14" d="M362.11,15.23c0,3.91-5.85,7.08-13.06,7.08S336,19.14,336,15.23s5.85-7.09,13.05-7.09S362.11,11.31,362.11,15.23Z"/><path class="cls-10" d="M161.28,111.52s-10.47,12.93-3.31,26.7,28.4,13.77,32.25-3.37-4.67-26.42-14.33-26.7S161.28,111.52,161.28,111.52Z"/><path class="cls-15" d="M189.39,125.45c0,9.91-7.59,17.94-16.95,17.94s-17-8-17-17.94,7.59-17.94,17-17.94S189.39,115.54,189.39,125.45Z"/><path class="cls-16" d="M172.44,107.51a16.09,16.09,0,0,0-7.57,1.9,19.08,19.08,0,0,0-.88,5.85c.29,5,12.55,6.41,17.83,4.28,2.08-.85,4.08-1.46,5.7-2.24A16.83,16.83,0,0,0,172.44,107.51Z"/><path class="cls-17" d="M185.29,137.13c-3-1.23-3.55-3.95-7.14-7-4-3.38-12.54-1.79-16.72,3.58a2.84,2.84,0,0,1-3.41,1.16,16.74,16.74,0,0,0,14.42,8.53A16.53,16.53,0,0,0,185.29,137.13Z"/><path class="cls-18" d="M182.5,125.22c0,7.06-5.41,12.79-12.08,12.79s-12.08-5.73-12.08-12.79,5.41-12.78,12.08-12.78S182.5,118.16,182.5,125.22Z"/><path class="cls-19" d="M181.71,129.64c-3.19,1.61-6.06,2.52-6.92,1-2.21-3.94-.83-12.08,4.41-11.24a6.36,6.36,0,0,0,1.89,0A11.69,11.69,0,0,0,160.48,118a6.43,6.43,0,0,1,6.32-.84c8.54,3.37,7.16,18.82-3.59,16.86l-1.78-.3a11.75,11.75,0,0,0,9,4.31A12.11,12.11,0,0,0,181.71,129.64Z"/><path class="cls-10" d="M560.93,111.52s10.48,12.93,3.31,26.7S535.85,152,532,134.85s4.68-26.42,14.34-26.7S560.93,111.52,560.93,111.52Z"/><path class="cls-15" d="M532.82,125.45c0,9.91,7.59,17.94,16.95,17.94s17-8,17-17.94-7.59-17.94-17-17.94S532.82,115.54,532.82,125.45Z"/><path class="cls-16" d="M549.77,107.51a16.1,16.1,0,0,1,7.58,1.9,19.39,19.39,0,0,1,.88,5.85c-.29,5-12.55,6.41-17.83,4.28-2.09-.85-4.08-1.46-5.71-2.24A16.84,16.84,0,0,1,549.77,107.51Z"/><path class="cls-17" d="M536.92,137.13c3-1.23,3.55-3.95,7.15-7,4-3.38,12.54-1.79,16.71,3.58a2.84,2.84,0,0,0,3.41,1.16,16.73,16.73,0,0,1-14.42,8.53A16.53,16.53,0,0,1,536.92,137.13Z"/><path class="cls-18" d="M539.72,125.22c0,7.06,5.41,12.79,12.08,12.79s12.08-5.73,12.08-12.79-5.4-12.78-12.08-12.78S539.72,118.16,539.72,125.22Z"/><path class="cls-19" d="M540.5,129.64c3.2,1.61,6.07,2.52,6.92,1,2.21-3.94.83-12.08-4.4-11.24a6.43,6.43,0,0,1-1.9,0,12,12,0,0,1,10.68-6.92,11.86,11.86,0,0,1,9.94,5.54,6.44,6.44,0,0,0-6.32-.84C546.87,120.51,548.25,136,559,134l1.78-.3a11.75,11.75,0,0,1-9,4.31A12.13,12.13,0,0,1,540.5,129.64Z"/><path class="cls-10" d="M419.21,127.37s1.59,13.81-5.35,26.2-17,9.71-14.35-7.33,9.06-24.92,13.68-24A8.3,8.3,0,0,1,419.21,127.37Z"/><path class="cls-15" d="M402.34,137.27c-2.56,9.57-1.07,18.29,3.36,19.47s11.81-5.35,14.37-14.92-.67-18.56-5.09-19.74S404.91,127.7,402.34,137.27Z"/><path class="cls-16" d="M415,122.08a5.1,5.1,0,0,1,3.08,2.8,36.73,36.73,0,0,1-1.1,5.75c-1.43,4.79-7.58,4.62-9.51,1.88-.77-1.08-1.55-1.92-2.12-2.89C408.16,124.38,411.88,121.25,415,122.08Z"/><path class="cls-17" d="M401.25,149.07c1.74-.81,2.7-3.37,5.19-5.87,2.75-2.76,6.38-.14,7,5.57.14,1.44.64,1.8,1.3,1.55-2.72,4.56-6.13,7.2-9,6.42C403.26,156.09,401.73,153.16,401.25,149.07Z"/><path class="cls-18" d="M408.73,139.12c-1.82,6.82-.76,13,2.39,13.88s7.18-4,9-10.82.76-13-2.39-13.88S410.56,132.3,408.73,139.12Z"/><path class="cls-19" d="M408,143.49c1.09,2,2.21,3.2,3,1.83,2.06-3.52,3.52-11.57.83-11.42a1.55,1.55,0,0,1-.89-.26c2-3.71,4.63-5.93,6.83-5.34,1.94.52,3.09,3.1,3.25,6.6-.52-1.42-1.38-2.21-2.76-1.6-4.91,2.18-8.25,17.28-2.67,16.74l.91-.07c-1.72,2.26-3.66,3.48-5.35,3C408.67,152.34,407.5,148.41,408,143.49Z"/><path class="cls-10" d="M307.94,130.61s-1.6,13.8,5.35,26.19,16.95,9.71,14.34-7.33-9.06-24.92-13.68-24A8.3,8.3,0,0,0,307.94,130.61Z"/><path class="cls-15" d="M324.8,140.51c2.57,9.57,1.07,18.29-3.35,19.47s-11.82-5.35-14.38-14.92.67-18.56,5.09-19.74S322.24,130.93,324.8,140.51Z"/><path class="cls-16" d="M312.16,125.32a5.09,5.09,0,0,0-3.08,2.79,36.87,36.87,0,0,0,1.1,5.76c1.42,4.78,7.58,4.61,9.51,1.88.77-1.08,1.56-1.92,2.12-2.89C319,127.61,315.26,124.49,312.16,125.32Z"/><path class="cls-17" d="M325.89,152.31c-1.74-.81-2.7-3.37-5.19-5.87-2.75-2.77-6.37-.15-7,5.56-.15,1.44-.65,1.81-1.31,1.56,2.74,4.56,6.14,7.19,9,6.42C323.88,159.33,325.42,156.4,325.89,152.31Z"/><path class="cls-18" d="M318.41,142.36c1.83,6.82.76,13-2.39,13.88s-7.18-4-9-10.83-.76-13,2.38-13.88S316.58,135.54,318.41,142.36Z"/><path class="cls-19" d="M319.18,146.72c-1.09,2-2.2,3.2-3,1.83-2.07-3.52-3.53-11.56-.84-11.41a1.44,1.44,0,0,0,.88-.27c-2-3.7-4.63-5.92-6.82-5.34-1.94.53-3.09,3.11-3.25,6.61.53-1.42,1.38-2.22,2.76-1.6,4.91,2.17,8.25,17.28,2.68,16.74l-.93-.08c1.72,2.26,3.67,3.48,5.36,3C318.48,155.58,319.65,151.65,319.18,146.72Z"/><path class="cls-20" d="M532.64,220.07s-32.83,4.21-64,11.78-64.82,13.47-87.54,16.84,31.14.84,84.17-6.73S557,221.75,532.64,220.07Z"/><path class="cls-20" d="M186.37,213.78s27.64,14.53,92.76,23.89,67.46,9.84,67.46,9.84-52.93.94-101.19-6.56S175.6,214.72,186.37,213.78Z"/><path class="cls-20" d="M451.05,254.07S393,256,366.26,257.82s-30.45,3.28-54.34,3.74-24.86,8.3,12.62,12.05,96.19-.74,126.18-5.42S484.31,251.73,451.05,254.07Z"/><path class="cls-20" d="M534.91,237.21s-24.36,9.37-33.73,11.7-9.84,7.5,11.71,1.88S541,235.33,534.91,237.21Z"/><path class="cls-20" d="M185,235.8s41.22,16.87,68.86,20.61,10.31,8-11.71,5.15S188.25,245.64,185,235.8Z"/><path class="cls-21" d="M441.83,259.33a107.81,107.81,0,0,0-41.4.36c-21.79,4.72-12.35,9.8,12.7,8S453.44,261.87,441.83,259.33Z"/><path class="cls-21" d="M377.57,266c0,2.21-5.44,4-12.16,4s-12.16-1.79-12.16-4,5.44-4,12.16-4S377.57,263.76,377.57,266Z"/><path class="cls-7" d="M591.86,88.58s41.55,5.5,71.43,6.19,40.85-1,46.35-3.44,4.81,7.21-26.1,9.27S614.87,96.48,597,93.39,582.94,88.58,591.86,88.58Z"/><path class="cls-7" d="M551.88,83.69s-30.2-6-32.19-3.11c-3.46,5,37.3,11.1,45.52,10.44S562.32,86.35,551.88,83.69Z"/><path class="cls-7" d="M408.06,9.33S385.84,5.77,417.84,20s61.33,32.89,59.55,31.11S458.72,19.1,408.06,9.33Z"/><path class="cls-22" d="M303.17,12s-43.55,12.45-56.89,24-14.21,16.89-14.21,16.89,3.55,6.22,14.21-2.66S268.51,26.22,303.17,12Z"/><path class="cls-21" d="M489.32,232.66s-21.24,1-37.43,5.56,12.14,3.54,29.34,1S513.6,230.64,489.32,232.66Z"/></g></g></svg>