<?xml version="1.0" encoding="UTF-8"?><svg xmlns="http://www.w3.org/2000/svg" viewBox="0 0 61.49 54.49"><defs><style>.d{fill:#2d343d;}.e{fill:#122f42;}.f{fill:#fff;}.g{fill:#3e2d47;}.h{isolation:isolate;}.i{fill:#513b5e;}.j{fill:#1a4963;}.k{fill:#baa6a2;}.l{fill:#163d52;}.m{fill:#a3b7cc;}.n{fill:#356a87;}.o{fill:#bcc4cc;}.p{fill:#231f20;}.q{mix-blend-mode:multiply;}</style></defs><g class="h"><g id="a"/><g id="b"><g id="c"><g><g><g><g><path class="m" d="M3.63,40.6l-.15-.3c.16-.08,15.8-8.24,20.59-23.96l.32,.1C19.56,32.3,3.79,40.52,3.63,40.6Z"/><path class="m" d="M14.81,41.18l-.17-.3c.08-.05,7.81-5.21,8.69-20.25l.33,.02c-.89,15.23-8.76,20.48-8.84,20.53Z"/><path class="m" d="M47.17,11.95c-7.42,0-13.93-10.22-14-10.33l.28-.18c.08,.12,7.72,12.12,15.73,9.9l.09,.32c-.7,.19-1.41,.28-2.1,.28Z"/><g><polygon class="e" points="49.37 11.02 49.22 11.02 49.08 11.02 48.5 40.65 49.22 40.65 49.95 40.65 49.37 11.02"/><polygon class="j" points="40.57 27.14 59.27 20.86 59.27 21.15 40.57 27.94 40.57 27.14"/><g><polygon class="j" points="56.01 13.19 55.99 12.95 44.56 13.82 44.59 14.05 56.01 13.19"/><polygon class="j" points="44.56 21.97 44.59 22.21 56.01 21.34 55.99 21.11 44.56 21.97"/><path class="g" d="M56.01,13.19l-11.43,.86s-4.83,6.03-.03,7.92l11.43-.86c-4.81-1.89,.03-7.92,.03-7.92Z"/></g><path class="g" d="M44.14,26.64s-3.15,6.6,0,9.09l17.3-1.31s-6.05-1.15-2.17-13.27l-15.13,5.49Z"/></g><path class="m" d="M56.38,37.12c-13.48-6.64-16.91-24.29-16.94-24.47l.33-.06c.03,.18,3.43,17.67,16.76,24.24l-.15,.3Z"/><g><polygon class="e" points="33.46 1.07 33.31 1.07 33.16 1.07 32.58 40.65 33.31 40.65 34.04 40.65 33.46 1.07"/><g><polygon class="j" points="39.04 2.29 39.01 2.06 27.58 2.92 27.61 3.16 39.04 2.29"/><polygon class="j" points="27.58 11.08 27.61 11.31 39.04 10.45 39.01 10.22 27.58 11.08"/><path class="i" d="M39.04,2.29l-11.43,.86s-4.83,6.03-.03,7.92l11.43-.86c-4.81-1.89,.03-7.92,.03-7.92Z"/></g><g><polygon class="j" points="42.14 10.88 42.09 10.54 24.81 12.93 24.84 13.2 42.14 10.88"/><polygon class="j" points="24.81 22.35 24.84 22.62 42.14 22.76 42.09 22.42 24.81 22.35"/><path class="i" d="M42.14,10.88l-17.3,2.32s-5.33,6.73-.03,9.15l17.28,.07c-8.26-2.99,.05-11.54,.05-11.54Z"/></g><g><polygon class="j" points="45.01 23.3 44.94 22.87 22.62 26.01 22.66 26.35 45.01 23.3"/><polygon class="j" points="22.62 38.03 22.66 38.38 45.01 38.63 44.94 38.19 22.62 38.03"/><path class="i" d="M45.01,23.3l-22.35,3.05s-6.8,8.59-.04,11.68l22.32,.15c-10.72-3.87,.07-14.88,.07-14.88Z"/></g></g><polygon class="j" points="61.49 34.86 61.44 34.43 39.97 36.05 40.02 36.49 61.49 34.86"/><g><path class="e" d="M44.74,36.97l-5.71,3.78H10.46v.63l1.16,.82s2.09,1.95,4.19,4.11c0,0,6.48,2.03,12,2.03h25.44s2.71-.82,3.39-3.63c.68-2.81,.48-7.75,.48-7.75h-12.39Z"/><g><path class="l" d="M33.01,45.99h-.24c-6.56,0-12.6-.15-17.68-.41l.09,.09c5.06,.26,11.07,.4,17.59,.41h.24c9.31,0,17.58-.29,23.47-.8,.01-.03,.02-.06,.03-.09-5.89,.51-14.17,.8-23.5,.8Z"/><path class="l" d="M33.02,45.33h-.24c-6.88,0-13.16-.15-18.33-.4l.09,.09c5.16,.25,11.41,.4,18.25,.4h.24c9.47,0,17.8-.27,23.64-.74l.02-.08c-5.84,.47-14.17,.74-23.66,.74Z"/><path class="l" d="M33,44.01h-.22c-6.67,0-13.81-.13-19.67-.4l.09,.09c5.85,.26,12.95,.39,19.58,.39h.22c7.93,0,17.3-.18,23.88-.62v-.08c-6.57,.45-15.94,.62-23.88,.62Z"/><path class="l" d="M32.99,44.67h-.22c-6.38,0-13.24-.13-19.01-.41l.1,.1c5.93,.28,12.88,.39,18.91,.39h.22c7.84,0,17.16-.19,23.79-.68v-.08c-6.61,.49-15.95,.68-23.79,.68Z"/><path class="l" d="M32.99,47.31h-.22c-5.18,0-10.09-.12-14.47-.32,.14,.03,.28,.07,.42,.1,4.27,.19,9.03,.3,14.05,.3h.22c7.5,0,16.14-.24,22.79-.86,.02-.03,.05-.06,.07-.09-6.66,.62-15.33,.86-22.86,.86Z"/><path class="l" d="M33,46.65h-.23c-6.25,0-12.07-.15-17.03-.41l.08,.08h.04c4.94,.27,10.72,.42,16.92,.42h.23c9.1,0,17.27-.31,23.19-.84,.02-.03,.03-.06,.05-.09-5.92,.53-14.11,.85-23.24,.85Z"/><path class="l" d="M45.96,48.34h1.65c2.39-.13,4.63-.29,6.67-.49,.05-.03,.1-.06,.16-.1-2.54,.24-5.4,.44-8.48,.58Z"/><path class="l" d="M55.29,47.09c-5.89,.56-13.66,.88-22.29,.88h-.23c-3.73,0-7.34-.07-10.72-.19,.22,.04,.44,.08,.67,.11,3.16,.1,6.53,.16,10.05,.16h.23c8.58,0,16.3-.32,22.18-.87,.03-.03,.07-.06,.1-.09Z"/><path class="l" d="M33,43.35h-.22c-6.97,0-14.39-.13-20.35-.38l.09,.09c5.95,.26,13.33,.38,20.26,.38h.22c8.5,0,17.64-.18,23.96-.57v-.08c-6.31,.39-15.45,.57-23.96,.57Z"/><path class="l" d="M33.02,41.36h-.24c-7.89,0-16.18-.11-22.32-.33v.08c6.14,.22,14.43,.32,22.32,.33h.24c8.72,0,17.88-.13,24.08-.4v-.08c-6.19,.27-15.36,.4-24.08,.4Z"/><path class="l" d="M42.13,38.69l-.14,.09c5.7-.03,11.1-.08,15.16-.17v-.09c-3.97,.08-9.27,.13-15.02,.16Z"/><path class="l" d="M43.13,38.04l-.12,.08c5.42-.02,10.38-.06,14.15-.12v-.08c-3.74,.06-8.66,.09-14.03,.12Z"/><path class="l" d="M44.12,37.38l-.12,.08c5.03-.01,9.61-.04,13.15-.07v-.08c-3.51,.03-8.05,.06-13.03,.07Z"/><path class="l" d="M41.12,39.36l-.13,.08c6.12-.03,11.88-.1,16.16-.21v-.09c-4.28,.11-10.03,.18-16.03,.22Z"/><path class="l" d="M40.12,40.02l-.13,.08c6.46-.04,12.63-.12,17.15-.27v-.08c-4.49,.14-10.6,.23-17.02,.27Z"/><path class="l" d="M33.01,42.02h-.24c-7.68,0-15.79-.12-21.91-.36l.12,.09c6.11,.24,14.16,.35,21.78,.35h.23c8.65,0,17.82-.14,24.05-.45v-.08c-6.23,.31-15.4,.45-24.05,.45Z"/><path class="l" d="M33,42.68h-.23c-7.28,0-14.99-.12-21.03-.37l.09,.09c6.02,.25,13.7,.36,20.94,.36h.23c8.58,0,17.73-.16,24.01-.51v-.08c-6.27,.35-15.43,.51-24.01,.51Z"/><path class="l" d="M39.12,40.69l-.09,.06h-15.08c2.91,.03,5.89,.04,8.83,.04h.24c8.77,0,17.94-.11,24.1-.34v-.08c-4.73,.18-11.25,.28-18.01,.32Z"/></g><polygon class="j" points="39.11 41.04 10.46 41.04 10.46 40.46 38.94 40.46 44.65 36.68 57.13 36.68 57.13 37.26 44.82 37.26 39.11 41.04"/><g><polygon class="e" points="10.46 41.38 0 40.31 0 40.25 10.46 40.46 10.46 41.38"/><g><g><path class="f" d="M11.82,42.39h0Z"/><polygon class="p" points="11.81 42.41 11.8 42.41 11.84 42.37 11.82 42.39 11.84 42.37 11.85 42.38 11.81 42.41"/></g><g><path class="f" d="M11.71,42.29h0Z"/><polygon class="p" points="11.7 42.31 11.69 42.3 11.73 42.27 11.73 42.27 11.73 42.27 11.73 42.27 11.73 42.27 11.73 42.27 11.73 42.27 11.7 42.31"/></g><g><path class="f" d="M11.64,42.22l.02,.02-.02-.02Z"/><polygon class="p" points="11.64 42.25 11.64 42.25 11.62 42.23 11.65 42.2 11.67 42.21 11.64 42.25"/></g></g><g><path class="d" d="M51.34,48.34H27.81c-5.52,0-12-2.03-12-2.03h0c1.37,1.41,2.75,2.91,3.55,4.02,2.03,2.81,1.84,3.87,4.26,4.07,1.83,.15,18.49,.07,26.51,.03l1.2-6.08Z"/><path class="d" d="M53.26,48.34h-1.33l-1.2,6.08c2.25-.01,3.69-.02,3.69-.02v-3.44l-1.16-2.62Z"/></g><rect class="j" x="21.69" y="40.25" width=".29" height="5.68"/><rect class="j" x="24.91" y="40.25" width=".29" height="5.68"/><rect class="j" x="28.13" y="40.25" width=".29" height="5.68"/><rect class="j" x="31.35" y="40.25" width=".29" height="5.68"/><rect class="j" x="34.57" y="40.25" width=".29" height="5.68"/><rect class="j" x="37.79" y="40.25" width=".29" height="5.68"/><rect class="j" x="44.71" y="39.42" width="12.61" height=".29"/><rect class="j" x="44.57" y="36.49" width=".29" height="9.44"/><path class="l" d="M15.99,46.49l.04,.04c1.28,1.29,8.44,7.89,19.92,7.96h.44c12.59-.09,14.96-6.14,14.96-6.14H27.81c-5.52,0-12-2.03-12-2.03h0c.06,.06,.11,.12,.17,.18Z"/></g></g><g><path class="m" d="M48.02,41.52c0,.48-.39,.87-.87,.87s-.87-.39-.87-.87,.39-.87,.87-.87,.87,.39,.87,.87Z"/><path class="n" d="M47.65,41.52c0,.28-.22,.5-.5,.5s-.5-.22-.5-.5,.22-.5,.5-.5,.5,.22,.5,.5Z"/></g><g><circle class="m" cx="23.48" cy="42.65" r=".87"/><circle class="n" cx="23.48" cy="42.65" r=".5"/></g><g><circle class="m" cx="26.68" cy="42.65" r=".87"/><circle class="n" cx="26.68" cy="42.65" r=".5"/></g><g><circle class="m" cx="29.88" cy="42.65" r=".87"/><circle class="n" cx="29.88" cy="42.65" r=".5"/></g><g><circle class="m" cx="33.12" cy="42.65" r=".87"/><circle class="n" cx="33.12" cy="42.65" r=".5"/></g><g><circle class="m" cx="36.25" cy="42.65" r=".87"/><circle class="n" cx="36.25" cy="42.65" r=".5"/></g><g><circle class="m" cx="49.57" cy="41.52" r=".87"/><circle class="n" cx="49.57" cy="41.52" r=".5"/></g><g><path class="m" d="M52.85,41.52c0,.48-.39,.87-.87,.87s-.87-.39-.87-.87,.39-.87,.87-.87,.87,.39,.87,.87Z"/><path class="n" d="M52.48,41.52c0,.28-.22,.5-.5,.5s-.5-.22-.5-.5,.22-.5,.5-.5,.5,.22,.5,.5Z"/></g><g><circle class="m" cx="54.4" cy="41.52" r=".87"/><circle class="n" cx="54.4" cy="41.52" r=".5"/></g></g><path class="l" d="M21.81,2.63c2.05,.27,.06-.55-.1-.76-.17-.21,.16-.86,6.26-.57,0,0-1.5-2.53,5.5-.54v.64s-.51,.11-3.8-.54c-2.44-.48-1.07,.52-1.03,1.02,.04,.49-3.7-.17-6.06-.01-.08,0,1.09,.07,1,.97-.11,1.22-3.63-.23-6.74-.27,1.36-.06,3.6-.12,4.97,.06Z"/><path class="l" d="M37.74,12.85c2.05,.27,.06-.55-.1-.76-.17-.21,.16-.86,6.26-.57,0,0-1.5-2.53,5.5-.54v.64s-.51,.11-3.8-.54c-2.44-.48-1.07,.52-1.03,1.02,.04,.49-3.7-.17-6.06-.01-.08,0,1.09,.07,1,.98-.11,1.22-3.63-.23-6.74-.27,1.36-.06,3.6-.12,4.97,.06Z"/></g><rect class="e" x="50.73" y="49.63" width="1.42" height=".66"/><rect class="e" x="50.1" y="52.86" width="1.42" height=".66"/></g><g class="q"><path class="k" d="M23.48,42.15c-.28,0-.5,.22-.5,.5s.22,.5,.5,.5,.5-.22,.5-.5-.22-.5-.5-.5Zm.08,.95c-.21,0-.37-.17-.37-.38s.17-.38,.37-.38,.37,.17,.37,.38-.17,.38-.37,.38Z"/></g><g class="q"><path class="k" d="M26.68,42.15c-.28,0-.5,.22-.5,.5s.22,.5,.5,.5,.5-.22,.5-.5-.22-.5-.5-.5Zm.08,.95c-.21,0-.37-.17-.37-.38s.17-.38,.37-.38,.37,.17,.37,.38-.17,.38-.37,.38Z"/></g><g class="q"><path class="k" d="M29.88,42.15c-.28,0-.5,.22-.5,.5s.22,.5,.5,.5,.5-.22,.5-.5-.22-.5-.5-.5Zm.08,.95c-.21,0-.37-.17-.37-.38s.17-.38,.37-.38,.37,.17,.37,.38-.17,.38-.37,.38Z"/></g><g class="q"><path class="k" d="M33.12,42.15c-.28,0-.5,.22-.5,.5s.22,.5,.5,.5,.5-.22,.5-.5-.22-.5-.5-.5Zm.08,.95c-.21,0-.37-.17-.37-.38s.17-.38,.37-.38,.37,.17,.37,.38-.17,.38-.37,.38Z"/></g><g class="q"><path class="k" d="M36.25,42.15c-.28,0-.5,.22-.5,.5s.22,.5,.5,.5,.5-.22,.5-.5-.22-.5-.5-.5Zm.08,.95c-.21,0-.38-.17-.38-.38s.17-.38,.38-.38,.38,.17,.38,.38-.17,.38-.38,.38Z"/></g><g class="q"><path class="k" d="M47.15,41.02c-.28,0-.5,.22-.5,.5s.22,.5,.5,.5,.5-.22,.5-.5-.22-.5-.5-.5Zm.08,.95c-.21,0-.37-.17-.37-.38s.17-.38,.37-.38,.37,.17,.37,.38-.17,.38-.37,.38Z"/></g><g class="q"><path class="k" d="M49.57,41.02c-.28,0-.5,.22-.5,.5s.22,.5,.5,.5,.5-.22,.5-.5-.22-.5-.5-.5Zm.08,.95c-.21,0-.37-.17-.37-.38s.17-.38,.37-.38,.37,.17,.37,.38-.17,.38-.37,.38Z"/></g><g class="q"><path class="k" d="M51.98,41.02c-.28,0-.5,.22-.5,.5s.22,.5,.5,.5,.5-.22,.5-.5-.22-.5-.5-.5Zm.08,.95c-.21,0-.37-.17-.37-.38s.17-.38,.37-.38,.37,.17,.37,.38-.17,.38-.37,.38Z"/></g><g class="q"><path class="k" d="M54.4,41.02c-.28,0-.5,.22-.5,.5s.22,.5,.5,.5,.5-.22,.5-.5-.22-.5-.5-.5Zm.08,.95c-.21,0-.37-.17-.37-.38s.17-.38,.37-.38,.37,.17,.37,.38-.17,.38-.37,.38Z"/></g><g class="q"><path class="o" d="M36.67,2.24s-.11,.09-.29,.26l2.66-.2-.03-.23-2.34,.18h0Z"/><path class="o" d="M61.44,34.43s-6.05-1.15-2.17-13.27v-.29l-9.65,3.24-.04-2.27,6.43-.49-.03-.23c-4.81-1.89,.03-7.92,.03-7.92l-6.59,.5h0l6.59-.5-.03-.23-6.57,.5-.04-1.82h.01v-.65c-4.61-1.31-5.53-.66-5.62-.06-2.57-1.02-4.9-3.02-6.69-4.91,.53-1.93,1.96-3.72,1.96-3.72l-2.66,.2c-1.11,1.02-4.83,4.9-1.51,8.27l4.17-.31-.03-.23c-2.02-.8-2.34-2.32-2.02-3.83,1.83,1.91,4.2,3.89,6.81,4.89,.04,.14,.1,.24,.1,.24-.87-.04-1.62-.06-2.27-.07,.31-.36,.52-.57,.52-.57l-7.47,1c-1,1.43-4.32,7.03,1.49,10.83l5.97,.05-.05-.34c-4.98-1.8-3.94-5.63-2.32-8.38,.48,1.84,1.52,5.29,3.43,9.08l-6.12,.86s-8.45,11.56,.38,14.55v.02l4.3,.05-2.82,1.86s2.75,19.21-17.93,12.4c.63,.97,1.14,1.42,2.62,1.54,1.83,.15,18.49,.07,26.51,.03l.18-.9h.59l-.18,.9c2.25-.01,3.69-.02,3.69-.02v-3.44l-1.16-2.62s1.07-.32,2.03-1.26h0c.33-.32,.65-.72,.9-1.2,.02-.03,.03-.06,.05-.09,.09-.17,.17-.34,.23-.53h0s.02-.06,.03-.09c.05-.15,.1-.31,.14-.47,.05-.21,.09-.42,.13-.65v-.08c.05-.18,.07-.36,.1-.54v-.06c.03-.18,.05-.36,.07-.54v-.07c.03-.17,.04-.34,.06-.52v-.08h0c.01-.17,.03-.35,.04-.52v-.08c.02-.2,.03-.4,.04-.6h0c0-.18,.02-.35,.02-.53h0v-.08h0c0-.18,.01-.36,.02-.53h0v-.08h0v-.06h.18v-.29h-.17c0-.06,0-.12,0-.19h0v-.09h0c0-.18,0-.36,0-.53h0v-.09h0c0-.19,0-.37,0-.53h0v-.08h0c0-.21,0-.39,0-.53v-.08h0c0-.21,0-.33-.01-.34v-.29h-.88c-.76-.39-1.48-.8-2.17-1.26l7.42-.56-.05-.44Zm-15.85-23.34c1.21,.24,2.04,.38,2.61,.45-1.37,.19-2.73,0-4.03-.47,.11-.14,.48-.17,1.41,.01Zm-1.66,13.43c.23,.41,.47,.83,.72,1.25l-2.18,.73c.51-.77,1.03-1.45,1.46-1.98Zm-2.55,11.42c-2.14-2.5-1.05-5.85,.48-8.47l2.27-.83s-3.15,6.6,0,9.09l-2.76,.21Zm7.19,.74h-3.72v-.19h-.29v.25l-1.16,.77c-.65-.35-1.19-.74-1.62-1.15l6.81-.51-.02,.84Zm.45-23.2l-4.47,.34,.03,.23,4.44-.34h0l-4.44,.34s-4.83,6.03-.03,7.92l.03,.23,4.28-.32-.05,2.49-3.84,1.29c-.28-.47-.56-.94-.81-1.41,.5-.6,.85-.95,.85-.95l-1.26,.17h0l1.26-.17-.07-.43-1.4,.2c-2.04-4.03-3.1-7.69-3.53-9.42,.36-.57,.73-1.09,1.07-1.51,1.83,.11,3.52,.31,3.49-.02-.02-.19-.22-.44-.34-.67,.95,.32,1.94,.51,2.94,.51,.63,0,1.26-.08,1.9-.24l-.03,1.77Zm2.01,39.38h-.59l.51-2.57h.59l-.51,2.57Zm.64-3.23h-.59l.25-1.28h.59l-.25,1.28Zm3.86-12.95h-5.67l-.02-.94,3.69-.28c.64,.43,1.3,.84,2,1.22Z"/><path class="o" d="M42.14,10.88l-.05-.34-7.16,.99s-.1,.13-.25,.35l7.47-1Z"/></g></g></g></g></g></svg>