<svg xmlns="http://www.w3.org/2000/svg" viewBox="0 0 997.04 713.98"><defs><style>.cls-1{fill:#2e2d2e;}.cls-2,.cls-7{fill:#f1e0c4;}.cls-3,.cls-4{fill:#408074;}.cls-4,.cls-5,.cls-7,.cls-8{fill-rule:evenodd;}.cls-5{fill:#315b52;}.cls-6,.cls-8{fill:#414042;}</style></defs><g id="Слой_2" data-name="Слой 2"><g id="_Layer_" data-name="&lt;Layer&gt;"><rect class="cls-1" x="22.27" y="24.74" width="974.77" height="689.24"/><rect class="cls-2" width="974.78" height="689.24"/><rect class="cls-3" x="16.32" y="16.32" width="942.15" height="656.6"/><path class="cls-4" d="M493.12,223.62l35.8-12.92L637.2,230.29a17.5,17.5,0,0,0,20.63-17.46l-.38-27.7a5.44,5.44,0,0,0-3.39-5L511.55,121.67a545.52,545.52,0,0,0,7-68.54l40.88.78A12.09,12.09,0,0,0,571.62,44l2.92-16.21A5.49,5.49,0,0,0,571,21.62l-15-5.3H442.69l-.76,4.17a12.09,12.09,0,0,0,7.89,13.58l38.57,13.6a541.5,541.5,0,0,0-17.46,66.65l-154,4.79A5.48,5.48,0,0,0,312,122.6l-10,25.8A17.51,17.51,0,0,0,315.18,172l108.28,19.6,29,24.65-3.11,17.2c-2.26,12.48-3.16,26.21-1.57,38.83-5.9-1-16.47-2.77-19.41-2.18L418.72,272l8.35,5.15c3,1.88,17.28,4.49,22.81,5.5,1.5,4.8,4.23,10.32,9.51,11.27s9.77-3.25,12.85-7.21c5.54,1,19.79,3.54,23.29,2.83l9.62-1.9-8.34-5.15c-2.6-1.59-13.05-3.66-18.94-4.76,5.92-11.27,9.89-24.44,12.15-36.93Z"/><path class="cls-5" d="M548.62,16.32h-9.14l.73.26L537.53,31.4l-15.32-2.78,8.42-12.3H513.08l-.17,1.21-1.52,10.58c-.55,3.52-1,7.06-1.77,10.55.5-3.53.89-7.08,1.28-10.62l1.23-10.61.14-1.11h-2.62l-6.49,35.81s-2.35-9.22-1.33-14.88c.56-3.52,1.34-7,2.05-10.5l2.3-10.43h-3.83c-1,2.49-2.06,5.2-3.18,8.15l-20.9-3.79.78-4.36h-1l-.75,4.17-20.47-3.7.08-.47h-3.09l-2.27,12.53a6.6,6.6,0,0,1-4.18-7.38l.92-5.15h-3.08l-.83,4.6a9.61,9.61,0,0,0,6.29,10.85l40.83,14.39A546.63,546.63,0,0,0,473,116.7l-155.91,4.85a3,3,0,0,0-2.75,1.93l-10.06,25.8a15.09,15.09,0,0,0,11.37,20.32l108.94,19.73,30.54,26-3.36,18.59c-2.42,13.34-3,26.89-1.55,38.14.13,1.06.29,2.15.48,3.25-18.17-3.12-21.35-2.87-21.83-2.78l-3.55.71,3.07,1.89c.43.27,3.53,1.7,23.45,5.45,1.51,5.53,4,10.27,8,11s8-2.86,11.38-7.51c20,3.48,23.35,3.23,23.85,3.13l3.55-.71-3.07-1.88c-.42-.26-3.31-1.62-21.42-5.07.56-1,1.1-1.93,1.6-2.87,5.25-10,9.5-22.92,11.91-36.26L491,221.8l37.73-13.62L637.63,227.9a15.08,15.08,0,0,0,17.77-15l-.37-27.7a3.06,3.06,0,0,0-1.9-2.77l-144.31-59.2a545.62,545.62,0,0,0,7.4-72.55l43.28.84a9.62,9.62,0,0,0,9.71-7.95l1-5.31,2-10.89a3.06,3.06,0,0,0-2-3.41l-21.55-7.6ZM438.92,197.56l-13-11.09L316.15,166.62a12,12,0,0,1-9.86-10.89L442,180.3l-3.1,17.26Zm21.9-13.85-5.1,28.15-15-12.78,3.34-18.4,16.8,3Zm-9.91,93c.16.76.33,1.52.5,2.27-20.16-3.8-22.31-5.14-22.31-5.14s2.41-.47,21.81,2.87Zm25.49,4.66c16.5,3.21,18.37,4.36,18.37,4.36s-2.15.43-18.75-2.34c0,0,.05,0,.07,0l1.12-.8-.78-1.16,0,0ZM516.48,41.88l35.44,6.42-35.6-.69c.06-2,.13-3.87.16-5.73Zm50.71-4.21-1,5.32a6.66,6.66,0,0,1-6.52,5.45L564,25l5.2,1.83-2,10.88Zm-72.89.19c-.62,1.77-1.25,3.56-1.87,5.42L458.85,31.45l35.45,6.41ZM452.9,258.29l-.87-.15c0-.69,0-1.37,0-2.05l.88.15c0,.69,0,1.37,0,2.05Zm22.37,24s-1.25.9-11.15-.9l.2-1.08.2-1.08c9.88,1.8,10.75,3.06,10.75,3.06Zm1.94-17.49.89.15c-1.09,2.86-2.27,5.67-3.62,8.43q-1.28,2.63-2.77,5.18l-1-.18q1.57-2.64,2.94-5.42c1.31-2.66,2.49-5.39,3.56-8.16Zm2.32-3.7c-.23.64-.46,1.29-.7,1.94l-.87-.17.69-1.93.88.16Zm24.12-69.6,9.84,1.79-3.32,18.4L495.32,217c1.22-3.66,4.45-13.62,8.33-25.54ZM538.52,31.57l2.65-14.65,19.88,7L559,35.3l-20.46-3.73Zm-84-1.95,2.14-11.84,42.2,7.65c-1.32,3.53-2.73,7.36-4.18,11.46l-40.16-7.27Zm30,53.71,21.95,4q-.93,7.86-2.1,16.09l-23.52-4.26c1.19-5.41,2.41-10.7,3.67-15.8Zm4.15-16,19.54,3.55c-.44,4.66-.93,9.48-1.51,14.44L485,81.36c1.2-4.84,2.41-9.53,3.66-14.06Zm21.39-20.94c-.4,6.93-.93,14.45-1.65,22.46l-19.22-3.48c2.3-8.34,4.59-16.1,6.79-23.15,1.46-4.21,2.87-8.17,4.23-11.85-.61,2.7-1.1,5-1.35,6.38-1.14,6.23,1.27,15.76,1.38,16.16l1.64,6.42,3.8-5.43a65.41,65.41,0,0,0,4.38-7.51ZM558.81,36.3l-2.13,11.83-40.19-7.28c0-1.36,0-2.67.07-4l5-7.32,37.22,6.75ZM472.9,213l-12.7-2.29c3.46-19.05,7.58-41.78,16.26-89.72q1.85-10.18,4-19.88l23.66,4.28q-1.44,9.81-3.27,20l-.42,2.3a20.41,20.41,0,0,0-.95-4.27,21.15,21.15,0,0,0-2.71-5.34,23,23,0,0,0-4.11-4.42l-.5-.41-.63.2a21.78,21.78,0,0,0-9.81,6.76A19.81,19.81,0,0,0,477.21,131a28.89,28.89,0,0,1,2.44-5.14,25.39,25.39,0,0,1,3.42-4.36,23.36,23.36,0,0,1,8.53-5.5,21.84,21.84,0,0,1,3.28,3.45,23.48,23.48,0,0,1,2.79,4.71,22.61,22.61,0,0,1,1.66,5.27,21.43,21.43,0,0,1,.34,2.25c-1.64,9-3.09,17.07-4.41,24.37l3.11-21.09a18.36,18.36,0,0,0-6.58-16.9,1.17,1.17,0,0,0-.51-.23,1,1,0,0,0-.55,0,18.28,18.28,0,0,0-12.09,13.51l-11.27,52.41a18.35,18.35,0,0,0,5.79,17.56l1.26,1.12L472.9,213Zm-2.61,18.08L457,228.67c1-5.42,1.92-10.58,2.9-16L472.61,215l-2.32,16.07Zm13.91-14c-1,5.39-1.92,10.54-2.89,15.95l-10.09-1.82,3.45-15.86,9.53,1.73Zm6-6.22L489.3,216l-.68-.12.93-5.08,7.75-42.31,7.91-42.28-7.42,42.38-7.58,42.32Zm50.2-54.32-6,33.24-28.53-5.16c4.11-12.65,8.59-26.5,12-37.09l22.59,9Zm49,19.51L585.28,199l-48.92-8.85,6-32.85,47.11,18.75Zm-71-30.45c1.46-4.56,2.67-8.4,3.51-11.11l16.21,6.71c12.55,5.16,25.12,10.24,37.67,15.33l16,6.36-.36,2-1.66,9.11-71.35-28.44ZM479,202.35a18.28,18.28,0,0,0,9.35-8c-1.42,7.83-2.62,14.52-3.76,20.79l-9.45-1.71L477.38,203l1.59-.61Zm16.59-68.44a19.6,19.6,0,0,0-.2-7.1,16,16,0,0,1,.77,7.77l-1,6.72-.7-.12,1.12-7.27Zm-8.42-11.72a16.09,16.09,0,0,1,2.47-1.47l-3.44,19-4.18-.75,1.44-7.23a26.72,26.72,0,0,1,3.71-9.51Zm-7,16.4-.69-.13,1.42-6.64a15.94,15.94,0,0,1,3.52-7.08,19.29,19.29,0,0,0-2.75,6.65l-1.5,7.2Zm-4.89,61.54-.57-.52A16,16,0,0,1,469.43,185l1.23.22a17.06,17.06,0,0,0,3.91,11.9c-1.46-2.81-2-6.93-1.64-11.36l-1.71-.43c1.28.1,2.55.29,3.83.47s2.53.41,3.79.61,2.54.48,3.78.75,2.51.56,3.76.9c-1.2-.11-2.39-.26-3.56-.43a22.74,22.74,0,0,1-4.72,9.2l1.77-9.67-1.13-.19c-.37-.07-.73-.15-1.1-.21l-2.42,13.33Zm11.72-11.93,1.2.22a16,16,0,0,1-10,11.82l-.71.28.33-1.88.85-.41a16.91,16.91,0,0,0,8.3-10ZM475,163l-4,18.91c-.07.36-.14.73-.19,1.08l-1-.17,4.27-20,.84.16Zm12.51,23c.07-.36.15-.72.2-1.08l2.94-19.1.83.14-3,20.21-1-.17Zm-4.74-21.32-1.11-.21-3.59,19.81-4.87-.87c.06-.37.1-.72.18-1.08l3.73-18.85c-.5-.13-1-.24-1.48-.38,1.21.1,2.42.26,3.62.44s2.41.37,3.62.58,2.4.45,3.58.72,2.39.53,3.57.87c-1.12-.09-2.23-.25-3.35-.42l-3.1,18.89c-.06.36-.12.72-.19,1.06l-3.09-.55,3.59-19.82-1.11-.19Zm-3.86-24,.71.14-4.17,20-.81-.14,4.27-20Zm12.7-18.44a26.59,26.59,0,0,1,.33,11l-1.19,7.27-2.37-.43,3.23-17.87Zm2.1,21.13c-1.14-.1-2.25-.24-3.35-.41l-3.28,20-2.74-.5,3.58-19.83-1.12-.19-1.11-.21L482.14,162l-4.55-.81,4-19.91c-.51-.13-1-.25-1.5-.41,1.16.1,2.31.25,3.46.41s2.28.36,3.43.56,2.28.42,3.4.68,2.27.51,3.4.84Zm.38.06.72.13-3,20.2-.81-.14,3.1-20.19ZM651,185.9c.09,2.28.2,4.52.29,6.79l-58.6-23.35.72-4,.29-1.62q9.94,4,19.92,7.85c6.31,2.47,12.62,4.94,19,7.35q9.18,3.54,18.42,7Zm.6,13.15c.18,4,.42,8.08.63,12.12l-65-11.78,4.09-22.53,1-5.48,59.07,23.53c.08,1.39.14,2.78.21,4.14ZM453.35,256.32,475,260.24c-.21.65-.43,1.3-.63,1.94l-21.13-3.82c0-.67.06-1.36.1-2Zm22.25,2-22.11-4a168.34,168.34,0,0,1,2.39-19.63c.25-1.37.5-2.69.73-4l13.4,2.43-1.62,11.13,2.39-11L481,235.06c-.25,1.3-.48,2.63-.72,4a172.3,172.3,0,0,1-4.63,19.23Zm-8.22-95.23,7.91-42.26-7.41,42.35-7.58,42.34-.91,5.09-.68-.12.93-5.08,7.74-42.32Zm-37.77-26.13-5.95,32.86-48.88-8.86L378.93,138l50.68-1.06Zm39.81-.83-7.35,40.64-36.41-6.6,6-33.26,37.74-.78Zm-161.64,12.7c1.62-3.7,3.26-7.39,4.85-11.11.56-1.26,1.08-2.53,1.63-3.8l63.59-1.34-1,5.48-4.09,22.54-65-11.77Zm10-23.21c6.55,0,13.13,0,19.7-.12,6.77,0,13.55-.13,20.32-.23q10.71-.14,21.41-.37l-.29,1.63-.74,4-63.08,1.32c.87-2.08,1.78-4.17,2.68-6.25Zm121.32-2.28c10.94-.39,21.88-.73,32.82-1.17l-2.15,11.92L379.3,136l1.64-9.1.36-2,17.2-.36c13.55-.37,27.1-.72,40.64-1.16Zm213.19,89.94a12.27,12.27,0,0,1-.41,3L504.27,189.51c.33-1,.65-1.92,1-2.9l147.1,26.63ZM488.94,218l-2.53,14.09q-.15.94-.33,1.86l-.75-.14c.12-.61.23-1.23.35-1.85l2.57-14.08.69.12Zm-3.22,18q-.59,3.34-1.22,6.71-1,5.3-2.52,10.49c-.55,2-1.16,4-1.8,6l-.87-.16c.67-2,1.3-4,1.87-6q1.45-5.15,2.53-10.42c.44-2.21.85-4.45,1.26-6.69l.75.14ZM468,277.85l-14.72-2.68c-.34-1.93-.59-3.88-.77-5.82-.3-3.05-.43-6.1-.45-9.15l.89.15c0,2.19.12,4.38.29,6.55-.07-2-.07-4.22,0-6.48l20.53,3.7A110,110,0,0,1,468,277.85ZM453.86,237.1c.38-2.26.8-4.49,1.2-6.73l.77.13q-.65,3.38-1.17,6.73c-.57,3.52-1,7.08-1.29,10.63-.19,2.1-.3,4.22-.37,6.33l-.87-.15q.12-3.14.39-6.24.47-5.38,1.34-10.7Zm1.9-10.59,2.6-14.08.66.13-2.52,14.08c-.11.63-.21,1.26-.32,1.87l-.76-.14c.11-.62.23-1.23.34-1.86ZM306.32,153.69a11.73,11.73,0,0,1,.66-3l154.74,28-.54,3-154.86-28Zm344.91,64.49a12.07,12.07,0,0,1-13.06,6.74L528.43,205.05l-16.06,5.81,3.11-17.25,135.75,24.57Zm-193.47,69.3a11.18,11.18,0,0,1-1.55-2.34A26.56,26.56,0,0,1,454.3,280c-.25-.9-.45-1.8-.64-2.71L463.1,279l-.18,1-.2,1.08-.24,1.4,1.39.25,1.16.2c-1.76,2.66-3.4,4.39-4.81,5a.68.68,0,0,0,.23.07,3.69,3.69,0,0,0,2.27-.48,11.34,11.34,0,0,0,2.07-1.5,22.88,22.88,0,0,0,2.53-2.76l1.11.16a22.9,22.9,0,0,1-3,3.33,11.67,11.67,0,0,1-2.27,1.65,4.54,4.54,0,0,1-2.9.6A4.61,4.61,0,0,1,457.76,287.48Z"/><path class="cls-5" d="M146.06,16.32c-.72,5.29-1.54,10.69-2.48,16.16L271.89,85.12a2.68,2.68,0,0,1,1.68,2.46l.34,24.63a13.42,13.42,0,0,1-15.81,13.38L131.6,105.7l-6.87,31a115.54,115.54,0,0,1-10.6,32.24c-.44.85-.92,1.71-1.4,2.56,16.09,3.08,18.66,4.27,19,4.5l2.74,1.68-3.15.63c-.44.09-3.46.32-21.22-2.78-3,4.14-6.5,7.32-10.11,6.66s-5.79-4.86-7.13-9.78c-17.71-3.33-20.46-4.6-20.84-4.83l-2.73-1.69,3.16-.62c.41-.09,3.25-.31,19.39,2.45-.16-1-.3-1.94-.42-2.88-1.26-10-.77-22,1.38-33.92l6.87-31L16.32,81.81V29.67l95.38-3c.66-3.5,1.37-7,2.1-10.38Z"/><path class="cls-5" d="M16.32,339.7H958.47v49.95H16.32V339.7ZM958.47,460V429.41H16.32V460Zm0-48.9V399.84H16.32v11.22Zm0-80.53V312.21H16.32v18.32Zm0-28.51V290.8H16.32V302Z"/><rect class="cls-6" x="16.32" y="466.35" width="942.15" height="206.58"/><path class="cls-7" d="M286.3,192.64l55.41,50.13,211.3,45a34.39,34.39,0,0,1,24.49,47.1l-21.31,50.05a10.75,10.75,0,0,1-9.88,6.54l-302.42.14A1073.73,1073.73,0,0,1,205.6,521.32l74.86,29a23.73,23.73,0,0,1,14.67,27.14l-6.74,31.61a10.73,10.73,0,0,1-11,8.48L170.1,612.2a2.81,2.81,0,0,0-.29,0c-2.06,4.6-4.34,9.16-6.66,13.61l-17.91,34.45-2.36-38.76c-.28-5-.52-10.09-.54-15.14a1,1,0,0,0-.2-.09L41.94,567.42a10.74,10.74,0,0,1-6.59-12.25l6.73-31.61a23.72,23.72,0,0,1,24.44-18.79l80.2,4A1070.91,1070.91,0,0,1,164.6,374.69L16.32,308.46v-135l119.59,25.45,71-23.19,7.15-33.57c5.2-24.36,13.79-50,26.08-71.72-11.51-2.53-32-7.22-36.87-10.48L187.2,49.32l19-3.15c6.83-1.15,34.73,4.71,45.51,7,6.29-7.57,15.37-15.6,25.67-13.42s15.34,13.25,18,22.72c10.79,2.34,38.6,8.29,44.42,12.16l16.06,10.61-19,3.18c-5.87,1-26.37-3.08-37.89-5.46,2.32,24.88-.26,51.77-5.46,76.12Z"/><path class="cls-8" d="M16.32,178.35v6.1l120.19,25.6L168.4,199.6l-7.17,33.69L16.32,202.42v4.08L197.06,245l-1.23,5.84L16.32,212.58v4.07l4.41.94-4.41,20.72v19.06l8.29-39L120,238.74l-13.66,64.12L16.32,263.75v4.31l160.94,70-4.95,23.21c-19.57-8.94-39.18-17.67-58.76-26.53q-36.39-16.31-73-32.36-12.15-5.23-24.25-10.53v11.41l153.75,68.67a1068.24,1068.24,0,0,0-18.9,141.89l-84.9-4.25a19,19,0,0,0-19.52,15L44.54,535,40,556.17A6,6,0,0,0,43.67,563L143.9,601.81a5.69,5.69,0,0,0,3.27.29c-.18,7.28.34,16.67.49,19.1l1.3,21.49,9.95-19.09c1.12-2.14,5.42-10.52,8.23-17.24a6.19,6.19,0,0,0,2.2.94,6.64,6.64,0,0,0,.91.14l107.31,5.35a5.93,5.93,0,0,0,6.16-4.71l4.53-21.24,2.2-10.39a18.91,18.91,0,0,0-11.71-21.66l-79.25-30.73A1071.23,1071.23,0,0,0,240,386.8l306.28-.09a6,6,0,0,0,5.48-3.67l21.31-50A29.54,29.54,0,0,0,552,292.46L339.44,247.18l-58.37-52.84,7.73-36.25c5.55-26,7.41-52.59,5.35-74.77-.22-2.06-.47-4.22-.76-6.4,35.48,7.18,41.71,6.93,42.69,6.76l7-1.17-5.92-3.9c-.79-.55-6.78-3.55-45.66-12.1-2.61-11-7.16-20.38-15.06-22.07s-15.92,5.1-22.79,14c-39-8-45.67-7.72-46.61-7.54l-7,1.15L205.92,56c.78.53,6.38,3.32,41.69,11.22-1.16,1.87-2.23,3.74-3.29,5.53-10.95,19.38-20,44.43-25.57,70.46L211,179.42l-74.87,24.47L16.32,178.35Zm181.57,62.74-32.77-7,7.65-35.91,36.83-12.05-11.71,54.93Zm51.3-176.42c-37.73-8.37-41.76-11-41.76-11s4.92-.81,44.35,7.27c-.86,1.23-1.75,2.5-2.59,3.76Zm49.74,10.54.14-.06,2.27-1.51-1.46-2.3c-.05,0-.06-.07-.12-.08,32.24,7.32,35.84,9.68,35.84,9.68s-4.28.68-36.67-5.73Zm-105.5,465c1.3-3.39,2.64-6.92,4-10.52l65.17,25.26-69.16-14.74Zm89,45.41-4.51,21.22-10.8-.52,9.76-45.82a13,13,0,0,1,7.77,14.75l-2.22,10.37ZM108.2,550.26,149,559c-.26,9.37-.33,17.73-.36,24.92L146,596.27l-44-17.09,6.15-28.92ZM150.14,531,81,516.23l69.81,3.52c-.24,3.84-.44,7.58-.63,11.22ZM239.07,99.7c-.52,1.25-1,2.51-1.5,3.74l-1.69-.37c.49-1.22,1-2.48,1.45-3.73l1.74.36Zm58.45-26.87S295,74.49,275.7,70.4l.46-2.14.43-2.09c19.29,4.1,20.93,6.66,20.93,6.66Zm-9.47,33.23c.1-5.83,0-11.66-.39-17.5-.29-4-.72-8-1.33-12l2,.41c.53,3.8.93,7.64,1.16,11.47.39,6,.45,12,.33,18l-1.74-.37Zm1.43,8.43-1.7-.35c.06-1.33.14-2.65.17-4l1.73.36c-.06,1.36-.12,2.71-.2,4Zm-8,144.41c1.85-24.53,3.36-45,3.91-52.6l22.94,20.79L300.7,263l-19.22-4.1ZM225.8,575.33l40,8.51L261,606l-41.3-2.06,6.08-28.6ZM194,568.54l29.89,6.36-6.18,28.91-16.31-.8L194,568.54ZM66.29,541.33l40,8.53-6.08,28.64-38.6-15,4.72-22.18Zm5.35-25L150,533c-.44,8.53-.72,16.54-.94,23.94L66.71,539.4l4.93-23.11Zm94.56-75.18q2.28-15.33,5.09-31.47l45.92,9.79q-4,15.82-8.15,30.81l-42.86-9.13Zm-4.42,32.18q1.74-13.71,3.83-28.21l42.35,9c-2.65,9.4-5.34,18.51-8,27.33l-38.19-8.13Zm23.29,54a123.35,123.35,0,0,0-2.39-16.93l-2.83-12.69-7.77,10.43c-.48.68-11.93,16.18-14.55,28.37-.57,2.73-1.38,7.23-2.26,12.58.29-7.7.64-15.92,1.14-24.69,1.25-14.44,2.83-30.23,4.9-47.08l37.48,8c-4.63,15.08-9.28,29.15-13.72,42Zm81.1,54.61L193.52,566.4l-3.67-17,2.85-7.28,78.39,16.71-4.92,23.11Zm-24.5-385-5.1,20.36-3.16,1.09a36.1,36.1,0,0,0-23.58,27.59L191.28,349.49A35.91,35.91,0,0,0,203.21,383a1.72,1.72,0,0,0,.95.52,2.18,2.18,0,0,0,1.1-.07,36,36,0,0,0,24.54-25.77l10-40.64c-3,14.23-6.37,30-10.13,47.57-.71,1.29-1.45,2.57-2.28,3.79a44.57,44.57,0,0,1-7,8.37,44.12,44.12,0,0,1-8.55,6.45,42.51,42.51,0,0,1-8.52,3.83A45.86,45.86,0,0,1,192,370.73,48.24,48.24,0,0,1,189,360.26a52.53,52.53,0,0,1-.59-11.12,38.4,38.4,0,0,0,.1,22.83,42.48,42.48,0,0,0,12.76,19.56l1,.86,1.23-.39a44.29,44.29,0,0,0,10.72-5,42,42,0,0,0,8.93-7.68,39.94,39.94,0,0,0,4.91-7.05c-.31,1.49-.63,3-1,4.49-2.82,13.24-5.85,26.2-9,38.76L172,405.72c2.28-12.72,4.8-25.78,7.63-39C199.55,273.11,209,228.77,216.91,191.6l24.76,5.26Zm8.7-34.76L242.61,193l-24.87-5.28c2.23-10.52,4.38-20.56,6.63-31.14l26,5.53Zm14.87,35.72-18.57-3.95,5.53-31.39,19.67,4.21c-2.24,10.55-4.39,20.63-6.63,31.13Zm6.29,15.78-17.76,82.55L235.7,378.62l17.1-82.68,17.44-82.63,2.1-9.91,1.32.26-2.13,9.94Zm50.74,136.07-47.7-.45c1.72-21.75,3.92-50.26,5.87-76.32l55.66,11.86-13.83,64.91Zm103.62,1-99.57-1L340,285.59l95.43,20.33-9.52,44.78Zm-151.64,2.48L425,354.66l-3.78,17.73-.85,4q-16.89-.19-33.77-.31c-26.6-.14-53.22-.27-79.82-.23-11.5.07-23,.1-34.49.16.51-5.56,1.16-13.43,1.93-22.83ZM244.76,220.74l-2.43-2.28L246,197.79l18.45,3.91C261.81,214,259,227,255.77,242.28a36,36,0,0,0-11-21.54ZM224,357.44l3.38-14,1.35.27-3.22,13a31.38,31.38,0,0,1-7.2,13.55A38.8,38.8,0,0,0,224,357.44Zm-24.07,15a53.34,53.34,0,0,1,.38-20L203,338.22l8.15,1.72-7.88,37a29.17,29.17,0,0,1-3.42-4.5Zm-.52-35-2.64,14.22a37.58,37.58,0,0,0,.05,14.11,31.34,31.34,0,0,1-1.14-15.46L198,337.13l1.37.29ZM236.3,222l-5.54,26c.74.13,1.43.29,2.17.43s1.47.32,2.17.49l4-18.89c2,5.42,2.62,12.63,1.72,20.23,2.26.59,4.53,1.15,6.78,1.87-2.52-.31-5-.72-7.48-1.18s-4.94-1-7.43-1.44-4.93-1.09-7.35-1.71-4.88-1.23-7.32-2c1.12.14,2.28.3,3.44.49,2.57-8.33,6.7-15.4,11.44-19.41-7.17,3.56-12.91,10.36-16,18.69l-2.37-.53a31.56,31.56,0,0,1,20.33-22.58l1.42-.49Zm12.41,30.37c.63-9.24-2.09-18.18-7.64-24.4l-1.23-1.36.78-3.68,1.11,1a31.48,31.48,0,0,1,9.33,28.91l-2.35-.5Zm-40.45,36.91-1.61-.37,7.08-39.45,1.89.41c-.16.66-.3,1.36-.45,2.07l-6.91,37.34Zm39.91-32.49,1.9.41-9.62,38.94-1.64-.36,8.93-36.91c.14-.7.28-1.39.43-2.08ZM223.67,292c.72.15,1.44.33,2.14.48l8.25-38.66,6,1.26c-.16.69-.3,1.38-.45,2.08l-8.43,36.59c2.13.56,4.25,1.12,6.36,1.78-2.38-.26-4.72-.67-7.08-1.07s-4.73-.89-7.08-1.39-4.67-1-7-1.6-4.62-1.18-6.91-1.92c1,.1,2,.24,3,.41l7.24-37c.15-.73.31-1.38.48-2.09l9.5,2-8.25,38.68c.73.14,1.45.27,2.19.44Zm-24.9,40.79,7.1-39.49,1.6.36-7.34,39.41-1.36-.28Zm9.31,42.92,7.44-34.83,4.66,1L216.94,356c-1.83,7.82-5,14.79-8.86,19.74Zm19.54-36.77c-2.28-.27-4.52-.64-6.78-1s-4.45-.84-6.69-1.3-4.44-1-6.65-1.54-4.4-1.14-6.58-1.85c1,.11,2,.25,3,.4l7.67-39.13,8.86,1.91-8.24,38.68c.72.13,1.43.28,2.18.43s1.43.31,2.14.48l8.24-38.68,5.37,1.16-8.9,38.65c2.12.52,4.24,1.1,6.37,1.8Zm.73.15,9.42-39,1.59.35-9.6,38.94-1.41-.3Zm316.72,39.62q-19.35-.57-38.68-1-20-.47-39.92-.76-21-.37-42-.57l.67-3.2,1.7-7.82,123.84,1.21c-1.89,4.05-3.74,8.07-5.59,12.1ZM556,355.27c-1.17,2.46-2.31,4.93-3.44,7.37l-124.89-1.22,2.29-10.69,9.36-44,126.86,27c-3.41,7.13-6.88,14.29-10.18,21.49ZM238.42,103.62c.41-1.27.86-2.52,1.33-3.76L281,108.64c-.1,1.29-.2,2.65-.32,4l-42.22-9Zm41.85,13a341.88,341.88,0,0,1-5.9,38.39c-.56,2.65-1.11,5.21-1.67,7.8l-19.83-4.24,3.85-21.76-5.36,21.44-26.17-5.57c.55-2.54,1.11-5.16,1.65-7.79a339.29,339.29,0,0,1,10.28-37.47l43.15,9.2Zm-85.82,166.9,17.44-82.63L214,191l1.32.29-2.14,9.92-17.76,82.55-18,82.49,17.09-82.69ZM178.11,334l-68-29.52,13.82-64.9L195,254.71,178.11,334Zm389.7-4L280.72,268.89c.17-2,.32-4,.47-6l288.1,61.36a22.12,22.12,0,0,1-1.48,5.76ZM274.51,199.79l-1.34-.31L279,172c.25-1.23.5-2.43.75-3.64l1.47.3c-.28,1.21-.53,2.42-.79,3.64l-5.9,27.48Zm7.52-35-1.45-.31c.93-4.37,1.85-8.74,2.68-13.11,1.33-6.89,2.36-13.83,3.16-20.82.46-4.1.82-8.25,1.1-12.4l1.69.37c-.28,4.09-.69,8.16-1.15,12.23q-1.23,10.51-3.26,20.89-1.37,6.6-2.77,13.15Zm-1-89.38a214.31,214.31,0,0,1,.2,29.17l-40-8.52c1.57-4.12,3.2-8.06,4.82-11.77C244.08,88.1,242.3,92,240.63,96l-1.74-.37c2.31-5.51,4.82-11,7.61-16.28,1.79-3.39,3.71-6.75,5.76-10L281,75.41Zm-56,63.51c1.58-6.87,3.43-13.7,5.51-20.43q1.88-5.85,3.95-11.63l1.69.36c-1.42,3.91-2.78,7.83-4,11.78-2.09,6.68-4,13.44-5.57,20.27-1,4.35-1.94,8.72-2.87,13.07l-1.5-.3c.92-4.37,1.84-8.73,2.84-13.12Zm-4.42,20.66c.27-1.24.52-2.43.78-3.67l1.46.33c-.26,1.22-.5,2.42-.77,3.64l-5.92,27.48-1.34-.27,5.79-27.51ZM50.37,536.19l2.21-10.38A13,13,0,0,1,65.7,515.49l-9.77,45.83-10.08-3.9,4.52-21.23ZM152.62,620.9c-.32-7-.62-14-.32-21.1.06-.89.12-1.79.24-2.68s.31-1.79.5-2.61l.87-5.18L155.69,579l3.59-20.69c1.3-6.88,2.47-13.78,4.11-20.61,2.36-11.05,13.48-26,13.48-26L154.42,617.08c2.62-5.11,5.14-10.28,7.27-15.56.31-.83.61-1.63.87-2.41s.43-1.65.63-2.52l1.34-5.1c.88-3.38,1.83-6.74,2.78-10.09L173,561.19c1.92-6.78,3.85-13.47,5.58-20.24-1.29,6.88-3,13.68-4.63,20.47l-5.15,20.35-2.61,10.17L164.89,597c-.19.84-.37,1.67-.61,2.59s-.57,1.72-.9,2.55c-2.59,6.58-5.7,12.85-8.89,19.13l-1.67,3.36-.2-3.75ZM569.48,320.23,304.6,263.82l7.16-33.67,24.88,22.53L550.77,298.3a23.62,23.62,0,0,1,18.71,21.93ZM269.62,50.3a9.05,9.05,0,0,1,5.73-1,8.8,8.8,0,0,1,4.82,3.26,21.83,21.83,0,0,1,2.91,4.68A46.65,46.65,0,0,1,286,65.52c-.68-.19-1.37-.34-2.11-.54a45.54,45.54,0,0,0-2.58-6.9,19.92,19.92,0,0,0-2.63-4.27A7.35,7.35,0,0,0,275,51.24c-.18,0-.32,0-.49-.05,2.06,2.22,3.78,6.6,5,12.75l-2.27-.5-2.7-.57-.59,2.71-.44,2.11-.42,2-18.45-3.93c1-1.5,2.09-3,3.18-4.43a52.7,52.7,0,0,1,7.29-7.88A22.32,22.32,0,0,1,269.62,50.3Z"/><path class="cls-8" d="M858.62,450A21.48,21.48,0,0,1,847,453.48H831.86c-8.27,0-13.81-4.82-13.81-13.26,0-4.84,1.8-10.05,3.74-14.49L827.15,414a42.66,42.66,0,0,1,10.37-14.41c4.89-4.48,10.76-7.57,17.52-7.57h3.47A21.43,21.43,0,0,1,871,388.23c5.56,0,10.17,2.06,12.44,6.19l9.8-22a30,30,0,0,1,12.19-13.65,32,32,0,0,1,16.23-4.29,28.06,28.06,0,0,1,11.58,2.41c4.77,2.2,8.39,6,8.39,11.52a12.32,12.32,0,0,1-1.19,5.23L924.9,408.44a57.08,57.08,0,0,1-7.62,12.41c-.27.31-.52.63-.78.94l9.55,12.74-3.24,3.6a24.07,24.07,0,0,1-8.67,5.92,29.87,29.87,0,0,1-6,1.86c-.27.84-.59,1.67-.9,2.44l-5.64,12.47c-2.54,5.82-8,9.28-13.75,11.44a41.38,41.38,0,0,1-14.68,2.93c-9.13,0-17.56-3.79-17.56-14.07a22.38,22.38,0,0,1,2-8.66l1.06-2.43ZM727.29,398.84,732.56,387,747,394.7a27.6,27.6,0,0,1,15.87-4.46,15.24,15.24,0,0,1,10.49,3.7,29.51,29.51,0,0,1,14.7-3.7c9.72,0,15.27,6.09,15.27,15.68a31.92,31.92,0,0,1-2.9,12.69l-2.9,6.51c1.68-1.33,3.59-3.11,4.32-4.73l4-9,10.85,14.06v3.43l-.52,1.16c-3.36,7.38-10.61,12.7-17.51,16.5-7,4-14.94,6.92-23.1,6.92a14.92,14.92,0,0,1-6.3-1.45,13.61,13.61,0,0,1-5.88-4.74l-2.75,6.19H703l.16-.34a36.19,36.19,0,0,1-4.89.34,11.36,11.36,0,0,1-6.5-1.87,21.07,21.07,0,0,1-9.31,2.14c-6.11,0-12.18-1.37-16-5-5.64,2.66-11.88,4.73-18,4.73H638.21c-5.72,0-11.56-1.16-15.5-4.37a59.46,59.46,0,0,1-22.17,4.37c-8.58,0-16.76-2.29-20.86-8.48-.89.55-1.77,1.07-2.66,1.56a56.09,56.09,0,0,1-14.13,5.77l-5.37,2.14.08-1.19a37.64,37.64,0,0,1-3.83.2,11.3,11.3,0,0,1-6.49-1.87,21.15,21.15,0,0,1-9.32,2.14c-6.19,0-12.33-1.41-16.19-5.14a44.92,44.92,0,0,1-19.33,4.87,15.38,15.38,0,0,1-10-3.63,12.93,12.93,0,0,1-4.88-10.17,14,14,0,0,1,1.33-5.9l24.23-54.46a20.52,20.52,0,0,0-5.29,6.59l-30.11,67.57H445.41l32.27-72.77a19.13,19.13,0,0,0-3.76,5.22l-30.11,67.55H410.55l35.33-79.34h-20.5c-5.66,0-9.1-4.15-9.1-9.64,0-5.71,3.7-9.78,9.51-9.78h32.56c5.14,0,12,.41,16.75,3.42a41.71,41.71,0,0,1,17.56-4.09,49.73,49.73,0,0,1,10.42,1.06,22.13,22.13,0,0,1,6.63,2.34c4.91-2.56,10.63-3.4,16.19-3.4h1.47A26.78,26.78,0,0,1,540,357.14c4.9,2.57,8.51,6.7,8.51,12.45a13.48,13.48,0,0,1-1.33,5.76l-8.15,18.37h19.1l3-6.79L586.4,400.8l-9.74,22.14c1.19-.95,2.37-1.93,3.53-2.92l3.86-8.61,2.28,2.95a87.2,87.2,0,0,0,8.11-9.14c0-.48-.06-1-.06-1.46a28.16,28.16,0,0,1,2.67-11.51c3.43-7.67,9.19-13.93,18.1-13.93,6.47,0,12.73,2.85,12.73,10.17a16.58,16.58,0,0,1-1.39,6.27l-.06.15-.07.16a55.06,55.06,0,0,1-5.24,8.27,56.81,56.81,0,0,1,5.54,8.94,40.43,40.43,0,0,1,10-13.49A25.75,25.75,0,0,1,653.75,392H667c4.52,0,8.6,1.26,11.26,3.95l1-2.21h23.36l3-6.79,21.65,11.91ZM648,432.58l-.46,1a36.48,36.48,0,0,0,6.89-1Z"/><path class="cls-7" d="M799.55,431q-5.89,4.29-9.78,4.29c-1.43,0-2.14-.57-2.14-1.75a5.06,5.06,0,0,1,.66-2.13l6.7-15.15a25.72,25.72,0,0,0,2.42-10.31q0-9.8-9.39-9.79a23,23,0,0,0-16.21,6.17q-2-6.18-9-6.17-9.65,0-15.14,5.63l-12.33-6.57-17,38.2a13.11,13.11,0,0,1-5.92,1.87c-1.34,0-2-.57-2-1.75a5.3,5.3,0,0,1,.54-2.13l12.33-28-14.88-8.18L691,434.46c-1.43,3.39-3.08,5.1-5,5.1-1.08,0-1.61-.64-1.61-1.88a9.7,9.7,0,0,1,.94-3.89l15.28-34.18H683.09l-11.25,25.33a53,53,0,0,0-2.84,7.59,43.4,43.4,0,0,1-23.43,7h-3.89c-1.07,0-1.6-.69-1.6-2a9.32,9.32,0,0,1,.94-3.75l3.21-7.1h13.4q9.92,0,13.27-7.65,4.68-10.59,4.69-14.6c0-4.39-2.86-6.56-8.58-6.56H653.75a19.88,19.88,0,0,0-13.27,5.35,34.31,34.31,0,0,0-8.71,12.06l-4.29,9.65a41.43,41.43,0,0,0-3.21,9.79c-4.76,2.72-9.07,4.14-12.87,4.14q11.93-8.43,11.92-17,0-6.56-9.64-18.48A70.27,70.27,0,0,0,621,392.51a10.7,10.7,0,0,0,1-4c0-2.86-2.29-4.28-6.85-4.28q-8,0-12.72,10.45a22.46,22.46,0,0,0-2.14,9.1,10.29,10.29,0,0,0,.39,3,101.31,101.31,0,0,1-15,16.37l-.23-.29c-.16.35-.55.72-.75,1.08A162.29,162.29,0,0,1,570,435a8.91,8.91,0,0,1-2,.26c-1.34,0-2-.57-2-1.75a5.3,5.3,0,0,1,.54-2.13l12.33-28L564,395.19l-17.42,39.27c-1.42,3.39-3.08,5.1-4.95,5.1-1.07,0-1.61-.64-1.61-1.88a9.84,9.84,0,0,1,.93-3.89l15.28-34.18H538.62l-11.25,25.33a53.6,53.6,0,0,0-2.82,7.51c-3.39,2.18-6.36,3.35-8.84,3.35-.8,0-1.21-.31-1.21-.93a2.28,2.28,0,0,1,.14-.68L541.84,373a7.94,7.94,0,0,0,.81-3.35q0-4.43-5.37-7.24a20.81,20.81,0,0,0-9.91-2.42h-1.48q-11.52,0-17.15,5.36c-.09-2.05-2.37-3.53-6.84-4.42a44.77,44.77,0,0,0-9.25-.94c-6.06,0-12.28,1.79-18.62,5.36q-2.41-4.68-15.68-4.68H425.79c-2.42,0-3.62,1.29-3.62,3.88s1.07,3.76,3.21,3.76h23.19a4.6,4.6,0,0,1,2.94,1.2A3.34,3.34,0,0,1,453,372a2.73,2.73,0,0,1-.14.94l-33.23,74.64H440l28.54-64q2-4.56,7.51-9.39,6-5.37,10.32-5.36c1.25,0,1.87.58,1.87,1.74a6.3,6.3,0,0,1-.66,2.42l-33.1,74.64H473.9l28.54-64q2-4.69,8-9.73t10.46-5c1.42,0,2.14.62,2.14,1.88a5.32,5.32,0,0,1-.67,2.28L494.27,436.2a8.17,8.17,0,0,0-.8,3.48,7,7,0,0,0,2.74,5.63,9.49,9.49,0,0,0,6.23,2.28q9.38,0,20.37-6.17c.48-.25.86-.53,1.32-.79,1.17,4.72,5.63,7.23,13.83,7.23a16.17,16.17,0,0,0,10.85-4.3q.68,4,5,4,9.38,0,20.37-6.17a49.25,49.25,0,0,0,8.75-6.08c.17,8.15,6,12.25,17.65,12.25A54,54,0,0,0,622,443c.9-.4,1.68-.87,2.54-1.3,1.64,3.86,6.15,5.85,13.66,5.85h10.19q7.92,0,18.9-5.9c.5-.27.89-.55,1.37-.82,1.26,4.57,5.72,7,13.77,7a16.18,16.18,0,0,0,10.86-4.3q.66,4,5,4a38.17,38.17,0,0,0,15.45-3.7l-1.65,3.7h19.57L749,408.33a4.47,4.47,0,0,1,4.29-3c1.25,0,1.87.5,1.87,1.48a4.28,4.28,0,0,1-.27,1.33l-17.55,39.41H756.8l17.42-39.26a4.56,4.56,0,0,1,4.43-3c1.15,0,1.73.5,1.73,1.48a4.22,4.22,0,0,1-.26,1.33l-11.79,26.28a15.12,15.12,0,0,0-1.21,5.49,6.88,6.88,0,0,0,4.55,6.7,9.12,9.12,0,0,0,3.89.94q9.26,0,20.24-6.17,11.66-6.42,15-13.8v-.14l-3.61-4.68C806,425.39,803.49,428.11,799.55,431ZM652.4,408.33a3.89,3.89,0,0,1,3.9-2.55c1.51,0,2.27.54,2.27,1.6a4.13,4.13,0,0,1-.13.8l-5,11h-6Zm-48.78,20.76c-2,4.56-5.23,6.84-9.51,6.84q-2.15,0-2.14-3.89a17.43,17.43,0,0,1,.53-4.15q7.38-8.44,11.12-12.6a10.08,10.08,0,0,1,1.61,6.17A18.43,18.43,0,0,1,603.62,429.09Zm6.71-34.43a5.05,5.05,0,0,1,.39-2,2.43,2.43,0,0,1,2.42-1.47c.63,0,.93.18.93.54,0,.53-1.2,2.05-3.62,4.55A12.86,12.86,0,0,1,610.33,394.66Z"/><path class="cls-7" d="M930.75,362.22a22,22,0,0,0-9.11-1.87,26.16,26.16,0,0,0-13.28,3.48,23.92,23.92,0,0,0-9.77,11l-14.81,33.24a11.27,11.27,0,0,1-3.42.8,17.38,17.38,0,0,1-3.75-.53,15.3,15.3,0,0,0,2.42-7.51q0-6.7-8-6.7a15.26,15.26,0,0,0-10.45,3.76H855q-7,0-13.54,6a36.92,36.92,0,0,0-9,12.45l-5.35,11.8c-2.15,4.91-3.22,8.94-3.22,12.06q0,7.38,7.91,7.37H847q13.26,0,23.59-23c1.42-3.32,2.5-5.78,3.21-7.38a50.82,50.82,0,0,0,6.39-1l-17.24,38.69a16.17,16.17,0,0,0-1.47,6.29q0,8.19,11.65,8.18a35.78,35.78,0,0,0,12.61-2.54q8.16-3.09,10.44-8.32L901.81,446a13,13,0,0,0,1.06-3.62,3.76,3.76,0,0,0-1.21-2.42,10.28,10.28,0,0,0,3,.41,19.29,19.29,0,0,0,7.24-1.75,18.14,18.14,0,0,0,6.55-4.42l-3.62-4.83a10.11,10.11,0,0,1-6.28,2.55c-3.5,0-5.58-2-6.31-5.9,3.39-1.43,6.89-4.38,10.45-8.84a50.11,50.11,0,0,0,6.84-11.12L935,371.2a6.73,6.73,0,0,0,.67-2.81C935.7,365.8,934.06,363.74,930.75,362.22Zm-83,74c-1.35,2.86-3.08,4.29-5.22,4.29-1.26,0-1.9-.67-1.9-2a5.73,5.73,0,0,1,.54-2.28l11.93-26.8a6.84,6.84,0,0,1,3.1-3.48,4.76,4.76,0,0,0-.42,2.14q0,3.87,2.42,4.56Zm22-28.94a1.64,1.64,0,0,1-.67.12,2.74,2.74,0,0,1-2.14-1.13,3.81,3.81,0,0,1-.94-2.49c0-1.78.94-2.68,2.81-2.68,1.17,0,1.75.86,1.75,2.56A8.53,8.53,0,0,1,869.77,407.26ZM891.22,446l-5.37,11.92c-.54,1.34-1.74,2-3.62,2-.9,0-1.33-.37-1.33-1.08a2.16,2.16,0,0,1,.27-.94q6.84-15.69,10.32-23.45c1.15.35,1.73,1.51,1.73,3.48A19.83,19.83,0,0,1,891.22,446Zm33.1-74.25L909,406.05q-4.54,10.05-9.9,11.53Q912.8,387,919.49,371.74a3,3,0,0,1,2.81-2c1.44,0,2.15.49,2.15,1.47A1.19,1.19,0,0,1,924.32,371.74Z"/><path class="cls-7" d="M374.39,483.27H345.15a19.9,19.9,0,0,0-14.85,6.43,21.92,21.92,0,0,0-6.2,15.8V645.84h25.73V587.36l19.89-10.52v69h25.72V505.5a21.92,21.92,0,0,0-6.19-15.8A19.9,19.9,0,0,0,374.39,483.27Zm-4.67,64.79-19.89,10.53V507.83h19.89Z"/><polygon class="cls-7" points="447.61 586.43 430.06 483.27 403.86 483.27 432.64 645.84 462.81 645.84 491.58 483.27 465.38 483.27 447.61 586.43"/><rect class="cls-2" x="499.53" y="483.27" width="25.73" height="162.57"/><path class="cls-7" d="M594.26,483.27H565a19.87,19.87,0,0,0-14.85,6.43A21.89,21.89,0,0,0,544,505.5V645.84h25.74V587.36l19.88-10.52v69h25.73V505.5a21.92,21.92,0,0,0-6.2-15.8A19.89,19.89,0,0,0,594.26,483.27Zm-4.67,64.79-19.88,10.53V507.83h19.88Z"/><polygon class="cls-7" points="628.18 507.83 653.91 507.83 653.91 645.84 679.64 645.84 679.64 507.83 705.37 507.83 705.37 483.27 628.18 483.27 628.18 507.83"/><rect class="cls-2" x="718.24" y="483.27" width="25.73" height="162.57"/><path class="cls-7" d="M813,483.27H783.73a19.89,19.89,0,0,0-14.86,6.43,21.92,21.92,0,0,0-6.2,15.8V623.62a22,22,0,0,0,6.2,15.67,19.75,19.75,0,0,0,14.86,6.55H813a19.9,19.9,0,0,0,14.86-6.44,21.86,21.86,0,0,0,6.2-15.78V505.5a21.92,21.92,0,0,0-6.2-15.8A19.89,19.89,0,0,0,813,483.27Zm-4.67,138H788.41V507.83h19.88Z"/><path class="cls-7" d="M917.87,489.7A19.85,19.85,0,0,0,903,483.27h-5.84a20.47,20.47,0,0,0-15,6.32,22.65,22.65,0,0,0-3.75,5.61V483.27H852.73V645.84h25.72v-138h19.9v138h25.72V505.5A21.92,21.92,0,0,0,917.87,489.7Z"/><polygon class="cls-7" points="623.65 58.74 623.65 58.66 631.8 58.66 631.8 70.52 629.54 70.52 629.54 101.19 631.8 101.19 631.8 113.06 617.67 113.06 617.67 91.75 601.86 91.75 601.86 113.06 587.73 113.06 587.73 101.19 590 101.19 590 70.52 587.73 70.52 587.73 58.66 595.97 58.66 595.97 58.74 601.86 58.74 601.86 79.96 617.67 79.96 617.67 58.74 623.65 58.74"/><polygon class="cls-7" points="649.16 58.74 649.16 101.19 651.41 101.19 651.41 113.06 637.29 113.06 637.29 70.52 635.04 70.52 635.04 58.66 643.27 58.66 643.27 58.74 649.16 58.74"/><polygon class="cls-7" points="663.45 58.66 685.32 58.66 694.2 67.53 694.2 75.28 682.34 75.28 682.34 72.38 680.39 70.52 668.37 70.52 666.51 72.38 666.51 78.03 668.37 79.96 685.32 79.96 694.2 88.76 694.2 104.26 685.32 113.06 663.45 113.06 654.65 104.26 654.65 95.14 666.51 95.14 666.51 99.33 668.37 101.19 680.39 101.19 682.34 99.33 682.34 93.69 680.39 91.75 663.45 91.75 654.65 82.95 654.65 67.53 663.45 58.66"/><polygon class="cls-7" points="697.43 75.28 697.43 58.66 736.98 58.66 736.98 75.28 725.11 75.28 725.11 70.52 723.09 70.52 723.09 101.19 725.35 101.19 725.35 113.06 708.97 113.06 708.97 101.19 711.22 101.19 711.22 70.52 709.29 70.52 709.29 75.28 697.43 75.28"/><path class="cls-7" d="M748.2,58.66h21.87L779,67.53v36.73l-8.88,8.8H748.2l-8.8-8.8V67.53l8.8-8.87Zm18.88,40.67V72.38l-1.94-1.86h-12l-1.86,1.86v27l1.86,1.86h12Z"/><path class="cls-7" d="M824.31,101.19V112l.41,1H812L807,99.9l-2.74-2.74h-8.8v15.9H781.37V101.19h2.26V70.52h-2.26V58.66H814.3l8.88,8.87V88.36l-5.73,5.73,2.74,7.1Zm-28.82-15.9h14l1.86-1.85V72.38l-1.86-1.86h-14Z"/><polygon class="cls-7" points="847.8 75.2 858.69 58.66 872.81 58.66 853.69 87.71 853.69 113.06 841.82 113.06 841.82 87.71 822.69 58.66 836.9 58.66 847.8 75.2"/><path class="cls-7" d="M664.48,124.43h21.87l8.88,8.87V170l-8.88,8.8H664.48l-8.8-8.8V133.3l8.8-8.87Zm18.88,40.68v-27l-1.93-1.86h-12l-1.86,1.86v27L669.4,167h12Z"/><polygon class="cls-7" points="739.62 124.42 739.62 136.29 737.36 136.29 737.36 166.96 739.62 166.96 739.62 178.83 724.85 178.83 711.77 150.82 711.77 178.83 697.65 178.83 697.65 166.96 699.91 166.96 699.91 136.29 697.65 136.29 697.65 124.42 712.58 124.42 725.5 152.35 725.5 124.42 739.62 124.42"/><polygon class="cls-7" points="766.98 141.06 766.98 124.42 806.52 124.42 806.52 141.06 794.67 141.06 794.67 136.29 792.65 136.29 792.65 166.96 794.91 166.96 794.91 178.83 778.52 178.83 778.52 166.96 780.78 166.96 780.78 136.29 778.85 136.29 778.85 141.06 766.98 141.06"/><polygon class="cls-7" points="845.67 124.51 845.67 124.42 853.83 124.42 853.83 136.29 851.56 136.29 851.56 166.96 853.83 166.96 853.83 178.83 839.71 178.83 839.71 157.52 823.89 157.52 823.89 178.83 809.76 178.83 809.76 166.96 812.02 166.96 812.02 136.29 809.76 136.29 809.76 124.42 817.99 124.42 817.99 124.51 823.89 124.51 823.89 145.73 839.71 145.73 839.71 124.51 845.67 124.51"/><polygon class="cls-7" points="892.98 124.42 892.98 136.29 871.18 136.29 871.18 145.73 885.8 145.73 885.8 157.52 871.18 157.52 871.18 166.96 892.98 166.96 892.98 178.83 857.06 178.83 857.06 166.96 859.33 166.96 859.33 136.29 857.06 136.29 857.06 124.42 892.98 124.42"/><polygon class="cls-7" points="781.55 190.2 781.55 202.07 777.52 202.07 763.15 244.6 754.68 244.6 743.77 212.23 732.8 244.6 724.33 244.6 709.96 202.07 705.92 202.07 705.92 190.2 718.44 190.2 728.52 220.22 738.69 190.2 748.78 190.2 758.96 220.22 769.04 190.2 781.55 190.2"/><polygon class="cls-7" points="798.1 190.28 798.1 232.74 800.36 232.74 800.36 244.6 786.23 244.6 786.23 202.07 783.97 202.07 783.97 190.2 792.21 190.2 792.21 190.28 798.1 190.28"/><polygon class="cls-7" points="845.57 190.2 845.57 202.07 843.3 202.07 843.3 232.74 845.57 232.74 845.57 244.6 830.79 244.6 817.71 216.59 817.71 244.6 803.59 244.6 803.59 232.74 805.84 232.74 805.84 202.07 803.59 202.07 803.59 190.2 818.52 190.2 831.43 218.13 831.43 190.2 845.57 190.2"/><polygon class="cls-7" points="857.58 190.2 879.46 190.2 888.34 199.08 888.34 208.12 876.47 208.12 876.47 203.92 874.54 202.07 862.51 202.07 860.66 203.92 860.66 230.88 862.51 232.74 874.54 232.74 876.47 230.88 876.47 226.52 872.2 226.52 872.2 214.66 888.34 214.66 888.34 235.8 879.46 244.6 857.58 244.6 848.79 235.8 848.79 199.08 857.58 190.2"/><polygon class="cls-7" points="900.37 190.2 922.23 190.2 931.11 199.08 931.11 206.82 919.26 206.82 919.26 203.92 917.31 202.07 905.29 202.07 903.43 203.92 903.43 209.57 905.29 211.51 922.23 211.51 931.11 220.31 931.11 235.8 922.23 244.6 900.37 244.6 891.56 235.8 891.56 226.68 903.43 226.68 903.43 230.88 905.29 232.74 917.31 232.74 919.26 230.88 919.26 225.23 917.31 223.29 900.37 223.29 891.56 214.49 891.56 199.08 900.37 190.2"/></g></g></svg>