<svg xmlns="http://www.w3.org/2000/svg" xmlns:xlink="http://www.w3.org/1999/xlink" viewBox="0 0 660.33 440.64"><defs><style>.cls-1{mask:url(#mask);}.cls-2{mix-blend-mode:multiply;fill:url(#radial-gradient);}.cls-3{fill:none;}.cls-4{isolation:isolate;}.cls-5{fill:url(#Безымянный_градиент_2);}.cls-6{fill:#442908;opacity:0.17;}.cls-11,.cls-12,.cls-13,.cls-14,.cls-16,.cls-20,.cls-22,.cls-23,.cls-24,.cls-25,.cls-28,.cls-7{mix-blend-mode:overlay;}.cls-11,.cls-12,.cls-13,.cls-14,.cls-16,.cls-20,.cls-22,.cls-7{opacity:0.5;}.cls-7{fill:url(#Безымянный_градиент_4);}.cls-8{fill:url(#Безымянный_градиент_2-2);}.cls-9{fill:url(#Безымянный_градиент_2-3);}.cls-10{fill:url(#Безымянный_градиент_2-4);}.cls-11{fill:url(#Безымянный_градиент_4-2);}.cls-12{fill:url(#Безымянный_градиент_4-3);}.cls-13{fill:url(#Безымянный_градиент_4-4);}.cls-14{fill:url(#Безымянный_градиент_4-5);}.cls-15{fill:url(#Безымянный_градиент_2-5);}.cls-16{fill:url(#Безымянный_градиент_4-6);}.cls-17{fill:url(#Безымянный_градиент_2-6);}.cls-18{fill:url(#Безымянный_градиент_2-7);}.cls-19{fill:url(#Безымянный_градиент_2-8);}.cls-20{fill:url(#Безымянный_градиент_4-7);}.cls-21{fill:url(#Безымянный_градиент_2-9);}.cls-22{fill:url(#Безымянный_градиент_4-8);}.cls-23,.cls-24,.cls-25{opacity:0.48;}.cls-23{fill:url(#Безымянный_градиент_130);}.cls-24{fill:url(#Безымянный_градиент_130-2);}.cls-25{fill:url(#Безымянный_градиент_130-3);}.cls-26{clip-path:url(#clip-path);}.cls-27{mask:url(#mask-2);}.cls-28{opacity:0.83;fill:url(#Безымянный_градиент_130-4);}.cls-29{filter:url(#luminosity-noclip);}</style><filter id="luminosity-noclip" x="357.51" y="-8814.8" width="371.18" height="32766" filterUnits="userSpaceOnUse" color-interpolation-filters="sRGB"><feFlood flood-color="#fff" result="bg"/><feBlend in="SourceGraphic" in2="bg"/></filter><mask id="mask" x="357.51" y="-8814.8" width="371.18" height="32766" maskUnits="userSpaceOnUse"><g class="cls-29"/></mask><radialGradient id="radial-gradient" cx="-1649.61" cy="-233.02" r="147.9" gradientTransform="matrix(-0.92, -0.86, -0.85, 0.91, -1171.41, -1120.68)" gradientUnits="userSpaceOnUse"><stop offset="0" stop-color="#fff"/><stop offset="0.01" stop-color="#f9f9f9"/><stop offset="0.13" stop-color="#bfbfbf"/><stop offset="0.25" stop-color="#8c8c8c"/><stop offset="0.37" stop-color="#616161"/><stop offset="0.49" stop-color="#3e3e3e"/><stop offset="0.62" stop-color="#232323"/><stop offset="0.74" stop-color="#0f0f0f"/><stop offset="0.87" stop-color="#040404"/><stop offset="1"/></radialGradient><linearGradient id="Безымянный_градиент_2" x1="349.88" y1="-7.4" x2="271.98" y2="647.14" gradientUnits="userSpaceOnUse"><stop offset="0.02" stop-color="#c9920d"/><stop offset="1" stop-color="#b8772c"/></linearGradient><linearGradient id="Безымянный_градиент_4" x1="421.29" y1="-125.75" x2="245.96" y2="644.84" gradientUnits="userSpaceOnUse"><stop offset="0" stop-color="#edfdab"/><stop offset="0.96" stop-color="#ffa254"/></linearGradient><linearGradient id="Безымянный_градиент_2-2" x1="405.67" y1="259.98" x2="484.85" y2="76.17" xlink:href="#Безымянный_градиент_2"/><linearGradient id="Безымянный_градиент_2-3" x1="186.93" y1="148.26" x2="233.82" y2="39.39" xlink:href="#Безымянный_градиент_2"/><linearGradient id="Безымянный_градиент_2-4" x1="384.16" y1="264.38" x2="410.56" y2="203.11" xlink:href="#Безымянный_градиент_2"/><linearGradient id="Безымянный_градиент_4-2" x1="563.43" y1="-38.15" x2="439.91" y2="360.57" xlink:href="#Безымянный_градиент_4"/><linearGradient id="Безымянный_градиент_4-3" x1="217.36" y1="9.51" x2="203.93" y2="205.6" xlink:href="#Безымянный_градиент_4"/><linearGradient id="Безымянный_градиент_4-4" x1="425.31" y1="91.83" x2="413.22" y2="268.37" xlink:href="#Безымянный_градиент_4"/><linearGradient id="Безымянный_градиент_4-5" x1="588.44" y1="29.53" x2="576.8" y2="326.81" xlink:href="#Безымянный_градиент_4"/><linearGradient id="Безымянный_градиент_2-5" x1="231.42" y1="174.65" x2="131.6" y2="442.53" xlink:href="#Безымянный_градиент_2"/><linearGradient id="Безымянный_градиент_4-6" x1="211.32" y1="67.9" x2="171.59" y2="306.24" xlink:href="#Безымянный_градиент_4"/><linearGradient id="Безымянный_градиент_2-6" x1="52.06" y1="116.64" x2="45.94" y2="314.27" xlink:href="#Безымянный_градиент_2"/><linearGradient id="Безымянный_градиент_2-7" x1="522.27" y1="204.36" x2="516.19" y2="400.86" xlink:href="#Безымянный_градиент_2"/><linearGradient id="Безымянный_градиент_2-8" x1="445.25" y1="296.28" x2="432.88" y2="696.05" xlink:href="#Безымянный_градиент_2"/><linearGradient id="Безымянный_градиент_4-7" x1="364.89" y1="199.4" x2="444.68" y2="199.4" xlink:href="#Безымянный_градиент_4"/><linearGradient id="Безымянный_градиент_2-9" x1="96.34" y1="177.67" x2="27.06" y2="500.61" xlink:href="#Безымянный_градиент_2"/><linearGradient id="Безымянный_градиент_4-8" x1="150.08" y1="14.05" x2="101.19" y2="237.1" xlink:href="#Безымянный_градиент_4"/><radialGradient id="Безымянный_градиент_130" cx="279.96" cy="375.38" r="51.58" gradientUnits="userSpaceOnUse"><stop offset="0" stop-color="#edfdab"/><stop offset="0.96" stop-color="#ffc983"/></radialGradient><radialGradient id="Безымянный_градиент_130-2" cx="106.58" cy="294.13" r="57.49" xlink:href="#Безымянный_градиент_130"/><radialGradient id="Безымянный_градиент_130-3" cx="415.8" cy="428.06" r="36.05" xlink:href="#Безымянный_градиент_130"/><clipPath id="clip-path"><path class="cls-3" d="M462.91,50.38c-34,31.7-90.56,56.6-115.45,47.54S322.55,75.29,295.4,61.7,250.12-6.21,186.73.59s-81.5,74.7-122.24,104.13S-14.75,177.16,5.63,215.64s77,99.61,133.56,110.93,77,24.9,115.45,54.33,86,38.48,120,54.33,77-4.53,120-43,90.56-110.93,115.48-144.89,54.32-95.07,49.8-135.82-18.12-54.34-38.49-72.44c-9.55-8.49-48.75-34.29-79.23-34C507.56,5.49,481,33.55,462.91,50.38Z"/></clipPath><mask id="mask-2" x="357.51" y="-95.71" width="371.18" height="370.97" maskUnits="userSpaceOnUse"><g class="cls-1"><path class="cls-2" d="M407.23-37.77C337.4,36.6,341.64,154,416.67,224.43s192.47,67.27,262.3-7.1S744.56,25.56,669.53-44.9,477.05-112.14,407.23-37.77Z"/></g></mask><radialGradient id="Безымянный_градиент_130-4" cx="-1649.61" cy="-233.02" r="147.9" gradientTransform="matrix(-0.92, -0.86, -0.85, 0.91, -1171.41, -1120.68)" xlink:href="#Безымянный_градиент_130"/></defs><g class="cls-4"><g id="Слой_2" data-name="Слой 2"><g id="_Layer_" data-name="&lt;Layer&gt;"><path class="cls-5" d="M462.91,50.38c-34,31.7-90.56,56.6-115.45,47.54S322.55,75.29,295.4,61.7,250.12-6.21,186.73.59s-81.5,74.7-122.24,104.13S-14.75,177.16,5.63,215.64s77,99.61,133.56,110.93,77,24.9,115.45,54.33,86,38.48,120,54.33,77-4.53,120-43,90.56-110.93,115.48-144.89,54.32-95.07,49.8-135.82-18.12-54.34-38.49-72.44c-9.55-8.49-48.75-34.29-79.23-34C507.56,5.49,481,33.55,462.91,50.38Z"/><path class="cls-6" d="M659.87,111.51c-4.53-40.75-18.12-54.34-38.49-72.44a115.19,115.19,0,0,0-12.5-9.18,31.4,31.4,0,0,0,4.54,7.58c27.94,34.73,30.93,62.34,16.61,83s-27,28.64-46.14,54.1-17.5,43-33.41,50.91-14.33-1.59-50.91,0-46.14,27.05-52.52,43-7.95,30.23-41.35,35-82.76,11.13-105-8-15.9-52.51-30.22-66.83-36.61-28.63-71.6-33.41-54.1,17.5-95.46-6.36S74.74,139.58,82.7,122.08s25.46-33.41,36.59-47.73,1.6-12.73,3.18-33.41c.1-1.17.18-2.3.27-3.43C102.6,60.47,87,88.46,64.49,104.72c-25.66,18.53-50.41,42.44-60.14,67.21,2.77,22.93,9.91,52.3,28,68.06,32.51,28.27,43.83,32.52,60.79,42.41s33.93,28.28,70.71,33.94,30.65-2.52,34.89,6,47.24,32.94,71.29,49.9,42.28,13.41,64.9,19.07,43.83,9.89,33.93,11.31,9.9,17,48.07,17c32.78,0,68.65-29.13,95.16-44.55,37.85-40.08,76.36-98.27,97.94-127.67C635,213.38,664.39,152.26,659.87,111.51Z"/><path class="cls-6" d="M175.19,223s-35.35-4.24-41,9.9,9.89,21.21,21.21,28.27,12.72,19.8,22.61,24,9.9,12.73,29.69,17,35.36,1.41,48.09,1.41,26.87,8.49,2.83-21.21S224.69,225.85,175.19,223Z"/><path class="cls-6" d="M527.26,264s-35.34-11.31-46.67,0-19.78,21.21-19.78,35.35-1.42,19.8-12.73,32.52-22.62,22.63-21.21,35.35-8.48,21.21,11.32,15.55,52.31-17,63.62-31.11,17-29.69,28.28-39.58S579.57,261.19,527.26,264Z"/><path class="cls-6" d="M616.35,158c-3.75,2.45-15.57,7.07-19.81,32.52s-17,60.8-7.06,49.49,5.65-17,21.2-38.18S653.1,134,616.35,158Z"/><path class="cls-7" d="M213.37,19.41s-25.46,1.42-41,9.9S154,47.69,156.81,60.42s1.42,14.14-8.49,35.35-11.3,28.27,11.33,41,31.1,14.14,58,14.14,31.1-17,53.73-19.8,45.25-2.82,53.73,9.9,19.8,19.79,7.06,33.93-42.41,12.73-18.37,39.59-1.41,41,45.23,48.08,70.71,4.24,79.2-11.31,4.24-42.42,26.86-43.84,42.41-9.89,62.21-32.52,0-29.69,36.76-52.31,48.08-49.49,21.22-74.94-48.08-26.86-67.87-18.38S462.23,59,446.66,81.63s-43.81,41-58,38.17-43.82-7.07-63.62-21.21S294,81.63,278.4,64.65,258.62,20.83,213.37,19.41Z"/><path class="cls-6" d="M45.11,170.7s-29.69,1.42-19.8,18.39,1.41,25.44,29.7,36.76,48.08,14.14,39.59,0S79.05,174.94,45.11,170.7Z"/><path class="cls-8" d="M507.46,118.39s-38.17-8.49-52.31,2.82-21.2,12.74-41,24-48.08,22.63-19.8,31.11,45.25,12.73,58,8.48,8.5-1.41,31.13-14.14,26.85-18.38,31.09-24S535.74,126.87,507.46,118.39Z"/><path class="cls-9" d="M209.12,63.24s-26.85,2.84-22.62,8.49-7.08,15.56-7.08,19.79-4.23,9.9,15.57,9.9,25.45-4.24,45.24-15.56S265.68,57.59,209.12,63.24Z"/><path class="cls-10" d="M400,213.12s-45.24-1.41-29.69,11.31S383,244.23,407.08,240s24,8.48,24-4.25S421.21,214.53,400,213.12Z"/><path class="cls-11" d="M514.12,61.68S467.21,67.93,461,85.13,450,105.46,482.84,103.9s32.85,17.2,53.18,17.2,14.06,0,36-18.77,28.15-26.57,6.26-37.52S529.76,60.12,514.12,61.68Z"/><path class="cls-12" d="M222.34,29c-2.69.14-32.25,4.48-40.3,14.32S171.3,55,172.18,63.94s6.29,9.85,14.33-1.79,29.56-8.06,43.89-8.06,11.64,2.69,21.48,0S258.17,27.23,222.34,29Z"/><path class="cls-13" d="M439,109.6s-18.79,3.59-25.06,12.54-15.23,16.13-18.81,22.39,12.54,2.68,31.34-9S463.2,110.5,439,109.6Z"/><path class="cls-6" d="M475.74,120.35c-2.84,0-15.23.9-20.6,8.06s-8.95,16.12-14.33,17-26,2.69-24.17,9,12.54,4.47,21.5,4.47,14.33-.89,25.06-.89,5.37-4.48,22.39-8.06,12.54-3.58,21.49-9.85S523.21,120.35,475.74,120.35Z"/><path class="cls-14" d="M581.4,125.73s-22.39,8.06-24.18,18.8,6.28,7.16,1.79,19.7-21.49,71.63-2.69,37.6,22.39-45.66,34.92-52.82,17.91-9.85,25.08-23.28S615.43,98,581.4,125.73Z"/><path class="cls-6" d="M195.72,233.7c-2.89-1-10.19-3.06-25.48-3.06s-35.65,0-19.35,9.17,15.29,8.14,25.47,13.24,13.24,3.05,26.47,2,12.24,4.07,22.42,8.14,9.17,7.13,10.19,4.08S216.09,240.83,195.72,233.7Z"/><path class="cls-15" d="M181.45,212.31s-38.7,6.11-7.11,6.11,41.75,12.22,52.95,18.34,31.57,33.6,26.49,14.25-14.26-32.59-25.47-38.7S198.78,213.33,181.45,212.31Z"/><path class="cls-6" d="M511.45,270.36s-19.35,3.06-30.55,10.19S458.49,303,468.67,306s27.5-11.2,36.67-11.2,16.31-9.17,23.42-12.22S538.94,267.31,511.45,270.36Z"/><path class="cls-6" d="M476.82,334.53c-6.09-.42-21.38-6.11-30.56,9.16s-11.2,24.45-4.06,23.43,9.15-9.17,24.44-12.22S506.35,336.57,476.82,334.53Z"/><path class="cls-16" d="M170.24,99.26c3-3.15,6.12,18.33,35.67,9.16S248.68,85,247.66,93.14s-5.09,9.17-9.18,15.28,2.05,8.15-12.21,14.26-35.65,4.08-44.82-1S154,116.57,170.24,99.26Z"/><path class="cls-17" d="M50.07,149.16s-26.48,8.15-17.32,10.19,27.5,10.18,33.62,12.22,5.08-13.24-1-18.33S56.19,148.14,50.07,149.16Z"/><path class="cls-18" d="M538.94,237.77c-3-.47-10.18-4.07-27.49,2s-14.23-7.23-29.55,9.17c-14.25,15.27,15.82,5.87,38.72,3.05s34.62,12.22,40.73,6.11S558.3,240.83,538.94,237.77Z"/><path class="cls-19" d="M419.78,360S407.56,393.6,429,390.55s32.6-10.19,47.87-13.25-9.17,10.19-28.52,18.34-32.59,14.26-40.74,7.13S403.5,366.1,419.78,360Z"/><path class="cls-6" d="M232.38,284.62s-19.35-13.24-29.55-6.11,5.1,17.31,23.44,18.34S245.62,285.64,232.38,284.62Z"/><path class="cls-20" d="M384.14,193s-26.48,13.24-17.32,13.24,9.17-2,24.44-2,16.3,7.13,32.6,5.09,30.55-11.2,12.22-14.26S412.66,184.81,384.14,193Z"/><path class="cls-21" d="M64.34,238.79s38.69,1,36.66,5.09S92.84,265.27,64.34,238.79Z"/><path class="cls-22" d="M89.79,135.92c-7.75,8.37-9.17,25.46,18.33,41.76s50.92,14.26,34.63,5.09-16.29-5.09-25.46-22.41S105,119.53,89.79,135.92Z"/><path class="cls-6" d="M400.44,222.49s-31.58-8.15-14.27,2,18.34,10.18,30.56,9.17S421.81,225.55,400.44,222.49Z"/><path class="cls-23" d="M313.07,394.49c-26.09-6-45.14-13-60.2-25.08s-48.14-33.1-37.12-20.06a55.51,55.51,0,0,1,5.35,7.5c10.52,6.67,21.09,14.52,33.54,24,12.83,9.81,26.68,17.33,40.68,23.62,16.22.67,35.55,1,44.83,1C356.19,405.53,339.14,400.51,313.07,394.49Z"/><path class="cls-24" d="M162,331.77c8.1-.56,14.1-1.62,16-3.39,7.3-6.93-43.42-16.15-60.48-24.17s-36.1-23.07-53.16-35.12C55.66,263,44,259,34.53,256.48c27.13,31.21,65.88,62.33,104.66,70.09C147.54,328.23,155,330,162,331.77Z"/><path class="cls-25" d="M407.36,426.59c-14.86,0-32.44,1.52-41,5,2.81,1.18,5.57,2.36,8.23,3.6,26.2,12.23,57.79,2.83,90.6-19.73C450.41,420,425.37,426.59,407.36,426.59Z"/><g class="cls-26"><g class="cls-27"><path class="cls-28" d="M407.23-37.77C337.4,36.6,341.64,154,416.67,224.43s192.47,67.27,262.3-7.1S744.56,25.56,669.53-44.9,477.05-112.14,407.23-37.77Z"/></g></g></g></g></g></svg>