<svg xmlns="http://www.w3.org/2000/svg" xmlns:xlink="http://www.w3.org/1999/xlink" viewBox="0 0 567.83 415.25"><defs><style>.cls-1{mask:url(#mask);}.cls-2,.cls-4,.cls-6{mix-blend-mode:multiply;}.cls-2{fill:url(#radial-gradient);}.cls-3{mask:url(#mask-2);}.cls-4{fill:url(#radial-gradient-2);}.cls-5{mask:url(#mask-3);}.cls-6{fill:url(#radial-gradient-3);}.cls-7{fill:none;}.cls-8{isolation:isolate;}.cls-9{fill:url(#Безымянный_градиент_2);}.cls-10,.cls-11,.cls-12,.cls-20,.cls-21,.cls-22,.cls-24,.cls-25,.cls-26,.cls-27,.cls-28,.cls-29,.cls-30,.cls-31,.cls-32,.cls-33,.cls-34,.cls-35,.cls-36,.cls-38,.cls-41,.cls-42,.cls-43,.cls-44,.cls-45,.cls-46,.cls-47,.cls-48,.cls-49,.cls-50,.cls-53,.cls-55,.cls-56,.cls-60,.cls-62,.cls-64{mix-blend-mode:overlay;}.cls-10,.cls-36,.cls-49,.cls-53{opacity:0.26;}.cls-10{fill:url(#Безымянный_градиент_130);}.cls-11,.cls-12,.cls-31,.cls-44{opacity:0.52;}.cls-11{fill:url(#Безымянный_градиент_130-2);}.cls-12{fill:url(#Безымянный_градиент_130-3);}.cls-13{fill:#442908;opacity:0.17;}.cls-14{fill:url(#Безымянный_градиент_2-2);}.cls-15{opacity:0.78;fill:url(#Безымянный_градиент_2-3);}.cls-16{fill:url(#Безымянный_градиент_2-4);}.cls-17{fill:url(#Безымянный_градиент_2-5);}.cls-18{fill:url(#Безымянный_градиент_2-6);}.cls-19{fill:url(#Безымянный_градиент_2-7);}.cls-20,.cls-21,.cls-34,.cls-35{opacity:0.48;}.cls-20{fill:url(#Безымянный_градиент_130-4);}.cls-21{fill:url(#Безымянный_градиент_130-5);}.cls-22,.cls-24,.cls-26,.cls-27,.cls-32,.cls-33,.cls-45,.cls-46,.cls-47,.cls-48,.cls-50,.cls-56{opacity:0.6;}.cls-22{fill:url(#Безымянный_градиент_130-6);}.cls-23{fill:url(#Безымянный_градиент_2-8);}.cls-24{fill:url(#Безымянный_градиент_130-7);}.cls-25,.cls-28,.cls-29,.cls-30,.cls-38,.cls-41,.cls-42,.cls-43,.cls-55{opacity:0.5;}.cls-25{fill:url(#Безымянный_градиент_4);}.cls-26{fill:url(#Безымянный_градиент_130-8);}.cls-27{fill:url(#Безымянный_градиент_130-9);}.cls-28{fill:url(#Безымянный_градиент_4-2);}.cls-29{fill:url(#Безымянный_градиент_4-3);}.cls-30{fill:url(#Безымянный_градиент_4-4);}.cls-31{fill:url(#Безымянный_градиент_130-10);}.cls-32{fill:url(#Безымянный_градиент_130-11);}.cls-33{fill:url(#Безымянный_градиент_130-12);}.cls-34{fill:url(#Безымянный_градиент_130-13);}.cls-35{fill:url(#Безымянный_градиент_130-14);}.cls-36{fill:url(#Безымянный_градиент_130-15);}.cls-37{opacity:0.61;fill:url(#Безымянный_градиент_2-9);}.cls-38{fill:url(#Безымянный_градиент_4-5);}.cls-39{fill:url(#Безымянный_градиент_2-10);}.cls-40{fill:url(#Безымянный_градиент_2-11);}.cls-41{fill:url(#Безымянный_градиент_4-6);}.cls-42{fill:url(#Безымянный_градиент_4-7);}.cls-43{fill:url(#Безымянный_градиент_4-8);}.cls-44{fill:url(#Безымянный_градиент_130-16);}.cls-45{fill:url(#Безымянный_градиент_130-17);}.cls-46{fill:url(#Безымянный_градиент_130-18);}.cls-47{fill:url(#Безымянный_градиент_130-19);}.cls-48{fill:url(#Безымянный_градиент_130-20);}.cls-49{fill:url(#Безымянный_градиент_130-21);}.cls-50{fill:url(#Безымянный_градиент_130-22);}.cls-51{fill:url(#Безымянный_градиент_2-12);}.cls-52{fill:url(#Безымянный_градиент_2-13);}.cls-53{fill:url(#Безымянный_градиент_130-23);}.cls-54{fill:url(#Безымянный_градиент_130-24);}.cls-55{fill:url(#Безымянный_градиент_4-9);}.cls-56{fill:url(#Безымянный_градиент_130-25);}.cls-57{fill:url(#Безымянный_градиент_2-14);}.cls-58{clip-path:url(#clip-path);}.cls-59{mask:url(#mask-4);}.cls-60,.cls-62,.cls-64{opacity:0.83;}.cls-60{fill:url(#Безымянный_градиент_130-26);}.cls-61{mask:url(#mask-5);}.cls-62{fill:url(#Безымянный_градиент_130-27);}.cls-63{mask:url(#mask-6);}.cls-64{fill:url(#Безымянный_градиент_130-28);}.cls-65{filter:url(#luminosity-noclip-3);}.cls-66{filter:url(#luminosity-noclip-2);}.cls-67{filter:url(#luminosity-noclip);}</style><filter id="luminosity-noclip" x="221.6" y="-8431.08" width="172.04" height="32766" filterUnits="userSpaceOnUse" color-interpolation-filters="sRGB"><feFlood flood-color="#fff" result="bg"/><feBlend in="SourceGraphic" in2="bg"/></filter><mask id="mask" x="221.6" y="-8431.08" width="172.04" height="32766" maskUnits="userSpaceOnUse"><g class="cls-67"/></mask><radialGradient id="radial-gradient" cx="1263.84" cy="712.77" r="68.5" gradientTransform="matrix(-0.99, -0.78, -0.78, 0.98, 2108.39, 367.62)" gradientUnits="userSpaceOnUse"><stop offset="0" stop-color="#fff"/><stop offset="0.01" stop-color="#f9f9f9"/><stop offset="0.13" stop-color="#bfbfbf"/><stop offset="0.25" stop-color="#8c8c8c"/><stop offset="0.37" stop-color="#616161"/><stop offset="0.49" stop-color="#3e3e3e"/><stop offset="0.62" stop-color="#232323"/><stop offset="0.74" stop-color="#0f0f0f"/><stop offset="0.87" stop-color="#040404"/><stop offset="1"/></radialGradient><filter id="luminosity-noclip-2" x="294.98" y="-8431.08" width="113.88" height="32766" filterUnits="userSpaceOnUse" color-interpolation-filters="sRGB"><feFlood flood-color="#fff" result="bg"/><feBlend in="SourceGraphic" in2="bg"/></filter><mask id="mask-2" x="294.98" y="-8431.08" width="113.88" height="32766" maskUnits="userSpaceOnUse"><g class="cls-66"/></mask><radialGradient id="radial-gradient-2" cx="1145.46" cy="806.29" r="45.34" xlink:href="#radial-gradient"/><filter id="luminosity-noclip-3" x="183.06" y="-8431.08" width="113.88" height="32766" filterUnits="userSpaceOnUse" color-interpolation-filters="sRGB"><feFlood flood-color="#fff" result="bg"/><feBlend in="SourceGraphic" in2="bg"/></filter><mask id="mask-3" x="183.06" y="-8431.08" width="113.88" height="32766" maskUnits="userSpaceOnUse"><g class="cls-65"/></mask><radialGradient id="radial-gradient-3" cx="1230" cy="842.95" r="45.34" xlink:href="#radial-gradient"/><linearGradient id="Безымянный_градиент_2" x1="302.88" y1="14.5" x2="266.69" y2="629.66" gradientUnits="userSpaceOnUse"><stop offset="0.02" stop-color="#c9920d"/><stop offset="1" stop-color="#b8772c"/></linearGradient><radialGradient id="Безымянный_градиент_130" cx="361.15" cy="154.42" r="314.71" gradientUnits="userSpaceOnUse"><stop offset="0" stop-color="#edfdab"/><stop offset="0.96" stop-color="#ffc983"/></radialGradient><radialGradient id="Безымянный_градиент_130-2" cx="321.89" cy="69.28" r="116.49" xlink:href="#Безымянный_градиент_130"/><radialGradient id="Безымянный_градиент_130-3" cx="394.06" cy="9.6" r="155.16" xlink:href="#Безымянный_градиент_130"/><linearGradient id="Безымянный_градиент_2-2" x1="394.25" y1="57.94" x2="352.97" y2="227.35" xlink:href="#Безымянный_градиент_2"/><linearGradient id="Безымянный_градиент_2-3" x1="261.3" y1="117.17" x2="294.5" y2="56.44" xlink:href="#Безымянный_градиент_2"/><linearGradient id="Безымянный_градиент_2-4" x1="326.08" y1="64.48" x2="266.78" y2="537.77" xlink:href="#Безымянный_градиент_2"/><linearGradient id="Безымянный_градиент_2-5" x1="463.35" y1="81.67" x2="404.05" y2="554.97" xlink:href="#Безымянный_градиент_2"/><linearGradient id="Безымянный_градиент_2-6" x1="240.23" y1="53.73" x2="180.94" y2="526.99" xlink:href="#Безымянный_градиент_2"/><linearGradient id="Безымянный_градиент_2-7" x1="153.94" y1="42.91" x2="94.64" y2="516.19" xlink:href="#Безымянный_градиент_2"/><radialGradient id="Безымянный_градиент_130-4" cx="72.14" cy="347.68" r="59.26" xlink:href="#Безымянный_градиент_130"/><radialGradient id="Безымянный_градиент_130-5" cx="236.46" cy="386.79" r="33.58" xlink:href="#Безымянный_градиент_130"/><radialGradient id="Безымянный_градиент_130-6" cx="446.26" cy="187.13" r="34.62" xlink:href="#Безымянный_градиент_130"/><linearGradient id="Безымянный_градиент_2-8" x1="191.5" y1="86.23" x2="170.04" y2="245.81" xlink:href="#Безымянный_градиент_2"/><radialGradient id="Безымянный_градиент_130-7" cx="423.76" cy="160.78" r="130.24" xlink:href="#Безымянный_градиент_130"/><linearGradient id="Безымянный_градиент_4" x1="308.28" y1="49.63" x2="287.21" y2="87.04" gradientUnits="userSpaceOnUse"><stop offset="0" stop-color="#edfdab"/><stop offset="0.96" stop-color="#ffa254"/></linearGradient><radialGradient id="Безымянный_градиент_130-8" cx="317.08" cy="214.89" r="84.19" xlink:href="#Безымянный_градиент_130"/><radialGradient id="Безымянный_градиент_130-9" cx="207.84" cy="235.05" r="109.73" xlink:href="#Безымянный_градиент_130"/><linearGradient id="Безымянный_градиент_4-2" x1="348.41" y1="11.09" x2="335.68" y2="33.71" xlink:href="#Безымянный_градиент_4"/><linearGradient id="Безымянный_градиент_4-3" x1="420.39" y1="60.07" x2="409.02" y2="80.27" xlink:href="#Безымянный_градиент_4"/><linearGradient id="Безымянный_градиент_4-4" x1="402.28" y1="78.22" x2="392.85" y2="94.97" xlink:href="#Безымянный_градиент_4"/><radialGradient id="Безымянный_градиент_130-10" cx="227.48" cy="78.47" r="93.05" xlink:href="#Безымянный_градиент_130"/><radialGradient id="Безымянный_градиент_130-11" cx="486.84" cy="254.93" r="25.83" xlink:href="#Безымянный_градиент_130"/><radialGradient id="Безымянный_градиент_130-12" cx="64.15" cy="230.23" r="18.79" xlink:href="#Безымянный_градиент_130"/><radialGradient id="Безымянный_градиент_130-13" cx="354.59" cy="409.88" r="27.17" xlink:href="#Безымянный_градиент_130"/><radialGradient id="Безымянный_градиент_130-14" cx="472.8" cy="401.52" r="23.43" xlink:href="#Безымянный_градиент_130"/><radialGradient id="Безымянный_градиент_130-15" cx="558.14" cy="323.79" r="40.41" xlink:href="#Безымянный_градиент_130"/><linearGradient id="Безымянный_градиент_2-9" x1="326.42" y1="135.82" x2="333.41" y2="110.47" xlink:href="#Безымянный_градиент_2"/><linearGradient id="Безымянный_градиент_4-5" x1="295.71" y1="88.19" x2="284.34" y2="167.28" xlink:href="#Безымянный_градиент_4"/><linearGradient id="Безымянный_градиент_2-10" x1="233.45" y1="151.15" x2="233.99" y2="248.89" xlink:href="#Безымянный_градиент_2"/><linearGradient id="Безымянный_градиент_2-11" x1="427.16" y1="235.59" x2="401.65" y2="166.25" xlink:href="#Безымянный_градиент_2"/><linearGradient id="Безымянный_градиент_4-6" x1="364.97" y1="227.54" x2="425.15" y2="363.61" xlink:href="#Безымянный_градиент_4"/><linearGradient id="Безымянный_градиент_4-7" x1="399.92" y1="291.79" x2="395.79" y2="433.93" xlink:href="#Безымянный_градиент_4"/><linearGradient id="Безымянный_градиент_4-8" x1="243.02" y1="22.9" x2="238.67" y2="172.51" xlink:href="#Безымянный_градиент_4"/><radialGradient id="Безымянный_градиент_130-16" cx="486.55" cy="108.97" r="101.43" xlink:href="#Безымянный_градиент_130"/><radialGradient id="Безымянный_градиент_130-17" cx="469.16" cy="67.54" r="229.41" xlink:href="#Безымянный_градиент_130"/><radialGradient id="Безымянный_градиент_130-18" cx="326.61" cy="246.43" r="46.01" xlink:href="#Безымянный_градиент_130"/><radialGradient id="Безымянный_градиент_130-19" cx="180.84" cy="231.48" r="15.84" xlink:href="#Безымянный_градиент_130"/><radialGradient id="Безымянный_градиент_130-20" cx="124.85" cy="307.56" r="16.5" xlink:href="#Безымянный_градиент_130"/><radialGradient id="Безымянный_градиент_130-21" cx="221.38" cy="331.46" r="19.81" xlink:href="#Безымянный_градиент_130"/><radialGradient id="Безымянный_градиент_130-22" cx="236.52" cy="274.2" r="28.58" xlink:href="#Безымянный_градиент_130"/><linearGradient id="Безымянный_градиент_2-12" x1="284.13" y1="314.96" x2="243.8" y2="478.98" xlink:href="#Безымянный_градиент_2"/><linearGradient id="Безымянный_градиент_2-13" x1="423.32" y1="286.08" x2="353.38" y2="570.5" xlink:href="#Безымянный_градиент_2"/><radialGradient id="Безымянный_градиент_130-23" cx="503.25" cy="337.74" r="13.46" xlink:href="#Безымянный_градиент_130"/><radialGradient id="Безымянный_градиент_130-24" cx="259.32" cy="223.79" r="29.08" xlink:href="#Безымянный_градиент_130"/><linearGradient id="Безымянный_градиент_4-9" x1="352.44" y1="256.73" x2="330.07" y2="389.54" xlink:href="#Безымянный_градиент_4"/><radialGradient id="Безымянный_градиент_130-25" cx="300.21" cy="220.69" r="10.13" xlink:href="#Безымянный_градиент_130"/><linearGradient id="Безымянный_градиент_2-14" x1="41.01" y1="291.78" x2="48" y2="443.44" xlink:href="#Безымянный_градиент_2"/><clipPath id="clip-path"><path class="cls-7" d="M298.89,3.13C285.12,12.66,271.34,32.79,247,33.85s-41.32,13.78-48.74,24.37-23.31,30.73-36,36-20.13,22.25-11.66,39.2,7.42,23.31,0,33.91-15.89,27.55-27.54,36-24.38,9.54-36,9.54-35,5.3-42.38,15.89S34,247.88,24.46,258.47,1.16,307.21.1,331.58s6.35,40.27,37.08,49.81S98.63,393,128.3,386.68s31.79-16.95,56.16-10.6,36,23.31,56.15,24.38,30.73-10.6,51.92,1.05,64.63,15.9,95.36,12.72,24.37-1.06,67.81-1.06,37.09-19.07,54-23.31,42.38-12.71,51.91-31.79,8.48-21.19-6.35-41.32S534.11,282.84,532,265.89s-13.78-23.31-17-33.9,8.47-7.42-1.07-25.43-21.18-22.25-35-54S433.45,69.88,411.2,56.11s-27.55-14.84-44.5-31.79S312.66-6.41,298.89,3.13Z"/></clipPath><mask id="mask-4" x="221.6" y="-10.24" width="172.04" height="171.69" maskUnits="userSpaceOnUse"><g class="cls-1"><path class="cls-2" d="M240,22c-29.37,37-22.89,91,14.45,120.65s91.43,23.62,120.79-13.39S398.12,38.19,360.77,8.57,269.35-15,240,22Z"/></g></mask><radialGradient id="Безымянный_градиент_130-26" cx="1263.84" cy="712.77" r="68.5" gradientTransform="matrix(-0.99, -0.78, -0.78, 0.98, 2108.39, 367.62)" xlink:href="#Безымянный_градиент_130"/><mask id="mask-5" x="294.98" y="202.97" width="113.88" height="113.65" maskUnits="userSpaceOnUse"><g class="cls-3"><path class="cls-4" d="M307.16,224.3c-19.44,24.5-15.15,60.26,9.57,79.86s60.51,15.64,79.95-8.87,15.14-60.25-9.58-79.86S326.59,199.8,307.16,224.3Z"/></g></mask><radialGradient id="Безымянный_градиент_130-27" cx="1145.46" cy="806.29" r="45.34" gradientTransform="matrix(-0.99, -0.78, -0.78, 0.98, 2108.39, 367.62)" xlink:href="#Безымянный_градиент_130"/><mask id="mask-6" x="183.06" y="172.66" width="113.88" height="113.65" maskUnits="userSpaceOnUse"><g class="cls-5"><path class="cls-6" d="M195.24,194c-19.43,24.5-15.14,60.26,9.57,79.86s60.52,15.63,80-8.86,15.14-60.27-9.58-79.87S214.67,169.49,195.24,194Z"/></g></mask><radialGradient id="Безымянный_градиент_130-28" cx="1230" cy="842.95" r="45.34" gradientTransform="matrix(-0.99, -0.78, -0.78, 0.98, 2108.39, 367.62)" xlink:href="#Безымянный_градиент_130"/></defs><g class="cls-8"><g id="Слой_2" data-name="Слой 2"><g id="_Layer_" data-name="&lt;Layer&gt;"><path class="cls-9" d="M298.89,3.13C285.12,12.66,271.34,32.79,247,33.85s-41.32,13.78-48.74,24.37-23.31,30.73-36,36-20.13,22.25-11.66,39.2,7.42,23.31,0,33.91-15.89,27.55-27.54,36-24.38,9.54-36,9.54-35,5.3-42.38,15.89S34,247.88,24.46,258.47,1.16,307.21.1,331.58s6.35,40.27,37.08,49.81S98.63,393,128.3,386.68s31.79-16.95,56.16-10.6,36,23.31,56.15,24.38,30.73-10.6,51.92,1.05,64.63,15.9,95.36,12.72,24.37-1.06,67.81-1.06,37.09-19.07,54-23.31,42.38-12.71,51.91-31.79,8.48-21.19-6.35-41.32S534.11,282.84,532,265.89s-13.78-23.31-17-33.9,8.47-7.42-1.07-25.43-21.18-22.25-35-54S433.45,69.88,411.2,56.11s-27.55-14.84-44.5-31.79S312.66-6.41,298.89,3.13Z"/><path class="cls-10" d="M457.25,144.13c-2.86,1.14-15.41,1.54-24.66,7.71s-16.18.77-27-.77-17-4.63-23.89-4.63-13.11-.77-8.48,8.48,8.48,17,4.62,22.35-19.26-16.18-40.07-17-17.73,6.17-22.35,8.48-13.88,4.62-24.67,6.94-20.8,5.39-18.49,15.41,5.4,20,5.4,23.89,8.47,11.56,15.41,13.87S300,233.53,317.76,242s19.27,24.66,10,21.57-17.73-5.39-30.06-13.1-6.16-10.79-20.81-23.89S266.12,210.41,233,210.41,198.3,202.7,185.2,205s-20.81,3.08-29.28,17.73-8.48,20.81-24.66,11.55-23.9-6.16-38.54-6.16-29.28,2.31-29.28,15.42,21.21,51.5,32.57,55.8,16,15.87,33.7,16.64,40.85-9.25,51.64-14.64,44.7-7.71,60.11-4.63,13.11,6.17,26.21,16.19,25.43,10.78,37.76,11.56,33.14,0,43.93-1.54,6.16,1.54,26.2,3.85,23.89,10,40.85,5.4,32.37-15.42,34.68-17.73,20,13.1,43.16,4.63,20.8-13.88,22.35-29.29,7.7-14.65,2.31-26.21-14.65-18.49-17.73-27.74,5.4-8.48,2.31-21.58-11.55-23.89-16.18-33.14-10.79-16.18-13.1-23.12S465,141.05,457.25,144.13Z"/><path class="cls-11" d="M290.78,46.25s-15.41.77-28.51-1.54-38.53.77-38.53,16.18,10,20.81,11.56,37.77,3.85,23.89,12.33,29.29,10.79,11.56,30.06,12.32,13.87-3.85,39.3,1.55,46.24,27,40.85,8.48-10.79-35.46-12.34-45.48,2.32-6.16-8.47-16.95-13.87-15.41-18.5-20S309.28,50.88,290.78,46.25Z"/><path class="cls-12" d="M315.44,3.15c-2.73-.06-26.72,5.88-15,12.29s9.62,10.15,15.5,14.43,7.48,6.94,19.77,11.75S351.23,55,353.91,60.86s9.62,11.75,8,16-16,4.81-4.27,10.68,4,20.35,13.13,23.56,23.49-6.42,45.4-4.29,19.48,7.45,26.43,9,3.74-18.16-12.82-35.8-15.5-22.44-36.88-29.38S376.35,39,366.2,28.26,337.35,3.69,315.44,3.15Z"/><path class="cls-13" d="M230.41,36.54C214.86,41,203.83,50.23,198.23,58.22c-7.41,10.6-23.31,30.73-36,36s-20.13,22.25-11.66,39.2,7.42,23.31,0,33.91-15.89,27.55-27.54,36-24.38,9.54-36,9.54a56.06,56.06,0,0,0-5.6.33C96.78,218,121.73,217,128.25,211c7.82-7.21,21-14.42,37.27-18s36.06,0,52.29,4.81,41.47-1.2,48.69-8.42.6-16.83,12.62-22.24,18.63,6,22.84-1.2,0-14.43-18.63-16.83-34.86-1.8-48.69-15-10.22-24.64-13.22-38.46S207,78.13,210,60.7C211.53,51.83,221,43.12,230.41,36.54Z"/><path class="cls-13" d="M329.61,46.28c-10.22-1.2-16.83-6.61-23.45-13.22s-10.21-6-17.42-18a8,8,0,0,1-1-2.6c-5,4.49-10.33,9.3-16.42,13.23,0,.84,0,1.69,0,2.59,0,10.22,5.41,13.82,17.43,12.62s18.63,9,35.46,20.44,27,13.82,25.24,5.41S339.83,47.48,329.61,46.28Z"/><path class="cls-14" d="M391.51,55.9c-2.38-.28-26.44-1.2-24.64,3.6s1.2,10.22,12,12.63,13.83,8.41,19.84,12.62,14.42,8.41,16.23,0-1.21-7.82-6.62-15S401.73,57.1,391.51,55.9Z"/><path class="cls-13" d="M418.56,111.8s-4.2-5.41-16.22-.61-21.64,6.62-28.86,6.62-21.63,3.6-10.81,11.42,13.22.6,20.43,1.8,9.62,5.41,19.84,7.81,14.42,4.81,24,3.61,15.63-9,22.84-9.62-.6-4.2-6-6.61S429.38,114.8,418.56,111.8Z"/><path class="cls-15" d="M258.79,59.18a60,60,0,0,0-11.33,4.73c-6.14,3.3-13.22,1.42-11.34,7.08s5.67,5.67,11.34,9,11.8,9.92,14.64,9.92,2.83,1.89,5.66,6.14,6.14,9.44,13.7,12.28,13.69,4.25,18.41,2.83.48-2.36,9.92-5.67,18.42-6.14,9.45-8-6.14-2.37-13.7-5.67-12.28,0-20.3-7.56-9-7.55-10.86-13.22S270.6,60.13,258.79,59.18Z"/><path class="cls-13" d="M157.73,108.3s-5.66,11.8,4.73,15.11,11.33-1.89,20.78,3.78,9.91,9.44,14.63,14.16,12.75,8,5.2,9.92-21.25-2.36-26,.94-7.09,9.45-12.28-.47-5.2-10.39-8.5-17.47S146.87,120.1,157.73,108.3Z"/><path class="cls-16" d="M307.43,182.91c-1.41-.16-16.53-.47-22.67,4.72s-3.77,7.08-1.88,15.58-.47,9.45,4.25,9.45,17.94-2.36,23.13-3.31,8.51,2.84,16.06,2.84,12.28-.47,10.39-6.14-5.67-8.5-9.92-10.86a25,25,0,0,0-11.8-2.83C312.15,192.36,315.93,183.86,307.43,182.91Z"/><path class="cls-17" d="M469.41,186.21s-13.7-.94-15.59,2.37-2.36,7.08-6.14,11.33-8,6.14-10.39,8.5-9.91,3.78-19.36,3.31-14.64,4.24-16.52,6.61.94,6.14,13.69,9.44,17.47,8.5,31.64,9.92,17,.94,26,3.78,16.53,0,16.53-6.14.47-6.14,0-17,2.83-9-3.31-16.06S479.32,188.1,469.41,186.21Z"/><path class="cls-18" d="M202.64,229.3c-12.87,0-13.9-6.7-21.62.51s-8.75,11.33-14.42,16-6.69,11.85,2.06,11.33,14.94-6.7,28.32-4.64S213.46,255,218.61,254s16.47,8.23,26.77,9.26,11.84-1.54,18-3.6,6.18-4.12-1-9.78a133.63,133.63,0,0,0-18-11.84C238.17,234.44,238.18,229.3,202.64,229.3Z"/><path class="cls-19" d="M118.7,255.07a33.66,33.66,0,0,0-29.8,2.8c-2.18,1.36-3.74,2.81-3.74,4.17,0,4.55,10.47,6.37,12.75,10.92s2.73,17.75,12.74,26.39,17.75,7.29,30.94,10,22.76-2.73,20.94-8.65-3.65-9.1-8.65-12.74-14.56-8.65-17.75-11.83-.45-5-5-11.37A26,26,0,0,0,118.7,255.07Z"/><path class="cls-13" d="M470.14,363.06s-14.1-5-23.21-4.55-12.28,6.83-22.75,7.28-15.47,12.74-18.2,17.3,15,10,35.95,9.1,23.21-2.27,29.57-7.74,8.65-4.55,8.2-10S479.24,365.79,470.14,363.06Z"/><path class="cls-13" d="M244.89,341.22c-1.43-.19-6.37.91-12.74-1.82s-9.56-3.19-16.84-1.82-11.83,4.55-5.46,10,12.74,9.1,18.66,10.92,10.46-.45,20.47-.45,17.75-1.37,14.11-5.46S258.09,343,244.89,341.22Z"/><path class="cls-13" d="M220.32,164.52a45.44,45.44,0,0,0-12.82,1.07c-7.48,1.6-15,.53-18.7,5.34s-12.29,7.48-5.34,8.55,5.34-2.13,16.56,1.61,18.17,1.6,24.58,3.2,12.29,5.88,20.84,1.07,17.63-9.09,8.55-11.22S231.55,164,220.32,164.52Z"/><path class="cls-13" d="M19.26,266.19c-2.13,6.5-3.71,13.75-3,19.72,1.72,14.65-7.76,27.57-7.76,37s-6,28.43,7.76,40.49,53.41,20.68,67.2,17.23S111.88,369.48,130,366s33.6,0,26.7-4.3-12.92-18.09-2.58-12.07,20.68,15.52,39.63,20.69,24.12,10.33,33.6,16.37,22.4-.87,37-1.73,39.63-.86,39.63-.86-14.64,6-5.17,11.2,50,16.37,69.79,11.2S408.26,404,420.32,404s37.05.85,47.39.85,16.37-8.61,20.68-12.92S506.48,379,511.65,379s21.54-3.45,31.88-8.61c8.29-4.15,19.32-18.25,24.27-30.78-.3-6-4.28-11.67-12.5-22.82-14.84-20.13-21.19-33.91-23.31-50.86a37,37,0,0,0-2.72-10c5.83,18.51,1.65,37.57-4.32,51.89s9.62,18,.6,33.06-37.87,13.82-59.5,5.41-40.27-7.22-52.3.6-16.22,12.62-35.46,6.61-41.47-21-49.28-13.23-18.64,7.82-34.26,1.21-8.42-1.21-27.65-3S249.67,327,236.44,318.56s-29.45-7.21-45.68-2.41-15.62,5.42-22.24,4.82-11.41-1.21-34.86,5.4-51.09,14.43-68.52,0-13.22-37.26-12.62-46.28-4.81-9-15.63-30.65A19.77,19.77,0,0,1,35.13,244a93.4,93.4,0,0,1-10.67,14.51A43.93,43.93,0,0,0,19.26,266.19Z"/><path class="cls-20" d="M111.88,374.65c-12.06,1.72-25.84,7.76-39.63,7.76S34.34,372.93,18,361.73s-6-49.11-12.06-56A1.77,1.77,0,0,0,4.54,305,132.83,132.83,0,0,0,.1,331.58C-1,356,6.45,371.85,37.18,381.39S98.63,393,128.3,386.68a122.5,122.5,0,0,0,16-4.54C134.66,377.15,118,373.77,111.88,374.65Z"/><path class="cls-21" d="M274.21,387.88A164.68,164.68,0,0,0,241.8,389c-15.81,1.93-19.29-5-30.09-9.26s-23.15-8.49-20.29-6c1.13,1,4.33,4.29,7.77,7.89,15.29,7.57,25.82,17.93,41.42,18.76,12.61.66,21.48-3.66,31.56-4.13a22.37,22.37,0,0,1,3.2-2.27C285,388.27,283.47,388.27,274.21,387.88Z"/><path class="cls-13" d="M460.45,194.85a80.57,80.57,0,0,0-7.16,7.16c-2.2,2.76-8.26,6.61,1.65,6.61s19.83,5,19.83,7.71-6.06,5.51-2.2,9.92,6.06,10.46,8.81,9.91,5.51,3.85,5-9.36.55-18.73-3.86-23.69-7.71-6.61-9.91-9.36S466.51,193.2,460.45,194.85Z"/><path class="cls-22" d="M453.84,169s-11.57,2.76-14.32,9.92-3.86,13.22-9.91,17.07-34.15,7.71-26.44,10.47,14.32,1.1,26.44-4.41,22-18.73,28.09-19.28,4.95-2.75,12.66-1.1S483,191,485.24,194.3s8.81,4.4,3.3-2.75-7.16-6.62-10.46-13.77S472.57,162.35,453.84,169Z"/><path class="cls-23" d="M180.2,92.2l-10.72,4.91s-12.52,6.71-7.16,14.31,12.07,4,19.67,6.7,12.07,13.86,19.67,19.22,13.86,3.58,8.49-3.12-11.62-14.76-11.62-18.33S195,109.63,195,101.14,194.51,85.05,180.2,92.2Z"/><path class="cls-24" d="M335.32,168.19s-12.52,4.47-18.78,5.36-20.56,1.34-9.38,5.37,8.49,5.36,14.75,7.6,8,.89,16.54,9.83,10.72,9.39,11.62,16.54-22.8,4-25.48,8.94,30,8.49,37.55,5.81,7.6-7.6,15.2-10.28,12.51-7.6,4.91-14.75-5.81-6.71-10.72-13.86S359,168.19,335.32,168.19Z"/><path class="cls-25" d="M285.7,50.63c-1.79-.08-22.35-2.69-20.57,1.78s6.26,5.82,9.84,9.39,2.23,1.34,8,8.94,8.49,15.2,22.8,15.65,24.13,6.26,21.9,1.79-7.16-10.29-15.2-20.12S305.82,51.52,285.7,50.63Z"/><path class="cls-13" d="M250.88,67.89s8.06-4.34,12.39-2.48,12.39,13,13.63,14.87,5,6.19,3.1,8.67-6.2-1.86-10.53-5S262,77.8,257.7,77.18,236.64,66.65,250.88,67.89Z"/><path class="cls-13" d="M303.1,94.72l-.38-.07c-1-.13-6.27-.81-11.07-1-5.36-.27-4.56.8,1.34,4.55s2.68,5.63,9.65,4.83,7.23-1.88,10.18-2.95S312.07,96.59,303.1,94.72Z"/><path class="cls-13" d="M394.31,58.76s-13.4-2.68-17.16-1.07-1.34,3.48,2.68,6.16,3.49,4.56,7.24,5.09a37.66,37.66,0,0,1,9.38,2.15c2.41,1.07,4.29,3,6.44,6.43s4.55,5.9,7.5,5.9,3.48.54,2.15-3.22-3-5.89-5.9-9.91S397.26,59.83,394.31,58.76Z"/><path class="cls-26" d="M233.15,219.25s-21.88.9-18.75,5.81,6.25,3.57,17.86,4.91,9.82,1.79,15.62,6.25,9.37,7.59,18.3,12.5,22.32,7.14,17.85.45-3.57-5.36-10.26-14.74S269.31,217.92,233.15,219.25Z"/><path class="cls-27" d="M126.49,241.8s-20.59-2.49-25,2.5,6.87,6.25,13.73,6.25,19.35,5,20.59,11.22,8.12,13.11,15,16.23,15,6.24,17.47,9.36,7.49,7.49,5.62-1.88-2.49-9.35-10.61-15.59-8.73-5.61-11.85-11.86S139,243.68,126.49,241.8Z"/><path class="cls-13" d="M302.48,186.88s-13.1-.62-10.61,7.49,0,10.61,8.74,9.37,11.86,1.87,21.84,2.49,11.24-4.36,1.88-7.49-16.85-2.49-16.85-4.37S308.72,188.75,302.48,186.88Z"/><path class="cls-13" d="M413.57,115.74c-3.11.28-6.87,1.25-17.47,3.75s-11.24,2.49,3.74,4.36,13.73,7.49,24.34,8.12,20-1.25,21.22-1.25-13.11-8.74-16.23-10.61S420.43,115.12,413.57,115.74Z"/><path class="cls-28" d="M344.4,14s-11-6.6-17-6.6-8.17-.32-1.57,6,7.23,17.29,18.24,19.8,17,4.72,18.55,2.84S355.09,22.45,344.4,14Z"/><path class="cls-29" d="M399.73,53.89s-1.57,4.4,4.09,6.91,7.23,6.6,8.49,9.12,1.89,6.29,6,10.37,12.89,8.81,11.32,5-6.91-7.86-11.32-14.77S412.63,58.29,399.73,53.89Z"/><path class="cls-30" d="M371.75,76.84s9.44-.63,16.35,4.4,16,10.69,20.75,11.32,7.55-4.09,8.8-1.57,2.83,6.91,4.4,8.17-8.8,1.89-16.66-.94-11.31-7.86-16-11.32S365.78,79.67,371.75,76.84Z"/><path class="cls-31" d="M181.15,96.9s-16.93.49-16.43,8.46,9,3,16.43,6,16.94,19.92,13.95,11-7.47-14-8-18.43S191.12,96.4,181.15,96.9Z"/><path class="cls-32" d="M493.47,232.88a21.25,21.25,0,0,1-3,7c-2.49,4-10,6-16.44,5s-20.42-3-13.45.51,16.94,11.45,16.94,13-1.49,2.48,6,7,11.45,11,19.42,12.46,15.94,0,10-9.47-8.47-13-10-18.42S495.46,226.9,493.47,232.88Z"/><path class="cls-33" d="M77.77,216.26s-17.76.85-27.91,10.15-9.31,18.19-6.34,17.77,9.72-11.43,18.61-15.65,13.11-6.34,18.61-6.77S92.15,216.69,77.77,216.26Z"/><path class="cls-34" d="M387.89,414.23l4.18-.42c2.93-4.51-6.3-8.41-11.95-6.91-7.09,1.9-15.12,2.37-28.82,1.9s-26-3.79-32.6-4.26c-4.72-.33-.8,3.16,3.22,6.57A238.77,238.77,0,0,0,387.89,414.23Z"/><path class="cls-35" d="M497.76,390.84c-6.61,3.78-17,11.81-20.78,12.28s-11.81,4.26-22.68,4.26c-6.6,0-13.71,3-12.36,5.71,4,.05,8.49.08,13.76.08,37.39,0,37.9-14.12,48.12-20.76C503.11,390.47,501.48,388.72,497.76,390.84Z"/><path class="cls-13" d="M447.21,365.8c-1.37.36-9.92,1.42-14.65,3.78s-11.34,1.42-14.64,4.25-6.62,6.62-3.31,7.56,9-1.41,16.54-1.89,11.81,2.36,17,1.41,11.81-9,17-9.45,2.36,2.37,6.61,2.84,5.2-1.89,4.25-4.25-4.25-3.31-8.5-4.25S461.86,362,447.21,365.8Z"/><path class="cls-36" d="M549.74,327.06c-2.37.43-8.51,1.41-9,7.08s1.89,9.92-3.78,15.6-13.23,15.11.47,10.86,14.65-8.5,19.85-12.29,9.45-4.25,6.61-10.86S562.49,324.7,549.74,327.06Z"/><path class="cls-37" d="M328.08,107.69s-15.72,3.5-7,7.87,9.18,6.11,13.55,9.61,9.61,8.3,7.42,1.31-1.3-4.37-4.36-10S336,106.82,328.08,107.69Z"/><path class="cls-38" d="M271.73,105.07s12.67,6.12,15.72,8.74,8.68,2.07,13.74-.06,9-4.31,13.35-5.18-7,6.55-7.86,9.17-9.18,9.18-17.48,7S266.05,102.45,271.73,105.07Z"/><path class="cls-39" d="M231.91,156.91a48.44,48.44,0,0,0-16.11,2.14c-8.59,2.69-11.9,4.49-3,3.32s18,.44,26.08,2.59,16.65,9.13,19.87,5.91S255.54,160.13,231.91,156.91Z"/><path class="cls-13" d="M111.63,259.47s-14.5-4.29-9.13,2.69,12.35,5.37,14.5,9.66,4.29,4.29,6.44,5.91,1.07,4.83-.54,7.51-3.76,3.77,3.76,8.06,18.8,4.83,24.17,7.52,11.81,3.76,7.51-1.07-6.44-8.6-15-12.36-10.74-5.9-12.35-10.73-3.76-10.21-7.52-12.89S111.63,259.47,111.63,259.47Z"/><path class="cls-13" d="M142.49,215.05s-13.08,5.88-5.23,9.16,5.23,3.27,10.47-.66S154.92,212.43,142.49,215.05Z"/><path class="cls-40" d="M412.67,173.18c-2.58-.45-6.55-5.23-13.74,4.58s-12.43,14.39-2,14.39,11.77-1.31,20.28-7.19S431.64,176.45,412.67,173.18Z"/><path class="cls-41" d="M395,241.87c-2.61,0-7.85,1.31-13.73,8.5s-17,10.47-26.17,11.12-14.39-2-21.59,7.21-7.19,17,.65,12.42,13.09-8.51,19-11.13,18.31,1.31,26.82,2,11.77-1.3,11.77-8.51S398.93,253,402.2,251s12.43-1.31,19.62-3.93,15.05-5.23,4.59-8.51S398.27,241.87,395,241.87Z"/><path class="cls-42" d="M383.85,318.64a199,199,0,0,0,29.74-2.48c14.05-2.47,16.53,6.61,4.13,9.09s-14.87,7.44-27.27,4.14S360.71,316.16,383.85,318.64Z"/><path class="cls-43" d="M244.85,48.16s-14.31,2.05-15.33,10.22,5.62,4.6,14.31,1.53,6.64-7.15,9.71-8.68S254.05,46.63,244.85,48.16Z"/><path class="cls-44" d="M456.4,147.29s-7.66-2-12.26,3.07-6.64,7.15,6.13,6.65,12.78-1.54,15.33-4.09S466.11,147.29,456.4,147.29Z"/><path class="cls-45" d="M407.35,156.49s-7.16-2-13.29-1-12.26-1.53-13.79,2.56-.52,6.64,2,9.7,2.55,4.09,2.55,8.18,4.61,3.58,8.18-.51,5.11-8.18,9.71-8.69,5.62,1,12.26,1.53,10.22,1.54,13.29,0,2.55-4.59-1.53-6.13S413.48,157.51,407.35,156.49Z"/><path class="cls-13" d="M442.1,213.73s-11.76.51-16.35,1-13.29-.5-16.36,1-2,3.58,5.62,6.13,8.18,3.58,11.25,4.09,3.57-1,9.19-3.07S451.8,214.24,442.1,213.73Z"/><path class="cls-46" d="M293.91,258.69s-8.69,1.54-2.05,6.65,2.05,5.1,13.8,3.57,19.42-2.55,9.71-5.11S301.57,256.65,293.91,258.69Z"/><path class="cls-13" d="M220.83,232.63H208.57c-7.15,0-19.42-3.57-10.73.51s13.8,7.16,17.88,8.69,3.58,2.55,8.69,2,5.11,0,10.73,2,4.6,4.08,12.27,6.64,7.66,2.55,11.75,2.55S257.63,249,250,244.9s-14.31-8.18-14.31-8.18S232.07,233.65,220.83,232.63Z"/><path class="cls-13" d="M382.82,280.15c-1.52-.15-20.34-6.57-23.2-5.08s-5.42,3.55-8.48,5.59-.51,4.61,4.6,4.61,6.64-2.56,13.8.51,6.64,4.08,15.84,3.06,12.26-.51,11.24-2S392.53,281.18,382.82,280.15Z"/><path class="cls-13" d="M33.19,273.53S41.36,279,41.36,289s.9,22.67-3.63,29-10,18.14-10.89,22.68-8.16,6.34-9.07-14.52,5.11-16.95,3.92-33.87S31.38,269,33.19,273.53Z"/><path class="cls-13" d="M31.5,279.82s-5.94,7.93-5.94,11.88-2,10.56,0,12.55,2.64,5.28,2,11.22,1.32,13.2,2.64,9.24,7.26-10.56,6.6-23.1S39.42,279.17,31.5,279.82Z"/><path class="cls-47" d="M185.28,215.81A20.08,20.08,0,0,0,172.08,227c-4,9.23-10.29,24.94-5.48,18.74s4.22-9.21,14.42-16,10.2-5.42,14.16-5.42S195.84,215.15,185.28,215.81Z"/><path class="cls-48" d="M133.14,308.87s-20.46-3.31-24.42-7.26-10.56-3.3,0,5.94,15.84,8.58,27.72,7.92S152.94,310.85,133.14,308.87Z"/><path class="cls-49" d="M236.1,325.36s-15.18-3.29-23.76,2-23.76,9.9-15.84,9.9,9.24-3.3,19.8-4,18.48,5.29,23.76,5.29S257.88,335.27,236.1,325.36Z"/><path class="cls-13" d="M447.78,250.83s-20,4.27-24.24,4.27-10.93,4.76,2.38,9,14.73,5.71,21.86,2.85,5.7-3.79,10-6.65S470.59,253.2,447.78,250.83Z"/><path class="cls-13" d="M474.87,274.11s-5.7,1.9-7.6,4.28-8.56,3.81-10.46,3.81-13.31-1.43-5.7,3.79,7.13,8.56,10.93,9,5.23-.94,8.55.48,7.61,6.65,14.26,4.28,6.18-6.65,3.81-13.79S486.28,273.64,474.87,274.11Z"/><path class="cls-50" d="M259.14,270.39a74.64,74.64,0,0,1-29.89-3.52c-14.94-5.27-45.72-9.67-22.86.88s28.14,19.34,36.05,19.34,7.91-.88,20.22-5.28S283.76,266.87,259.14,270.39Z"/><path class="cls-51" d="M274.8,345.17s-20.61-6.28-14.34,0,27.79,5.38,9.86,11.65-27.78,8.07-37.64,8.07,15.23,4.48,39.43,2.69,41.23-.9,42.13-7.17S297.21,348.75,274.8,345.17Z"/><path class="cls-52" d="M440.6,346.06s-13.44,1.8-25.09,9-54.67,9-58.25,15.24,5.37,13.44,18.82,13.44,12.54-4.49,20.61-10.76S418.2,358.61,440.6,355,450.46,346.06,440.6,346.06Z"/><path class="cls-53" d="M510.51,329.94s-33.16,3.58-22.41,9.85,15.24,7.17,21.51,4.48S530.22,328.14,510.51,329.94Z"/><path class="cls-54" d="M255.14,223.33s-19.27-3.42-12,4.29,21.41,20.12,24.4,15S269.28,229.33,255.14,223.33Z"/><path class="cls-55" d="M343.72,295s-18.84-3.4-11.15,7.79,16.77,12.58,23.06,10.48S357,296.25,343.72,295Z"/><path class="cls-56" d="M305.31,217.47s-23.07-2.79-18.18,2.1,12.59,5.59,20.27,4.89S317.89,215.38,305.31,217.47Z"/><path class="cls-57" d="M43.21,320.92s-13.28,16.77-7,25.86,16.77,18.16,16.07,0S48.1,313.93,43.21,320.92Z"/><path class="cls-13" d="M229.86,342.15s-8.19-3.45-12.93-2.16-1.72,5.17,6.46,9.49,12.93.86,19.82,0,12.07-2.59,6-4.32A73.08,73.08,0,0,0,229.86,342.15Z"/><path class="cls-13" d="M124.72,336.12c-3.11-.45-23.28.86-31.89,3s-19,5.61-10.78,6.46,9.48.87,19.82,1.3.87-1.3,16.38-3.45S148.85,339.56,124.72,336.12Z"/><path class="cls-13" d="M347.5,345.16c-2.41-.94-25.86-3.87-17.67,3s6,9.05,15.51,9.05,12.07.43,21.12-.43S375.94,356.37,347.5,345.16Z"/><g class="cls-58"><g class="cls-59"><path class="cls-60" d="M240,22c-29.37,37-22.89,91,14.45,120.65s91.43,23.62,120.79-13.39S398.12,38.19,360.77,8.57,269.35-15,240,22Z"/></g><g class="cls-61"><path class="cls-62" d="M307.16,224.3c-19.44,24.5-15.15,60.26,9.57,79.86s60.51,15.64,79.95-8.87,15.14-60.25-9.58-79.86S326.59,199.8,307.16,224.3Z"/></g><g class="cls-63"><path class="cls-64" d="M195.24,194c-19.43,24.5-15.14,60.26,9.57,79.86s60.52,15.63,80-8.86,15.14-60.27-9.58-79.87S214.67,169.49,195.24,194Z"/></g></g></g></g></g></svg>