<svg xmlns="http://www.w3.org/2000/svg" xmlns:xlink="http://www.w3.org/1999/xlink" viewBox="0 0 217.74 279.96"><defs><style>.cls-1{isolation:isolate;}.cls-2,.cls-3{fill:#79c5ed;}.cls-19,.cls-22,.cls-3,.cls-39,.cls-5,.cls-8{mix-blend-mode:multiply;}.cls-10,.cls-11,.cls-13,.cls-14,.cls-18,.cls-23,.cls-24,.cls-25,.cls-26,.cls-27,.cls-28,.cls-29,.cls-30,.cls-31,.cls-32,.cls-34,.cls-38,.cls-4,.cls-40,.cls-41{mix-blend-mode:screen;}.cls-10,.cls-12,.cls-13,.cls-19,.cls-22,.cls-23,.cls-24,.cls-25,.cls-26,.cls-27,.cls-28,.cls-29,.cls-30,.cls-31,.cls-32,.cls-34,.cls-38,.cls-4,.cls-40,.cls-41,.cls-5,.cls-8{opacity:0.5;}.cls-4{fill:url(#Безымянный_градиент_130);}.cls-5{fill:url(#Безымянный_градиент_2);}.cls-6{fill:url(#Безымянный_градиент_2-2);}.cls-7{fill:url(#Безымянный_градиент_2-3);}.cls-8{fill:url(#Безымянный_градиент_2-4);}.cls-9{fill:url(#Безымянный_градиент_2-5);}.cls-10{fill:url(#Безымянный_градиент_2-6);}.cls-11{fill:url(#Безымянный_градиент_2-7);}.cls-12{fill:#ffccd1;}.cls-13{fill:url(#Безымянный_градиент_2-8);}.cls-14{fill:url(#Безымянный_градиент_2-9);}.cls-15{fill:url(#Безымянный_градиент_2-11);}.cls-16{fill:#fff;opacity:0.05;}.cls-17{fill:url(#Безымянный_градиент_12);}.cls-18{fill:url(#Безымянный_градиент_130-2);}.cls-19{fill:url(#Безымянный_градиент_12-2);}.cls-20{fill:url(#Безымянный_градиент_14);}.cls-21{fill:url(#Безымянный_градиент_12-3);}.cls-22{fill:url(#Безымянный_градиент_12-4);}.cls-23{fill:url(#Безымянный_градиент_130-3);}.cls-24{fill:url(#Безымянный_градиент_130-4);}.cls-25{fill:url(#Безымянный_градиент_130-5);}.cls-26{fill:url(#Безымянный_градиент_130-6);}.cls-27{fill:url(#Безымянный_градиент_130-7);}.cls-28{fill:url(#Безымянный_градиент_130-8);}.cls-29{fill:url(#Безымянный_градиент_130-9);}.cls-30{fill:url(#Безымянный_градиент_130-10);}.cls-31{fill:url(#Безымянный_градиент_130-11);}.cls-32{fill:url(#Безымянный_градиент_130-12);}.cls-33{fill:url(#Безымянный_градиент_58);}.cls-34{fill:url(#Безымянный_градиент_58-2);}.cls-35{fill:url(#Безымянный_градиент_12-5);}.cls-36{fill:url(#Безымянный_градиент_13);}.cls-37{fill:url(#Безымянный_градиент_12-6);}.cls-38{fill:url(#Безымянный_градиент_58-3);}.cls-39{opacity:0.3;fill:url(#Безымянный_градиент_58-4);}.cls-40{fill:#d7f3ff;}.cls-41{fill:url(#Безымянный_градиент_130-13);}</style><radialGradient id="Безымянный_градиент_130" cx="82.91" cy="257.77" r="66.87" gradientUnits="userSpaceOnUse"><stop offset="0" stop-color="#fff"/><stop offset="0.35" stop-color="#a8a8a8"/><stop offset="1"/></radialGradient><linearGradient id="Безымянный_градиент_2" x1="129.74" y1="160.14" x2="222.4" y2="277.42" gradientUnits="userSpaceOnUse"><stop offset="0" stop-color="#db2831"/><stop offset="0.02" stop-color="#d7272f"/><stop offset="0.22" stop-color="#a8161b"/><stop offset="0.39" stop-color="#860a0c"/><stop offset="0.54" stop-color="#710303"/><stop offset="0.64" stop-color="#690000"/></linearGradient><linearGradient id="Безымянный_градиент_2-2" x1="86.56" y1="153.41" x2="221.29" y2="323.95" xlink:href="#Безымянный_градиент_2"/><linearGradient id="Безымянный_градиент_2-3" x1="109.1" y1="183.26" x2="112.97" y2="286.05" xlink:href="#Безымянный_градиент_2"/><linearGradient id="Безымянный_градиент_2-4" x1="118.14" y1="204.6" x2="209.49" y2="320.22" xlink:href="#Безымянный_градиент_2"/><linearGradient id="Безымянный_градиент_2-5" x1="741.13" y1="153.41" x2="875.86" y2="323.95" gradientTransform="matrix(-1, 0, 0, 1, 871.64, 0)" xlink:href="#Безымянный_градиент_2"/><linearGradient id="Безымянный_градиент_2-6" x1="730.73" y1="160.22" x2="860.78" y2="324.84" gradientTransform="matrix(-1, 0, 0, 1, 871.64, 0)" xlink:href="#Безымянный_градиент_2"/><linearGradient id="Безымянный_градиент_2-7" x1="77.2" y1="161.54" x2="205.05" y2="323.37" xlink:href="#Безымянный_градиент_2"/><linearGradient id="Безымянный_градиент_2-8" x1="672.58" y1="318.65" x2="761.38" y2="431.05" gradientTransform="matrix(-1.18, 0, 0, 1.23, 937.34, -235.21)" xlink:href="#Безымянный_градиент_2"/><linearGradient id="Безымянный_градиент_2-9" x1="14.11" y1="205.06" x2="117.48" y2="335.91" xlink:href="#Безымянный_градиент_2"/><linearGradient id="Безымянный_градиент_2-11" x1="183.73" y1="225.74" x2="229.58" y2="261.93" xlink:href="#Безымянный_градиент_2"/><linearGradient id="Безымянный_градиент_12" x1="56.5" y1="29.5" x2="125.66" y2="33.49" gradientUnits="userSpaceOnUse"><stop offset="0" stop-color="#cc9d6e"/><stop offset="1" stop-color="#9e5a3e"/></linearGradient><radialGradient id="Безымянный_градиент_130-2" cx="-0.13" cy="-54.45" r="31.72" gradientTransform="translate(77.87 102.23) scale(0.87 0.89)" xlink:href="#Безымянный_градиент_130"/><linearGradient id="Безымянный_градиент_12-2" x1="77.28" y1="33.84" x2="140.45" y2="33.84" xlink:href="#Безымянный_градиент_12"/><linearGradient id="Безымянный_градиент_14" x1="128.65" y1="37.87" x2="124.79" y2="30.66" gradientUnits="userSpaceOnUse"><stop offset="0.46" stop-color="#cc9d6e"/><stop offset="1" stop-color="#9e5a3e"/></linearGradient><linearGradient id="Безымянный_градиент_12-3" x1="81.85" y1="50.24" x2="78.77" y2="46.23" gradientTransform="matrix(0.9, 0.07, 0.07, 0.96, 47.28, -30.4)" xlink:href="#Безымянный_градиент_12"/><linearGradient id="Безымянный_градиент_12-4" x1="72.13" y1="47.77" x2="121.25" y2="50.61" xlink:href="#Безымянный_градиент_12"/><radialGradient id="Безымянный_градиент_130-3" cx="63.08" cy="62.23" r="49.54" xlink:href="#Безымянный_градиент_130"/><radialGradient id="Безымянный_градиент_130-4" cx="156.87" cy="226.38" r="31.72" gradientTransform="translate(-117.59 -222.04) scale(1.2 1.24)" xlink:href="#Безымянный_градиент_130"/><radialGradient id="Безымянный_градиент_130-5" cx="19.18" cy="102.27" r="72.83" xlink:href="#Безымянный_градиент_130"/><radialGradient id="Безымянный_градиент_130-6" cx="-140.79" cy="208.14" r="59.97" gradientTransform="translate(202.28 -90.57) rotate(11.29)" xlink:href="#Безымянный_градиент_130"/><radialGradient id="Безымянный_градиент_130-7" cx="-177.28" cy="265.77" r="34.3" gradientTransform="translate(276.5 -112.84) rotate(15.19)" xlink:href="#Безымянный_градиент_130"/><radialGradient id="Безымянный_градиент_130-8" cx="-33.51" cy="268.88" r="105.49" xlink:href="#Безымянный_градиент_130"/><radialGradient id="Безымянный_градиент_130-9" cx="134.82" cy="170.34" r="65.44" xlink:href="#Безымянный_градиент_130"/><radialGradient id="Безымянный_градиент_130-10" cx="280.65" cy="157.14" r="99.29" xlink:href="#Безымянный_градиент_130"/><radialGradient id="Безымянный_градиент_130-11" cx="-229.52" cy="-170.07" r="105.48" gradientTransform="translate(137.91 357.39) scale(0.65)" xlink:href="#Безымянный_градиент_130"/><radialGradient id="Безымянный_градиент_130-12" cx="-659.02" cy="-1148.24" r="105.5" gradientTransform="translate(247.42 646.7) scale(0.36)" xlink:href="#Безымянный_градиент_130"/><linearGradient id="Безымянный_градиент_58" x1="55.57" y1="-1.34" x2="130.45" y2="14.81" gradientUnits="userSpaceOnUse"><stop offset="0" stop-color="#eccfb2"/><stop offset="1" stop-color="#b46e52"/></linearGradient><linearGradient id="Безымянный_градиент_58-2" x1="62.1" y1="0.74" x2="109.26" y2="10.91" xlink:href="#Безымянный_градиент_58"/><linearGradient id="Безымянный_градиент_12-5" x1="138.45" y1="-116.82" x2="129.35" y2="-116.82" gradientTransform="matrix(1, 0, 0, 0.74, -0.52, 95.9)" xlink:href="#Безымянный_градиент_12"/><linearGradient id="Безымянный_градиент_13" x1="113.85" y1="10.72" x2="99.94" y2="9.86" gradientUnits="userSpaceOnUse"><stop offset="0.43" stop-color="#cc9d6e"/><stop offset="1" stop-color="#9e5a3e"/></linearGradient><linearGradient id="Безымянный_градиент_12-6" x1="90.45" y1="29.64" x2="84.27" y2="23.97" xlink:href="#Безымянный_градиент_12"/><linearGradient id="Безымянный_градиент_58-3" x1="54.92" y1="2.08" x2="129.44" y2="18.15" xlink:href="#Безымянный_градиент_58"/><linearGradient id="Безымянный_градиент_58-4" x1="91.76" y1="5.56" x2="136.2" y2="15.15" xlink:href="#Безымянный_градиент_58"/><radialGradient id="Безымянный_градиент_130-13" cx="87.37" cy="24.92" r="54.78" xlink:href="#Безымянный_градиент_130"/></defs><g class="cls-1"><g id="Слой_2" data-name="Слой 2"><g id="_Layer_" data-name="&lt;Layer&gt;"><path class="cls-2" d="M141.67,264.4a5.42,5.42,0,0,0-4.6,2.56c-2.57.88-10.74,2.18-28.2,2.18s-25.63-1.3-28.2-2.18a5.41,5.41,0,0,0-9.1-.15,5.7,5.7,0,0,0-.54,1,5.54,5.54,0,0,0-.36,2c0,5.95,6.7,7.82,11.63,8.62,1,.16,1.9.28,2.69.38A200.48,200.48,0,0,0,108.87,280a200.66,200.66,0,0,0,23.89-1.15c4.65-.6,14.29-1.84,14.32-9v0A5.41,5.41,0,0,0,141.67,264.4Z"/><path class="cls-3" d="M147.08,269.81c0,7.16-9.67,8.4-14.32,9A200.66,200.66,0,0,1,108.87,280,200.48,200.48,0,0,1,85,278.81c-.79-.1-1.71-.22-2.69-.38,17.17-.61,49.13-.6,54-2.53,6.76-2.71,9.69-9.13-2.71-5.41-13.52,4.06-56.8,0-62-3.68a5.41,5.41,0,0,1,9.1.15c2.57.88,10.74,2.18,28.2,2.18s25.63-1.3,28.2-2.18a5.41,5.41,0,0,1,10,2.85Z"/><path class="cls-4" d="M72.69,269.14s4.06,6.76,25.7,6.76,13.52,0,2.71,1.35S70,275.9,72.69,269.14Z"/><path class="cls-3" d="M147.08,269.81v0c-4.52,2.08-20.91,7.87-57.09,3.52-9.28-1.11-15.31-3.48-19-5.51a5.7,5.7,0,0,1,.54-1,5.41,5.41,0,0,1,9.1.15c2.57.88,10.74,2.18,28.2,2.18s25.63-1.3,28.2-2.18a5.41,5.41,0,0,1,10,2.85Z"/><path class="cls-5" d="M108.53,159.59c-4.58,0-9.09.07-13.52.18,51.49,1.37,91.29,10.45,91.29,21.46S146.5,201.31,95,202.68q6.64.18,13.52.19c57.89,0,104.82-9.69,104.82-21.64S166.42,159.59,108.53,159.59Z"/><ellipse class="cls-6" cx="108.53" cy="181.23" rx="104.81" ry="21.64"/><path class="cls-7" d="M97.74,267.34A135,135,0,0,1,69.11,262,94.91,94.91,0,0,1,34.58,243.2C7.83,220,4.22,188.14,3.77,182.2c0-.63,0-1,0-1s166.92-21.43,203.11-5.57c3.43,1.5,5.69,3.34,6.52,5.57C222.81,206.92,178.22,274.09,97.74,267.34Z"/><path class="cls-8" d="M97.74,267.34c-29.16-2.45-49.28-12.11-63.16-24.14a166,166,0,0,0,78.5,7c72.46-10.75,93.33-73.29,93.75-74.58,3.43,1.5,5.69,3.34,6.52,5.57C222.81,206.92,178.22,274.09,97.74,267.34Z"/><ellipse class="cls-9" cx="108.53" cy="181.23" rx="104.81" ry="21.64"/><path class="cls-10" d="M69.31,196.1c57.89,0,104.82-9.68,104.82-21.63,0-4.77-7.47-9.17-20.11-12.74,35.11,3.49,59.33,10.91,59.33,19.5,0,12-46.93,21.64-104.82,21.64-34.81,0-65.65-3.51-84.71-8.91C37.58,195.34,53,196.1,69.31,196.1Z"/><path class="cls-11" d="M108.53,201.51C6.42,201.51,3.72,180.77,3.72,181.23c0,12,46.93,21.64,104.81,21.64,34.82,0,65.65-3.51,84.72-8.91C187.13,194.57,167.38,201.51,108.53,201.51Z"/><path class="cls-12" d="M9.25,188.18s23.89,10.18,68,12.43a771.45,771.45,0,0,0,86.58-1S58.05,211.36,9.25,188.18Z"/><ellipse class="cls-13" cx="128.12" cy="180.63" rx="81.12" ry="18.34"/><path class="cls-14" d="M69.11,262A94.91,94.91,0,0,1,34.58,243.2C7.83,220,4.22,188.14,3.77,182.2,10.63,200.38,20,228.56,47,246.14,58.41,253.57,72.32,259.36,69.11,262Z"/><path class="cls-12" d="M110.56,202s59.22-1.86,78.3-7.27S157.9,205.22,110.56,202Z"/><ellipse class="cls-13" cx="128.12" cy="180.63" rx="81.12" ry="18.34"/><path class="cls-15" d="M147.08,261c-2.67.45,37.87-21.64,51.39-43.28s14-33.64,14-33.64,2.66,17.28-13.77,37.63S163.31,258.32,147.08,261Z"/><path class="cls-16" d="M137.27,74.19V43.28H79.12V73.52a9.49,9.49,0,0,1-6.85,8.81c-40.47,13.31-69.52,48-70.23,89-.9,52.58,45.93,96.57,104.24,97.82,60.19,1.28,109.43-42.32,109.43-96.29,0-42.41-30.41-78.39-72.63-91.25A7.86,7.86,0,0,1,137.27,74.19Z"/><path class="cls-2" d="M108.82,271.16l-2.58,0C46.74,269.87-.91,225.06,0,171.26a91.53,91.53,0,0,1,20.65-56.08,108.34,108.34,0,0,1,51-34.78,7.49,7.49,0,0,0,5.45-6.88V41.25H139.3V74.19a5.84,5.84,0,0,0,4.37,5.44c44.31,13.49,74.07,50.94,74.07,93.19,0,24.79-10.24,48.47-28.84,66.68C168.26,259.7,139.2,271.16,108.82,271.16ZM81.15,45.31V73.52a11.54,11.54,0,0,1-8.24,10.74C32.4,97.57,4.74,132.56,4.07,171.33c-.89,51.57,45,94.53,102.25,95.75,30.23.64,59.3-10.46,79.74-30.48,17.82-17.44,27.63-40.09,27.63-63.78,0-40.45-28.62-76.34-71.2-89.31a9.87,9.87,0,0,1-7.25-9.32V45.31Z"/><path class="cls-2" d="M138,39.17C136.8,37.75,126.74,35,108.87,35s-27.93,2.79-29.12,4.21a1,1,0,0,0,.18-.63h-5c0-8,26-8.59,34-8.59s33.95.62,33.95,8.59h-5A1,1,0,0,0,138,39.17Z"/><path class="cls-17" d="M145.73,10.16l-5.28,18.12-3.24,11.18-3.4,11.65c0,2.74-8.45,5-19.73,5.58-1.68.1-3.42.14-5.21.14-13.78,0-24.94-2.57-24.94-5.72l-1.39-4.78L79.71,36.6l-2.43-8.37L72,10.16Z"/><path class="cls-18" d="M89.67,43.28s-2.07,15.2.93,18.27,11.36,3.08,14.25-3.84S106,43.28,106,43.28Z"/><path class="cls-19" d="M140.45,28.28l-3.24,11.18L79.71,36.6l-2.43-8.37a54.6,54.6,0,0,0,31.59,7.27A124.69,124.69,0,0,0,140.45,28.28Z"/><path class="cls-20" d="M128.38,36.7c-2.76,1.75-6,1.58-7.26-.39s0-5,2.73-6.74,6-1.58,7.26.39S131.14,35,128.38,36.7Z"/><path class="cls-21" d="M123.09,22.29a3.13,3.13,0,0,1-4.36-.57,3.13,3.13,0,0,1,1.34-4.18,3.13,3.13,0,0,1,4.35.57A3.12,3.12,0,0,1,123.09,22.29Z"/><path class="cls-22" d="M134.91,44.28l-1.36,8.47c-8.11,5.41-22.89,4.08-24.68,4.08-13.78,0-24.94-2.57-24.94-5.72l-1.39-6.48Z"/><path class="cls-23" d="M84.54,43.6s-3.73,26.73,1.68,32.14c5.57,5.57,20.48,5.41,25.69-6.77s2-25.37,2-25.37Z"/><path class="cls-24" d="M87.23,44.63s-2.87,21.28,1.29,25.59,15.74,4.31,19.75-5.39,1.54-20.2,1.54-20.2Z"/><path class="cls-2" d="M140.32,29.75c-.88,0-1.13,1.23-2.57,2.75-2.55,2.68-8.81,6.22-28.88,5.37-32.12-1.35-29.64-8.12-32.12-8.12-.22,0-.45,0-.66,0-3.57.33-7.45,3.21-7.45,6.73a8.82,8.82,0,0,0,1.08,4.35,7.23,7.23,0,0,0,.4.66c2.43,3.56,7.51,5.47,13.2,6.87a111.94,111.94,0,0,0,25.55,3,115.08,115.08,0,0,0,25.85-3c8.11-1.94,15.06-4.88,15.06-11.88C149.78,32.78,144.05,29.75,140.32,29.75Z"/><path class="cls-25" d="M68.83,93.79c-8.68,2.4-28.38,8.39-39.14,32.19-8.64,19.13-8.87,38.88,7.79,40.46,6,.56,10.36-5.69,13.37-10.92L80.45,114a32,32,0,0,0,2-4.21c3.32-8.53-3.75-17.85-12.76-16.19C69.43,93.64,69.12,93.71,68.83,93.79Z"/><path class="cls-26" d="M64.77,98.16A46.26,46.26,0,0,0,37.3,117.62c-10,14.81-7.15,33.36,3.5,34.73,1.65.21,4.23-3.94,6.81-9,6-11.8,21.56-36.37,21.56-36.37,2.56-4.13,4.35-5.15.66-8.31A7,7,0,0,0,64.77,98.16Z"/><path class="cls-27" d="M58.88,105.76a26.51,26.51,0,0,0-16.44,10c-6.29,8-5.37,18.75.65,19.94.93.19,2.57-2.07,4.24-4.86C51.22,124.38,61,111,61,111c1.63-2.26,2.69-2.76.71-4.72A4,4,0,0,0,58.88,105.76Z"/><path class="cls-28" d="M28.27,171.76a7.85,7.85,0,0,0-7.81,8.63c1.16,11.7,5,32.61,17.67,45.6,10.53,10.8,15.93,17,22.39,17.45,4.36.29,13-5,15.83-8.32,1.73-2.07-18.34-12.8-26.55-33.35a161.3,161.3,0,0,1-7.64-23.41,8.52,8.52,0,0,0-8.31-6.6Z"/><path class="cls-29" d="M140.62,250.24c-.62,0-.93-1-.32-1.12,8.13-1.62,22-9.53,31.12-23.26,10.82-16.23,15.64-60.58,10.82-87.91-4.06-23,23.8,4.21,20.29,44.63C199.82,213.69,177.78,249.8,140.62,250.24Z"/><path class="cls-30" d="M172.77,232.62c-2.07,1.16,9.35-16.24,14.88-37.87,4.43-17.31,3.61-38.31,0-47.33-8.11-20.29,2.45-15.83,6.63,4.93S194.41,220.45,172.77,232.62Z"/><path class="cls-31" d="M29.11,184.1A5.1,5.1,0,0,0,24,189.7c.76,7.58,3.25,21.15,11.47,29.57,6.83,7,10.32,11,14.52,11.32,2.83.19,8.45-3.22,10.26-5.4,1.12-1.34-11.89-8.3-17.22-21.63a104.31,104.31,0,0,1-5-15.18,5.52,5.52,0,0,0-5.39-4.28Z"/><path class="cls-32" d="M30.68,194.75a2.85,2.85,0,0,0-2.83,3.13c.42,4.25,1.82,11.84,6.41,16.55,3.82,3.92,5.78,6.18,8.13,6.34,1.58.1,4.73-1.8,5.74-3,.63-.75-6.65-4.65-9.63-12.11a57.81,57.81,0,0,1-2.77-8.49,3.1,3.1,0,0,0-3-2.4Z"/><ellipse class="cls-33" cx="108.87" cy="10.16" rx="36.85" ry="10.16"/><path class="cls-34" d="M86.89,10.16c0-4.91,12.63-9,29.42-9.95-2.4-.14-4.89-.21-7.44-.21C88.52,0,72,4.55,72,10.16s16.5,10.15,36.85,10.15c2.55,0,5-.07,7.44-.21C99.52,19.16,86.89,15.06,86.89,10.16Z"/><path class="cls-35" d="M131.48,13c-3.26,0-5.9-1.46-5.88-3.19s2.68-3.09,6-3.06,5.9,1.46,5.88,3.18S134.75,13.05,131.48,13Z"/><path class="cls-36" d="M104.45,12.53c-1.85,0-3.33-1.1-3.32-2.42s1.52-2.38,3.37-2.36,3.34,1.11,3.32,2.43S106.3,12.55,104.45,12.53Z"/><path class="cls-37" d="M88.68,29.18C86.51,30.56,84,30.42,83,28.87s0-3.92,2.14-5.3,4.73-1.24,5.71.31S90.85,27.8,88.68,29.18Z"/><path class="cls-38" d="M110.22,19C89.87,19,73.37,14.41,73.37,8.8a3.38,3.38,0,0,1,.73-2A4.49,4.49,0,0,0,72,10.16c0,5.6,16.5,10.15,36.85,10.15,17.86,0,32.74-3.5,36.13-8.14C140,16.12,126.3,19,110.22,19Z"/><path class="cls-39" d="M108.87,0c-1.6,0-3.18,0-4.73.09,18.11.64,36.18,4.9,36.18,10.07s-18.07,9.42-36.18,10.07c1.55.05,3.13.08,4.73.08,20.36,0,36.86-4.55,36.86-10.15S129.23,0,108.87,0Z"/><path class="cls-40" d="M88.92,41.93c13.77,2.75,26.58-.1,26.38,1.35s-6.65,3-16.91,2.7c-20.29-.51-25.7-9.46-27-13.52C70.74,30.64,82.16,40.57,88.92,41.93Z"/><path class="cls-3" d="M149.78,36.52c0,7-6.95,9.94-15.06,11.88a115.08,115.08,0,0,1-25.85,3,111.94,111.94,0,0,1-25.55-3c-5.69-1.4-10.77-3.31-13.2-6.87C71.34,43.28,79,45.28,80.81,46c21.64,8.12,46,2.71,55.45-1.35,4.79-2.06,6.76-8.11,1.49-12.13,1.44-1.52,1.69-2.75,2.57-2.75C144.05,29.75,149.78,32.78,149.78,36.52Z"/><path class="cls-41" d="M69.72,40.87a8.82,8.82,0,0,1-1.08-4.35c0-3.52,3.88-6.4,7.45-6.73,1.55,2.74,6.14,8.73,17.23,10.78,14.54,2.71,29.41-1.35,32.12,1.36,1.4,1.39-8.45,5.92-18.94,6.76A64.42,64.42,0,0,1,69.72,40.87Z"/></g></g></g></svg>