<?xml version="1.0" encoding="UTF-8"?><svg xmlns="http://www.w3.org/2000/svg" viewBox="0 0 31.83 88.75"><defs><style>.d{fill:#f79616;}.e,.f{fill:#e07d10;}.g,.f{mix-blend-mode:multiply;}.g,.h,.i{fill:#f9e55f;}.j{isolation:isolate;}.k{fill:#e27e05;}.l{fill:#f4b606;}.h{opacity:.5;}.m{fill:#c95405;}.n{fill:#991616;}</style></defs><g class="j"><g id="a"/><g id="b"><g id="c"><g><g><rect class="d" x="13.03" y="25.98" width="5.69" height="4.86"/><path class="f" d="M26.47,86.55c0,1.22-4.72,2.21-10.55,2.21s-10.55-.99-10.55-2.21,4.72-4.05,10.55-4.05,10.55,2.83,10.55,4.05Z"/><rect class="e" x="11.54" y="80.82" width="8.56" height="4.81"/><path class="i" d="M31.83,57.71c0,11.38-8.38,24.81-16.1,24.81S0,68.66,0,57.28s8.01-11.22,15.73-11.22,16.1,.27,16.1,11.65Z"/><path class="i" d="M21.91,45.85c0,1.18-2.68,2.14-5.99,2.14s-5.99-.96-5.99-2.14,2.68-2.15,5.99-2.15,5.99,.96,5.99,2.15Z"/><path class="n" d="M19.4,41.84v-9.99h2.11c.37,0,.68-.31,.68-.69s-.3-.69-.68-.69H10.16c-.37,0-.68,.31-.68,.69s.3,.69,.68,.69h2.04v10.04c-1.78,.35-2.94,.94-2.94,1.61,0,1.07,2.71,1.17,6.39,1.17s6.93-.1,6.93-1.17c0-.7-1.27-1.31-3.18-1.65Z"/><path class="g" d="M18.33,44.37c.38,2.06,.24,2.75-.33,4.61,2.13,1.22,1.69,5.14,1.57,7.04-.19,3.17-1.05,6.83-3.82,9.05-3.69,2.96-11.06,1.72-13.75-2,0,.01-.05,.07-.07,.06,.57,.96,.77,2.3,1.1,3.39,.47,1.53,1.12,2.99,1.88,4.42,1.32,2.49,2.43,5,4.33,7.16,1.54,1.76,2.99,3.49,5.66,3.5,3.02,.01,5.26-1.55,7.05-3.76,3.95-4.89,6.28-10.56,7.23-16.48,.68-4.23,.76-8.81-2.01-12.37-1.6-2.05-3.39-1.92-5.84-2.31,0-.08,.05-.02,.04-.03-.57-1.54-2.51-2.72-2.57-.19l-.47-2.1Z"/><path class="g" d="M12.32,44.58c-.51,.92-.97,1.86-1.39,2.81,.02,.1-.09,.42-.14,.61,0,0,0-.01,0,0-1.98-1.21-4.35,4.74-4.69,5.73-.71,2.08-1.01,4.2-1.14,6.33-.13,2.2-.54,4.11,.29,6.22,1.51,3.83,6.12,5.57,10.37,5.01,4.55-.61,9.58-5.71,10.38-9.7,.71-3.56,1.01-9.46-1.98-12.39-1.35-1.32-3.05,.51-4.25-1.57-1.25-2.18,1.22-2.83,1.53-.23,2.62,.39,5.18,.54,6.64,2.9,2.08,3.37,1.81,7.25,1,10.95-.83,3.83-2.11,7.43-4,10.95-.96,1.79-2.33,3.46-3.57,5.09-.88,1.16-2,2.72-3.38,3.45-4.57,2.4-10.09-3.04-12.29-6.1-3.04-4.21-4.93-9.38-4.92-14.4,0-3.61,.18-6.54,2.51-9.64,.78-1.04,2-2.06,3.26-2.55,.66-.26,1.52-.53,2.25-.61,.56-.06,1.06,.12,1.54,.03h-.01c.1-.25,.38-.25,.48-.37l1.53-2.52Z"/><path class="f" d="M17.74,82.01c0,.11,.1,1.26,.19,1.52-.04,.24-.05,.5-.07,.75,.02-.02,.04-.05,.07-.07h0c0-.05,0-.34,0-.42,.07-.05,.06-.11,.06-.17,.37,.49,1.05,.7,1.25,1.32-.42,2.24-6.7,2.16-8.45,2.31,3.51,.87,8.24,.9,12.05,.42,5.5-.69-1.56-3.75-3.08-4.58,0,0,0,.01,0,.02-.24-.51-.41-1.09-.72-1.59,0,0,.02,0,.01,0-.76,.66-1.58,1.37-.95,2.27l-.35-1.79Z"/><path class="f" d="M12.2,81.48c0,.74,.03,1.43-.12,2.06-.1,0-.03-.02-.06,.02-.67,0-1.42,.59-2.09,.86-.84,.35-2.15,.51-2.8,1.16-1.55,1.54,2.97,1.89,4.1,2.13,3.67,.76,8.4,1.2,11.93-.36,3.77-1.67-2.31-2.83-3.1-3.64-.6-.62-.09-1.58-1.11-1.78-.83-.16-2.36,.58-3.1,.55,2.29,.85,.11,3.22-1.64,2.97-2.56-.35-.1-2.29-.76-3.13-.68,.1-1.23,.48-1.48,1.06l.24-1.89Z"/><path class="e" d="M.77,57.3c1.05-2.04,2.9-6.14,6.15-5.99,3.87,.18,1.63,3.93,.65,5.57-1.6,2.69-3.79,7.43-1,10,3.7,3.4,9.5,1.03,10.85-3.09,.57-1.75,.43-3.73-.8-5.21-1.18-1.41-3.5-2.18-3.83-4.09-.54-3.1,5.44-4.16,6.13-1.5,.24,.92-.97,1.83-.3,2.74,.81,1.1,1.53-.34,2.57-.42,5.28-.38,1.82,5.92,.48,7.57-1.08,1.32-2.6,2.8-3.07,4.41-.51,1.72,.37,3.83,2.46,4.19,4.54,.78,6.61-4.55,6.77-7.73,.07-1.38,.17-2.85-.05-4.22-.21-1.32-.95-2.52-1.22-3.82-.32-1.51,1.5-4.08,3.4-2.91-.81,.73-1.81,1-1.96,2.1-.15,1.13,.78,2.39,1.06,3.5,.64,2.51,.45,5.51-.48,7.97-.89,2.34-2.45,4.45-4.8,5.8-2.28,1.31-5.21,.68-5.93-1.8-.84-2.86,.88-4.95,2.12-7.37,.56-1.09,2.27-5.39,.47-6.05-.93,.15-1.59,1.33-2.51,.48-.71-.66-.21-2.05-.91-2.84-.55-.62-1.64-1.11-2.27-.43-.84,.91,.4,2.24,1.09,2.85,3.35,2.99,4.52,8.47-.23,11.17-3.34,1.9-9.79,1.39-10.88-2.53-.74-2.64,.69-5.19,1.68-7.62,.42-1.03,2.04-4.98-.12-5.13-1.38-.1-2.19,1.54-2.6,2.42-.87,1.86-1.4,1.02-1.41-.42l-1.53,2.42Z"/><path class="f" d="M17.27,30.92c-.24,2.97-.27,7.66-2.12,10.18-.07,.09-.47,0-.53,.12-.12,.26,.15,.38,.08,.63-.19,.7,.53,.51-.52,1.03-.92,.45-2.19,.14-3.12,.68,.92,.49,2.14,.29,3.15,.31,.97,.02,1.96,.25,2.94,.29,1.41,.06,3.81,.31,4.78-.73-.34-1.3-2.73-.83-3.25-2-.53-1.19-.24-3.18-.23-4.52,.01-1.32,.04-2.78,.36-4.1,.11-.47,.04-1,.58-1.27,.63-.31,1.54,.2,2.22-.22-.09-1.11-2.15-.85-2.9-.48-1.26,.61-1.81,1.67-1.68,2.92l.24-2.84Z"/><path class="d" d="M15.38,7.06c-.03,3.28-.7,6.45-2.07,9.52-.73,1.64-2.23,2.83-2.81,4.55-.49,1.45-.38,2.78,.84,3.92,1.22,1.14,2.81,1.5,4.5,1.67,4.48,.45,5.25-3.37,4.49-6.56-.45-1.9-1.4-3.69-1.99-5.54-.56-1.76-.99-3.44-1.19-5.25-.06-.5-.05-1.83-.93-1.56-.55,.16-.95,1.17-.78,1.57l-.06-2.31Z"/><path class="l" d="M16.09,5.59c-.34,.57-.67,1.15-1,1.73-.05,.48-.4,1.29-.54,1.87-.22,.99-.44,2-.77,2.96-.62,1.84-1.51,3.42-2.53,5.09-.76,1.25-2.42,1.6-3.11,2.84-.77,1.38-.54,3.07,.51,4.28,1.32,1.53,3.73,1.46,5.65,1.88-.25-.51-1.3-.71-1.73-1.16-.76-.77-1.02-1.9-.72-2.89,.28-.93,1.02-1.59,1.54-2.42,.5-.8,.84-1.7,.96-2.61,.24-1.89,1-3.67,1.28-5.54,.12-.78,.05-1.58,.28-2.35,.15-.49,.52-.87,.62-1.38,.05-.28,.11-1.2-.25-1.37-.51-.23-1.05,.56-1,.95l.83-1.89Z"/><path class="k" d="M16.15,5.53c-.21,.35-.4,.7-.57,1.07,.02,.4-.1,.9-.03,1.36,.11,.83,.38,1.67,.61,2.48,.52,1.87,.33,3.99-.4,5.8-.6,1.51-2.03,2.21-3.2,3.31-.92,.87-1.51,2.1-1.43,3.3,.04,.6,.14,1.33,.6,1.79,.51,.51,1.31,.69,1.94,1.01-.71-1.19-2.12-2.25-1.35-3.8,.29-.59,.98-.99,1.47-1.46,.55-.52,1.04-1.07,1.41-1.71,.63-1.05,.93-2.16,1.24-3.29,.2-.75,.6-1.59,.62-2.36-.28,1.08,.87,2.26,1.34,3.17,.66,1.28,.94,2.59,1.15,3.97,.16,1.05,.22,2.28-.07,3.32-.25,.88-.85,1.53-1.26,2.32,1.1,.69,2.96-.16,3.65-1.01,.8-1,1.33-2.21,1.48-3.42,.22-1.88-.09-3.86-1.09-5.56-.83-1.41-2.06-2.59-2.93-3.99-.98-1.58-1.3-3.24-1.81-4.94-.1-.34-.32-.99-.74-1.1-.54-.15-.96,.43-.97,.84l.35-1.1Z"/><path class="l" d="M15.8,5.88c.55,.05,1.07,.16,1.58,.33,.31,1.51,.38,3.01,.98,4.48,.67,1.65,1.89,2.98,2.72,4.51,.82,1.49,1.68,3.13,1.48,4.82-.18,1.45-.74,3.65-2.31,4.47-1.58,.83-2.94-.47-3.33-1.81-.03,0-.06,0-.07,.03h.01c-.91,1.6-.5,3.06,1.5,3.74,1.62,.55,3.37-.07,4.5-1.16,2.53-2.43,2.28-6.75,.47-9.5-1.36-2.07-3.35-3.49-4.38-5.74-.75-1.63-.7-3.21-2.1-4.49l-1.06,.32Z"/><path class="k" d="M16.86,22.19c-.67,1.22-1.43,2.46-.54,3.73,.29,.41,.66,.53,.65,1.02,0,.18-.28,.4-.31,.6-.04,.21,.05,.42,.02,.65-.15,1.29-2.38,2.23-3.54,.97,0,0,0,0,0,0-.09,.35-.23,.77-.11,1.12,0-.02,0-.04-.03-.05,.02,.02,.03,.03,.05,.05h0c1.45,.44,4.24,.75,5.67,.16-.32-1.11-.26-2.83,.19-3.9,1.08,.21,1.98-.13,2.82-.76-2.28,.32-4.03-.93-5.75-1.93l.88-1.66Z"/></g><path class="k" d="M16.18,3.63c-1.1,4.2-2.45,8.89-5.59,12.28-.62,.67-1.23,1.55-2.11,1.98-.7,.34-1.5,.35-2.18,.88-1.35,1.06-1.35,3.12-.45,4.42,.74,1.06,2.26,1.8,3.52,2.19,1.31,.41,2.72,.15,4.02,.26-.09,.04,.07,.08,0,.04-3.83,.29-6.98-2.96-4.38-6.05,1.22-1.46,2.7-2.46,3.72-4.08,.99-1.58,1.38-3.11,1.85-4.83,.46-1.68,1.4-3.35,1.33-5.04l.27-2.05Z"/><path class="m" d="M15.91,4.02c.47-.18,.95-.3,1.44-.36,.14,.44,.43,.94,.52,1.46,.13,.73,.04,1.41,.18,2.13,.32,1.67,1.54,3.4,2.65,4.71,1.22,1.44,2.69,2.7,3.79,4.28,1.15,1.66,2.63,3.98,2.56,5.99-.09,2.43-3.51,5.31-6.28,4.14h0s-.04-.02-.06-.04c1.52-1.06,2.97-1.9,3.57-3.71,.53-1.57,.57-3.05,.04-4.59-.97-2.8-3.42-4.87-5.26-7.24-1.15-1.47-1.17-3.09-2.01-4.54,0,0,0,0,0,0-1.12,1.75-.08,3.33,.4,5.09,0-.02,0-.08,0-.09-.02,.02-.03,.04-.04,.06-.47-.99-1.23-1.78-1.5-2.82-.2-.76-.21-1.52-.18-2.29,.04-.9-.08-3.26,1.5-2.64,.16-.03,.03,0,.09,.04l-1.41,.39Z"/><path class="m" d="M15.82,6.86c-.55-2.12,.86,3.14,.74,2.99,.93,1.92,1.28,4.48,1.49,6.54,.19,1.87-.26,3.98-1.15,5.67-.83,1.58-1.98,2.57-4,2.62-.6,.01-1.16,.1-1.66-.25-.3-.22-.55-.6-.64-.93-.04-.14,.08-.98,0-1.04,0-.01,0-.03,0-.04-.22,.54-.03,1.23-.23,1.79h0c-1.85,1.29-2.72-2.58-2.35-3.6,0,0,0,.01,0,0-.42,.34-.93,1.2-1.51,.99-.72-.26-.51-1.58-.62-2.02h0c-1.51,1.23-.46,3.42,.77,4.46,1.36,1.15,3.13,1.58,4.95,1.66,1.59,.06,3.27-.02,4.5-.89,1.42-1,2.24-2.35,2.67-3.92,.56-2.03,.36-4.3-.06-6.33-.24-1.14-.52-2.29-1.01-3.37-.4-.88-1.19-1.75-1.39-2.65,0,0-.05-.02-.05-.04,.02,.02,.04,.03,.05,.05,0,0-.05-.05-.05-.05-.03,.02-.04,.04-.03,.07,.06,0,.08-.06,.07-.06l-.53-1.66Z"/><path class="m" d="M19.17,2.21c0,1.22-1.17,2.21-2.6,2.21s-2.6-.99-2.6-2.21,1.17-2.21,2.6-2.21,2.6,.99,2.6,2.21Z"/><path class="h" d="M13.44,25.62c-.12-1.2,.18,1.97,.18,1.92,.15,.64,.1,1.43,.09,2.1,0,.25,.07,.62-.07,.83-.15,.22-.7,.2-.82,.51-.2,.5,.32,.33,.36,.69,.06,.42-.13,.34-.36,.75-.5,.87-.1,1.31-.02,2.27,.12,1.38-.09,2.77,.02,4.1,.1,1.23,.13,2.5-.04,3.71-.6-.05-3.02,.64-1.9,1.24,.67,.36,1.17-.35,1.68-.61,.56-.29,1.22-.22,1.76-.49-.74-1.74-.3-3.96-.34-5.8-.02-.81-.04-1.59-.09-2.39-.07-1.23,.15-1.39,1.07-2.21,.85-.76,.13-.73-.21-1.54-.25-.6,.33-1.08,.27-1.74-.03-.32-.26-.67-.16-1.04,.11-.44,.65-.7,.63-1.19-.03-.76-1.02-.91-1.53-.33-.3,.34-.39,1.16-.24,1.52l-.26-2.29Z"/></g></g></g></g></svg>