<?xml version="1.0" encoding="UTF-8"?><svg xmlns="http://www.w3.org/2000/svg" xmlns:xlink="http://www.w3.org/1999/xlink" viewBox="0 0 64.78 143.97"><defs><style>.aq{fill:url(#t);}.ar{fill:url(#ap);}.as{fill:url(#r);}.at{fill:url(#ai);}.au{fill:url(#y);}.av{fill:url(#l);}.aw{fill:url(#af);}.ax{fill:url(#u);}.ay{fill:url(#ah);}.b`{isolation:isolate;}.ba{fill:url(#v);}.bb{fill:url(#a`);}.bc{fill:url(#m);}.bd{fill:url(#ao);}.be{fill:url(#f);}.bf{fill:url(#ae);}.bg{fill:url(#p);}.bh{fill:url(#g);}.bi{fill:url(#ad);}.bj{fill:url(#ab);}.bk{fill:url(#ak);}.bl{fill:url(#i);}.bm{fill:url(#aj);}.bn{fill:url(#h);}.bo{fill:url(#e);}.bp{fill:url(#am);}.bq{fill:url(#x);}.br{fill:url(#aa);}.bs{fill:url(#s);}.bt{fill:url(#n);}.bu{fill:url(#ac);}.bv{fill:url(#w);}.bw{fill:url(#al);}.bx{fill:url(#j);}.by{fill:url(#o);}.c`{fill:url(#an);}.ca{fill:url(#d);}.ca,.cb{mix-blend-mode:multiply;}.cc{fill:url(#q);}.cd{fill:url(#ag);}.ce{fill:url(#k);}</style><linearGradient id="d" x1="54.88" y1="131.47" x2="61.36" y2="131.47" gradientTransform="matrix(1, 0, 0, 1, 0, 0)" gradientUnits="userSpaceOnUse"><stop offset="0" stop-color="#3d2447"/><stop offset="1" stop-color="#2e3351"/></linearGradient><linearGradient id="e" x1="18.49" y1="116.67" x2="19.21" y2="116.67" xlink:href="#d"/><linearGradient id="f" x1="3.75" y1="129.6" x2="25.18" y2="129.6" xlink:href="#d"/><linearGradient id="g" x1="40.67" y1="124.28" x2="50.9" y2="124.28" xlink:href="#d"/><linearGradient id="h" x1="40.37" y1="128.69" x2="51.25" y2="128.69" xlink:href="#d"/><linearGradient id="i" x1="11.21" y1="85.23" x2="11.23" y2="85.23" xlink:href="#d"/><linearGradient id="j" x1="12.73" y1="93.75" x2="26.34" y2="93.75" xlink:href="#d"/><linearGradient id="k" x1=".22" y1="105.67" x2="6.83" y2="105.67" xlink:href="#d"/><linearGradient id="l" x1=".22" y1="82.13" x2="6.83" y2="82.13" xlink:href="#d"/><linearGradient id="m" x1="1.82" y1="87.34" x2="5.32" y2="87.34" xlink:href="#d"/><linearGradient id="n" x1="1.93" y1="90.87" x2="4.08" y2="90.87" xlink:href="#d"/><linearGradient id="o" x1="3.33" y1="90.87" x2="5.26" y2="90.87" xlink:href="#d"/><linearGradient id="p" x1="9.44" y1="95.42" x2="9.45" y2="95.42" xlink:href="#d"/><linearGradient id="q" x1="9.46" y1="90.99" x2="9.47" y2="90.99" xlink:href="#d"/><linearGradient id="r" x1="1.6" y1="97.4" x2="5.52" y2="97.4" xlink:href="#d"/><linearGradient id="s" x1="1.85" y1="50.85" x2="6.07" y2="50.85" xlink:href="#d"/><linearGradient id="t" x1="8.98" y1="50.78" x2="11.37" y2="50.78" xlink:href="#d"/><linearGradient id="u" x1=".51" y1="59.48" x2="29.08" y2="59.48" xlink:href="#d"/><linearGradient id="v" x1="24.14" y1="52.51" x2="24.55" y2="52.51" xlink:href="#d"/><linearGradient id="w" x1="38.89" y1="93.75" x2="47.24" y2="93.75" xlink:href="#d"/><linearGradient id="x" x1="54.3" y1="82.93" x2="56.34" y2="82.93" xlink:href="#d"/><linearGradient id="y" x1="49.53" y1="93.75" x2="63.42" y2="93.75" xlink:href="#d"/><linearGradient id="a`" x1="39.29" y1="51.84" x2="44.45" y2="51.84" xlink:href="#d"/><linearGradient id="aa" x1="45.4" y1="51.84" x2="50.39" y2="51.84" xlink:href="#d"/><linearGradient id="ab" x1="52.63" y1="51.84" x2="63.92" y2="51.84" xlink:href="#d"/><linearGradient id="ac" x1="58.57" y1="42.83" x2="59.69" y2="42.83" xlink:href="#d"/><linearGradient id="ad" x1="58.86" y1="42.61" x2="59.69" y2="42.61" xlink:href="#d"/><linearGradient id="ae" x1="47.69" y1="15.35" x2="50.64" y2="15.35" xlink:href="#d"/><linearGradient id="af" x1="39.41" y1="12.26" x2="45.36" y2="12.26" xlink:href="#d"/><linearGradient id="ag" x1="40.72" y1="18.59" x2="44.18" y2="18.59" xlink:href="#d"/><linearGradient id="ah" x1="61.03" y1="1.87" x2="61.77" y2="1.87" xlink:href="#d"/><linearGradient id="ai" x1="53.22" y1="15.09" x2="64.78" y2="15.09" xlink:href="#d"/><linearGradient id="aj" x1="59.42" y1="5.47" x2="60.54" y2="5.47" xlink:href="#d"/><linearGradient id="ak" x1="59.71" y1="5.25" x2="60.55" y2="5.25" xlink:href="#d"/><linearGradient id="al" x1="15.23" y1="5.42" x2="16.34" y2="5.42" xlink:href="#d"/><linearGradient id="am" x1="15.51" y1="5.2" x2="16.35" y2="5.2" xlink:href="#d"/><linearGradient id="an" x1=".3" y1="20.03" x2="5.21" y2="20.03" xlink:href="#d"/><linearGradient id="ao" x1=".71" y1="13.92" x2="4.79" y2="13.92" xlink:href="#d"/><linearGradient id="ap" x1="11" y1="15.75" x2="18.39" y2="15.75" xlink:href="#d"/></defs><g class="b`"><g id="a"/><g id="b"><g id="c"><g><path class="ca" d="M61.25,131.93c-.65-.3-1.35-.29-2.05-.21,.35-1.3,1.05-2.39,1.36-3.74,.31-1.34,.22-3.14-1.29-3.64-1.33-.44-2.63,.53-3.18,1.7-.94,1.98,.14,4.24,1.53,5.69,.27,.28,.64-.07,.5-.39-.23-.52-.57-1.03-.78-1.56-.2-.73-.4-1.47-.6-2.2-.83-2.52,3.97-3.05,2.89,.14-.2,.78-1.26,3.03-1.39,3.55-.05,.2-.08,.4-.12,.6-1.1,.15-2.24,.33-3.18,.95-.06,.04-.07,.17,.02,.18,1.01,.15,2.02-.03,3.03-.14-.15,1.79,.07,3.7,.08,5.43,0,.58,.9,.59,.91,0,.01-1.81-.09-3.66,.03-5.47,0-.01,0-.02,0-.03,.77-.03,1.57-.07,2.24-.43,.15-.08,.16-.34,0-.41Z"/><g class="cb"><path class="bo" d="M19,117.06c.18-.07,.26-.3,.18-.51-.08-.21-.29-.33-.47-.26s-.26,.3-.18,.51c.08,.21,.29,.33,.47,.26Z"/><path class="be" d="M24.9,137.6c-.19-.76-.62-1.48-1.35-1.81-.16-.08-.31-.13-.49-.18-.11-.5-.55-1.09-1.01-1.32-.45-.22-1.1-.11-1.57,0-.3,.08-.6,.2-.88,.36-.09,.04-.2,.1-.29,.17-.02-.04-.03-.09-.06-.13-.26-.63-.38-1.32-.53-1.99-.16-.66-.32-1.31-.4-1.98-.08-.76-.01-1.51,.03-2.27,.09-1.32,.41-2.59,1.12-3.74,.09-.14,.02-.22-.11-.26,.18-.27,.33-.53,.47-.81,.56-1.11,.82-2.37,.76-3.62,.24-.16,.26-.38,.24-.67-.02-.48-.11-1,.03-1.47,.04-.14,.11-.3,.21-.4,.19-.18,.61-.28,.83-.1,.16,.13,.28,.3,.4,.47,.08,.12,.5,0,.46-.16-.55-1.76-2.26-2.61-4.01-2.43-.78,.08-1.59,.35-2.15,.9-.65,.63-.76,1.54-.95,2.37-.11,.48-.21,1.06-.67,1.31-.38,.2-.72,.38-1.07,.65-.77,.6-1.43,1.32-2.02,2.12-1.24,1.65-2.14,3.54-3.07,5.37-1.14,2.22-2.26,4.46-3.92,6.33-.01,.02-.02,.03-.02,.04h-.01c-.14,.17,.13,.24,.24,.24,.23-.01,.48-.09,.63-.26,.27-.28,.53-.55,.8-.82-.18,.37-.29,.77-.22,1.18,.06,.4,.29,.77,.62,.98,0,0-.01,.01-.02,.01-.92,.35-1.51,1.15-2.04,1.93-.58,.88-.81,1.86-.98,2.88-.18,1.09-.22,2.2-.17,3.32,.01,.33,.97,.13,.95-.26-.04-.96,0-1.91,.13-2.86,.12-.88,.27-1.84,.7-2.62,.27-.49,.65-1.15,1.12-1.57,.78,1.04,1.79,1.79,2.94,2.3-.07,.04-.1,.1-.11,.16-.01,.06-.02,.11-.04,.16-.01,.02-.01,.03-.02,.06,0,0-.02,.04-.03,.06-.06,.1-.12,.19-.19,.28-.14,.19-.3,.37-.41,.59-.06,.12-.09,.24-.1,.37-.01,.13-.03,.32,.02,.46,.09,.18,.28,.22,.46,.22,.27,0,.57-.1,.75-.3,.13-.14,.17-.3,.16-.49-.01-.18-.02-.35-.03-.52-.01-.04-.07-.08-.11-.1,.06-.08,.12-.16,.18-.23,.1-.12,.18-.26,.24-.39,.37,.12,.75,.22,1.12,.31,0,.01-.01,.01-.01,.02-.04,.2-.07,.3-.13,.49-.06,.19-.11,.38-.16,.58-.09,.38-.12,.77-.04,1.15,.06,.23,.39,.27,.57,.21,.2-.06,.45-.22,.39-.47-.04-.18-.04-.27-.03-.47,.01-.18,.04-.36,.09-.53,.01-.01,.02-.09,.02-.09l.03-.1c.03-.09,.06-.17,.08-.26,.03-.12,.08-.26,.11-.38,.38,.04,.77,.08,1.15,.09h0c.12,.73,.13,1.45,.02,2.18-.03,.23,.26,.33,.45,.32,.21-.02,.49-.16,.52-.39,.1-.7,.09-1.43,0-2.13,.33-.01,.68-.04,1-.09h0c.06,.21,.11,.42,.16,.62,.04,.17,.12,.37,.1,.51h0s-.01,.04-.02,.07c-.01,.03-.03,.08-.06,.11-.04,.1-.08,.2-.11,.3-.04,.19-.09,.42,.04,.59,.16,.19,.47,.22,.7,.22,.28-.01,.6-.16,.73-.42,.2-.38-.09-.77-.32-1.06,0-.09-.01-.18-.03-.27-.08-.29-.14-.58-.22-.87,.28-.07,.56-.16,.84-.24h0s.06,.03,.09,.04l.09,.09c.06,.08,.11,.14,.16,.22,.03,.04,.06,.08,.08,.12,0,.01,.01,.02,.02,.04,0,0,0,.01,.01,.01,.03,.09,.07,.18,.1,.27,.06,.17,.1,.33,.13,.51,.02,.1,.03,.19,.04,.29,0,.03,0,.08,.01,.12v.1c0,.1,.02,.17,.11,.22,.09,.06,.22,.07,.32,.06,.12-.01,.26-.04,.36-.12,.07-.06,.18-.14,.17-.24-.01-.48-.08-.96-.28-1.39-.09-.22-.21-.45-.38-.62-.02-.03-.04-.07-.08-.09,.12-.06,.23-.11,.36-.17,.17-.08,.32-.16,.49-.24h.01s.02,.01,.03,.02c.01,0,.04,.02,.06,.03l.07,.07c.09,.08,.16,.18,.23,.28,.16,.19,.3,.4,.43,.61,.08,.12,.14,.26,.21,.39,.09,.18,.38,.13,.53,.09,.11-.03,.23-.08,.32-.16,.04-.04,.12-.12,.09-.19-.17-.33-.37-.66-.59-.97-.18-.23-.38-.52-.67-.63,.7-.48,1.31-1.08,1.75-1.84,.96,.04,1.75,.35,2.15,1.28,.4,.92,.38,2.03,.42,3.02,.04,1.11,.03,2.23-.02,3.34-.01,.41,.95,.23,.96-.11,.04-1,.06-2,.03-3.01-.03-.98-.02-2.03-.27-2.97Zm-6.3-2.23s-.01,.04-.02,.07c0,.02,.01,.02,.01,.04h-.36c-.91,0-1.83,.01-2.74,.01,.02-.04,.02-.08,.02-.12-.04-.61-.06-1.21-.03-1.83,.24-.07,.5-.19,.55-.24,.49-.58,.98-1.16,1.47-1.74,.04,.31,.1,.61,.17,.91,.16,.68,.29,1.36,.49,2.02,.11,.35,.21,.69,.45,.88Zm-4.06-.3c-.58-.38-1.26-.61-1.95-.57-.75,.04-1.47,.41-1.9,1.02-.53,.01-1.08,.02-1.63,.01,.2-.12,.39-.28,.56-.45,.7-.73,1-1.71,1.32-2.66,.29-.85,.68-1.95,1.51-2.43-.1,1.32-.08,2.65-.03,3.97,0,.19,.82-.1,.9-.18,.46-.45,.89-.9,1.31-1.37-.11,.87-.14,1.76-.1,2.64Zm-1.18-2.09c-.03-1.19-.04-2.38,.07-3.57,0-.02-.07-.03-.16-.03,.48-.26,.96-.5,1.45-.75,.45-.23,.85-.49,1.25-.77-.06,.11-.11,.22-.17,.33-.47,1.04-.79,2.13-1,3.24-.07,.03-.11,.07-.13,.09-.42,.5-.86,.98-1.3,1.46Zm4.04-2.19s-.07,.03-.09,.07c-.48,.56-.95,1.12-1.42,1.69-.07-.29-.13-.58-.19-.87,.08-.49,.19-.98,.32-1.46,.22-.79,.5-1.6,.89-2.34,.19-.35,.43-.63,.71-.91-.3,1.24-.36,2.54-.22,3.82Zm-6.11-6.54c.91-1.56,2.13-3.35,3.81-4.16,.27-.13,.52-.27,.68-.53,.22-.36,.31-.8,.4-1.21,.19-.87,.33-1.8,1.11-2.35,.83-.57,1.99-.6,2.94-.33,.3,.09,.58,.23,.85,.42,.08,.11,.14,.21,.19,.31,.09,.23,.07,.42,.01,.58-.32,.11-.6,.37-.77,.67-.26,.5-.18,1.07-.16,1.6,.01,.14,.08,.4,0,.52-.01,.03-.04,.04-.07,.07-.36,0-.72,.03-1.08,.09-.16-.02-.32-.06-.48-.1-.46-.11-.94-.38-1.41-.18-.27,.11-.55,.46-.36,.75,.21,.32,.75,.13,1.04,.07,.37-.09,.72-.17,1.09-.23,.17,.01,.35,.02,.51,.02,.17-.01,.36-.02,.53-.07,.07,1.57-.45,3.02-1.26,4.29-.12,.03-.23,.1-.28,.18-.16,.24-.28,.49-.4,.75-.09,.11-.18,.22-.28,.32-.19,.12-.35,.3-.51,.46-.22,.21-.45,.41-.66,.62-.12,.12-.23,.26-.33,.39l-.47,.37c-.68,.53-1.47,.9-2.24,1.29-.69,.35-1.38,.7-2.07,1.05-1.46,.73-2.94,1.45-4.48,2,1.54-2.44,2.66-5.15,4.13-7.64Zm7.17-4.15c-.22,.06-.46,.11-.68,.13-.14,.01-.35,.09-.39-.11-.04-.18,.08-.19,.22-.21,.27-.03,.5,.09,.77,.17,.02,.01,.06,.01,.08,.02Zm-11.09,14.46l-.04-.04c-.06-.29-.03-.58,.07-.87,.31-.85,.97-1.7,1.77-2.14,.09-.06,.21-.13,.17-.21,.21-.09,.41-.19,.62-.28-.16,.21-.13,.52-.18,.78-.11,.61-.3,1.22-.55,1.8-.21,.49-.47,1.08-.91,1.41-.33,.24-.79-.16-.95-.46Zm10.62,3.53c-1.22,.57-2.45,.81-3.8,.83-2.49,.03-5.08-.79-6.62-2.83,.1,0,.21,.01,.32,.01,1.21,.02,2.44-.01,3.65-.02,3.03-.01,6.06-.02,9.08-.04-.6,.97-1.61,1.58-2.64,2.05Z"/></g><g><path class="bh" d="M40.9,125.11c.45,0,.9,.02,1.35,.03,.38,0,.79,.05,1.17-.06,.33-.1,.59-.32,.88-.5,.37-.23,.78-.42,1.2-.54,1.64-.47,3.39-.01,4.67,1.09,.21,.18,.92-.11,.7-.3-1.25-1.07-2.89-1.58-4.53-1.38-.8,.1-1.57,.35-2.27,.74-.19,.11-.37,.22-.54,.35-.23,.16-.46,.17-.74,.16l-1.6-.03c-.15,0-.43,.05-.5,.21-.06,.16,.05,.24,.21,.24Z"/><path class="bn" d="M51.13,126.54c-1.51-.87-3.2-1.71-4.98-1.2-.4,.12-.8,.29-1.17,.49-.35,.2-.7,.52-1.09,.61-.45,.1-.99,.06-1.46,.08-.51,.02-1.04,.04-1.55,.07-.58,.03-.77,.8-.09,.77,.86-.04,1.7-.08,2.55-.12,.02,.03,.06,.07,.1,.1,.61,.41,1.24,.79,1.88,1.14,.14,.08,.28,.16,.42,.22-.43,.86-.98,1.76-1.91,2.12-.14,.07-.38,.12-.6,.13,.19-.12,.33-.3,.38-.52,.07-.4-.3-.68-.66-.72-.47-.07-.95,.16-1.19,.56-.2,.32-.19,.76,.1,1.04,.28,.26,.68,.33,1.05,.35,.82,.02,1.65-.28,2.28-.8,.59-.49,1.02-1.12,1.39-1.79,.23,.07,.48,.1,.72,.1-.02,.98,.01,1.96,.1,2.94,.02,.17,.32,.16,.43,.12,.16-.04,.33-.16,.32-.33-.06-.32,.24-.66,.41-.92,.09-.12,.24-.29,.24-.46,.01-.16-.13-.2-.23-.29-.3-.28-.47-.75-.5-1.18,1.12-.32,2.15-1.24,2.98-1.94,.16-.12,.28-.41,.06-.53Zm-2.17,1.15c-.45,.32-.98,.71-1.56,.68-.58-.02-1.15-.41-1.64-.68-.4-.22-.79-.47-1.18-.71,.01-.01,.02-.01,.02-.01,.36-.19,.68-.43,1.04-.61,.32-.17,.65-.28,.98-.33-.18,.19-.31,.43-.33,.71-.07,.66,.41,1.24,1.07,1.3,.67,.07,1.25-.41,1.31-1.07,.02-.28-.04-.52-.18-.75,.52,.19,1.01,.43,1.49,.71-.33,.26-.67,.52-1.02,.76Z"/></g><g><g><path class="bl" d="M11.2,85.23c.06,0,.02,0,0,0h0Z"/><path class="bx" d="M14.37,90.11s-.01,.01-.01,.01t.02-.01h-.01Zm14.29-2.53s.02-.07,.01-.1c-.02-.11-.21-.12-.29-.11-.12,.02-.24,.06-.33,.14-.01,.01-.04,.04-.06,.09-.01,0-.03,.01-.04,.02-.01,0-.06,.02-.07,.03-.01,0-.06,.01-.07,.02l-.13,.03s-.07,.01-.08,.01c-.02,.01-.06,.01-.08,.01h-.19s-.04,0-.06-.01c-.02,0-.06,0-.09-.01-.14-.03-.23-.07-.37-.13-.03-.01-.07-.02-.09-.03,.12,0,.26,.02,.4,.08,.14,.04,.33,.01,.47-.07,.07-.04,.21-.2,.06-.26-.41-.13-.83-.16-1.26-.07-.22,.06-.45,.13-.65,.26-.14,.08-.1,.08-.24,.04-.12-.02-.26-.02-.39-.03-1.12-.1-2.26-.21-3.38-.31-.26-.02-.7,.32-.26,.36,1.04,.1,2.07,.2,3.11,.3,.45,.03,.95,.17,1.36-.04,.18-.09,.33-.17,.49-.21-.02,.01-.06,.03-.08,.04-.09,.07-.2,.19-.06,.27,.45,.23,.95,.27,1.44,.17,.06-.01,.12-.03,.18-.04-.49,.33-1.01,.58-1.65,.38-.36-.11-.71-.24-1.09-.26-.35,0-.69,.06-1.02,.14-.62,.14-1.34,.49-1.98,.27-.36-.11-.65-.38-1-.48-.21-.07-.42-.07-.62-.02-.11-.58-.37-1.12-.57-1.67-.11-.31-.22-.61-.33-.92-.04-.14-.1-.29-.16-.43-.04-.13-.09-.24-.22-.29-.03,0-.06-.01-.09-.01,.02-.03,.04-.08,.07-.11,.24-.43,.47-.87,.73-1.28,.16,.12,.29,.28,.36,.48,.11,.32,.02,.66,.02,.99,0,.77,.23,1.54,.39,2.28,.06,.26,.71,.09,.66-.18-.18-.8-.46-1.65-.38-2.47,.03-.33,.06-.65-.1-.96-.13-.27-.35-.47-.61-.6,.11-.14,.22-.27,.36-.39,.21-.19,.47-.33,.68-.52,.19-.16,.36-.36,.39-.61,.02-.1,0-.19-.04-.24,.08-.04,.16-.09,.23-.12,.11-.07,.26-.12,.31-.23,.02-.04,.02-.1,.03-.13,.01-.06,.01-.11,.02-.16,.02-.11,.03-.22,.06-.32,0-.04-.01-.07-.06-.08-.07-.02-.14-.01-.21,0-.08,.02-.17,.04-.24,.08l-.07,.03s-.06,.04-.07,.08c-.02,.11-.03,.22-.06,.33-.01,.04-.02,.1-.02,.16-.01,.04-.01,.08-.03,.12-.03,.01-.07,.03-.1,.04-.01,.01-.02,.02-.04,.03-.07-.02-.16-.02-.23,0-.13,.02-.3,.16-.27,.31,.02,.08,.08,.11,.14,.13,.02,.1-.23,.33-.28,.37-.17,.13-.36,.26-.52,.4-.37,.3-.66,.68-.91,1.07-.26,.4-.48,.81-.7,1.22-.12,.2-.23,.4-.36,.6-.12,.19-.24,.43-.46,.52-.02,.01-.04,.02-.06,.03-.02-.03-.06-.06-.1-.07-1.86-.58-3.77-.95-5.72-1.1-.12-.01-.29,.02-.38,.13h-.06c-.16-.65-.23-1.31,.28-1.83,.3-.29,.63-.5,.89-.79,.62,0,1.24,.01,1.85,.04,0,.01-.01,.02-.01,.03,.02,.33,.02,.67,.02,1-.42-.09-.85-.18-1.27-.27-.31-.06-.67,.37-.23,.46,.92,.2,1.85,.39,2.77,.58,.23,.04,.48,.1,.71,.14,.19,.04,.4,.11,.6,.1,.43-.01,.52-.35,.76-.63,.11-.12,.23-.23,.36-.33,.08-.01,.14-.03,.21-.08,.04-.03,.09-.08,.11-.13l.2-.13c.38-.22,.77-.43,1.15-.66,.2-.11,.4-.23,.6-.35,.12-.08,.29-.16,.32-.31,.01-.08,0-.12-.02-.17,.01-.01,.03-.02,.03-.04,.24-.45,.21-.96,.31-1.45,.02-.11,.04-.22,.09-.32,.02-.03,.04-.08,.07-.11,.02,.02,.04,.03,.07,.06,.09,.1,.18,.21,.27,.31,.11,.11,.31,.08,.45,.02,.09-.04,.27-.18,.16-.3-.21-.24-.42-.53-.79-.56-.37-.01-.7,.23-.85,.58-.11,.28-.14,.58-.18,.89-.03,.28-.06,.58-.2,.84-.01,.03-.02,.06-.02,.09-.06,.04-.12,.11-.12,.19-.01,.01-.03,.02-.04,.03l-.23,.13-.47,.27s-.03,.01-.04,.02c-.17-.04-.36-.04-.53-.03h-.29s-.06-.03-.08-.04c-.07-.02-.16-.02-.23,0-.16-.03-.3-.09-.45-.18-.13-.09-.17-.23-.21-.38-.04-.14-.11-.28-.21-.4-.18-.21-.41-.35-.68-.41v-.51s.06-.02,.08-.03c.83-.61,1.95-.4,2.59,.37,.03,.04,.09,.07,.14,.07,.06,.16,.09,.31,.1,.47,.01,.19,.67,.07,.66-.17-.08-1.09-1.1-1.68-2.06-1.88-.16-.03-.3-.06-.45-.08-.16-.02-.18-.03-.27-.16-.02-.03-.04-.06-.08-.08-.01-.02-.03-.03-.07-.04-.14-.09-.33-.1-.51-.12-.58-.09-1.18-.1-1.76-.02-1.04,.13-2.05,.48-2.49,1.49-.2,.45-.29,.92-.49,1.37-.22,.49-.62,.78-1,1.15-.79,.78-1.07,1.95-.68,2.99,.04,.12,.32,.1,.5,.02,.02-.01,.04-.01,.08-.02,.01,0,.03-.01,.04-.01h.01s.03-.01,.04-.01h.03s.04-.01,.08-.01h.11c.07,0,.12,0,.19,.01,.04,.01,.1,0,.14-.01,.08-.01,.14-.03,.21-.06,.02-.01,.04-.03,.07-.04,.51,1.56,1.58,2.93,1.77,4.59-.28,.49-.55,.99-.71,1.54-.19,.6-.23,1.21-.26,1.84-.02,.62-.04,1.24-.18,1.85-.12,.62-.3,1.26-.46,1.88-.32,1.28-.66,2.56-.98,3.85-.16,.62-.31,1.25-.38,1.89-.06,.62,.02,1.26,.06,1.88,.1,1.44-.2,2.86-.56,4.24-.03,.13,.07,.19,.19,.2,.41,.17,.83,.18,1.27,.09,.21-.04,.43-.12,.66-.07,.19,.07,.37,.19,.57,.24,.8,.26,1.67,.11,2.37-.32,.12-.07,.17-.22,.04-.31-.08-.06-.18-.06-.28-.03-.77-.21-1.49-.57-2.18-.96-.18-.1-.36-.2-.53-.31-.08-.04-.2-.09-.23-.17-.04-.1,.03-.27,.06-.38,.11-.45,.21-.9,.32-1.36,.42-1.84,.85-3.67,1.27-5.51,.04-.23,.07-.42,.2-.58t.02-.01s.01-.02,.02-.03c.01-.02,.04-.04,.07-.07,.14-.11,.28-.24,.38-.4,.19-.3,.28-.63,.36-.97h.18c.28,0,.57,0,.85-.01h.16s-.02,.04-.02,.07c-.07,.45-.06,.89,.08,1.31,.12,.45,.42,.81,.51,1.26,.1,.47,.04,.97,.06,1.44,.02,.49,.06,.98,.13,1.46,.16,.97,.53,1.84,.9,2.74,.36,.9,.65,1.87,.43,2.85-.03,.11,.09,.14,.23,.14,.45,.07,.85,.17,1.28-.04,.2-.11,.35-.21,.59-.19,.24,.02,.49,.13,.72,.22,.86,.32,1.73,.32,2.55-.09,.04-.02,.08-.03,.12-.07,.01,0,.03-.02,.04-.03h.01s.04-.06,.04-.08c.01-.02,.01-.04,.01-.07h0s-.02-.04-.03-.07c0,0-.01,0-.01-.01t-.02-.01s-.07-.03-.11-.03c-.77-.17-1.53-.37-2.25-.69-.36-.16-.71-.35-1.02-.59-.14-.1-.3-.22-.41-.37-.13-.2-.18-.47-.22-.7-.19-.97-.37-1.94-.52-2.91-.17-.96-.37-1.94-.42-2.92-.02-.27,0-.53,.07-.79,.07-.2,.16-.39,.17-.61,0-.43-.29-.82-.28-1.26,.13-.04,.26-.14,.24-.3-.16-1.1-.42-2.17-.73-3.24-.29-1-.6-2.02-.66-3.06-.06-1.06,.18-2.12,.5-3.12,.29-.88,.6-1.75,.98-2.59,.06,.16,.11,.3,.17,.45,.1,.29,.21,.57,.31,.86,.2,.56,.46,1.12,.55,1.71,.01,.03,.03,.06,.08,.07,.01,.03,.03,.06,.07,.09,.13,.1,.35,.03,.47-.04,.28-.18,.82,.28,1.06,.39,.3,.14,.62,.19,.96,.18,.71-.01,1.36-.33,2.06-.45,.37-.06,.69-.01,1.06,.11,.35,.12,.7,.22,1.08,.2,.79-.04,1.47-.52,2.07-1,.23-.2,.06-.35-.16-.37Zm-9.8-5.41c-.09,.06-.18,.1-.27,.16,0-.07-.01-.14-.02-.21,.11,0,.2,.02,.29,.06Zm-1.05-3.05c-.17,.01-.33,.03-.5,.07-.01-.06-.01-.11-.01-.17,.18,.03,.35,.06,.51,.1Zm-2.05,4.16c-.1-.02-.19-.04-.29-.06-.09-.02-.18-.04-.27-.06,.01-.01,.01-.02,.01-.03,.01-.37,.01-.72,0-1.09,.14,.01,.29,.02,.45,.03,.03,.01,.07,.01,.1,0-.01,.4-.01,.8,0,1.2Zm.96,.19c-.06,0-.11-.01-.16-.02s-.1-.02-.14-.03c0-.17-.01-.33-.01-.51h.01c.11,.02,.21,.04,.32,.08-.01,.17-.02,.33-.02,.49Zm.02-2.34c.16,.23,.14,.57,.39,.72,.22,.14,.5,.21,.77,.24h0c.02,.12,.03,.24,.03,.36,.01,.09,.01,.18,0,.28-.2,.14-.4,.31-.57,.51,.01-.21,.02-.43,.03-.65,0-.04-.1-.04-.11-.04-.07-.01-.13,0-.2,.01l-.2,.07c-.12-.01-.24-.02-.37-.02-.03,0-.08,.01-.11,.01v-.75s0-.04-.01-.07c.07-.03,.11-.07,.11-.11,.04-.28,0-.53-.16-.77-.04-.08-.11-.14-.18-.21,.22,.07,.42,.21,.57,.41Zm-.92-1.22c.02-.17,.06-.33,.1-.5,.08-.28,.18-.56,.3-.82,.16,.01,.35,.02,.49,.09-.06,.24-.08,.5-.04,.75-.08,.04-.14,.08-.2,.12-.2,.01-.48,.09-.48,.2v.86c-.09-.06-.2-.1-.22-.2-.02-.14,.02-.35,.06-.49Zm.04,1.89h0c-.73-.06-1.48-.09-2.23-.1,.11-.02,.21-.08,.22-.16,.03-.24,.04-.5,.12-.75,.07-.19,.18-.37,.3-.53,.12-.14,.28-.28,.45-.37,.16-.1,.32-.16,.48-.18-.04,.19-.07,.39-.09,.58h-.01c-.5,.13-.94,.63-.89,1.17,0,.06,.01,.1,.06,.13s.12,.04,.18,.04c.06-.01,.13-.02,.18-.07,.03-.03,.09-.09,.09-.14-.01-.04-.01-.1,0-.14,0-.03,0-.06,.01-.08v-.03c.02-.06,.03-.1,.06-.14,.01-.02,.02-.04,.04-.07,0-.01,.01-.02,.02-.03,.02-.04,.06-.08,.09-.11,.01-.01,.01-.02,.02-.02,.02-.02,.04-.03,.07-.06,0,0,.01-.01,.02-.01,.02-.01,.03-.02,.06-.03s.06-.02,.06-.02h.01c.1,.13,.31,.2,.45,.33,.2,.2,.29,.5,.24,.79Zm-2.56-2.37c.26-.42,.63-.62,1.1-.75,.16-.03,.31-.07,.48-.08-.65,.14-1.22,.49-1.66,.98,.03-.06,.06-.1,.08-.16Zm-.23,1.94c.12-.33,.16-.7,.28-1.04,.1-.3,.27-.57,.48-.81,.42-.47,1.01-.77,1.66-.71h.03c-.09,.2-.17,.41-.23,.62h-.01c-.52,.08-1.01,.32-1.36,.72-.17,.19-.3,.39-.39,.62-.11,.27-.12,.55-.16,.82-.01,.06,.02,.09,.07,.1-.18,0-.36,.01-.53,.01,.07-.1,.13-.21,.17-.35Zm-2.07,3.66s-.01-.03-.01-.06c.04,.02,.13,.02,.22,.01-.07,.01-.14,.02-.21,.04Zm.23-2.25c.03-.06,.08-.12,.11-.18,.28-.36,.66-.61,.95-.95,.04-.04,.09-.1,.12-.16-.03,.11-.09,.22-.14,.32-.01,.01-.02,.01-.03,.01-.06,.04-.08,.09-.06,.11-.01,.02-.02,.04-.04,.06-.24,.29-.58,.48-.85,.72-.02,.02-.03,.04-.06,.06Zm6.02,5.23c-.32,1.01-.56,2.06-.5,3.13,.06,1.06,.33,2.08,.63,3.09,.29,1.01,.55,2.03,.71,3.07-.01,0-.02,0-.03,.01-.13,.01-.35,.09-.36,.26-.01,.11,.09,.19,.19,.2-.01,.39,.17,.71,.24,1.08,.02,.11,.02,.22,.01,.33-.12-.19-.17-.42-.32-.59-.03-.03-.12-.03-.17-.03-.08,0-.18,.02-.26,.06-.07,.02-.28,.12-.18,.21,.01,.02,.03,.04,.04,.07,.09,.14,.13,.32,.22,.47,.06,.08,.11,.14,.19,.2,.1,.07,.23,.09,.36,.09-.06,.18-.1,.35-.11,.52-.01,.47,.08,.94,.14,1.4,.08,.53,.16,1.07,.24,1.59,.17,1.04,.36,2.05,.56,3.07,.09,.47,.18,.85,.56,1.16,.29,.24,.62,.46,.98,.63,.7,.35,1.46,.58,2.22,.77-.2,.04-.41,.06-.61,.03-.42-.06-.8-.27-1.21-.39-.37-.1-.76-.12-1.12,.01-.17,.06-.31,.19-.47,.23-.16,.03-.36-.02-.52-.07,.35-1.87-.98-3.54-1.31-5.33-.09-.48-.13-.97-.16-1.46-.02-.48,.01-.97-.03-1.45-.06-.48-.32-.82-.49-1.27-.17-.42-.2-.88-.14-1.34,.12,.16,.61,.04,.62-.17,.02-.31-.38-.29-.59-.29h-1.06c-.71,0-1.41,.01-2.12,.01-.14,0-.36,.04-.43,.18-.07,.13,.06,.22,.19,.22h.96c-.07,.28-.13,.57-.26,.84,0-.1,.01-.2,.03-.3,.01-.06-.03-.13-.08-.17-.07-.03-.16-.06-.22-.04-.17,.01-.32,.1-.37,.27-.07,.28-.03,.59,.09,.86-.07,.07-.12,.13-.16,.22-.16,.38-.2,.85-.3,1.25-.1,.43-.2,.87-.3,1.31-.4,1.75-.8,3.48-1.2,5.23-.01,.03,0,.06,.02,.08,.95,.59,1.94,1.15,3.02,1.47-.49,.14-1.01,.07-1.49-.16-.35-.17-.68-.18-1.06-.11-.36,.07-.65,.12-.98,.03,.3-1.17,.56-2.37,.55-3.57,0-.63-.09-1.26-.09-1.89-.01-.63,.11-1.25,.26-1.86,.3-1.28,.65-2.55,.97-3.83,.3-1.21,.7-2.43,.76-3.68,.04-.71,.02-1.43,.19-2.13,.11-.5,.35-.97,.59-1.44h.26s.01,0,.02-.01c0,0,.01,.01,.02,0h.06c.18,.01,.35,.01,.52,.01h1.06c.18,.01,.42-.04,.52-.23,.09-.17-.08-.29-.23-.3h-1.1c-.29,0-.58,0-.87,.01,0-.06-.02-.09-.06-.11-.2-1.63-1.24-2.96-1.75-4.49,1.63,.18,3.22,.51,4.79,1,.12,.03,.28,.01,.39-.07,.06,.07,.16,.08,.24,.07-.26,.67-.5,1.35-.71,2.02Z"/></g><g><path class="ce" d="M7.12,105.47c-.3-.17-.61-.28-.96-.32h-.02c-.39-.39-.82-.77-1.35-.97-.66-.24-1.42-.16-2.1-.08-.1,.01-.26,.03-.37,.09-.01-.08,0-.16,.03-.25,.1-.27,.21-.52,.33-.78,.22-.14,.38-.37,.35-.66-.06-.51-.72-.51-1.09-.38-.2,.08-.38,.21-.56,.35-.18,.12-.35,.26-.5,.39-.06,.04-.1,.09-.14,.13-.01,0-.02,.01-.03,.01H.71c-.28,.27-.52,.55-.69,.88-.07,.14,.07,.23,.2,.24,.13,0,.37-.06,.45-.2,.11-.23,.27-.43,.45-.61,.11,0,.22,.01,.33,.02,.14,.03,.3,.04,.45,.04-.09,.2-.18,.41-.23,.61-.1,.37,.04,.67,.26,.96,.3,.4,.69,.71,1.15,.9-.02,.01-.06,.03-.07,.07-.21,.46-.38,.92-.5,1.41l-.9,.03c-.13,.01-.37,.06-.46,.17-.09,.11,.09,.12,.17,.11,.41-.02,1.6-.07,1.61-.07-.03,.07-.07,.13-.07,.21-.01,.07-.01,.14,.01,.21,.03,.13,.11,.26,.22,.35,.13,.1,.28,.17,.45,.2,.03,.01,.07,0,.1,.01,0,.21,.02,.43,.07,.65,.01,.04,.09,.07,.12,.07,.08,.01,.18,0,.26-.02,.08-.02,.17-.04,.22-.1,.04-.03,.09-.07,.08-.12-.04-.24-.19-1.36,.14-1.4,.08,.01,.17,0,.18,0,.13-.02,.32-.07,.4-.19,0-.01,.01-.01,.01-.02s0-.02,.01-.03c-.07-.1-.17-.1-.28-.1-.1-.01-.21,0-.32,0-.01-.45,0-.89,.03-1.34,.18-.02,.36-.06,.52-.08,.11-.01,.31-.04,.4,.03,.09,.08,.09,.22,.19,.31,.13,.11,.32,.11,.49,.08,.33-.08,.67-.27,.94-.47,.11-.08,.19-.28,.03-.36Zm-5.03-2.51c-.07,0-.17-.01-.24-.02-.09-.01-.18-.03-.27-.04,.08-.04,.13-.1,.21-.16,.08-.06,.16-.12,.24-.18,.02-.01,.04-.03,.07-.04,.01,0,.01-.01,.02-.01,.07-.04,.13-.01,.13-.01,.32,.12-.08,.5-.17,.47Zm1.74,4.33c-.13,0-.26,0-.39,.01-.09,0-.19,0-.28,.01,.1-.46,.26-.9,.45-1.32,.09,.01,.18,.02,.26,.02-.03,.42-.04,.86-.03,1.28Zm.02-1.8c-.5-.04-.94-.37-1.25-.75-.1-.13-.19-.26-.24-.39,.01,0,.02-.01,.03-.01,.62-.07,1.32-.14,1.91,.12,.45,.2,.81,.53,1.17,.88-.55-.03-1.08,.21-1.63,.14Zm2.34,.27s-.01-.01-.01-.02-.01-.02-.01-.03c.03,0,.06,.01,.09,.02,0,.01-.03,.02-.07,.03Z"/><path class="av" d="M7.12,81.92c-.3-.16-.61-.27-.96-.31h-.02c-.39-.39-.82-.77-1.35-.97-.66-.24-1.42-.16-2.1-.09-.1,.02-.26,.04-.37,.1-.01-.08,0-.17,.03-.26,.1-.26,.21-.51,.33-.77,.22-.16,.38-.38,.35-.66-.06-.51-.72-.52-1.09-.38-.2,.08-.38,.21-.56,.35-.18,.12-.35,.26-.5,.39-.06,.04-.1,.09-.14,.12-.01,.01-.02,.01-.03,.02H.71c-.28,.27-.52,.55-.69,.88-.07,.14,.07,.23,.2,.23,.13,.01,.37-.04,.45-.19,.11-.23,.27-.43,.45-.61,.11,0,.22,.01,.33,.02,.14,.03,.3,.04,.45,.04-.09,.2-.18,.4-.23,.61-.1,.37,.04,.67,.26,.96,.3,.4,.69,.71,1.15,.9-.02,.01-.06,.03-.07,.07-.21,.46-.38,.92-.5,1.41-.3,.01-.6,.02-.9,.03-.13,.01-.37,.06-.46,.17-.09,.11,.09,.11,.17,.11,.41-.02,1.6-.07,1.61-.07-.03,.07-.07,.13-.07,.2-.01,.08-.01,.16,.01,.22,.03,.13,.11,.26,.22,.33,.13,.11,.28,.18,.45,.21h.1c0,.22,.02,.45,.07,.66,.01,.04,.09,.07,.12,.07,.08,.01,.18,0,.26-.02,.08-.02,.17-.06,.22-.1,.04-.03,.09-.08,.08-.13-.04-.23-.19-1.35,.14-1.39,.08,.01,.17,0,.18,0,.13-.02,.32-.08,.4-.19,0-.01,.01-.02,.01-.02,0-.01,0-.02,.01-.03-.07-.1-.17-.1-.28-.1-.1-.01-.21,0-.32,0-.01-.45,0-.89,.03-1.34,.18-.03,.36-.07,.52-.08,.11-.01,.31-.06,.4,.03,.09,.08,.09,.22,.19,.3,.13,.12,.32,.12,.49,.09,.33-.08,.67-.27,.94-.47,.11-.08,.19-.28,.03-.37Zm-5.03-2.49c-.07,0-.17-.01-.24-.02-.09-.01-.18-.03-.27-.04,.08-.04,.13-.1,.21-.16,.08-.07,.16-.12,.24-.18,.02-.02,.04-.03,.07-.04,.02-.01,.03-.02,.03-.02,.07-.03,.12,0,.12,0,.32,.12-.08,.5-.17,.47Zm1.74,4.33c-.13,0-.26,0-.39,.01-.09,0-.19,0-.28,.01,.1-.46,.26-.9,.45-1.32,.09,.01,.18,.02,.26,.02-.03,.42-.04,.85-.03,1.28Zm.02-1.8c-.5-.06-.94-.37-1.25-.75-.1-.13-.19-.26-.24-.4h.03c.62-.07,1.32-.14,1.91,.12,.45,.2,.81,.53,1.17,.88-.55-.03-1.08,.2-1.63,.14Zm2.34,.27s-.01-.01-.01-.02-.01-.02-.01-.04c.03,.01,.06,.02,.09,.03,0,0-.03,.01-.07,.03Z"/><g><path class="bc" d="M5.05,86.83c-.39-.3-.9-.36-1.38-.29-.82,.1-1.89,.65-1.97,1.58-.01,.12,3.81-.2,3.82-.27,.02-.4-.14-.77-.47-1.02Zm-1.31,.99c-.19,.01-.37,.01-.56,.02-.09,.01-.19,.01-.28,.01-.08,.01-.21,.01-.27,0h-.02c.06-.23,.17-.46,.35-.62,.04-.04,.09-.08,.13-.11,.08-.06,.07-.04,.16-.09,.03-.02,.09-.04,.11-.06,.01,0,.04-.01,.08-.01,0,0,.06-.01,.08-.01,.01,0,.06-.01,.07-.01h.08c.07,.01,.13,.02,.2,.04,.14,.04,.28,.11,.39,.21,.17,.14,.3,.36,.35,.58-.28,.01-.57,.03-.86,.04Z"/><path class="bt" d="M2.77,89.59c-.07-.12-.38-.03-.49,0-.04,.01-.48,.15-.42,.24,.47,.77,.95,1.55,1.42,2.32,.07,.12,.38,.03,.49,0,.04-.01,.48-.15,.42-.24-.47-.77-.95-1.55-1.42-2.32Z"/><path class="by" d="M3.27,89.8l1.42,2.32c.09,.15,.72-.11,.68-.18-.47-.77-.95-1.55-1.42-2.32-.09-.15-.72,.11-.68,.18Z"/></g><path class="bg" d="M9.44,95.42h0s.02-.02,0,0Z"/><polygon class="cc" points="9.47 90.99 9.46 90.99 9.47 90.99 9.47 90.99"/><path class="as" d="M5.48,98.12c.1-.01,.24-.07,.26-.19,.01-.67-.01-1.34-.09-2-.06-.53-.11-1.17-.52-1.57-.35-.35-.94-.45-1.34-.13-.21,.16-.35,.39-.47,.61-.16,.29-.31,.57-.47,.86-.1,.17,.16,.2,.26,.19,.07-.01,.17-.03,.16,.07,0,.07,.02,.1,.07,.12,0,.01-.01,.01-.01,.01-.02,.16-.07,.31-.12,.47h0s0,.02-.01,.03c0,.01-.01,.02-.02,.04h-.02v.02s-.02,0-.03,.01c-.01,0-.01,.01-.02,.01-.01,.01-.03,.01-.04,.02h-.01c-.06,.02-.11,.03-.16,.08-.02,.02-.06,.07-.04,.1,.03,.09,.19,.08,.27,.06,.19-.07,.42-.14,.52-.35,.02-.03,.03-.08,.04-.11,.01,.02,.02,.03,.03,.06,.04,.07,.14,.16,.16,.23,0,.04-.03,.12-.04,.17-.01,.03-.02,.08-.04,.12-.02,.11-.06,.21-.09,.32-.08,.24-.17,.49-.26,.75-.1-.17-.22-.31-.37-.45-.31-.27-.77-.49-1.15-.21-.32,.24-.24,.71-.23,1.07,0,.12,0,.24,.01,.38,0,.08-.01,.19,.03,.28,.03,.08,.1,.11,.19,.14,.04,.01,.12,0,.18,.01,.03,.19,.06,.42-.08,.57-.08,.08-.17,.14-.24,.22-.09,.09-.16,.2-.22,.31-.01,.02-.02,.04-.01,.06-.01,.01-.03,.02-.03,.03-.09,.13,.07,.19,.18,.19,1.11,0,2.23,.01,3.35,.02,.13,0,.37-.06,.45-.19,.06-.09,0-.13-.07-.17,.02-.02,.03-.06,.02-.08-.06-.16-.16-.26-.26-.39-.14-.19-.18-.4-.18-.63,0-.38,.06-.77,.1-1.16,.13,.01,.26,0,.39-.01Zm-3.43,2.24s.08-.09,.12-.13c.08-.08,.17-.13,.23-.22,.13-.16,.17-.36,.16-.56-.01-.09,0-.22-.04-.3-.06-.08-.17-.1-.26-.11-.02,0-.1-.01-.1,0-.02-.03-.02-.08-.02-.11-.01-.14-.01-.28-.01-.42-.01-.22-.03-.46,0-.67,.01-.06,.04-.17,.09-.18,.04-.02,.19,.07,.24,.1,.37,.23,.62,.6,.73,1.02,.06,.2,.51,.08,.46-.12,0-.02-.01-.04-.02-.07,.03-.02,.07-.06,.08-.09,.16-.4,.3-.81,.43-1.24,.03-.1,.07-.21,.09-.31,.03-.09,.08-.19,.08-.28s-.07-.14-.11-.21c-.08-.1-.13-.2-.19-.3-.03-.07-.14-.08-.24-.06,0-.02,.01-.06,.01-.08,.01-.04-.02-.07-.06-.09,0,0,0-.01,.01-.02,.02-.23-.14-.33-.35-.37,.08-.13,.16-.28,.23-.41,.09,.04,.23-.01,.3-.04,.22-.13,.45,.14,.49,.35,.02,.11,0,.18-.04,.28-.07,.2-.06,.39,0,.59,.02,.08,.13,.08,.2,.08,.36-.03,.16,.97,.14,1.14-.04,.39-.08,.79-.12,1.18-.03,.3-.09,.62-.04,.94,.02,.14,.08,.29,.17,.41,.08,.12,.17,.21,.23,.32-.97,0-1.93-.01-2.89-.01Zm2.76-4.23c-.04-.16-.03-.31,.01-.47,.03-.09,.07-.16,.06-.26-.01-.14-.09-.29-.18-.39-.26-.29-.62-.28-.94-.13,.07-.14,.14-.28,.26-.39,.33-.33,.78,.09,.92,.39,.2,.42,.22,.94,.27,1.39,.06,.5,.07,1.01,.06,1.53h-.13c.04-.37,.1-.75,.1-1.11-.01-.3-.17-.51-.42-.56Z"/></g></g><g><g><path class="bs" d="M6.92,52.19c-.56-.71-1.26-1.31-2.06-1.74-.82-.43-1.9-.81-2.84-.58,.27-.35,.71-.52,1-.85,.26-.29,.4-.69,.26-1.05-.03-.2-.14-.39-.32-.51-.2-.14-.49-.19-.73-.17-.45,.04-.86,.32-1.02,.73h-.39c-.1-.01-.23,.08-.24,.19-.02,.12,.12,.14,.21,.16,.7,0,1.4,.01,2.1,.01-.02,.35-.38,.66-.65,.85-.33,.24-.68,.51-.82,.9-.02,.03-.04,.08-.03,.11v.02c-.12,.52,.32,.85,.66,1.16,.41,.39,.82,.78,1.24,1.16,.02,.03,.06,.07,.09,.09-.03,.46-.02,.9,.03,1.35-.48,.01-.96,.04-1.44,.09-.08,.01-.26,.07-.27,.16-.01,.1,.13,.09,.2,.08,.51-.06,3.02,.06,3.11,.06,.09-.01,.24-.07,.26-.19,.02-.33,.02-.67,.01-1.01,0-.02-.01-.04-.02-.07,.58,0,1.15-.01,1.71-.1,.13,.08,.5-.06,.4-.21-.11-.18-.41-.62-.43-.63Zm-4.31-4.25s.09,0,.13-.01h.01s.01,.01,.01,.02c-.04,0-.1-.01-.16-.01Zm2.18,6.1c-.31-.01-.61-.02-.92-.02-.04-.35-.07-.7-.07-1.05,.32,.13,.99,.23,.99,.28,.01,.27,.01,.52,0,.79Zm.4-1.17c-1.1-.01-1.57-.55-1.58-.55-.38-.37-.77-.72-1.15-1.09-.19-.17-.4-.33-.55-.53-.1-.16-.11-.32-.07-.49,.46-.22,1.01-.12,1.48,.01,.5,.14,.98,.36,1.43,.62,.51,.3,.98,.69,1.39,1.14-.11-.03-.22-.06-.33-.08-.21-.04-.41-.14-.62-.21-.19-.06-.38-.1-.57-.13-.39-.06-.79-.08-1.16-.24-.16-.08-.32-.19-.39-.36-.08-.19,.03-.39,.01-.58-.02-.14-.49-.03-.47,.12,.03,.2-.09,.39-.01,.58,.06,.16,.18,.27,.31,.35,.33,.22,.76,.28,1.15,.33,.2,.03,.4,.06,.6,.1,.22,.06,.43,.16,.66,.23,.19,.06,.38,.08,.58,.11,.2,.04,.4,.11,.59,.19,.11,.13,.21,.28,.3,.42-.52,.06-1.07,.07-1.6,.06Z"/><path class="aq" d="M12.06,47.38s.06-.07,.04-.1c-.01-.03-.06-.06-.09-.07-.26-.03-.51-.03-.77,0-.13-.03-.35,.04-.35,.17,.02,1.81,.04,3.63,.07,5.46-.33,.32-.67,.65-1,.97-.1,.08-.12,.1-.24,.11h-.35c-.24,0-.49-.02-.73-.04-.1-.01-.33,.02-.38,.14-.09,.28,.26,.36,.46,.36,.32,0,.65-.02,.97-.02,.67-.01,1.35,0,2.02,.01,.1,0,.26-.03,.31-.12,.06-.09,.02-4.59,.07-6.76,0-.03-.07-.04-.14-.03,.04-.01,.09-.03,.12-.07Zm-3.23,6.75c.14,.01,.29,.01,.45,.01-.12,.01-.33,.03-.45-.01Zm2.78-6.52c-.03,2.17-.06,4.34-.04,6.51h0c-.46,.01-.91,0-1.37,.01h-.56c.17-.01,.33-.04,.48-.12,.22-.13,1.3-1.11,1.3-1.2v-.03s.01-.02,0-.03c-.01-1.76-.03-3.53-.06-5.29h.22s.03,.01,.04,.01c.03,0,.07,0,.09,.01h.08c-.1,.03-.19,.08-.19,.13Z"/></g><g><path class="ax" d="M29.06,64.74c-.14-.18-.29-.41-.5-.52-.21-.11-.47-.11-.69-.13l-1.7-.2s-.09,.01-.13,.03c-.37-.9-.83-1.77-1.39-2.58-.58-.84-1.39-1.55-1.65-2.56-.33-1.36-.02-3.81-1.93-4.11,.13-.71,.28-1.43,.43-2.14,0-.03-.02-.04-.07-.06,.31-.1,.62-.03,.94,.13,.67,.38,1.31,.8,1.96,1.2,.02,.01,.06,.01,.1,0,0,.01-.01,.01-.01,.02-.01,.01,.01,.02,.02,.03,.09,.02,.19,.02,.28,.01,.07-.01,.14-.02,.21-.04,0,0,.01,0,.01-.01,.08,.08,.14,.14,.27,.16,.18,.01,.35-.11,.4-.29,.13-.39-.21-.77-.43-1.05-.26-.32-.52-.67-.91-.82-.19-.07-.37-.07-.56-.07-.09,.01-.17,.01-.26,.02-2.17-.76-4.49-.19-6.22,1.27-.89,.73-1.63,1.64-2.36,2.53-.7,.86-1.38,1.74-1.81,2.76-.98-.27-2.03-.32-3.04-.29-.4-.23-.87-.38-1.32-.43-.59-.08-1.2,.02-1.78,.11-.12,.02-.33,.08-.36,.22-.02,.13,.18,.14,.27,.13,.01,0,.02,0,.04-.01,.31,.04,.62,.09,.94,.13,.27,.04,.55,.08,.8,.18-.04,.08-.1,.14-.18,.18-.06,.03-.11,.08-.09,.13,.04,.19,.38,.13,.52,.13,.21-.01,.43-.02,.66-.04,.03,0,.09-.02,.13-.06,.57,.32,1.16,.63,1.81,.76,.29,.06,.59,.07,.89,.04,.27-.02,.5-.04,.76,.03,.1,.03,.18,.06,.28,.04,.51-.04,.73-.6,1.04-.94,.4-.46,.83-.88,1.26-1.3-.11,1.18-.2,2.37-.26,3.56-.04,0-.09,0-.13,.01-1.14-.42-2.3-.75-3.51-.96-.6-.1-1.2-.17-1.81-.22-.55-.03-1.14-.11-1.67,.02-.98,.24-1.55,1.3-2,2.13-.61,1.14-1.2,2.28-1.8,3.43-.62,.38-1.28,.71-1.96,1.01-.33,.14-.67,.28-1.02,.4-.31,.1-.73,.14-.94,.45-.01,.02-.02,.06-.01,.08l-.03,.03c-.08,.12,.07,.17,.17,.18,.43,.01,.87,.03,1.3,.04,.42,.02,.85,.03,1.26-.08,.19-.04,.38-.14,.58-.17,.21-.02,.38,.11,.58,.18,.38,.12,.77,.08,1.12-.07,.06-.01,.12-.06,.16-.1,.13-.04,.23-.12,.23-.21-.01-.33-.03-.67-.02-1,0-.38,.22-.55,.49-.78,.47-.41,.97-.78,1.49-1.1,.43-.28,.88-.58,1.15-1.02,.07-.12,.13-.24,.19-.38,.41,.99,.82,1.98,1.22,2.97-.19,.13-.38,.26-.57,.39-.18,.12-.37,.26-.58,.33-.21,.07-.42,.07-.65,.08-.26,.01-.52,.06-.75,.19-.11,.07-.24,.19-.14,.32,.08,.12,.3,.12,.41,.06,.02-.01,.03-.01,.04-.02,.66,.09,1.3,.26,1.96,.24,.2,0,.39-.04,.58-.11,.08-.03,.18-.09,.27-.1,.11-.02,.22,.03,.32,.08,.37,.13,.73,.12,1.07-.09,.03-.01,.04-.03,.06-.04,.1-.06,.23-.16,.18-.27-.53-1.11-.87-2.33-.97-3.55,.57,.48,1.15,.96,1.79,1.34,.66,.37,1.39,.63,2.15,.65,.81,.02,1.54-.27,2.24-.66,.07-.04,.1-.09,.13-.12,.03-.03,.06-.06,.06-.09,.06-.02,.1-.06,.13-.08,.98-.81,.91-2.14,1.21-3.26,.22-.82,.68-1.57,1.29-2.16,.12-.03,.24-.11,.26-.22,.07-.06,.12-.1,.19-.16,.87,.76,.83,2.07,1.38,3.01,.33,.56,.88,.9,1.36,1.3,.59,.49,1.1,1.05,1.56,1.67,.13,.2,.09,.51,.29,.69,.13,.11,.36,.14,.52,.18,.2,.03,.39,.06,.59,.07,.2,0,.39-.01,.58-.03,.13-.02,.31-.04,.42-.14,.1-.1,.02-.22-.1-.35,.03,.01,.06,.01,.09,.02,.12,.01,.24,.02,.37,.02h.21s.16,.01,.19,.01h0s.01,.02,.03,.02h.01c.08,.01,.19-.01,.26-.07,.11,0,.23-.09,.17-.17Zm-6.89-8.85s-.09,.02-.12,.04c-.17,.09-.29,.2-.42,.32l-.03,.03s-.02,.01-.02,.02c-.02,.02-.04,.04-.08,.07l-.1,.07s-.03,.02-.06,.03c-.06,.03-.12,.07-.2,.09-.01,0-.03,.01-.04,.01-.03,.01-.08,.02-.11,.03-.08,.02-.16,.03-.23,.06,.09-.6,.18-1.2,.29-1.79,.58,.13,.92,.52,1.14,1.01Zm-1.68-2.49c.1-.18,.21-.35,.35-.5-.31,1.43-.57,2.87-.76,4.31-.11,0-.23-.01-.35,0-.06,0-.11,0-.18,.01,.13-1.3,.28-2.66,.94-3.82Zm-1.18,3.27s-.09-.01-.13-.01c-.03-.01-.07-.01-.11-.02-.01,0-.03,0-.04-.01-.14-.02-.28-.07-.41-.11-.08-.02-.17-.01-.23,0-.01,0-.02,.01-.03,.01,.16-.67,.31-1.32,.49-1.99,.07,.02,.13,.04,.21,.06,.18,.02,.36,.04,.55,.02,.03,0,.08-.01,.11-.02-.03,.14-.08,.28-.11,.41-.13,.56-.21,1.11-.28,1.67Zm3.64-4.63c.07,.02,.2,0,.31-.04,.1-.02,.2-.03,.3-.03,.11-.01,.24-.02,.36-.01,.33,.07,.58,.35,.78,.59,.21,.26,.49,.52,.59,.85,.02,.08,.04,.16,.03,.24-.01,.03-.01,.07-.02,.1l-.02,.02s-.02-.03-.03-.04l-.03-.03s-.07-.06-.09-.08c-.14-.12-.28-.24-.42-.36-.06-.04-.14-.04-.21-.01-.03,.01-.13,.09-.08,.13,.14,.12,.28,.23,.42,.37t-.02,.01h-.11s-.07-.01-.09,0c.02-.01,.02-.03,.01-.03-.4-.26-.8-.5-1.2-.75-.35-.21-.7-.49-1.09-.61-.41-.14-.87-.06-1.26,.16-.08,.03-.13,.07-.17,.11-.12,.08-.23,.18-.32,.28-.38,.41-.63,.94-.81,1.48-.01-.01-.03-.01-.04-.01h-.08s-.08-.01-.12-.02c-.13-.02-.28-.06-.41-.09-.06-.02-.14-.01-.2,0,.2-.76,.42-1.51,.66-2.27,1.09-.38,2.29-.32,3.38,.06Zm-5.9,1.67c.62-.63,1.34-1.21,2.16-1.58-.23,.76-.45,1.51-.66,2.28-.01,.02-.01,.03-.01,.04-.23,.88-.45,1.77-.65,2.67-.14-.02-.3-.03-.46-.03,.06-.33,.11-.67,.18-1.01,0-.01,.01-.02,.01-.02,.1-.55,.21-1.07,.33-1.6,.01-.06-.06-.1-.11-.1-.43-.03-.88-.07-1.31-.1,.17-.19,.33-.37,.51-.55Zm.58,.86c-.1,.41-.19,.81-.27,1.22-.16-.14-.3-.29-.42-.47-.19-.24-.31-.52-.45-.8,0-.02-.02-.03-.03-.04,.39,.03,.78,.06,1.17,.09Zm-3.17,3.8c-.19,.19-.38,.38-.55,.59-.08,.1-.14,.21-.22,.32-.13,.18-.17,.2-.38,.13-.23-.07-.47-.04-.7-.02-.36,.03-.7,.02-1.06-.07-.65-.16-1.22-.48-1.79-.8-.04-.03-.16,0-.23,.04-.16,.01-.3,.02-.46,.03-.08,0-.17,0-.24,.01h-.1c.09-.08,.17-.17,.22-.28,.02-.06-.01-.1-.06-.12-.29-.13-.62-.17-.94-.22-.09-.01-.18-.02-.27-.03,.22-.02,.45-.02,.67,0,.43,.06,.87,.2,1.24,.42,.02,.01,.06,.02,.08,.02,.03,.02,.07,.02,.1,.02,1.1-.02,2.23,.03,3.27,.39,.13,.04,.33-.01,.43-.12,.03-.03,.06-.07,.06-.1h0c.36-1.01,.97-1.87,1.63-2.69,.28-.33,.55-.67,.82-1,.1,.23,.22,.46,.37,.67,.18,.27,.41,.49,.67,.68,.07,.06,.17,.07,.26,.06-.06,.31-.11,.62-.17,.94-.01,.06,.04,.08,.09,.09-.19,.02-.37,.08-.53,.17-.07-.06-.14-.1-.22-.14-.04-.03-.09-.04-.13-.04,.02-.23,.03-.47,.06-.71,.02-.19-.59-.07-.61,.1-.01,.13-.02,.27-.03,.39-.42,.43-.85,.86-1.26,1.29Zm-2.43,8.63s.03,.06,.06,.07c-.01,0-.02,0-.04-.01-.06-.01-.11-.03-.17-.06l-.17-.07c-.17-.04-.33-.03-.49-.01-.19,.02-.37,.08-.55,.14-.04,.02-.08,.03-.12,.06-.01,.01-.03,.01-.04,.01h0c-.08-.01-.17-.02-.24-.03-.35-.03-.68-.09-1.01-.14,.12-.02,.23-.06,.36-.1,.43-.18,.83-.49,1.24-.77,.18-.02,.38-.13,.32-.26-.53-1.29-1.07-2.59-1.6-3.89,.03-.1,.08-.2,.11-.31,.3,.13,.56,.42,.79,.61,.21,.18,.41,.36,.62,.52-.03,.04-.06,.08-.06,.13,.06,1.43,.39,2.82,1,4.1Zm-.68-4.75c-.49-.42-1.04-1.08-1.71-1.12-.19-.01-.4,.17-.41,.3-.04,.02-.08,.06-.1,.09-.06,.16-.11,.3-.17,.46-.02,.02-.03,.06-.03,.08-.04,.13-.09,.26-.14,.38-.11,.31-.22,.65-.42,.92-.35,.47-.91,.73-1.39,1.06-.5,.35-1,.73-1.43,1.17-.19,.19-.26,.37-.26,.63,0,.31,.01,.63,.02,.95h-.01c-.36,.13-.65-.16-.99-.2-.37-.06-.71,.08-1.05,.18-.37,.11-.73,.07-1.1,.06-.22-.01-.45-.02-.66-.03,.17-.06,.33-.11,.5-.18,.36-.12,.69-.27,1.04-.42,.59-.27,1.17-.58,1.74-.91,.08-.02,.14-.06,.18-.11,.04-.04,.08-.09,.08-.14,.48-.91,.96-1.84,1.45-2.75,.22-.43,.45-.88,.7-1.3,.28-.47,.65-1.12,1.18-1.3,.55-.18,1.27-.02,1.85,.03,.52,.07,1.04,.14,1.56,.24,.08,.02,.16,.03,.24,.06-.03,.02-.06,.06-.06,.08-.09,.77-.02,1.54,.22,2.26,.03,.11,.08,.22,.12,.33-.32-.27-.63-.53-.95-.79Zm2.43,1.9h-.01c-.26-.18-.39-.48-.57-.72-.2-.28-.32-.62-.42-.96-.2-.63-.27-1.31-.22-1.98,.31,.08,.62,.16,.94,.24-.21,1.31-.03,2.78,.88,3.74-.2-.1-.4-.2-.59-.32Zm1.46,.61s-.1-.02-.14-.04c-1.24-.85-1.51-2.47-1.31-3.89,.24,.08,.49,.16,.73,.24-.04,.75,.04,1.5,.28,2.2,.19,.58,.49,1.12,.94,1.53-.16,0-.32-.01-.49-.04Zm.9,.02c-.53-.4-.86-1.02-1.06-1.65-.2-.63-.29-1.29-.26-1.95,.07,.02,.13,.04,.21,.08,0,.01,.01,.02,.02,.04,.16,1.25,1.2,2.24,2.2,2.89,.07,.03,.12,.08,.19,.11-.42,.23-.86,.4-1.31,.47Zm1.57-.62c-.41-.24-.82-.57-1.17-.89-.5-.48-.95-1.07-1.12-1.76,.41,.49,.94,.89,1.48,1.21,.41,.24,.87,.49,1.35,.62h.04c-.13,.3-.31,.58-.58,.81Zm.66-1.02c-.43-.13-.85-.36-1.22-.58-.51-.3-1-.67-1.39-1.11,.57,.07,1.15,.13,1.69,.27,.27,.07,.52,.17,.78,.26,.11,.04,.24,.11,.38,.16-.06,.35-.12,.69-.23,1.01Zm.56-2.45c-.11,.28-.18,.59-.23,.9-.07-.02-.14-.06-.22-.08-.28-.1-.56-.19-.85-.26-.55-.13-1.1-.2-1.66-.27,.04-.02,.08-.07,.08-.11,.04-.99,.12-1.98,.21-2.97,.01,.01,.03,.02,.04,.03,.14,.13,.35,.11,.49,.01,.16-.11,.31-.23,.48-.1,.14,.11,.27,.22,.46,.26,.1,.01,.2,.01,.3,.01,.08,0,.19-.04,.27-.01,.07,.02,.09,.1,.14,.16,.06,.08,.13,.12,.22,.14,.2,.07,.42-.01,.62-.07,.06-.01,.11-.02,.16-.03l.03,.03s.07,.08,.11,.1c.19,.17,.46,.24,.71,.23-.6,.56-1.08,1.24-1.37,2.02Zm9.69,4.14c-.19,0-.37,0-.55-.02-.31-.04-.57-.24-.88-.22-.03,0-.27,.08-.22,.11,.13,.07,.26,.13,.37,.22,.08,.07,.24,.18,.26,.3,.03,.04,.02,.07-.04,.06-.04,.01-.09,.01-.14,.02-.08,0-.17,.01-.26,.01-.17,0-.32-.01-.49-.03-.23-.03-.6-.07-.71-.31-.09-.19-.08-.4-.2-.57h0s-.01-.02-.01-.03c-.43-.59-.94-1.14-1.5-1.63-.52-.43-1.11-.79-1.46-1.41-.52-.97-.5-2.22-1.39-2.98,.08-.07,.11-.16,.01-.23-.12-.08-.35-.01-.45,.06-.03,.02-.07,.04-.1,.08-.08-.07-.23-.08-.31-.04-.16,.06-.29,.03-.42-.07-.17-.13-.21-.3-.46-.3-.11,0-.22,.04-.32,.07-.1,.02-.24,.02-.35,.07,0,0-.01-.01-.01-.02-.01-.03-.04-.07-.08-.1-.07-.07-.14-.12-.24-.14-.19-.07-.38-.02-.57-.02s-.28-.17-.43-.24c-.09-.06-.19-.09-.29-.1,.2-.01,.39,0,.58,.04,.09,.03,.22,0,.24-.11,.02-.11,.06-.22,.08-.33,.3,.1,.6,.17,.91,.19h.1c-.01,.1-.02,.2-.03,.3,0,.03,.03,.04,.1,.04,.28,0,.55,.01,.82,.02,.12,.01,.49-.04,.51-.21,0-.03,.01-.08,.01-.12,.31-.06,.63-.13,.91-.28,.16-.08,.3-.17,.42-.29,.04-.03,.08-.08,.12-.11l.03-.03s.07-.06,.09-.08c.02-.01,.03-.02,.06-.03,.26,.99,.2,2.24,.51,2.99,.31,.77,.96,1.36,1.44,2.02,.6,.85,1.09,1.76,1.47,2.72,.03,.07,.16,.06,.24,.02,.01,.01,.03,.02,.08,.02,.51,.07,1.02,.12,1.54,.19,.12,.01,.26,.02,.38,.04,.12,.01,.23,.01,.35,.07,.17,.09,.3,.28,.41,.43h-.12Z"/><path class="ba" d="M24.25,52.61h0s0,0,.02,0c.01,0,.02,0,.04,0,.02,0,.04,0,.05,0,.02,0,.04,0,.06-.01h.04s.04-.03,.07-.04l.02-.02s.02-.02,.01-.03c-.03-.04-.07-.08-.11-.11,0,0-.02,0-.03,0-.02,0-.03,0-.05,0-.02,0-.04,0-.06,0-.02,0-.04,.01-.06,.02h-.04s-.04,.03-.05,.05v.02s-.02,.02,0,.03c.04,.03,.07,.06,.1,.09Z"/></g></g><g><path class="bv" d="M45.39,87.68c-.01-.22-.3-.26-.48-.17-.04-.02-.11-.02-.16-.02h-1.08c-.11,0-.33,.1-.33,.23-.02,1.08,0,2.16,.07,3.23h-.52c-.11,0-.42,.07-.43,.22-.03,1.48-.02,2.96,.04,4.44-.46,.02-.92,.03-1.38,.01-.11,0-.23,.03-.33,.08-.06,.02-.17,.06-.17,.12-.02,.27,0,.53,.06,.8,0,.03,.04,.04,.09,.04,.02,.03,.11,.03,.16,.02,1.32-.11,2.66-.14,3.99-.11,.14,.01,.31-.03,.43-.11,.02-.01,.03-.03,.04-.04,.07-.04,.11-.1,.11-.18,.09-2.86,.06-5.72-.1-8.57Zm-.51,8.62v.06c-1.2-.03-2.4,.01-3.61,.11-.04-.19-.07-.39-.07-.59,.45,0,.89-.01,1.32-.06,.11,.07,.59-.03,.58-.19-.07-1.47-.09-2.94-.06-4.41h.38v.09c.02,.26,.62,.12,.61-.16-.08-1.08-.11-2.16-.09-3.25h.73s.07,0,.1-.01c.14,2.79,.18,5.6,.09,8.41Zm2.3,2.36s-.1-.04-.16-.04c-.37,0-.76-.01-1.09-.17-.32-.14-.52-.43-.77-.67-.56-.52-1.27-.48-1.97-.45-.08,0-.16,.01-.23,.01-.24-.03-.5-.04-.75,0l-.03,.02c-.4,.02-.8,.09-1.16,.28-.29,.16-.5,.38-.71,.62-.2,.23-.48,.66-.83,.55-.21-.07-.7,.19-.56,.35-.01,.02,0,.03,.02,.04,1.16,.57,2.52,.91,3.82,.8,.65-.04,1.2-.3,1.77-.59,.46-.22,.92-.37,1.41-.43,.26,.04,.52,.07,.79,.07,.16,.01,.42-.04,.49-.2,.04-.09,.01-.14-.04-.19Zm-1.91,.21c-.6,.17-1.12,.47-1.69,.71-.61,.26-1.38,.13-2,.01-.53-.1-1.04-.26-1.53-.47,.29-.13,.55-.36,.75-.59,.21-.23,.42-.55,.75-.66-.03,.04-.06,.1-.07,.16-.07,.24,.01,.51,.17,.71,.31,.41,.91,.57,1.38,.36,.47-.2,.76-.76,.65-1.26,0-.03-.01-.07-.02-.1,.11,0,.21,.01,.32,.03,.37,.09,.58,.37,.83,.63,.19,.19,.4,.32,.62,.42-.04,.01-.1,.02-.16,.03Z"/><g><path class="bq" d="M56.26,82.96s.01-.02,0-.04c-.08-.22-.33-.29-.55-.27-.22,.02-.41,.13-.57,.28h-.52c-.1,0-.24,.03-.31,.12-.06,.1,.06,.14,.13,.14,.22,0,.45,0,.68,.01h.11c.26,0,.52,.01,.78,.01,.1,0,.24-.03,.31-.12,.03-.07-.01-.11-.07-.13Z"/><path class="au" d="M62.75,96.04c.18-.1,.23-.29,.32-.47,.11-.23,.22-.48,.35-.71,0-.02,0-.03-.02-.04-.24-.27-.56-.4-.89-.52-.18-2.66,.12-5.33-.18-7.98,.01-.01,.02-.01,.02-.02,.08-.09,.14-.18,.21-.26,.08,.35,.1,.71,.07,1.08-.01,.16,.19,.17,.3,.16,.11-.02,.39-.1,.4-.24,.04-.51,.01-1.04-.16-1.53-.18-.48-.52-.99-1.05-1.14-.16-.03-.38,.03-.5,.13-.11,.11-.08,.22,.07,.26,.21,.06,.38,.26,.5,.41,.08,.12,.16,.24,.21,.38-.13,.2-.29,.4-.45,.59-.02,.02-.03,.04-.04,.08-.04,.03-.08,.09-.07,.14,.3,2.58,.03,5.19,.17,7.77-.24-.09-.48-.19-.68-.36-.36-.29-.51-.72-.75-1.11-.24-.39-.57-.73-.95-1.01-.01-.01-.03-.01-.06-.01h0c-.12-.68-.24-1.35-.36-2.03-.11-.6-.14-1.22-.24-1.83-.08-.48-.24-.98-.63-1.29-.47-.35-1.12-.48-1.67-.59-.17-.52-.46-.99-.96-1.3-.02-.01-.04-.02-.07-.02,.02-.03,.04-.07,.08-.1,.18-.13,.47-.18,.68-.21,.26-.04,.51-.08,.76-.11,.73-.1,1.96-.38,1.85-1.37,0-.03-.07-.06-.09-.07-.72-.12-1.51,.02-2.2-.24-.35-.12-.62-.39-.97-.51-.07-.02-.13-.04-.2-.06,0-.01,.01-.01,.01-.02-.12-1.2-.23-2.42-.39-3.63-.01-.1-.46,.01-.47,.1-.04,.29-.08,.59-.11,.88-.04-.28-.08-.55-.11-.81,0-.01-.01-.01-.01-.02,.01-.02,.01-.03,.02-.06,.06-.14-.41-.09-.47,.06-.45,1.21-.81,2.49-1,3.77-.98,.27-1.86,.87-2.47,1.68-.69,.92-1.02,2.07-1.04,3.22,0,.32,.02,.66,.07,.98,.02,.17,.01,.27,.2,.3,.12,.02,.23,0,.35-.06v.36c0,1-.01,1.99-.02,2.99,0,.98-.04,1.98-.01,2.96,.01,.26,.03,.51,.1,.76,.07,.24,.19,.48,.22,.73,.06,.5-.18,1-.18,1.5,0,.07,.03,.1,.09,.12-.04,.04-.08,.1-.1,.16-.23,.48,.03,1.04,.38,1.39,.06,.06,.13,.01,.13-.06,0-.01-.01-.02-.01-.03-.06-.13-.14-.26-.19-.39-.06-.18-.1-.36-.16-.53-.2-.62,.98-.76,.71,.03-.06,.19-.31,.75-.35,.87,0,.02-.01,.03-.01,.06-.01,.03-.01,.07-.01,.09-.28,.04-.56,.09-.79,.23-.01,.01-.01,.04,.01,.04,.24,.03,.5-.01,.75-.03-.03,.45,.01,.91,.02,1.34,0,.1,.11,.12,.17,.09-.51,1.54-1,3.08-1.17,4.7-.06,.58-.08,1.15-.03,1.71,.01,.18,0,.4,.11,.55,.13,.17,.41,.14,.57,.03,.13-.1,.19-.27,.2-.42,.03-.29,.02-.59,.04-.89,.03-.55,.11-1.09,.21-1.64,.1-.53,.22-1.07,.37-1.6,.02,.43,.07,.86,.12,1.28,.08,.67,.21,1.36,.16,2.04-.07,.69-.36,1.34-.29,2.04,.01,.06,.08,.07,.16,.06,.21,.08,.45,.07,.67,.03,.18-.03,.35-.08,.52-.07,.18,.01,.36,.07,.53,.11,.32,.1,.65,.17,.99,.16,.38,0,.77-.01,1.15-.02,.04,0,.12-.01,.18-.03,.14,.08,.45-.03,.41-.21-.06-.29-.43-.31-.67-.37-.3-.08-.6-.19-.87-.35-.28-.14-.53-.33-.77-.55-.22-.22-.45-.47-.55-.77,.01-.01,.02-.03,.02-.04,.24-1.97,.49-3.94,.73-5.91,.29-.39,.48-.86,.53-1.34,.29,.01,.58,.02,.87,.03,0,.01,0,.02,.01,.03,.38,.4,.35,.99,.31,1.5-.03,.62-.03,1.26,.11,1.88,.14,.62,.47,1.16,.73,1.74,.27,.57,.43,1.18,.53,1.8,.12,.7,.18,1.43,.22,2.15h.01s-.03,.07,0,.09c.32,.28,.72,.36,1.14,.3,.26-.04,.48-.11,.75-.04,.23,.06,.46,.12,.69,.16,.47,.06,.95,.03,1.41-.01,.21-.01,.46-.01,.66-.11,0,.06-.01,.1-.01,.16,0,.11,.12,.14,.21,.14,.09-.01,.26-.08,.27-.19,.01-.21,.03-.42,.09-.63,.01-.08,.04-.17,.07-.23,.01,.01,.02,.03,.02,.04,0,0,.01,.03,.02,.03,0,.02,.01,.04,.01,.07,.01,.04,.02,.08,.02,.12,.01,.02,.01,.04,.01,.07v.04s.01,.09,.01,.13c0,.11,.01,.23,.01,.35,0,.04,.01,.08,.06,.11,.04,.02,.11,.03,.16,.03,.07-.01,.13-.03,.18-.07,.03-.03,.09-.08,.09-.12-.01-.2-.01-.4-.03-.6-.01-.16-.06-.33-.17-.47-.04-.04-.11-.09-.18-.11-.07-3.08-.09-6.17-.07-9.25,0-.82,.01-1.66,.02-2.48,.09-.01,.18-.03,.28-.09Zm.13-1.14s.03,.06,.03,.08c-.14-.14-.29-.27-.47-.37,.16,.07,.35,.16,.43,.29Zm-6.46-7.04v.02c-.12-.01-.23-.01-.36-.01-.07-.63-.26-1.24-.56-1.79,.02-.02,.03-.04,.03-.08-.02-.27-.02-.55,0-.81,.01-.07,.01-.13,.01-.22,.79,.7,.86,1.88,.87,2.89Zm-6.27-.63c-.02,.27-.02,.55-.02,.81-.02,.01-.06,.01-.08,.02,.01-.12-.06-.84-.07-.92,0-.31,.02-.63,.07-.95,.09-.62,.28-1.25,.59-1.8,.51-.91,1.34-1.66,2.35-1.97-.03,.26-.03,.52,.06,.77,.07,.17,.18,.3,.31,.42-.23,.63-.38,1.29-.46,1.95-.75,.1-1.61,.24-2.22,.72-.31,.24-.49,.56-.53,.95Zm3.75,.52c-.21,0-.43,.01-.65,.02,.02-1.29,.06-2.62,.46-3.85,.06,.06,.11,.11,.14,.18,.08,.14,.02,.38,.01,.55-.01,.33-.02,.67-.02,1-.01,.7,.01,1.4,.06,2.1Zm-3.18,9.67c.02-.38,.14-.73,.17-1.11,.03-.43-.16-.78-.24-1.19-.1-.45-.08-.9-.08-1.36,.01-.47,.01-.94,.01-1.41,.01-.92,.02-1.85,.02-2.78,0-.47,.01-.95,.01-1.41,0-.42-.07-.95,.1-1.34,.16-.35,.49-.53,.82-.66,.42-.16,.89-.23,1.34-.3-.07,.7-.08,1.41-.09,2.12,0,.12,.11,.16,.22,.16,.31-.02,.63-.03,.96-.04,.1,.06,.45-.03,.43-.18-.06-.7-.08-1.39-.08-2.09,0-.36,0-.71,.02-1.07,.01-.26,.1-.62-.04-.85-.11-.17-.29-.29-.45-.42-.01-.03-.04-.06-.09-.08l-.06-.06c-.22-.24-.28-.56-.26-.88,.06-.65,.21-1.29,.37-1.93,.09-.38,.2-.76,.31-1.14,.09,.62,.17,1.25,.26,1.86,.01,.1,.46-.01,.47-.12,.02-.28,.04-.55,.08-.81,.04,.5,.1,1.01,.14,1.53-.13-.01-.26,0-.39,.01-.09,0-.26,.02-.31,.12-.04,.09,.04,.14,.13,.14,.39-.02,.77-.03,1.12,.17,.3,.16,.56,.36,.88,.46,.67,.2,1.36,.11,2.04,.2,.02,.49-.43,.76-.86,.86-.48,.1-.98,.12-1.46,.23-.36,.08-.9,.2-1.06,.59-.1,.22-.09,.5-.11,.73-.01,.24-.01,.5,0,.75-.02,.03-.03,.08,0,.13,.3,.57,.48,1.19,.55,1.84,0,.06,.1,.09,.14,.09,.27,0,.53,.01,.81,.03,.1,.01,.24-.03,.3-.13,.04-.08,0-.12-.06-.14,.04-.03,.08-.07,.08-.11,0-.51-.01-1.08-.13-1.6,.46,.1,.95,.23,1.26,.55,.36,.35,.46,.85,.52,1.31,.08,.58,.13,1.16,.23,1.74,.1,.65,.22,1.28,.33,1.93,.01,.03,.04,.06,.09,.07h.01c.45,.33,.79,.75,1.05,1.24,.22,.41,.45,.81,.87,1.05,.29,.17,.6,.26,.91,.37v.08c-.11,.01-.22,.04-.31,.11-.1,.06-.16,.16-.2,.26-.04,.08-.07,.16-.08,.23-.01,0-.01-.01-.02-.01-.45-.35-.88-.72-1.27-1.15-.27-.3-.57-.56-.86-.82-.14-.14-.28-.28-.39-.43-.18-.22-.28-.49-.45-.72-.07-.09-.17-.14-.26-.22-.1-.09-.16-.21-.19-.33-.1-.31-.13-.65-.2-.97-.13-.7-.27-1.41-.4-2.12,0-.02-.01-.03-.02-.03-.01-.13-.39-.1-.46,.03-.16,.29-.28,.58-.4,.88-1.37-.1-2.74-.09-4.11,.04-.13-.39-.29-.78-.51-1.12-.07-.11-.3-.07-.41,.03-.1,.02-.19,.09-.2,.17-.1,1.28-.13,2.57-.13,3.86,0,.61,0,1.22-.01,1.84,0,.66-.09,1.35,.06,1.98,.08,.37,.26,.7,.32,1.06,.01,.03,.01,.07,.02,.11-.12-.04-.33,.01-.38,.11-.01,.03-.02,.08-.03,.11h-.42Zm5.01-4.03c-.88,.2-1.83,.06-2.64-.33,.02-.22,.06-.46,.08-.68,.33,.14,.69,.21,1.05,.27,.26,.03,.5,.08,.76,.07,.26,0,.5-.07,.75-.13-.04,.28-.04,.55,.01,.81Zm-.61-.88c-.21,0-.43-.04-.65-.08-.4-.07-.8-.16-1.16-.37-.02-.02-.07-.02-.1-.02,0-.11,.01-.21,.02-.32,.01-.47-.23-.82-.4-1.25-.14-.33-.24-.69-.36-1.04,1.29-.11,2.58-.12,3.87-.01,.03,0,.08,0,.11-.01-.35,.97-.55,1.98-.72,2.98-.2,.06-.41,.12-.62,.11Zm-2.51,.71c-.17,.48-.35,.96-.5,1.45-.16,.48-.19,.91-.18,1.41,0,.19,0,.39-.01,.58-.02-.06-.04-.11-.06-.16-.14-.38-.26-.78-.26-1.18-.01-.75,.02-1.5,.02-2.26,0-.7,0-1.41,.01-2.13,.01-.7,.04-1.41,.09-2.12,.26,.57,.39,1.19,.62,1.77,.17,.4,.42,.77,.4,1.21-.02,.46-.1,.91-.14,1.37-.01,0-.01,.01,0,.01h-.01s.01,.02,.01,.03Zm-1.67,6.3h0c.16-.01,.31-.02,.45-.07-.14,.46-.3,.9-.45,1.36,0-.43-.02-.87,0-1.29Zm.42,1.73c-.56,1.71-1.07,3.47-1.22,5.28,.01-.36,.03-.7,.07-1.06,.12-1.02,.38-2.04,.67-3.03,.2-.62,.4-1.25,.61-1.87-.03,.22-.08,.46-.12,.68Zm.08-1.96c-.14-.06-.3-.06-.45-.03,.08-.32,.26-.59,.33-.92,.02-.1,.03-.22,.03-.35,.01,.01,.02,.01,.03,.01,.13,.02,.26-.01,.36-.09-.09,.38-.2,.76-.35,1.12-.02,.06,.02,.09,.08,.09-.01,.06-.03,.11-.04,.17Zm2.32,.21c-.06,.48-.24,.94-.55,1.32-.02,.04-.02,.07,0,.1-.23,1.93-.47,3.86-.71,5.8-.03,.03-.04,.09-.03,.13,.17,.59,.75,1.07,1.26,1.38,.27,.17,.56,.3,.86,.4,.14,.04,.3,.09,.46,.12,.07,.01,.16,.02,.22,.07-.31,.01-.63,.02-.95,.02-.33-.01-.62-.08-.95-.17-.28-.08-.56-.13-.85-.1s-.61,.16-.88,0c-.04-.62,.2-1.21,.28-1.84,.08-.63-.03-1.29-.11-1.93-.08-.66-.17-1.31-.18-1.97,0-.53,.09-1.04,.19-1.55v-.06c.02-.1,.04-.19,.06-.29,.1-.56,.19-1.15,.12-1.71,.6,.08,1.19,.14,1.79,.19-.02,.01-.03,.03-.03,.07Zm-1.79-.49s-.01-.01-.01-.01c-.01-.02-.03-.04-.07-.06,.36-.91,.53-1.88,.51-2.85,0-.26-.02-.51,.01-.77,.02-.24,.09-.48,.17-.71,.14-.41,.29-.83,.43-1.25,.87,.32,1.83,.37,2.75,.16,.08,.36,.19,.7,.29,1.05,.21,.75,.41,1.48,.6,2.22,.21,.82,.39,1.66,.51,2.5-1.74,.08-3.48-.02-5.2-.28Zm9.46,9.82h-.01c-.09-.01-.2,.02-.29,.02-.18,.02-.37,.03-.55,.03-.39,.01-.77-.01-1.15-.12-.36-.09-.63-.12-.99-.04-.37,.07-.67,.04-.97-.2,.01-.01,.02-.03,.02-.06-.09-1.27-.18-2.56-.68-3.75-.26-.6-.61-1.15-.79-1.79-.17-.63-.18-1.3-.14-1.96,.02-.5,.07-1.05-.22-1.47,.48,0,.97-.01,1.46-.03,.28,.4,.3,.97,.06,1.39-.01,.02-.02,.04-.01,.07-.06,.03-.1,.08-.09,.13,.3,2.06,.68,4.1,1.14,6.11,.01,.06,.07,.08,.13,.09,.9,.7,1.96,1.21,3.07,1.49,.01,.01,.02,.03,.02,.04,0,.02-.01,.03-.01,.04Zm.59-.94c-.09,.07-.13,.16-.17,.27-.03,.1-.07,.2-.09,.3-1.11-.27-2.15-.77-3.05-1.48-.01,0-.03-.01-.04-.01-.46-2-.83-4.02-1.12-6.05h0s.06-.06,.07-.08c.28-.47,.27-1.06-.02-1.51,.03-.03,.06-.08,.06-.12-.21-1.48-.6-2.92-1-4.35-.11-.36-.21-.72-.31-1.08-.1-.36-.2-.71-.17-1.08,.07-.69,.23-1.39,.4-2.06,.12-.53,.28-1.07,.49-1.59,.13,.71,.27,1.43,.4,2.13,.04,.19,.07,.39,.16,.56,.08,.16,.21,.22,.32,.33,.13,.12,.2,.32,.3,.48,.09,.14,.19,.29,.3,.42,.18,.22,.39,.41,.6,.6,.23,.21,.45,.45,.67,.68,.58,.61,1.26,1.11,1.94,1.6,.09,.07,.18,.12,.28,.18-.01,.01-.02,.02-.02,.03-.04,3.15-.04,6.29,0,9.43,.01,.8,.02,1.6,.04,2.4h-.02Zm.1-12.26c-.09-.06-.17-.12-.26-.19,0-.02,.01-.04,.01-.06-.01-.14,.01-.31,.07-.43,.02-.03,.03-.08,.06-.11h.02s.02,0,.04,.01h.02s.06,.03,.08,.06c.07,.03,.11,.07,.16,.11,.11,.09,.21,.2,.31,.3,.02,.02,.06,.03,.1,.04-.06,.11-.11,.22-.17,.35-.02,.04-.07,.11-.09,.17-.12-.09-.23-.16-.36-.24Z"/></g></g><g><g><path class="bb" d="M44.53,46.8c-.02-.24-.35-.29-.55-.18-.06-.02-.13-.03-.19-.03h-1.22c-.13,0-.38,.11-.38,.27-.03,1.24,0,2.46,.08,3.7h-.6c-.13,0-.49,.07-.49,.24-.04,1.69-.03,3.38,.04,5.08-.53,.03-1.06,.04-1.59,.02-.12-.01-.26,.03-.38,.08-.06,.02-.18,.07-.19,.14-.02,.31,0,.61,.07,.91,.01,.03,.06,.04,.11,.04,.01,.04,.11,.04,.18,.03,1.51-.13,3.03-.17,4.55-.12,.16,0,.35-.04,.48-.13,.03-.01,.04-.03,.06-.04,.08-.06,.13-.12,.13-.21,.1-3.26,.06-6.54-.11-9.8Zm-.59,9.84v.07c-1.37-.03-2.75,.01-4.12,.13-.06-.22-.08-.45-.08-.67,.51,0,1.01-.02,1.51-.07,.13,.08,.67-.03,.66-.22-.08-1.68-.09-3.35-.06-5.03h.42s.01,.07,.01,.1c.02,.29,.71,.13,.69-.18-.09-1.24-.12-2.47-.1-3.71h.85s.07-.01,.1-.02c.18,3.2,.21,6.4,.11,9.6Z"/><path class="br" d="M50.46,52.79c.03-.68-.24-1.34-.73-1.79-.51-.47-1.2-.65-1.88-.59-1.4,.11-2.64,1.12-2.67,2.59,0,.03,.08,.04,.19,.03,.04,.11,.19,.16,.3,.14,1.5-.08,2.99-.04,4.5,.1,.16,.01,.38-.06,.45-.21,.06-.13-.03-.24-.14-.28Zm-4.59-.12c.09-1.01,.86-2.08,1.96-1.99,1.07,.09,1.87,1.01,1.94,2.05-1.3-.1-2.61-.11-3.9-.06Z"/></g><g><path class="bj" d="M63.83,48.57c.12-.08,.09-.2,.08-.35-.01-.37-.04-.73-.08-1.1-.08-.73-.19-1.47-.38-2.18-.2-.78-.48-1.54-.78-2.28,.29,.38,.57,.76,.85,1.15,.06,.09,.38-.02,.31-.12-.5-.71-1.01-1.4-1.56-2.08,.1-.06,.2-.12,.29-.19,.1-.09,.19-.2,.18-.35-.01-.14-.16-.21-.29-.2-.11,.01-.22,.04-.31,.11-.07,.04-.11,.1-.14,.17-.03,.04-.04,.09-.07,.14-.13-.09-.29-.14-.45-.19,.01-.01,.02-.03,.02-.06v-4.79c0-.09-.08-.11-.16-.11h-.28c-.07,0-.19,.06-.19,.13v1.34h-.56c-.07,0-.19,.06-.19,.13v2.82c-.28,.01-.57,.02-.85,.02-.09,.01-.18,.06-.18,.14v.35c0,.08,.08,.11,.14,.11h.04c-.32,.13-.55,.38-.66,.76-.08,.27-.12,.53-.27,.78-.12,.23-.29,.42-.43,.63-.01,.02,.23,.26,.37,.29-.01,.14,0,.29,.01,.43,.01,.12,.01,.28,.11,.37,.08,.08,.19,.09,.29,.09,.12,.01,.24,0,.37-.01,.03,.16,.06,.31,.09,.47-.03,.01-.07,.01-.08,.02-.62,.22-1.32,.42-1.85,.82-.24,.19-.41,.43-.5,.72-.11,.35-.1,.71-.14,1.07-.12,.79-.37,1.57-.57,2.34-.1,.38-.17,.77-.31,1.12-.14,.36-.38,.68-.58,1.01-.45,.71-.89,1.44-1.34,2.16-.06,.01-.11,.02-.17,.02h-.01v-7.03s.01-.12,.01-.18c.03-.01,.06-.02,.09-.03,.1-.06,.16-.16,.18-.27l.03-.17s0-.11,.02-.16c.02-.04,.08-.07,.12-.1,.01-.01,.02-.02,.04-.03,.02,0,.03-.01,.06-.02,.01-.01,.01-.02,.02-.03,.01,0,.02-.01,.03-.02,.04-.03,.04-.06,0-.07,0-.02-.01-.04-.04-.06-.46-.24-1.01-.24-1.47,0-.06,.03-.11,.09-.09,.14-.01,.01-.01,.02,0,.03t.02,.01s.04,.03,.07,.03c.03,.01,.07,.03,.1,.04,.04,.03,.09,.04,.13,.08,.07,.07,.07,.16,.08,.23,.01,.08,0,.17,.04,.24,.04,.09,.12,.12,.21,.14v7.3s-.08,.11-.12,.16c-.06,.06-.11,.11-.18,.16-.12,.09-.33,.16-.31,.33,.02,.17,.17,.21,.31,.21,.09,.14,.19,.29,.3,.42v11.26c0,.08-.02,.2,0,.27v.03s.33,0,.33-.09v-11.51c.26-.27,.52-.5,.81-.73,0-.01,.01-.01,.01-.02,.04-.01,.07-.03,.09-.07,.28-.48,.8-.78,1.18-1.17,.38-.4,.7-.85,.97-1.32,.56-1,.83-2.08,1.07-3.21,.02-.1,.04-.21,.07-.31,.02,.08,.07,.14,.1,.21,.14,.26,.3,.5,.47,.73-.14,1.39-.3,2.77-.45,4.16-.13,1.36-.11,2.71,.17,4.05,.13,.65,.36,1.29,.45,1.95,.1,.7,.02,1.41-.03,2.12-.06,.69-.11,1.37-.17,2.06-.02,.27-.03,.53-.04,.8,0,.23,.01,.49-.07,.7-.09,.24-.39,.36-.6,.47-.3,.17-.6,.36-.9,.52-.14,.08-.3,.18-.46,.22-.17,.06-.32,0-.49,.02-.23,.02-.57,.23-.46,.51,.01,.03,.03,.06,.06,.07-.02,.03-.01,.06,.07,.06l3.11-.03h.76c.23,0,.45,.06,.69,.09,.27,.04,.69-.01,.87-.26,.07-.03,.1-.08,.09-.12-.07-.46-.13-.9-.2-1.36-.06-.45-.09-.88,.01-1.31,.09-.42,.22-.82,.28-1.24,.07-.42,.08-.85,.06-1.26-.02-.45-.14-.86-.2-1.29-.07-.42,.06-.87,.11-1.29,.11-.88,.18-1.76,.23-2.65,.06-1,.09-2,.12-3.01v-.02c.2-.13,.36-.32,.45-.55,.02,.18,.04,.36,.08,.53,.02,.2,.07,.39,.1,.58,.04,.18,.12,.38,.13,.56,.01,.2-.17,.32-.27,.48-.08,.13-.14,.27-.19,.41-.1,.3-.11,.61-.04,.91,.02,.07,.1,.08,.16,.08,.07,0,.14,.01,.21,.01,.01,0,.03-.01,.04-.02-.03,.42,.19,.85,.47,1.15,.08,.08,.17-.02,.13-.1-.06-.13-.14-.27-.2-.4-.06-.19-.1-.38-.16-.57-.21-.66,1.02-.79,.75,.03-.06,.2-.32,.78-.36,.91-.01,.06-.02,.11-.03,.16-.29,.04-.58,.09-.82,.24-.01,.01-.02,.04,.01,.06,.26,.03,.52-.01,.78-.04-.03,.47,.02,.96,.02,1.4,0,.16,.23,.16,.23,0,0-.47-.02-.95,.01-1.41,.2-.01,.4-.02,.58-.11,.03-.02,.04-.09,0-.11-.17-.08-.35-.08-.53-.06,.09-.33,.28-.62,.36-.97,.06-.24,.06-.55-.09-.75,.07-.03,.12-.07,.13-.11,.09-.41-.01-.81-.02-1.22-.01-.41,.13-.79,.26-1.18,.12-.38,.18-.76,.16-1.15-.02-.42-.13-.82-.17-1.24-.07-.85-.07-1.73-.02-2.58,.11,0,.21-.02,.29-.09Zm-.26-.26v.14h-.01c0-.06,0-.1,.01-.14Zm-10.28,6.65s-.04,.04-.08,.06c-.04-.02-.1-.02-.14-.01-.02,.01-.02,.02-.04,0h0l.03-.03c.09-.04,.17-.11,.23-.17v.16Zm8.97-13.76c.02-.06,.04-.1,.08-.14h0s.01,0,.02,0c.02,.02,.03,.07,.03,.11s-.01,.09-.03,.13h-.01s-.02,.03-.02,.04c-.01,0-.02,.01-.02,.02-.01,0-.02,.01-.03,.02l-.13,.1c.04-.1,.09-.2,.12-.29Zm-2.83-.37c.28-.01,.57-.02,.85-.03,.07,0,.18-.06,.18-.13v-2.81h.57s.09-.02,.13-.04v3.13h-1.73v-.11Zm.12,.38s.08-.02,.11-.02h1.32c.24,.04,.58,.14,.75,.33h.01s.01,.03,.02,.04c-.89,.17-1.78,.19-2.67,.04h-.02c.09-.19,.23-.35,.48-.4Zm-5.96,5.46c-.01,.1-.02,.19-.07,.28-.01,0-.02,0-.03,.01t-.01-.01c-.14-.07-.11-.28-.13-.41-.02-.14-.16-.22-.28-.28,.1-.03,.21-.06,.33-.06,.16,0,.32,.03,.48,.1-.07,.04-.12,.09-.19,.13-.08,.07-.09,.13-.1,.23Zm.02,8.61v-.35h.01s.04,.03,.07,.07c.02,.02,.02,.06,.04,.09,.01,.01,.02,.03,.03,.04-.06,.04-.1,.09-.16,.14Zm.53-.48s-.08,.08-.12,.11c-.02-.03-.03-.06-.06-.08-.03-.03-.08-.07-.11-.09-.07-.04-.17-.04-.24-.01v-.19s.03,0,.06-.01c.02,.07,.19,.06,.24,.04,.03-.01,.08-.02,.11-.04,.02,0,.07-.01,.1-.03,.03,.02,.07,.04,.09,.07,.02,.02,.04,.03,.06,.06h.01c-.04,.06-.09,.12-.13,.18Zm.35-.4c-.08-.06-.17-.11-.27-.16,.09-.13,.17-.28,.26-.41,.12,.08,.23,.17,.35,.26-.12,.11-.22,.21-.33,.31Zm3.42-7.14c-.55,1.06-.62,2.28-.96,3.42-.31,1.06-.81,2.08-1.57,2.91-.1,.11-.21,.21-.33,.32-.12-.1-.26-.19-.39-.28-.01-.01-.02-.01-.04-.01,.23-.39,.47-.77,.7-1.15,.38-.62,.8-1.21,.99-1.94,.2-.75,.39-1.5,.58-2.26,.09-.37,.16-.72,.19-1.1,.02-.32,.04-.68,.23-.97,.09-.13,.21-.26,.36-.35,.12,.43,.26,.87,.4,1.3-.07,.02-.13,.06-.16,.1Zm.18-1.63c.37-.16,.73-.29,1.1-.42l.03,.17c.01,.08,.23,.02,.22-.06-.06-.3-.11-.59-.16-.89-.01-.03-.08-.03-.1-.03-.12,.02-.24,.02-.37,.02-.09,0-.2-.01-.24-.1-.06-.09-.06-.22-.06-.32-.01-.14-.02-.28-.01-.41,0-.03-.03-.04-.07-.04-.1-.01-.19-.11-.24-.19,.02-.01,.04-.02,.06-.04,.21-.31,.45-.59,.57-.96,.14,.02,.29,.03,.43,.04,.16,.02,.4,0,.53,.1,.14,.09,.04,.27,.17,.36,.07,.04,.16,.04,.23,.01,.09-.06,.1-.14,.13-.24s.12-.2,.22-.1c.07,.07,.1,.17,.1,.27-.01,.29-.35,.45-.5,.66-.2,.27-.19,.61-.21,.94-.02,.37-.04,.75-.07,1.12-.04,.81-.09,1.61-.13,2.42h0c-.03,.06-.02,.1,.04,.11,.18,.02,.36,.04,.53,.06,.18,0,.36,.01,.53-.02,.04-.01,.12-.02,.17-.07-.04,.13-.08,.27-.12,.41-.65-.03-1.29-.04-1.94-.03v-.02c-.32-.89-.61-1.79-.88-2.72h.01Zm.16,2.57c.02-.1,.04-.21,.07-.31,.06,.17,.11,.32,.17,.48-.09,0-.18,0-.27,.01,.01-.07,.02-.12,.03-.18Zm.04,.56s-.04-.1-.07-.16h0c1.09-.03,2.19-.01,3.28,.06l-.07,.17c-1.06-.02-2.1-.04-3.15-.07Zm2.86-3.31c.2,.04,.41,.09,.62,.14-.24,.69-.47,1.39-.67,2.08-.04-.73-.03-1.48,.04-2.23Zm-4.42,21.82c-.32,.01-.65,.01-.97,.01,.01-.02,.01-.04,.01-.07,0-.01-.01-.02-.01-.03,.02-.06,.2-.01,.26-.01,.16,0,.31-.03,.46-.09,.3-.12,.57-.29,.85-.45,.24-.14,.49-.29,.73-.42,.2-.11,.41-.24,.53-.43,.18-.26,.18-.6,.17-.92,.22,0,.45,.01,.66,.01v.65c.01,.2,.04,.41-.1,.57-.23,.27-.56,.48-.88,.62-.3,.13-.63,.19-.97,.2-.2,.01-.41,.03-.58,.14-.08,.04-.14,.13-.16,.22Zm2.04-2.75v-.04c0-.08,.01-.16,.01-.22,.53-.01,1.07,.01,1.59,.06-.02,.09-.03,.17-.06,.24-.51-.02-1.04-.03-1.55-.03Zm1.73,2.72c-.07,.19-.29,.08-.43,.04-.19-.03-.38-.03-.57-.03-.41,0-.83,.01-1.25,.01-.35,0-.69,.01-1.04,.01-.02-.03-.03-.06-.03-.1,0-.02,0-.03,.01-.06,.02-.01,.02-.02,.02-.03h.21c.17-.01,.35-.03,.51-.08,.38-.08,.73-.21,1.07-.4,.16-.09,.3-.19,.43-.3,.13-.1,.28-.21,.37-.36,.1-.16,.07-.38,.06-.55v-.51c.13,0,.26,0,.38,.01h.04c-.06,.77,.11,1.55,.23,2.32-.01,.01-.02,.01-.02,.02Zm.57-13.56c-.08,.03-.13,.07-.13,.12-.06,1.8-.11,3.6-.32,5.39-.06,.43-.16,.87-.17,1.3-.01,.4,.13,.8,.19,1.2,.06,.45,.06,.89,.01,1.34-.03,.35-.11,.68-.19,1-.55-.04-1.1-.07-1.65-.06,.04-.52,.08-1.05,.12-1.57,.06-.68,.14-1.37,.12-2.06-.02-.65-.2-1.28-.37-1.9-.33-1.32-.45-2.67-.33-4.04,.12-1.57,.32-3.15,.49-4.72,0-.06-.01-.09-.04-.11-.11-.16-.21-.31-.3-.47,.94,.01,1.87,.03,2.81,.04l-.03,.07c-.2,.48-.5,1.05-.41,1.58,.04,.28,.2,.52,.32,.78,.12,.24,.23,.51,.29,.78,.09,.47,0,1.02-.4,1.32Zm.92-2.1c-.06,.12-.13,.22-.18,.35-.12-.33-.31-.65-.43-.98-.23-.6,.07-1.19,.3-1.74,.09-.21,.19-.43,.28-.65,.02,.61,.04,1.21,.07,1.81,0,.2,.01,.4,.01,.61,.01,.19,.03,.4-.04,.59Zm-.37-3.14c-.1-.01-.2-.01-.3-.01,.24-.91,.52-1.8,.83-2.69,.3,.13,.58,.32,.78,.61,.23,.32,.28,.72,.26,1.12-.01,.21-.03,.43-.06,.65h-.71s-.09,.01-.13,.02c0-.08-.01-.16-.01-.23,.07-.12,.13-.26,.2-.39,.04-.07-.16-.03-.18-.03-.07,.01-.22,.04-.26,.12-.14,.27-.29,.56-.42,.84Zm1.31,.13h-.02c-.14-.01-.28-.02-.41-.03-.07-.01-.13,0-.2,.02,0-.06,0-.12-.01-.18h.77s.03-.01,.06-.01c-.01,.07-.01,.13-.02,.2h-.16Zm.14,.2v.13c-.2,.02-.4,.04-.6,.04-.06,0-.12,.03-.17,.07v-.27c.26,.02,.51,.03,.77,.02Zm-.48,7.18c-.09,.01-.18,.01-.26,.01h-.03c-.04-.08-.27-.07-.32,.04-.02,.04-.03,.09-.06,.13,.01-.21,.06-.4,.14-.59,.1-.2,.29-.37,.36-.57h.43c.01,.32,.07,.63,.03,.96-.1-.02-.2-.01-.3,.01Zm.26-1.22v.06h-.39v-.03c-.02-.13-.06-.28-.09-.41,.17,.01,.32,.02,.49,.01,.01,0,.03-.01,.04-.01-.02,.12-.04,.26-.06,.39Zm.32-1.22c-.07,.22-.14,.43-.21,.66h-.23s-.06-.01-.08-.01-.03,0-.04-.01h-.02c-.06-.01-.12-.02-.18-.03-.02,0-.06-.01-.09,0-.02-.14-.06-.28-.08-.41-.07-.4-.11-.81-.14-1.21-.01-.2-.03-.41,.06-.59,.07-.14,.17-.27,.21-.43,.03-.16,.01-.33,.01-.49-.01-.21-.01-.41-.02-.61-.01-.37-.02-.73-.03-1.09,.03,.01,.08,.02,.12,.02,.21-.01,.41-.03,.62-.06-.02,.65-.01,1.29,.02,1.93,.03,.8,.31,1.55,.09,2.35Zm-1.95-8.31s-.08-.01-.12,0c-.09-.04-.27,.01-.28,.11-.1,.86-.11,1.73-.06,2.58-.11,.01-.21,0-.33,0-.14-.01-.3-.02-.46-.04h-.02c.04-.67,.08-1.32,.12-1.99,.03-.66,.03-1.32,.12-1.98,.03-.31,.2-.47,.41-.68,.14-.13,.28-.3,.26-.51-.04-.43-.66-.52-.76-.1-.01-.06-.02-.1-.06-.14-.07-.08-.18-.11-.27-.13-.3-.07-.61-.08-.92-.1l.1-.37c.91,.12,1.83,.1,2.73-.08-.19,.85-.38,1.68-.55,2.53-.03,.14,.31,.09,.33-.03,.16-.77,.32-1.54,.5-2.3,.08,.17,.14,.32,.21,.49,.17,.4,.32,.8,.46,1.21,.29,.82,.53,1.64,.68,2.5-.49-.65-1.36-.82-2.1-.96Z"/><path class="bu" d="M59.67,42.83c-.1-.04-.19-.08-.28-.12-.09-.03-.17-.06-.27-.04-.08,.01-.18,.02-.24,.07-.03,.02-.07,.04-.1,.08-.02,.02-.19,.11-.2,.11-.01,.02-.01,.03,.01,.03,.09,.02,.19,.02,.28,.03,.08,.01,.18,.03,.27,.01,.07-.02,.13-.08,.21-.1,.08-.02,.17-.02,.26,0,.02,0,.06-.01,.08-.02,.01-.01,.01-.02,0-.03,0,0,0-.01-.01-.01Zm-.91,.09s.04-.03,.06-.04c.04,.03,.08,.06,.13,.06-.07,0-.12-.01-.19-.01Zm.46-.02s-.08,.06-.12,.04c-.06,0-.09,0-.13-.01,.03,0,.06-.01,.09-.02,.08-.02,.13-.1,.12-.18h.01s.09,.01,.13,.03c.04,.02,.1,.04,.14,.07-.08,.01-.17,.03-.24,.07Z"/><path class="bi" d="M59.3,42.57c.05,0,.11,0,.15,.02,.05,.03,.09,.08,.13,.13,.03,.04,.14,0,.1-.05-.04-.05-.09-.11-.15-.14-.05-.04-.12-.04-.18-.05-.15,0-.29,.01-.44,.02-.03,0-.06,.02-.06,.05,0,.03,.03,.04,.05,.04,.13,0,.26-.01,.39-.02Z"/></g></g><g><g><path class="bf" d="M50.94,11.44c0-.12-.31-.1-.46,0h-.3c-.24,0-.5,0-.75,0h-1.51v-.04c0-.17-.55-.06-.55,.15,.02,2.59,.1,5.18,.27,7.77,0,0,0,.02,0,.03,0,.03,.02,.04,.08,.04,.03,0,.04,0,.07,0s.05,0,.08,0c.88,0,1.76-.05,2.63-.17,.02,0,.03,0,.05,0,0,.03,0,.07,0,.1,0,.17,.56,.06,.55-.15-.12-2.57-.18-5.15-.17-7.71Zm-2.18,7.73c-.18,0-.38,0-.57,0v-.02c-.16-2.5-.24-5-.27-7.49h2.19c.05,0,.14,0,.18,0,.03,0,.05,.04,.09,.06h0c0,1.48,.02,2.96,.06,4.45-.36-.03-.71-.05-1.06-.07-.21-.02-.45-.03-.63,.1-.13,.1-.09,.35-.1,.5-.03,.82,0,1.65,.09,2.46Zm.52-.02s.03-.05,.03-.08c-.05-.49-.09-.97-.1-1.46,0-.24,0-.47,0-.72,0-.11,0-.23,0-.34,0-.05,0-.12,0-.19,.12,0,.24,.02,.36,.03,.24,.02,.47,.03,.71,.05,.05,0,.11,0,.17-.02,.02,.87,.05,1.74,.09,2.6-.42,.05-.84,.1-1.27,.12Z"/><path class="aw" d="M46.16,11.12c-2.31,0-4.62,.03-6.94,.13-.08,0-.15,.03-.2,.07-.14,.03-.28,.1-.27,.17,.09,.7,.61,1.24,1.23,1.54,.74,.35,1.59,.36,2.4,.36,.43,0,.86,0,1.28-.12,.38-.1,.75-.27,1.09-.46,.56-.31,1.28-.69,1.4-1.37,.07-.03,.13-.07,.16-.12,.05-.11-.04-.18-.15-.18Zm-.55,.42c-.1,.62-.75,.95-1.24,1.23-.32,.18-.66,.35-1.05,.38-.36,.03-.73,.02-1.1,0-.67-.02-1.37-.1-1.96-.45-.43-.26-.77-.66-.91-1.14,2.11-.08,4.22-.12,6.33-.11-.04,.02-.07,.04-.08,.08Z"/><path class="cd" d="M42.54,17.47c-1.07,.03-2.38,.79-2.18,2.01,0,.05,.03,.08,.07,.1-.06,.03-.11,.07-.08,.11,.05,.06,.3-.02,.35-.03,.1-.04,.27,0,.38-.02,.15,0,.31,0,.45-.02,.3-.02,.6-.03,.9-.03l1.81-.08h.05c.17,.06,.48-.06,.46-.26-.07-1.13-1.15-1.81-2.21-1.78Zm-.05,1.91c-.35,.02-.7,.03-1.05,.04-.19,0-.38,0-.56,.03,.02-.04,.03-.08,.03-.13-.16-.94,.89-1.5,1.7-1.46,.81,.04,1.48,.64,1.58,1.44-.57,.03-1.14,.05-1.7,.07Z"/></g><g><path class="ay" d="M61.77,1.99c-.01-.16-.19-.26-.36-.26-.18,0-.4,.1-.37,.27,0,0,.73,.02,.73,0Z"/><path class="at" d="M64.69,11.21c.12-.08,.09-.2,.08-.35-.01-.37-.04-.73-.08-1.1-.08-.73-.19-1.47-.38-2.18-.2-.78-.48-1.54-.78-2.28,.29,.38,.57,.76,.85,1.15,.06,.09,.38-.02,.31-.12-.5-.7-1.01-1.4-1.56-2.08,.1-.06,.2-.12,.29-.19,.1-.09,.19-.2,.18-.35-.01-.14-.16-.21-.29-.2-.11,.01-.22,.04-.31,.11-.07,.04-.11,.1-.14,.17-.03,.04-.04,.09-.07,.14-.13-.09-.29-.14-.45-.19-.01,0-.02,0-.03-.01h-.03s.01-.02,.01-.03c-.03-.9-.02-1.8,.01-2.71,.17-.04,.33-.1,.48-.17,.32-.14,.73-.32,.82-.65,.04,0,.07-.03,.1-.06,.03-.05-.03-.09-.1-.09-1.32-.03-2.65-.03-3.97,0-.04,0-.09,.02-.12,.04-.09,.02-.16,.05-.16,.07,.04,.34,.34,.61,.69,.77,.14,.06,.29,.1,.44,.13-.02,.9-.01,1.8,.04,2.7t.01,.02s0,0,.03,.02c-.16,.02-.31,.05-.41,.08-.32,.13-.55,.38-.66,.76-.08,.27-.12,.53-.27,.78-.12,.23-.29,.42-.43,.63,0,.03,.06,.07,.06,.07,.09,.1,.18,.19,.31,.22-.01,.14,0,.29,.01,.43,.01,.12,.01,.28,.11,.37,.08,.08,.19,.09,.29,.09,.12,.01,.24,0,.37-.01,.03,.16,.06,.31,.09,.47-.03,.01-.07,.01-.08,.02-.62,.22-1.32,.42-1.85,.82-.24,.19-.41,.43-.5,.72-.11,.35-.1,.71-.14,1.07-.12,.79-.37,1.57-.57,2.34-.1,.38-.17,.77-.31,1.12-.14,.36-.38,.68-.58,1.01-.45,.71-.89,1.44-1.34,2.16-.06,.01-.11,.02-.17,.02h-.01v-7h.01s.05-.05,.07-.06c.03-.02,.05-.04,.08-.06h.02s.1-.07,.15-.09c.08-.04,.17-.11,.21-.19,.03-.07,.03-.16-.02-.23-.13-.16-.38-.14-.55-.06-.31,.14-.59,.36-.81,.62-.1,.13-.2,.27-.27,.42-.08,.16-.16,.34-.15,.52,0,.09,.02,.15,.1,.2,.07,.05,.19,.07,.28,.06,.11-.01,.22-.04,.3-.11,.06-.05,.14-.13,.14-.22,0-.05,0-.1,.02-.15,.03-.08,.06-.15,.09-.22v6.66c-.04,.06-.08,.11-.12,.16-.06,.06-.11,.11-.18,.16-.12,.09-.33,.16-.31,.35,.02,.16,.17,.2,.31,.2,.09,.14,.19,.29,.3,.42v11.26c0,.08-.02,.2,0,.27v.03s.33,0,.33-.09v-11.51c.26-.27,.52-.5,.81-.73,0-.01,.01-.01,.01-.02,.04-.01,.07-.03,.09-.07,.28-.48,.8-.78,1.18-1.17,.38-.4,.7-.85,.97-1.32,.56-1,.84-2.08,1.07-3.21,.02-.1,.04-.21,.07-.31,.02,.08,.07,.14,.1,.21,.14,.26,.3,.5,.47,.73-.14,1.39-.3,2.77-.45,4.16-.13,1.36-.11,2.71,.17,4.05,.13,.66,.36,1.29,.45,1.95,.1,.7,.02,1.41-.03,2.12-.06,.69-.11,1.37-.17,2.06-.02,.27-.03,.53-.04,.8,0,.23,.01,.49-.07,.7-.09,.24-.39,.36-.6,.47-.3,.17-.6,.36-.9,.52-.14,.08-.3,.18-.46,.22-.17,.06-.32,0-.49,.02-.23,.02-.57,.23-.46,.51,.01,.03,.03,.06,.06,.07-.02,.03-.01,.06,.07,.06l3.11-.03h.76c.23,0,.45,.06,.69,.09,.27,.04,.69-.01,.87-.26,.07-.03,.1-.08,.09-.12-.07-.46-.13-.9-.2-1.36-.06-.45-.09-.88,.01-1.31,.09-.42,.22-.82,.28-1.24,.07-.42,.08-.85,.06-1.26-.02-.45-.14-.86-.2-1.29-.07-.42,.06-.87,.11-1.29,.11-.88,.18-1.76,.23-2.65,.06-1,.09-2,.12-3.01v-.02c.2-.13,.36-.32,.45-.55,.02,.18,.04,.36,.08,.53,.02,.2,.07,.39,.1,.58,.04,.18,.12,.38,.13,.56,.01,.2-.17,.32-.27,.48-.08,.13-.14,.27-.19,.41-.1,.3-.11,.61-.04,.91,.02,.07,.1,.08,.16,.08,.07,0,.14,.01,.21,.01,.01,0,.03-.01,.04-.02-.03,.42,.19,.86,.47,1.15,.08,.08,.17-.02,.13-.1-.06-.13-.14-.27-.2-.4-.06-.19-.1-.38-.16-.57-.21-.66,1.02-.79,.75,.03-.06,.2-.32,.79-.36,.91-.01,.06-.02,.11-.03,.16-.29,.04-.58,.09-.82,.24-.01,.01-.02,.04,.01,.06,.26,.03,.52-.01,.78-.04-.03,.47,.02,.96,.02,1.4,0,.16,.23,.16,.23,0,0-.47-.02-.95,.01-1.41,.2-.01,.4-.02,.58-.11,.03-.02,.04-.09,0-.11-.17-.08-.35-.08-.53-.06,.09-.33,.28-.62,.36-.97,.06-.24,.06-.55-.09-.75,.07-.03,.12-.07,.13-.11,.09-.41-.01-.81-.02-1.22-.01-.41,.13-.79,.26-1.18,.12-.38,.18-.76,.16-1.15-.02-.42-.13-.82-.17-1.24-.07-.85-.07-1.73-.02-2.58,.11,0,.21-.02,.29-.09Zm-.26-.26v.14h-.01s0-.1,.01-.14Zm-10.28,6.65s-.04,.04-.08,.06c-.04-.02-.1-.02-.14-.01-.02,.01-.02,.02-.04,0h0l.03-.03c.09-.04,.17-.11,.23-.17v.16ZM63.13,3.84c.02-.06,.04-.1,.08-.14h0s.01,0,.02,0c.02,.02,.03,.07,.03,.11s-.01,.09-.03,.13h-.01s-.02,.03-.02,.04c-.01,0-.02,.01-.02,.02-.01,0-.02,.01-.03,.02l-.13,.1c.04-.1,.09-.19,.12-.29Zm-1.78-.71c0-.09,.01-.18,.01-.26,0-.05,.01-.08,.01-.13v-.07c.06,0,.12,0,.18,.02,.12,0,.23,.02,.35,.03h.1c0,.32,0,.62,.01,.94-.21,.02-.43,.03-.64,.03,.01,0,.01-.02,.01-.03-.02-.17-.03-.35-.03-.52Zm-1.14-2.39c-.24-.13-.44-.32-.51-.56,1.21-.02,2.43,0,3.64,0-.03,0-.04,.03-.05,.05-.06,.3-.44,.45-.72,.58-.09,.04-.17,.07-.26,.1h0c-.11,.05-.2,.06-.32,.07-.01,0-.02,0-.03,0-.2,0-.42,0-.63,0-.11,0-.21,0-.32-.03-.17-.02-.33-.05-.49-.1-.11-.02-.21-.06-.31-.12Zm1.2,.35c.21,0,.42,0,.61-.04-.02,.51-.02,1.05-.02,1.56-.18,0-.36-.03-.54-.04-.11,0-.22-.02-.32,.03-.06,.04-.04,.13-.05,.18-.02,.3-.01,.6,.02,.9-.1,0-.19,0-.3,0,.01,0,.01,0,.01,0-.05-.87-.06-1.75-.05-2.62,.22,.03,.44,.04,.65,.04Zm-.99,2.76s.08-.02,.11-.02h1.32c.24,.04,.58,.14,.75,.33h.01s.01,.03,.02,.04c-.89,.17-1.78,.19-2.67,.04h-.02c.09-.19,.23-.35,.48-.4Zm-5.93,14.06v-.35h.01s.04,.03,.07,.07c.02,.02,.02,.06,.04,.09,.01,.01,.02,.03,.03,.04-.06,.04-.1,.09-.16,.14Zm.53-.48s-.08,.08-.12,.11c-.02-.03-.03-.06-.06-.08-.03-.03-.08-.07-.11-.09-.07-.04-.17-.04-.24-.01v-.19s.03,0,.06-.01c.02,.07,.19,.07,.24,.04,.03-.01,.08-.02,.11-.04,.02,0,.07-.01,.1-.03,.03,.02,.07,.04,.09,.07s.04,.03,.06,.06h.01c-.04,.06-.09,.12-.13,.18Zm.35-.4c-.08-.06-.17-.11-.27-.16,.09-.13,.17-.27,.26-.41,.12,.09,.23,.17,.35,.26-.12,.11-.22,.21-.33,.31Zm3.42-7.14c-.55,1.07-.62,2.28-.96,3.42-.31,1.06-.81,2.08-1.57,2.91-.1,.11-.21,.21-.33,.32-.12-.1-.26-.19-.39-.28-.01-.01-.02-.01-.04-.01,.23-.39,.47-.77,.7-1.15,.38-.62,.8-1.21,.99-1.94,.2-.75,.39-1.5,.58-2.26,.09-.37,.16-.72,.19-1.09,.02-.33,.04-.69,.23-.98,.09-.13,.21-.24,.36-.35,.12,.43,.26,.87,.4,1.3-.07,.02-.13,.06-.16,.1Zm.18-1.63c.37-.16,.73-.29,1.1-.42l.03,.17c.01,.08,.23,.02,.22-.06-.06-.3-.11-.59-.16-.89-.01-.03-.08-.03-.1-.03-.12,.02-.24,.02-.37,.02-.09,0-.2-.01-.24-.1-.06-.09-.06-.22-.06-.32-.01-.13-.02-.28-.01-.41,0-.03-.03-.04-.07-.04-.1-.01-.19-.11-.24-.19,.02-.01,.04-.02,.06-.04,.21-.31,.45-.59,.57-.96,.14,.02,.29,.03,.43,.04,.16,.02,.4,0,.53,.1,.14,.09,.04,.27,.17,.36,.07,.04,.16,.04,.23,.01,.09-.06,.1-.14,.13-.25,.03-.1,.12-.2,.22-.1,.07,.07,.1,.17,.1,.27-.01,.29-.35,.45-.5,.66-.2,.27-.19,.61-.21,.94-.02,.37-.04,.75-.07,1.12-.04,.81-.09,1.61-.13,2.43-.01,.01-.02,.03-.02,.04,0,.02,.02,.04,.07,.06,.18,.02,.36,.04,.53,.06,.18,0,.36,.01,.53-.02,.04-.01,.12-.02,.17-.07-.04,.13-.08,.27-.12,.41-.65-.03-1.29-.04-1.94-.03v-.02c-.32-.89-.61-1.79-.88-2.72h.01Zm.16,2.57c.02-.1,.04-.21,.07-.31,.06,.17,.11,.32,.17,.48-.09,0-.18,0-.27,.01,.01-.07,.02-.12,.03-.18Zm.04,.56s-.04-.1-.07-.16h0c1.09-.03,2.19-.01,3.28,.06l-.07,.17c-1.06-.02-2.1-.04-3.15-.07Zm2.86-3.31c.2,.04,.41,.09,.62,.14-.24,.69-.47,1.39-.67,2.08-.04-.73-.03-1.48,.04-2.23Zm-4.42,21.82c-.32,.01-.65,.01-.97,.01,.01-.02,.01-.04,.01-.07,0-.01-.01-.02-.01-.03,.02-.06,.2-.01,.26-.01,.16,0,.31-.03,.46-.09,.3-.12,.57-.29,.85-.45,.24-.14,.49-.29,.73-.42,.2-.11,.41-.23,.53-.43,.18-.26,.18-.6,.17-.92,.22,.01,.45,.01,.66,.01v.65c.01,.2,.04,.41-.1,.57-.23,.27-.56,.48-.88,.62-.3,.13-.63,.19-.97,.2-.2,.01-.41,.03-.58,.14-.08,.04-.14,.13-.16,.22Zm2.04-2.75v-.04c0-.08,.01-.16,.01-.22,.53-.01,1.07,.01,1.59,.06-.02,.09-.03,.17-.06,.24-.51-.02-1.04-.03-1.55-.03Zm1.73,2.72c-.07,.19-.29,.08-.43,.04-.19-.03-.38-.03-.57-.03-.41,.01-.83,.01-1.25,.01-.35,.01-.69,.01-1.04,.01-.02-.03-.03-.06-.03-.1,0-.02,0-.03,.01-.06,.02-.01,.02-.02,.02-.03h.21c.17-.01,.35-.03,.51-.08,.38-.08,.73-.21,1.07-.4,.16-.09,.3-.19,.43-.3,.13-.1,.28-.21,.37-.36,.1-.16,.07-.38,.06-.55v-.51c.13,0,.26,0,.38,.01h.04c-.06,.77,.11,1.55,.23,2.32-.01,.01-.02,.01-.02,.02Zm.57-13.56c-.08,.03-.13,.07-.13,.12-.06,1.8-.11,3.6-.32,5.39-.06,.43-.16,.87-.17,1.3-.01,.4,.13,.8,.19,1.2,.06,.45,.06,.89,.01,1.34-.03,.35-.11,.68-.19,1-.55-.04-1.1-.07-1.65-.06,.04-.52,.08-1.05,.12-1.57,.06-.68,.14-1.37,.12-2.06-.02-.65-.2-1.28-.37-1.9-.33-1.32-.45-2.67-.33-4.04,.12-1.57,.32-3.15,.49-4.72,0-.06-.01-.09-.04-.11-.11-.16-.21-.31-.3-.47,.94,.01,1.87,.03,2.81,.04l-.03,.07c-.2,.48-.5,1.05-.41,1.58,.04,.28,.2,.52,.32,.78,.12,.25,.23,.51,.29,.78,.09,.47,0,1.02-.4,1.32Zm.92-2.1c-.06,.12-.13,.22-.18,.35-.12-.33-.31-.65-.43-.98-.23-.6,.07-1.19,.3-1.74,.09-.21,.19-.43,.28-.65,.02,.61,.04,1.21,.07,1.81,0,.2,.01,.4,.01,.61,.01,.19,.03,.4-.04,.59Zm-.37-3.14c-.1-.01-.2-.01-.3-.01,.24-.91,.52-1.8,.83-2.69,.3,.13,.58,.32,.78,.61,.23,.32,.28,.72,.26,1.12-.01,.21-.03,.43-.06,.65h-.71s-.09,.01-.13,.02c0-.08-.01-.16-.01-.23,.07-.12,.13-.26,.2-.38,.04-.08-.16-.04-.18-.04-.07,.01-.22,.04-.26,.12-.14,.27-.29,.56-.42,.83Zm1.31,.13h-.02c-.14-.01-.28-.02-.41-.03-.07-.01-.13,0-.2,.02,0-.06,0-.12-.01-.18h.77s.03-.01,.06-.01c-.01,.07-.01,.13-.02,.2h-.16Zm.14,.2v.13c-.2,.02-.4,.04-.6,.04-.06,0-.12,.03-.17,.07v-.27c.26,.02,.51,.03,.77,.02Zm-.48,7.18c-.09,.01-.18,.01-.26,.01h-.03c-.04-.08-.27-.07-.32,.04-.02,.04-.03,.09-.06,.13,.01-.21,.06-.4,.14-.59,.1-.2,.29-.37,.36-.57h.43c.01,.32,.07,.63,.03,.96-.1-.02-.2-.01-.3,.01Zm.26-1.22v.06h-.39v-.03c-.02-.13-.06-.28-.09-.41,.17,.01,.32,.02,.49,.01,.01,0,.03-.01,.04-.01-.02,.12-.04,.26-.06,.39Zm.32-1.22c-.07,.22-.14,.45-.21,.66h-.23s-.06-.01-.08-.01-.03,0-.04-.01h-.02c-.06-.01-.12-.02-.18-.03h-.09c-.02-.14-.06-.28-.08-.41-.07-.4-.11-.81-.14-1.21-.01-.2-.03-.4,.06-.59,.07-.14,.17-.27,.21-.43,.03-.16,.01-.33,.01-.49-.01-.21-.01-.41-.02-.61-.01-.37-.02-.73-.03-1.09,.03,.01,.08,.02,.12,.02,.21-.01,.41-.03,.62-.06-.02,.65-.01,1.29,.02,1.93,.03,.8,.31,1.55,.09,2.35Zm-1.95-8.31s-.08-.01-.12,0c-.09-.04-.27,.01-.28,.11-.1,.86-.11,1.73-.06,2.58-.11,.01-.21,0-.33,0-.14-.01-.3-.02-.46-.04h-.02c.04-.67,.08-1.32,.12-1.99,.03-.66,.03-1.32,.12-1.98,.03-.31,.2-.47,.41-.68,.14-.13,.28-.3,.26-.51-.04-.43-.66-.52-.76-.1-.01-.06-.02-.1-.06-.14-.07-.08-.18-.11-.27-.13-.3-.07-.61-.08-.92-.1,.03-.12,.07-.24,.1-.37,.91,.12,1.83,.1,2.73-.08-.19,.85-.38,1.68-.55,2.53-.03,.14,.31,.09,.33-.03,.16-.77,.32-1.54,.5-2.3,.08,.17,.14,.32,.21,.49,.17,.4,.32,.8,.46,1.21,.29,.82,.53,1.64,.68,2.51-.49-.65-1.36-.82-2.1-.96Z"/><path class="bm" d="M60.53,5.51s.01-.02,0-.03c0,0,0-.01-.01-.01-.1-.04-.19-.08-.28-.12-.09-.03-.17-.06-.27-.04-.08,.01-.18,.02-.24,.07-.03,.02-.07,.04-.1,.08-.02,.02-.19,.11-.2,.11-.01,.02-.01,.03,.01,.03,.09,.02,.19,.02,.28,.03,.08,.01,.18,.03,.27,.01,.07-.02,.13-.08,.21-.1,.08-.02,.17-.02,.26,0,.02,0,.06-.01,.08-.02Zm-.92,.04s.04-.03,.06-.04c.04,.03,.08,.06,.13,.06-.07,0-.12-.01-.19-.01Zm.46-.02s-.08,.06-.12,.04c-.06,0-.09,0-.13-.01,.03,0,.06-.01,.09-.02,.08-.02,.13-.1,.12-.18h.01s.09,.01,.13,.03,.1,.04,.14,.07c-.08,.01-.17,.03-.24,.07Z"/><path class="bk" d="M60.15,5.21c.05,0,.11,0,.15,.02,.05,.03,.09,.08,.13,.13,.03,.04,.14,0,.1-.05-.04-.05-.09-.11-.15-.14-.05-.03-.12-.04-.18-.05-.15,0-.29,.01-.44,.02-.03,0-.06,.02-.06,.05,0,.03,.03,.04,.05,.04,.13,0,.26-.01,.39-.02Z"/></g></g><g><path class="bw" d="M16.34,5.46s.01-.02,0-.03c0,0,0-.01-.01-.01-.1-.04-.19-.08-.28-.12-.09-.03-.17-.06-.27-.04-.08,.01-.18,.02-.24,.07-.03,.02-.07,.04-.1,.08-.02,.02-.19,.11-.2,.11-.01,.02-.01,.03,.01,.03,.09,.02,.19,.02,.28,.03,.08,.01,.18,.03,.27,.01,.07-.02,.13-.08,.21-.1,.08-.02,.17-.02,.26,0,.02,0,.06-.01,.08-.02Zm-.92,.04s.04-.03,.06-.04c.04,.03,.08,.06,.13,.06-.07,0-.12-.01-.19-.01Zm.46-.02s-.08,.06-.12,.04c-.06,0-.09,0-.13-.01,.03,0,.06-.01,.09-.02,.08-.02,.13-.1,.12-.18h.01s.09,.01,.13,.03c.04,.02,.1,.04,.14,.07-.08,.01-.17,.03-.24,.07Z"/><path class="bp" d="M15.95,5.16c.05,0,.11,0,.15,.02,.05,.03,.09,.08,.13,.13,.03,.04,.14,0,.1-.05-.04-.05-.09-.11-.15-.14-.05-.04-.12-.04-.18-.05-.15,0-.29,.01-.44,.02-.03,0-.06,.02-.06,.05,0,.03,.03,.04,.05,.04,.13,0,.26-.01,.39-.02Z"/><path class="c`" d="M4.39,19.28c-.46-.42-1.08-.58-1.69-.53-1.26,.1-2.37,1.01-2.39,2.34,0,.03,.07,.03,.16,.03,.04,.09,.18,.13,.28,.12,1.36-.07,2.71-.03,4.04,.09,.16,.01,.35-.04,.4-.19,.07-.11-.01-.21-.12-.26,.03-.6-.21-1.19-.67-1.6Zm-3.46,1.5c.09-.91,.77-1.88,1.77-1.8,.96,.08,1.68,.91,1.74,1.85-1.16-.08-2.34-.1-3.51-.04Z"/><path class="bd" d="M3.11,16.14c.94-.18,1.67-.99,1.68-1.95-.01-.61-.29-1.18-.77-1.55,.09-.02,.18-.06,.24-.12h.01s.02-.01,.03-.02c.01-.03,.02-.06,.02-.07v-.7c0-.07-.14-.07-.19-.07H1.66c-.13,0-.43,.06-.43,.23v.68c0,.08,.14,.08,.18,.08h.13c-.13,.1-.26,.2-.37,.33-.53,.62-.61,1.54-.19,2.25,.43,.73,1.31,1.06,2.13,.9Zm-1.57-2.73c.29-.5,.87-.78,1.44-.66,.69,.13,1.18,.79,1.19,1.48-.01,.6-.33,1.18-.91,1.39-.57,.2-1.21-.02-1.58-.48-.38-.49-.46-1.19-.13-1.74Z"/><path class="ar" d="M20.49,11.16c.12-.08,.09-.2,.08-.35-.01-.37-.04-.73-.08-1.1-.08-.73-.19-1.47-.38-2.18-.2-.78-.48-1.54-.78-2.28,.29,.38,.57,.76,.85,1.15,.06,.09,.38-.02,.31-.12-.5-.7-1.01-1.4-1.56-2.08,.1-.06,.2-.12,.29-.19,.1-.09,.19-.2,.18-.35-.01-.14-.16-.21-.29-.2-.11,.01-.22,.04-.31,.11-.07,.04-.11,.1-.14,.17-.03,.04-.04,.09-.07,.14-.13-.09-.29-.14-.45-.19,0,0-.21,0-.48,0,.4-.17,.68-.56,.68-1.02,0-.39-.21-.71-.51-.91l.17-.38h-1.54l.12,.41h.01c-.28,.2-.48,.52-.48,.89,0,.46,.29,.86,.69,1.03-.25,0-.44,0-.43,0-.17,.02-.31,.04-.41,.08-.32,.13-.55,.38-.66,.76-.08,.27-.12,.53-.27,.78-.12,.23-.29,.42-.43,.63,0,.03,.06,.07,.06,.07,.09,.1,.18,.19,.31,.22-.01,.14,0,.29,.01,.43,.01,.12,.01,.28,.11,.37,.08,.08,.19,.09,.29,.09,.12,.01,.24,0,.37-.01,.03,.16,.06,.31,.09,.47-.03,.01-.07,.01-.08,.02-.62,.22-1.32,.42-1.85,.82-.24,.19-.41,.43-.5,.72-.11,.35-.1,.71-.14,1.07-.12,.79-.37,1.57-.57,2.34-.1,.38-.17,.77-.31,1.12-.14,.36-.38,.68-.58,1.01-.41,.66-.83,1.33-1.23,1.99-.1,.08-.18,.18-.29,.25-.22,.13-.45,.24-.65,.41-.18,.16-.36,.32-.43,.55-.05,.19-.03,.43-.17,.58-.05,.05-.02,.13,.04,.15,.07,.03,.16,0,.21-.06,.14-.17,.15-.38,.19-.58,.04-.24,.23-.4,.41-.55,.2-.16,.44-.26,.65-.4,.06-.04,.11-.1,.16-.14l.41,.26s-.09,.04-.1,.07c-.04,.1-.07,.2-.09,.3-.01,.05-.02,.1-.03,.15,0,.02,0,.04-.01,.06,0,.01-.01,.02-.02,.03-.08,.07-.17,.12-.25,.18-.09,.06-.17,.12-.26,.18,0-.04,0-.08,.02-.13,0-.03,.02-.07,.04-.1,0,0,.01-.02,.02-.03,.02-.02-.01,0,0,0,0,0,.02-.01,.03-.02,.05-.04,.07-.12,.02-.16-.06-.05-.15-.02-.21,.02-.02,.01-.04,.03-.06,.05,.01-.02,.02-.03,.03-.05,.03-.04-.11-.03-.12-.03-.06,.01-.14,.03-.18,.08,.02-.02,.03-.05,.05-.07,.04-.05,.03-.11-.03-.13-.07-.02-.16,0-.21,.06-.07,.08-.14,.16-.19,.25-.06,.1-.08,.21-.08,.32,0,.1-.02,.18-.07,.27-.02,.04-.05,.07-.08,.09-.03,.03-.05,.04-.08,.06-.05,.02-.12,.08-.07,.14,.04,.06,.15,.04,.2,.02,.19-.09,.35-.27,.39-.48,0,.02,0,.03,0,.05,0,.1,0,.2-.06,.28-.05,.08-.14,.1-.19,.17-.03,.04,.11,.03,.12,.03,.06-.01,.14-.03,.18-.08,.02-.03,.06-.05,.09-.07,.04-.03,.07-.06,.1-.1-.02,.06-.06,.12-.1,.17-.05,.05-.02,.12,.04,.15,.07,.03,.16,0,.21-.06,.14-.15,.19-.34,.2-.54,.06,.03,.14,0,.19-.03,.09-.06,.18-.13,.28-.19,.09-.07,.19-.13,.28-.2,.05-.04,.08-.09,.09-.15,.01-.05,.02-.1,.03-.15,.02-.1,.05-.2,.08-.3,.3-.41,.76-.69,1.1-1.05,.38-.4,.7-.85,.97-1.32,.56-1,.83-2.08,1.07-3.21,.02-.1,.04-.21,.07-.31,.02,.08,.07,.14,.1,.21,.14,.26,.3,.5,.47,.73-.14,1.39-.3,2.77-.45,4.16-.13,1.36-.11,2.71,.17,4.05,.13,.66,.36,1.29,.45,1.95,.1,.7,.02,1.41-.03,2.12-.06,.69-.11,1.37-.17,2.06-.02,.27-.03,.53-.04,.8,0,.23,.01,.49-.07,.7-.09,.24-.39,.36-.6,.47-.3,.17-.6,.36-.9,.52-.14,.08-.3,.18-.46,.22-.17,.06-.32,0-.49,.02-.23,.02-.57,.23-.46,.51,.01,.03,.03,.06,.06,.07-.02,.03-.01,.06,.07,.06l3.11-.03h.76c.23,0,.45,.06,.69,.09,.27,.04,.69-.01,.87-.26,.07-.03,.1-.08,.09-.12-.07-.46-.13-.9-.2-1.36-.06-.45-.09-.88,.01-1.31,.09-.42,.22-.82,.28-1.24,.07-.42,.08-.85,.06-1.26-.02-.45-.14-.86-.2-1.29-.07-.42,.06-.87,.11-1.29,.11-.88,.18-1.76,.23-2.65,.06-1,.09-2,.12-3.01v-.02c.2-.13,.36-.32,.45-.55,.02,.18,.04,.36,.08,.53,.02,.2,.07,.39,.1,.58,.04,.18,.12,.38,.13,.56,.01,.2-.17,.32-.27,.48-.08,.13-.14,.27-.19,.41-.1,.3-.11,.61-.04,.91,.02,.07,.1,.08,.16,.08,.07,0,.14,.01,.21,.01,.01,0,.03-.01,.04-.02-.03,.42,.19,.86,.47,1.15,.08,.08,.17-.02,.13-.1-.06-.13-.14-.27-.2-.4-.06-.19-.1-.38-.16-.57-.21-.66,1.02-.79,.75,.03-.06,.2-.32,.79-.36,.91-.01,.06-.02,.11-.03,.16-.29,.04-.58,.09-.82,.24-.01,.01-.02,.04,.01,.06,.26,.03,.52-.01,.78-.04-.03,.47,.02,.96,.02,1.4,0,.16,.23,.16,.23,0,0-.47-.02-.95,.01-1.41,.2-.01,.4-.02,.58-.11,.03-.02,.04-.09,0-.11-.17-.08-.35-.08-.53-.06,.09-.33,.28-.62,.36-.97,.06-.24,.06-.55-.09-.75,.07-.03,.12-.07,.13-.11,.09-.41-.01-.81-.02-1.22-.01-.41,.13-.79,.26-1.18,.12-.38,.18-.76,.16-1.15-.02-.42-.13-.82-.17-1.24-.07-.85-.07-1.73-.02-2.58,.11,0,.21-.02,.29-.09Zm-.26-.26v.14h-.01s0-.1,.01-.14Zm-10.46,7.27c0-.07,0-.15,.03-.22,.03-.07,.08-.12,.13-.18-.09,.12-.14,.25-.16,.39ZM18.93,3.79c.02-.06,.04-.1,.08-.14h0s.01,0,.02,0c.02,.02,.03,.07,.03,.11s-.01,.09-.03,.13h-.01s-.02,.03-.02,.04c-.01,0-.02,.01-.02,.02-.01,0-.02,.01-.03,.02l-.13,.1c.04-.1,.09-.19,.12-.29Zm-2.71,.01s.08-.02,.11-.02h1.32c.24,.04,.58,.14,.75,.33h.01s.01,.03,.02,.04c-.89,.17-1.78,.19-2.67,.04h-.02c.09-.19,.23-.35,.48-.4Zm-5.05,13.18c-.08-.06-.17-.11-.27-.16,.05-.07,.24-.39,.26-.41,.12,.09,.23,.17,.35,.26-.12,.11-.22,.21-.33,.31Zm3.42-7.14c-.55,1.07-.62,2.28-.96,3.42-.31,1.06-.81,2.08-1.57,2.91-.1,.11-.21,.21-.33,.32-.12-.1-.26-.19-.39-.28-.01-.01-.02-.01-.04-.01,.23-.39,.47-.77,.7-1.15,.38-.62,.8-1.21,.99-1.94,.2-.75,.39-1.5,.58-2.26,.09-.37,.16-.72,.19-1.09,.02-.33,.04-.69,.23-.98,.09-.13,.21-.24,.36-.35,.12,.43,.26,.87,.4,1.3-.07,.02-.13,.06-.16,.1Zm.18-1.63c.37-.16,.73-.29,1.1-.42l.03,.17c.01,.08,.23,.02,.22-.06-.06-.3-.11-.59-.16-.89-.01-.03-.08-.03-.1-.03-.12,.02-.24,.02-.37,.02-.09,0-.2-.01-.24-.1-.06-.09-.06-.22-.06-.32-.01-.13-.02-.28-.01-.41,0-.03-.03-.04-.07-.04-.1-.01-.19-.11-.24-.19,.02-.01,.04-.02,.06-.04,.21-.31,.45-.59,.57-.96,.14,.02,.29,.03,.43,.04,.16,.02,.4,0,.53,.1,.14,.09,.04,.27,.17,.36,.07,.04,.16,.04,.23,.01,.09-.06,.1-.14,.13-.24s.12-.2,.22-.1c.07,.07,.1,.17,.1,.27-.01,.29-.35,.45-.5,.66-.2,.27-.19,.61-.21,.94-.02,.37-.04,.75-.07,1.12-.04,.81-.09,1.61-.13,2.43-.01,.01-.02,.03-.02,.04,0,.02,.02,.04,.07,.06,.18,.02,.36,.04,.53,.06,.18,0,.36,.01,.53-.02,.04-.01,.12-.02,.17-.07-.04,.13-.08,.27-.12,.41-.65-.03-1.29-.04-1.94-.03v-.02c-.32-.89-.61-1.79-.88-2.72h.01Zm.16,2.57c.02-.1,.04-.21,.07-.31,.06,.17,.11,.32,.17,.48-.09,0-.18,0-.27,.01,.01-.07,.02-.12,.03-.18Zm.04,.56s-.04-.1-.07-.16h0c1.09-.03,2.19-.01,3.28,.06l-.07,.17c-1.06-.02-2.1-.04-3.15-.07Zm2.86-3.31c.2,.04,.41,.09,.62,.14-.24,.69-.47,1.39-.67,2.08-.04-.73-.03-1.48,.04-2.23Zm-4.42,21.82c-.32,.01-.65,.01-.97,.01,.01-.02,.01-.04,.01-.07,0-.01-.01-.02-.01-.03,.02-.06,.2-.01,.26-.01,.16,0,.31-.03,.46-.09,.3-.12,.57-.29,.85-.45,.24-.14,.49-.29,.73-.42,.2-.11,.41-.23,.53-.43,.18-.26,.18-.6,.17-.92,.22,.01,.45,.01,.66,.01v.65c.01,.2,.04,.41-.1,.57-.23,.27-.56,.48-.88,.62-.3,.13-.63,.19-.97,.2-.2,.01-.41,.03-.58,.14-.08,.04-.14,.13-.16,.22Zm2.04-2.75v-.04c0-.08,.01-.16,.01-.22,.53-.01,1.07,.01,1.59,.06-.02,.09-.03,.17-.06,.24-.51-.02-1.04-.03-1.55-.03Zm1.73,2.72c-.07,.19-.29,.08-.43,.04-.19-.03-.38-.03-.57-.03-.41,.01-.83,.01-1.25,.01-.35,.01-.69,.01-1.04,.01-.02-.03-.03-.06-.03-.1,0-.02,0-.03,.01-.06,.02-.01,.02-.02,.02-.03h.21c.17-.01,.35-.03,.51-.08,.38-.08,.73-.21,1.07-.4,.16-.09,.3-.19,.43-.3,.13-.1,.28-.21,.37-.36,.1-.16,.07-.38,.06-.55v-.51c.13,0,.26,0,.38,.01h.04c-.06,.77,.11,1.55,.23,2.32-.01,.01-.02,.01-.02,.02Zm.57-13.56c-.08,.03-.13,.07-.13,.12-.06,1.8-.11,3.6-.32,5.39-.06,.43-.16,.87-.17,1.3-.01,.4,.13,.8,.19,1.2,.06,.45,.06,.89,.01,1.34-.03,.35-.11,.68-.19,1-.55-.04-1.1-.07-1.65-.06,.04-.52,.08-1.05,.12-1.57,.06-.68,.14-1.37,.12-2.06-.02-.65-.2-1.28-.37-1.9-.33-1.32-.45-2.67-.33-4.04,.12-1.57,.32-3.15,.49-4.72,0-.06-.01-.09-.04-.11-.11-.16-.21-.31-.3-.47,.94,.01,1.87,.03,2.81,.04l-.03,.07c-.2,.48-.5,1.05-.41,1.58,.04,.28,.2,.52,.32,.78,.12,.24,.23,.51,.29,.78,.09,.47,0,1.02-.4,1.32Zm.92-2.1c-.06,.12-.13,.22-.18,.35-.12-.33-.31-.65-.43-.98-.23-.6,.07-1.19,.3-1.74,.09-.21,.19-.43,.28-.65,.02,.61,.04,1.21,.07,1.81,0,.2,.01,.4,.01,.61,.01,.19,.03,.4-.04,.59Zm-.37-3.14c-.1-.01-.2-.01-.3-.01,.24-.91,.52-1.8,.83-2.69,.3,.13,.58,.32,.78,.61,.23,.32,.28,.72,.26,1.12-.01,.21-.03,.43-.06,.65h-.71s-.09,.01-.13,.02c0-.08-.01-.16-.01-.23,.07-.12,.13-.26,.2-.38,.04-.08-.16-.04-.18-.04-.07,.01-.22,.04-.26,.12-.14,.27-.29,.56-.42,.84Zm1.31,.13h-.02c-.14-.01-.28-.02-.41-.03-.07-.01-.13,0-.2,.02,0-.06,0-.12-.01-.18h.77s.03-.01,.06-.01c-.01,.07-.01,.13-.02,.2h-.16Zm.14,.2v.13c-.2,.02-.4,.04-.6,.04-.06,0-.12,.03-.17,.07v-.27c.26,.02,.51,.03,.77,.02Zm-.18,7.17c-.1-.02-.2-.01-.3,.01-.09,.01-.18,.01-.26,.01h-.03c-.04-.08-.27-.07-.32,.04-.02,.04-.03,.09-.06,.13,.01-.21,.06-.4,.14-.59,.1-.2,.29-.37,.36-.57h.43c.01,.32,.07,.63,.03,.96Zm-.04-1.21v.06h-.39v-.03c-.02-.13-.06-.28-.09-.41,.17,.01,.32,.02,.49,.01,.01,0,.03-.01,.04-.01-.02,.12-.04,.26-.06,.39Zm.32-1.22c-.07,.22-.14,.45-.21,.66h-.23s-.06-.01-.08-.01-.03,0-.04-.01h-.02c-.06-.01-.12-.02-.18-.03h-.09c-.02-.14-.06-.28-.08-.41-.07-.4-.11-.81-.14-1.21-.01-.2-.03-.4,.06-.59,.07-.14,.17-.27,.21-.43,.03-.16,.01-.33,.01-.49-.01-.21-.01-.41-.02-.61-.01-.37-.02-.73-.03-1.09,.03,.01,.08,.02,.12,.02,.21-.01,.41-.03,.62-.06-.02,.65-.01,1.29,.02,1.93,.03,.8,.31,1.55,.09,2.35Zm-1.95-8.31s-.08-.01-.12,0c-.09-.04-.27,.01-.28,.11-.1,.86-.11,1.73-.06,2.58-.11,.01-.21,0-.33,0-.14-.01-.3-.02-.46-.04h-.02c.04-.67,.08-1.32,.12-1.99,.03-.66,.03-1.32,.12-1.98,.03-.31,.2-.47,.41-.68,.14-.13,.28-.3,.26-.51-.04-.43-.66-.52-.76-.1-.01-.06-.02-.1-.06-.14-.07-.08-.18-.11-.27-.13-.3-.07-.61-.08-.92-.1,.03-.12,.07-.24,.1-.37,.91,.12,1.83,.1,2.73-.08-.19,.85-.38,1.68-.55,2.53-.03,.14,.31,.09,.33-.03,.16-.77,.32-1.54,.5-2.3,.08,.17,.14,.32,.21,.49,.17,.4,.32,.8,.46,1.21,.29,.82,.53,1.64,.68,2.5-.49-.65-1.36-.82-2.1-.96Z"/></g></g></g></g></g></svg>