<svg xmlns="http://www.w3.org/2000/svg" xmlns:xlink="http://www.w3.org/1999/xlink" viewBox="0 0 73.85 75.53"><defs><style>.cls-1{isolation:isolate;}.cls-2{fill:url(#radial-gradient);}.cls-27,.cls-3,.cls-8{fill:#ffcf00;}.cls-24,.cls-27,.cls-3,.cls-30,.cls-45,.cls-46,.cls-47,.cls-48,.cls-49,.cls-51,.cls-53,.cls-54,.cls-55,.cls-56,.cls-58,.cls-59,.cls-6,.cls-67,.cls-70,.cls-72,.cls-8{mix-blend-mode:screen;}.cls-3{opacity:0.15;}.cls-10,.cls-13,.cls-14,.cls-15,.cls-19,.cls-20,.cls-22,.cls-26,.cls-29,.cls-31,.cls-4,.cls-41,.cls-42,.cls-44,.cls-5,.cls-63,.cls-65,.cls-68,.cls-69,.cls-7,.cls-71,.cls-74,.cls-75,.cls-76,.cls-78,.cls-81{mix-blend-mode:multiply;}.cls-10,.cls-4{opacity:0.59;}.cls-10,.cls-14,.cls-15,.cls-20,.cls-31,.cls-5,.cls-6,.cls-74{fill:#e07d04;}.cls-5{opacity:0.51;}.cls-6,.cls-8{opacity:0.28;}.cls-7{fill:#fba400;opacity:0.21;}.cls-9{opacity:0.71;}.cls-11,.cls-42,.cls-81{opacity:0.47;}.cls-12,.cls-17{fill:#ffd;}.cls-12{opacity:0.78;}.cls-13{opacity:0.31;}.cls-14{opacity:0.16;}.cls-15{opacity:0.35;}.cls-16{fill:url(#radial-gradient-2);}.cls-18{fill:url(#Безымянный_градиент_16);}.cls-19{fill:#e37d00;}.cls-19,.cls-25{opacity:0.37;}.cls-20{opacity:0.24;}.cls-21,.cls-37,.cls-60{fill:#fffc56;}.cls-21,.cls-36{opacity:0.8;}.cls-22{fill:#d06d00;opacity:0.34;}.cls-23{fill:#ffd000;}.cls-24{fill:#f7ae11;opacity:0.17;}.cls-25{fill:#fff933;}.cls-26{fill:#b95e04;opacity:0.33;}.cls-27{opacity:0.54;}.cls-28{fill:#962b00;}.cls-29,.cls-30{fill:#cf6700;}.cls-29,.cls-34{opacity:0.67;}.cls-31,.cls-51,.cls-63{opacity:0.64;}.cls-32{fill:url(#Безымянный_градиент_195);}.cls-33{fill:url(#Безымянный_градиент_61);}.cls-34{fill:#ffe510;}.cls-35,.cls-71{opacity:0.83;}.cls-38{fill:url(#Безымянный_градиент_195-2);}.cls-39{fill:url(#Безымянный_градиент_195-3);}.cls-40{fill:url(#Безымянный_градиент_61-2);}.cls-41,.cls-42{fill:#9f3b00;}.cls-41,.cls-65{opacity:0.65;}.cls-43{fill:url(#Безымянный_градиент_53);}.cls-44{opacity:0.74;fill:url(#Безымянный_градиент_53-2);}.cls-45{fill:url(#Безымянный_градиент_53-3);}.cls-46{fill:url(#Безымянный_градиент_53-4);}.cls-47{fill:url(#Безымянный_градиент_53-5);}.cls-48{fill:url(#Безымянный_градиент_58);}.cls-49{fill:url(#Безымянный_градиент_58-2);}.cls-50{fill:url(#Безымянный_градиент_58-3);}.cls-51{fill:url(#Безымянный_градиент_58-4);}.cls-52{opacity:0.46;fill:url(#Безымянный_градиент_58-5);}.cls-53{fill:url(#Безымянный_градиент_58-6);}.cls-54{fill:url(#Безымянный_градиент_58-7);}.cls-55{fill:url(#Безымянный_градиент_58-8);}.cls-56{fill:url(#Безымянный_градиент_58-9);}.cls-57{opacity:0.55;fill:url(#Безымянный_градиент_58-10);}.cls-58{fill:url(#Безымянный_градиент_58-11);}.cls-59{fill:url(#Безымянный_градиент_58-12);}.cls-60{opacity:0.81;}.cls-61{fill:#fff;}.cls-62{fill:#c86000;}.cls-64{fill:#ffa000;}.cls-65,.cls-71,.cls-72,.cls-75{fill:#e38000;}.cls-66,.cls-68{fill:red;}.cls-67,.cls-70{fill:#ff3336;}.cls-67{opacity:0.49;}.cls-68{opacity:0.75;}.cls-69{fill:#dc1a00;opacity:0.9;}.cls-73{fill:url(#Безымянный_градиент_195-4);}.cls-74{opacity:0.42;}.cls-75{opacity:0.5;}.cls-76{fill:#ac5600;}.cls-76,.cls-78{opacity:0.32;}.cls-77{fill:url(#Безымянный_градиент_195-5);}.cls-78{fill:#cd6f00;}.cls-79{fill:url(#Безымянный_градиент_195-6);}.cls-80{fill:url(#Безымянный_градиент_195-7);}.cls-82{fill:url(#Безымянный_градиент_195-8);}.cls-83{fill:url(#Безымянный_градиент_195-9);}</style><radialGradient id="radial-gradient" cx="36.93" cy="17.82" r="56.11" gradientUnits="userSpaceOnUse"><stop offset="0" stop-color="#ffdf00"/><stop offset="1" stop-color="#ffad00"/></radialGradient><radialGradient id="radial-gradient-2" cx="11.89" cy="45.11" r="1.97" xlink:href="#radial-gradient"/><radialGradient id="Безымянный_градиент_16" cx="40.09" cy="54.37" r="43.28" gradientTransform="matrix(1, -0.02, 0.02, 1.01, -5.82, 11.2)" gradientUnits="userSpaceOnUse"><stop offset="0" stop-color="#ffdb00"/><stop offset="0.8" stop-color="#e09200"/><stop offset="1" stop-color="#d87f00"/></radialGradient><linearGradient id="Безымянный_градиент_195" x1="11.89" y1="72.18" x2="12.23" y2="81.75" gradientTransform="translate(-4.93 -32.47) rotate(-15.91)" gradientUnits="userSpaceOnUse"><stop offset="0" stop-color="#ffd300"/><stop offset="1" stop-color="#ffbd10"/></linearGradient><linearGradient id="Безымянный_градиент_61" x1="11.94" y1="73.26" x2="12.1" y2="79.48" gradientTransform="translate(-4.93 -32.47) rotate(-15.91)" gradientUnits="userSpaceOnUse"><stop offset="0" stop-color="#ffe200"/><stop offset="1" stop-color="#ffa210"/></linearGradient><linearGradient id="Безымянный_градиент_195-2" x1="-291.78" y1="-14" x2="-291.44" y2="-4.43" gradientTransform="matrix(-0.96, -0.27, -0.27, 0.96, -235.77, -32.47)" xlink:href="#Безымянный_градиент_195"/><linearGradient id="Безымянный_градиент_195-3" x1="37.52" y1="35.96" x2="37.88" y2="46.04" gradientTransform="matrix(1, 0, 0, 1, 0, 0)" xlink:href="#Безымянный_градиент_195"/><linearGradient id="Безымянный_градиент_61-2" x1="37.57" y1="37.1" x2="37.74" y2="43.65" gradientTransform="matrix(1, 0, 0, 1, 0, 0)" xlink:href="#Безымянный_градиент_61"/><linearGradient id="Безымянный_градиент_53" x1="-121.06" y1="228.29" x2="-119.26" y2="224.6" gradientTransform="translate(153.4 -170.24) rotate(0.74)" gradientUnits="userSpaceOnUse"><stop offset="0" stop-color="red"/><stop offset="0.3" stop-color="#ff224a"/><stop offset="1" stop-color="#ff73ff"/></linearGradient><linearGradient id="Безымянный_градиент_53-2" x1="-118.13" y1="227.21" x2="-120.54" y2="224.07" xlink:href="#Безымянный_градиент_53"/><linearGradient id="Безымянный_градиент_53-3" x1="-121.52" y1="225.45" x2="-120.92" y2="224.22" xlink:href="#Безымянный_градиент_53"/><linearGradient id="Безымянный_градиент_53-4" x1="897.17" y1="226.07" x2="897.75" y2="224.88" gradientTransform="matrix(-1, -0.01, -0.01, 1, 932.89, -160.84)" xlink:href="#Безымянный_градиент_53"/><linearGradient id="Безымянный_градиент_53-5" x1="-120.04" y1="225.16" x2="-119.52" y2="224.09" xlink:href="#Безымянный_градиент_53"/><linearGradient id="Безымянный_градиент_58" x1="-118.8" y1="225.77" x2="-118.27" y2="224.69" gradientTransform="translate(153.4 -170.24) rotate(0.74)" gradientUnits="userSpaceOnUse"><stop offset="0" stop-color="red"/><stop offset="0.3" stop-color="#ff294a"/><stop offset="1" stop-color="#ff8cff"/></linearGradient><linearGradient id="Безымянный_градиент_58-2" x1="-117.49" y1="225.37" x2="-117.14" y2="224.65" xlink:href="#Безымянный_градиент_58"/><linearGradient id="Безымянный_градиент_58-3" x1="-120.21" y1="228.66" x2="-118.76" y2="225.69" xlink:href="#Безымянный_градиент_58"/><linearGradient id="Безымянный_градиент_58-4" x1="-119.83" y1="228.86" x2="-118.23" y2="225.58" xlink:href="#Безымянный_градиент_58"/><linearGradient id="Безымянный_градиент_58-5" x1="-121.17" y1="228.14" x2="-120.05" y2="225.84" xlink:href="#Безымянный_градиент_58"/><linearGradient id="Безымянный_градиент_58-6" x1="-118.83" y1="225.77" x2="-118.15" y2="224.38" xlink:href="#Безымянный_градиент_58"/><linearGradient id="Безымянный_градиент_58-7" x1="-119.65" y1="226.39" x2="-118.84" y2="224.74" xlink:href="#Безымянный_градиент_58"/><linearGradient id="Безымянный_градиент_58-8" x1="-119.53" y1="228.99" x2="-118.08" y2="226.02" xlink:href="#Безымянный_градиент_58"/><linearGradient id="Безымянный_градиент_58-9" x1="-120.34" y1="228.54" x2="-119.21" y2="226.22" xlink:href="#Безымянный_градиент_58"/><linearGradient id="Безымянный_градиент_58-10" x1="-121.15" y1="228.1" x2="-120.34" y2="226.45" xlink:href="#Безымянный_градиент_58"/><linearGradient id="Безымянный_градиент_58-11" x1="-120.44" y1="225.22" x2="-120.07" y2="224.47" xlink:href="#Безымянный_градиент_58"/><linearGradient id="Безымянный_градиент_58-12" x1="-119.27" y1="225.25" x2="-118.69" y2="224.05" xlink:href="#Безымянный_градиент_58"/><linearGradient id="Безымянный_градиент_195-4" x1="17.25" y1="59.83" x2="17.81" y2="74.45" gradientTransform="matrix(1, 0, 0, 1, 0, 0)" xlink:href="#Безымянный_градиент_195"/><linearGradient id="Безымянный_градиент_195-5" x1="57.94" y1="60.63" x2="56.56" y2="76.35" gradientTransform="matrix(1, 0, 0, 1, 0, 0)" xlink:href="#Безымянный_градиент_195"/><linearGradient id="Безымянный_градиент_195-6" x1="62.67" y1="0.55" x2="61.97" y2="12.62" gradientTransform="matrix(1, 0, 0, 1, 0, 0)" xlink:href="#Безымянный_градиент_195"/><linearGradient id="Безымянный_градиент_195-7" x1="65.15" y1="41.9" x2="65.15" y2="53.03" gradientTransform="matrix(1, 0, 0, 1, 0, 0)" xlink:href="#Безымянный_градиент_195"/><linearGradient id="Безымянный_градиент_195-8" x1="-652.88" y1="41.52" x2="-652.88" y2="52.65" gradientTransform="matrix(-1, 0, 0, 1, -644.18, 0)" xlink:href="#Безымянный_градиент_195"/><linearGradient id="Безымянный_градиент_195-9" x1="11.92" y1="0.82" x2="11.22" y2="13" gradientTransform="matrix(1, 0, 0, 1, 0, 0)" xlink:href="#Безымянный_градиент_195"/></defs><g class="cls-1"><g id="Слой_2" data-name="Слой 2"><g id="Layer_1" data-name="Layer 1"><path class="cls-2" d="M66.17,51.1a3.36,3.36,0,0,1-.68-2.35,5.33,5.33,0,0,1,.68-2.53V18.3c0-3.87,1.09-9-1-12.36-.72-1.13-3.22-1.17-4.24-1.34-2.81-.48-5.64-.74-8.46-1C47.13,3.17,41.93,3,36.71,3h-.13c-5.22,0-10.42.19-15.76.64-2.82.24-5.65.5-8.45,1-1,.17-3.52.21-4.24,1.34-1.56,2.46-.9,6.71-.9,9.61v0a6.29,6.29,0,0,1,0,6V47.05c0,6-.29,12.29.57,18.29C8.33,69,12,69.86,15.16,70.71a76.27,76.27,0,0,0,11.33,2.38,74.74,74.74,0,0,0,10.15.3c1.58,0,3.16,0,4.74,0a5.23,5.23,0,0,1,5.08-.62,3.9,3.9,0,0,1,.64.26,78,78,0,0,0,11-2.34,13.87,13.87,0,0,0,5.76-2.65c2.55-2.29,2.29-6.77,2.29-9.84Z"/><path class="cls-3" d="M16,32.41c1,3.11.76,5.86.74,9.07,0,2.78,1.37,4.7,3.41,6.48a30.21,30.21,0,0,1,3.75,3.4c1.25,1.52,2.26,3.3,3.41,4.92,1.91,2.68,4.31,5.33,7.91,5,1.8-.17,3.18-1.11,4.73-2,2-1.08,4-2,6.05-3,1.8-.87,3.36-2,5.47-1.66,1.44.26,2.9,1.21,4.4,1,1.91-.27,2.41-2.07,3.32-3.51.24-.38,1.85-6.08.56-5.77-1.93.46-3.48,3.88-5.39,1.21s-.83-7,.71-9.48c.53-.83,2.3-2.74,3.3-1.54.56-.39.17-1.12.11-1.71-.19-1.93.59-3.7,1.13-5.51a27.92,27.92,0,0,0,1.11-10.08c-.08-1.4.14-3.3-.3-4.63-.38-1.17-1-2.09-1.38-3.32S58.56,9,57.22,8.44a5.07,5.07,0,0,0-3.31,0c-2,.75-3.58,2-5.82,1.25a8.07,8.07,0,0,1-3-2.05c-.67-.7-.84-1.56-1.82-1.91s-2.89-.13-4.08-.16a68.59,68.59,0,0,0-9.72.28c-1.76.2-6.15.45-6.48,2.81-.11.8.6,1.43.83,2.12a3,3,0,0,1-.46,3c-1.79,2.45-5.07,3.09-6.95,5.28-1.65,1.92-.68,3.7-1.2,5.81a13.61,13.61,0,0,0-.72,2.3,6.11,6.11,0,0,0,.69,3.08A21.08,21.08,0,0,1,16,32.41Z"/><g class="cls-4"><path class="cls-5" d="M63.38,46c-1.33-.68-1.52-2.9-1-4.15s1.72-1.67,2.24,0C64.92,42.93,65.21,47,63.38,46Z"/><path class="cls-5" d="M63.36,40.81l.1.18.11.22,0,.14c0,.1.07.2.11.29s.11.4.16.6c0,0,0,.34.06.42,0,.23,0,.46,0,.69v.06c0,.09,0,.19,0,.29s0,.44-.09.66a.51.51,0,0,0,0,.09,2.31,2.31,0,0,1-.1.28c0,.08-.13.31-.15.38l-.08.13-.19.26-.05.06-.14.12-.14.1a3.87,3.87,0,0,1-.67-3.89A1.67,1.67,0,0,1,63.36,40.81Z"/><path class="cls-6" d="M62.16,44.09A2.61,2.61,0,0,0,63.38,46c1.37.69,1.55-1.38,1.41-2.92.22,1.53.16,4.18-1.35,3.41A2.83,2.83,0,0,1,62.16,44.09Z"/></g><path class="cls-7" d="M56.46,46.25c-4.36.46-.87-11.74,2.39-8.77C60.55,39,58.62,46,56.46,46.25Z"/><path class="cls-7" d="M54.7,42.61a13.78,13.78,0,0,1,.5-2.14,4.44,4.44,0,0,1,1.94-2.8c1.51-.65,3,2,2,3.42-.28.37-.41.17-.78.24a2.4,2.4,0,0,0-1.28,1c-.41.55-.95,2.65-1.69,2.58S54.54,43.71,54.7,42.61Z"/><path class="cls-8" d="M58.78,44.16c.61.19-.32,1.83-.54,2.16-.41.62-1.7,2.1-2.44,1.25-.52-.61,0-.81.38-.87C57.59,46.52,58.35,45.71,58.78,44.16Z"/><path class="cls-7" d="M55.48,40.74c-.65-.93,1-2.8,1.66-3.07.43-.18,1.34-.24,1.36.56s-.37.37-.74.43C56.66,38.83,56.39,40.38,55.48,40.74Z"/><g class="cls-9"><path class="cls-10" d="M22,10.28c2.38,1.46-1.4,5-2.85,5.12C16.43,15.55,19.72,8.87,22,10.28Z"/><path class="cls-10" d="M19.17,15.39c-.27-.93.65-2.54,1.08-3.13a1.85,1.85,0,0,1,1.48-1,1.07,1.07,0,0,1,1,.7A5.5,5.5,0,0,1,19.17,15.39Z"/><path class="cls-8" d="M20,10.69c-1.65,1.41-2.79,4.82-.83,4.71a3.24,3.24,0,0,0,1.4-.64,3.64,3.64,0,0,1-1.72.88C16.76,15.76,18.18,11.9,20,10.69Z"/></g><g class="cls-11"><path class="cls-10" d="M16.46,13.54c-2.09,2.57-1.46-5.5.6-4.35C18.19,9.83,17.05,12.81,16.46,13.54Z"/><path class="cls-10" d="M16.46,13.54a1.69,1.69,0,0,1-.53.46,1,1,0,0,1-.21-.55,4.73,4.73,0,0,1,.15-1.94,4.59,4.59,0,0,1,.84-1.83.76.76,0,0,1,.52-.36C18.06,10.16,17,12.86,16.46,13.54Z"/><path class="cls-8" d="M16.6,9.08c-1.68.17-2.07,6.83-.14,4.46a5.53,5.53,0,0,0,.68-1.35,6.64,6.64,0,0,1-.83,1.73C14.16,16.56,14.66,8.9,16.6,9.08Z"/></g><g class="cls-4"><path class="cls-10" d="M14.49,31.82c-.71,3.33-5-2.43-2-3.31C14.11,28,14.69,30.88,14.49,31.82Z"/><path class="cls-10" d="M14.49,31.82a1.8,1.8,0,0,1-.29.72,1,1,0,0,1-.57-.19,2.85,2.85,0,0,1-1-1.38,3.26,3.26,0,0,1-.21-1.86,1.06,1.06,0,0,1,.36-.65C14.18,28.35,14.68,30.93,14.49,31.82Z"/><path class="cls-6" d="M11.92,28.81c-1.73,1.44,1.92,6.08,2.57,3a3.76,3.76,0,0,0-.07-1.42,4.33,4.33,0,0,1,.14,1.79C13.83,35.61,9.68,30.23,11.92,28.81Z"/></g><path class="cls-10" d="M53.08,61.75a4,4,0,0,1-3.56,2.14c-1.22,0-3.17-.37-3.34-2.17a5.89,5.89,0,0,1,1.59-4c.91-1.1,3-3.18,4.25-1.69S54.05,60,53.08,61.75Z"/><path class="cls-10" d="M50.61,61.5a1.44,1.44,0,0,1-.08.49,2,2,0,0,1-4-.43A5.34,5.34,0,0,1,48,58c.5-.59,2-2.32,2.62-1,.34.69-.33,2.15-.27,3C50.39,60.5,50.62,61,50.61,61.5Z"/><path class="cls-12" d="M50.42,64.08a7.29,7.29,0,0,1-1.75-.21,4.52,4.52,0,0,0,3.69-1.14,4.05,4.05,0,0,0,.73-.86,2.89,2.89,0,0,0,.37-1.27h0a3.58,3.58,0,0,1-.8,2.43,3.28,3.28,0,0,1-1,.76A3.07,3.07,0,0,1,50.42,64.08Z"/><g class="cls-13"><path class="cls-10" d="M64.56,52c-3.13-2.3-3.84,5.55-2.87,7.66C63.51,63.62,67.58,54.24,64.56,52Z"/><path class="cls-10" d="M61.68,59.65c1.09-.28,2-2.73,2.25-3.74a3.72,3.72,0,0,0-.13-2.79,1.46,1.46,0,0,0-1.39-.9C61.16,53.83,61,58.14,61.68,59.65Z"/><path class="cls-6" d="M65.74,55.23c-.31,3.22-2.8,7.24-3.9,4.55a6.2,6.2,0,0,1-.27-2.33,7.33,7.33,0,0,0,.24,2.93C63,63.23,65.72,58.52,65.74,55.23Z"/></g><g class="cls-4"><path class="cls-10" d="M15.33,64.92c-.66,5.18-8.16-1.87-3.61-4.19C14.2,59.46,15.51,63.47,15.33,64.92Z"/><path class="cls-10" d="M15.33,64.92A3,3,0,0,1,15,66.09,1.52,1.52,0,0,1,14,66a3.7,3.7,0,0,1-1.8-1.69,4.37,4.37,0,0,1-.58-2.68,1.84,1.84,0,0,1,.48-1.08C14.34,59.91,15.5,63.55,15.33,64.92Z"/><path class="cls-6" d="M10.86,61.36c-2.54,2.73,3.86,8.33,4.47,3.56A5.17,5.17,0,0,0,15,62.85a5.89,5.89,0,0,1,.47,2.59C14.81,70.75,7.52,64.23,10.86,61.36Z"/></g><g class="cls-4"><path class="cls-10" d="M11.69,54.9c-.34,2.68-3.57-1.95-1.55-2.65C11.24,51.86,11.78,54.15,11.69,54.9Z"/><path class="cls-10" d="M11.69,54.9a1.61,1.61,0,0,1-.17.58.61.61,0,0,1-.41-.15,2.53,2.53,0,0,1-.78-1.11,3.16,3.16,0,0,1-.23-1.5.84.84,0,0,1,.22-.51C11.3,52.12,11.78,54.2,11.69,54.9Z"/><path class="cls-6" d="M9.75,52.48c-1.14,1.15,1.63,4.89,1.94,2.42a3.57,3.57,0,0,0-.12-1.13,4.07,4.07,0,0,1,.18,1.43C11.41,58,8.26,53.62,9.75,52.48Z"/></g><path class="cls-10" d="M14.91,19.15c-.48,2.4-2.9,3.75-3.93,1.07-.77-2,.22-6,2.54-5.3C14.87,15.34,15.18,17.75,14.91,19.15Z"/><path class="cls-10" d="M14.64,19a1,1,0,0,1-.8,1c-.64.11-3.36-5.11-.48-4.21C14.14,16,14.83,17.82,14.64,19Z"/><path class="cls-14" d="M56.39,22.64c-.63.46-1.43-.21-1.62-.82-.37-1.18.62-2.05,1-3.1a9.72,9.72,0,0,0,.36-4.6c-.1-.77-.23-2.45,1-2.09,2.11.62,3.13,4.86,2.88,6.81A4.59,4.59,0,0,1,56.39,22.64Z"/><path class="cls-14" d="M56.39,22.08a1.09,1.09,0,0,1-1-1.58c.22-.61.93-1,1.26-1.57a6.53,6.53,0,0,0,.81-2.67c.08-.83-.36-2.84,1-2.34,1.79.67,1.54,4.49.95,5.82a4.09,4.09,0,0,1-2.57,2.31A1.44,1.44,0,0,1,56.39,22.08Z"/><path class="cls-10" d="M45.85,5.62c-.68,1.34.34,2.48,1.3,3.1A4.2,4.2,0,0,0,50.6,9c.93-.26,2.57-1.4,2.08-2.79s-2.55-1.54-3.59-1.7S46.48,4.38,45.85,5.62Z"/><path class="cls-8" d="M7.23,15.6a6.29,6.29,0,0,1,0,6V36.68c.09-2,.17-3.9.28-5.84a42.32,42.32,0,0,1,.8-8.11,27,27,0,0,0,.83-3.53,12,12,0,0,0-.07-2.32c-.29-2.75-1.22-5.94.33-8.5a6.59,6.59,0,0,1,4-2.74,43.17,43.17,0,0,1,6.67-1.29c9.15-1.15,18.25.12,27.4.22,4.11,0,8.44-.06,12.38,1.29a7.48,7.48,0,0,1,4.51,3.31,12.6,12.6,0,0,1,1.22,5.38c.28,5.09-.31,10.18,0,15.27.15,2.47.38,4.93.62,7.4V18.3c0-3.87,1.09-9-1-12.36-.72-1.13-3.22-1.17-4.24-1.34-2.81-.48-5.64-.74-8.46-1C47.13,3.17,41.93,3,36.71,3h-.13c-5.22,0-10.42.19-15.76.64-2.82.24-5.65.5-8.45,1-1,.17-3.52.21-4.24,1.34-1.56,2.46-.9,6.71-.9,9.61Z"/><path class="cls-10" d="M46.18,5.74c-.62,1.21.3,2.23,1.17,2.8a2.54,2.54,0,0,0,2.4.22c-.17-1.09-2-.78-1.46-2.45.08-.27.48-.64.48-.88C48.79,4,46.5,5.1,46.18,5.74Z"/><g class="cls-4"><path class="cls-15" d="M13.14,42.47c-3.4,6.59-5.92-7.41-1.28-5.77C13.56,37.31,14,40.72,13.14,42.47Z"/><path class="cls-15" d="M12.48,41.1c-.48.32-.37-.57-.73-1s-1.08-.18-1.49-.48c-1.18-.82.42-2.71,1.52-2.31.93.33,1.88,2.68.9,3.66A1.3,1.3,0,0,1,12.48,41.1Z"/></g><path class="cls-16" d="M10.19,45.14c-.5.23-.7.6,0,1.29,1.44,1.42,4.08-.82,3.85-2.48s-1.11.27-1.67.62C12.05,44.77,10.86,44.83,10.19,45.14Z"/><path class="cls-14" d="M63.17,26.37c.32-.07.66-.35,1-.94A8.7,8.7,0,0,0,65,21.87c0-.7.24-2.7-.58-3.1s-1.72.89-2.07,1.52a7.31,7.31,0,0,0-.77,3.79C61.63,25.32,62.34,26.56,63.17,26.37Z"/><path class="cls-14" d="M61.83,23.29c.13.27.41.36.91.13.73-.33,1.43-1.91,1.61-2.65.48-2-1.17-1.49-1.93-.35C62.08,20.93,61.51,22.64,61.83,23.29Z"/><path class="cls-17" d="M43.11,3.67a67.91,67.91,0,0,0-8.91-.24c-2.94,0-5.87.21-8.81.43-1.67.13-3.35.26-5,.41a.07.07,0,1,0,0,.13c5.93-.34,11.88-.35,17.82-.42h2.44c.82,0,1.65-.07,2.47-.13C43.22,3.84,43.21,3.68,43.11,3.67Z"/><path class="cls-17" d="M65.4,9.67A9.24,9.24,0,0,0,65,8.1a8.32,8.32,0,0,0-.59-1.45,1.85,1.85,0,0,0-1-.88c-.5-.17-1-.23-1.53-.35-1.09-.24-2.19-.49-3.3-.68a21.19,21.19,0,0,0-3.82-.33c-.13,0-.15.21,0,.21a23.76,23.76,0,0,1,6.37,1c.52.14,1,.3,1.54.46a1.87,1.87,0,0,1,1.08.69A4.49,4.49,0,0,1,64.27,8c.17.49.31,1,.48,1.5a14.28,14.28,0,0,1,.51,1.69c.12.58.21,1.18.29,1.77a.07.07,0,0,0,.14,0A22.19,22.19,0,0,0,65.4,9.67Z"/><path class="cls-7" d="M66.17,51.1a2.44,2.44,0,0,1-.28-.43,38.9,38.9,0,0,0,0,4.71c.08,3.44-.09,7.22-2.12,10.15-3.09,4.44-9.25,6.33-14.46,6.22-1.7,0-3.36-.54-5.07-.46s-3.5.79-5.3.9c-8.15.48-16.21-.76-24.11-2.65a8.79,8.79,0,0,1-5.67-4.08C7.82,63.23,7.9,60.83,7.5,58.39q-.18-1-.3-2.07a69.36,69.36,0,0,0,.6,9C8.33,69,12,69.86,15.16,70.71a76.27,76.27,0,0,0,11.33,2.38,74.74,74.74,0,0,0,10.15.3c1.58,0,3.16,0,4.74,0a5.23,5.23,0,0,1,5.08-.62,3.9,3.9,0,0,1,.64.26,78,78,0,0,0,11-2.34,13.87,13.87,0,0,0,5.76-2.65c2.55-2.29,2.29-6.77,2.29-9.84Z"/><path class="cls-7" d="M8.92,18.77a3.63,3.63,0,0,0-1.6-3,6.32,6.32,0,0,1,0,5.67A4.57,4.57,0,0,0,8.92,18.77Z"/><path class="cls-7" d="M66.17,46.22V46a4.22,4.22,0,0,0-1.45,3.18,2.34,2.34,0,0,0,1.45,2V51.1a3.36,3.36,0,0,1-.68-2.35A5.33,5.33,0,0,1,66.17,46.22Z"/><path class="cls-7" d="M46.4,72.24a1.94,1.94,0,0,0-1.6-.63,4.35,4.35,0,0,0-3,1.54,5.23,5.23,0,0,1,4.69-.36l.34.12A2.13,2.13,0,0,0,46.4,72.24Z"/><path class="cls-18" d="M53.18,34a.72.72,0,0,0-.71-.48,66.19,66.19,0,0,0-2.29-11.57s0,0,0-.05a1.77,1.77,0,0,0-.06-2.38,1,1,0,0,0-.48-.26.7.7,0,0,0-.54-.13,5.22,5.22,0,0,0-1.86-2.52c-3.82-1.83-19-1.65-21.36,1C24.58,19.18,23.49,26,23,32.28a.66.66,0,0,0-.43.06c-.56.26-.8,1.12-.92,1.67-.3,1.37-.18,2.92,1.07,3.76-.06,3,.08,5.27.47,6.07,1.34,2.72,9.31,5.73,11.66,6.14s14.35-2.32,17-5.34c.91-1,1.11-4.3.85-8.3a.6.6,0,0,0,.19-.23c0-.09.08-.19.11-.28A2.31,2.31,0,0,0,53.18,34Z"/><path class="cls-19" d="M26.59,18.5c-2.34,2.67-3.87,22.13-2.6,24.7S32.77,48.61,35,49s13.53-2.19,16.07-5a5.48,5.48,0,0,0,.83-3.07,23.74,23.74,0,0,0,.06-2.53,11.92,11.92,0,0,0,0-2.33c.88.34,1-2.67-.18-1.78a53.6,53.6,0,0,0-1.94-10.57,24.26,24.26,0,0,0-1.47-4.11,4.21,4.21,0,0,0-1.59-2.05C43.13,15.79,28.81,16,26.59,18.5Z"/><path class="cls-20" d="M25.21,22.12a40.77,40.77,0,0,0-.85,6c-.13,1.77-.51,3.44-.62,5.23-1.1-.62-1,1.66-.94,2.15a2,2,0,0,0,.34,1.16c.06.06.8.35.72,0a1.46,1.46,0,0,0,.66.91,3.18,3.18,0,0,0,1.62,0,6.36,6.36,0,0,0,1.5-.9c2.6-1.78,4.64-4.28,7.06-6.28,3.59-3,7.48-5.58,12.18-6.22,1-.14,1.77-.68,2.53.23a5.34,5.34,0,0,1,.78,1.35,15.22,15.22,0,0,0-.56-2.21,10.25,10.25,0,0,1-.5-1.61,1.14,1.14,0,0,0,1.1-1.39A1,1,0,0,0,48.68,20a5.17,5.17,0,0,0-2-2.55c-3.59-1.73-17.88-1.56-20.1,1A8.68,8.68,0,0,0,25.21,22.12Z"/><path class="cls-21" d="M52.8,37.79c.12,3.33-.14,6-.93,6.85-2.69,3-14.69,5.76-17,5.34s-10.32-3.42-11.66-6.14a8.29,8.29,0,0,1-.44-2.71,10.1,10.1,0,0,0,.46,3.28c1.35,2.73,9.32,5.74,11.67,6.15,1.28.22,5.46-.49,9.41-1.68h0a.54.54,0,0,0,.1.5,1.16,1.16,0,0,0,.93.33,2.72,2.72,0,0,0,1.05-.23c.34-.14.73-.37.79-.77a.72.72,0,0,0-.36-.67,13.85,13.85,0,0,0,5.12-2.82C52.73,44.28,53,41.39,52.8,37.79Z"/><path class="cls-20" d="M25.59,24.87c.56.1,1.35-.64,1.75-.95,2.77-2.21,5.21-4.37,8.75-5.18a26.44,26.44,0,0,1,7.46-.8c.8,0,2.06.61,2.83.24,1-.5-.18-.87-.8-1.06a21.2,21.2,0,0,0-4.76-.69,37.85,37.85,0,0,0-11.34.72,5.3,5.3,0,0,0-2.74,1.27,7,7,0,0,0-1.28,3.28c-.13.72-.78,2.45-.13,3A.58.58,0,0,0,25.59,24.87Z"/><path class="cls-19" d="M48,42.57a1.76,1.76,0,0,1,1.24.66c1.27,1.7-4.06,3.21-4.93,3.48-2.89.91-6.5,2.17-9.51,1.61a15.88,15.88,0,0,1-3.09-.91c-.67-.26-3.89-1-3.79-2,.07-.83,2-.6,2.53-.59a46.32,46.32,0,0,0,10.12-.5c1.85-.36,3.6-.94,5.4-1.46A5.35,5.35,0,0,1,48,42.57Z"/><polygon class="cls-21" points="48.11 48.32 48.11 48.32 48.11 48.32 48.11 48.32"/><path class="cls-21" d="M48.16,48.29Z"/><path class="cls-21" d="M48.46,48.09a.45.45,0,0,0-.36,0,.56.56,0,0,0-.17.09.34.34,0,0,0-.13.16v0a.42.42,0,0,0-.06.14.12.12,0,0,0,0,.1.47.47,0,0,0,.46,0,.55.55,0,0,0,.18-.16.05.05,0,0,0,0,0h0s0,0,0,0a.27.27,0,0,0,0-.12A.12.12,0,0,0,48.46,48.09Zm-.22.21,0,0h0v0h0a.08.08,0,0,0,0,0h.1Z"/><path class="cls-21" d="M48.24,48.28h0Z"/><path class="cls-19" d="M51.05,44c.91-1,1-3.23.88-4.51,0,.59-1.84,1.47-2.27,1.66-1.07.48-2.13,1-3.24,1.36a35.66,35.66,0,0,1-6.68,1.58,16.9,16.9,0,0,1-8.15-.4c-2.33-.86-3.39-3-3.84-5.36-1-5,0-12.18,3.42-16.2a10.65,10.65,0,0,1,5.15-3,19.4,19.4,0,0,1,7.81-.84c2.84.49,4.68,2.81,5.54,5.44a7.32,7.32,0,0,1-.47-1.55c-.1-.66.16-.4.59-.86,1-1-.68-2-1.14-1.21.1-.71-.63-1.6-1-2.13-1-1.47-3.14-1.55-4.76-1.53-2,0-3.94-.08-5.93,0a38.46,38.46,0,0,0-6.52.59c-1.23.24-3,.51-3.84,1.52-1.21,1.37-1.45,3.9-1.76,5.62-.27,1.49-.48,3-.66,4.49a22.75,22.75,0,0,1-.38,4c-.06.22.06.24-.1.4-2-1.34-2.35,4.83-.26,4.23.16,1.81-.28,4.23.56,5.92,1.27,2.56,8.78,5.41,11,5.79S48.51,46.8,51.05,44Z"/><path class="cls-19" d="M43.76,43.45a1,1,0,0,1,.71.38c.74,1-2.35,1.86-2.85,2-1.67.53-3.76,1.26-5.5.93a10.18,10.18,0,0,1-1.79-.52c-.39-.16-2.25-.59-2.19-1.19s1.15-.35,1.46-.34a26.74,26.74,0,0,0,5.86-.29c1.07-.21,2.08-.54,3.12-.85A3.22,3.22,0,0,1,43.76,43.45Z"/><path class="cls-22" d="M47.08,30.4c0-.21,0-.43,0-.64V29.7a2,2,0,0,0,0-.24.25.25,0,0,0,0-.08l-.06-.29h0a5.64,5.64,0,0,0-.61-1.43h0a10.17,10.17,0,0,0-.8-1.13h0l-.08-.11-.18-.21c-.23-.27-.46-.52-.71-.77h0l-.35-.34h0l-.33-.32-.37-.33h0l-.34-.3,0,0-.33-.27,0,0-.33-.26,0,0-.3-.24,0,0L41.78,23l-.05,0-.28-.2L41,22.48c-.32-.22-.67-.47-1.05-.71l-.29-.17-.3-.17a5,5,0,0,0-2.06-.72H37l-.34.05a3.09,3.09,0,0,0-.54.17l-.28.12c-.16.08-.32.16-.48.26l-.43.29-.33.26-.37.31-.33.29-.82.74-.27.23a4.22,4.22,0,0,1-.55.42,27.37,27.37,0,0,0-2.9,2l-.27.27a4.51,4.51,0,0,0-.48.6A4,4,0,0,0,28,28.28c0,.1,0,.2,0,.3a.13.13,0,0,1,0,.06v0c0,.08,0,.16,0,.25V29h0a7,7,0,0,0,.11,1l0-.08a29.47,29.47,0,0,0,1.56,4.73,12.46,12.46,0,0,0,1.6,3.62,2.72,2.72,0,0,0,.64.59,3.8,3.8,0,0,0,.64.31c1.57.6,4,.6,5.47.8,3.35.46,4.42-.61,6.4-3.36,1.22-1.7,2.67-4,2.73-6.21Z"/><path class="cls-23" d="M32.48,38c1.57.6,4,.6,5.47.8,3.35.46,4.42-.61,6.4-3.36,1.46-2,3.24-4.87,2.59-7.52-.58-2.34-3.6-4.95-5.49-6.3-1.05-.74-3-2.2-4.41-2.07-1.88.17-3.28,2.13-4.74,3.15-1.7,1.2-3.82,2.07-4.27,4.41-.35,1.86,1,4.7,1.6,6.41.46,1.28,1,3.39,2.21,4.17A3.8,3.8,0,0,0,32.48,38Z"/><path class="cls-24" d="M45.22,28.17c-.17-.21-.48-.25-.69-.48-.39-.45-.13-.54.09-1a.64.64,0,0,1-.36-1.08c.7-.72,1.33.46,1.81.9.2.17.32.29.47.3a17.63,17.63,0,0,0-5.09-5.25c-1.05-.74-3-2.2-4.41-2.07-1.88.17-3.28,2.13-4.74,3.15-1.7,1.2-3.82,2.07-4.27,4.41a4.35,4.35,0,0,0-.06.74,3.19,3.19,0,0,0,2.78,1.65c1.41.07,4.15-1.31,5,.33.59,1.16.62,2.34,1.6,3.33a3.62,3.62,0,0,0,3.3.84A2.21,2.21,0,0,0,42,31.53a4,4,0,0,1,.44-2.7,1.93,1.93,0,0,1,1.21-.68C44.12,28.07,44.78,28.41,45.22,28.17Z"/><path class="cls-25" d="M41.18,21.75c-1.36-1.06-3.15-2.32-5-1.79a2.5,2.5,0,0,0-.48.21,15.4,15.4,0,0,0-2,1.57,23.3,23.3,0,0,1-2.13,1.51,10.43,10.43,0,0,0-2.84,2.22c-.49.65-.85,2-.14,2.63a4,4,0,0,0,2.55.57,12.12,12.12,0,0,0,3.23-.34c.43-.16.31-.1.2-.47-.24-.81-.36-1.22.4-1.85a1.29,1.29,0,0,1,1.73-.13c.25.15.56.54.86.58A3.1,3.1,0,0,0,38.94,26c-.37-.45-.81-.75-.79-1.41,0-1.57,1.74-1.09,2.52-.49.35.27.63.69,1,.94s.52.13.89.11c.68,0,1.57.28,2.2,0,0-.2-.07-.24-.19-.4s-.42-.33-.59-.54A15.72,15.72,0,0,0,41.18,21.75Z"/><path class="cls-7" d="M46.91,27.87c0-.15-.09-.31-.15-.47-.34.53-.64,1.44-1.45,1.28-.22,0-.43-.13-.65-.18a1,1,0,0,0-.89.21c1.72-.29,2,1.71,1.94,3-.12,1.57-1.73,2.82-2.7,1.14a4.39,4.39,0,0,1-.56-2.06c0-.42,0-1.53.53-1.73-1.17.46-.86,3-.81,4,0,.58.31.72.54,1.22.79,1.73-1.39,2.86-2.74,3a6.42,6.42,0,0,1-3.46-.6,5.28,5.28,0,0,1-2-5.85c.28-.64,1.22-.48,1.62.07-.19-2.35-3-1.75-4.5-1.14.53.58,1.31.81,1.73,1.58a2.24,2.24,0,0,1-.14,2.39,1.71,1.71,0,0,1-2.93-.15A27.51,27.51,0,0,1,28,28.74a29.47,29.47,0,0,0,1.56,4.73c.46,1.28,1,3.4,2.22,4.18a3.46,3.46,0,0,0,.64.31c1.56.6,4,.6,5.46.8,3.35.45,4.42-.61,6.4-3.36C45.79,33.36,47.56,30.52,46.91,27.87Z"/><path class="cls-26" d="M44.4,33.15c-2.13,0-1.36-5,.13-3.92a2.63,2.63,0,0,1,.86,2.18C45.38,32,45.12,33.15,44.4,33.15Z"/><path class="cls-26" d="M44.49,29.21c.24.82.26,2-.5,2.41-.46.23-.73,0-.9-.36C43.07,30,43.66,28.66,44.49,29.21Z"/><path class="cls-8" d="M44.4,33c.7,0,1-1.13,1-1.69v.17c0,.54-.27,1.73-1,1.73-1,0-1.34-1-1.31-2.09C43.11,32.1,43.49,33,44.4,33Z"/><path class="cls-25" d="M36.23,20.1c-1.71.64-2.84,2.25-4.34,3.23a14.76,14.76,0,0,0-1.6,1.23c-.59.51-1.55.88-1.63,1.79a.88.88,0,0,0,.68.9,3.29,3.29,0,0,0,.48-.15,11.78,11.78,0,0,1,1.31-.18,7.21,7.21,0,0,1,1.47,0c.27,0,.71.18.95,0s.19-.45.3-.6a3.2,3.2,0,0,1,1.08-.81c.57-.27,1.76.08,2.18-.27s.13-1.26.12-1.63c0-.76.21-2.05,1.21-2a7.34,7.34,0,0,1,1.35.51c.5.17.91.41,1.38.61s1,.27.8-.24-1.2-.95-1.59-1.23c-1.11-.8-2.64-1.76-4.07-1.26Z"/><path class="cls-26" d="M30.05,31.85c-.11-.69.21-1.2,1-1a2.38,2.38,0,0,1,1.54,2.41C32.09,35,30.18,32.71,30.05,31.85Z"/><path class="cls-26" d="M30.61,30.81c-.32,1,1,2.52,2,1.94h0A2.58,2.58,0,0,0,31,30.84.94.94,0,0,0,30.61,30.81Z"/><path class="cls-7" d="M34.4,35.64c.88.41,1.47,2.29,0,1.89-.57-.15-1.68-1-1.53-1.72S34,35.44,34.4,35.64Z"/><path class="cls-7" d="M46,26.87a.71.71,0,0,0-.25-.38.39.39,0,0,0-.48,0,.59.59,0,0,0-.16.46,1.39,1.39,0,0,0,0,.41,1.17,1.17,0,0,0,.18.41.24.24,0,0,0,.14.09h0a.31.31,0,0,0,.25.05.32.32,0,0,0,.23-.22A1.22,1.22,0,0,0,46,26.87Z"/><path class="cls-7" d="M44.75,26.13a.16.16,0,0,0-.08-.08h-.12l0,0,0,0,0,0a.09.09,0,0,0,0,.05s0,0,0,0,0,0,0,.05l0,0,.05,0h.07s0,0,.05,0a.1.1,0,0,0,0-.05,0,0,0,0,1,0,0s0,0,0-.06A.07.07,0,0,0,44.75,26.13Z"/><path class="cls-7" d="M35.93,37.37c-.15-.8,1.21-.24,1.2.22S36,37.82,35.93,37.37Z"/><path class="cls-27" d="M28,27.42c.37-1.91,1.95-2.84,3.6-3.55a3.76,3.76,0,0,0,1.18-.6,5.89,5.89,0,0,0,.69-1.22,3.78,3.78,0,0,1,.92-.86A4.85,4.85,0,0,1,37,19.86a4.33,4.33,0,0,1,2.41.74,5.26,5.26,0,0,1,2,1.52c.19.34.25.73.46,1.06.56.89,2,.8,2.72,1.51a7.84,7.84,0,0,1,2.27,3.53,5.6,5.6,0,0,1,.14,1,4.83,4.83,0,0,0-.14-1.31c-.58-2.34-3.6-4.95-5.49-6.3-1.05-.74-3-2.2-4.41-2.07-1.88.17-3.28,2.13-4.74,3.15-1.7,1.2-3.82,2.07-4.27,4.41A3.93,3.93,0,0,0,28,28,3.07,3.07,0,0,1,28,27.42Z"/><path class="cls-24" d="M42.75,27.42l-.11,0a1.52,1.52,0,0,0-.75.79,1.87,1.87,0,0,0-.24,1c.06.39.21.4.37,0a1.94,1.94,0,0,1,.71-.79c.22-.16.76-.4.73-.72S43,27.38,42.75,27.42Z"/><polygon class="cls-28" points="39.49 23.99 38.95 35.14 35.72 34.64 36.34 27.09 34.95 27.18 35.32 24.27 39.49 23.99"/><polygon class="cls-29" points="35.75 34.65 36.34 27.53 36.3 27.53 35.72 34.64 35.75 34.65"/><polygon class="cls-29" points="35.32 24.7 39.47 24.43 39.49 23.99 35.32 24.27 34.95 27.18 35.01 27.18 35.32 24.7"/><polygon class="cls-30" points="38.95 35.45 39.49 24.3 39.47 24.3 38.95 35.14 35.74 34.64 35.72 34.95 38.95 35.45"/><polygon class="cls-30" points="36.34 27.09 34.99 27.18 34.95 27.5 36.31 27.41 36.34 27.09"/><path class="cls-31" d="M29.13,35.31c-.08-.26-2.4-2.79-3-2.62S24.9,36.24,25,36.5c-.25,0-3.21,1.08-3.34,1.94s3,2.32,3.24,2.33c0,.2.05,3.52.83,3.74s3-2.22,3.12-2.39c4.31.91,5,1.12,2.64-3.24.24-.15,1.94-3.11,1.53-3.68S29.34,35.2,29.13,35.31Z"/><path class="cls-32" d="M29,34.88c-.07-.26-2.4-2.79-3-2.62s-1.24,3.55-1.17,3.81c-.24,0-3.21,1.08-3.33,1.94s3,2.32,3.24,2.32c0,.2.05,3.52.83,3.75s3-2.22,3.12-2.39c4.31.91,5,1.12,2.64-3.24.23-.15,1.93-3.11,1.53-3.68S29.22,34.77,29,34.88Z"/><path class="cls-28" d="M28.9,35.08c-.07-.24-2.23-2.58-2.78-2.43S25,35.94,25,36.18c-.23,0-3,1-3.1,1.8s2.76,2.16,3,2.16c0,.19,0,3.27.77,3.48s2.8-2.06,2.9-2.22c4,.85,4.68,1,2.45-3,.21-.14,1.79-2.89,1.42-3.42S29.1,35,28.9,35.08Z"/><path class="cls-31" d="M28.71,35.45c-.06-.21-1.91-2.23-2.39-2.09s-1,2.83-.93,3c-.2,0-2.56.87-2.67,1.56s2.38,1.85,2.59,1.85c0,.16,0,2.82.66,3s2.41-1.77,2.5-1.9c3.44.72,4,.89,2.11-2.59.18-.12,1.54-2.48,1.22-2.94S28.88,35.36,28.71,35.45Z"/><path class="cls-33" d="M28.62,35.63c-.06-.18-1.76-2-2.2-1.91s-.9,2.59-.85,2.78c-.18,0-2.35.8-2.45,1.43s2.18,1.7,2.38,1.7c0,.15,0,2.58.6,2.74s2.21-1.62,2.29-1.75c3.16.67,3.7.83,1.94-2.37.17-.11,1.41-2.28,1.12-2.7S28.77,35.55,28.62,35.63Z"/><path class="cls-25" d="M28.81,39.38a9.16,9.16,0,0,0-1.75,1.54,3.16,3.16,0,0,0-.81,1.46c.66-.1,2.07-1.64,2.14-1.76,3.1.66,3.67.82,2-2.19A12.37,12.37,0,0,0,28.81,39.38Z"/><path class="cls-25" d="M24.72,38.88a7.24,7.24,0,0,0,5.08-1.6,9.61,9.61,0,0,0,1.68-1.63.17.17,0,0,0,0-.1c-.3-.42-2.68,0-2.83.08-.06-.18-1.76-2-2.2-1.91s-.9,2.59-.85,2.78c-.18,0-2.35.8-2.45,1.43a.59.59,0,0,0,.15.37A3,3,0,0,0,24.72,38.88Z"/><path class="cls-34" d="M24.93,38.08a7.6,7.6,0,0,0,3.32-.85A3.88,3.88,0,0,0,30,36c.31-.49,0-.48-.45-.43a3.26,3.26,0,0,0-1,.18c-.06-.18-1.65-1.91-2.06-1.8s-.85,2.44-.8,2.62a3.78,3.78,0,0,0-1.47.6c-.21.11-.52.25-.35.52a1,1,0,0,0,.64.32A2.71,2.71,0,0,0,24.93,38.08Z"/><g class="cls-35"><path class="cls-10" d="M25.56,39.06c.26.72-1.27-.06-.79-.48C25,38.35,25.49,38.86,25.56,39.06Z"/><path class="cls-10" d="M25.56,39.06a.67.67,0,0,1,0,.17.21.21,0,0,1-.14,0,.74.74,0,0,1-.36-.19.85.85,0,0,1-.27-.35.3.3,0,0,1,0-.16C25.08,38.4,25.49,38.87,25.56,39.06Z"/><path class="cls-8" d="M24.69,38.68c-.17.43,1.11,1,.87.38a.83.83,0,0,0-.18-.27,1.35,1.35,0,0,1,.24.34C25.88,39.87,24.42,39.15,24.69,38.68Z"/></g><g class="cls-35"><path class="cls-10" d="M30,38.94c0-.76,1.12.51.58.74C30.24,39.8,30,39.16,30,38.94Z"/><path class="cls-10" d="M30,38.94a.63.63,0,0,1,0-.16.24.24,0,0,1,.13,0,.78.78,0,0,1,.27.3,1,1,0,0,1,.15.42.21.21,0,0,1,0,.15C30.21,39.73,30,39.15,30,38.94Z"/><path class="cls-8" d="M30.63,39.61c.26-.34-.71-1.37-.68-.67a1,1,0,0,0,.1.32,1,1,0,0,1-.13-.4C29.88,38.08,31,39.27,30.63,39.61Z"/></g><g class="cls-35"><path class="cls-10" d="M29.86,36.36c-.75-.14.7-1.07.82-.44C30.75,36.26,30.08,36.39,29.86,36.36Z"/><path class="cls-10" d="M29.86,36.36l-.15-.06a.27.27,0,0,1,.05-.13,1,1,0,0,1,.35-.22.84.84,0,0,1,.44-.05.19.19,0,0,1,.14.07C30.68,36.27,30.06,36.39,29.86,36.36Z"/><path class="cls-8" d="M30.63,35.8c-.28-.37-1.46.43-.77.56a1,1,0,0,0,.33,0,.89.89,0,0,1-.41,0C29,36.23,30.37,35.32,30.63,35.8Z"/></g><g class="cls-35"><path class="cls-10" d="M26.37,35.26c-.37.47-.37-.87.05-.73C26.65,34.61,26.47,35.13,26.37,35.26Z"/><path class="cls-10" d="M26.37,35.26a.26.26,0,0,1-.1.09.12.12,0,0,1-.05-.08.74.74,0,0,1,0-.33.77.77,0,0,1,.14-.32.18.18,0,0,1,.09-.07C26.63,34.67,26.46,35.14,26.37,35.26Z"/><path class="cls-8" d="M26.33,34.53c-.33.06-.3,1.17,0,.73a.82.82,0,0,0,.11-.23.94.94,0,0,1-.14.3C26,35.81,26,34.54,26.33,34.53Z"/></g><g class="cls-36"><path class="cls-37" d="M23.15,38c.05-.32.38-.53.63-.67a2.84,2.84,0,0,1,1.51-.43c.26,0,.51.1.77.11a1.71,1.71,0,0,0,.78-.09c-.12,0-.33,0-.48-.06a.86.86,0,0,1-.5-.33,1,1,0,0,1-.15-.68,3.23,3.23,0,0,1,.16-.81c.08-.29.22-1.15.58-1.25s.77.41,1,.58a3.76,3.76,0,0,1,.86,1,1,1,0,0,1-.19,1.12c.4-.09.63-.43.95-.63a2.93,2.93,0,0,1,1.23-.4c.33,0,1-.19,1.21.15v0a.4.4,0,0,0,0-.13c-.3-.42-2.68,0-2.83.08-.06-.18-1.76-2-2.2-1.91s-.9,2.59-.85,2.78c-.18,0-2.35.8-2.45,1.43a.42.42,0,0,0,0,.18Z"/><path class="cls-37" d="M25.49,39.73a9.21,9.21,0,0,0,.25,2.09,9.38,9.38,0,0,1-.22-2.09Z"/><path class="cls-37" d="M30.36,38.35a12.23,12.23,0,0,1,.91,1.92,9.37,9.37,0,0,0-.9-1.93Z"/></g><path class="cls-31" d="M45.84,35.7c.08-.26,2.4-2.79,3-2.62s1.23,3.55,1.16,3.81c.25,0,3.21,1.08,3.34,1.94s-3,2.32-3.24,2.32c0,.21-.05,3.53-.83,3.75s-3-2.22-3.12-2.39c-4.31.91-5,1.12-2.64-3.24-.24-.15-1.94-3.11-1.53-3.68S45.63,35.59,45.84,35.7Z"/><path class="cls-38" d="M46,35.27c.07-.26,2.4-2.79,3-2.62s1.24,3.55,1.17,3.8c.24,0,3.21,1.09,3.34,1.95s-3,2.32-3.25,2.32c0,.2,0,3.52-.83,3.75s-3-2.22-3.12-2.39c-4.3.91-5,1.12-2.64-3.24-.23-.15-1.93-3.11-1.53-3.68S45.75,35.16,46,35.27Z"/><path class="cls-28" d="M46.07,35.47c.07-.24,2.23-2.58,2.78-2.43s1.15,3.29,1.08,3.53c.23,0,3,1,3.1,1.8s-2.76,2.16-3,2.16c0,.19,0,3.27-.77,3.48s-2.8-2.06-2.9-2.22c-4,.85-4.68,1-2.45-3-.21-.14-1.79-2.89-1.42-3.42S45.87,35.37,46.07,35.47Z"/><path class="cls-31" d="M46.26,35.84c.06-.21,1.91-2.23,2.39-2.09s1,2.83.93,3c.2,0,2.56.87,2.67,1.56s-2.38,1.85-2.59,1.85c0,.16,0,2.82-.66,3s-2.41-1.77-2.5-1.9c-3.44.72-4,.89-2.11-2.59-.18-.12-1.54-2.48-1.22-2.94S46.09,35.75,46.26,35.84Z"/><path class="cls-31" d="M52.25,38.34c-.11-.69-2.47-1.54-2.67-1.56.06-.2-.45-2.9-.93-3s-2.33,1.88-2.39,2.09c-.17-.09-2.77-.55-3.09-.09s.33,1.47.76,2.24a7.06,7.06,0,0,1,5.13-.14,4.23,4.23,0,0,1,2.13,1.6C51.78,39.08,52.3,38.65,52.25,38.34Z"/><path class="cls-31" d="M39.92,38.42c0-.28-1.63-3.52-2.28-3.52s-2.28,3.24-2.28,3.52c-.25-.06-3.56.17-3.94,1s2.34,3.21,2.61,3.29c-.09.2-1,3.58-.24,4s3.69-1.37,3.85-1.51c4.1,2.16,4.78,2.59,3.61-2.52.28-.08,2.86-2.59,2.61-3.29S40.17,38.37,39.92,38.42Z"/><path class="cls-39" d="M39.92,38c0-.29-1.63-3.52-2.28-3.52S35.36,37.66,35.36,38c-.25-.06-3.56.17-3.94,1s2.34,3.21,2.61,3.29c-.09.19-1,3.58-.24,4s3.69-1.37,3.85-1.51c4.1,2.16,4.78,2.59,3.61-2.52.28-.09,2.86-2.59,2.61-3.29S40.17,37.9,39.92,38Z"/><path class="cls-28" d="M39.75,38.12c0-.26-1.5-3.26-2.11-3.26s-2.11,3-2.11,3.26c-.24,0-3.31.16-3.66.93s2.17,3,2.42,3.06c-.09.18-.9,3.32-.22,3.74s3.42-1.28,3.57-1.41c3.8,2,4.44,2.41,3.35-2.33.26-.08,2.65-2.41,2.42-3.06S40,38.07,39.75,38.12Z"/><path class="cls-31" d="M39.46,38.44c0-.23-1.3-2.81-1.82-2.81s-1.82,2.58-1.82,2.81c-.2,0-2.85.14-3.15.8s1.87,2.56,2.08,2.63c-.07.15-.77,2.86-.19,3.22s2.95-1.1,3.08-1.21c3.27,1.72,3.82,2.07,2.88-2,.23-.07,2.28-2.07,2.09-2.63S39.65,38.4,39.46,38.44Z"/><path class="cls-40" d="M39.31,38.6c0-.21-1.19-2.57-1.67-2.57S36,38.39,36,38.6c-.19,0-2.61.13-2.89.73S34.8,41.69,35,41.74c-.07.15-.7,2.63-.17,3s2.7-1,2.82-1.11c3,1.58,3.5,1.9,2.64-1.85.21-.06,2.09-1.89,1.91-2.41S39.49,38.56,39.31,38.6Z"/><path class="cls-25" d="M38.42,42.45a9.63,9.63,0,0,0-2.22,1.06A3.33,3.33,0,0,0,35,44.74c.7.09,2.57-1.06,2.68-1.15,2.94,1.55,3.48,1.88,2.69-1.64A12.47,12.47,0,0,0,38.42,42.45Z"/><path class="cls-25" d="M34.42,40.75A7.61,7.61,0,0,0,40,40.61a10,10,0,0,0,2.17-1.16.16.16,0,0,0,0-.12c-.17-.51-2.7-.77-2.88-.73,0-.21-1.19-2.57-1.67-2.57S36,38.39,36,38.6c-.19,0-2.61.13-2.89.73a.5.5,0,0,0,.05.42A3,3,0,0,0,34.42,40.75Z"/><path class="cls-34" d="M34.87,40a8,8,0,0,0,3.61.09,4.08,4.08,0,0,0,2.11-.72c.45-.4.11-.49-.34-.56a3.38,3.38,0,0,0-1-.1c0-.19-1.11-2.41-1.56-2.41s-1.57,2.22-1.57,2.41a4.45,4.45,0,0,0-1.66.18c-.24.06-.6.11-.5.44s.36.41.55.5Z"/><g class="cls-35"><path class="cls-10" d="M35.22,41.19c.06.8-1.27-.44-.66-.72C34.89,40.31,35.21,41,35.22,41.19Z"/><path class="cls-10" d="M35.22,41.19a.33.33,0,0,1,0,.18l-.14,0a.84.84,0,0,1-.32-.3.94.94,0,0,1-.16-.43.2.2,0,0,1,0-.16C34.93,40.38,35.21,41,35.22,41.19Z"/><path class="cls-8" d="M34.45,40.55c-.3.39.82,1.38.77.64a.79.79,0,0,0-.11-.33,1.13,1.13,0,0,1,.15.42C35.32,42.1,34,41,34.45,40.55Z"/></g><g class="cls-35"><path class="cls-10" d="M39.7,42.34c.18-.79,1,.84.38.91C39.74,43.28,39.65,42.56,39.7,42.34Z"/><path class="cls-10" d="M39.7,42.34a.34.34,0,0,1,.07-.16.19.19,0,0,1,.12.07,1,1,0,0,1,.19.39.9.9,0,0,1,0,.46.16.16,0,0,1-.08.14C39.73,43.2,39.66,42.54,39.7,42.34Z"/><path class="cls-8" d="M40.2,43.2c.36-.27-.33-1.58-.5-.86a1.43,1.43,0,0,0,0,.35,1.44,1.44,0,0,1,0-.45C39.88,41.44,40.67,43,40.2,43.2Z"/></g><g class="cls-35"><path class="cls-10" d="M40.36,39.69c-.72-.36,1-.88,1-.21C41.29,39.85,40.56,39.79,40.36,39.69Z"/><path class="cls-10" d="M40.36,39.69a.33.33,0,0,1-.14-.11.17.17,0,0,1,.09-.1.8.8,0,0,1,.42-.13.92.92,0,0,1,.46.08.22.22,0,0,1,.12.11C41.21,39.84,40.55,39.78,40.36,39.69Z"/><path class="cls-8" d="M41.3,39.34c-.18-.45-1.6,0-.94.35a1.18,1.18,0,0,0,.34.07,1.09,1.09,0,0,1-.43-.08C39.53,39.32,41.17,38.79,41.3,39.34Z"/></g><g class="cls-35"><path class="cls-10" d="M37.13,37.57c-.5.38-.11-1,.27-.72C37.61,37,37.28,37.47,37.13,37.57Z"/><path class="cls-10" d="M37.13,37.57a.25.25,0,0,1-.12.07.31.31,0,0,1,0-.11.73.73,0,0,1,.09-.32.73.73,0,0,1,.23-.29s.08-.05.12,0C37.57,37.05,37.27,37.48,37.13,37.57Z"/><path class="cls-8" d="M37.31,36.82c-.35,0-.64,1.1-.18.75a.93.93,0,0,0,.19-.2,1.37,1.37,0,0,1-.23.27C36.57,38,36.92,36.72,37.31,36.82Z"/></g><g class="cls-36"><path class="cls-37" d="M33.08,39.44c.14-.3.54-.42.84-.49a2.9,2.9,0,0,1,1.65,0c.25.1.48.25.74.34a1.77,1.77,0,0,0,.82.13c-.12-.06-.33-.12-.47-.2a.88.88,0,0,1-.41-.48,1,1,0,0,1,0-.73,3.32,3.32,0,0,1,.4-.77c.16-.27.56-1.1,1-1.1s.66.64.81.87A4,4,0,0,1,39,38.28a1,1,0,0,1-.51,1.08c.43,0,.75-.26,1.13-.38a3.33,3.33,0,0,1,1.37,0c.35.05,1,.09,1.17.5a0,0,0,0,1,0,0,.22.22,0,0,0,0-.14c-.17-.51-2.7-.77-2.88-.73,0-.21-1.19-2.57-1.67-2.57S36,38.39,36,38.6c-.19,0-2.61.13-2.89.73a.4.4,0,0,0,0,.19A.31.31,0,0,1,33.08,39.44Z"/><path class="cls-37" d="M35,41.84A8.92,8.92,0,0,0,34.61,44,8.92,8.92,0,0,1,35,41.86Z"/><path class="cls-37" d="M40.28,41.86a11.9,11.9,0,0,1,.38,2.2,11.06,11.06,0,0,0-.35-2.21Z"/></g><polygon class="cls-41" points="34.62 53.42 33.22 51.96 32.02 51.95 30.94 51.93 28.77 51.9 27.3 53.33 30.91 57.55 34.56 53.49 34.56 53.49 34.62 53.42"/><polygon class="cls-42" points="28.79 52.33 27.52 53.58 30.91 57.55 34.33 53.75 33.01 52.36 31.87 52.35 30.85 52.34 28.79 52.33"/><polygon class="cls-43" points="30.86 56.93 33.92 53.53 32.77 52.32 29.09 52.27 27.89 53.45 30.86 56.93"/><polygon class="cls-44" points="27.89 53.45 33.92 53.53 30.86 56.93 27.89 53.45"/><polygon class="cls-45" points="29.09 52.27 28.86 53.46 30.21 52.29 29.09 52.27"/><polygon class="cls-46" points="32.77 52.32 32.97 53.52 31.77 52.31 32.77 52.32"/><polygon class="cls-47" points="30.21 52.29 30.9 53.49 31.77 52.31 30.21 52.29"/><polygon class="cls-48" points="30.9 53.49 31.77 52.31 32.97 53.52 30.9 53.49"/><polygon class="cls-49" points="32.77 52.32 32.97 53.52 33.92 53.53 32.77 52.32"/><polygon class="cls-50" points="30.9 53.49 30.86 56.93 32.97 53.52 30.9 53.49"/><polygon class="cls-51" points="30.86 56.93 30.9 53.49 33.92 53.53 30.86 56.93"/><polygon class="cls-52" points="30.86 56.93 28.86 53.46 30.9 53.49 30.86 56.93"/><polygon class="cls-53" points="30.36 52.54 30.9 53.49 31.81 52.44 32.97 53.52 32.9 52.57 33.92 53.53 32.77 52.32 32.97 53.52 31.77 52.31 30.9 53.49 30.36 52.54"/><polygon class="cls-54" points="28.86 53.46 33.92 53.53 33.87 53.58 28.86 53.46"/><polygon class="cls-55" points="30.86 56.93 32.97 53.52 32.88 53.52 30.86 56.93"/><polygon class="cls-56" points="30.9 53.49 30.86 56.93 30.98 53.49 30.9 53.49"/><polygon class="cls-57" points="28.86 53.46 30.86 56.93 28.93 53.47 28.86 53.46"/><polygon class="cls-58" points="29.39 53 30.21 52.29 30.9 53.49 30.19 52.38 29.39 53"/><polygon class="cls-59" points="29.09 52.27 32.77 52.32 33.92 53.53 32.77 52.39 29.09 52.27"/><polygon class="cls-60" points="33.26 51.98 33.24 51.98 34.62 53.42 34.56 53.49 30.91 57.55 27.3 53.33 28.75 51.92 28.67 51.92 27.16 53.39 30.88 57.74 34.64 53.56 34.7 53.49 33.26 51.98"/><path class="cls-61" d="M32.11,53.48c0-.07.8-1,.8-1s-.87.82-.95.86a6.32,6.32,0,0,1-1-.68,6.33,6.33,0,0,1,.74.92c0,.08-.8,1-.8,1s.87-.82.94-.86a6.42,6.42,0,0,1,1,.68S32.07,53.56,32.11,53.48Z"/><path class="cls-62" d="M36.53,54.83l-.79,0,0-.64h.78l0-.91.75-.08v1h.82l.07.74-.89,0v.85l-.86,0Zm4.8-2.9a1.21,1.21,0,0,1,1.33,1.13c.06.6-.46,1.48-1.56,2.61l1.8-.08-.15,1.34-3.35.13.05-1.21a21.17,21.17,0,0,0,1.93-2.28c.06-.26-.05-.39-.34-.4s-.61.32-1.09.9l-.75-.78A2.4,2.4,0,0,1,41.33,51.93Zm4.26,0A1.53,1.53,0,0,1,47.13,53a5.3,5.3,0,0,1,.09,1,3.32,3.32,0,0,1-1.06,2.6,2.26,2.26,0,0,1-1.44.43c-.76,0-1.24-.56-1.44-1.64a3.2,3.2,0,0,1,.9-2.86A2.34,2.34,0,0,1,45.59,51.9Zm-1.06,3q.06.66.6.66c.37,0,.64-.27.82-.82.22-.91.11-1.41-.35-1.51C45,53.28,44.59,53.84,44.53,54.92Z"/><g class="cls-63"><path class="cls-64" d="M41.33,52.3a1.22,1.22,0,0,1,1.32,1.05,1.43,1.43,0,0,0,0-.29,1.21,1.21,0,0,0-1.33-1.13,2.4,2.4,0,0,0-2.13,1.36l.14.15A2.35,2.35,0,0,1,41.33,52.3Z"/><path class="cls-64" d="M41.33,53.64a22.68,22.68,0,0,1-1.88,2.21l-.05,1.21h0l0-.84a21.17,21.17,0,0,0,1.93-2.28A.31.31,0,0,0,41.33,53.64Z"/><path class="cls-64" d="M45.13,56c.37,0,.64-.27.82-.82a3.06,3.06,0,0,0,.1-.93,5.18,5.18,0,0,1-.1.56c-.18.55-.45.82-.82.82a.56.56,0,0,1-.58-.53,1.94,1.94,0,0,0,0,.24Q44.59,56,45.13,56Z"/><path class="cls-64" d="M44.18,52.93a2.32,2.32,0,0,1,1.41-.65,1.52,1.52,0,0,1,1.54,1.1,4.54,4.54,0,0,1,.08.76s0-.07,0-.11a5.3,5.3,0,0,0-.09-1,1.53,1.53,0,0,0-1.54-1.11,2.34,2.34,0,0,0-1.41.66,3.07,3.07,0,0,0-.92,2.53A3,3,0,0,1,44.18,52.93Z"/><polygon class="cls-64" points="41.28 56.05 42.86 55.96 42.9 55.59 41.1 55.67 41.28 56.05"/><polygon class="cls-64" points="37.35 54.16 37.35 54.53 38.17 54.53 38.21 54.9 38.24 54.9 38.17 54.16 37.35 54.16"/><polygon class="cls-64" points="36.51 55.2 36.49 55.75 36.51 55.75 36.53 55.21 36.51 55.2"/><polygon class="cls-64" points="35.78 54.53 36.56 54.53 36.6 53.62 37.35 53.55 37.35 53.17 36.6 53.25 36.56 54.16 35.78 54.16 35.74 54.8 35.76 54.8 35.78 54.53"/></g><g class="cls-36"><polygon class="cls-37" points="36.49 56.03 37.35 55.99 37.35 55.72 36.5 55.75 36.49 56.03"/><polygon class="cls-37" points="36.53 54.83 35.76 54.8 35.74 55.08 36.52 55.11 36.53 54.83"/><path class="cls-37" d="M45.6,53.25c-.65,0-1,.59-1.07,1.67,0,0,0,.06,0,.09.09-1,.44-1.45,1.06-1.48.28.06.42.27.45.62Q46.11,53.36,45.6,53.25Z"/><path class="cls-37" d="M42.66,53.34a0,0,0,0,0,0,0,5,5,0,0,1-1.55,2.36h.28C42.29,54.66,42.72,53.89,42.66,53.34Z"/><path class="cls-37" d="M46.16,56.63a2.26,2.26,0,0,1-1.44.43c-.76,0-1.24-.56-1.44-1.64,0-.13,0-.25,0-.36a4.7,4.7,0,0,0,0,.64c.2,1.08.68,1.63,1.44,1.64a2.26,2.26,0,0,0,1.44-.43,3.33,3.33,0,0,0,1.06-2.6,1.15,1.15,0,0,0,0-.19A3.29,3.29,0,0,1,46.16,56.63Z"/><polygon class="cls-37" points="42.75 56.93 39.41 57.06 39.4 57.34 42.75 57.21 42.9 55.87 42.87 55.87 42.75 56.93"/><polygon class="cls-37" points="37.35 54.87 37.35 55.15 38.24 55.18 38.22 54.9 37.35 54.87"/><path class="cls-37" d="M41,53.45c.17,0,.28,0,.32.14l0,0c.06-.26-.05-.39-.34-.4s-.61.32-1.09.9l-.65-.67-.1.17.75.78C40.43,53.77,40.79,53.47,41,53.45Z"/></g><path class="cls-28" d="M32.91,63.17l.14-.16h0l.15-.16h0a7.15,7.15,0,0,0,.53-.7h0a1.74,1.74,0,0,0,.11-.18h0c0-.06.07-.11.1-.18h0l.09-.18h0a1.08,1.08,0,0,0,.08-.19h0a1.07,1.07,0,0,0,.07-.19h0a1.33,1.33,0,0,0,.05-.19h0c0-.07,0-.13,0-.2h0a1.77,1.77,0,0,0,0-.2h0c0-.11,0-.21,0-.32a1.76,1.76,0,0,0-3.52-.16,1.75,1.75,0,0,0-1.75-1.6,1.79,1.79,0,0,0-1.57,1h0l0,.09h0a2.47,2.47,0,0,0-.1.29h0a.19.19,0,0,0,0,.08v0a.2.2,0,0,1,0,.07v0s0,.05,0,.07v.13h0a3.24,3.24,0,0,0,.43,1.53,4.48,4.48,0,0,0,.28.47l.15.2a2.91,2.91,0,0,0,.26.33l.07.09.27.3.36.36.31.29.08.07.14.12,0,0,.17.14.19.15.56.42h0l0,0h0l0,0h0l0,0h0l0,0h.11l0,0h0l0,0h0l.06,0h0l.08-.06h0l.08-.06h0l.1-.07h0l.1-.08h0l.12-.08h0l.13-.1h0l.42-.35h0a.86.86,0,0,0,.14-.13h0l.14-.13h0l.14-.14h0l.14-.14h0l.14-.14Z"/><path class="cls-65" d="M32.75,63.05l.13-.14h0l.13-.15h0a6.5,6.5,0,0,0,.49-.65h0l.1-.17h0l.09-.16h0a1.3,1.3,0,0,0,.08-.17h0c0-.06,0-.12.07-.17v0l.06-.17h0c0-.06,0-.12,0-.17v0c0-.06,0-.12.05-.17h0l0-.19h0a2.71,2.71,0,0,0,0-.29,1.62,1.62,0,0,0-3.24-.15,1.62,1.62,0,0,0-1.62-1.47,1.6,1.6,0,0,0-1.44.88h0a.2.2,0,0,0,0,.08h0a1.43,1.43,0,0,0-.09.27h0s0,.05,0,.08v0a.2.2,0,0,1,0,.07v0s0,0,0,.06v.12h0a2.93,2.93,0,0,0,.4,1.42,4.92,4.92,0,0,0,.26.43c0,.06.09.12.13.19l.24.3.07.08a3.33,3.33,0,0,0,.25.28l.33.33.29.27.07.06.13.11,0,0L30,64l.18.14.52.38h0l0,0h0l0,0h0l0,0H31l0,0h0l.05,0h0a.18.18,0,0,0,.07,0h0l.08-.06h0l.09-.06h0l.1-.07h0l.1-.08h0l.11-.09h0l.39-.33h0l.13-.12h0l.13-.12h0l.13-.12h0a1.59,1.59,0,0,1,.13-.13h0l.13-.14Z"/><path class="cls-66" d="M33.88,60.44a1.51,1.51,0,0,0-3-.14,1.51,1.51,0,0,0-3,.14c0,2,2.8,3.84,3,4h0C31.08,64.28,33.88,62.44,33.88,60.44Z"/><path class="cls-67" d="M32.47,59c-.89,0-1.29.83-1.6,1.49a1.87,1.87,0,0,1-.08-.34,2.24,2.24,0,0,0-.42-.69,1.11,1.11,0,0,0-1-.44.89.89,0,0,0-.45.14,1.38,1.38,0,0,0-.27,1.65,2.1,2.1,0,0,0,1.11,1.21c.89.29,1.53-.92,2.05-1.42a3.32,3.32,0,0,1,.87-.67c.24-.12.62-.28.87-.11C33.52,59.43,32.87,59.06,32.47,59Z"/><path class="cls-68" d="M32.36,61.43a3.76,3.76,0,0,1-.25.31,2.77,2.77,0,0,1-1.07.85,2.24,2.24,0,0,1-2.23-.54,2.49,2.49,0,0,1-.67-1,3.12,3.12,0,0,1-.13-.59,1.55,1.55,0,0,1,0-.71,1.47,1.47,0,0,0-.17.69c0,2,2.8,3.84,3,4h0c.2-.13,2.76-1.82,3-3.71a3.16,3.16,0,0,0-.56.07A2.19,2.19,0,0,0,32.36,61.43Z"/><path class="cls-69" d="M30.47,63.41a2.89,2.89,0,0,1-1.79-.94,9.88,9.88,0,0,0,2.17,2h0a8.94,8.94,0,0,0,2.58-2.54A3.86,3.86,0,0,1,30.47,63.41Z"/><path class="cls-70" d="M29.06,59.25c-.09.18,0,.44.17.62a2,2,0,0,0,1.62.81A1.9,1.9,0,0,0,32,59.77c.12-.21.22-.73-.16-.58s-.78.89-1,1.34a1.87,1.87,0,0,1-.08-.34,2.24,2.24,0,0,0-.42-.69,1.07,1.07,0,0,0-1.16-.39A.29.29,0,0,0,29.06,59.25Z"/><path class="cls-70" d="M32.3,59.33c.13.38,1.11.29.67-.12C32.81,59.07,32.16,58.94,32.3,59.33Z"/><path class="cls-69" d="M32.94,62.56a6.65,6.65,0,0,1-1.59,1.15,1.84,1.84,0,0,1-1.42,0c.47.39.85.64.92.69h0a9.81,9.81,0,0,0,2.17-2Z"/><path class="cls-37" d="M34.37,60.31a2.18,2.18,0,0,1,0,.25h0a1.77,1.77,0,0,1,0,.2h0c0,.07,0,.13,0,.2h0a1.33,1.33,0,0,1-.05.19h0a1.07,1.07,0,0,1-.07.19h0a1.08,1.08,0,0,1-.08.19h0l-.09.18h0c0,.07-.07.12-.1.18h0a1.74,1.74,0,0,1-.11.18h0a7.15,7.15,0,0,1-.53.7h0l-.15.16h0l-.14.16h0l-.14.14h0l-.14.14h0l-.14.14h0l-.14.13h0a.86.86,0,0,1-.14.13h0l-.42.35h0l-.13.1h0l-.12.08h0l-.1.08h0l-.1.07h0l-.08.06h0l-.08.06h0l-.06,0h0l0,0h0l0,0h-.11l0,0h0l0,0h0l0,0h0l0,0h0l-.56-.42-.19-.15L29.72,64l0,0-.14-.12-.08-.07-.31-.29-.36-.36-.27-.3-.07-.09a2.91,2.91,0,0,1-.26-.33l-.15-.2a4.48,4.48,0,0,1-.28-.47,3.29,3.29,0,0,1-.43-1.44v.06h0a3.27,3.27,0,0,0,.43,1.53,4.48,4.48,0,0,0,.28.47l.15.2.26.33.07.09.27.3.36.36.31.29.08.07.14.12,0,0,.17.14.19.15c.23.18.42.32.56.41h0l0,0h0l0,0h0l0,0h.14l0,0h0l0,0h0l.06,0h0l.08-.05h0l.08-.06h0l.1-.06h0l.1-.08h0l.12-.09h0l.13-.1h0l.42-.35h0l.14-.13h0l.14-.12h0l.14-.14h0l.14-.14h0l.14-.15h0l.14-.15h0L33.2,63h0a7.15,7.15,0,0,0,.53-.7h0a1.74,1.74,0,0,0,.11-.18h0l.1-.18h0l.09-.18v0a1.42,1.42,0,0,0,.08-.18h0c0-.07,0-.13.07-.19h0a1.8,1.8,0,0,0,.05-.19h0c0-.07,0-.13,0-.2h0a1.18,1.18,0,0,0,0-.2h0c0-.1,0-.21,0-.31A.19.19,0,0,0,34.37,60.31Z"/><path class="cls-61" d="M32.68,59.26a.46.46,0,0,0-.41-.13,1.16,1.16,0,0,0-.47.14,1.5,1.5,0,0,0-.59.72s0,0,0,0a1.91,1.91,0,0,1,.61-.59,1,1,0,0,1,.4-.13c.14,0,.28,0,.42,0S32.7,59.28,32.68,59.26Z"/><path class="cls-61" d="M33.17,59.54a.18.18,0,0,0,0-.1l0,0,0,0a.15.15,0,0,0-.07,0h-.07l0,0s0,0,0,0h0v0s0,0,0,0v0l0,0,0,0,0,0h0l0,0h0a0,0,0,0,0,0,0S33.17,59.56,33.17,59.54Z"/><path class="cls-61" d="M33,59.54Z"/><path class="cls-61" d="M30.15,59.39a.4.4,0,0,0-.16-.2,1.15,1.15,0,0,0-.25-.12,1,1,0,0,0-.54,0,1.54,1.54,0,0,0-.89.62s0,0,0,0a2.88,2.88,0,0,1,.39-.32,1.08,1.08,0,0,1,.94-.1.72.72,0,0,1,.2.09l.22.12C30.11,59.51,30.18,59.46,30.15,59.39Z"/><path class="cls-61" d="M30.56,59.9v0s0,0,0,0l0,0-.05,0v0l0,0h-.1s0,0,0,0h0v0h0v0a0,0,0,0,0,0,0v0a.47.47,0,0,0,.06.09h0l.06,0h0s.05,0,.06,0v0A.06.06,0,0,0,30.56,59.9Z"/><path class="cls-62" d="M36.9,61.6l-.78,0,0-.63h.79L37,60l.76-.07v1h.82l.07.74-.89,0v.85l-.86,0Zm4.78-3-.25,5.2-1.51-.24.29-3.51-.65,0,.18-1.36Zm3.68,0-.11,1.1c-1.1,0-1.71.1-1.84.13l0,.57a5.83,5.83,0,0,1,.89,0,1.29,1.29,0,0,1,1,.72,2.26,2.26,0,0,1,.28,1.08,1.43,1.43,0,0,1-1.06,1.45,3.27,3.27,0,0,1-.7.09A3.8,3.8,0,0,1,42,63.11l.5-1.06a1.91,1.91,0,0,0,1.39.61c.35,0,.53-.2.53-.5s-.22-.59-.67-.64h-.42c-.24,0-.56,0-.94.06V58.81Z"/><g class="cls-63"><polygon class="cls-64" points="36.15 61.3 36.94 61.3 36.97 60.38 37.73 60.31 37.73 59.94 36.97 60.01 36.94 60.93 36.15 60.93 36.12 61.56 36.14 61.56 36.15 61.3"/><polygon class="cls-64" points="45.36 58.68 42.38 58.81 42.38 59.19 45.32 59.06 45.36 58.68"/><path class="cls-64" d="M42.49,62.42a1.92,1.92,0,0,0,1.39.62c.35,0,.53-.21.53-.51a.58.58,0,0,0,0-.19c-.06.18-.22.29-.5.32a1.91,1.91,0,0,1-1.39-.61L42,63.11l.14.08Z"/><path class="cls-64" d="M45.36,61.16a1.27,1.27,0,0,0-1-.72,5.83,5.83,0,0,0-.89,0v-.2h0l0,.56a7.49,7.49,0,0,1,.89,0,1.31,1.31,0,0,1,1,.72,2.18,2.18,0,0,1,.26.89.9.9,0,0,0,0-.18A2.26,2.26,0,0,0,45.36,61.16Z"/><polygon class="cls-64" points="36.89 61.97 36.87 62.52 36.88 62.52 36.9 61.97 36.89 61.97"/><polygon class="cls-64" points="39.56 60.13 39.61 60.13 39.74 59.14 41.66 59.01 41.68 58.64 39.74 58.77 39.56 60.13"/><polygon class="cls-64" points="39.95 63.61 40.23 60.27 40.21 60.1 39.92 63.6 39.95 63.61"/><polygon class="cls-64" points="37.73 60.93 37.73 61.3 38.55 61.3 38.58 61.67 38.62 61.67 38.55 60.93 37.73 60.93"/></g><g class="cls-36"><polygon class="cls-37" points="36.87 62.8 37.73 62.76 37.73 62.48 36.88 62.52 36.87 62.8"/><polygon class="cls-37" points="36.9 61.6 36.13 61.56 36.12 61.84 36.89 61.88 36.9 61.6"/><path class="cls-37" d="M43.74,61.8c.39,0,.6.2.66.49a.53.53,0,0,0,0-.13c0-.38-.22-.59-.67-.64h-.42c-.24,0-.56,0-.94.06v.28c.38,0,.7-.06.94-.06Z"/><path class="cls-37" d="M43.41,59.91v.28a17.47,17.47,0,0,1,1.83-.13l.11-1.1h0l-.08.82C44.15,59.83,43.54,59.88,43.41,59.91Z"/><polygon class="cls-37" points="37.73 61.63 37.73 61.91 38.62 61.95 38.59 61.67 37.73 61.63"/><path class="cls-37" d="M44.58,63.69a3.27,3.27,0,0,1-.7.09,3.66,3.66,0,0,1-1.79-.61l-.1.22a3.77,3.77,0,0,0,1.89.66,3.19,3.19,0,0,0,.7-.08,1.43,1.43,0,0,0,1.06-1.45c0-.05,0-.09,0-.14A1.42,1.42,0,0,1,44.58,63.69Z"/><polygon class="cls-37" points="41.42 63.84 39.94 63.61 39.92 63.88 41.42 64.11 41.68 58.92 41.66 58.92 41.42 63.84"/><polygon class="cls-37" points="40.21 60.09 39.6 60.13 39.56 60.41 40.19 60.37 40.21 60.09"/></g><path class="cls-28" d="M29.05,9.15l-.25,3.29,2,0c0,.66,0,1.08,0,1.26l-3.31.15.17-4.49Z"/><path class="cls-28" d="M34.81,9.15l-.15,1.32-2,.19.07.42,1.36,0-.1.89-1.18.1,0,.5,2-.12-.2,1.29a30.43,30.43,0,0,1-3.11.12L31.1,9.43Z"/><path class="cls-28" d="M37.48,9.15l1.46.77-1.21,3.89H36.41L35,10a16.1,16.1,0,0,1,1.47-.7c0,.07.21.7.53,1.9Z"/><path class="cls-28" d="M42.86,9.15l-.15,1.32-2,.19.06.42,1.37,0-.11.89-1.17.1,0,.5,2-.12-.2,1.29a30.67,30.67,0,0,1-3.11.12l-.43-4.39Z"/><path class="cls-28" d="M44.71,9.15l-.25,3.29,2,0c0,.66-.05,1.08-.05,1.26l-3.31.15.17-4.49Z"/><polygon class="cls-71" points="32.89 12.53 32.87 12.25 32.84 12.26 32.89 12.76 34.8 12.64 34.84 12.41 32.89 12.53"/><polygon class="cls-71" points="32.76 11.31 34.09 11.27 34.12 11.04 32.76 11.08 32.73 10.88 32.7 10.88 32.76 11.31"/><polygon class="cls-71" points="39.17 9.66 42.83 9.38 42.86 9.15 39.15 9.43 39.17 9.66"/><polygon class="cls-71" points="40.94 12.53 40.91 12.25 40.89 12.26 40.94 12.76 42.85 12.64 42.89 12.41 40.94 12.53"/><polygon class="cls-71" points="40.8 11.31 42.14 11.27 42.17 11.04 40.8 11.08 40.77 10.88 40.74 10.88 40.8 11.31"/><path class="cls-71" d="M35.11,10.17c.21-.12.68-.34,1.4-.66,0,.07.21.7.53,1.9l.44-2,1.4.74.06-.2-1.46-.77-.44,2c-.32-1.2-.5-1.83-.53-1.9A16.1,16.1,0,0,0,35,10Z"/><polygon class="cls-71" points="43.3 9.33 43.13 13.82 43.14 13.81 43.3 9.56 44.69 9.38 44.71 9.15 43.3 9.33"/><path class="cls-71" d="M30.82,12.64c0-.07,0-.15,0-.23l-2,0,0,.24Z"/><polygon class="cls-71" points="27.64 9.56 29.03 9.38 29.05 9.15 27.64 9.33 27.47 13.82 27.48 13.81 27.64 9.56"/><polygon class="cls-71" points="31.13 9.66 34.78 9.38 34.81 9.15 31.1 9.43 31.13 9.66"/><path class="cls-71" d="M44.48,12.43l0,.24,2,0c0-.07,0-.15,0-.23Z"/><polygon class="cls-72" points="44.7 9.32 44.46 12.44 44.48 12.44 44.71 9.32 44.7 9.32"/><path class="cls-72" d="M34.84,12.58h0l-.17,1.12a30.43,30.43,0,0,1-3.11.12L31.12,9.6h0L31.53,14a30.43,30.43,0,0,0,3.11-.12Z"/><polygon class="cls-72" points="32.7 10.65 32.72 10.82 34.66 10.64 34.81 9.32 34.79 9.32 34.66 10.47 32.7 10.65"/><polygon class="cls-72" points="32.84 12.03 32.86 12.2 34.02 12.1 34.12 11.21 34.1 11.21 34.02 11.93 32.84 12.03"/><path class="cls-72" d="M38.94,10.1l0,0-1.17,3.74H36.41l-1.32-3.7-.05,0L36.41,14h1.32Z"/><polygon class="cls-72" points="29.04 9.32 28.8 12.44 28.82 12.44 29.05 9.32 29.04 9.32"/><path class="cls-72" d="M30.83,12.58h0c0,.56,0,.93,0,1.09l-3.31.15V14l3.31-.15C30.78,13.66,30.8,13.24,30.83,12.58Z"/><polygon class="cls-72" points="40.74 10.65 40.77 10.82 42.71 10.64 42.86 9.32 42.84 9.32 42.71 10.47 40.74 10.65"/><polygon class="cls-72" points="40.89 12.03 40.91 12.2 42.06 12.1 42.17 11.21 42.15 11.21 42.06 11.93 40.89 12.03"/><path class="cls-72" d="M46.49,12.58h0c0,.56,0,.93,0,1.09l-3.31.15V14l3.31-.15C46.44,13.66,46.46,13.24,46.49,12.58Z"/><path class="cls-72" d="M39.58,14a30.67,30.67,0,0,0,3.11-.12l.2-1.29h0l-.17,1.12a30.67,30.67,0,0,1-3.11.12L39.17,9.6h0Z"/><path class="cls-73" d="M25.09,64a10.5,10.5,0,0,1,.14,7.09c-.47,1.11-1,2.64-2.11,3.25a14.79,14.79,0,0,1-1.92.6,8.34,8.34,0,0,1-2.35.53,12.87,12.87,0,0,1-2.13-.31,10.17,10.17,0,0,1-3.64-.62A10.38,10.38,0,0,1,10,72.14a5.8,5.8,0,0,1-.59-2.37A7.48,7.48,0,0,1,9.78,67c.28-1.27.1-2.5.69-3.7a5.28,5.28,0,0,1,2.64-2.4c1.19-.58,2.28-1.52,3.62-1.72a7.28,7.28,0,0,1,2.48.44,10,10,0,0,1,3.39,1A6.68,6.68,0,0,1,25.09,64Z"/><path class="cls-7" d="M25.09,64a9.07,9.07,0,0,0-.6-1.3,5.1,5.1,0,0,1,.08,2.2,3.88,3.88,0,0,1-2.46,2.92,5.8,5.8,0,0,1-2.23.27l-.33,0h0c.07,0,.12.07.08.11A4.61,4.61,0,0,1,22.21,71a2.34,2.34,0,0,1-1.83,2.69c-2.06.67-5.33.25-6.8-1.46A6.31,6.31,0,0,1,12.81,71a7.16,7.16,0,0,0-.36-.68s-.29,0-.36,0c-.35.05-.65.25-1,.33a2,2,0,0,1-1.59-.36A4,4,0,0,0,10,72.14a10.38,10.38,0,0,0,3.07,2.39,10.17,10.17,0,0,0,3.64.62,12.87,12.87,0,0,0,2.13.31,8.34,8.34,0,0,0,2.35-.53,14.79,14.79,0,0,0,1.92-.6c1.14-.61,1.64-2.14,2.11-3.25A10.5,10.5,0,0,0,25.09,64Z"/><path class="cls-25" d="M22.86,63.53a6.47,6.47,0,0,1-4,.91c-1.28-.19-2.69-.74-4-.26-1.45.55.45,4.95-1.7,3.68s.06-3.62,1.12-4.77c-.49,0-1.1-.16-1.51.2s-.21.38-.38.91a2.39,2.39,0,0,1-1.53,1.49c-1.3.17-.66-1.87-.42-2.48a5,5,0,0,1,2.6-2.35c1.19-.58,2.28-1.52,3.62-1.72a7.28,7.28,0,0,1,2.48.44,10,10,0,0,1,3.39,1c.9.57,1.47,1.57.95,2.35A2,2,0,0,1,22.86,63.53Z"/><path class="cls-7" d="M25.59,65.84a5.06,5.06,0,0,1-.47,1.28,3.52,3.52,0,0,1-1.28,1.37,4.16,4.16,0,0,1-.51.41,2.86,2.86,0,0,1,.56,2.29c-.38,2.25-2.45,3.08-4.44,3.45a9,9,0,0,1-3.3.18,11.66,11.66,0,0,1-2.66-1,23,23,0,0,1-2.52-1,3.09,3.09,0,0,1-1.34-1.58,2.29,2.29,0,0,0,.38,1,10.38,10.38,0,0,0,3.07,2.39,10.17,10.17,0,0,0,3.64.62,12.87,12.87,0,0,0,2.13.31,8.34,8.34,0,0,0,2.35-.53,14.79,14.79,0,0,0,1.92-.6c1.14-.61,1.64-2.14,2.11-3.25A9.84,9.84,0,0,0,25.59,65.84Z"/><path class="cls-25" d="M22.2,62.05l-.06.09c-.78,1.1-3.64,1.63-4.82,1.48-.63-.08-1.79.06-2.21-.39-.17-.17,0-.54-.27-.73a1.71,1.71,0,0,0-1.14-.14c-.75.09-2.19,1.59-2.85,1.3-1.32-.56,1.88-2.61,2.26-2.8,1.19-.58,2.28-1.52,3.62-1.72a7.28,7.28,0,0,1,2.48.44C20.17,59.79,23.35,60.26,22.2,62.05Z"/><path class="cls-74" d="M22.51,61.36c-1.49.27.08,2.82.87,3.15C24.85,65.12,24,61.1,22.51,61.36Z"/><path class="cls-74" d="M23.37,64.5c.27-.42,0-1.41-.16-1.8a1.22,1.22,0,0,0-.68-.78.58.58,0,0,0-.64.15A3.47,3.47,0,0,0,23.37,64.5Z"/><path class="cls-8" d="M23.56,62c.71,1,.87,3-.18,2.55a2.1,2.1,0,0,1-.68-.6,2.33,2.33,0,0,0,.82.78C24.64,65.16,24.39,62.93,23.56,62Z"/><path class="cls-74" d="M11.52,70.58c-.73,1.62-2.24-2.1-.64-2.07C11.76,68.53,11.73,70.12,11.52,70.58Z"/><path class="cls-74" d="M11.52,70.58a.85.85,0,0,1-.22.32.54.54,0,0,1-.28-.19,1.87,1.87,0,0,1-.36-.89,1.84,1.84,0,0,1,.11-1,.5.5,0,0,1,.25-.28C11.76,68.71,11.72,70.15,11.52,70.58Z"/><path class="cls-8" d="M10.56,68.57c-1.05.47.29,3.51,1,2a1.89,1.89,0,0,0,.13-.76,2.46,2.46,0,0,1-.13,1C10.76,72.45,9.26,68.94,10.56,68.57Z"/><path class="cls-74" d="M11.53,64.84c-1.37.51-.58-2.66.58-1.63C12.75,63.77,11.92,64.7,11.53,64.84Z"/><path class="cls-74" d="M11.53,64.84a.7.7,0,0,1-.33,0,.5.5,0,0,1-.1-.28,1.27,1.27,0,0,1,.18-.76,1.17,1.17,0,0,1,.6-.54.47.47,0,0,1,.33,0C12.66,63.87,11.9,64.71,11.53,64.84Z"/><path class="cls-8" d="M11.84,63c-1-.38-1.57,2.27-.31,1.8a1.35,1.35,0,0,0,.48-.37,1.56,1.56,0,0,1-.59.49C10,65.48,10.7,62.44,11.84,63Z"/><path class="cls-7" d="M21.56,68.61c-.34.88,1.76,1.21,1.57.25C23.06,68.5,21.72,68.21,21.56,68.61Z"/><path class="cls-7" d="M11.65,72c-.25.89,1.26,1.21,1.12.25C12.72,71.88,11.76,71.59,11.65,72Z"/><path class="cls-7" d="M20.06,69a3.18,3.18,0,0,0-2.74-.17c-.56.19-2.06.71-2.09,1.42.32.27,1.6,0,2.12.16.91.24,1.82.49,2.72.77,1.4.43,1.31-1.18.52-1.81A3,3,0,0,0,20.06,69Z"/><path class="cls-7" d="M20.09,68.93a4.2,4.2,0,0,0-2-.3c-.26,0-1.79.43-1.29.89.29.27,1.77-.33,2.31,0,.34.17,1.61,1.69,1.64.3C20.77,69.39,20.49,69.12,20.09,68.93Z"/><path class="cls-28" d="M21.16,66.17a2.55,2.55,0,0,0-.2-.48,3.11,3.11,0,0,0,.51-1l-.58-.57-.57-.57a3,3,0,0,0-1,.51,2.62,2.62,0,0,0-.46-.19,3.11,3.11,0,0,0-.35-1.07H16.89a2.92,2.92,0,0,0-.34,1.07,2.72,2.72,0,0,0-.47.19,2.78,2.78,0,0,0-1-.51l-.57.57-.57.57a2.86,2.86,0,0,0,.5,1c-.07.15-.14.31-.2.48a2.81,2.81,0,0,0-1.05.34v1.62a3.08,3.08,0,0,0,1,.34,4.4,4.4,0,0,0,.21.5,3,3,0,0,0-.49,1l.57.57.57.57c.17,0,.68-.3,1-.48a4.71,4.71,0,0,0,.52.21,2.76,2.76,0,0,0,.33,1h1.62a2.94,2.94,0,0,0,.34-1,4.55,4.55,0,0,0,.51-.21,2.83,2.83,0,0,0,1,.48l.57-.57.58-.57a2.89,2.89,0,0,0-.5-1,4.4,4.4,0,0,0,.21-.5,3.08,3.08,0,0,0,1-.34V66.51A2.81,2.81,0,0,0,21.16,66.17Zm-3.46,3a1.86,1.86,0,1,1,1.86-1.86A1.86,1.86,0,0,1,17.7,69.2Z"/><path class="cls-37" d="M21.06,65.9a2.41,2.41,0,0,0,.41-.84L21.38,65a6.66,6.66,0,0,1-.42.71A2,2,0,0,1,21.06,65.9Z"/><path class="cls-37" d="M14.44,65.69A6.66,6.66,0,0,1,14,65l-.08.08a2.24,2.24,0,0,0,.41.84Z"/><path class="cls-37" d="M17.7,65.48a1.87,1.87,0,0,0-1.86,1.86c0,.06,0,.12,0,.18a1.86,1.86,0,0,1,3.7,0,1.09,1.09,0,0,0,0-.18A1.86,1.86,0,0,0,17.7,65.48Z"/><path class="cls-37" d="M14.33,69.12l.1-.15a4.4,4.4,0,0,1-.21-.5,3.08,3.08,0,0,1-1-.34v.36a2.87,2.87,0,0,0,1,.34Z"/><path class="cls-37" d="M16,71a3.33,3.33,0,0,0,.52.21,2.76,2.76,0,0,0,.33,1h1.62a2.94,2.94,0,0,0,.34-1,3.22,3.22,0,0,0,.51-.21,3.1,3.1,0,0,0,1,.49l.57-.58.58-.57a.72.72,0,0,0-.09-.28l-.49.49-.57.57a2.83,2.83,0,0,1-1-.48,4.55,4.55,0,0,1-.51.21,2.94,2.94,0,0,1-.34,1H16.89a2.76,2.76,0,0,1-.33-1A4.71,4.71,0,0,1,16,70.6c-.28.18-.79.51-1,.48l-.57-.57L14,70a.67.67,0,0,0-.08.28l.57.57.57.58A3,3,0,0,0,16,71Z"/><path class="cls-37" d="M22.21,68.13a3.08,3.08,0,0,1-1,.34A4.4,4.4,0,0,1,21,69a1,1,0,0,1,.1.15c0-.1.08-.19.11-.29a2.87,2.87,0,0,0,1-.34v-.36Z"/><path class="cls-75" d="M14.51,64.46l.57-.58a3,3,0,0,1,1,.52,3.9,3.9,0,0,1,.47-.2,2.93,2.93,0,0,1,.34-1.06h1.62a3.12,3.12,0,0,1,.35,1.06,3.76,3.76,0,0,1,.46.2,3.2,3.2,0,0,1,1-.52l.57.58.5.5a.73.73,0,0,0,.08-.26l-.58-.57-.57-.57a3,3,0,0,0-1,.51,2.62,2.62,0,0,0-.46-.19,3.11,3.11,0,0,0-.35-1.07H16.89a2.92,2.92,0,0,0-.34,1.07,2.72,2.72,0,0,0-.47.19,2.78,2.78,0,0,0-1-.51l-.57.57-.57.57A.53.53,0,0,0,14,65Z"/><path class="cls-75" d="M21.06,69.1a1.76,1.76,0,0,1-.09.2,4.43,4.43,0,0,1,.42.71l.08-.07A2.32,2.32,0,0,0,21.06,69.1Z"/><path class="cls-75" d="M13.19,66.84a2.81,2.81,0,0,1,1.05-.34c.06-.17.13-.33.2-.48a.8.8,0,0,0-.09-.14l-.11.29a2.81,2.81,0,0,0-1.05.34v.33Z"/><path class="cls-75" d="M14.34,69.1a2.43,2.43,0,0,0-.4.84L14,70a6.66,6.66,0,0,1,.42-.71Z"/><path class="cls-75" d="M17.7,69.53a1.86,1.86,0,0,0,1.86-1.86.86.86,0,0,0,0-.16,1.86,1.86,0,0,1-3.7,0s0,.11,0,.16A1.86,1.86,0,0,0,17.7,69.53Z"/><path class="cls-75" d="M21.16,66.17c0-.1-.07-.19-.11-.29L21,66a2.55,2.55,0,0,1,.2.48,2.81,2.81,0,0,1,1.05.34v-.33A2.81,2.81,0,0,0,21.16,66.17Z"/><path class="cls-76" d="M15.91,66.85a1.86,1.86,0,0,1,3.61.12,7.94,7.94,0,0,1,2.69,1V66.51a2.81,2.81,0,0,0-1.05-.34,2.55,2.55,0,0,0-.2-.48,3.11,3.11,0,0,0,.51-1l-.58-.57-.57-.57a3,3,0,0,0-1,.51,2.62,2.62,0,0,0-.46-.19,3.11,3.11,0,0,0-.35-1.07H16.89a2.92,2.92,0,0,0-.34,1.07,2.72,2.72,0,0,0-.47.19,2.78,2.78,0,0,0-1-.51l-.57.57-.57.57a2.86,2.86,0,0,0,.5,1c-.07.15-.14.31-.2.48a2.81,2.81,0,0,0-1.05.34V67.7A7.79,7.79,0,0,1,15.91,66.85Z"/><path class="cls-77" d="M61.45,75.09a6.8,6.8,0,0,1-2.92.34c-1.64-.05-3.31.17-4.93.08a2.16,2.16,0,0,1-1.75-.86c-1.45-1.58-3.12-3.54-2.86-5.78.12-1,0-2.08.1-3.12.11-1.2,0-2.22.82-3.22A16.33,16.33,0,0,1,54,59.7c2.12-1.3,3.78-.36,5.89.37,1,.35,2.45.5,3.28,1.2a3.33,3.33,0,0,1,.78,1.32c.55,1.35.93,2.76,1.46,4.12.69,1.77.13,2.69-.78,4.26a15.93,15.93,0,0,1-2.17,3.47A3.22,3.22,0,0,1,61.45,75.09Z"/><path class="cls-25" d="M62.53,64.39c0,.68.45,1.79.23,2.07S60,64.85,59.47,64.7c-2-.59-4.33.11-6.21.66-.2-1.17,1.75-.91.47-2.3-.51-.55-1.29-.08-1.95.17-.4.15-1.8.92-2.15.57-1.18-1.2,3.72-3.73,4.34-4.1,2.12-1.3,3.78-.36,5.89.37,1.42.49,3.83.61,3.22,2.77-.12.42-.42.78-.53,1.21A1.19,1.19,0,0,0,62.53,64.39Z"/><path class="cls-7" d="M65.38,66.71c-.15-.38-.28-.76-.41-1.15a9.28,9.28,0,0,1-.11,2.34,8.16,8.16,0,0,1-3.5,5c-1.83,1.24-4.58,1.34-5.64-.94-.15-.31-.27-.87-.52-.88-.52,0-1.2.53-1.68.71a3.94,3.94,0,0,1-3.14,0,3.07,3.07,0,0,1-1.14-1,11.86,11.86,0,0,0,2.61,3.78,2.16,2.16,0,0,0,1.75.86c1.62.09,3.29-.13,4.93-.08a6.8,6.8,0,0,0,2.92-.34,3.22,3.22,0,0,0,1-.65A15.93,15.93,0,0,0,64.6,71C65.51,69.4,66.07,68.48,65.38,66.71Z"/><path class="cls-7" d="M64.35,70.71c-1.18,2.17-4.92,5.4-7.45,3.28a4.86,4.86,0,0,1-1.51-2.68,5.31,5.31,0,0,0-1.19.43,1.52,1.52,0,0,1,.95,1.63c-.14,1.65-3,1.12-3.95.56.22.25.43.49.65.72a2.16,2.16,0,0,0,1.75.86c1.62.09,3.29-.13,4.93-.08a6.8,6.8,0,0,0,2.92-.34,3.22,3.22,0,0,0,1-.65A15.93,15.93,0,0,0,64.6,71c.78-1.34,1.3-2.21,1-3.54A11,11,0,0,1,64.35,70.71Z"/><path class="cls-74" d="M50.32,65.43c1.69-.45,1.28,3,.63,3.7C49.71,70.49,48.68,65.86,50.32,65.43Z"/><path class="cls-74" d="M51,69.13c-.49-.31-.67-1.48-.7-2A1.37,1.37,0,0,1,50.57,66a.65.65,0,0,1,.74-.15A4,4,0,0,1,51,69.13Z"/><path class="cls-8" d="M49.52,66.57c-.24,1.43.54,3.54,1.43,2.56a2.36,2.36,0,0,0,.41-.95,2.67,2.67,0,0,1-.47,1.21C50,70.43,49.13,68,49.52,66.57Z"/><path class="cls-74" d="M63.24,68.76c.75,2.49,2.27-3.2.65-3.15C63,65.64,63,68.07,63.24,68.76Z"/><path class="cls-74" d="M63.24,68.76a1.62,1.62,0,0,0,.24.51.62.62,0,0,0,.27-.3,3.43,3.43,0,0,0,.36-1.37,4.19,4.19,0,0,0-.1-1.54.72.72,0,0,0-.26-.42C63,65.91,63.05,68.11,63.24,68.76Z"/><path class="cls-8" d="M64.22,65.7c1,.71-.29,5.35-1,3.06a4.57,4.57,0,0,1-.12-1.15,5.66,5.66,0,0,0,.13,1.47C64,71.63,65.53,66.27,64.22,65.7Z"/><path class="cls-74" d="M61.68,63.52c1.39.52.6-2.68-.58-1.65C60.46,62.44,61.3,63.38,61.68,63.52Z"/><path class="cls-74" d="M61.68,63.52a.64.64,0,0,0,.34,0,.59.59,0,0,0,.11-.28,1.24,1.24,0,0,0-.2-.77,1.15,1.15,0,0,0-.59-.54A.42.42,0,0,0,61,62C60.55,62.54,61.32,63.39,61.68,63.52Z"/><path class="cls-8" d="M61.37,61.7c1-.38,1.59,2.3.31,1.82a1.34,1.34,0,0,1-.47-.38,1.49,1.49,0,0,0,.58.5C63.22,64.17,62.53,61.1,61.37,61.7Z"/><path class="cls-25" d="M59.82,63.3c-.25.44-2.06.32-2.5.27a3.49,3.49,0,0,1-2-.57c-.16-.18,0-.5-.2-.69a2.54,2.54,0,0,0-1.1-.45c-.34-.11-1.83-.15-2-.44-.34-.59,1.56-1.52,1.9-1.72,2.12-1.3,3.78-.36,5.89.37.71.25,2.08.23,2.21,1.17-.84.12-2.23,0-2.41,1.13C59.61,62.67,60,63,59.82,63.3Z"/><path class="cls-7" d="M53.83,72.8c.34.89-1.77,1.22-1.58.25C52.32,72.69,53.67,72.4,53.83,72.8Z"/><path class="cls-28" d="M53.37,63.59c-.26.17.12,1.78.32,2.27s6.74-.12,6.74-.12.45-2,.45-2.07A71.56,71.56,0,0,0,53.37,63.59Z"/><path class="cls-28" d="M60.36,66.45a53.32,53.32,0,0,0-6.82,0c-.1.23-.46,2-.26,2.15s7.39.14,7.4-.12S60.63,66.54,60.36,66.45Z"/><path class="cls-28" d="M59.82,71.36c.16-.26.64-2.18.43-2.28s-6.5.08-6.55.2a7.7,7.7,0,0,0,.29,2C54.13,71.5,59.66,71.63,59.82,71.36Z"/><path class="cls-37" d="M54,71.62c.14.24,5.67.38,5.83.11a6.68,6.68,0,0,0,.47-2.23,7.94,7.94,0,0,1-.47,1.86c-.16.27-5.69.14-5.83-.11a8.77,8.77,0,0,1-.29-1.61h0A7.77,7.77,0,0,0,54,71.62Z"/><path class="cls-37" d="M53.28,68.64a.27.27,0,0,1-.05-.14c0,.25,0,.45.05.5a22.18,22.18,0,0,0,3.28.11c.93,0,1.91,0,2.62,0a4.82,4.82,0,0,0,1.5-.17v-.36A43.6,43.6,0,0,1,53.28,68.64Z"/><path class="cls-37" d="M60.43,65.74s-6.59.49-6.74.12a7.29,7.29,0,0,1-.4-1.72,6.25,6.25,0,0,0,.4,2.08c.15.37,6.74-.12,6.74-.12s.45-2,.45-2.07h-.07C60.69,64.61,60.43,65.74,60.43,65.74Z"/><path class="cls-75" d="M60.25,69.08c-.2-.09-6.5.08-6.55.2a1.09,1.09,0,0,0,0,.33,64.33,64.33,0,0,1,6.55-.2s0,0,0,.07C60.31,69.26,60.31,69.11,60.25,69.08Z"/><path class="cls-75" d="M60.36,66.45a53.32,53.32,0,0,0-6.82,0,7.1,7.1,0,0,0-.31,2,8.65,8.65,0,0,1,.31-1.66,53.32,53.32,0,0,1,6.82,0c.22.07.3,1.17.32,1.75h0C60.69,68.26,60.63,66.54,60.36,66.45Z"/><path class="cls-75" d="M53.37,63.59c-.08.06-.1.26-.08.53a.29.29,0,0,1,.08-.2c.25-.16,6.76,0,7.45.06,0-.17.06-.29.06-.31A71.56,71.56,0,0,0,53.37,63.59Z"/><path class="cls-76" d="M53.37,63.59c-.26.17.12,1.78.32,2.27s6.74-.12,6.74-.12.45-2,.45-2.07A71.56,71.56,0,0,0,53.37,63.59Z"/><path class="cls-76" d="M59,67.38a11,11,0,0,1,1.67.63c0-.6-.12-1.49-.31-1.56a53.32,53.32,0,0,0-6.82,0,7.43,7.43,0,0,0-.23,1A8.94,8.94,0,0,1,59,67.38Z"/><path class="cls-78" d="M65.64,2.22A3.32,3.32,0,0,0,64.37,2a7.53,7.53,0,0,1-1.94-.17,4.28,4.28,0,0,0-2.3-.08,6.24,6.24,0,0,0-2.62,1.46c-.34.32-1.29.93-1.48,1.51a2.61,2.61,0,0,0-.26.53c-.36,1.14,0,2.41-.17,3.57a1.5,1.5,0,0,0,0,.2h0c0,.14,0,.27,0,.4v0c0,.13,0,.26,0,.38v0l0,.19h0v0l0,.15v0c0,.1.05.21.08.31v.09a.75.75,0,0,1,.05.16l0,.06,0,.12,0,0v0l0,0a2.56,2.56,0,0,1,.11.24v0l0,0,.09.18,0,.06.06.09v0l0,.05a.25.25,0,0,1,0,.07l.15.21a7.83,7.83,0,0,0,.54.66,5.43,5.43,0,0,0,.63.64l.17.15a3.86,3.86,0,0,0,1.3.74,3.12,3.12,0,0,0,.69.13,5.7,5.7,0,0,0,.72,0h.73c.24,0,.48,0,.71,0l.7,0h0c.23,0,.47,0,.7,0h0a7.6,7.6,0,0,0,1.07-.1l.36-.08a6.7,6.7,0,0,0,.79-.28,3.45,3.45,0,0,0,.47-.24C66.09,10,65.83,6.1,65.64,2.22Z"/><path class="cls-78" d="M66.26,39.83c-.2,0-.4-.1-.6-.13l-.42-.07-.41,0a3.7,3.7,0,0,0-.58,0,3.44,3.44,0,0,0-.75.15,4.79,4.79,0,0,0-1.37.7l-.22.17c-.34.25-.66.52-1,.8l-.23.17a1.18,1.18,0,0,1-.19.11c-.23.14-.47.27-.71.39s-.54.29-.79.45l-.35.26a2.13,2.13,0,0,0-.56.67,2.5,2.5,0,0,0-.18.48c0,.08,0,.17-.05.26a5,5,0,0,1-.15.67h0c-.23.64-1.09,1.23-1.16,1.92a.69.69,0,0,0,0,.13.2.2,0,0,0,0,.07,1.92,1.92,0,0,0,0,.22v.07a2,2,0,0,0,0,.25v0a10.73,10.73,0,0,0,.68,2.87h0c0,.1.07.19.1.28s.05.16.08.23c.1.31.22.64.34,1h0c.12.31.25.62.4.92l0,.1.08.15a.75.75,0,0,0,.07.12l.07.14.08.14.08.12.09.15.07.1.17.24,0,.07.13.16.07.09.13.13.08.09.13.13.08.07.15.13.07.06.24.17a5.18,5.18,0,0,0,2.92.68c.34,0,.68,0,1.05.08L64,56a1.49,1.49,0,0,1,.28.11c.12.06.22.13.36.19l.15.06a1.63,1.63,0,0,0,.3.07l.31,0,.49,0,.24,0C66.29,51,66.76,45.39,66.26,39.83Z"/><path class="cls-78" d="M17.39,46.92v-.06a1.64,1.64,0,0,0,0-.22.17.17,0,0,1,0-.07l0-.13c-.07-.7-.93-1.28-1.15-1.93h0a.84.84,0,0,1-.05-.17A4.69,4.69,0,0,1,16,43.8c0-.12,0-.24-.09-.36a1.89,1.89,0,0,0-.13-.33,2.65,2.65,0,0,0-.25-.37,3.59,3.59,0,0,0-.86-.68l-.39-.22A9.07,9.07,0,0,1,13,41.06l-.59-.47-.19-.16c-.19-.14-.37-.29-.57-.42a4.23,4.23,0,0,0-2-.78H9l-.4,0-.42.06-.59.13-.08,0-.1,0C7.28,44.75,7.29,50,7.09,55.27c0,.3,0,.61,0,.91h.05l.77,0h.17a3.54,3.54,0,0,0,.48-.05A2.42,2.42,0,0,0,9,56l.15,0,.36-.19.09-.05.2-.06.12,0c1.44-.18,2.69.08,4-.77l.24-.17.07-.06.15-.12.08-.08.13-.13.08-.08a.86.86,0,0,0,.13-.14l.07-.08.13-.17.06-.07.17-.23.06-.1.1-.15.07-.13.08-.13.08-.14.06-.12a1.09,1.09,0,0,0,.08-.15l0-.1c.15-.3.28-.61.4-.92h0c.13-.33.24-.65.35-1,0-.08.05-.16.07-.24a11.46,11.46,0,0,0,.78-3.15v0A2.18,2.18,0,0,0,17.39,46.92Z"/><path class="cls-78" d="M18.42,7.14a6.73,6.73,0,0,0-1-2.46,1.11,1.11,0,0,0-.12-.16c-.12-.15-.24-.29-.37-.43a7.67,7.67,0,0,0-.56-.58c-.19-.19-.39-.37-.61-.56a3.21,3.21,0,0,0-2.09-.67,7.56,7.56,0,0,1-2-.16A4.26,4.26,0,0,0,9.36,2a6.91,6.91,0,0,0-1.88.87c-.05.5-.09,1-.13,1.51,0,3.16-.18,6.32-.36,9.48a4.57,4.57,0,0,0,.58.43,3.05,3.05,0,0,0,.78.36,15.16,15.16,0,0,0,2.87.19,8,8,0,0,0,2.89-.12,2.77,2.77,0,0,0,.41-.12,5,5,0,0,0,1.14-.55l.34-.24a5,5,0,0,0,.63-.58l.27-.32a2.43,2.43,0,0,0,.14-.2l.05-.07.08-.13,0-.09.06-.11a1.17,1.17,0,0,0,0-.11l.05-.09.05-.12a.59.59,0,0,0,0-.08.69.69,0,0,1,.05-.13l0-.08,0-.13,0-.08,0-.13a.19.19,0,0,0,0-.07h0c.17-.58.29-1.18.46-1.8l.12-.41h0l.06-.22A3.57,3.57,0,0,0,18.42,7.14Z"/><path class="cls-79" d="M69,6.93l-.18.62a9,9,0,0,1-1.23,3.39,5,5,0,0,1-2.76,1.81,8.15,8.15,0,0,1-2.87.11,14.9,14.9,0,0,1-2.85-.18,5.94,5.94,0,0,1-2.64-2.2,4.53,4.53,0,0,1-.89-3.27c.15-1.17-.19-2.44.17-3.58a5.5,5.5,0,0,1,1.74-2A6.35,6.35,0,0,1,60.13.13a4.19,4.19,0,0,1,2.3.09,8,8,0,0,0,1.94.16A3.19,3.19,0,0,1,66.44,1,11.8,11.8,0,0,1,68,2.59,6.39,6.39,0,0,1,69.11,5.2,3.38,3.38,0,0,1,69,6.93Z"/><path class="cls-25" d="M68.3,5.92a3.84,3.84,0,0,1-.6.2,2.6,2.6,0,0,0-.85.59A2.12,2.12,0,0,1,65,7,2.83,2.83,0,0,1,64,6.64c-.46-.36-.65-.89-1.21-1.17a2.31,2.31,0,0,0-1.17-.34,14.08,14.08,0,0,0-1.41.59c-.65.18-1.17.2-1-.6a1.92,1.92,0,0,1,.56-.9c.3-.17.81,0,1.16,0,.66,0,2.69-.16,2.23-1.29S60.82,2.59,60,2.55a4.43,4.43,0,0,0-1.85,0c-.61.2-1.47,1-2.14.86-.11-.66,1.11-1.43,1.51-1.8A6.35,6.35,0,0,1,60.13.13a4.19,4.19,0,0,1,2.3.09,8,8,0,0,0,1.94.16A3.19,3.19,0,0,1,66.44,1,11.8,11.8,0,0,1,68,2.59c.59.71,1.19,2.43.46,3.23Z"/><path class="cls-7" d="M69,7.15c-.33.7-.68,1.28-1.55,1a6.77,6.77,0,0,0-1.89-.56c-.72,0-1,0-1.48-.5a2.71,2.71,0,0,0-1.11-.75A3,3,0,0,1,63.3,7c.05.14.07.57.15.65s.52.15.71.23a3.76,3.76,0,0,1,.94.52c.67.53.76.89.22,1.56a2.08,2.08,0,0,1-2.19,1c-1.71-.17-3.87-.34-5-1.84-.73-.94.15-2.59.61-3.46-.64-.07-.63.47-.8.91a1.69,1.69,0,0,1-2.32.76,4.53,4.53,0,0,0,.91,3.07,5.94,5.94,0,0,0,2.64,2.2,14.9,14.9,0,0,0,2.85.18,8.15,8.15,0,0,0,2.87-.11,5,5,0,0,0,2.76-1.81,9,9,0,0,0,1.23-3.39Z"/><path class="cls-7" d="M63.36,7.37a3.47,3.47,0,0,0,2.39.21l-.23,0c-.72,0-1,0-1.48-.5a2.71,2.71,0,0,0-1.11-.75A3,3,0,0,1,63.3,7,1.8,1.8,0,0,1,63.36,7.37Z"/><path class="cls-7" d="M66.94,10.58c-.42.16-.81.17-1-.13s.07-.74,0-1c-.28.95-1.29,1.48-2,2,.23,0,.47,0,.52.25.12.63-2.61.45-3,.47a5,5,0,0,1-2.68-.22,10.47,10.47,0,0,1-2.48-2.49,4,4,0,0,1-.65-1,4.61,4.61,0,0,0,.87,2.05,5.94,5.94,0,0,0,2.64,2.2,14.9,14.9,0,0,0,2.85.18,8.15,8.15,0,0,0,2.87-.11,5,5,0,0,0,2.76-1.81,4.85,4.85,0,0,0,.78-1.6A2.78,2.78,0,0,1,66.94,10.58Z"/><path class="cls-25" d="M67,2.09A3.48,3.48,0,0,0,64.4.74a4.47,4.47,0,0,1-1.59,0C62.4.62,62,.36,61.63.25A3.7,3.7,0,0,0,59.1.74c-.59.29-1.67.81-1.82,1.51a2.77,2.77,0,0,1,1.13-.42c.32,0,.72.06,1.07.07s.77.16,1.16.15c.84,0,1.76-.92,2.54-.25A5,5,0,0,1,64,3c.22.39.13.46,0,.86s0,.44.56.57c.73.17,2.31.26,2.78-.53S67.42,2.59,67,2.09Z"/><path class="cls-74" d="M68.69,5.76c-.61-.69-1.43.93-1.36,1.44C67.47,8.16,69.28,6.43,68.69,5.76Z"/><path class="cls-74" d="M67.33,7.19c.3,0,.73-.45.88-.64a.72.72,0,0,0,.2-.6.35.35,0,0,0-.28-.28A2.1,2.1,0,0,0,67.33,7.19Z"/><path class="cls-8" d="M68.71,6.5c-.32.69-1.28,1.39-1.38.7a1.2,1.2,0,0,1,.1-.54,1.51,1.51,0,0,0-.15.67C67.39,8.06,68.47,7.23,68.71,6.5Z"/><path class="cls-74" d="M57.16,3.88c-1.36.45,0-2.46.86-1.5C58.48,2.9,57.54,3.75,57.16,3.88Z"/><path class="cls-74" d="M57.16,3.88a.79.79,0,0,1-.32,0,.44.44,0,0,1,0-.26,1.45,1.45,0,0,1,.32-.7,1.43,1.43,0,0,1,.65-.49.39.39,0,0,1,.3,0C58.38,3,57.52,3.76,57.16,3.88Z"/><path class="cls-8" d="M57.8,2.22c-.84-.36-1.89,2.07-.64,1.66a1.94,1.94,0,0,0,.51-.35A1.79,1.79,0,0,1,57,4C55.65,4.45,56.88,1.66,57.8,2.22Z"/><path class="cls-74" d="M59.16,1.55c-1.08,0,.76-1.59,1.06-.79C60.38,1.19,59.47,1.55,59.16,1.55Z"/><path class="cls-74" d="M59.16,1.55a.67.67,0,0,1-.23,0,.26.26,0,0,1,0-.18A1.31,1.31,0,0,1,59.43,1,1.27,1.27,0,0,1,60,.77a.31.31,0,0,1,.21.06C60.28,1.23,59.45,1.55,59.16,1.55Z"/><path class="cls-8" d="M60.12.61c-.47-.4-2,1-1,.94a1.3,1.3,0,0,0,.46-.12A2,2,0,0,1,59,1.6C57.93,1.62,59.65.06,60.12.61Z"/><path class="cls-7" d="M59.08,11c-.28.71,1.39,1,1.24.2C60.27,10.93,59.2,10.7,59.08,11Z"/><path class="cls-7" d="M56.07,6.38c-.2.7,1,1,.9.2C56.93,6.29,56.16,6.06,56.07,6.38Z"/><path class="cls-7" d="M63.93,8.27a1.93,1.93,0,0,0-2-.06c-.43.29-1,.84-.14,1a14,14,0,0,0,1.71.17c.4,0,1,0,1.25-.41a1.69,1.69,0,0,0-.38-.42A2.73,2.73,0,0,0,63.93,8.27Z"/><path class="cls-7" d="M63.91,8.56c-.46-.5-2-.38-1.49.2A1.17,1.17,0,0,0,64,8.66.3.3,0,0,0,63.91,8.56Z"/><path class="cls-74" d="M66.33,2.08c-1,.19,0,2,.61,2.22C68,4.73,67.34,1.9,66.33,2.08Z"/><path class="cls-74" d="M66.93,4.29c.19-.29,0-1-.11-1.26a.88.88,0,0,0-.48-.56.41.41,0,0,0-.45.11A2.44,2.44,0,0,0,66.93,4.29Z"/><path class="cls-8" d="M67.06,2.51c.5.73.62,2.1-.12,1.79a1.4,1.4,0,0,1-.48-.43,1.68,1.68,0,0,0,.57.55C67.82,4.75,67.64,3.19,67.06,2.51Z"/><path class="cls-28" d="M60.25,9.57A14.83,14.83,0,0,0,62,8a13,13,0,0,0,1.85,1.67c.31,0,1.39-1.17,1.16-1.51-.08-.12-.73-.82-1.51-1.65a14,14,0,0,0,1.64-1.82c0-.32-1.17-1.39-1.51-1.17-.12.08-.79.7-1.59,1.46L60.53,3.39A4.46,4.46,0,0,0,59,4.78a14.12,14.12,0,0,0,1.51,1.68L58.86,8A4.42,4.42,0,0,0,60.25,9.57Z"/><path class="cls-37" d="M65.08,4.79A21,21,0,0,1,63.5,6.51l.14.15A12.36,12.36,0,0,0,65.14,5,.28.28,0,0,0,65.08,4.79Z"/><path class="cls-37" d="M59,4.92a.31.31,0,0,0-.08.15A11.9,11.9,0,0,0,60.33,6.6a1.85,1.85,0,0,0,.14-.14C59.8,5.77,59.25,5.18,59,4.92Z"/><path class="cls-37" d="M60.25,9.86A14.83,14.83,0,0,0,62,8.29,13.8,13.8,0,0,0,63.85,10c.31,0,1.39-1.17,1.16-1.51h0c-.17.48-.91,1.26-1.16,1.22A13,13,0,0,1,62,8a14.83,14.83,0,0,1-1.75,1.57A4.73,4.73,0,0,1,59,8.21l-.09.09A4.42,4.42,0,0,0,60.25,9.86Z"/><path class="cls-75" d="M63.63,3.52c-.12.08-.79.7-1.59,1.46L60.53,3.39A4.46,4.46,0,0,0,59,4.78.41.41,0,0,0,59,4.9a4.88,4.88,0,0,1,1.5-1.25L62,5.24c.8-.76,1.47-1.38,1.59-1.46.3-.19,1.24.58,1.46,1a.21.21,0,0,0,0-.09C65.18,4.37,64,3.3,63.63,3.52Z"/><path class="cls-75" d="M60.34,6.59,58.86,8a.83.83,0,0,0,.08.18l1.53-1.46Z"/><path class="cls-75" d="M65,8.43h0a.31.31,0,0,0,0-.27c-.07-.12-.66-.75-1.38-1.52l-.13.13C64.28,7.6,64.93,8.3,65,8.43Z"/><path class="cls-76" d="M60.09,6.83a6.1,6.1,0,0,1,3.66,0l-.25-.27a14,14,0,0,0,1.64-1.82c0-.32-1.17-1.39-1.51-1.17-.12.08-.79.7-1.59,1.46L60.53,3.39A4.46,4.46,0,0,0,59,4.78a14.12,14.12,0,0,0,1.51,1.68Z"/><path class="cls-80" d="M72.66,50.8A4.34,4.34,0,0,0,73.85,48a14.5,14.5,0,0,0-.15-2.94,8.28,8.28,0,0,0-2.91-5,11,11,0,0,0-3.33-1.5A9.11,9.11,0,0,0,64.25,38c-1.44.14-2.28,1-3.36,1.82-.88.69-2.26,1-2.83,2.05a8.64,8.64,0,0,0-.38,1.41c-.24.69-.92,1.14-1.12,1.79-.39,1.24.37,3.14.75,4.29.49,1.49,1.26,3.34,2.64,4.25s2.52.58,4,.76a2.6,2.6,0,0,1,.76.32,3.64,3.64,0,0,0,1.25.21,6.24,6.24,0,0,0,3-.31C70.58,53.84,71.64,52.16,72.66,50.8Z"/><path class="cls-25" d="M70.79,40a11,11,0,0,0-3.33-1.5A9.11,9.11,0,0,0,64.25,38c-1.44.14-2.28,1-3.36,1.82-.88.69-2.26,1-2.83,2.05a8.64,8.64,0,0,0-.38,1.41c-.24.69-.92,1.14-1.12,1.79a3.18,3.18,0,0,0-.09,1.21,2.11,2.11,0,0,0,.18.27,4.25,4.25,0,0,0,3.09,1.21A3.24,3.24,0,0,1,60.8,48c.18.08.44.36.64.4.58.1,1.59-.74,1.93-1.13,1.07-1.23-.81-2-1.53-2.69-1-1,.92-1.6,1.68-1.64.47,0,1-.09,1.25.39.11.21.07.48.2.72a10,10,0,0,0,.72,1c.44.62.83.58,1.53.5a5,5,0,0,1,1.73.33,1.77,1.77,0,0,0,1.43-.12c.58-.47.11-.88.24-1.38.34-1.36,1.5.41,1.83.52s.79-.1,1.1-.48A8,8,0,0,0,70.79,40Z"/><path class="cls-25" d="M70.78,40a8.92,8.92,0,0,0-3.32-1.51A9.11,9.11,0,0,0,64.25,38c-1.44.14-2.28,1-3.36,1.82-.88.69-2.26,1-2.83,2.05a8.64,8.64,0,0,0-.38,1.41c-.25.72-1.31,1.37-1.14,2.19s1.19,1.11,1.84,1.24,3.25.35,3.51-.27c.35-.83-1.13-1.6-1.66-1.85s-1.45-.36-1.34-1.21c.14-1.08,1.59-2.1,2.44-2.5a3,3,0,0,1,2.88-.17c.43.23.77.63,1.22.83.22.1,1,.07,1.08.24s-.16.56,0,.87c.4.59,1.86.49,2.44.47,1,0,2.93-.05,2.7-1.47A2.66,2.66,0,0,0,70.78,40Z"/><path class="cls-7" d="M72.66,47.57c-.25-.14-.15-.54-.56-.59-.45.74-.35,1.32-1.13,1.88s-2.19,1.42-3.32.87c-.94-.45-.8-1.74-1.18-2.53a1.07,1.07,0,0,0-1.78-.14,6.35,6.35,0,0,1,1,1.49,4.81,4.81,0,0,1,1.1,2.87A4.08,4.08,0,0,1,66.51,53c-.31.49-.54.37-1.07.36-1.57-.05-2.91.26-4.35-.52-.88-.47-.93-1.07-.57-2,.23-.61.74-1,0-1.34a4.64,4.64,0,0,0-1.74-.19c-.29,0-.76.15-1,0-.11,0-.17-.22-.27-.26s-.2-.16-.3-.17l.18.51c.49,1.49,1.26,3.34,2.64,4.25s2.52.58,4,.76a2.6,2.6,0,0,1,.76.32,3.64,3.64,0,0,0,1.25.21,6.24,6.24,0,0,0,3-.31c1.61-.73,2.67-2.41,3.69-3.77A4.34,4.34,0,0,0,73.85,48c0-.67,0-1.3,0-1.94-.11.24-.2.49-.27.63C73.37,47.08,73.17,47.86,72.66,47.57Z"/><path class="cls-7" d="M72.39,50.14a.28.28,0,0,1-.13,0c-.22-.09,0-.37-.16-.45-.45-.25-.51.24-.68.65-.36.9-.9,1.11-1.75,1.53-1.16.59-2.07.11-2.34-1.2C67.21,50,67,48,66,48.07a6.69,6.69,0,0,1,1.16,3A3.86,3.86,0,0,1,67,53.3c-.56.83-1.83.54-2.63.49a15.42,15.42,0,0,1-3.1-.35,3.44,3.44,0,0,1-2.47-2,3.47,3.47,0,0,0-1.24-1.34A7.18,7.18,0,0,0,60,53.59c1.27.84,2.52.58,4,.76a2.6,2.6,0,0,1,.76.32,3.64,3.64,0,0,0,1.25.21,6.24,6.24,0,0,0,3-.31c1.61-.73,2.67-2.41,3.69-3.77A4.25,4.25,0,0,0,73.84,48C73.85,48.47,73.1,50.22,72.39,50.14Z"/><path class="cls-74" d="M64.5,38.79c1,1-1.63,2.2-2.44,2C60.55,40.51,63.48,37.78,64.5,38.79Z"/><path class="cls-74" d="M62.07,40.83c0-.49.79-1.13,1.13-1.35a1.13,1.13,0,0,1,1-.26.56.56,0,0,1,.43.48A3.42,3.42,0,0,1,62.07,40.83Z"/><path class="cls-8" d="M63.32,38.69c-1.14.44-2.34,1.91-1.26,2.13a1.82,1.82,0,0,0,.88-.1,2.26,2.26,0,0,1-1.09.17C60.69,40.65,62.13,39,63.32,38.69Z"/><path class="cls-74" d="M69.29,52.39c-.31,1.71,3-.44,1.66-1.3C70.23,50.62,69.38,51.91,69.29,52.39Z"/><path class="cls-74" d="M69.29,52.39a.83.83,0,0,0,0,.39.51.51,0,0,0,.32,0,1.67,1.67,0,0,0,.78-.51,1.73,1.73,0,0,0,.47-.87.47.47,0,0,0-.05-.36C70.14,50.77,69.37,51.94,69.29,52.39Z"/><path class="cls-8" d="M71.17,51.32c.58,1-2.16,2.64-1.88,1.07a2.07,2.07,0,0,1,.32-.67,2.38,2.38,0,0,0-.43.84C68.87,54.31,72,52.33,71.17,51.32Z"/><path class="cls-74" d="M71.35,47.63c.82,1.17,1.94-1.8.44-1.62C71,46.1,71.12,47.31,71.35,47.63Z"/><path class="cls-74" d="M71.35,47.63a.64.64,0,0,0,.24.23.56.56,0,0,0,.24-.17A1.26,1.26,0,0,0,72.1,47a1.14,1.14,0,0,0-.18-.76.41.41,0,0,0-.26-.19C71,46.24,71.14,47.33,71.35,47.63Z"/><path class="cls-8" d="M72.1,46c1,.25,0,2.69-.75,1.61a1.32,1.32,0,0,1-.17-.56,1.55,1.55,0,0,0,.2.72C72.21,49,73.35,46.18,72.1,46Z"/><path class="cls-7" d="M60.14,50.38c-.21.9-2.07,0-1.39-.66C59,49.47,60.24,50,60.14,50.38Z"/><path class="cls-7" d="M68.17,54c-.3.84-1.68.27-1-.42C67.36,53.32,68.3,53.62,68.17,54Z"/><path class="cls-7" d="M62.24,46.24a3.1,3.1,0,0,1,2.29,1.38c.35.46,1.26,1.71.88,2.29-.4,0-1.29-.86-1.78-1-.86-.31-1.73-.62-2.6-.89-1.35-.42-.4-1.66.58-1.74A3.31,3.31,0,0,1,62.24,46.24Z"/><path class="cls-7" d="M62.25,46.18A4.13,4.13,0,0,1,64,47c.18.17,1.19,1.33.54,1.42-.38.06-1.24-1.24-1.82-1.31-.36,0-2.22.46-1.48-.67A.93.93,0,0,1,62.25,46.18Z"/><path class="cls-28" d="M69,46.31c0-.72-5-5-5.31-4.8s-.21,2-.21,2l1.17,2.77-1.17,2.77s-.12,1.83.21,2S69,47,69,46.31Z"/><g class="cls-81"><path class="cls-28" d="M63.67,42.18C64,42,68,45.41,68.82,46.65a.75.75,0,0,0,.16-.34c0-.72-5-5-5.31-4.8s-.24,1.16-.23,1.7C63.46,42.75,63.51,42.28,63.67,42.18Z"/><path class="cls-28" d="M63.46,49.75,64.63,47v-.67l-1.17,2.77s0,.5,0,1C63.45,49.89,63.46,49.75,63.46,49.75Z"/></g><g class="cls-36"><path class="cls-37" d="M64.52,46.57l.11-.26-1.17-2.77s0-.17,0-.42c0,.48,0,.94,0,.94Z"/><path class="cls-37" d="M63.67,51.11c-.16-.1-.22-.61-.23-1.09,0,.55,0,1.47.23,1.61S69,47.55,69,46.83a1.51,1.51,0,0,0,0-.52C68.47,47.61,64,51.29,63.67,51.11Z"/></g><path class="cls-76" d="M64.63,46.31l-.38.9A7.4,7.4,0,0,1,67,47.13a4.25,4.25,0,0,1,1.1.34A3.1,3.1,0,0,0,69,46.31c0-.72-5-5-5.31-4.8s-.21,2-.21,2Z"/><path class="cls-82" d="M1.19,50.43A4.3,4.3,0,0,1,0,47.62a13.77,13.77,0,0,1,.14-2.94,8.22,8.22,0,0,1,2.92-5A10.91,10.91,0,0,1,6.4,38.15a9.28,9.28,0,0,1,3.2-.54c1.44.14,2.28,1,3.36,1.82.88.69,2.26,1,2.84,2a9.44,9.44,0,0,1,.38,1.41c.23.68.91,1.13,1.11,1.79.39,1.23-.36,3.13-.74,4.29-.5,1.49-1.27,3.33-2.65,4.25s-2.52.58-4,.76a2.13,2.13,0,0,0-.77.32,3.6,3.6,0,0,1-1.25.21,6.38,6.38,0,0,1-3-.32C3.27,53.47,2.21,51.78,1.19,50.43Z"/><path class="cls-25" d="M3.07,39.66A10.91,10.91,0,0,1,6.4,38.15a9.28,9.28,0,0,1,3.2-.54c1.44.14,2.28,1,3.36,1.82.88.69,2.26,1,2.84,2a9.44,9.44,0,0,1,.38,1.41c.23.68.91,1.13,1.11,1.79a3,3,0,0,1,.09,1.21,1.75,1.75,0,0,1-.18.26,4.2,4.2,0,0,1-3.09,1.21,3.24,3.24,0,0,0-1.06.22c-.18.09-.44.37-.64.4-.57.11-1.59-.73-1.93-1.13-1.06-1.23.82-2,1.54-2.68,1-1-.93-1.6-1.68-1.64-.48,0-1-.09-1.26.39-.11.21-.07.48-.19.72a11.88,11.88,0,0,1-.73,1c-.44.63-.83.59-1.53.51a4.86,4.86,0,0,0-1.72.33,1.76,1.76,0,0,1-1.44-.13c-.58-.46-.11-.88-.23-1.37-.35-1.36-1.51.4-1.84.52S.61,44.42.3,44A7.94,7.94,0,0,1,3.07,39.66Z"/><path class="cls-25" d="M3.07,39.67A9.07,9.07,0,0,1,6.4,38.15a9.28,9.28,0,0,1,3.2-.54c1.44.14,2.28,1,3.36,1.82.88.69,2.26,1,2.84,2a9.44,9.44,0,0,1,.38,1.41c.25.72,1.31,1.37,1.14,2.18s-1.2,1.12-1.85,1.24-3.24.36-3.51-.26c-.35-.84,1.13-1.61,1.66-1.85S15.07,43.84,15,43c-.14-1.07-1.59-2.09-2.44-2.5a3,3,0,0,0-2.87-.16c-.44.23-.78.63-1.22.83-.23.1-1,.07-1.09.24s.16.56,0,.86c-.4.6-1.85.49-2.44.48-1,0-2.93,0-2.69-1.48A2.61,2.61,0,0,1,3.07,39.67Z"/><path class="cls-7" d="M1.19,47.2c.26-.14.15-.54.56-.6.46.75.36,1.32,1.13,1.88s2.2,1.42,3.33.88c.93-.45.8-1.74,1.17-2.53a1.08,1.08,0,0,1,1.79-.15,6.3,6.3,0,0,0-1.06,1.49A4.83,4.83,0,0,0,7,51a4,4,0,0,0,.33,1.53c.32.49.54.38,1.07.36,1.57,0,2.92.27,4.35-.51.88-.48.93-1.07.57-2-.23-.62-.73-1,0-1.34a4.47,4.47,0,0,1,1.74-.19c.29,0,.77.15,1,0s.18-.22.27-.26.2-.16.3-.17l-.17.51c-.5,1.49-1.27,3.33-2.65,4.25s-2.52.58-4,.76a2.13,2.13,0,0,0-.77.32,3.6,3.6,0,0,1-1.25.21,6.38,6.38,0,0,1-3-.32c-1.61-.72-2.67-2.41-3.69-3.76A4.3,4.3,0,0,1,0,47.62c0-.67,0-1.3,0-1.94.12.23.2.48.27.63C.49,46.7.68,47.48,1.19,47.2Z"/><path class="cls-7" d="M1.47,49.77l.12,0c.22-.1,0-.37.17-.46.44-.24.51.25.67.66.36.9.9,1.1,1.75,1.53,1.17.59,2.07.1,2.34-1.2.13-.63.33-2.65,1.32-2.57a6.65,6.65,0,0,0-1.16,3,3.9,3.9,0,0,0,.17,2.25c.56.83,1.83.53,2.63.49a15.34,15.34,0,0,0,3.1-.35,3.43,3.43,0,0,0,2.47-2,3.37,3.37,0,0,1,1.24-1.33,7.11,7.11,0,0,1-2.39,3.53c-1.27.84-2.52.58-4,.76a2.13,2.13,0,0,0-.77.32,3.6,3.6,0,0,1-1.25.21,6.38,6.38,0,0,1-3-.32c-1.61-.72-2.67-2.41-3.69-3.76A4.3,4.3,0,0,1,0,47.64C0,48.1.75,49.84,1.47,49.77Z"/><path class="cls-74" d="M9.36,38.41c-1,1,1.62,2.21,2.43,2C13.3,40.13,10.37,37.41,9.36,38.41Z"/><path class="cls-74" d="M11.78,40.45c0-.48-.79-1.12-1.12-1.35a1.18,1.18,0,0,0-1-.25.53.53,0,0,0-.42.47A3.36,3.36,0,0,0,11.78,40.45Z"/><path class="cls-8" d="M10.53,38.31c1.14.44,2.35,1.91,1.26,2.14a2.12,2.12,0,0,1-.88-.1,2.39,2.39,0,0,0,1.09.17C13.16,40.28,11.72,38.63,10.53,38.31Z"/><path class="cls-74" d="M4.56,52c.31,1.71-2.95-.44-1.65-1.3C3.62,50.25,4.47,51.54,4.56,52Z"/><path class="cls-74" d="M4.56,52a.85.85,0,0,1,0,.39.62.62,0,0,1-.33,0,1.79,1.79,0,0,1-.78-.52A1.66,1.66,0,0,1,3,51a.46.46,0,0,1,0-.36C3.71,50.39,4.48,51.56,4.56,52Z"/><path class="cls-8" d="M2.68,51c-.58.94,2.16,2.64,1.88,1.07a2,2,0,0,0-.32-.68,2.46,2.46,0,0,1,.43.84C5,53.94,1.85,52,2.68,51Z"/><path class="cls-74" d="M2.5,47.26c-.82,1.17-1.94-1.81-.44-1.63C2.88,45.73,2.73,46.93,2.5,47.26Z"/><path class="cls-74" d="M2.5,47.26a.73.73,0,0,1-.24.23A.56.56,0,0,1,2,47.32a1.26,1.26,0,0,1-.27-.72,1.12,1.12,0,0,1,.18-.75.42.42,0,0,1,.26-.19C2.86,45.86,2.72,47,2.5,47.26Z"/><path class="cls-8" d="M1.75,45.65c-1,.25,0,2.68.75,1.61a1.2,1.2,0,0,0,.17-.56,1.56,1.56,0,0,1-.19.72C1.64,48.61.51,45.8,1.75,45.65Z"/><path class="cls-7" d="M13.71,50c.22.89,2.07,0,1.39-.67C14.85,49.09,13.62,49.61,13.71,50Z"/><path class="cls-7" d="M5.69,53.63c.29.84,1.67.27,1-.43C6.49,52.94,5.56,53.25,5.69,53.63Z"/><path class="cls-7" d="M11.61,45.87a3.08,3.08,0,0,0-2.28,1.38c-.35.46-1.27,1.7-.89,2.29.4,0,1.3-.86,1.78-1,.86-.32,1.73-.62,2.61-.89,1.35-.43.39-1.67-.59-1.74A3.31,3.31,0,0,0,11.61,45.87Z"/><path class="cls-7" d="M11.6,45.81a4,4,0,0,0-1.76.86c-.18.17-1.19,1.33-.54,1.42.38,0,1.24-1.24,1.82-1.32.37-.05,2.22.47,1.48-.66A.93.93,0,0,0,11.6,45.81Z"/><path class="cls-28" d="M5.39,45.94c0-.72,5-5,5.31-4.8s.22,2,.22,2L9.75,45.94l1.17,2.77s.11,1.82-.22,2S5.39,46.66,5.39,45.94Z"/><g class="cls-81"><path class="cls-28" d="M10.7,41.81c-.29-.18-4.31,3.23-5.15,4.46a.73.73,0,0,1-.16-.33c0-.72,5-5,5.31-4.8s.24,1.15.23,1.69C10.91,42.37,10.86,41.91,10.7,41.81Z"/><path class="cls-28" d="M10.92,49.38,9.75,46.61v-.67l1.17,2.77s0,.5,0,1C10.92,49.51,10.92,49.38,10.92,49.38Z"/></g><g class="cls-36"><path class="cls-37" d="M9.85,46.2l-.1-.26,1.17-2.77s0-.17,0-.42c0,.48,0,.94,0,.94Z"/><path class="cls-37" d="M10.7,50.74c.17-.1.22-.61.23-1.09,0,.55,0,1.46-.23,1.6s-5.31-4.07-5.31-4.79a1.51,1.51,0,0,1,0-.52C5.9,47.23,10.41,50.92,10.7,50.74Z"/></g><path class="cls-76" d="M9.75,45.94l.38.9a7.69,7.69,0,0,0-2.78-.09,4.27,4.27,0,0,0-1.1.35c-.51-.54-.86-1-.86-1.16,0-.72,5-5,5.31-4.8s.22,2,.22,2Z"/><path class="cls-83" d="M18.32,7.26l-.18.63a9,9,0,0,1-1.24,3.42,5.17,5.17,0,0,1-2.79,1.82,8.25,8.25,0,0,1-2.89.11,15.16,15.16,0,0,1-2.87-.19,5.83,5.83,0,0,1-2.66-2.21,4.5,4.5,0,0,1-.9-3.3C4.94,6.36,4.6,5.08,5,3.93A5.37,5.37,0,0,1,6.72,1.88,6.4,6.4,0,0,1,9.36.4a4.26,4.26,0,0,1,2.32.09,7.56,7.56,0,0,0,2,.16,3.27,3.27,0,0,1,2.09.67,12.7,12.7,0,0,1,1.54,1.57,6.47,6.47,0,0,1,1.16,2.62A3.57,3.57,0,0,1,18.32,7.26Z"/><path class="cls-25" d="M17.6,6.24a3.11,3.11,0,0,1-.61.2,3,3,0,0,0-.86.6,2.1,2.1,0,0,1-1.82.3A2.88,2.88,0,0,1,13.22,7c-.46-.36-.66-.9-1.22-1.18a2.16,2.16,0,0,0-1.18-.34A11.52,11.52,0,0,0,9.4,6c-.66.18-1.19.2-1-.61A1.91,1.91,0,0,1,9,4.53c.3-.18.81,0,1.16,0,.67,0,2.71-.17,2.25-1.3s-2.36-.3-3.21-.34a4.65,4.65,0,0,0-1.86,0c-.62.21-1.49,1-2.15.87C5.08,3,6.31,2.25,6.72,1.88A6.4,6.4,0,0,1,9.36.4a4.26,4.26,0,0,1,2.32.09,7.56,7.56,0,0,0,2,.16,3.27,3.27,0,0,1,2.09.67,12.7,12.7,0,0,1,1.54,1.57c.6.71,1.2,2.45.46,3.25Z"/><path class="cls-7" d="M18.26,7.48c-.33.71-.69,1.29-1.57,1a6.51,6.51,0,0,0-1.9-.56c-.72-.06-1,0-1.49-.51a2.71,2.71,0,0,0-1.12-.75,3.3,3.3,0,0,1,.38.75A3.11,3.11,0,0,0,12.7,8c.15.16.53.15.72.22a4,4,0,0,1,.95.53c.67.54.77.9.22,1.57a2.11,2.11,0,0,1-2.21,1.06c-1.73-.18-3.91-.35-5.08-1.86-.74-1,.15-2.61.62-3.49-.65-.07-.64.48-.81.92a1.69,1.69,0,0,1-2.34.76,4.55,4.55,0,0,0,.92,3.1,5.83,5.83,0,0,0,2.66,2.21,15.16,15.16,0,0,0,2.87.19,8.25,8.25,0,0,0,2.89-.11,5.17,5.17,0,0,0,2.79-1.82,9,9,0,0,0,1.24-3.42Z"/><path class="cls-7" d="M12.62,7.7A3.46,3.46,0,0,0,15,7.91l-.24,0c-.72-.06-1,0-1.49-.51a2.71,2.71,0,0,0-1.12-.75,3.3,3.3,0,0,1,.38.75A2.67,2.67,0,0,1,12.62,7.7Z"/><path class="cls-7" d="M16.22,10.94c-.42.16-.81.17-1-.13s.07-.74,0-1.06c-.28,1-1.3,1.5-2,2,.23,0,.48,0,.52.25.12.64-2.63.46-3,.48A5.05,5.05,0,0,1,8,12.24a10.28,10.28,0,0,1-2.5-2.51,4.11,4.11,0,0,1-.66-1,4.66,4.66,0,0,0,.88,2.07,5.83,5.83,0,0,0,2.66,2.21,15.16,15.16,0,0,0,2.87.19,8.25,8.25,0,0,0,2.89-.11,5.17,5.17,0,0,0,2.79-1.82,4.84,4.84,0,0,0,.78-1.62A2.78,2.78,0,0,1,16.22,10.94Z"/><path class="cls-25" d="M16.28,2.38A3.51,3.51,0,0,0,13.66,1a4.53,4.53,0,0,1-1.6,0c-.42-.12-.78-.38-1.19-.5A3.76,3.76,0,0,0,8.32,1c-.6.29-1.69.81-1.84,1.52a2.67,2.67,0,0,1,1.15-.42c.32,0,.71.06,1.07.07s.77.16,1.18.15c.84,0,1.76-.93,2.55-.26a4.86,4.86,0,0,1,.87,1.19c.22.39.13.46,0,.86s0,.45.57.58c.73.17,2.33.26,2.8-.53S16.71,2.89,16.28,2.38Z"/><path class="cls-74" d="M18,6.08c-.62-.69-1.45.94-1.37,1.45C16.76,8.5,18.58,6.76,18,6.08Z"/><path class="cls-74" d="M16.62,7.53c.3,0,.73-.46.89-.66a.74.74,0,0,0,.19-.6A.34.34,0,0,0,17.42,6,2.12,2.12,0,0,0,16.62,7.53Z"/><path class="cls-8" d="M18,6.82c-.32.7-1.29,1.41-1.39.71a1.2,1.2,0,0,1,.1-.54,1.29,1.29,0,0,0-.15.68C16.68,8.4,17.76,7.56,18,6.82Z"/><path class="cls-74" d="M6.36,4.18c-1.36.46,0-2.47.86-1.51C7.69,3.2,6.74,4.05,6.36,4.18Z"/><path class="cls-74" d="M6.36,4.18A.68.68,0,0,1,6,4.23.4.4,0,0,1,6,4a1.45,1.45,0,0,1,.32-.7A1.45,1.45,0,0,1,7,2.77a.39.39,0,0,1,.3,0C7.59,3.29,6.72,4.06,6.36,4.18Z"/><path class="cls-8" d="M7,2.51C6.16,2.15,5.1,4.6,6.36,4.18a1.54,1.54,0,0,0,.51-.34,1.91,1.91,0,0,1-.63.45C4.84,4.76,6.08,2,7,2.51Z"/><path class="cls-74" d="M8.38,1.84C7.29,1.86,9.15.24,9.45,1,9.61,1.47,8.69,1.83,8.38,1.84Z"/><path class="cls-74" d="M8.38,1.84a.55.55,0,0,1-.24,0,.38.38,0,0,1,.06-.18,1.31,1.31,0,0,1,.45-.39,1.31,1.31,0,0,1,.6-.18.34.34,0,0,1,.22.06C9.51,1.51,8.67,1.83,8.38,1.84Z"/><path class="cls-8" d="M9.35.89c-.48-.41-2,1-1,1a1.56,1.56,0,0,0,.46-.12,1.65,1.65,0,0,1-.58.16C7.14,1.9,8.87.34,9.35.89Z"/><path class="cls-7" d="M8.29,11.39c-.27.71,1.41,1,1.26.2C9.5,11.3,8.42,11.07,8.29,11.39Z"/><path class="cls-7" d="M5.26,6.7c-.19.72,1,1,.91.2C6.13,6.62,5.35,6.38,5.26,6.7Z"/><path class="cls-7" d="M13.18,8.61a2,2,0,0,0-2-.06c-.44.29-1,.85-.14,1a12.37,12.37,0,0,0,1.72.17c.41,0,1,0,1.27-.41a1.77,1.77,0,0,0-.39-.43A3,3,0,0,0,13.18,8.61Z"/><path class="cls-7" d="M13.17,8.91c-.46-.51-2-.39-1.51.19A1.18,1.18,0,0,0,13.24,9,.36.36,0,0,0,13.17,8.91Z"/><path class="cls-74" d="M15.6,2.37c-1,.19.06,2,.62,2.23C17.26,5,16.63,2.19,15.6,2.37Z"/><path class="cls-74" d="M16.21,4.6c.2-.3,0-1-.11-1.27a.85.85,0,0,0-.48-.56.39.39,0,0,0-.45.11A2.43,2.43,0,0,0,16.21,4.6Z"/><path class="cls-8" d="M16.35,2.8c.5.74.62,2.12-.13,1.8a1.26,1.26,0,0,1-.48-.42,1.61,1.61,0,0,0,.58.55C17.11,5.07,16.93,3.49,16.35,2.8Z"/><path class="cls-28" d="M14.93,7.17a3.8,3.8,0,0,0-1.57-.27c-.16,0-.32,2.82.09,2.89s1.3-.09,1.44-.36A5.76,5.76,0,0,0,14.93,7.17Z"/><path class="cls-28" d="M8.63,3.71c-.15,0-.32,6,.09,6.08S10,9.7,10.17,9.43A34.25,34.25,0,0,0,10.2,4,3.8,3.8,0,0,0,8.63,3.71Z"/><path class="cls-28" d="M11.07,5.56c-.15,0-.32,4.16.09,4.23s1.31-.09,1.45-.36a15,15,0,0,0,0-3.6A3.77,3.77,0,0,0,11.07,5.56Z"/><path class="cls-37" d="M12.61,9.43c-.14.27-1,.42-1.45.36-.18,0-.25-.86-.26-1.78,0,1,.06,2,.26,2.07.41.06,1.31-.09,1.45-.36a12.89,12.89,0,0,0,.13-2.27A11.3,11.3,0,0,1,12.61,9.43Z"/><path class="cls-37" d="M10.17,9.43c-.14.27-1,.42-1.45.36-.19,0-.25-1.27-.26-2.62,0,1.46.06,2.88.26,2.91.41.06,1.31-.09,1.45-.36a26.44,26.44,0,0,0,.13-3.36A25.34,25.34,0,0,1,10.17,9.43Z"/><path class="cls-37" d="M14.89,9.43c-.14.27-1,.42-1.44.36-.18,0-.25-.57-.26-1.18,0,.72.05,1.44.26,1.47.41.06,1.3-.09,1.44-.36A5.27,5.27,0,0,0,15,8.23,4.24,4.24,0,0,1,14.89,9.43Z"/><path class="cls-75" d="M13.36,6.9a5,5,0,0,0-.17,1.7,4.12,4.12,0,0,1,.17-1.44,3.8,3.8,0,0,1,1.57.27,2.6,2.6,0,0,1,.09.79,3,3,0,0,0-.09-1.05A3.8,3.8,0,0,0,13.36,6.9Z"/><path class="cls-75" d="M8.63,3.71a22.07,22.07,0,0,0-.17,3.46A19.81,19.81,0,0,1,8.63,4a3.81,3.81,0,0,1,1.57.28,13.22,13.22,0,0,1,.1,2.1A14.22,14.22,0,0,0,10.2,4,3.8,3.8,0,0,0,8.63,3.71Z"/><path class="cls-75" d="M11.07,5.56A11.22,11.22,0,0,0,10.9,8a9.22,9.22,0,0,1,.17-2.18,3.63,3.63,0,0,1,1.57.28,5.62,5.62,0,0,1,.1,1.34,7,7,0,0,0-.1-1.61A3.77,3.77,0,0,0,11.07,5.56Z"/><path class="cls-76" d="M15,8.71a4.92,4.92,0,0,0-.07-1.54,3.8,3.8,0,0,0-1.57-.27,1.88,1.88,0,0,0-.14.82A7.19,7.19,0,0,1,15,8.71Z"/><path class="cls-76" d="M10.29,7.24A21.73,21.73,0,0,0,10.2,4a3.8,3.8,0,0,0-1.57-.27,24.55,24.55,0,0,0-.16,3.94A5.21,5.21,0,0,1,10.29,7.24Z"/><path class="cls-76" d="M12.74,7.55a8,8,0,0,0-.1-1.72,3.77,3.77,0,0,0-1.57-.27,7.19,7.19,0,0,0-.16,1.67A7.72,7.72,0,0,1,12.74,7.55Z"/></g></g></g></svg>