<svg xmlns="http://www.w3.org/2000/svg" xmlns:xlink="http://www.w3.org/1999/xlink" viewBox="0 0 56.77 52.94"><defs><style>.cls-1{isolation:isolate;}.cls-2{fill:url(#radial-gradient);}.cls-3{fill:#fba400;}.cls-10,.cls-14,.cls-17,.cls-18,.cls-19,.cls-3,.cls-4,.cls-5{mix-blend-mode:multiply;}.cls-18,.cls-3{opacity:0.21;}.cls-4,.cls-5{fill:#e07d04;}.cls-4{opacity:0.59;}.cls-5{opacity:0.51;}.cls-6,.cls-7{fill:#ffcf00;}.cls-11,.cls-6,.cls-7{mix-blend-mode:screen;}.cls-6{opacity:0.28;}.cls-7{opacity:0.35;}.cls-8{fill:#ffd;opacity:0.78;}.cls-9{fill:#962b00;}.cls-10,.cls-11{fill:#e38000;}.cls-10,.cls-13{opacity:0.83;}.cls-12{opacity:0.71;}.cls-14{opacity:0.32;}.cls-15{fill:#cd6f00;}.cls-16{fill:url(#Безымянный_градиент_195);}.cls-17{fill:#d06d00;opacity:0.34;}.cls-19{opacity:0.64;}.cls-20{opacity:0.8;}.cls-21{fill:#fffc56;}.cls-22{fill:url(#Безымянный_градиент_195-2);}</style><radialGradient id="radial-gradient" cx="39.72" cy="25.27" r="55.12" gradientTransform="translate(-5.65 -26.63) rotate(2.65)" gradientUnits="userSpaceOnUse"><stop offset="0" stop-color="#ffdf00"/><stop offset="1" stop-color="#ffad00"/></radialGradient><linearGradient id="Безымянный_градиент_195" x1="43.43" y1="29.55" x2="43.43" y2="45.8" gradientUnits="userSpaceOnUse"><stop offset="0" stop-color="#ffd300"/><stop offset="1" stop-color="#ffbd10"/></linearGradient><linearGradient id="Безымянный_градиент_195-2" x1="13.89" y1="29.55" x2="13.89" y2="45.8" xlink:href="#Безымянный_градиент_195"/></defs><g class="cls-1"><g id="Слой_2" data-name="Слой 2"><g id="Layer_1" data-name="Layer 1"><path class="cls-2" d="M53.85,5c-.67-1-3.76-2.05-8.27-2.91A7.7,7.7,0,0,1,43,3.58c-2.62.8-5.06-.71-6.5-2.83C27.07-.2,15.52-.39,6,1,2.54,1.52.61,5.84,0,7.38c-.16.39.75,3.44,2.22,7.78a3.75,3.75,0,0,1,3,2.88,5.93,5.93,0,0,1-.69,3.75c4.59,12.89,11.14,29.83,12.1,30.42,1.52.94,19.78,1.11,22.45-.33,1.22-.66,4.65-10.08,7.9-20.31a2.89,2.89,0,0,1-.24-1.38,2.93,2.93,0,0,1,.92-1.85,1.54,1.54,0,0,1,.42-.3l.51-1.64a4.4,4.4,0,0,1-.67-2.52A3.19,3.19,0,0,1,50.21,21C52.62,12.63,54.32,5.67,53.85,5Z"/><path class="cls-3" d="M38.83,47.9c-1.85-1.74-4.67,2.81-5.69,2.92-6.11.67-12,.21-14.46-6.11-1.19-3.09-2.27-6.22-3.21-9.39-.23-.76-1-2.34-1-3.13s.41-.51.78-1c1.23-1.66.63-4.44-.33-6.13-.7-1.21-2.61-3.07-4.17-2.52C9.13,18.36,7.63,14.13,6.33,9.8c-.27-.91-2.69-7.32-1.5-8C1.39,3.27.56,6.32,0,7.74a49.35,49.35,0,0,0,2.14,7.41A3.75,3.75,0,0,1,5.23,18,6.25,6.25,0,0,1,4.47,22c4.6,12.78,11.21,29.67,12.17,30.26,1.52.94,19.78,1.11,22.45-.33a15.47,15.47,0,0,0,2.1-3.81C40.58,47.7,39.49,48.53,38.83,47.9Z"/><path class="cls-3" d="M13,31.85c4.69.41.93-10.54-2.58-7.87C8.59,25.37,10.67,31.64,13,31.85Z"/><path class="cls-3" d="M38,48.06a3.46,3.46,0,0,0-2.31,1.33c-.21.28-1.07,1.6-.33,1.72.15,0,.8-.4,1-.47a10.42,10.42,0,0,0,1.75-.37c.66-.37,1.05-1.77.18-2.15A.94.94,0,0,0,38,48.06Z"/><path class="cls-4" d="M13.26,11.55a5.82,5.82,0,0,0,5.23-2c1.18-1.26,2.69-3.6,1.28-5.21C18.6,3,16.42,2.72,14.77,2.8c-1.83.08-5.6.59-5.51,3.11C9.33,8.19,10.81,11.19,13.26,11.55Z"/><path class="cls-4" d="M46.71,14c.57,1.11,1.89,2.51,3.13,1.53.76-.61,1-2.11,1.28-3,.49-1.85,1.12-5.3-1.28-6.13-1.68-.58-2.9.94-3.49,2.32A6.13,6.13,0,0,0,46.71,14Z"/><path class="cls-4" d="M49.17,11.74c.63.82,1.35,1.47,1.79-.15.36-1.31.12-3.75-1.36-4.27A2,2,0,0,0,47.23,8.5c-.3,1,.65,1.61,1.21,2.29C48.66,11,48.9,11.4,49.17,11.74Z"/><path class="cls-4" d="M15.37,8.77a1.62,1.62,0,0,0,.51.31c2.27.88,5.1-2.51,3.37-4.47-1-1.19-3-1.43-4.49-1.36-1,0-3.89.2-3.33,2,.28.9,2.18,1.37,2.83,2.06C14.71,7.75,14.91,8.36,15.37,8.77Z"/><path class="cls-5" d="M12.48,19.06c1.55-1.19,1-3.76-.18-5s-3-1.33-3,.69C9.22,16.05,10.37,20.7,12.48,19.06Z"/><path class="cls-5" d="M10.52,13.15a2,2,0,0,0-.07.23l-.07.28a1.55,1.55,0,0,1,0,.18c0,.13,0,.24,0,.37a5.77,5.77,0,0,0,0,.72s.07.41.08.49c.06.28.13.54.21.8,0,0,0,.05,0,.06s.09.22.14.33a7.09,7.09,0,0,0,.38.72l.06.09c.07.1.15.19.23.29l.36.38.16.12.35.23.09,0,.24.1.23.07c1-1.3.43-3.49-.59-4.62A2.43,2.43,0,0,0,10.52,13.15Z"/><path class="cls-6" d="M13.38,16.47a2.7,2.7,0,0,1-.9,2.59c-1.58,1.22-2.62-1.06-3-2.85C9.75,18,10.84,21,12.59,19.64A2.92,2.92,0,0,0,13.38,16.47Z"/><path class="cls-3" d="M40.32,48.63c-1.37-.29-1,.78-1.55,1.66a3.92,3.92,0,0,1-3.84,1.5c-2.17-.31-4.56-.22-6.8-.33a15.3,15.3,0,0,1-5.8-1.11c-1.95-.94-3.2-3-4.07-4.89-.39-.85-.61-1.8-1-2.61-.33.27-.37.84-.79,1.14-.58.4-1.34,0-1.83-.41a4.63,4.63,0,0,1-1.18-3.53,2.33,2.33,0,0,1,.63-1.59c.21-.2,1.31-.75,1.34-.13a13.23,13.23,0,0,0-.92-3.69,1.28,1.28,0,0,0-1.42-.85,2.41,2.41,0,0,1-2-.85,7.39,7.39,0,0,1-1.78-3.51c-.41-1.64-.91-3.61-.31-5.25.22-.61.94-1.11,1.11-1.66A2.24,2.24,0,0,0,9.8,21c-.4.23-.58.72-1.08.83C7.86,22,7.29,21,7.07,20.34a6.4,6.4,0,0,1,.25-4.19A2.54,2.54,0,0,0,6.77,14a8.56,8.56,0,0,1-1.11-2.12l-.12-.31a1.11,1.11,0,0,1-.77.4c-1,.12-1.9-.88-2.24-1.74a6.49,6.49,0,0,1-.21-3.6.45.45,0,0,1,.28-.34,1,1,0,0,1,1.24-.57,9.38,9.38,0,0,1,.4-3.31A6.92,6.92,0,0,0,.82,6.66c-.49,1.81.27,4.32.8,6.05C2,14.08,2.17,14.4,3.37,15A4.32,4.32,0,0,1,5.7,20.22a4.11,4.11,0,0,0-.2,2.38c.88,3.52,2.41,6.88,3.6,10.3,1.33,3.82,3.06,7.47,4.54,11.23.83,2.1,1.63,4.2,2.59,6.25,1.31,2.78,5.38,2.1,7.92,2.07,3.58-.05,7.16,0,10.74-.23,1.54-.08,2.75,0,3.92-1C39.37,50.65,40.47,49.47,40.32,48.63ZM17.92,47.4c.06.37-.29.82-.7.64a1.27,1.27,0,0,1-.53-.41.52.52,0,0,1-.26-.35,4.61,4.61,0,0,1-.09-1.05.55.55,0,0,1,.94-.34,2.35,2.35,0,0,1,.5.79l0,.17a.48.48,0,0,1,.12.36.42.42,0,0,1,0,.15A.06.06,0,0,1,17.92,47.4Z"/><path class="cls-3" d="M7.86,20.3c1.71,2.33,1.92-3.95,0-2.84C7.05,17.94,7.43,19.71,7.86,20.3Z"/><path class="cls-3" d="M14.88,28.58a11.82,11.82,0,0,0-.54-1.92,4.07,4.07,0,0,0-2.09-2.51c-1.62-.58-3.27,1.76-2.11,3.07.31.33.45.15.84.21a2.58,2.58,0,0,1,1.38.88c.45.49,1,2.37,1.82,2.31S15.05,29.57,14.88,28.58Z"/><path class="cls-4" d="M43,33.4c.81,3.5,4.45-2.61,1.63-2.48C43.62,31,42.81,32.48,43,33.4Z"/><path class="cls-6" d="M53.85,5c-.67-1-3.76-2.05-8.27-2.91A7.7,7.7,0,0,1,43,3.58c-2.62.8-5.06-.71-6.5-2.83C27.07-.2,15.52-.39,6,1c-2.33.34-4,2.43-5,4.23A8.56,8.56,0,0,1,4.83,2.63c-.06,5.76,2.61,11.72,4.61,17,.26.67.41,2,1,2.45s1.14.26,1.7.44c2,.63,2.66,3.21,3.45,4.81-.06-1.7-1.06-5.13-3-5.55-.8-.17-1.18.22-1.8-.34-1-.91-1.3-3.32-1.72-4.55A65.64,65.64,0,0,1,6.51,7.78a14.36,14.36,0,0,1-.26-3.7C6.43,1.76,9,1.51,10.86,1.59a36.69,36.69,0,0,0,6-.56A80.22,80.22,0,0,1,28.46.44a12.8,12.8,0,0,1,5,.76A23.26,23.26,0,0,1,37,3.38a6.7,6.7,0,0,0,3.46,1.35,7.68,7.68,0,0,0,4.2-1.45c.45-.28.78-.62,1.31-.63a13.65,13.65,0,0,1,2.78.59,9.3,9.3,0,0,1,2.33.9c.83.45,1.9.72,2,1.77s-.1,2.92-.93,3.67a8.52,8.52,0,0,1-.55-2c-.2,1.15.23,2.3.05,3.46a11.71,11.71,0,0,1-.92,3.6c-.34.7-1.11,1.87-2.07,1.7-.77-.14-1.14-1.22-1.79-1.49a2.11,2.11,0,0,0,1.74,2.06A2.71,2.71,0,0,0,50,16.42c.3-.2.56-.72.9-.72a20.54,20.54,0,0,1-1.14,4.37,9.72,9.72,0,0,1-1.31,1.05,3.7,3.7,0,0,0-.78,4.17,2.58,2.58,0,0,1,0,2.27,15.8,15.8,0,0,0-1.2,1.85,4.23,4.23,0,0,0,0,2.54l.12.81c.13-.39.26-.79.38-1.19a2.89,2.89,0,0,1-.24-1.38,2.93,2.93,0,0,1,.92-1.85,1.54,1.54,0,0,1,.42-.3l.51-1.64a4.4,4.4,0,0,1-.67-2.52A3.19,3.19,0,0,1,50.21,21C52.62,12.63,54.32,5.67,53.85,5Z"/><path class="cls-6" d="M10.5,30c-.66.17.33,1.64.57,1.94.44.55,1.83,1.88,2.62,1.12.56-.55,0-.73-.4-.78A3,3,0,0,1,10.5,30Z"/><path class="cls-4" d="M3.68,6.35H3.55c-.78,0-1.08,1.1-1,1.74s.53.66,1.14.92c.36.16,1.15,1.19,1.43,1.12,1-.26,0-2.27-.25-2.74A2.1,2.1,0,0,0,3.68,6.35Z"/><path class="cls-4" d="M3.68,6.35H3.55a1,1,0,0,0-.85.93c0,.61.45.46.89.57s1.24.83,1.52.55C5.65,7.86,4.09,6.42,3.68,6.35Z"/><path class="cls-3" d="M14,26.9c.7-.83-1.12-2.51-1.79-2.75-.46-.17-1.44-.22-1.46.5s.4.33.8.38C12.77,25.19,13.06,26.58,14,26.9Z"/><path class="cls-4" d="M47,10.07c.55,0,1.33-.5,1.88-.48.76,0,.94.46,1.49.77.84.47.9-1,.84-1.49a2.34,2.34,0,0,0-1.51-2A2.36,2.36,0,0,0,47.1,7.91c-.29.41-1.07,1.88-.25,2.14Z"/><path class="cls-7" d="M38.58,28a18.49,18.49,0,0,0,8-2.5c-.2-1.49-.87-2.56.43-4.06.76-.88,3.08-2.25,2.36-3.74-2.69.72-4.65-1-5-3.75A8.13,8.13,0,0,1,46.72,7a2.71,2.71,0,0,1,2-1c.41,0,1.35.49,1.68.34,1.67-.72-3.59-3-4.64-2.72-1.41.31-2.34,1.77-3.91,2.07a5.42,5.42,0,0,1-4.3-1C35.65,3.57,33.27,2,31.09,1.55s-4.33-.11-6.46,0c-1.74.07-4.61.08-6.05,1.36a1.36,1.36,0,0,0-.24.24c.9.9,2,1.19,2.49,2.5a3.56,3.56,0,0,1-.52,3.1c-1.13,1.88-3,3.76-5.3,4.06a6.23,6.23,0,0,1-3-.48C11.19,12,10.31,11,9.39,11,9,12.59,12.18,13.45,13,14.34a4.55,4.55,0,0,1,1.06,3.8c-.15.93-1.4,2.15-.71,3,.33.4,1.06.58,1.45,1.15a12.11,12.11,0,0,1,1.09,2.3,10.61,10.61,0,0,1,.76,4.49c0,1.36-.94,2.69-.73,4A13.77,13.77,0,0,0,17.2,37a36.48,36.48,0,0,1,4.44-4.26,22,22,0,0,1,6.5-3.68A24.32,24.32,0,0,1,35.63,28Z"/><path class="cls-7" d="M42.93,35.46c-.67,0-1.2-.72-1.34-1.73-3.83,1.12-5.43,6.27-7.78,9-2.67,3.13-5.36,5.71-9.29,7,4.76,3.91,9.37-3.88,13.78-3.51.79.07.62,1.15,1.58.82.76-.25,1-1.43,1.29-2.14,1.12-2.62,3.41-7.29,3-10.16A1.74,1.74,0,0,1,42.93,35.46Z"/><path class="cls-8" d="M7.8,14.7c-.44-1.69-1-3.34-1.41-5a34,34,0,0,1-1-5,4.17,4.17,0,0,1,.29-2.52A2.56,2.56,0,0,1,7.35.93,11,11,0,0,1,9.79.78c.86,0,1.7-.08,2.56-.05A35.26,35.26,0,0,0,16.94.52C18.16.41,19.36.16,20.59.13a9.86,9.86,0,0,1-2.82,0c-1.18,0-2.35.06-3.53.08-1.57,0-3.16.26-4.73.33A11.93,11.93,0,0,0,3,2.51a1.3,1.3,0,0,1,1.51.08c.39.44.18,1.22.2,1.76A12.69,12.69,0,0,0,5.07,6.8c.39,1.73,1,3.37,1.58,5.05.31,1,.63,1.94,1,2.88C7.7,14.79,7.81,14.77,7.8,14.7Z"/><path class="cls-8" d="M9.51,18.73a6,6,0,0,0-.36-1.11,9.26,9.26,0,0,1-.59-1.12,29.69,29.69,0,0,0,1.54,4.61c-.1-.32-.21-.64-.3-1s-.1-.62-.17-.93Z"/><path class="cls-8" d="M50.55,15.12l-.15.21a1.85,1.85,0,0,1-3.06.14s-.1,0-.08,0a1.5,1.5,0,0,0,.61.92,1.71,1.71,0,0,0,1.18.29,1.6,1.6,0,0,0,1.07-.59,10,10,0,0,0,1.49-3.89A8.83,8.83,0,0,1,50.55,15.12Z"/><path class="cls-8" d="M17.81,10.61a11.61,11.61,0,0,0,1.47-2,7.31,7.31,0,0,1-4.49,3,5.41,5.41,0,0,1-1.45.07A2.94,2.94,0,0,1,11.89,11s0,0,0,0a3.76,3.76,0,0,0,2.88,1.08,4.75,4.75,0,0,0,1.64-.47A4.94,4.94,0,0,0,17.81,10.61Z"/><path class="cls-8" d="M43.54,3.61a2.94,2.94,0,0,1-1.77.63A5.29,5.29,0,0,1,40,4a5.86,5.86,0,0,1-1.8-1,10.65,10.65,0,0,1-1.26-1c-.37-.39-.59-.87-1.15-1A9.53,9.53,0,0,0,33.93.88c2.19.32,3.19,2.53,5,3.48a3.86,3.86,0,0,0,3.23.3,3.31,3.31,0,0,0,1.41-1S43.58,3.57,43.54,3.61Z"/><path class="cls-3" d="M14.07,41.58c.28.41.19.3.57.17.23-.08.37-.38.64-.42s.44.17.76.28c.75.27.59-.65.41-1.29s-1-1.88-1.84-1.56S13.6,40.9,14.07,41.58Z"/><path class="cls-3" d="M14.3,40.17c.22,0,.49-.12.75-.07s.66.56,1,.52c.72-.07-.32-2.28-1.45-1.86-.41.15-.88.8-.6,1.23A.37.37,0,0,0,14.3,40.17Z"/><path class="cls-4" d="M43.61,32.86c.21.21.3-.21.57-.38s.62.06.9,0c.78-.22.2-1.3-.47-1.27s-1.47,1-1.08,1.57A.44.44,0,0,0,43.61,32.86Z"/><path class="cls-3" d="M37.93,48.29c-.34,0-2.38.88-1.86,1.45.21.23.78-.24,1-.28s.68.27,1,.21A.7.7,0,0,0,37.93,48.29Z"/><path class="cls-3" d="M8.48,19.73a.49.49,0,0,0,.19.16s.5-2.84-.91-2c-.23.13-.58.54-.43.83s.28,0,.53,0C8.35,18.8,8.25,19.42,8.48,19.73Z"/><path class="cls-9" d="M22.93,15.9l-.28,2.39-3.55.33.12.77,2.46-.08-.19,1.62-2.12.17.09.91L23,21.79l-.35,2.33c0,.07-1.89.14-5.62.21l-.78-7.93Z"/><path class="cls-9" d="M30.9,15.9l1.2,2-2,2.09L31.68,22l-2.23,2.09L27.74,21.9c-.87,1.08-1.56,1.88-2.09,2.41-1.22-.74-2-1.21-2.38-1.4q1.68-1.74,3.07-3.15l-1.95-2.51L26.81,16,28.43,18Z"/><path class="cls-9" d="M36.94,15.9l.21,2.38c-.42,0-.83-.05-1.22-.05l.18,3.87,1.22.13-.24,2.14H32.53l-.13-2.08,1.16-.19V18.18l-1.06.05.28-2.18Z"/><path class="cls-9" d="M44,15.88q.27,1.39.42,2.49c-.73,0-1.41-.05-2-.05q.11,3.46,0,6H40.27a42,42,0,0,1-.14-5.09v-.88q-1,0-2.16.09a21.68,21.68,0,0,1,.38-2.51C39.94,15.89,41.84,15.88,44,15.88Z"/><path class="cls-10" d="M23.53,23.05l2.81-2.87-.18-.24c-.88.9-1.84,1.88-2.89,3Z"/><path class="cls-10" d="M36.94,15.9l-4.16.15-.28,2.18h0l.23-1.76,4.16-.15.17,1.95h0Z"/><polygon class="cls-10" points="19.21 19.81 21.63 19.73 21.68 19.32 19.21 19.39 19.16 19.03 19.1 19.04 19.21 19.81"/><polygon class="cls-10" points="16.23 16.4 16.27 16.82 22.88 16.32 22.93 15.9 16.23 16.4"/><polygon class="cls-10" points="33.56 22.1 32.4 22.29 32.42 22.7 33.56 22.51 33.56 22.1"/><polygon class="cls-10" points="19.41 21.51 19.37 21.51 19.46 22.43 22.92 22.2 22.98 21.79 19.46 22.01 19.41 21.51"/><path class="cls-10" d="M38.34,15.92A21.68,21.68,0,0,0,38,18.43h0a17.13,17.13,0,0,1,.33-2.09c1.6,0,3.5-.05,5.7-.05.15.76.26,1.45.36,2.08h.06q-.15-1.1-.42-2.49C41.84,15.88,39.94,15.89,38.34,15.92Z"/><path class="cls-10" d="M42.44,18.74c0,1.07.05,2.08.05,3,0-.93,0-1.94,0-3Z"/><polygon class="cls-10" points="30.15 20.36 31.5 22.2 31.68 22.03 30.32 20.18 30.15 20.36"/><polygon class="cls-10" points="28.43 18.04 26.81 15.95 24.39 17.25 24.62 17.54 26.81 16.37 28.43 18.46 30.9 16.32 31.95 18.02 32.1 17.85 30.9 15.9 28.43 18.04"/><path class="cls-10" d="M40.13,19.46c0,.52,0,1,0,1.46,0-.41,0-.83,0-1.28Z"/><path class="cls-10" d="M36,18.64h0l.18,3.87,1.18.13,0-.41-1.22-.13Z"/><path class="cls-11" d="M35.94,18.54c.39,0,.8,0,1.21.05l0-.32c-.41,0-.8,0-1.19,0Z"/><polygon class="cls-11" points="19.37 21.1 19.4 21.41 21.49 21.24 21.68 19.62 21.64 19.63 21.49 20.93 19.37 21.1"/><polygon class="cls-11" points="19.1 18.62 19.15 18.93 22.66 18.6 22.93 16.21 22.89 16.22 22.66 18.29 19.1 18.62"/><polygon class="cls-11" points="32.54 18.23 32.49 18.54 33.56 18.49 33.56 18.18 32.54 18.23"/><path class="cls-11" d="M26.21,19.9l.13-.14-1.78-2.29-.17.09Z"/><path class="cls-11" d="M42.44,24.31H40.27a33.12,33.12,0,0,1-.15-3.4,33,33,0,0,0,.15,3.71h2.17c0-.89.05-1.86.05-2.92C42.49,22.64,42.47,23.51,42.44,24.31Z"/><path class="cls-11" d="M29.45,24.12,27.74,21.9c-.87,1.08-1.56,1.88-2.09,2.41-1-.63-1.76-1.06-2.19-1.3l-.19.21c.37.19,1.16.66,2.38,1.4.53-.53,1.22-1.33,2.09-2.41l1.71,2.22,2.23-2.09-.13-.18Z"/><path class="cls-11" d="M22.63,24.12c0,.07-1.89.14-5.62.21l-.75-7.62h0L17,24.64c3.73-.07,5.6-.14,5.62-.21L23,22.09h-.05Z"/><polygon class="cls-11" points="30.15 19.94 30.28 20.12 32.1 18.16 31.98 17.98 30.15 19.94"/><polygon class="cls-11" points="37.09 24.37 32.53 24.37 32.42 22.6 32.4 22.6 32.53 24.68 37.09 24.68 37.33 22.54 37.3 22.54 37.09 24.37"/><path class="cls-11" d="M42.44,18.32c0,.11,0,.21,0,.31.61,0,1.28,0,2,.05,0-.1,0-.21,0-.31C43.7,18.34,43,18.32,42.44,18.32Z"/><path class="cls-11" d="M40.13,19.22v-.88c-.68,0-1.39,0-2.12.09a2.91,2.91,0,0,0,0,.31q1.13-.09,2.16-.09v.57Z"/><g class="cls-12"><path class="cls-4" d="M28.5,3.6C26,4.91,30,8.12,31.57,8.19,34.5,8.33,31,2.34,28.5,3.6Z"/><path class="cls-4" d="M31.55,8.19c.29-.84-.7-2.28-1.15-2.82a2.05,2.05,0,0,0-1.6-.88,1.19,1.19,0,0,0-1.07.63C28.11,6.51,30.44,8.12,31.55,8.19Z"/><path class="cls-6" d="M30.67,4c1.78,1.27,3,4.33.9,4.23a3.62,3.62,0,0,1-1.51-.57,4.17,4.17,0,0,0,1.85.79C34.14,8.52,32.62,5.05,30.67,4Z"/></g><g class="cls-13"><path class="cls-4" d="M37.81,9.34c2.25,2.31,1.57-4.94-.64-3.9C36,6,37.18,8.69,37.81,9.34Z"/><path class="cls-4" d="M37.81,9.34a1.71,1.71,0,0,0,.57.41.78.78,0,0,0,.23-.49,3.56,3.56,0,0,0-.16-1.74,4,4,0,0,0-.9-1.65A.89.89,0,0,0,37,5.55C36.1,6.3,37.22,8.72,37.81,9.34Z"/><path class="cls-6" d="M37.66,5.34c1.81.15,2.22,6.12.15,4a4.76,4.76,0,0,1-.73-1.21A5.26,5.26,0,0,0,38,9.68C40.28,12.05,39.75,5.17,37.66,5.34Z"/></g><path class="cls-4" d="M34.8,4.33c1.88-.11-.69-3.44-1.53-1.62C32.81,3.7,34.27,4.36,34.8,4.33Z"/><path class="cls-4" d="M34.8,4.33a.92.92,0,0,0,.42-.11.67.67,0,0,0,0-.39,1.57,1.57,0,0,0-.62-.8,1.46,1.46,0,0,0-1-.32.56.56,0,0,0-.39.16C33,3.77,34.3,4.36,34.8,4.33Z"/><path class="cls-6" d="M33.5,2.37c1-1,3,1.86,1.3,2a1.75,1.75,0,0,1-.76-.2,1.85,1.85,0,0,0,1,.28C36.92,4.3,34.54,1.07,33.5,2.37Z"/><path class="cls-4" d="M43.23,28.6c-.61,2.29,4.38.52,2.54-1.19C44.76,26.47,43.39,28,43.23,28.6Z"/><path class="cls-4" d="M43.23,28.6a1.06,1.06,0,0,0,0,.55.86.86,0,0,0,.47.11,2,2,0,0,0,1.2-.42,1.93,1.93,0,0,0,.77-1,.73.73,0,0,0,0-.53C44.61,26.64,43.38,28,43.23,28.6Z"/><path class="cls-6" d="M46.08,27.82c.77,1.56-3.41,2.89-2.85.78a2.06,2.06,0,0,1,.53-.83,2.49,2.49,0,0,0-.71,1C42.43,31.14,47.22,29.57,46.08,27.82Z"/><g class="cls-14"><path class="cls-15" d="M28,40.12c0-.14-.05-.29-.08-.44a14.11,14.11,0,0,1-.3-4.2c.05-.51.35-1.29.15-1.79s-1.06-.82-1.61-1.11h-1l-2.78-.09h-.25l-.79,0H10.8A3.59,3.59,0,0,1,9,33.09H8.6c3.12,8.22,6.2,15.85,7.5,18.31,2.32,0,4.68,0,6.67,0l1.32,0,.49,0,.68,0h.21c2.63-.1,2-3.15,2.24-5A20.74,20.74,0,0,0,28,40.12Z"/><path class="cls-15" d="M46.61,32.76a3.58,3.58,0,0,0,.11-.35H38.33c-2.88,0-5.42.05-6.79.11h-.71l-.24,0h0l-.07,0h0c-.93.57-2.2,1-2.12,2.23a40.51,40.51,0,0,0,.7,4.8,21.68,21.68,0,0,1,.07,5.4c-.1,1.24-1,5.6.93,5.75l.15,0h0l1,.06h.25l.49,0a2.73,2.73,0,0,1,1.2-.45h0a3,3,0,0,1,.84,0l.11,0,.09,0a2,2,0,0,1,.9.49c1.38,0,2.88.07,4.4.09h.2a26.26,26.26,0,0,0,1.46-3C42.68,44.5,44.66,38.83,46.61,32.76Z"/></g><path class="cls-16" d="M33.35,29.84c-1,.38-2.65,2.5-3.14,3s.76,5.29.64,7-.76,8.57.06,9.2S42.5,50.6,44.3,50.35s5-.93,6.25-.63,2.17.81,2.9.29c1-.74,3.12-2.27,3.15-3.64,0-1,0-1.94.06-2.91a11.09,11.09,0,0,0,0-2.76,15.59,15.59,0,0,1-.56-1.88,25.53,25.53,0,0,1,.31-2.74c0-1-.11-2.06-.2-3.1a8.84,8.84,0,0,0,0-1.71c-.69-2.14-4.33-1.47-6-1.47Q41.76,29.8,33.35,29.84Z"/><path class="cls-17" d="M49.12,48.16a1.11,1.11,0,0,1-.77-.22l-.81.28c-1.53.52-3.18,1.22-4.82.91a20.09,20.09,0,0,1-2.13-.78,8.11,8.11,0,0,0-1.78-.22c-1.44-.1-3.1-.27-4.08-1.47a4.41,4.41,0,0,1-.73-2c-.14-.68-.61-1.23-.78-1.91-.4-1.67.26-3.5.51-5.15a15.11,15.11,0,0,0-.5-4.82,9.46,9.46,0,0,1-.08-2.8,16.92,16.92,0,0,0-2.94,2.93c-.49.53.76,5.29.64,7s-.76,8.57.06,9.2S42.5,50.6,44.3,50.35s5-.93,6.25-.63,2.17.81,2.9.29a14.17,14.17,0,0,0,2.48-2.17C53.67,48.07,51.38,47.93,49.12,48.16Z"/><path class="cls-7" d="M56.08,41.09c-.11-.48-.48-.88-.58-1.34-.24-1.14.45-2,.54-3.07,0-.17,0-.33,0-.5a2.37,2.37,0,0,1-3,.74c-1.45-.74-1.66-2.63-1.42-4.07a3.11,3.11,0,0,1,.79-1.72,1.69,1.69,0,0,1,.67-.41,1.86,1.86,0,0,1,2.3.24l.18.17C54.9,30,53.14,30,51.61,30a2.8,2.8,0,0,1,.18,1A1.41,1.41,0,0,1,50,32.35a2.49,2.49,0,0,1-1-.59,2.56,2.56,0,0,1-.59-1,1.19,1.19,0,0,1,0-.62l-6.37,0c-1.65,0-4-.62-5.53.08.12.39.52.53.45,1a1.7,1.7,0,0,1-1,1.16,1.81,1.81,0,0,1-1.9-.19c-.56.74-.1,2,0,2.84a10.82,10.82,0,0,1,.11,2.41c0,.4-.26,1-.07,1.36s.75.45,1.2.33c1.09-.3,2-1.17,3.21-1a4.6,4.6,0,0,1,1.94,1A5.5,5.5,0,0,1,41.69,41a3.11,3.11,0,0,0,1.75,1.35c.85.27,1.71.32,2.56.54a16.3,16.3,0,0,1,1.9.87,4,4,0,0,0,3.8-.36,2.85,2.85,0,0,1,2.15-.19c.4.07,1.22.54,1.6.46C56.32,43.49,56.22,41.68,56.08,41.09Z"/><path class="cls-5" d="M32.9,37c.71-.54.44-1.72-.08-2.29s-1.36-.61-1.39.31C31.41,35.6,31.93,37.73,32.9,37Z"/><path class="cls-5" d="M32,34.28l0,.11,0,.13v.08s0,.11,0,.16v.33s0,.19,0,.23.06.25.1.37v0l.07.15a3.41,3.41,0,0,0,.17.33l0,0a.69.69,0,0,0,.11.13l.16.18.07.05.16.11,0,0,.11,0,.11,0a1.79,1.79,0,0,0-.27-2.11A1.11,1.11,0,0,0,32,34.28Z"/><path class="cls-6" d="M33.31,35.8A1.21,1.21,0,0,1,32.9,37c-.72.56-1.2-.48-1.38-1.3.13.82.63,2.18,1.43,1.56A1.32,1.32,0,0,0,33.31,35.8Z"/><path class="cls-3" d="M32.7,47.53c2.54.22.5-5.72-1.4-4.27C30.31,44,31.44,47.41,32.7,47.53Z"/><path class="cls-3" d="M33.72,45.76a5.64,5.64,0,0,0-.29-1,2.19,2.19,0,0,0-1.13-1.37c-.88-.31-1.78,1-1.14,1.66.16.19.24.09.45.12a1.44,1.44,0,0,1,.75.48c.24.26.55,1.28,1,1.25S33.81,46.29,33.72,45.76Z"/><path class="cls-6" d="M31.35,46.51c-.36.09.18.89.31,1.05s1,1,1.42.61,0-.4-.22-.42A1.62,1.62,0,0,1,31.35,46.51Z"/><path class="cls-3" d="M33.27,44.85c.38-.46-.61-1.37-1-1.5s-.78-.11-.79.27.21.18.43.21C32.58,43.92,32.74,44.67,33.27,44.85Z"/><path class="cls-4" d="M52.69,35.6c.43.56,1.3,1.22,1.9.55A3.41,3.41,0,0,0,55,34.34c.09-1.08.11-3.07-1.32-3.3-1-.17-1.53.81-1.72,1.64A3.44,3.44,0,0,0,52.69,35.6Z"/><path class="cls-4" d="M53.84,34.11c.44.4.91.69,1-.26.07-.76-.3-2.11-1.18-2.25a1.16,1.16,0,0,0-1.22.89c-.07.57.53.84.91,1.16C53.49,33.77,53.67,34,53.84,34.11Z"/><path class="cls-4" d="M52.48,33.39c.31,0,.7-.41,1-.45s.57.16.91.28c.51.18.4-.62.32-.91a1.24,1.24,0,0,0-2.41-.14c-.12.26-.41,1.16.07,1.22Z"/><path class="cls-8" d="M55,35.87l-.06.14a1.06,1.06,0,0,1-1.7.37,0,0,0,0,0,0,0,.91.91,0,0,0,1.13.49.89.89,0,0,0,.54-.43,5.55,5.55,0,0,0,.45-2.32A5,5,0,0,1,55,35.87Z"/><path class="cls-4" d="M35.23,43.44a2.39,2.39,0,0,0,2.16-.84c.49-.52,1.12-1.49.53-2.15a2.65,2.65,0,0,0-2.07-.63c-.75,0-2.31.25-2.28,1.29S34.22,43.29,35.23,43.44Z"/><path class="cls-4" d="M36.1,42.29a.74.74,0,0,0,.21.13c.94.36,2.11-1,1.4-1.85A2.38,2.38,0,0,0,35.85,40c-.41,0-1.61.08-1.38.81.12.37.91.56,1.17.85S35.91,42.12,36.1,42.29Z"/><path class="cls-8" d="M37.11,43.05a4.36,4.36,0,0,0,.61-.82,3,3,0,0,1-1.86,1.22,2,2,0,0,1-.6,0,1.26,1.26,0,0,1-.59-.26h0a1.52,1.52,0,0,0,1.19.45,2,2,0,0,0,.68-.19A2.07,2.07,0,0,0,37.11,43.05Z"/><g class="cls-18"><path class="cls-3" d="M51.28,45.23a2.18,2.18,0,0,0-1.46.84c-.13.18-.68,1-.21,1.1a5.11,5.11,0,0,0,.64-.3,6.63,6.63,0,0,0,1.11-.24c.41-.23.66-1.13.11-1.36A.41.41,0,0,0,51.28,45.23Z"/><path class="cls-3" d="M51.22,45.38c-.22,0-1.51.55-1.19.91.14.15.5-.15.64-.17s.44.16.62.13A.44.44,0,0,0,51.22,45.38Z"/></g><g class="cls-12"><path class="cls-4" d="M35.56,44.79c-1.61.83,1,2.87,1.95,2.92C39.37,47.8,37.13,44,35.56,44.79Z"/><path class="cls-4" d="M37.5,47.7c.18-.53-.44-1.44-.73-1.78a1.3,1.3,0,0,0-1-.56.73.73,0,0,0-.68.4A3.55,3.55,0,0,0,37.5,47.7Z"/><path class="cls-6" d="M36.94,45c1.13.81,1.9,2.75.57,2.69a2.39,2.39,0,0,1-1-.37,2.64,2.64,0,0,0,1.18.5C39.14,47.91,38.18,45.71,36.94,45Z"/></g><g class="cls-13"><path class="cls-4" d="M54,46.45c-.1,2,3-1.4,1.53-2C54.76,44.15,54.05,45.88,54,46.45Z"/><path class="cls-4" d="M54,46.45a1.14,1.14,0,0,0,0,.45.52.52,0,0,0,.33-.11,2.28,2.28,0,0,0,.74-.83,2.52,2.52,0,0,0,.37-1.13.58.58,0,0,0-.09-.4C54.68,44.34,54.05,45.91,54,46.45Z"/><path class="cls-6" d="M55.81,44.66c.71.9-1.88,3.67-1.79,1.79a3.08,3.08,0,0,1,.24-.86,3.54,3.54,0,0,0-.33,1.09C53.83,48.77,56.79,45.55,55.81,44.66Z"/></g><path class="cls-4" d="M50.91,32.06c1.19-.07-.44-2.18-1-1C49.64,31.66,50.57,32.08,50.91,32.06Z"/><path class="cls-4" d="M50.91,32.06a.58.58,0,0,0,.26-.07.53.53,0,0,0,0-.25,1,1,0,0,0-.4-.51,1,1,0,0,0-.61-.2.38.38,0,0,0-.25.1C49.75,31.7,50.59,32.08,50.91,32.06Z"/><path class="cls-6" d="M50.08,30.81c.63-.61,1.92,1.18.83,1.25a1,1,0,0,1-.48-.13,1.15,1.15,0,0,0,.6.18C52.25,32,50.74,30,50.08,30.81Z"/><path class="cls-4" d="M36.16,31.11c.13-1.5-2.8.14-1.47,1C35.42,32.6,36.12,31.53,36.16,31.11Z"/><path class="cls-4" d="M36.16,31.11a.74.74,0,0,0,0-.35.63.63,0,0,0-.31,0,1.42,1.42,0,0,0-.7.39,1.25,1.25,0,0,0-.37.73.49.49,0,0,0,.08.33C35.5,32.49,36.12,31.51,36.16,31.11Z"/><path class="cls-6" d="M34.45,31.91c-.65-.9,1.83-2.18,1.71-.8a1.57,1.57,0,0,1-.25.57,1.53,1.53,0,0,0,.33-.71C36.38,29.43,33.55,30.93,34.45,31.91Z"/><path class="cls-3" d="M33.16,42.38c-.25-1.58.34-3.28.57-4.82a7.42,7.42,0,0,0,0-1.94A10.17,10.17,0,0,1,33.49,38a4,4,0,0,1-2.44,2.92l-.28.07c-.05.61-.11,1.35-.15,2.15A2.1,2.1,0,0,1,33.16,42.38Z"/><path class="cls-3" d="M43,49.84l.29-.1c.5-.2,1-.46,1.46-.66h0a5.35,5.35,0,0,1-2.07.06,4.43,4.43,0,0,1-.65-.18A3.31,3.31,0,0,1,43,49.84Z"/><path class="cls-3" d="M49.12,48.16a1.11,1.11,0,0,1-.77-.22l-.81.28-.8.28a5.79,5.79,0,0,1,4.26.55,3.27,3.27,0,0,1,1,1.08,1.58,1.58,0,0,0,1.4-.12,14.17,14.17,0,0,0,2.48-2.17C53.67,48.07,51.38,47.93,49.12,48.16Z"/><path class="cls-3" d="M34.52,49.29A14.46,14.46,0,0,1,37.74,48a4.64,4.64,0,0,1-2.8-1.14,4.25,4.25,0,0,1-2.07,2.66L34,49.7A1.31,1.31,0,0,1,34.52,49.29Z"/><path class="cls-8" d="M36.49,30.94a.1.1,0,0,0-.19,0l0,.17a1,1,0,0,1,0,.17,1,1,0,0,1-.06.34,1.32,1.32,0,0,1-.37.58,1.4,1.4,0,0,1-.63.32,2.89,2.89,0,0,1-.72,0,0,0,0,0,0,0,.08.46.46,0,0,0,.17.09l.19,0a1.88,1.88,0,0,0,.41,0,1.64,1.64,0,0,0,.76-.34,1.47,1.47,0,0,0,.46-.66,1.67,1.67,0,0,0,.1-.4,1.33,1.33,0,0,0,0-.2A.51.51,0,0,0,36.49,30.94Z"/><path class="cls-8" d="M50.81,30.31c-.79,0-1.57.09-2.36.09s-1.53-.07-2.3,0a23.56,23.56,0,0,1-2.38.12c-.73,0-1.46-.08-2.19-.12a5.35,5.35,0,0,0-2.35.29c-.07,0,0,.13,0,.12a7.31,7.31,0,0,1,2.19-.05c.72.09,1.44.27,2.17.3A18.9,18.9,0,0,0,45.89,31a9.12,9.12,0,0,0,1.16-.12l1.14-.18c.88-.12,1.76-.13,2.63-.27A.05.05,0,0,0,50.81,30.31Z"/><path class="cls-8" d="M54.4,30.64a.27.27,0,0,0-.09-.12c0-.09-.13-.12-.21-.16a.94.94,0,0,0-.28-.1,4.87,4.87,0,0,0-.55-.06,3.63,3.63,0,0,0-.57,0,2.69,2.69,0,0,0-.55.17c-.15.06-.06.26.08.25h.52a4.43,4.43,0,0,1,.52,0,2.67,2.67,0,0,1,.48.08,1.43,1.43,0,0,0,.29,0,.27.27,0,0,0,.18,0,.21.21,0,0,0,.15,0S54.4,30.67,54.4,30.64Z"/><path class="cls-9" d="M44.91,35.64c-.46,4.53-.72,6.9-.81,7.11H42.79l-1.61-2.81-.29,2.81H39.11q0-2.66.26-6.84H41.1l1.13,2.25.66-2.37Zm3.91,0a2.52,2.52,0,0,1,2.44,1.55,3.69,3.69,0,0,1,.17,1.35,5.09,5.09,0,0,1-1.22,3.23,3.46,3.46,0,0,1-2.52,1,2.47,2.47,0,0,1-2.32-1.95,4.89,4.89,0,0,1-.15-1.32,3.92,3.92,0,0,1,2.47-3.63A3.66,3.66,0,0,1,48.82,35.64Zm-1.63,4c.07.64.37,1,.88,1s1-.33,1.43-1a2,2,0,0,0,.21-1.09q0-1-.84-1t-1.56,1.26A2,2,0,0,0,47.19,39.63Z"/><g class="cls-19"><path class="cls-9" d="M42.23,38.16,41.1,35.91H39.37q-.28,4.19-.26,6.84h0q0-2.47.26-6.09H41.1l1.13,2.25.66-2.36,1.94-.15c0-.25.05-.5.08-.76l-2,.15Z"/><path class="cls-9" d="M47.69,36.59a3.69,3.69,0,0,1,1.13-.2A2.54,2.54,0,0,1,51.26,38a3.06,3.06,0,0,1,.16.82,1.85,1.85,0,0,0,0-.23,3.69,3.69,0,0,0-.17-1.35,2.52,2.52,0,0,0-2.44-1.55,3.66,3.66,0,0,0-1.13.19,3.92,3.92,0,0,0-2.47,3.63,4.61,4.61,0,0,0,0,.53A3.86,3.86,0,0,1,47.69,36.59Z"/><path class="cls-9" d="M47.19,40.38c.07.65.37,1,.88,1s1-.34,1.43-1a2.07,2.07,0,0,0,.21-1.09,1.27,1.27,0,0,0,0-.28,1.89,1.89,0,0,1-.18.61c-.48.68-1,1-1.43,1a.81.81,0,0,1-.84-.73A1.83,1.83,0,0,0,47.19,40.38Z"/></g><g class="cls-20"><path class="cls-21" d="M44.1,42.75H42.79l-1.61-2.81-.29,2.81H39.11v.48h1.78l.29-2.82,1.61,2.82H44.1c.09-.22.35-2.59.81-7.12h0C44.44,40.33,44.18,42.55,44.1,42.75Z"/><path class="cls-21" d="M48.87,37.53q-.87,0-1.56,1.26a2,2,0,0,0-.12.84s0,0,0,.08a2.46,2.46,0,0,1,.11-.45Q48,38,48.87,38c.52,0,.8.28.83.84,0-.11,0-.22,0-.35Q49.71,37.53,48.87,37.53Z"/><path class="cls-21" d="M50.21,41.77a3.46,3.46,0,0,1-2.52,1,2.47,2.47,0,0,1-2.32-1.95,5.3,5.3,0,0,1-.14-.94.28.28,0,0,0,0,.09,4.89,4.89,0,0,0,.15,1.32,2.49,2.49,0,0,0,2.32,2,3.46,3.46,0,0,0,2.52-1A5.09,5.09,0,0,0,51.43,39a2.94,2.94,0,0,0,0-.42A5.09,5.09,0,0,1,50.21,41.77Z"/></g><path class="cls-22" d="M24,29.84c1,.38,2.65,2.5,3.14,3s-.76,5.29-.64,7,.76,8.57-.07,9.2S14.82,50.6,13,50.35s-5-.93-6.26-.63-2.16.81-2.89.29c-1-.74-3.12-2.27-3.15-3.64,0-1,0-1.94-.06-2.91a11.09,11.09,0,0,1,0-2.76,14,14,0,0,0,.57-1.88c.09-1-.31-1.76-.31-2.74S1,34,1.09,33a8.84,8.84,0,0,1,0-1.71c.69-2.14,4.33-1.47,6-1.47Q15.57,29.8,24,29.84Z"/><path class="cls-17" d="M8.2,48.16A1.11,1.11,0,0,0,9,47.94l.81.28c1.53.52,3.18,1.22,4.82.91a19.15,19.15,0,0,0,2.12-.78,8.27,8.27,0,0,1,1.79-.22c1.44-.1,3.1-.27,4.08-1.47a4.41,4.41,0,0,0,.73-2c.14-.68.61-1.23.78-1.91.4-1.67-.26-3.5-.51-5.15a15.39,15.39,0,0,1,.49-4.82,9.15,9.15,0,0,0,.09-2.8,16.92,16.92,0,0,1,2.94,2.93c.49.53-.76,5.29-.64,7s.76,8.57-.07,9.2S14.82,50.6,13,50.35s-5-.93-6.26-.63-2.16.81-2.89.29a14.17,14.17,0,0,1-2.48-2.17C3.65,48.07,5.94,47.93,8.2,48.16Z"/><path class="cls-7" d="M1.24,41.09c.11-.48.48-.88.58-1.34.24-1.14-.45-2-.54-3.07a4.18,4.18,0,0,1,0-.5,2.37,2.37,0,0,0,3,.74c1.45-.74,1.66-2.63,1.42-4.07a3.18,3.18,0,0,0-.79-1.72,1.69,1.69,0,0,0-.67-.41,1.86,1.86,0,0,0-2.3.24l-.18.17C2.42,30,4.18,30,5.71,30a2.8,2.8,0,0,0-.18,1,1.41,1.41,0,0,0,1.76,1.34,2.56,2.56,0,0,0,1-.59,2.56,2.56,0,0,0,.59-1,1.19,1.19,0,0,0,0-.62l6.37,0c1.65,0,4-.62,5.53.08-.12.39-.52.53-.45,1a1.7,1.7,0,0,0,1,1.16,1.81,1.81,0,0,0,1.9-.19c.56.74.1,2,0,2.84a10.26,10.26,0,0,0-.11,2.41c0,.4.26,1,.07,1.36s-.75.45-1.2.33c-1.1-.3-2-1.17-3.21-1a4.6,4.6,0,0,0-1.94,1A5.5,5.5,0,0,0,15.63,41a3.11,3.11,0,0,1-1.75,1.35c-.85.27-1.71.32-2.56.54a16.3,16.3,0,0,0-1.9.87,4,4,0,0,1-3.8-.36,2.85,2.85,0,0,0-2.15-.19c-.4.07-1.22.54-1.6.46C1,43.49,1.1,41.68,1.24,41.09Z"/><path class="cls-5" d="M24.42,37c-.71-.54-.44-1.72.08-2.29s1.36-.61,1.39.31C25.91,35.6,25.38,37.73,24.42,37Z"/><path class="cls-5" d="M25.31,34.28a.49.49,0,0,1,0,.11l0,.13v.08s0,.11,0,.16v.33s0,.19,0,.23-.06.25-.1.37v0a1,1,0,0,0-.07.15,3.41,3.41,0,0,1-.17.33l0,0a.69.69,0,0,1-.11.13l-.16.18-.07.05-.16.11,0,0-.11,0-.11,0a1.79,1.79,0,0,1,.27-2.11A1.1,1.1,0,0,1,25.31,34.28Z"/><path class="cls-6" d="M24,35.8A1.21,1.21,0,0,0,24.42,37c.72.56,1.2-.48,1.38-1.3-.13.82-.63,2.18-1.43,1.56A1.32,1.32,0,0,1,24,35.8Z"/><path class="cls-3" d="M24.62,47.53c-2.54.22-.5-5.72,1.4-4.27C27,44,25.88,47.41,24.62,47.53Z"/><path class="cls-3" d="M23.6,45.76a5.64,5.64,0,0,1,.29-1A2.19,2.19,0,0,1,25,43.35c.88-.31,1.78,1,1.14,1.66-.16.19-.24.09-.45.12a1.44,1.44,0,0,0-.75.48c-.24.26-.55,1.28-1,1.25S23.51,46.29,23.6,45.76Z"/><path class="cls-6" d="M26,46.51c.36.09-.18.89-.31,1.05s-1,1-1.42.61,0-.4.22-.42A1.62,1.62,0,0,0,26,46.51Z"/><path class="cls-3" d="M24.05,44.85c-.38-.46.61-1.37,1-1.5s.78-.11.79.27-.22.18-.43.21C24.74,43.92,24.58,44.67,24.05,44.85Z"/><path class="cls-4" d="M4.63,35.6c-.43.56-1.3,1.22-1.9.55a3.41,3.41,0,0,1-.42-1.81c-.09-1.08-.11-3.07,1.32-3.3,1-.17,1.53.81,1.72,1.64A3.44,3.44,0,0,1,4.63,35.6Z"/><path class="cls-4" d="M3.47,34.11c-.43.4-.9.69-1-.26-.07-.76.3-2.11,1.18-2.25a1.16,1.16,0,0,1,1.22.89c.07.57-.53.84-.91,1.16Z"/><path class="cls-4" d="M4.84,33.39c-.31,0-.7-.41-1-.45s-.57.16-.91.28c-.51.18-.41-.62-.32-.91a1.33,1.33,0,0,1,1-1A1.34,1.34,0,0,1,5,32.17c.12.26.41,1.16-.07,1.22Z"/><path class="cls-8" d="M2.37,35.87l.06.14a1.06,1.06,0,0,0,1.7.37,0,0,0,0,1,0,0,.91.91,0,0,1-1.13.49.86.86,0,0,1-.54-.43,5.55,5.55,0,0,1-.45-2.32A5,5,0,0,0,2.37,35.87Z"/><path class="cls-4" d="M22.09,43.44a2.39,2.39,0,0,1-2.16-.84c-.49-.52-1.12-1.49-.53-2.15a2.65,2.65,0,0,1,2.07-.63c.75,0,2.31.25,2.28,1.29S23.1,43.29,22.09,43.44Z"/><path class="cls-4" d="M21.22,42.29a.74.74,0,0,1-.21.13c-.94.36-2.11-1-1.4-1.85A2.38,2.38,0,0,1,21.47,40c.41,0,1.61.08,1.38.81-.12.37-.91.56-1.17.85S21.41,42.12,21.22,42.29Z"/><path class="cls-8" d="M20.21,43.05a4.36,4.36,0,0,1-.61-.82,3,3,0,0,0,1.86,1.22,2,2,0,0,0,.59,0,1.25,1.25,0,0,0,.6-.26h0a1.52,1.52,0,0,1-1.19.45,2,2,0,0,1-.68-.19A2.07,2.07,0,0,1,20.21,43.05Z"/><g class="cls-18"><path class="cls-3" d="M6,45.23a2.18,2.18,0,0,1,1.46.84c.13.18.68,1,.21,1.1a5.11,5.11,0,0,1-.64-.3A6.42,6.42,0,0,1,6,46.63c-.41-.23-.66-1.13-.11-1.36A.41.41,0,0,1,6,45.23Z"/><path class="cls-3" d="M6.1,45.38c.22,0,1.51.55,1.19.91-.14.15-.5-.15-.65-.17s-.43.16-.61.13A.44.44,0,0,1,6.1,45.38Z"/></g><g class="cls-12"><path class="cls-4" d="M21.76,44.79c1.61.83-1,2.87-2,2.92C18,47.8,20.19,44,21.76,44.79Z"/><path class="cls-4" d="M19.82,47.7c-.18-.53.44-1.44.73-1.78a1.3,1.3,0,0,1,1-.56.73.73,0,0,1,.68.4A3.55,3.55,0,0,1,19.82,47.7Z"/><path class="cls-6" d="M20.38,45c-1.13.81-1.91,2.75-.57,2.69a2.39,2.39,0,0,0,1-.37,2.64,2.64,0,0,1-1.18.5C18.18,47.91,19.14,45.71,20.38,45Z"/></g><g class="cls-13"><path class="cls-4" d="M3.3,46.45c.1,2-3-1.4-1.53-2C2.56,44.15,3.27,45.88,3.3,46.45Z"/><path class="cls-4" d="M3.3,46.45a1.14,1.14,0,0,1,0,.45.52.52,0,0,1-.33-.11A2.28,2.28,0,0,1,2.18,46a2.52,2.52,0,0,1-.37-1.13.58.58,0,0,1,.09-.4C2.63,44.34,3.27,45.91,3.3,46.45Z"/><path class="cls-6" d="M1.51,44.66c-.71.9,1.88,3.67,1.79,1.79a2.84,2.84,0,0,0-.25-.86,3.35,3.35,0,0,1,.34,1.09C3.49,48.77.53,45.55,1.51,44.66Z"/></g><path class="cls-4" d="M6.41,32.06c-1.19-.07.44-2.18,1-1C7.67,31.66,6.75,32.08,6.41,32.06Z"/><path class="cls-4" d="M6.41,32.06A.67.67,0,0,1,6.14,32a.54.54,0,0,1,0-.25,1.06,1.06,0,0,1,.39-.51,1,1,0,0,1,.62-.2.38.38,0,0,1,.25.1C7.57,31.7,6.73,32.08,6.41,32.06Z"/><path class="cls-6" d="M7.24,30.81c-.63-.61-1.93,1.18-.83,1.25a1,1,0,0,0,.48-.13,1.18,1.18,0,0,1-.6.18C5.07,32,6.58,30,7.24,30.81Z"/><path class="cls-4" d="M21.16,31.11c-.13-1.5,2.8.14,1.47,1C21.9,32.6,21.2,31.53,21.16,31.11Z"/><path class="cls-4" d="M21.16,31.11a.74.74,0,0,1,.05-.35.6.6,0,0,1,.3,0,1.41,1.41,0,0,1,.71.39,1.25,1.25,0,0,1,.37.73.49.49,0,0,1-.08.33C21.82,32.49,21.2,31.51,21.16,31.11Z"/><path class="cls-6" d="M22.87,31.91c.65-.9-1.83-2.18-1.71-.8a1.57,1.57,0,0,0,.25.57,1.53,1.53,0,0,1-.33-.71C20.94,29.43,23.77,30.93,22.87,31.91Z"/><path class="cls-3" d="M24.16,42.38c.25-1.58-.34-3.28-.57-4.82a7.42,7.42,0,0,1,0-1.94A10.17,10.17,0,0,0,23.83,38a4,4,0,0,0,2.44,2.92l.28.07c.05.61.11,1.35.15,2.15A2.1,2.1,0,0,0,24.16,42.38Z"/><path class="cls-3" d="M14.3,49.84l-.29-.1c-.5-.2-1-.46-1.46-.66h0a5.35,5.35,0,0,0,2.07.06,4.43,4.43,0,0,0,.65-.18A3.31,3.31,0,0,0,14.3,49.84Z"/><path class="cls-3" d="M8.2,48.16A1.11,1.11,0,0,0,9,47.94l.81.28.8.28a5.79,5.79,0,0,0-4.26.55,3.27,3.27,0,0,0-1.05,1.08A1.58,1.58,0,0,1,3.87,50a14.17,14.17,0,0,1-2.48-2.17C3.65,48.07,5.94,47.93,8.2,48.16Z"/><path class="cls-3" d="M22.8,49.29A14.46,14.46,0,0,0,19.58,48a4.64,4.64,0,0,0,2.8-1.14,4.25,4.25,0,0,0,2.07,2.66l-1.15.15A1.4,1.4,0,0,0,22.8,49.29Z"/><path class="cls-8" d="M19.62,30.78A11.4,11.4,0,0,0,17,30.39a13.1,13.1,0,0,0-1.4,0l-1.42,0a43.35,43.35,0,0,1-5.7-.28.11.11,0,1,0,0,.21A46.16,46.16,0,0,0,14,31a18.3,18.3,0,0,0,2.77,0,11,11,0,0,1,1.41-.12,7.75,7.75,0,0,1,1.36.14C19.67,31,19.7,30.81,19.62,30.78Z"/><path class="cls-8" d="M23.86,31.11a.92.92,0,0,0-.37-.53,2,2,0,0,0-.56-.26,3.34,3.34,0,0,0-.62-.1c-.06,0-.07.07,0,.1l.49.23a1.45,1.45,0,0,1,.4.3h0a.35.35,0,0,0,0,.08l0,0,0,0s0,.07,0,.1l0,.06v.06s0,0,0,.06,0,.07,0,.11,0,.07,0,.1h0a.19.19,0,0,0,0,.08c0,.1-.05.23.07.27s.21-.07.27-.17a.42.42,0,0,0,.13-.3A.7.7,0,0,0,23.86,31.11Z"/><path class="cls-9" d="M5.13,36l1.53,2,1-2.1,1.59,1.3L6.36,43l-1.95-1.4L5.68,39.5l-2-2.29Zm10.05-.1-.23,2-3,.27.09.65,2.08-.06L14,40.1l-1.78.15.07.77,3-.19-.3,2a41.71,41.71,0,0,1-4.74.19l-.66-6.7Zm5.59,1-.87,1.58q-2.41-1.06-2.37-.3c.1.23.44.42,1,.57,1.71.7,2.54,1.54,2.49,2.51q0,.93-1.14,1.53a3.83,3.83,0,0,1-1.47.32,5.07,5.07,0,0,1-2.66-.85l.68-1.51c1.51.61,2.27.7,2.26.26-.06-.21-.7-.57-1.94-1.06A2,2,0,0,1,15.58,38c-.07-.82.42-1.49,1.46-2A4.35,4.35,0,0,1,20.77,36.81Z"/><g class="cls-19"><path class="cls-9" d="M18.54,38.66l-.1,0c-.3-.08-1-.31-.92-.67-.67.67.52,1.32,1,1.45q2.19.92,2.46,2.1a1.27,1.27,0,0,0,0-.34,2.22,2.22,0,0,0-1.12-1.79A5.27,5.27,0,0,0,18.54,38.66Z"/><path class="cls-9" d="M15.6,38.32c.73-2.38,3.41-2,4.86-1l.31-.56A4.35,4.35,0,0,0,17,36c-1,.52-1.53,1.19-1.46,2A1.62,1.62,0,0,0,15.6,38.32Z"/><path class="cls-9" d="M18.7,40.92s.07.42-.7.24a8.84,8.84,0,0,1-1.56-.5l-.68,1.51.27.16.56-1.16C18.1,41.78,18.88,41.51,18.7,40.92Z"/><polygon class="cls-9" points="15.09 36.62 15.18 35.86 9.52 36.28 9.59 37.03 15.09 36.62"/><polygon class="cls-9" points="4.73 41.84 5.88 39.91 5.68 39.5 4.41 41.61 4.73 41.84"/><polygon class="cls-9" points="6.66 37.98 5.13 35.96 3.69 37.21 4.07 37.64 5.13 36.71 6.66 38.73 7.65 36.64 8.97 37.72 9.24 37.18 7.65 35.88 6.66 37.98"/><polygon class="cls-9" points="12.22 39.45 14.03 39.5 14.12 38.74 13.61 38.76 12.04 38.8 12.22 39.45"/><polygon class="cls-9" points="12.53 41.66 15.11 41.59 15.22 40.83 12.25 41.02 12.53 41.66"/></g><g class="cls-20"><polygon class="cls-21" points="5.68 39.5 3.93 37.48 3.69 37.68 5.51 39.78 5.68 39.5"/><polygon class="cls-21" points="12.18 40.25 12.22 40.72 13.96 40.57 14.12 39.21 14.07 39.21 13.96 40.1 12.18 40.25"/><polygon class="cls-21" points="11.95 38.15 12.02 38.62 14.95 38.35 15.18 36.33 15.12 36.34 14.95 37.88 11.95 38.15"/><path class="cls-21" d="M17.53,38.09a.55.55,0,0,0,.15.2q.45-.21,2.22.57l.87-1.58-.19-.12-.68,1.23Q17.49,37.33,17.53,38.09Z"/><path class="cls-21" d="M14.92,42.79a41.71,41.71,0,0,1-4.74.19l-.62-6.23h0l.66,6.7q4.73-.09,4.74-.18l.3-2h-.07Z"/><path class="cls-21" d="M19.89,42.7a3.83,3.83,0,0,1-1.47.32,4.89,4.89,0,0,1-2.49-.75l-.17.38a5.14,5.14,0,0,0,2.66.84,4.06,4.06,0,0,0,1.47-.31q1.17-.6,1.14-1.53a1.11,1.11,0,0,0,0-.26A1.81,1.81,0,0,1,19.89,42.7Z"/><polygon class="cls-21" points="6.36 43.01 4.61 41.75 4.41 42.08 6.36 43.48 9.24 37.65 9.07 37.52 6.36 43.01"/><path class="cls-21" d="M16.76,40.33a9.39,9.39,0,0,1,1.74.84.25.25,0,0,0,.2-.25c-.06-.21-.7-.57-1.94-1.06a2,2,0,0,1-1.18-1.73,2,2,0,0,0,0,.35A2,2,0,0,0,16.76,40.33Z"/></g></g></g></g></svg>