<?xml version="1.0" encoding="UTF-8"?><svg xmlns="http://www.w3.org/2000/svg" xmlns:xlink="http://www.w3.org/1999/xlink" viewBox="0 0 186.95 170.64"><defs><style>.aq{fill:url(#t);}.ar{fill:#fff;}.as{fill:url(#ap);}.at{fill:url(#r);}.au{fill:url(#ai);}.av{clip-path:url(#ak);}.aw{fill:#ffa600;}.ax{fill:url(#y);}.ay{fill:url(#l);}.b`{fill:#d48700;}.ba{fill:#e0051c;}.bb{fill:url(#af);}.bc{fill:url(#u);}.bd{fill:url(#ah);}.be{fill:url(#v);}.bf{clip-path:url(#ag);}.bg{fill:url(#a`);}.bh{fill:url(#m);}.bi{fill:#f6b49a;}.bj{fill:#ffff54;}.bk{fill:#1a171b;}.bl{fill:url(#ao);}.bm{fill:#fbde17;}.bn{fill:#e8c40c;}.bo{fill:url(#f);}.bp{fill:url(#ae);}.bq{fill:url(#p);}.br{fill:url(#g);}.bs{fill:#801518;}.bt{fill:url(#ad);}.bu{fill:url(#ab);}.bv{fill:url(#i);}.bw{fill:#c48700;}.bx{fill:#bf0c1d;}.by{fill:url(#aj);}.c`{fill:url(#h);}.ca{fill:#fcf533;}.cb{fill:#e89061;}.cc{fill:url(#d);}.cd{fill:url(#e);}.ce{fill:url(#am);}.cf{fill:#f5ad87;}.cg{fill:url(#x);}.ch{fill:url(#aa);}.ci{fill:url(#s);}.cj{fill:url(#n);}.ck{fill:url(#ac);}.cl{fill:url(#w);}.cm{fill:url(#al);}.cn{fill:url(#j);}.co{fill:url(#o);}.cp{fill:#a19a9d;}.cq{fill:url(#an);}.cr{fill:url(#q);}.cs{fill:#e74c51;}.ct{fill:url(#k);}.cu{fill:#ffffad;}</style><linearGradient id="d" x1="119.3" y1="6.42" x2="110.06" y2="31.99" gradientTransform="matrix(1, 0, 0, 1, 0, 0)" gradientUnits="userSpaceOnUse"><stop offset="0" stop-color="#fff710"/><stop offset="1" stop-color="#ffc400"/></linearGradient><linearGradient id="e" x1="50.94" y1="51.1" x2="29.08" y2="38.35" xlink:href="#d"/><linearGradient id="f" x1="22.51" y1="90.36" x2="46.44" y2="90.69" xlink:href="#d"/><linearGradient id="g" x1="138.07" y1="64.46" x2="158.14" y2="68.47" xlink:href="#d"/><linearGradient id="h" x1="38.54" y1="89.19" x2="33.2" y2="79.2" gradientTransform="matrix(1, 0, 0, 1, 0, 0)" gradientUnits="userSpaceOnUse"><stop offset="0" stop-color="#00a800"/><stop offset="1" stop-color="#87ff30"/></linearGradient><linearGradient id="i" x1="47.51" y1="35.71" x2="48.59" y2="21.95" xlink:href="#h"/><linearGradient id="j" x1="122.57" y1="27.5" x2="132.59" y2="37.86" xlink:href="#h"/><linearGradient id="k" x1="156.4" y1="95.55" x2="159.59" y2="107.22" xlink:href="#h"/><linearGradient id="l" x1="156.7" y1="78.96" x2="143.82" y2="114.4" gradientTransform="matrix(1, 0, 0, 1, 0, 0)" gradientUnits="userSpaceOnUse"><stop offset="0" stop-color="#00a800"/><stop offset="1" stop-color="#006900"/></linearGradient><linearGradient id="m" x1="138.26" y1="72.35" x2="126.38" y2="76.92" xlink:href="#l"/><linearGradient id="n" x1="113.47" y1="36.33" x2="127.43" y2="19.93" xlink:href="#l"/><linearGradient id="o" x1="774.74" y1="72.97" x2="782.62" y2="80.37" gradientTransform="translate(841.25) rotate(-180) scale(1 -1)" gradientUnits="userSpaceOnUse"><stop offset="0" stop-color="#da7453"/><stop offset="1" stop-color="#f5ad87"/></linearGradient><linearGradient id="p" x1="775.38" y1="75.24" x2="780.65" y2="80.19" gradientTransform="translate(841.25) rotate(-180) scale(1 -1)" gradientUnits="userSpaceOnUse"><stop offset="0" stop-color="#cd6543"/><stop offset="1" stop-color="#e48d6e"/></linearGradient><linearGradient id="q" x1="130.61" y1="72.97" x2="138.49" y2="80.38" gradientTransform="matrix(1, 0, 0, 1, 0, 0)" xlink:href="#o"/><linearGradient id="r" x1="131.25" y1="75.24" x2="136.51" y2="80.19" gradientTransform="matrix(1, 0, 0, 1, 0, 0)" xlink:href="#p"/><radialGradient id="s" cx="48.85" cy="1079.18" fx="48.85" fy="1079.18" r="12.17" gradientTransform="translate(151.43 -305.08) rotate(14.6) scale(.57 .38)" gradientUnits="userSpaceOnUse"><stop offset="0" stop-color="#ec725a"/><stop offset="1" stop-color="#f5ad87"/></radialGradient><radialGradient id="t" cx="1200.11" cy="630.68" fx="1200.11" fy="630.68" r="12.17" gradientTransform="translate(723.53 -305.08) rotate(165.4) scale(.57 -.38)" xlink:href="#s"/><linearGradient id="u" x1="98.44" y1="59.12" x2="98.44" y2="79.89" gradientTransform="matrix(1, 0, 0, 1, 0, 0)" gradientUnits="userSpaceOnUse"><stop offset="0" stop-color="#fadac6"/><stop offset="1" stop-color="#f5ad87"/></linearGradient><linearGradient id="v" x1="77.45" y1="69.95" x2="87.83" y2="86.21" gradientTransform="matrix(1, 0, 0, 1, 0, 0)" xlink:href="#o"/><linearGradient id="w" x1="716.11" y1="69.95" x2="726.49" y2="86.21" gradientTransform="translate(835.78) rotate(-180) scale(1 -1)" xlink:href="#o"/><linearGradient id="x" x1="96.55" y1="87.46" x2="97.6" y2="110.68" gradientTransform="matrix(1, 0, 0, 1, 0, 0)" xlink:href="#o"/><radialGradient id="y" cx="-106.92" cy="727.85" fx="-106.92" fy="727.85" r="10.85" gradientTransform="translate(156.71 -257.29) scale(.55)" gradientUnits="userSpaceOnUse"><stop offset="0" stop-color="#f0949a"/><stop offset="1" stop-color="#e0051c"/></radialGradient><linearGradient id="a`" x1="98.43" y1="91.8" x2="98.43" y2="108.99" gradientTransform="matrix(1, 0, 0, 1, 0, 0)" gradientUnits="userSpaceOnUse"><stop offset="0" stop-color="#f5ad87"/><stop offset="1" stop-color="#eb6f52"/></linearGradient><linearGradient id="aa" x1="98.43" y1="99.28" x2="98.43" y2="110.19" gradientTransform="matrix(1, 0, 0, 1, 0, 0)" gradientUnits="userSpaceOnUse"><stop offset="0" stop-color="#e89061"/><stop offset="1" stop-color="#e2522f"/></linearGradient><linearGradient id="ab" x1="98.4" y1="110.35" x2="98.4" y2="111.18" xlink:href="#a`"/><linearGradient id="ac" x1="98.43" y1="101.31" x2="98.43" y2="109.63" gradientTransform="matrix(1, 0, 0, 1, 0, 0)" gradientUnits="userSpaceOnUse"><stop offset="0" stop-color="#da8355"/><stop offset="1" stop-color="#d14624"/></linearGradient><linearGradient id="ad" x1="98.43" y1="91.79" x2="98.43" y2="109" gradientTransform="matrix(1, 0, 0, 1, 0, 0)" gradientUnits="userSpaceOnUse"><stop offset="0" stop-color="#f5ad87"/><stop offset="1" stop-color="#c65240"/></linearGradient><linearGradient id="ae" x1="78.41" y1="66.49" x2="80.21" y2="68.88" gradientTransform="matrix(1, 0, 0, 1, 0, 0)" gradientUnits="userSpaceOnUse"><stop offset="0" stop-color="#837a7c"/><stop offset="1" stop-color="#1a171a"/></linearGradient><linearGradient id="af" x1="76.94" y1="80.58" x2="78.21" y2="82.1" gradientTransform="matrix(1, 0, 0, 1, 0, 0)" gradientUnits="userSpaceOnUse"><stop offset="0" stop-color="#837a7c"/><stop offset="1" stop-color="#1a171b"/></linearGradient><clipPath id="ag"><path class="ar" d="M89.36,93.95c0-.32,.16-.64,.16-.95,.32-3.82-.16-14.01-6.05-13.85-5.73,.32-7,9.71-6.37,14.17,0,0,1.75,3.02,8.92,3.02,0,0,1.12-.4,1.95-.87,.84-.48,1.39-1.51,1.39-1.51Z"/></clipPath><linearGradient id="ah" x1="-249.09" y1="416.76" x2="-248.8" y2="416.76" gradientTransform="translate(-234.56 -2959.52) rotate(-153.84) scale(5.85 -6.23) skewX(-4.17)" xlink:href="#ae"/><linearGradient id="ai" x1="881.12" y1="66.49" x2="882.91" y2="68.88" gradientTransform="translate(999.68) rotate(-180) scale(1 -1)" xlink:href="#ae"/><linearGradient id="aj" x1="879.64" y1="80.58" x2="880.92" y2="82.1" gradientTransform="translate(999.68) rotate(-180) scale(1 -1)" xlink:href="#af"/><clipPath id="ak"><path class="ar" d="M107.62,93.95c0-.32-.16-.64-.16-.95-.32-3.82,.16-14.01,6.05-13.85,5.73,.32,7.01,9.71,6.37,14.17,0,0-1.75,3.02-8.92,3.02,0,0-1.12-.4-1.95-.87-.84-.48-1.39-1.51-1.39-1.51Z"/></clipPath><linearGradient id="al" x1="-376.41" y1="359.93" x2="-376.12" y2="359.93" gradientTransform="translate(1234.24 -2959.52) rotate(-26.16) scale(5.85 6.23) skewX(-4.17)" xlink:href="#ae"/><linearGradient id="am" x1="68.67" y1="70.36" x2="68.67" y2="113.35" xlink:href="#d"/><linearGradient id="an" x1="53.76" y1="94.81" x2="43.97" y2="93.37" xlink:href="#h"/><linearGradient id="ao" x1="138.85" y1="21.27" x2="114.44" y2="48.84" xlink:href="#ae"/><linearGradient id="ap" x1="145.1" y1="53.35" x2="104.64" y2="49.73" xlink:href="#ae"/></defs><g id="a"/><g id="b"><g id="c"><g><g><g><path class="ar" d="M9.86,89.33s7.53,14.57,22.59,17.44c15.06,2.87,20.38-.24,24.81-3.82,4.43-3.58,18.61-4.3,21.27,.96,2.66,5.25,52.06-1.91,52.06-1.91,0,0,3.77-2.63,8.42-.24,4.65,2.39,25.03,11.46,37.22-6.69,12.18-18.15,7.75-32.96,6.42-36.54l-2.22,1.67s2.66,20.54-13.73,19.82c-16.39-.72-14.84-21.73-17.5-29.61-2.66-7.88-16.61-15.52-22.37-15.28,0,0-.22-5.49-1.11-7.16,0,0,6.87,2.39,13.07-.48,6.2-2.87,10.41-6.93,14.18-6.93l-1.55-3.58s-7.31,4.06-12.85,1.67C133.02,16.25,120.18-.47,104.89,.01c-15.29,.48-27.91,16.24-29.46,20.54-1.55,4.3,2.44,14.57,4.21,16.96,0,0-13.07-15.28-24.37-12.18-11.3,3.1-25.7,24.36-40.76-7.4l-3.1,1.43s-.89,21.73,11.3,31.28c12.18,9.55,24.15,0,33.01,21.25,0,0-13.07-.48-17.94,7.64-4.87,8.12-12.63,21.02-26.8,7.16l-1.11,2.63Z"/><path class="cc" d="M84.53,52.09s8.31,7.88,10.3,7.88,15.95-7.16,15.95-8.24,2.33-11.46,1.66-13.25c-.66-1.79,1-8.96,2.33-9.31,.73-.2,6.39-.18,11.33-.12-.11-.44-.24-.82-.39-1.1,0,0,6.87,2.39,13.07-.48,6.2-2.87,10.41-6.93,14.18-6.93l-1.55-3.58s-7.31,4.06-12.85,1.67C133.02,16.25,120.18-.47,104.89,.01c-15.29,.48-27.91,16.24-29.46,20.54-1.55,4.3,2.44,14.57,4.21,16.96,0,0-1.66-1.94-4.31-4.3l.23,.98,8.97,17.91Z"/><path class="cd" d="M66.92,76.81l5.65-25.08s-7.31-15.04-9.3-15.4c-1.99-.36-10.3-5.01-12.96-4.66-.95,.13-1.77-.93-2.63-2.6-9.85,5.99-21.3,13.87-33.17-11.15l-3.1,1.43s-.89,21.73,11.3,31.28c12.18,9.55,24.15,0,33.01,21.25,0,0-2.61-.09-5.94,.53,2.91,1.4,6.44,2.9,8.18,3.32,2.99,.72,7.97,1.08,8.97,1.08Z"/><path class="bo" d="M85.2,93.29c1.33-6.45,1.33-11.11,.33-13.26-1-2.15-1.33-5.73-3.32-6.09l-21.6,8.24s-11.63,.72-14.29,2.87-7.64,8.24-13.29,5.73c-.87-.38-1.72-.85-2.57-1.36-4.66,4.24-10.9,5.67-19.49-2.72l-1.11,2.63s7.53,14.57,22.59,17.44c15.06,2.87,20.38-.24,24.81-3.82,4.43-3.58,18.61-4.3,21.27,.96,.45,.89,2.24,1.42,4.9,1.69,.07-.47,.1-.98,.1-1.56,0-4.66,.33-4.3,1.66-10.75Z"/><path class="br" d="M182.64,58.52l-2.22,1.67s2.66,20.54-13.73,19.82c-16.39-.72-14.84-21.73-17.5-29.61-2.66-7.88-16.61-15.52-22.37-15.28,0,0-.03-.76-.11-1.79-1.43,.2-2.61,.97-3.3,1.22l-7.64,10.39s5.98,13.25,9.3,17.19c3.32,3.94,8.97,12.54,10.96,17.55,1.99,5.01,6.98,10.03,9.3,12.18,2.33,2.15,9.3,4.66,12.29,5.37,2.61,.63,13.84-.66,19.08-2.91,11.58-17.81,7.25-32.27,5.94-35.8Z"/><path class="aw" d="M55.2,89.17c-1.62,1.75-1.03,12.74-1.03,12.74,0,0-9.01,4.94-20.82,3.34-11.81-1.59-20.38-11.3-20.38-11.3v.03c3.49,4.53,10,10.98,19.49,12.79,15.06,2.87,20.38-.24,24.81-3.82,.82-.66,1.97-1.22,3.31-1.67,.23-1.24,.38-2.07,.38-2.07,0,0-4.13-11.78-5.76-10.03ZM22.71,50.64c12.18,9.55,24.15,0,33.01,21.25,0,0-2.61-.09-5.94,.53,1.68,.81,3.57,1.65,5.2,2.3,1.12,.39,2.02,.65,2.29,.6,.12-.02,.32,.14,.57,.39,1.19,1.2,3.41,4.5,2.46,.47-.34-1.44-1.09-3.81-2.44-7.55-5.91-16.4-20.97-14.33-31.31-18.15-8.68-3.21-13.41-18.32-14.7-23.08,.89,7.19,3.47,17.45,10.86,23.24Zm76.06,1.91c-1.33-6.37-12.55-12.26-12.55-12.26,0,0-8.86-13.53-9.01-18.63-.12-4.23,8.5-12.84,11.44-15.65-7.23,5.08-12.27,11.92-13.21,14.53-1.55,4.3,2.44,14.57,4.21,16.96,0,0-1.66-1.94-4.31-4.3l.23,.98,8.4,16.77c3.53,2.3,8.03,5.14,8.45,5.26,.59,.16,7.68,2.71,6.35-3.66Z"/><path class="b`" d="M55.64,102.78c-11.89,10.19-33.38-.16-33.38-.16h0c2.89,1.87,6.29,3.4,10.2,4.14,15.06,2.87,20.38-.24,24.81-3.82,.82-.66,1.97-1.22,3.31-1.67,.23-1.24,.38-2.07,.38-2.07,0,0,0-.02-.02-.06-1.12,.4-2.81,1.51-5.3,3.64Zm.07-30.89s-2.5-.09-5.72,.49c1.53,.38,2.68,.71,2.92,.79,.52,.16,3.91-.4,3.91-.4,0,0-.89-4.62-5.83-10.67-4.95-6.05-13.22-6.69-18.76-7.72-5.14-.96-10.72-4.93-11.5-5.5,.62,.62,1.27,1.21,1.97,1.76,12.18,9.55,24.15,0,33.01,21.25Zm26.73-32.24c-2.51-3.18-5.91-12.1-6.72-15.6-.62-2.67,1.64-6.64,2.75-8.37-1.6,2.05-2.66,3.81-3.04,4.87-1.55,4.3,2.44,14.57,4.21,16.96,0,0-1.66-1.94-4.31-4.3l.23,.98,3.81,7.62c.83,.52,1.38,.86,1.44,.88,.3,.08,4.14,.16,1.62-3.03Z"/></g><path class="c`" d="M32.23,100.79c9.08-.96,15.06-13.85,24.14-12.66,9.08,1.19,.66-15.76,.66-15.76,0,0-.48-.69-1.57-1.04,.08,.19,.16,.37,.24,.56,0,0-13.07-.48-17.94,7.64-4.87,8.12-12.63,21.02-26.8,7.16l-.53,1.25,.31,.66s12.4,13.14,21.49,12.18Z"/><path class="bv" d="M26.25,41.09c9.97,6.21,18.83-.72,27.47-1.43,8.64-.72,13.51,12.9,13.51,12.9l7.31,.24s5.98-6.69,7.75-8.36c.73-.68-.74-3.69-2.72-7-.96-1.1-13.45-15.09-24.3-12.11-11.3,3.1-25.7,24.36-40.76-7.4l-1.27,.59c.48,5.42,3.55,16.68,13.01,22.58Z"/><path class="cn" d="M122.61,16.01c-4.43-3.11-8.86-8.12-19.27-2.15-10.41,5.97-6.87,16-2.44,19.58,4.43,3.58,3.77,12.42,3.77,12.42,0,0,3.1,7.16,3.99,7.4,.89,.24,3.77-.24,4.43-.48,.66-.24,4.43-5.25,6.65-9.31,2.18-4,7.59-8.23,7.75-8.35-.23-.01-.45-.01-.66,0,0,0-.22-5.49-1.11-7.16,0,0,6.87,2.39,13.07-.48,6.2-2.87,10.41-6.93,14.18-6.93l-1.46-3.37c-.25,.16-.5,.32-.76,.5-12.4,8.6-23.7,1.43-28.13-1.67Z"/><path class="ct" d="M139,101.75c4.65,2.39,25.03,11.46,37.22-6.69,12.18-18.15,7.75-32.96,6.42-36.54l-.97,.73c.86,4.17,1.14,6.96-1.02,16.7-2.44,10.99-15.51,14.81-22.82,13.85-7.31-.95-16.17-5.73-17.72-20.06-1.55-14.33-14.84-16.72-14.84-16.72l-6.65,28.66s.22,9.31,.89,11.46c.39,1.25,1.37,5.89,2.52,9.97,5.11-.64,8.56-1.14,8.56-1.14,0,0,3.77-2.63,8.42-.24Z"/><g><path class="ay" d="M152.52,103.18c-10.99-.99-15.46-6.71-16.69-8.66,5.46-6.52,6.5-15.46,6.5-15.46l-7.75,7.64-3.29,4.43-.04,.83s-.28,.09-.7,.17l-1.29,1.74s-.71,1.05-1.38,2.29l-5.04,1.53s1.33,2.87,2.22,3.34c.26,.14,1.02,.68,2.06,1.44,2.18-.29,3.48-.48,3.48-.48,0,0,3.77-2.63,8.42-.24,4.65,2.39,25.03,11.46,37.22-6.69,3.41-5.08,5.52-9.91,6.76-14.29-6.44,16.75-17.24,23.6-30.46,22.41Z"/><path class="bh" d="M124.16,89.57s1.77,1.67,3.32,2.39c1,.46,2.28,.33,3.06,.17l.74-1,.63-14.22s-.44-9.08-2.44-12.9c0,0,4.97-2.1,5.94-5.14l-.08-.08-7.2,1.88s-2.63,.18-4.79,.61l-3.58,15.44c.05,.32,.11,.62,.18,.91,1.11,4.78,4.21,11.94,4.21,11.94Z"/><path class="cj" d="M124.31,25.96c-6.2-2.23-7.68-6.37-12.11-7.32-4.43-.95-9.6,5.89-9.6,5.89,8.12-9.23,12.85-3.5,15.8-.8,2.5,2.29,6.27,3.9,7.37,4.34-.02-.04-.04-.08-.06-.12,0,0,6.87,2.39,13.07-.48,2.23-1.03,4.19-2.21,5.98-3.3-.02,.01-.05,.03-.07,.04-7.24,4.14-14.18,3.98-20.38,1.75Z"/></g></g><g><path class="cf" d="M72.29,88.37s0-5.25-1.91-10.03c0,0-2.63-4.06-6.33-7.76s-6.93-9.67-7.76-14.21h-1.19s-2.51,13.85,6.33,30.57c0,0,4.06,6.33,7.88,8.84,3.82,2.51,2.99-7.4,2.99-7.4Z"/><path class="co" d="M69.31,95.78c-3.82-2.51-7.88-8.84-7.88-8.84-8.84-16.72-6.33-30.57-6.33-30.57h.12c.12,5.61,8.6,16.12,12.42,22.33,3.82,6.21,3.94,11.94,3.94,11.94l.53,3.18c-.35,1.78-1.13,3.05-2.8,1.96Z"/><path class="bq" d="M56.29,61.98c1.67,4.42,6.81,11.7,10.75,17.43,3.94,5.73,3.7,13.5,3.7,13.5,0-1.97-1.2-8.22-4.32-12.93-.85-.83-2.56-2.31-3.44-1.88-1.19,.6,1.55,8.48,4.06,11.94,0,0-5.67-4.63-6.53-14.35-.01-.15-.03-.31-.04-.46,0,0,1.43,1.43,1.79,1.19,.36-.24-.24-2.39-.24-2.39l-.14-.45c-2.45-3.82-4.4-7.43-4.4-7.43-.36,2.63,.36,7.52,.36,7.52-1.79-5.37-1.55-11.7-1.55-11.7Z"/></g><g><path class="cf" d="M124.82,88.37s0-5.25,1.91-10.03c0,0,2.63-4.06,6.33-7.76,3.7-3.7,6.93-9.67,7.76-14.21h1.19s2.51,13.85-6.33,30.57c0,0-4.06,6.33-7.88,8.84-3.82,2.51-2.99-7.4-2.99-7.4Z"/><path class="cr" d="M127.81,95.78c3.82-2.51,7.88-8.84,7.88-8.84,8.84-16.72,6.33-30.57,6.33-30.57h-.12c-.12,5.61-8.6,16.12-12.42,22.33-3.82,6.21-3.94,11.94-3.94,11.94l-.53,3.18c.35,1.78,1.13,3.05,2.8,1.96Z"/><path class="at" d="M140.82,61.98c-1.67,4.42-6.81,11.7-10.75,17.43-3.94,5.73-3.7,13.5-3.7,13.5,0-1.97,1.2-8.22,4.32-12.93,.85-.83,2.56-2.32,3.44-1.88,1.19,.6-1.55,8.48-4.06,11.94,0,0,5.67-4.63,6.53-14.35,.01-.15,.03-.31,.04-.46,0,0-1.43,1.43-1.79,1.19-.36-.24,.24-2.39,.24-2.39l.14-.45c2.45-3.82,4.4-7.43,4.4-7.43,.36,2.63-.36,7.52-.36,7.52,1.79-5.37,1.55-11.7,1.55-11.7Z"/></g><g><path class="cf" d="M98.43,146.41h-2.15s-3.66,.16-6.85-4.62c-3.18-4.78-12.02-24.36-12.02-24.36,0,0-3.82-4.54-6.13-9.95-2.31-5.41-2.79-10.43-1.99-12.58,.8-2.15,3.26-5.26,3.18-12.5-.08-7.24-.24-10.19-.24-10.19l7.32-13.45s7.4-4.3,10.99-5.13c3.58-.84,24.12,4.9,29.02,8.36,4.9,3.46,5.07,10.23,5.07,10.23,0,0-.16,2.95-.24,10.19-.08,7.24,2.39,10.35,3.18,12.5,.8,2.15,.32,7.17-1.99,12.58-2.31,5.41-6.13,9.95-6.13,9.95,0,0-8.84,19.58-12.02,24.36-3.18,4.78-6.85,4.62-6.85,4.62h-2.17Z"/><g><path class="cb" d="M95.98,141.45h5.19s-2.63,1.91-5.19,0Z"/><g><path class="ci" d="M73.71,103.99c3.65,.95,7.12-.26,7.75-2.69,.63-2.44-1.81-5.18-5.45-6.14-2.91-.76-5.7-.14-7.04,1.37-.11,1.31,.02,3.02,.42,4.96,.99,1.11,2.51,2.03,4.32,2.5Z"/><path class="aq" d="M127.88,96.24c-1.42-1.3-4.04-1.79-6.76-1.08-3.65,.95-6.09,3.7-5.45,6.14,.64,2.44,4.11,3.64,7.75,2.69,1.63-.42,3.01-1.21,4-2.16,.49-2.23,.62-4.17,.46-5.59Z"/></g><path class="bc" d="M124.4,82.4c.08-7.24,.24-10.19,.24-10.19,0,0-.18-6.77-5.07-10.23-4.9-3.46-25.44-9.19-29.02-8.36-3.58,.84-10.99,5.13-10.99,5.13l-7.32,13.45s.16,2.95,.24,10.19c0,.24,0,.48,0,.72h51.92c0-.24,0-.47,0-.72Z"/><path class="be" d="M73.71,90.05s-2.51-8.96,2.99-16.12c5.49-7.17,11.7-12.78,11.7-12.78,0,0,5.37,15.52,1.07,32.84l-5.01,1.43-8.36-2.99-2.39-2.39Z"/><path class="cl" d="M123.41,90.05s2.51-8.96-2.99-16.12c-5.49-7.17-11.7-12.78-11.7-12.78,0,0-5.37,15.52-1.07,32.84l5.01,1.43,8.36-2.99,2.39-2.39Z"/><path class="cg" d="M119.57,61.98c-4.9-3.46-25.44-9.19-29.02-8.36-3.58,.84-10.99,5.13-10.99,5.13l-7.32,13.45s.16,2.95,.24,10.19c.08,7.24-2.39,10.35-3.18,12.5-.8,2.15-.32,7.17,1.99,12.58,.2,.47,.42,.94,.64,1.4-.33-2.26-1.47-11.42,1.03-15.73,0,0,1.11-4.14,1.75-8.44,.62-4.21,3.08-20.75,17.05-28.47,3.18,2.05,5.45,7.51,4.29,9.69-1.27,2.39-4.78,.16-4.78,.16,0,0,2.07,3.5,6.85,2.39,4.78-1.12,3.82-8.6,3.82-8.6,0,0,8.44,5.37,19.29,4.96,.54,.55,1.61,1.69,2.5,2.93-.7-1.98-1.95-4.22-4.16-5.78Z"/></g><g><path class="cb" d="M75.8,107.66s2.69-1.67,4.3-1.61c0,0-1.07-1.02-2.15-.78-1.07,.24-2.21,2.03-2.15,2.39Z"/><path class="cb" d="M121,107.66s-2.69-1.67-4.3-1.61c0,0,1.07-1.02,2.15-.78,1.07,.24,2.21,2.03,2.15,2.39Z"/><g><path class="bs" d="M87.68,118.22s3.74,9.08,4.06,12.26c.32,3.18,.56,7.48,.56,7.48l2.79,.79s2.87,.08,3.42,.08,4.06-.24,4.06-.24l1.59-.88s.64-1.59,.64-1.83,.08-2.07,.08-2.39,.48-4.54,.56-4.78c.08-.24,2.07-5.41,2.07-5.41l1.35-3.74,.56-1.83s0-.48-.24-.48-2.47,.32-2.79,.48c-.32,.16-3.34,1.59-3.58,1.67-.24,.08-3.42,1.12-3.82,1.12s-2.71-.4-3.27-.64c-.56-.24-2.55-1.67-3.11-1.83-.56-.16-4.7-.8-4.7-.8l-.24,.96Z"/><path class="ar" d="M91.39,125.45s1.02-.78,1.97,.3c.96,1.07,5.14,1.25,5.14,1.25l4.24-.78,1.02-.6s.95-.84,1.97,0c1.02,.83-.66,3.64-.66,3.64l-.24,6.39s-.72,2.27-1.07,2.39c-.36,.12-3.11,.18-3.82,.24-.72,.06-4.6-.24-5.08-.12-.48,.12-1.55-.36-1.91-.54-.36-.18-1.02-.89-1.19-1.19l-.36-10.99Z"/><path d="M92.25,119.93c-.07,.45-.1,.92-.1,1.4,0,4.31,2.85,7.8,6.37,7.8s6.37-3.49,6.37-7.8c0-.46-.03-.9-.09-1.34-1.36,.62-3.52,1.34-6.27,1.34s-4.99-.77-6.27-1.4Z"/><path class="cs" d="M103.98,125.83c-.69-1.52-2.63-.2-3.62,.08-1.19,.34-2.28,.19-3.46-.04-.52-.1-.93-.32-1.42-.49-.79-.28-1.97-.51-2.4,.44-.47,1.03,.06,2.32,.17,3.36,.19,1.7,.35,3.36,.52,4.97,.3,2.83,2.03,2.78,2.03,2.78,1.07,.24,2.42,.27,2.7,.27h.06c.28,0,1.63-.03,2.7-.27,0,0,1.73,.05,2.03-2.78,.17-1.61,.34-3.27,.52-4.97,.12-1.04,.64-2.33,.17-3.36Z"/><g><path class="ba" d="M112.61,114.8s-2.39,1.67-3.42,2.07c-1.03,.4-1.11,1.35-1.11,1.35-.03,.41-.47,1-.63,1.38-.54,1.26-1.03,2.55-1.46,3.85-.62,1.86-1.14,3.75-1.54,5.67-.23,1.13-.43,2.26-.57,3.4-.16,1.29,.28,2.89-.41,4.07-.75,1.3-2.32,1.13-5.02,1.13h0c-2.71,0-4.27,.17-5.02-1.13-.69-1.19-.25-2.78-.41-4.07-.14-1.14-.34-2.28-.57-3.4-.4-1.92-.92-3.81-1.54-5.67-.43-1.3-.92-2.59-1.46-3.85-.16-.38-.59-.97-.63-1.38,0,0-.08-.96-1.11-1.35-1.03-.4-3.42-2.07-3.42-2.07,1.27,1.43,5.02,8.44,6.21,13.37,1.19,4.94-.4,9.15,.4,10.83s7.48,1.75,7.48,1.75h.17s6.69-.08,7.48-1.75-.8-5.89,.4-10.83c1.19-4.94,4.94-11.94,6.21-13.37Z"/><path class="ax" d="M105.09,139.17c0,.65-2.99,1.18-6.67,1.18s-6.67-.53-6.67-1.18,2.99-.67,6.67-.67,6.67,.02,6.67,.67Z"/></g><path class="ar" d="M101.18,119.9l-2.73,.12-2.73-.12-7.8-2.39s4.14,5.09,10.51,5.09l.02-.02,.02,.02c6.37,0,10.51-5.09,10.51-5.09l-7.8,2.39Z"/><g><path class="bx" d="M110.76,115.96s-2.11,.84-4.18,1.08c-2.07,.24-4.46,.04-5.09,.32-.64,.28-1.87,2.03-2.87,2.19l-.13,.03-.13-.03c-1-.16-2.23-1.91-2.87-2.19-.64-.28-3.03-.08-5.1-.32-2.07-.24-4.18-1.08-4.18-1.08-4.54-2.94-7.64-9.59-7.64-9.59,2.39,6.93,10.03,12.82,15.6,13.77,1.41,.24,2.79,.39,4.25,.4h0s.04,0,.06,0,.04,0,.06,0h0c1.46-.01,2.84-.16,4.25-.4,5.57-.96,13.21-6.85,15.6-13.77,0,0-3.1,6.65-7.64,9.59Z"/><path class="bs" d="M118.4,106.36c-1.54,4.07-4.57,7.53-8.02,10.11-1.59,1.19-3.32,2.2-5.18,2.92-2.13,.82-4.45,1.01-6.71,1.1-2.22-.08-4.48-.28-6.58-1.05-1.86-.68-3.58-1.71-5.18-2.87-3.52-2.56-6.6-6.11-8.16-10.21,0-.01-.02,0-.02,0,1.34,4.16,4.33,7.61,7.79,10.2,3.56,2.66,7.67,4.12,12.14,4.01,2.23,.06,4.52-.24,6.62-.99,1.93-.68,3.74-1.72,5.39-2.92,3.53-2.56,6.57-6.1,7.93-10.3,0-.01-.01-.02-.02,0Z"/></g></g></g><g><path class="bg" d="M98.43,115.6c-3.34,0-6.45-4.06-7.01-7.08-.32-1.59,.24-2.87,1.27-4.14,1.27-1.51,1.64-2.97,2.39-4.94,1.27-3.34-.16-14.01-1.27-17.28h9.23c-1.11,3.26-2.55,13.93-1.27,17.28,.75,1.97,1.11,3.42,2.39,4.94,1.03,1.27,1.59,2.55,1.27,4.14-.56,3.03-3.66,7.08-7.01,7.08h0Z"/><path class="ch" d="M91.43,108.51c.56,3.02,3.66,7.08,7,7.08,3.34,0,6.44-4.06,7-7.08,.32-1.59-.24-2.87-1.27-4.14-.03-.03-.05-.07-.08-.1,.28,.73,.8,2.34,.32,3.37-.64,1.35-2.07,2.55-5.97,2.55-3.9,0-5.33-1.19-5.97-2.55-.48-1.02,.04-2.64,.32-3.37-.03,.03-.05,.07-.08,.1-1.04,1.27-1.59,2.55-1.27,4.14Z"/><path class="bi" d="M101,104.2c0,.73-1.16,1.32-2.59,1.32s-2.6-.59-2.6-1.32,1.16-1.32,2.6-1.32,2.59,.59,2.59,1.32Z"/><path class="bu" d="M100.4,114.64c0,.36-.9,.66-2,.66s-2-.29-2-.66,.9-.24,2-.24,2-.12,2,.24Z"/><path class="ck" d="M104.15,104.37s-.05-.07-.08-.1c.28,.73,.8,2.34,.32,3.37-.64,1.35-2.07,2.55-5.97,2.55-3.9,0-5.33-1.19-5.97-2.55-.48-1.02,.04-2.64,.32-3.37-.03,.03-.05,.07-.08,.1-1.04,1.27-1.59,2.55-1.27,4.14,.17,.95,.6,1.99,1.2,2.98,.02-.23,.14-1.39,.71-1.39,.62,0,2.09,.99,4.98,1.03h0s.07,0,.1,0,.07,0,.1,0h0c2.89-.05,4.35-1.04,4.97-1.04s.72,1.43,.72,1.43c.61-1,1.05-2.07,1.22-3.02,.32-1.59-.24-2.87-1.27-4.14Z"/><path class="bt" d="M104.25,104.28c-1.05-1.28-1.62-2.76-2.19-4.29-.35-.94-.59-1.8-.68-2.81-.21-2.38-.01-4.82,.25-7.18,.29-2.6,.61-5.33,1.42-7.83,0-.01-.02-.02-.02,0-.65,1.88-.97,3.9-1.24,5.86-.33,2.44-.56,4.9-.56,7.36,0,.98,.05,1.96,.2,2.92,.18,1.14,.63,2.24,1.04,3.31,.23,.61,.5,1.2,.83,1.76,.42,.72,.99,1.32,1.41,2.03,.85,1.44,.73,2.96,.15,4.47-.99,2.58-3.48,5.54-6.43,5.71-2.86-.16-5.16-2.9-6.27-5.31-.67-1.46-.92-3.05-.19-4.54,.34-.7,.85-1.27,1.3-1.9,.41-.58,.72-1.23,.99-1.89,.45-1.1,.93-2.27,1.14-3.44,.17-.94,.22-1.9,.23-2.85,.04-2.5-.21-5-.54-7.47-.27-2.01-.59-4.1-1.26-6.02,0-.01-.03,0-.02,0,.62,1.9,.89,3.91,1.18,5.88,.37,2.51,.6,5.07,.57,7.61-.01,1.01-.06,2.03-.29,3.02-.29,1.24-.86,2.52-1.4,3.67-.64,1.37-1.81,2.38-2.39,3.77-.52,1.26-.26,2.62,.21,3.85,1.05,2.73,3.57,5.7,6.74,5.64h0c2.61,.04,4.64-1.94,5.93-4.02,.64-1.02,1.18-2.25,1.29-3.46,.14-1.48-.48-2.72-1.4-3.84Z"/></g><g><g><path d="M73.47,80.85s3.1-5.97,6.81-7.64c3.7-1.67,7.04-2.51,7.64-3.1,0,0,1.31-4.42,.6-8.96,0,0-13.49,2.75-15.05,19.7Z"/><path class="bp" d="M74.24,78.62c1.21-7.15,4.72-11.3,7.59-13.57,2.66-2.1,5.23-3,6.28-3.3,.46,3.75-.42,7.35-.62,8.09-.35,.24-1.4,.61-2.51,1.01-1.38,.49-3.09,1.11-4.91,1.93-2.43,1.1-4.58,3.9-5.84,5.84h0Z"/></g><g><path d="M88.6,83c-2.39-6.69-7.88-6.13-10.79-2.07-2.57,3.6-2.9,8.47-2.94,9.54-1.25-.52-2.2-1.02-2.2-1.02,4.26,6.13,8.6,6.37,8.6,6.37,0,0-.15-1.38-.81-2.57l3.95,.78,5.09-1.47c.6-5.25-.92-9.55-.92-9.55Z"/><path class="bb" d="M84.4,93.53l-7.39-1.46-1.66-1.59c.04-1.03,.37-5.81,2.85-9.28,1.26-1.76,3.04-2.82,4.76-2.82,2.25,0,4.09,1.69,5.19,4.77,.01,.04,1.41,4.09,.92,9.02l-4.67,1.35h0Z"/><g><path class="ar" d="M89.36,93.95c0-.32,.16-.64,.16-.95,.32-3.82-.16-14.01-6.05-13.85-5.73,.32-7,9.71-6.37,14.17,0,0,1.75,3.02,8.92,3.02,0,0,1.12-.4,1.95-.87,.84-.48,1.39-1.51,1.39-1.51Z"/><g class="bf"><g><path class="bk" d="M84.88,96.11c-2.52-.04-4.68-2.92-4.9-6.55-.23-3.81,1.73-7.08,4.37-7.28,.11,0,.21-.01,.32,0,2.53,.04,4.68,2.92,4.9,6.55,.11,1.81-.26,3.55-1.05,4.91-.83,1.43-2.01,2.27-3.32,2.37-.11,0-.21,.01-.32,.01h0Z"/><path class="bd" d="M84.4,82.96c-2.3,.18-4,3.1-3.79,6.54,.21,3.44,2.24,6.08,4.54,5.91,2.3-.18,4-3.11,3.79-6.54-.21-3.44-2.24-6.08-4.54-5.9Z"/><path class="cp" d="M85.51,84.4c.18,1.52-.5,2.88-1.51,3.03-1.01,.15-1.98-.96-2.16-2.48s.5-2.87,1.51-3.02c1.01-.15,1.98,.96,2.16,2.48Z"/><path class="ar" d="M83.81,86.82c-.66,0-1.28-.87-1.4-1.96-.14-1.16,.33-2.22,1.03-2.32h.12c.66,0,1.27,.86,1.4,1.95,.13,1.16-.33,2.22-1.02,2.33h-.12Z"/><path class="ar" d="M85.61,93.36c.07,.59-.2,1.12-.59,1.18-.39,.06-.77-.38-.83-.97-.07-.59,.2-1.12,.59-1.18,.39-.06,.77,.38,.83,.97Z"/></g></g></g><path d="M77.11,93.31c-.27-2.05-.12-4.16,.26-6.19,.41-2.15,1.15-4.38,2.6-6.05,1.34-1.54,3.52-2.27,5.43-1.38,1.81,.84,2.73,2.86,3.26,4.67,.49,1.65,.7,3.37,.8,5.08,.04,.74,.06,1.48,.05,2.22,0,.78-.13,1.52-.18,2.3,0,.04,.06,.04,.07,0,.05-.52,.19-1.02,.23-1.54,.03-.42,.04-.85,.05-1.27,.01-.98-.04-1.95-.13-2.92-.19-2-.57-4.04-1.43-5.87-.74-1.58-1.92-2.96-3.7-3.29-1.86-.35-3.64,.6-4.81,2-1.39,1.68-2.03,3.92-2.39,6.04-.34,2.04-.43,4.18-.13,6.23,0,.01,.02,0,.02,0h0Z"/></g></g><g><g><path d="M123.51,80.85s-3.1-5.97-6.81-7.64c-3.7-1.67-7.04-2.51-7.64-3.1,0,0-1.31-4.42-.6-8.96,0,0,13.49,2.75,15.04,19.7Z"/><path class="au" d="M122.74,78.62c-1.21-7.15-4.72-11.3-7.59-13.57-2.66-2.1-5.23-3-6.28-3.3-.46,3.75,.42,7.35,.62,8.09,.35,.24,1.4,.61,2.51,1.01,1.38,.49,3.09,1.11,4.91,1.93,2.43,1.1,4.58,3.9,5.84,5.84h0Z"/></g><g><path d="M108.38,83c2.39-6.69,7.88-6.13,10.79-2.07,2.57,3.6,2.9,8.47,2.94,9.54,1.25-.52,2.19-1.02,2.19-1.02-4.26,6.13-8.6,6.37-8.6,6.37,0,0,.15-1.38,.81-2.57l-3.95,.78-5.1-1.47c-.6-5.25,.92-9.55,.92-9.55Z"/><path class="by" d="M112.58,93.53l7.39-1.46,1.66-1.59c-.04-1.03-.37-5.81-2.85-9.28-1.26-1.76-3.04-2.82-4.76-2.82-2.25,0-4.09,1.69-5.19,4.77-.01,.04-1.41,4.09-.92,9.02l4.67,1.35h0Z"/><g><path class="ar" d="M107.62,93.95c0-.32-.16-.64-.16-.95-.32-3.82,.16-14.01,6.05-13.85,5.73,.32,7.01,9.71,6.37,14.17,0,0-1.75,3.02-8.92,3.02,0,0-1.12-.4-1.95-.87-.84-.48-1.39-1.51-1.39-1.51Z"/><g class="av"><g><path class="bk" d="M112.1,96.11c2.53-.04,4.68-2.92,4.9-6.55,.23-3.81-1.73-7.08-4.37-7.28-.11,0-.21-.01-.32,0-2.53,.04-4.68,2.92-4.9,6.55-.11,1.81,.26,3.55,1.05,4.91,.83,1.43,2.01,2.27,3.32,2.37,.11,0,.21,.01,.32,.01h0Z"/><path class="cm" d="M112.58,82.96c2.3,.18,4,3.1,3.79,6.54-.21,3.44-2.24,6.08-4.54,5.91-2.3-.18-4-3.11-3.79-6.54,.21-3.44,2.24-6.08,4.54-5.9Z"/><path class="cp" d="M111.47,84.4c-.18,1.52,.5,2.88,1.51,3.03,1.01,.15,1.98-.96,2.16-2.48,.18-1.52-.5-2.87-1.51-3.02-1.01-.15-1.98,.96-2.16,2.48Z"/><path class="ar" d="M113.17,86.82c.66,0,1.28-.87,1.4-1.96,.14-1.16-.33-2.22-1.02-2.32h-.12c-.66,0-1.28,.86-1.4,1.95-.14,1.16,.33,2.22,1.02,2.33h.12Z"/><path class="ar" d="M111.37,93.36c-.07,.59,.2,1.12,.59,1.18,.39,.06,.76-.38,.83-.97,.07-.59-.2-1.12-.59-1.18-.39-.06-.77,.38-.83,.97Z"/></g></g></g><path d="M119.87,93.31c.27-2.05,.12-4.16-.26-6.19-.41-2.15-1.15-4.38-2.6-6.05-1.34-1.54-3.52-2.27-5.43-1.38-1.81,.84-2.73,2.86-3.26,4.67-.49,1.65-.7,3.37-.8,5.08-.04,.74-.06,1.48-.05,2.22,0,.78,.13,1.52,.18,2.3,0,.04-.06,.04-.07,0-.05-.52-.19-1.02-.23-1.54-.03-.42-.04-.85-.05-1.27-.01-.98,.04-1.95,.13-2.92,.19-2,.57-4.04,1.43-5.87,.73-1.58,1.92-2.96,3.7-3.29,1.86-.35,3.64,.6,4.81,2,1.39,1.68,2.03,3.92,2.39,6.04,.34,2.04,.43,4.18,.13,6.23,0,.01-.02,0-.02,0h0Z"/></g></g></g><g><path class="ce" d="M81.71,156.2s-18.15-18.15-15.04-53.73c3.1-35.59,24.36-48.48,24.36-48.48l1.91-1.43s-10.03-9.55-20.54-14.09c0,0-29.37,15.52-27.94,53.5,1.43,37.97,19.58,55.41,36.54,65.91l.72-1.67Z"/><path class="aw" d="M65,101.51c-1.67,37.25,16.24,54.21,16.24,54.21l.02-.02c-2.81-3.13-17.39-21.05-14.58-53.24,3.1-35.59,24.36-48.48,24.36-48.48l1.91-1.43s-.77-.73-2.1-1.89c-5.99,4.21-24.44,19.67-25.84,50.84Z"/><path class="b`" d="M66.67,102.46c3.1-35.59,24.36-48.48,24.36-48.48l1.91-1.43s-.2-.19-.58-.54c-.05,.02-.09,.04-.14,.06-6.21,3.03-17.99,15.6-23.56,33.59-5.57,17.99-1.59,37.42-1.59,37.42l.15-.13c-.9-6.02-1.21-12.85-.55-20.48Z"/><path class="cq" d="M44.46,91.96c1.43,37.97,19.58,55.41,36.54,65.91l.41-.96-.65-.48s-21.25-13.14-24.84-51.82c-3.51-37.93,25.8-59.33,26.95-60.16-3.16-2.2-6.78-4.41-10.47-6,0,0-29.37,15.52-27.94,53.5Z"/></g><g><path class="bw" d="M154.43,7.93c4.85-.32,9.04,3.35,9.35,8.19,.32,4.85-3.35,9.04-8.2,9.36-4.85,.32-9.04-3.35-9.36-8.2-.32-4.85,3.35-9.04,8.2-9.36Z"/><path class="bn" d="M154.7,8.27c4.51-.3,8.42,3.12,8.72,7.64,.3,4.52-3.12,8.42-7.64,8.72-4.51,.3-8.42-3.12-8.72-7.64-.3-4.52,3.12-8.42,7.64-8.72Z"/><path class="bm" d="M154.31,9.43c4.05-.27,7.55,2.8,7.81,6.84,.27,4.05-2.8,7.55-6.84,7.82-4.05,.27-7.55-2.8-7.81-6.85-.27-4.05,2.8-7.55,6.85-7.82Z"/><path class="ca" d="M153.34,11.99c3.12-.21,5.81,2.15,6.02,5.27,.21,3.12-2.16,5.81-5.27,6.02-3.12,.21-5.81-2.15-6.02-5.27-.21-3.12,2.15-5.81,5.27-6.02Z"/><path class="bj" d="M151.66,16.52c1.57-.1,2.93,1.09,3.03,2.65,.1,1.57-1.09,2.93-2.66,3.03-1.57,.11-2.93-1.08-3.03-2.65-.1-1.57,1.09-2.93,2.66-3.03Z"/><path class="cu" d="M149.32,13.2c.54-.04,1.02,.38,1.05,.92,.04,.54-.38,1.01-.92,1.05-.54,.04-1.02-.38-1.05-.92-.04-.54,.38-1.01,.92-1.05Z"/><path d="M156.9,11.47c1.66-.11,3.09,1.14,3.2,2.8,.11,1.66-1.14,3.09-2.8,3.2-1.66,.11-3.09-1.14-3.2-2.8-.11-1.66,1.15-3.09,2.8-3.2Z"/><path d="M162.08,11.6s-2.33,.08-3.51,1.58l-.77-.94s.54-1.45,2.61-2.23c0,0,.72,.17,1.66,1.59Z"/></g><g><path class="bw" d="M6.35,10.61c.86-4.78,5.43-7.96,10.21-7.1,4.78,.86,7.96,5.43,7.1,10.21-.86,4.78-5.43,7.96-10.21,7.1-4.78-.86-7.96-5.43-7.1-10.21Z"/><path class="bn" d="M6.74,10.43c.8-4.45,5.06-7.41,9.52-6.61,4.45,.8,7.42,5.06,6.62,9.52-.8,4.45-5.06,7.41-9.52,6.61-4.45-.8-7.41-5.06-6.62-9.52Z"/><path class="bm" d="M7.77,11.1c.72-3.99,4.54-6.65,8.53-5.93,3.99,.72,6.65,4.54,5.93,8.53-.72,4-4.54,6.65-8.53,5.93-3.99-.72-6.65-4.54-5.93-8.53Z"/><path class="ca" d="M10.02,12.65c.55-3.08,3.49-5.12,6.57-4.57,3.07,.55,5.12,3.5,4.57,6.57-.55,3.08-3.49,5.12-6.57,4.57-3.08-.55-5.12-3.49-4.57-6.57Z"/><path class="bj" d="M14.01,15.38c.28-1.55,1.76-2.58,3.31-2.3,1.55,.28,2.58,1.76,2.3,3.31-.28,1.55-1.76,2.58-3.31,2.3-1.55-.28-2.58-1.76-2.3-3.31Z"/><path class="cu" d="M10.23,16.85c.1-.54,.61-.89,1.15-.8,.54,.09,.89,.61,.8,1.15-.1,.54-.61,.89-1.15,.8-.54-.1-.89-.61-.8-1.15Z"/><path d="M10.38,9.07c.29-1.64,1.86-2.73,3.49-2.43,1.63,.29,2.72,1.86,2.43,3.49-.29,1.64-1.86,2.73-3.49,2.43-1.64-.29-2.72-1.86-2.43-3.49Z"/><path d="M11.76,4.08s-.48,2.28,.68,3.78l-1.1,.52s-1.28-.88-1.53-3.08c0,0,.33-.66,1.94-1.23Z"/></g><g><path class="bw" d="M6.41,92.52c-4.68-1.32-7.4-6.18-6.07-10.85,1.32-4.68,6.18-7.4,10.85-6.08,4.67,1.32,7.39,6.18,6.07,10.85-1.32,4.68-6.18,7.4-10.86,6.08Z"/><path class="bn" d="M6.26,92.11c-4.35-1.23-6.89-5.76-5.66-10.11,1.23-4.36,5.76-6.89,10.11-5.66,4.36,1.23,6.89,5.76,5.66,10.11-1.23,4.36-5.76,6.89-10.12,5.66Z"/><path class="bm" d="M7.03,91.15c-3.9-1.1-6.18-5.16-5.07-9.07,1.1-3.91,5.16-6.18,9.07-5.08,3.91,1.1,6.18,5.16,5.07,9.07-1.1,3.91-5.16,6.18-9.07,5.08Z"/><path class="ca" d="M8.79,89.06c-3.01-.85-4.76-3.97-3.91-6.98,.85-3.01,3.98-4.76,6.98-3.91,3.01,.85,4.76,3.97,3.91,6.98-.85,3.01-3.97,4.76-6.98,3.91Z"/><path class="bj" d="M11.89,85.36c-1.51-.43-2.39-2-1.97-3.52,.43-1.51,2-2.39,3.52-1.97,1.51,.43,2.39,2,1.97,3.52-.43,1.51-2,2.39-3.52,1.97Z"/><path class="cu" d="M12.99,89.26c-.52-.15-.83-.69-.68-1.22,.15-.52,.69-.83,1.22-.68,.52,.15,.83,.7,.68,1.22-.15,.53-.7,.83-1.22,.68Z"/><path d="M5.27,88.36c-1.6-.45-2.53-2.12-2.08-3.71,.45-1.6,2.11-2.53,3.71-2.08,1.6,.45,2.53,2.11,2.08,3.71-.45,1.6-2.11,2.53-3.71,2.08Z"/><path d="M.43,86.5s2.22,.7,3.83-.31l.41,1.14s-1,1.19-3.21,1.22c0,0-.62-.4-1.04-2.05Z"/></g><g><path class="bw" d="M93.6,167.1c-2.9,3.89-8.41,4.7-12.31,1.79-3.89-2.9-4.7-8.42-1.79-12.31,2.9-3.9,8.41-4.7,12.31-1.79,3.9,2.91,4.7,8.42,1.79,12.31Z"/><path class="bn" d="M93.17,167.09c-2.7,3.63-7.84,4.37-11.47,1.67-3.63-2.71-4.38-7.84-1.67-11.47,2.71-3.63,7.84-4.38,11.47-1.67,3.63,2.71,4.37,7.84,1.67,11.47Z"/><path class="bm" d="M92.55,166.03c-2.42,3.25-7.03,3.92-10.28,1.5-3.25-2.43-3.92-7.03-1.5-10.28,2.43-3.25,7.03-3.92,10.28-1.49,3.25,2.42,3.92,7.03,1.5,10.28Z"/><path class="ca" d="M91.23,163.64c-1.87,2.5-5.41,3.02-7.92,1.15-2.5-1.87-3.02-5.42-1.15-7.92,1.87-2.51,5.41-3.02,7.92-1.15,2.51,1.87,3.02,5.41,1.15,7.92Z"/><path class="bj" d="M88.87,159.41c-.94,1.26-2.73,1.52-3.99,.58-1.26-.94-1.52-2.73-.58-3.99,.94-1.26,2.73-1.52,3.99-.58,1.26,.94,1.52,2.73,.58,3.99Z"/><path class="cu" d="M92.92,159.79c-.33,.44-.95,.53-1.38,.2-.44-.32-.53-.94-.2-1.38,.33-.44,.95-.53,1.38-.2,.44,.33,.53,.95,.2,1.39Z"/><path d="M89.31,166.68c-.99,1.33-2.88,1.61-4.21,.61-1.33-.99-1.61-2.88-.61-4.21,.99-1.33,2.88-1.61,4.21-.62,1.33,.99,1.61,2.88,.61,4.21Z"/><path d="M85.85,170.52s1.45-1.83,1.08-3.69l1.21,.03s.75,1.35,0,3.43c0,0-.59,.44-2.29,.23Z"/></g><g><path class="bw" d="M170.69,57.68c-2.57-4.12-1.3-9.55,2.82-12.11,4.12-2.57,9.55-1.3,12.12,2.82,2.57,4.12,1.3,9.55-2.83,12.11-4.13,2.57-9.55,1.3-12.11-2.83Z"/><path class="bn" d="M170.85,57.29c-2.39-3.84-1.21-8.89,2.63-11.28,3.85-2.39,8.9-1.21,11.29,2.63,2.39,3.84,1.21,8.9-2.63,11.29-3.84,2.39-8.9,1.21-11.29-2.63Z"/><path class="bm" d="M172.06,57.09c-2.14-3.45-1.09-7.98,2.36-10.12,3.45-2.14,7.98-1.09,10.12,2.36,2.14,3.45,1.09,7.98-2.36,10.12-3.45,2.14-7.98,1.09-10.12-2.36Z"/><path class="ca" d="M174.78,56.74c-1.65-2.65-.84-6.14,1.82-7.79,2.65-1.65,6.14-.83,7.79,1.82,1.65,2.66,.84,6.14-1.82,7.79-2.65,1.65-6.14,.84-7.79-1.82Z"/><path class="bj" d="M179.56,56.09c-.83-1.34-.42-3.09,.91-3.92,1.34-.83,3.09-.42,3.93,.92,.83,1.33,.42,3.09-.92,3.92-1.34,.83-3.09,.42-3.92-.92Z"/><path class="cu" d="M177.74,59.71c-.29-.46-.15-1.07,.32-1.36,.46-.29,1.07-.15,1.36,.32,.29,.46,.15,1.07-.32,1.36-.46,.29-1.07,.14-1.36-.32Z"/><path d="M172.64,53.84c-.88-1.41-.45-3.27,.97-4.15,1.41-.88,3.27-.44,4.14,.97,.88,1.41,.45,3.27-.97,4.14-1.41,.88-3.27,.44-4.14-.97Z"/><path d="M170.33,49.21s1.17,2.02,3.04,2.35l-.47,1.12s-1.54,.21-3.2-1.26c0,0-.19-.71,.62-2.22Z"/></g><g><path class="bl" d="M90.79,54.3s6.05-9.39,10.35-10.03c4.3-.64,11.14,.95,9.39-4.62-1.75-5.57-5.89-6.69-8.6-6.21,0,0,17.35-3.18,14.49,10.03,0,0,9.87,.48,12.26-5.25,2.39-5.73-.32-11.62-1.91-12.58,0,0,8.92,4.3,7,14.49-1.91,10.19-8.12,15.28-13.21,17.2,0,0,10.67,2.71,14.49-4.78,0,0-2.07,10.19-13.21,10.83s-19.9-4.94-19.9-4.94c0,0,.96,7.48-3.82,8.6-4.78,1.12-6.85-2.39-6.85-2.39,0,0,3.5,2.23,4.78-.16,1.27-2.39-1.59-8.76-5.25-10.19Z"/><path class="as" d="M121.84,63.38c1.68-.1,3.16-.41,4.45-.88-1.34-.34-2.67-.77-3.94-1.51-2.25-1.32-5.03-3.85-4.02-6.69,.83-2.36,4.25-3.86,5.85-5.72,1.38-1.6,4.83-5.64,4.46-7.93-.08-.5-.32-.89-.6-1.27-2.2,3.17-7.03,3.91-9.72,4.07-.72,.69-1.63,1.33-1.59,1.95,.04,.78,2,1.52,2.55,2.05,1.1,1.06,1.55,2.27,.65,3.67-1.6,2.47-5.59,3.12-8.13,4.03-1.23,.44-3.49,1.11-3.47,2.66,.02,1.37,1.83,1.77-.02,2.71-.38,.2-.9,.28-1.46,.3,3.62,1.43,8.95,2.9,14.99,2.56Z"/></g></g></g></g></svg>