<svg xmlns="http://www.w3.org/2000/svg" xmlns:xlink="http://www.w3.org/1999/xlink" viewBox="0 0 121.71 96.08"><defs><style>.cls-1{isolation:isolate;}.cls-2{fill:url(#Gradient_4);}.cls-3{fill:url(#linear-gradient);}.cls-15,.cls-34,.cls-35,.cls-4{fill:#fff;}.cls-10,.cls-15,.cls-34,.cls-4{mix-blend-mode:soft-light;}.cls-5{fill:#be45e0;}.cls-12,.cls-29,.cls-36,.cls-5,.cls-6,.cls-8{mix-blend-mode:multiply;}.cls-12,.cls-29,.cls-6{fill:#be2f55;}.cls-6{opacity:0.3;}.cls-7{fill:#fff9c7;}.cls-12,.cls-15,.cls-8{opacity:0.5;}.cls-9{fill:#ca6d92;}.cls-11{fill:url(#Gradient_1);}.cls-13{fill:url(#Gradient_1-2);}.cls-14{fill:url(#Gradient_1-3);}.cls-16{fill:#ffd134;}.cls-17{fill:#ffab34;}.cls-18{fill:url(#Gradient_1-4);}.cls-19{fill:url(#Gradient_1-5);}.cls-20{fill:url(#Gradient_1-6);}.cls-21{fill:url(#Gradient_8);}.cls-22{fill:#ffde00;}.cls-23{fill:url(#Gradient_8-2);}.cls-24{fill:url(#Gradient_8-3);}.cls-25,.cls-26,.cls-27{mix-blend-mode:color-dodge;}.cls-25{fill:url(#Gradient_5);}.cls-26{fill:url(#Gradient_5-2);}.cls-27{fill:url(#Gradient_5-3);}.cls-28{fill:url(#Gradient_1-7);}.cls-29{opacity:0.78;}.cls-30{fill:url(#Gradient_1-8);}.cls-31{fill:url(#Gradient_1-9);}.cls-32{fill:url(#Gradient_6);}.cls-33{fill:url(#linear-gradient-2);}.cls-34{opacity:0.89;}.cls-36{opacity:0.47;}.cls-37{fill:#c14d33;}.cls-38,.cls-39{fill:none;stroke:#c14d33;stroke-linejoin:round;}.cls-38{stroke-width:0.75px;}.cls-39{stroke-width:0.5px;}.cls-40{fill:url(#Gradient_7);}.cls-41{fill:url(#Gradient_7-2);}.cls-42{fill:url(#Gradient_7-3);}.cls-43{fill:url(#Gradient_7-4);}.cls-44{fill:url(#Gradient_7-5);}.cls-45{fill:url(#Gradient_7-6);}.cls-46{fill:url(#Gradient_7-7);}.cls-47{fill:url(#Gradient_7-8);}.cls-48{fill:url(#Gradient_7-9);}.cls-49{fill:url(#Gradient_7-10);}.cls-50{fill:url(#Gradient_7-11);}.cls-51{fill:url(#Gradient_7-12);}.cls-52{fill:url(#Gradient_7-13);}.cls-53{fill:url(#Gradient_7-14);}.cls-54{fill:url(#Gradient_7-15);}.cls-55{fill:url(#Gradient_7-16);}.cls-56{fill:url(#Gradient_7-17);}.cls-57{fill:url(#Gradient_7-18);}.cls-58{fill:url(#Gradient_7-19);}.cls-59{fill:url(#Gradient_7-20);}.cls-60{fill:url(#Gradient_7-21);}.cls-61{fill:url(#Gradient_7-22);}.cls-62{fill:url(#Gradient_7-23);}.cls-63{fill:url(#Gradient_7-24);}.cls-64{fill:url(#Gradient_3);}.cls-65{fill:url(#Gradient_3-2);}.cls-66{fill:url(#Gradient_3-3);}.cls-67{fill:url(#Gradient_2);}.cls-68{fill:url(#Gradient_2-2);}.cls-69{fill:url(#Gradient_2-3);}</style><linearGradient id="Gradient_4" x1="61.11" y1="87.72" x2="61.11" y2="13.5" gradientUnits="userSpaceOnUse"><stop offset="0" stop-color="#cc4300"/><stop offset="0.07" stop-color="#c94100"/><stop offset="0.11" stop-color="#c03b00"/><stop offset="0.15" stop-color="#b13100"/><stop offset="0.18" stop-color="#9c2200"/><stop offset="0.2" stop-color="#8d1800"/><stop offset="0.29" stop-color="#921d00"/><stop offset="0.4" stop-color="#a02a00"/><stop offset="0.51" stop-color="#b74100"/><stop offset="0.63" stop-color="#d76100"/><stop offset="0.75" stop-color="#ff8700"/><stop offset="1" stop-color="#fff200"/></linearGradient><linearGradient id="linear-gradient" x1="61.11" y1="82.73" x2="61.11" y2="18.49" gradientUnits="userSpaceOnUse"><stop offset="0" stop-color="#d90086"/><stop offset="0.05" stop-color="#c60075"/><stop offset="0.15" stop-color="#a40055"/><stop offset="0.24" stop-color="#8f0042"/><stop offset="0.29" stop-color="#87003b"/><stop offset="0.32" stop-color="#8f013e"/><stop offset="0.47" stop-color="#b7084f"/><stop offset="0.61" stop-color="#d60d5d"/><stop offset="0.75" stop-color="#ed1166"/><stop offset="0.88" stop-color="#fa136c"/><stop offset="1" stop-color="#ff146e"/></linearGradient><linearGradient id="Gradient_1" x1="106.86" y1="47.14" x2="106.86" y2="20.12" gradientUnits="userSpaceOnUse"><stop offset="0" stop-color="#b93e00"/><stop offset="1" stop-color="#ffa900"/></linearGradient><linearGradient id="Gradient_1-2" x1="106.25" y1="58.46" x2="106.25" y2="40.37" xlink:href="#Gradient_1"/><linearGradient id="Gradient_1-3" x1="98.63" y1="68.28" x2="98.63" y2="57.92" xlink:href="#Gradient_1"/><linearGradient id="Gradient_1-4" x1="-602.13" y1="47.14" x2="-602.13" y2="20.12" gradientTransform="matrix(-1, 0, 0, 1, -587.27, 0)" xlink:href="#Gradient_1"/><linearGradient id="Gradient_1-5" x1="-602.74" y1="58.46" x2="-602.74" y2="40.37" gradientTransform="matrix(-1, 0, 0, 1, -587.27, 0)" xlink:href="#Gradient_1"/><linearGradient id="Gradient_1-6" x1="-610.36" y1="68.28" x2="-610.36" y2="57.92" gradientTransform="matrix(-1, 0, 0, 1, -587.27, 0)" xlink:href="#Gradient_1"/><linearGradient id="Gradient_8" x1="86.8" y1="69.92" x2="86.8" y2="65.39" gradientUnits="userSpaceOnUse"><stop offset="0" stop-color="#ffc800"/><stop offset="0.23" stop-color="#ffa200"/><stop offset="0.28" stop-color="#ef8d00"/><stop offset="0.39" stop-color="#d36600"/><stop offset="0.5" stop-color="#bc4600"/><stop offset="0.61" stop-color="#aa2d00"/><stop offset="0.73" stop-color="#9d1b00"/><stop offset="0.85" stop-color="#951000"/><stop offset="1" stop-color="#930d00"/></linearGradient><linearGradient id="Gradient_8-2" x1="117" y1="31.43" x2="117" y2="25.75" xlink:href="#Gradient_8"/><linearGradient id="Gradient_8-3" x1="83.18" y1="377.32" x2="83.18" y2="373.59" gradientTransform="translate(-281.52 -103.91) rotate(-57.7)" xlink:href="#Gradient_8"/><radialGradient id="Gradient_5" cx="247.81" cy="1588.43" r="11.46" gradientTransform="translate(-272.45 574.53) rotate(-135) scale(0.72 0.37)" gradientUnits="userSpaceOnUse"><stop offset="0.52" stop-color="#a68f95"/><stop offset="1"/></radialGradient><radialGradient id="Gradient_5-2" cx="-161.19" cy="1396.05" r="8.7" gradientTransform="matrix(-0.68, 0.25, -0.13, -0.34, 175.48, 573.16)" xlink:href="#Gradient_5"/><radialGradient id="Gradient_5-3" cx="-39.29" cy="1305.85" r="6.16" gradientTransform="matrix(-0.83, -0.54, 0.26, -0.39, -296.41, 511.48)" xlink:href="#Gradient_5"/><linearGradient id="Gradient_1-7" x1="67.25" y1="96.08" x2="67.25" y2="82.13" xlink:href="#Gradient_1"/><linearGradient id="Gradient_1-8" x1="55.11" y1="96.08" x2="55.11" y2="82.13" xlink:href="#Gradient_1"/><linearGradient id="Gradient_1-9" x1="60.23" y1="19.52" x2="60.23" y2="0.01" xlink:href="#Gradient_1"/><linearGradient id="Gradient_6" x1="60.31" y1="15.82" x2="60.31" y2="2.3" gradientUnits="userSpaceOnUse"><stop offset="0" stop-color="#ffc200"/><stop offset="0.11" stop-color="#ffa200"/><stop offset="0.16" stop-color="#ed8c00"/><stop offset="0.26" stop-color="#cb6300"/><stop offset="0.35" stop-color="#b04200"/><stop offset="0.45" stop-color="#9d2b00"/><stop offset="0.54" stop-color="#911d00"/><stop offset="0.61" stop-color="#8d1800"/><stop offset="0.65" stop-color="#952000"/><stop offset="0.74" stop-color="#a42e00"/><stop offset="0.84" stop-color="#ad3600"/><stop offset="1" stop-color="#b03900"/></linearGradient><linearGradient id="linear-gradient-2" x1="60.31" y1="14.48" x2="60.31" y2="3.65" gradientUnits="userSpaceOnUse"><stop offset="0" stop-color="#326e00"/><stop offset="0.1" stop-color="#379202"/><stop offset="0.21" stop-color="#3cb304"/><stop offset="0.32" stop-color="#3fcf05"/><stop offset="0.45" stop-color="#42e407"/><stop offset="0.59" stop-color="#44f307"/><stop offset="0.75" stop-color="#46fc08"/><stop offset="1" stop-color="#46ff08"/></linearGradient><linearGradient id="Gradient_7" x1="48.5" y1="58.69" x2="48.5" y2="42.12" gradientTransform="translate(0 1.4)" gradientUnits="userSpaceOnUse"><stop offset="0" stop-color="#b82e00"/><stop offset="0.09" stop-color="#a31d00"/><stop offset="0.18" stop-color="#931100"/><stop offset="0.29" stop-color="#890900"/><stop offset="0.44" stop-color="#860700"/></linearGradient><linearGradient id="Gradient_7-2" x1="59.88" y1="58.69" x2="59.88" y2="42.12" xlink:href="#Gradient_7"/><linearGradient id="Gradient_7-3" x1="72.43" y1="58.69" x2="72.43" y2="42.13" xlink:href="#Gradient_7"/><linearGradient id="Gradient_7-4" x1="48.5" y1="58.69" x2="48.5" y2="42.12" gradientTransform="translate(0 1.2)" xlink:href="#Gradient_7"/><linearGradient id="Gradient_7-5" x1="59.88" y1="58.69" x2="59.88" y2="42.12" gradientTransform="translate(0 1.2)" xlink:href="#Gradient_7"/><linearGradient id="Gradient_7-6" x1="72.43" y1="58.69" x2="72.43" y2="42.13" gradientTransform="translate(0 1.2)" xlink:href="#Gradient_7"/><linearGradient id="Gradient_7-7" x1="48.5" y1="58.69" x2="48.5" y2="42.12" gradientTransform="translate(0 1)" xlink:href="#Gradient_7"/><linearGradient id="Gradient_7-8" x1="59.88" y1="58.69" x2="59.88" y2="42.13" gradientTransform="translate(0 1)" xlink:href="#Gradient_7"/><linearGradient id="Gradient_7-9" x1="72.43" y1="58.69" x2="72.43" y2="42.13" gradientTransform="translate(0 1)" xlink:href="#Gradient_7"/><linearGradient id="Gradient_7-10" x1="48.5" y1="58.69" x2="48.5" y2="42.12" gradientTransform="translate(0 0.8)" xlink:href="#Gradient_7"/><linearGradient id="Gradient_7-11" x1="59.88" y1="58.69" x2="59.88" y2="42.12" gradientTransform="translate(0 0.8)" xlink:href="#Gradient_7"/><linearGradient id="Gradient_7-12" x1="72.43" y1="58.69" x2="72.43" y2="42.13" gradientTransform="translate(0 0.8)" xlink:href="#Gradient_7"/><linearGradient id="Gradient_7-13" x1="48.5" y1="58.69" x2="48.5" y2="42.12" gradientTransform="translate(0 0.6)" xlink:href="#Gradient_7"/><linearGradient id="Gradient_7-14" x1="59.88" y1="58.69" x2="59.88" y2="42.12" gradientTransform="translate(0 0.6)" xlink:href="#Gradient_7"/><linearGradient id="Gradient_7-15" x1="72.43" y1="58.69" x2="72.43" y2="42.13" gradientTransform="translate(0 0.6)" xlink:href="#Gradient_7"/><linearGradient id="Gradient_7-16" x1="48.5" y1="58.69" x2="48.5" y2="42.12" gradientTransform="translate(0 0.4)" xlink:href="#Gradient_7"/><linearGradient id="Gradient_7-17" x1="59.88" y1="58.69" x2="59.88" y2="42.12" gradientTransform="translate(0 0.4)" xlink:href="#Gradient_7"/><linearGradient id="Gradient_7-18" x1="72.43" y1="58.69" x2="72.43" y2="42.13" gradientTransform="translate(0 0.4)" xlink:href="#Gradient_7"/><linearGradient id="Gradient_7-19" x1="48.5" y1="58.69" x2="48.5" y2="42.12" gradientTransform="translate(0 0.2)" xlink:href="#Gradient_7"/><linearGradient id="Gradient_7-20" x1="59.88" y1="58.69" x2="59.88" y2="42.12" gradientTransform="translate(0 0.2)" xlink:href="#Gradient_7"/><linearGradient id="Gradient_7-21" x1="72.43" y1="58.69" x2="72.43" y2="42.13" gradientTransform="translate(0 0.2)" xlink:href="#Gradient_7"/><linearGradient id="Gradient_7-22" x1="48.5" y1="58.69" x2="48.5" y2="42.12" gradientTransform="matrix(1, 0, 0, 1, 0, 0)" xlink:href="#Gradient_7"/><linearGradient id="Gradient_7-23" x1="59.88" y1="58.69" x2="59.88" y2="42.13" gradientTransform="matrix(1, 0, 0, 1, 0, 0)" xlink:href="#Gradient_7"/><linearGradient id="Gradient_7-24" x1="72.43" y1="58.69" x2="72.43" y2="42.13" gradientTransform="matrix(1, 0, 0, 1, 0, 0)" xlink:href="#Gradient_7"/><linearGradient id="Gradient_3" x1="48.5" y1="58.69" x2="48.5" y2="42.12" gradientTransform="translate(0 -0.2)" gradientUnits="userSpaceOnUse"><stop offset="0" stop-color="#ffd4cb"/><stop offset="1" stop-color="#fff"/></linearGradient><linearGradient id="Gradient_3-2" x1="59.88" y1="58.69" x2="59.88" y2="42.12" xlink:href="#Gradient_3"/><linearGradient id="Gradient_3-3" x1="72.43" y1="58.69" x2="72.43" y2="42.13" xlink:href="#Gradient_3"/><linearGradient id="Gradient_2" x1="48.5" y1="58.69" x2="48.5" y2="42.12" gradientUnits="userSpaceOnUse"><stop offset="0" stop-color="#ffb57f"/><stop offset="1" stop-color="#ffdbba"/></linearGradient><linearGradient id="Gradient_2-2" x1="59.88" y1="58.69" x2="59.88" y2="42.12" xlink:href="#Gradient_2"/><linearGradient id="Gradient_2-3" x1="72.43" y1="58.69" x2="72.43" y2="42.12" xlink:href="#Gradient_2"/></defs><g class="cls-1"><g id="Слой_2" data-name="Слой 2"><g id="layer1"><path class="cls-2" d="M94,66.38V34.83a7.91,7.91,0,0,0-1.87-5.39c-8.62-6.94-17-13.34-28.2-15.58a11.07,11.07,0,0,0-5.6,0C47.12,16.1,38.73,22.5,30.11,29.44a7.91,7.91,0,0,0-1.87,5.39V66.38a7.91,7.91,0,0,0,1.87,5.39c8.62,6.94,17,13.34,28.2,15.58a10.85,10.85,0,0,0,5.6,0c11.19-2.24,19.58-8.64,28.2-15.58A7.91,7.91,0,0,0,94,66.38Z"/><path class="cls-3" d="M89.56,37V64.26c0,.21,0,.41,0,.62a6.57,6.57,0,0,1-1.6,4.05c-7.46,6-14.72,11.55-24.41,13.48a9.49,9.49,0,0,1-4.85,0C49,80.48,41.74,74.93,34.28,68.93a6.84,6.84,0,0,1-1.62-4.67V37a6.85,6.85,0,0,1,1.62-4.67c7.46-6,14.72-11.54,24.4-13.48a9.49,9.49,0,0,1,4.85,0c9.69,1.94,17,7.48,24.41,13.48A6.85,6.85,0,0,1,89.56,37Z"/><path class="cls-4" d="M28.7,31.87s2.93,1.43,4,1.31S51.38,18.49,61.11,18.49,86.43,31.58,87.94,32.28,92.54,30,92.54,30,73.15,13.5,61.11,13.5,29.06,30.37,28.7,31.87Z"/><path class="cls-5" d="M89.54,64.88a6.57,6.57,0,0,1-1.6,4.05c-7.46,6-14.72,11.55-24.41,13.48a9.49,9.49,0,0,1-4.85,0C49,80.48,41.74,74.93,34.28,68.93a6.84,6.84,0,0,1-1.62-4.67s12.32,17,28,17S89.54,64.88,89.54,64.88Z"/><path class="cls-6" d="M61.72,87.72c-2.7-1-1.49-3.21,1.49-4.58s8.17-2.41,13.6-6.09,10.13-7.87,11.62-7.68,1.81,3.9,1.81,3.9S76.61,86,61.72,87.72Z"/><path class="cls-7" d="M31,32.84c.16.73,5.77-3.53,10.86-6.52A10.26,10.26,0,0,0,47,18.18S29.58,26.43,31,32.84Z"/><g class="cls-8"><path class="cls-9" d="M40.61,55.91c.72,1,1.49,2,2.29,2.88s1.59,1.86,2.43,2.74a48.4,48.4,0,0,0,5.36,5,30.93,30.93,0,0,0,6.15,3.91,19.8,19.8,0,0,0,7,1.82,17.7,17.7,0,0,1-7.19-1.47,29.3,29.3,0,0,1-6.3-3.87,42.89,42.89,0,0,1-5.33-5.11A44.34,44.34,0,0,1,40.61,55.91Z"/><path class="cls-9" d="M47,65.9a57.86,57.86,0,0,0,5.38,4.9,20,20,0,0,0,3,2A9,9,0,0,0,58.74,74a7.29,7.29,0,0,1-3.57-.82,15.37,15.37,0,0,1-3.13-2,23.68,23.68,0,0,1-2.72-2.48A26.3,26.3,0,0,1,47,65.9Z"/><path class="cls-9" d="M50.29,40.41A55.59,55.59,0,0,1,61.56,34a29.22,29.22,0,0,1,6.23-1.86,14,14,0,0,1,6.52.25,8.92,8.92,0,0,1,5,4.08,16.53,16.53,0,0,1,2,6.21,46.23,46.23,0,0,1-.62,12.92L81,52.43c.11-1.08.12-2.16.18-3.23s0-2.15,0-3.23-.15-2.14-.29-3.2a16.86,16.86,0,0,0-2-6,8.52,8.52,0,0,0-4.8-3.84,13.63,13.63,0,0,0-6.29-.27,31.69,31.69,0,0,0-6.17,1.76,51.78,51.78,0,0,0-5.85,2.72A62.07,62.07,0,0,0,50.29,40.41Z"/></g><g class="cls-10"><path class="cls-7" d="M40.56,56.21c.71,1,1.48,1.93,2.27,2.85s1.58,1.84,2.42,2.72a47.81,47.81,0,0,0,5.32,4.94,30.57,30.57,0,0,0,6.09,3.89,19.72,19.72,0,0,0,7,1.84A17.77,17.77,0,0,1,56.5,71a29.13,29.13,0,0,1-6.25-3.85A43.64,43.64,0,0,1,45,62,44.39,44.39,0,0,1,40.56,56.21Z"/><path class="cls-7" d="M46.88,66.11A58.23,58.23,0,0,0,52.22,71a20.32,20.32,0,0,0,3,2,9.09,9.09,0,0,0,3.37,1.17A7.46,7.46,0,0,1,55,73.33a15.16,15.16,0,0,1-3.1-2,25.07,25.07,0,0,1-2.69-2.46A24.11,24.11,0,0,1,46.88,66.11Z"/><path class="cls-7" d="M50.11,41a56.22,56.22,0,0,1,11.22-6.67,29,29,0,0,1,6.25-2,13.3,13.3,0,0,1,6.57.22,8.69,8.69,0,0,1,4.95,4.27,18.23,18.23,0,0,1,1.79,6.32,50.35,50.35,0,0,1-.77,13l.35-3.24c.13-1.08.14-2.17.21-3.26s0-2.17,0-3.25-.14-2.16-.23-3.23a18.58,18.58,0,0,0-1.8-6.15A8.23,8.23,0,0,0,74,33a12.83,12.83,0,0,0-6.34-.25,31.51,31.51,0,0,0-6.18,1.9,53.38,53.38,0,0,0-5.83,2.87A63.22,63.22,0,0,0,50.11,41Z"/></g><path class="cls-11" d="M114.36,43C109.15,46.58,92,47.14,92,47.14V32.68s28.37-13.24,29.48-12.53S119.57,39.38,114.36,43Z"/><path class="cls-12" d="M114.36,43C109.15,46.58,92,47.14,92,47.14v-3s16.34-3.44,19.19-6.79,10.29-17.2,10.29-17.2C122.6,20.88,119.57,39.38,114.36,43Z"/><path class="cls-13" d="M110.45,58.07c-3.55.87-18.45,0-18.45,0v-12s26.17-7.18,28.34-5.46a.28.28,0,0,1,.13.16C121,42.2,115.29,56.9,110.45,58.07Z"/><path class="cls-12" d="M110.45,58.07c-3.55.87-18.45,0-18.45,0V55.5s9.45.16,15.66-1.82c4.94-1.58,11.07-10.65,12.68-13a.28.28,0,0,1,.13.16C121,42.2,115.29,56.9,110.45,58.07Z"/><path class="cls-14" d="M91.22,68.17s.19-1.4.37-3.32.41-4.68.41-6.78c0,0,13.42-.35,14,0S102.13,69.52,91.22,68.17Z"/><path class="cls-12" d="M91.22,68.17s.19-1.4.37-3.32l.41-.43s9.89-.63,14-6.35C106.54,58.43,102.13,69.52,91.22,68.17Z"/><path class="cls-12" d="M92,46.1l-.07-1.58s15.08-4.56,18-5.4,6.74,1.21,6.74,1.21S107.88,41.45,92,46.1Z"/><path class="cls-12" d="M92,58.07V55.5s11.82-.66,14.25-.75,4.2,3.32,4.2,3.32l-4.2.36-.27-.36Z"/><path class="cls-15" d="M100.51,43.75c-4.14,1.12,2.2,8.68,6.35,9s11.23-9.34,12-10.87S106.11,42.24,100.51,43.75Z"/><path class="cls-15" d="M101.71,28.23c-1.66,1-7.09,12-7,13.7s13-1.21,17-5.22,7.68-14.62,7.68-14.62A54.56,54.56,0,0,0,101.71,28.23Z"/><path class="cls-15" d="M97.24,58.19c-5.14,1.3-4.52,5.19-4.38,5.74s5.69-.32,8.37-2a28.83,28.83,0,0,0,4.46-3.47S98.86,57.78,97.24,58.19Z"/><path class="cls-15" d="M119.57,44.59c.3-1.11-4.1,3.68-4.65,5.66a5,5,0,0,0,.2,3.43S118.65,48.05,119.57,44.59Z"/><path class="cls-15" d="M121.61,23.16c-.86-.38-3.42,14-3.42,14A53,53,0,0,0,121.61,23.16Z"/><path class="cls-16" d="M93.9,43.72s13.13-4.28,16.24-6.57S118,26.41,118,26.41s-4.85,9.82-8,11.89S93.9,43.72,93.9,43.72Z"/><path class="cls-17" d="M92,55.5s11-1.2,15-2.32,10-7.88,10-7.88-5.67,7.37-9.25,8.76S92,55.5,92,55.5Z"/><path class="cls-17" d="M91.69,63.77A45.05,45.05,0,0,0,99,62.48a14.45,14.45,0,0,0,5.27-2.56,20.79,20.79,0,0,1-12.59,4.61Z"/><path class="cls-7" d="M107.53,38.92c-1.73.14-.93-3.7,2.42-4.75S111.69,38.58,107.53,38.92Z"/><path class="cls-18" d="M7.35,43c5.22,3.6,22.37,4.16,22.37,4.16V32.68S1.34,19.44.23,20.15,2.15,39.38,7.35,43Z"/><path class="cls-12" d="M7.35,43c5.22,3.6,22.37,4.16,22.37,4.16v-3s-16.34-3.44-19.2-6.79S.23,20.15.23,20.15C-.89,20.88,2.15,39.38,7.35,43Z"/><path class="cls-19" d="M11.26,58.07c3.56.87,18.46,0,18.46,0v-12S3.54,38.92,1.37,40.64a.28.28,0,0,0-.13.16C.72,42.2,6.43,56.9,11.26,58.07Z"/><path class="cls-12" d="M11.26,58.07c3.56.87,18.46,0,18.46,0V55.5s-9.46.16-15.66-1.82C9.12,52.1,3,43,1.37,40.64a.28.28,0,0,0-.13.16C.72,42.2,6.43,56.9,11.26,58.07Z"/><path class="cls-20" d="M30.49,68.17s-.19-1.4-.36-3.32-.41-4.68-.41-6.78c0,0-13.43-.35-14,0S19.58,69.52,30.49,68.17Z"/><path class="cls-12" d="M30.49,68.17s-.19-1.4-.36-3.32l-.41-.43s-9.89-.63-14-6.35C15.17,58.43,19.58,69.52,30.49,68.17Z"/><path class="cls-12" d="M29.72,46.1l.06-1.58s-15.07-4.56-18-5.4-6.74,1.21-6.74,1.21S13.83,41.45,29.72,46.1Z"/><path class="cls-12" d="M29.72,58.07V55.5s-11.83-.66-14.26-.75-4.2,3.32-4.2,3.32l4.2.36.27-.36Z"/><path class="cls-15" d="M21.2,43.75c4.15,1.12-2.19,8.68-6.34,9s-11.23-9.34-12-10.87S15.6,42.24,21.2,43.75Z"/><path class="cls-15" d="M20,28.23c1.65,1,7.08,12,7,13.7s-13-1.21-17-5.22S2.33,22.09,2.33,22.09A54.58,54.58,0,0,1,20,28.23Z"/><path class="cls-15" d="M24.48,58.19c5.14,1.3,4.51,5.19,4.37,5.74s-5.69-.32-8.36-2A28.65,28.65,0,0,1,16,58.46S22.85,57.78,24.48,58.19Z"/><path class="cls-15" d="M2.14,44.59c-.3-1.11,4.1,3.68,4.66,5.66a4.92,4.92,0,0,1-.21,3.43S3.07,48.05,2.14,44.59Z"/><path class="cls-15" d="M.1,23.16c.87-.38,3.43,14,3.43,14A53.22,53.22,0,0,1,.1,23.16Z"/><path class="cls-16" d="M27.81,43.72s-13.13-4.28-16.24-6.57S3.69,26.41,3.69,26.41s4.85,9.82,8,11.89S27.81,43.72,27.81,43.72Z"/><path class="cls-17" d="M29.72,55.5s-11-1.2-15-2.32-10-7.88-10-7.88,5.67,7.37,9.25,8.76S29.72,55.5,29.72,55.5Z"/><path class="cls-17" d="M30,63.77a44.87,44.87,0,0,1-7.32-1.29,14.56,14.56,0,0,1-5.28-2.56A20.8,20.8,0,0,0,30,64.53Z"/><path class="cls-7" d="M14.18,38.92c1.73.14.93-3.7-2.42-4.75S10,38.58,14.18,38.92Z"/><path class="cls-21" d="M87.4,65.42c-1.23-.34-2.87,2.11-1.94,4.07S90.22,66.2,87.4,65.42Z"/><path class="cls-12" d="M85.53,67.17c-.07,1.45,1.77,1.49,2.45.72s.62-2.5-.74-2.5S85.53,67.17,85.53,67.17Z"/><path class="cls-22" d="M85.19,68.43c.38-.88,1.48.16,2.14.19s-.44,1.49-1.2,1.3S85.19,68.43,85.19,68.43Z"/><path class="cls-23" d="M117.76,25.79c-1.55-.43-3.61,2.64-2.45,5.11S121.29,26.76,117.76,25.79Z"/><path class="cls-12" d="M115.41,28c-.09,1.83,2.21,1.88,3.07.9s.79-3.13-.92-3.12S115.41,28,115.41,28Z"/><path class="cls-22" d="M115,29.57c.47-1.11,1.86.2,2.69.24s-.55,1.86-1.51,1.62S115,29.57,115,29.57Z"/><path class="cls-24" d="M79,25c-.78.71.2,2.93,2,3.15S80.79,23.37,79,25Z"/><path class="cls-12" d="M79.4,27.05c1,.69,1.82-.57,1.58-1.39s-1.46-1.53-2.06-.58S79.4,27.05,79.4,27.05Z"/><path class="cls-22" d="M80.13,27.84c-.45-.65.76-.95,1.08-1.4s.84,1,.37,1.41S80.13,27.84,80.13,27.84Z"/><path class="cls-7" d="M39.33,33.15c.2,3.85,5,.79,5.26-2.16S39.11,29.15,39.33,33.15Z"/><path class="cls-25" d="M7.21,29.8c1.64-1.64,5.59-.35,8.83,2.88s4.53,7.19,2.89,8.84-5.6.35-8.84-2.89S5.57,31.44,7.21,29.8Z"/><path class="cls-26" d="M99.8,54.68c-.61-1.65,1.52-4,4.78-5.19s6.39-.86,7,.79-1.53,4-4.78,5.19S100.42,56.33,99.8,54.68Z"/><path class="cls-27" d="M68.92,16.17c.88-1.33,3.87-.92,6.68.93s4.37,4.43,3.49,5.77-3.87.92-6.67-.93S68,17.51,68.92,16.17Z"/><path class="cls-28" d="M73.12,96.06a.65.65,0,0,1-.35,0h0c-1.9-.47-11.63-4.72-11.63-4.72V84.09c2,0,12-2,12-2l0,1.25a.29.29,0,0,1,0,.13C73.32,87,73.62,95.83,73.12,96.06Z"/><path class="cls-12" d="M72.74,96c-1.9-.47-11.46-4.72-11.46-4.72l-.17-7.21h2S66.18,93.05,72.74,96Z"/><path class="cls-15" d="M65.22,88.56c-2.06-4.21,5.07-4.21,6.31-1.6s.61,8.76.61,8.76S67.24,92.69,65.22,88.56Z"/><path class="cls-12" d="M64.29,86.87s.23,4,1.22,5.61,6.32,3.24,6.32,3.24A23.29,23.29,0,0,1,64.29,86.87Z"/><path class="cls-29" d="M73.18,83.51l-.08-1.08a38.8,38.8,0,0,1-10,1.66c2,0,10.05-2,10.05-2l0,.3Z"/><path class="cls-17" d="M63.83,85.9s4.47,7,8.31,9.82C72.14,95.72,65.88,91.87,63.83,85.9Z"/><path class="cls-30" d="M61.11,84.09V91.3S51.67,95.55,49.78,96h0a.69.69,0,0,1-.36,0c-.5-.23-.19-9.07,0-12.55a.29.29,0,0,1,0-.13l0-1.25S59.14,84.09,61.11,84.09Z"/><path class="cls-12" d="M49.78,96c1.89-.47,11.5-4.72,11.5-4.72l-.17-7.21H59.44S56.34,93.05,49.78,96Z"/><path class="cls-15" d="M57.3,88.56c2.05-4.21-5.07-4.21-6.31-1.6s-.61,8.76-.61,8.76S55.28,92.69,57.3,88.56Z"/><path class="cls-12" d="M58.22,86.87s-.22,4-1.22,5.61-6.31,3.24-6.31,3.24A23.31,23.31,0,0,0,58.22,86.87Z"/><path class="cls-29" d="M59.44,84.09a34.91,34.91,0,0,1-10.07-1.48l0,.9v-.13l0-1.25S57.47,84.09,59.44,84.09Z"/><path class="cls-17" d="M58.69,85.9s-4.48,7-8.31,9.82C50.38,95.72,56.64,91.87,58.69,85.9Z"/><path class="cls-31" d="M75.39,15.13c-2.89.8-5.51,4.39-5.51,4.39-6.66-3.69-15.47-1.64-19.3,0,0,0-2.62-3.59-5.51-4.39,0,0,4.17-15.12,15.16-15.12S75.39,15.13,75.39,15.13Z"/><path class="cls-32" d="M49,12.16c.05.78,5.69,3.66,11.25,3.66s11-2.41,11.39-2.91S67.77,2.3,60.62,2.3,48.92,11.23,49,12.16Z"/><path class="cls-33" d="M51.24,11.55c0,.62,4.55,2.93,9,2.93s8.82-1.94,9.12-2.34-3.08-8.49-8.81-8.49S51.19,10.8,51.24,11.55Z"/><path class="cls-29" d="M49.93,9.94s5.28-5.62,10.3-5.62,10.49,6,10.49,6-4.31-8-10.1-8S49.93,9.94,49.93,9.94Z"/><path class="cls-12" d="M52.08,11.48c-.46-.32,5.4-1.76,9.37-1.72s6.42,1.58,6.64,2.28S59,16.26,52.08,11.48Z"/><path class="cls-34" d="M55.25,6.77c-2.34,2.5,2.42,2.85,5.86,2.67a3.91,3.91,0,0,0,4-3.6C65,5.4,59,2.72,55.25,6.77Z"/><path class="cls-12" d="M75.39,15.13c-2.89.8-5.51,4.39-5.51,4.39-8.07-2.05-9.81-1-19.3,0,0,0-2.62-3.59-5.51-4.39a3.61,3.61,0,0,1,3.67-1.19c2.51.48,6,3.22,11.49,3.18S70.64,12.92,75.39,15.13Z"/><path class="cls-15" d="M47.26,9.76s5.82-6.87,12.5-7.4,11.89,7.4,11.89,7.4S69.11-.3,60.23,0,47.26,9.76,47.26,9.76Z"/><path class="cls-35" d="M64,1.11c-1.53.13,2.33,3.41,3.21,3.77S67.3.83,64,1.11Z"/><g class="cls-36"><path class="cls-37" d="M53.24,54.39l-.45,4.77-9,.71q.06-3.75.14-7.45c.06-2.47.12-5,.2-7.46h5.59c-.17,1.57-.32,3.14-.47,4.7s-.26,3.14-.33,4.73l1,0h1l1.18,0Z"/><path class="cls-37" d="M66.93,45.46,63,60l-5.33.3-4.83-14,5.09-.47L60,53.94l2-8.81Z"/><path class="cls-37" d="M78,55.1a6.07,6.07,0,0,1-.46,2.48,4.57,4.57,0,0,1-1.27,1.74,5.35,5.35,0,0,1-2,1,8.45,8.45,0,0,1-2.48.34,6.88,6.88,0,0,1-1.26-.12,11.4,11.4,0,0,1-1.28-.32A10.86,10.86,0,0,1,68,59.76a8.34,8.34,0,0,1-1.11-.6l.41-4.32a7.05,7.05,0,0,0,.91.54,9.75,9.75,0,0,0,1,.45,7.09,7.09,0,0,0,1.09.31,5.08,5.08,0,0,0,1.07.12,3.31,3.31,0,0,0,.62,0,2,2,0,0,0,.57-.17,1.11,1.11,0,0,0,.43-.37,1,1,0,0,0,.16-.61.61.61,0,0,0-.21-.44,2,2,0,0,0-.52-.35,3.29,3.29,0,0,0-.62-.23,2.43,2.43,0,0,0-.54-.08L71,54l-.42.05a2.71,2.71,0,0,0-.41.09,1,1,0,0,0-.31.14l.06-3.07.35,0,.34,0a6.33,6.33,0,0,0,.82-.07,3.06,3.06,0,0,0,.81-.25,1.79,1.79,0,0,0,.63-.49,1.25,1.25,0,0,0,.26-.81.84.84,0,0,0-.2-.57,1.27,1.27,0,0,0-.48-.34,2.38,2.38,0,0,0-.61-.16,4.62,4.62,0,0,0-.6,0,5.11,5.11,0,0,0-1.72.3,4.39,4.39,0,0,0-1.49.88l-.9-3.91a7,7,0,0,1,2.25-1.23,8,8,0,0,1,2.54-.43,7.55,7.55,0,0,1,2.24.34,5.9,5.9,0,0,1,1.89,1,4.84,4.84,0,0,1,1.3,1.63,4.94,4.94,0,0,1,.48,2.23,2.71,2.71,0,0,1-.11.74,3.89,3.89,0,0,1-.72,1.4,3.74,3.74,0,0,1-.52.53,2,2,0,0,1,.74.55,2.66,2.66,0,0,1,.46.76,4.23,4.23,0,0,1,.24.88A7.34,7.34,0,0,1,78,55.1Z"/><path class="cls-38" d="M53.24,55.79l-.45,4.77-9,.71q.06-3.75.14-7.45c.06-2.47.12-5,.2-7.46h5.59c-.17,1.57-.32,3.14-.47,4.7s-.26,3.14-.33,4.73l1,0h1l1.18,0Z"/><path class="cls-38" d="M66.93,46.86,63,61.38l-5.33.3-4.83-14,5.09-.47L60,55.34l2-8.81Z"/><path class="cls-38" d="M78,56.5A6.07,6.07,0,0,1,77.49,59a4.57,4.57,0,0,1-1.27,1.74,5.35,5.35,0,0,1-2,1,8.45,8.45,0,0,1-2.48.34A6.88,6.88,0,0,1,70.53,62a11.4,11.4,0,0,1-1.28-.32A10.86,10.86,0,0,1,68,61.16a8.34,8.34,0,0,1-1.11-.6l.41-4.32a7.05,7.05,0,0,0,.91.54,9.75,9.75,0,0,0,1,.45,7.09,7.09,0,0,0,1.09.31,5.08,5.08,0,0,0,1.07.12,3.31,3.31,0,0,0,.62,0,2,2,0,0,0,.57-.17,1.11,1.11,0,0,0,.43-.37,1,1,0,0,0,.16-.61A.61.61,0,0,0,73,56a2,2,0,0,0-.52-.35,3.29,3.29,0,0,0-.62-.23,2.43,2.43,0,0,0-.54-.08l-.36,0-.42,0a2.71,2.71,0,0,0-.41.09,1,1,0,0,0-.31.14l.06-3.07.35,0,.34,0a6.33,6.33,0,0,0,.82-.07,3.06,3.06,0,0,0,.81-.25,1.79,1.79,0,0,0,.63-.49A1.25,1.25,0,0,0,73.1,51a.84.84,0,0,0-.2-.57,1.27,1.27,0,0,0-.48-.34,2.38,2.38,0,0,0-.61-.16,4.62,4.62,0,0,0-.6,0,5.11,5.11,0,0,0-1.72.3,4.39,4.39,0,0,0-1.49.88l-.9-3.91A7,7,0,0,1,69.35,46a8,8,0,0,1,2.54-.43,7.55,7.55,0,0,1,2.24.34,5.9,5.9,0,0,1,1.89,1,4.84,4.84,0,0,1,1.3,1.63,4.94,4.94,0,0,1,.48,2.23,2.71,2.71,0,0,1-.11.74,3.89,3.89,0,0,1-.72,1.4,3.74,3.74,0,0,1-.52.53,2,2,0,0,1,.74.55,2.66,2.66,0,0,1,.46.76,4.23,4.23,0,0,1,.24.88A7.34,7.34,0,0,1,78,56.5Z"/><path class="cls-38" d="M53.24,55.59l-.45,4.77-9,.71q.06-3.75.14-7.45c.06-2.47.12-5,.2-7.46h5.59c-.17,1.57-.32,3.14-.47,4.7S49,54,48.88,55.59l1,0h1l1.18,0Z"/><path class="cls-38" d="M66.93,46.66,63,61.18l-5.33.3-4.83-14L57.93,47,60,55.14l2-8.81Z"/><path class="cls-38" d="M78,56.3a6.07,6.07,0,0,1-.46,2.48,4.57,4.57,0,0,1-1.27,1.74,5.35,5.35,0,0,1-2,1,8.45,8.45,0,0,1-2.48.34,6.88,6.88,0,0,1-1.26-.12,11.4,11.4,0,0,1-1.28-.32A10.86,10.86,0,0,1,68,61a8.34,8.34,0,0,1-1.11-.6L67.32,56a7.05,7.05,0,0,0,.91.54,9.75,9.75,0,0,0,1,.45,7.09,7.09,0,0,0,1.09.31,5.08,5.08,0,0,0,1.07.12,3.31,3.31,0,0,0,.62-.05,2,2,0,0,0,.57-.17,1.11,1.11,0,0,0,.43-.37,1,1,0,0,0,.16-.61.61.61,0,0,0-.21-.44,2,2,0,0,0-.52-.35,3.29,3.29,0,0,0-.62-.23,2.43,2.43,0,0,0-.54-.08l-.36,0-.42,0a2.71,2.71,0,0,0-.41.09,1,1,0,0,0-.31.14l.06-3.07.35,0,.34,0a6.33,6.33,0,0,0,.82-.07,3.06,3.06,0,0,0,.81-.25,1.79,1.79,0,0,0,.63-.49,1.25,1.25,0,0,0,.26-.81.84.84,0,0,0-.2-.57,1.27,1.27,0,0,0-.48-.34,2.38,2.38,0,0,0-.61-.16,4.62,4.62,0,0,0-.6,0,5.11,5.11,0,0,0-1.72.3,4.39,4.39,0,0,0-1.49.88L67.1,47a7,7,0,0,1,2.25-1.23,8,8,0,0,1,2.54-.43,7.55,7.55,0,0,1,2.24.34,5.9,5.9,0,0,1,1.89,1,4.84,4.84,0,0,1,1.3,1.63,4.94,4.94,0,0,1,.48,2.23,2.71,2.71,0,0,1-.11.74,3.89,3.89,0,0,1-.72,1.4,3.74,3.74,0,0,1-.52.53,2,2,0,0,1,.74.55,2.66,2.66,0,0,1,.46.76,4.23,4.23,0,0,1,.24.88A7.34,7.34,0,0,1,78,56.3Z"/><path class="cls-38" d="M53.24,55.39l-.45,4.77-9,.71q.06-3.75.14-7.45c.06-2.47.12-5,.2-7.46h5.59c-.17,1.57-.32,3.14-.47,4.7s-.26,3.14-.33,4.73l1,0h1l1.18,0Z"/><path class="cls-38" d="M66.93,46.46,63,61l-5.33.3-4.83-14,5.09-.47L60,54.94l2-8.81Z"/><path class="cls-38" d="M78,56.1a6.07,6.07,0,0,1-.46,2.48,4.57,4.57,0,0,1-1.27,1.74,5.35,5.35,0,0,1-2,1,8.45,8.45,0,0,1-2.48.34,6.88,6.88,0,0,1-1.26-.12,11.4,11.4,0,0,1-1.28-.32A10.86,10.86,0,0,1,68,60.76a8.34,8.34,0,0,1-1.11-.6l.41-4.32a7.05,7.05,0,0,0,.91.54,9.75,9.75,0,0,0,1,.45,7.09,7.09,0,0,0,1.09.31,5.08,5.08,0,0,0,1.07.12,3.31,3.31,0,0,0,.62,0,2,2,0,0,0,.57-.17,1.11,1.11,0,0,0,.43-.37,1,1,0,0,0,.16-.61.61.61,0,0,0-.21-.44,2,2,0,0,0-.52-.35,3.29,3.29,0,0,0-.62-.23,2.43,2.43,0,0,0-.54-.08L71,55l-.42.05a2.71,2.71,0,0,0-.41.09,1,1,0,0,0-.31.14l.06-3.07.35,0,.34,0a6.33,6.33,0,0,0,.82-.07,3.06,3.06,0,0,0,.81-.25,1.79,1.79,0,0,0,.63-.49,1.25,1.25,0,0,0,.26-.81.84.84,0,0,0-.2-.57,1.27,1.27,0,0,0-.48-.34,2.38,2.38,0,0,0-.61-.16,4.62,4.62,0,0,0-.6,0,5.11,5.11,0,0,0-1.72.3,4.39,4.39,0,0,0-1.49.88l-.9-3.91a7,7,0,0,1,2.25-1.23,8,8,0,0,1,2.54-.43,7.55,7.55,0,0,1,2.24.34,5.9,5.9,0,0,1,1.89,1,4.84,4.84,0,0,1,1.3,1.63,4.94,4.94,0,0,1,.48,2.23,2.71,2.71,0,0,1-.11.74,3.89,3.89,0,0,1-.72,1.4,3.74,3.74,0,0,1-.52.53,2,2,0,0,1,.74.55,2.66,2.66,0,0,1,.46.76,4.23,4.23,0,0,1,.24.88A7.34,7.34,0,0,1,78,56.1Z"/><path class="cls-38" d="M53.24,55.19,52.79,60l-9,.71q.06-3.75.14-7.45c.06-2.47.12-5,.2-7.46h5.59c-.17,1.57-.32,3.14-.47,4.7s-.26,3.14-.33,4.73l1,0h1l1.18,0Z"/><path class="cls-38" d="M66.93,46.26,63,60.78l-5.33.3-4.83-14,5.09-.47L60,54.74l2-8.81Z"/><path class="cls-38" d="M78,55.9a6.07,6.07,0,0,1-.46,2.48,4.57,4.57,0,0,1-1.27,1.74,5.35,5.35,0,0,1-2,1,8.45,8.45,0,0,1-2.48.34,6.88,6.88,0,0,1-1.26-.12,11.4,11.4,0,0,1-1.28-.32A10.86,10.86,0,0,1,68,60.56a8.34,8.34,0,0,1-1.11-.6l.41-4.32a7.05,7.05,0,0,0,.91.54,9.75,9.75,0,0,0,1,.45,7.09,7.09,0,0,0,1.09.31,5.08,5.08,0,0,0,1.07.12,3.31,3.31,0,0,0,.62-.05,2,2,0,0,0,.57-.17,1.11,1.11,0,0,0,.43-.37,1,1,0,0,0,.16-.61.61.61,0,0,0-.21-.44,2,2,0,0,0-.52-.35,3.29,3.29,0,0,0-.62-.23,2.43,2.43,0,0,0-.54-.08l-.36,0-.42,0a2.71,2.71,0,0,0-.41.09,1,1,0,0,0-.31.14L69.89,52l.35,0,.34,0A6.33,6.33,0,0,0,71.4,52a3.06,3.06,0,0,0,.81-.25,1.79,1.79,0,0,0,.63-.49,1.25,1.25,0,0,0,.26-.81.84.84,0,0,0-.2-.57,1.27,1.27,0,0,0-.48-.34,2.38,2.38,0,0,0-.61-.16,4.62,4.62,0,0,0-.6,0,5.11,5.11,0,0,0-1.72.3,4.39,4.39,0,0,0-1.49.88l-.9-3.91a7,7,0,0,1,2.25-1.23,8,8,0,0,1,2.54-.43,7.55,7.55,0,0,1,2.24.34,5.9,5.9,0,0,1,1.89,1,4.84,4.84,0,0,1,1.3,1.63,4.94,4.94,0,0,1,.48,2.23,2.71,2.71,0,0,1-.11.74,3.89,3.89,0,0,1-.72,1.4,3.74,3.74,0,0,1-.52.53,2,2,0,0,1,.74.55,2.66,2.66,0,0,1,.46.76,4.23,4.23,0,0,1,.24.88A7.34,7.34,0,0,1,78,55.9Z"/><path class="cls-38" d="M53.24,55l-.45,4.77-9,.71q.06-3.75.14-7.45c.06-2.47.12-5,.2-7.46h5.59c-.17,1.57-.32,3.14-.47,4.7S49,53.4,48.88,55l1,0h1l1.18,0Z"/><path class="cls-38" d="M66.93,46.06,63,60.58l-5.33.3-4.83-14,5.09-.47L60,54.54l2-8.81Z"/><path class="cls-38" d="M78,55.7a6.07,6.07,0,0,1-.46,2.48,4.57,4.57,0,0,1-1.27,1.74,5.35,5.35,0,0,1-2,1,8.45,8.45,0,0,1-2.48.34,6.88,6.88,0,0,1-1.26-.12,11.4,11.4,0,0,1-1.28-.32A10.86,10.86,0,0,1,68,60.36a8.34,8.34,0,0,1-1.11-.6l.41-4.32a7.05,7.05,0,0,0,.91.54,9.75,9.75,0,0,0,1,.45,7.09,7.09,0,0,0,1.09.31,5.08,5.08,0,0,0,1.07.12,3.31,3.31,0,0,0,.62,0,2,2,0,0,0,.57-.17,1.11,1.11,0,0,0,.43-.37,1,1,0,0,0,.16-.61.61.61,0,0,0-.21-.44,2,2,0,0,0-.52-.35,3.29,3.29,0,0,0-.62-.23,2.43,2.43,0,0,0-.54-.08l-.36,0-.42.05a2.71,2.71,0,0,0-.41.09,1,1,0,0,0-.31.14l.06-3.07.35,0,.34,0a6.33,6.33,0,0,0,.82-.07,3.06,3.06,0,0,0,.81-.25,1.79,1.79,0,0,0,.63-.49,1.25,1.25,0,0,0,.26-.81.84.84,0,0,0-.2-.57,1.27,1.27,0,0,0-.48-.34,2.38,2.38,0,0,0-.61-.16,4.62,4.62,0,0,0-.6,0,5.11,5.11,0,0,0-1.72.3,4.39,4.39,0,0,0-1.49.88l-.9-3.91a7,7,0,0,1,2.25-1.23,8,8,0,0,1,2.54-.43,7.55,7.55,0,0,1,2.24.34,5.9,5.9,0,0,1,1.89,1,4.84,4.84,0,0,1,1.3,1.63,4.94,4.94,0,0,1,.48,2.23,2.71,2.71,0,0,1-.11.74,3.89,3.89,0,0,1-.72,1.4,3.74,3.74,0,0,1-.52.53,2,2,0,0,1,.74.55,2.66,2.66,0,0,1,.46.76,4.23,4.23,0,0,1,.24.88A7.34,7.34,0,0,1,78,55.7Z"/><path class="cls-38" d="M53.24,54.79l-.45,4.77-9,.71q.06-3.75.14-7.45c.06-2.47.12-5,.2-7.46h5.59c-.17,1.57-.32,3.14-.47,4.7s-.26,3.14-.33,4.73l1,0h1l1.18,0Z"/><path class="cls-38" d="M66.93,45.86,63,60.38l-5.33.3-4.83-14,5.09-.47L60,54.34l2-8.81Z"/><path class="cls-38" d="M78,55.5A6.07,6.07,0,0,1,77.49,58a4.57,4.57,0,0,1-1.27,1.74,5.35,5.35,0,0,1-2,1,8.45,8.45,0,0,1-2.48.34A6.88,6.88,0,0,1,70.53,61a11.4,11.4,0,0,1-1.28-.32A10.86,10.86,0,0,1,68,60.16a8.34,8.34,0,0,1-1.11-.6l.41-4.32a7.05,7.05,0,0,0,.91.54,9.75,9.75,0,0,0,1,.45,7.09,7.09,0,0,0,1.09.31,5.08,5.08,0,0,0,1.07.12,3.31,3.31,0,0,0,.62,0,2,2,0,0,0,.57-.17,1.11,1.11,0,0,0,.43-.37,1,1,0,0,0,.16-.61A.61.61,0,0,0,73,55a2,2,0,0,0-.52-.35,3.29,3.29,0,0,0-.62-.23,2.43,2.43,0,0,0-.54-.08l-.36,0-.42,0a2.71,2.71,0,0,0-.41.09,1,1,0,0,0-.31.14l.06-3.07.35,0,.34,0a6.33,6.33,0,0,0,.82-.07,3.06,3.06,0,0,0,.81-.25,1.79,1.79,0,0,0,.63-.49A1.25,1.25,0,0,0,73.1,50a.84.84,0,0,0-.2-.57,1.27,1.27,0,0,0-.48-.34,2.38,2.38,0,0,0-.61-.16,4.62,4.62,0,0,0-.6,0,5.11,5.11,0,0,0-1.72.3,4.39,4.39,0,0,0-1.49.88l-.9-3.91A7,7,0,0,1,69.35,45a8,8,0,0,1,2.54-.43,7.55,7.55,0,0,1,2.24.34,5.9,5.9,0,0,1,1.89,1,4.84,4.84,0,0,1,1.3,1.63,4.94,4.94,0,0,1,.48,2.23,2.71,2.71,0,0,1-.11.74,3.89,3.89,0,0,1-.72,1.4,3.74,3.74,0,0,1-.52.53,2,2,0,0,1,.74.55,2.66,2.66,0,0,1,.46.76,4.23,4.23,0,0,1,.24.88A7.34,7.34,0,0,1,78,55.5Z"/><path class="cls-38" d="M53.24,54.59l-.45,4.77-9,.71q.06-3.75.14-7.45c.06-2.47.12-5,.2-7.46h5.59c-.17,1.57-.32,3.14-.47,4.7S49,53,48.88,54.59l1,0h1l1.18,0Z"/><path class="cls-38" d="M66.93,45.66,63,60.18l-5.33.3-4.83-14L57.93,46,60,54.14l2-8.81Z"/><path class="cls-38" d="M78,55.3a6.07,6.07,0,0,1-.46,2.48,4.57,4.57,0,0,1-1.27,1.74,5.35,5.35,0,0,1-2,1,8.45,8.45,0,0,1-2.48.34,6.88,6.88,0,0,1-1.26-.12,11.4,11.4,0,0,1-1.28-.32A10.86,10.86,0,0,1,68,60a8.34,8.34,0,0,1-1.11-.6L67.32,55a7.05,7.05,0,0,0,.91.54,9.75,9.75,0,0,0,1,.45,7.09,7.09,0,0,0,1.09.31,5.08,5.08,0,0,0,1.07.12,3.31,3.31,0,0,0,.62-.05,2,2,0,0,0,.57-.17,1.11,1.11,0,0,0,.43-.37,1,1,0,0,0,.16-.61.61.61,0,0,0-.21-.44,2,2,0,0,0-.52-.35,3.29,3.29,0,0,0-.62-.23,2.43,2.43,0,0,0-.54-.08l-.36,0-.42,0a2.71,2.71,0,0,0-.41.09,1,1,0,0,0-.31.14l.06-3.07.35,0,.34,0a6.33,6.33,0,0,0,.82-.07,3.06,3.06,0,0,0,.81-.25,1.79,1.79,0,0,0,.63-.49,1.25,1.25,0,0,0,.26-.81.84.84,0,0,0-.2-.57,1.27,1.27,0,0,0-.48-.34,2.38,2.38,0,0,0-.61-.16,4.62,4.62,0,0,0-.6,0,5.11,5.11,0,0,0-1.72.3,4.39,4.39,0,0,0-1.49.88L67.1,46a7,7,0,0,1,2.25-1.23,8,8,0,0,1,2.54-.43,7.55,7.55,0,0,1,2.24.34,5.9,5.9,0,0,1,1.89,1,4.84,4.84,0,0,1,1.3,1.63,4.94,4.94,0,0,1,.48,2.23,2.71,2.71,0,0,1-.11.74,3.89,3.89,0,0,1-.72,1.4,3.74,3.74,0,0,1-.52.53,2,2,0,0,1,.74.55,2.66,2.66,0,0,1,.46.76,4.23,4.23,0,0,1,.24.88A7.34,7.34,0,0,1,78,55.3Z"/><path class="cls-38" d="M53.24,54.39l-.45,4.77-9,.71q.06-3.75.14-7.45c.06-2.47.12-5,.2-7.46h5.59c-.17,1.57-.32,3.14-.47,4.7s-.26,3.14-.33,4.73l1,0h1l1.18,0Z"/><path class="cls-38" d="M66.93,45.46,63,60l-5.33.3-4.83-14,5.09-.47L60,53.94l2-8.81Z"/><path class="cls-38" d="M78,55.1a6.07,6.07,0,0,1-.46,2.48,4.57,4.57,0,0,1-1.27,1.74,5.35,5.35,0,0,1-2,1,8.45,8.45,0,0,1-2.48.34,6.88,6.88,0,0,1-1.26-.12,11.4,11.4,0,0,1-1.28-.32A10.86,10.86,0,0,1,68,59.76a8.34,8.34,0,0,1-1.11-.6l.41-4.32a7.05,7.05,0,0,0,.91.54,9.75,9.75,0,0,0,1,.45,7.09,7.09,0,0,0,1.09.31,5.08,5.08,0,0,0,1.07.12,3.31,3.31,0,0,0,.62,0,2,2,0,0,0,.57-.17,1.11,1.11,0,0,0,.43-.37,1,1,0,0,0,.16-.61.61.61,0,0,0-.21-.44,2,2,0,0,0-.52-.35,3.29,3.29,0,0,0-.62-.23,2.43,2.43,0,0,0-.54-.08L71,54l-.42.05a2.71,2.71,0,0,0-.41.09,1,1,0,0,0-.31.14l.06-3.07.35,0,.34,0a6.33,6.33,0,0,0,.82-.07,3.06,3.06,0,0,0,.81-.25,1.79,1.79,0,0,0,.63-.49,1.25,1.25,0,0,0,.26-.81.84.84,0,0,0-.2-.57,1.27,1.27,0,0,0-.48-.34,2.38,2.38,0,0,0-.61-.16,4.62,4.62,0,0,0-.6,0,5.11,5.11,0,0,0-1.72.3,4.39,4.39,0,0,0-1.49.88l-.9-3.91a7,7,0,0,1,2.25-1.23,8,8,0,0,1,2.54-.43,7.55,7.55,0,0,1,2.24.34,5.9,5.9,0,0,1,1.89,1,4.84,4.84,0,0,1,1.3,1.63,4.94,4.94,0,0,1,.48,2.23,2.71,2.71,0,0,1-.11.74,3.89,3.89,0,0,1-.72,1.4,3.74,3.74,0,0,1-.52.53,2,2,0,0,1,.74.55,2.66,2.66,0,0,1,.46.76,4.23,4.23,0,0,1,.24.88A7.34,7.34,0,0,1,78,55.1Z"/><path class="cls-39" d="M53.24,54.19,52.79,59l-9,.71q.06-3.75.14-7.45c.06-2.47.12-5,.2-7.46h5.59c-.17,1.57-.32,3.14-.47,4.7s-.26,3.14-.33,4.73l1,0h1l1.18,0Z"/><path class="cls-39" d="M66.93,45.26,63,59.78l-5.33.3-4.83-14,5.09-.47L60,53.74l2-8.81Z"/><path class="cls-39" d="M78,54.9a6.07,6.07,0,0,1-.46,2.48,4.57,4.57,0,0,1-1.27,1.74,5.35,5.35,0,0,1-2,1,8.45,8.45,0,0,1-2.48.34,6.88,6.88,0,0,1-1.26-.12,11.4,11.4,0,0,1-1.28-.32A10.86,10.86,0,0,1,68,59.56a8.34,8.34,0,0,1-1.11-.6l.41-4.32a7.05,7.05,0,0,0,.91.54,9.75,9.75,0,0,0,1,.45,7.09,7.09,0,0,0,1.09.31,5.08,5.08,0,0,0,1.07.12,3.31,3.31,0,0,0,.62-.05,2,2,0,0,0,.57-.17,1.11,1.11,0,0,0,.43-.37,1,1,0,0,0,.16-.61.61.61,0,0,0-.21-.44,2,2,0,0,0-.52-.35,3.29,3.29,0,0,0-.62-.23,2.43,2.43,0,0,0-.54-.08l-.36,0-.42,0a2.71,2.71,0,0,0-.41.09,1,1,0,0,0-.31.14L69.89,51l.35,0,.34,0A6.33,6.33,0,0,0,71.4,51a3.06,3.06,0,0,0,.81-.25,1.79,1.79,0,0,0,.63-.49,1.25,1.25,0,0,0,.26-.81.84.84,0,0,0-.2-.57,1.27,1.27,0,0,0-.48-.34,2.38,2.38,0,0,0-.61-.16,4.62,4.62,0,0,0-.6,0,5.11,5.11,0,0,0-1.72.3,4.39,4.39,0,0,0-1.49.88l-.9-3.91a7,7,0,0,1,2.25-1.23,8,8,0,0,1,2.54-.43,7.55,7.55,0,0,1,2.24.34,5.9,5.9,0,0,1,1.89,1,4.84,4.84,0,0,1,1.3,1.63,4.94,4.94,0,0,1,.48,2.23,2.71,2.71,0,0,1-.11.74,3.89,3.89,0,0,1-.72,1.4,3.74,3.74,0,0,1-.52.53,2,2,0,0,1,.74.55,2.66,2.66,0,0,1,.46.76,4.23,4.23,0,0,1,.24.88A7.34,7.34,0,0,1,78,54.9Z"/><path class="cls-37" d="M53.24,54.39l-.45,4.77-9,.71q.06-3.75.14-7.45c.06-2.47.12-5,.2-7.46h5.59c-.17,1.57-.32,3.14-.47,4.7s-.26,3.14-.33,4.73l1,0h1l1.18,0Z"/><path class="cls-37" d="M66.93,45.46,63,60l-5.33.3-4.83-14,5.09-.47L60,53.94l2-8.81Z"/><path class="cls-37" d="M78,55.1a6.07,6.07,0,0,1-.46,2.48,4.57,4.57,0,0,1-1.27,1.74,5.35,5.35,0,0,1-2,1,8.45,8.45,0,0,1-2.48.34,6.88,6.88,0,0,1-1.26-.12,11.4,11.4,0,0,1-1.28-.32A10.86,10.86,0,0,1,68,59.76a8.34,8.34,0,0,1-1.11-.6l.41-4.32a7.05,7.05,0,0,0,.91.54,9.75,9.75,0,0,0,1,.45,7.09,7.09,0,0,0,1.09.31,5.08,5.08,0,0,0,1.07.12,3.31,3.31,0,0,0,.62,0,2,2,0,0,0,.57-.17,1.11,1.11,0,0,0,.43-.37,1,1,0,0,0,.16-.61.61.61,0,0,0-.21-.44,2,2,0,0,0-.52-.35,3.29,3.29,0,0,0-.62-.23,2.43,2.43,0,0,0-.54-.08L71,54l-.42.05a2.71,2.71,0,0,0-.41.09,1,1,0,0,0-.31.14l.06-3.07.35,0,.34,0a6.33,6.33,0,0,0,.82-.07,3.06,3.06,0,0,0,.81-.25,1.79,1.79,0,0,0,.63-.49,1.25,1.25,0,0,0,.26-.81.84.84,0,0,0-.2-.57,1.27,1.27,0,0,0-.48-.34,2.38,2.38,0,0,0-.61-.16,4.62,4.62,0,0,0-.6,0,5.11,5.11,0,0,0-1.72.3,4.39,4.39,0,0,0-1.49.88l-.9-3.91a7,7,0,0,1,2.25-1.23,8,8,0,0,1,2.54-.43,7.55,7.55,0,0,1,2.24.34,5.9,5.9,0,0,1,1.89,1,4.84,4.84,0,0,1,1.3,1.63,4.94,4.94,0,0,1,.48,2.23,2.71,2.71,0,0,1-.11.74,3.89,3.89,0,0,1-.72,1.4,3.74,3.74,0,0,1-.52.53,2,2,0,0,1,.74.55,2.66,2.66,0,0,1,.46.76,4.23,4.23,0,0,1,.24.88A7.34,7.34,0,0,1,78,55.1Z"/></g><path class="cls-35" d="M53.24,52.39l-.45,4.77-9,.71q.06-3.75.14-7.45c.06-2.47.12-5,.2-7.46h5.59c-.17,1.57-.32,3.14-.47,4.7s-.26,3.14-.33,4.73l1,0h1l1.18,0Z"/><path class="cls-35" d="M66.93,43.46,63,58l-5.33.3-4.83-14,5.09-.47L60,51.94l2-8.81Z"/><path class="cls-35" d="M78,53.1a6.07,6.07,0,0,1-.46,2.48,4.57,4.57,0,0,1-1.27,1.74,5.35,5.35,0,0,1-2,1,8.45,8.45,0,0,1-2.48.34,6.88,6.88,0,0,1-1.26-.12,11.4,11.4,0,0,1-1.28-.32A10.86,10.86,0,0,1,68,57.76a8.34,8.34,0,0,1-1.11-.6l.41-4.32a7.05,7.05,0,0,0,.91.54,9.75,9.75,0,0,0,1,.45,7.09,7.09,0,0,0,1.09.31,5.08,5.08,0,0,0,1.07.12,3.31,3.31,0,0,0,.62,0,2,2,0,0,0,.57-.17,1.11,1.11,0,0,0,.43-.37,1,1,0,0,0,.16-.61.61.61,0,0,0-.21-.44,2,2,0,0,0-.52-.35,3.29,3.29,0,0,0-.62-.23,2.43,2.43,0,0,0-.54-.08L71,52l-.42.05a2.71,2.71,0,0,0-.41.09,1,1,0,0,0-.31.14l.06-3.07.35,0,.34,0a6.33,6.33,0,0,0,.82-.07,3.06,3.06,0,0,0,.81-.25,1.79,1.79,0,0,0,.63-.49,1.25,1.25,0,0,0,.26-.81.84.84,0,0,0-.2-.57,1.27,1.27,0,0,0-.48-.34,2.38,2.38,0,0,0-.61-.16,4.62,4.62,0,0,0-.6,0,5.11,5.11,0,0,0-1.72.3,4.39,4.39,0,0,0-1.49.88l-.9-3.91a7,7,0,0,1,2.25-1.23,8,8,0,0,1,2.54-.43,7.55,7.55,0,0,1,2.24.34,5.9,5.9,0,0,1,1.89,1,4.84,4.84,0,0,1,1.3,1.63,4.94,4.94,0,0,1,.48,2.23,2.71,2.71,0,0,1-.11.74,3.89,3.89,0,0,1-.72,1.4,3.74,3.74,0,0,1-.52.53,2,2,0,0,1,.74.55,2.66,2.66,0,0,1,.46.76,4.23,4.23,0,0,1,.24.88A7.34,7.34,0,0,1,78,53.1Z"/><path class="cls-40" d="M43.75,59.65a.4.4,0,0,1-.26-.1.39.39,0,0,1-.12-.28c.05-2.5.09-5,.15-7.46s.12-5,.2-7.46a.37.37,0,0,1,.37-.36h5.59a.38.38,0,0,1,.28.12.39.39,0,0,1,.09.29c-.16,1.57-.32,3.13-.47,4.7s-.24,2.88-.31,4.33h4a.36.36,0,0,1,.28.12.38.38,0,0,1,.1.29l-.45,4.77a.39.39,0,0,1-.35.34l-9,.71Zm.71-14.91c-.08,2.37-.14,4.74-.19,7.09s-.1,4.68-.14,7l8.32-.66.38-4H49.88l-1,0a.37.37,0,0,1-.36-.39c.06-1.59.17-3.19.32-4.75s.28-2.86.43-4.29Z"/><path class="cls-41" d="M57.67,60.06a.38.38,0,0,1-.35-.26l-4.84-14a.36.36,0,0,1,0-.32.37.37,0,0,1,.28-.17l5.09-.48a.4.4,0,0,1,.4.29L60,51.73l1.65-7.28a.38.38,0,0,1,.39-.29l4.94.32a.37.37,0,0,1,.28.16.35.35,0,0,1,.06.31L63.36,59.48a.38.38,0,0,1-.34.27l-5.33.3ZM53.35,46l4.58,13.31L62.71,59,66.45,45.2l-4.17-.27-1.92,8.5a.38.38,0,0,1-.36.29.37.37,0,0,1-.37-.29l-2-7.85Z"/><path class="cls-42" d="M71.79,60.46a7.65,7.65,0,0,1-1.33-.12A10.76,10.76,0,0,1,69.13,60a9.9,9.9,0,0,1-1.27-.51,11.35,11.35,0,0,1-1.15-.62.35.35,0,0,1-.17-.35l.4-4.32a.42.42,0,0,1,.22-.31.38.38,0,0,1,.37,0,7.7,7.7,0,0,0,.87.5,10.25,10.25,0,0,0,1,.44,9.49,9.49,0,0,0,1,.3,4.28,4.28,0,0,0,1.55.06,1.43,1.43,0,0,0,.47-.14.92.92,0,0,0,.28-.24.68.68,0,0,0,.1-.4.24.24,0,0,0-.1-.17,1.47,1.47,0,0,0-.42-.28,2.79,2.79,0,0,0-.55-.2,1.62,1.62,0,0,0-.78-.06l-.39,0-.37.08a.63.63,0,0,0-.18.08.36.36,0,0,1-.4,0,.35.35,0,0,1-.2-.34l.06-3.08a.37.37,0,0,1,.13-.27.39.39,0,0,1,.29-.09l.32,0a5.14,5.14,0,0,0,1.08,0,3,3,0,0,0,.71-.22,1.3,1.3,0,0,0,.5-.39.83.83,0,0,0,.17-.57.44.44,0,0,0-.1-.32.76.76,0,0,0-.34-.24,2.09,2.09,0,0,0-.52-.14c-.21,0-.39,0-.55,0a4.84,4.84,0,0,0-1.59.28,4,4,0,0,0-1.36.81.38.38,0,0,1-.37.08.37.37,0,0,1-.25-.28l-.9-3.91a.35.35,0,0,1,.12-.37,7.69,7.69,0,0,1,2.37-1.3,8.14,8.14,0,0,1,5-.08,5.91,5.91,0,0,1,2,1.06,5.1,5.1,0,0,1,1.4,1.75,5.3,5.3,0,0,1,.53,2.4,3.19,3.19,0,0,1-.13.85,4.13,4.13,0,0,1-.31.8,5,5,0,0,1-.47.72l-.2.23a2,2,0,0,1,.4.37,3.33,3.33,0,0,1,.53.86,4.56,4.56,0,0,1,.26,1,8.2,8.2,0,0,1,.07,1,6.63,6.63,0,0,1-.49,2.63A5,5,0,0,1,76.46,59a5.62,5.62,0,0,1-2.08,1.11A9.27,9.27,0,0,1,71.79,60.46Zm-4.49-2.1a8.13,8.13,0,0,0,.88.46,10,10,0,0,0,1.18.47,9,9,0,0,0,1.24.31,7.57,7.57,0,0,0,3.56-.21,4.87,4.87,0,0,0,1.82-1,4.32,4.32,0,0,0,1.17-1.6,5.87,5.87,0,0,0,.43-2.33,6.33,6.33,0,0,0-.06-.86,3.06,3.06,0,0,0-.22-.8,2.33,2.33,0,0,0-.4-.66,1.57,1.57,0,0,0-.61-.45.35.35,0,0,1-.21-.29.36.36,0,0,1,.13-.34,3.05,3.05,0,0,0,.47-.48,3.43,3.43,0,0,0,.39-.6,3.12,3.12,0,0,0,.26-.66,2.43,2.43,0,0,0,.1-.64A4.5,4.5,0,0,0,77,46.66a4.44,4.44,0,0,0-1.2-1.51A5.3,5.3,0,0,0,74,44.22a7.38,7.38,0,0,0-4.55.08,7,7,0,0,0-2,1l.72,3.1a4.82,4.82,0,0,1,1.13-.58,5.57,5.57,0,0,1,1.84-.32,5.27,5.27,0,0,1,.64,0,2.71,2.71,0,0,1,.72.18,1.71,1.71,0,0,1,.61.44,1.23,1.23,0,0,1,.29.82,1.6,1.6,0,0,1-.34,1,2.19,2.19,0,0,1-.75.59,4.09,4.09,0,0,1-.92.28,5.63,5.63,0,0,1-1.2.06l0,2.11.27,0A3.8,3.8,0,0,1,71,53a2.67,2.67,0,0,1,1,.07,3.66,3.66,0,0,1,.7.25,2.44,2.44,0,0,1,.61.42,1,1,0,0,1,.33.71,1.4,1.4,0,0,1-.8,1.31,2.09,2.09,0,0,1-.68.22,4.91,4.91,0,0,1-1.83-.08,7.78,7.78,0,0,1-1.14-.33c-.38-.14-.74-.3-1.09-.47-.15-.07-.29-.15-.43-.23Z"/><path class="cls-43" d="M43.75,59.45a.4.4,0,0,1-.26-.1.39.39,0,0,1-.12-.28c.05-2.5.09-5,.15-7.46s.12-5,.2-7.46a.37.37,0,0,1,.37-.36h5.59a.38.38,0,0,1,.28.12.39.39,0,0,1,.09.29c-.16,1.57-.32,3.13-.47,4.7s-.24,2.88-.31,4.33h4a.36.36,0,0,1,.28.12.38.38,0,0,1,.1.29l-.45,4.77a.39.39,0,0,1-.35.34l-9,.71Zm.71-14.91c-.08,2.37-.14,4.74-.19,7.09s-.1,4.68-.14,7L52.45,58l.38-4H49.88l-1,0a.37.37,0,0,1-.36-.39c.06-1.59.17-3.19.32-4.75s.28-2.86.43-4.29Z"/><path class="cls-44" d="M57.67,59.86a.38.38,0,0,1-.35-.26l-4.84-14a.36.36,0,0,1,0-.32.37.37,0,0,1,.28-.17l5.09-.47a.38.38,0,0,1,.4.28L60,51.53l1.65-7.28A.38.38,0,0,1,62,44l4.94.32a.37.37,0,0,1,.28.16.35.35,0,0,1,.06.31L63.36,59.28a.36.36,0,0,1-.34.27l-5.33.31ZM53.35,45.78l4.58,13.31,4.78-.27L66.45,45l-4.17-.27-1.92,8.5a.38.38,0,0,1-.36.29.34.34,0,0,1-.37-.29l-2-7.85Z"/><path class="cls-45" d="M71.79,60.26a7.65,7.65,0,0,1-1.33-.12,10.76,10.76,0,0,1-1.33-.33,9.9,9.9,0,0,1-1.27-.51,11.35,11.35,0,0,1-1.15-.62.35.35,0,0,1-.17-.35l.4-4.32a.38.38,0,0,1,.22-.3.35.35,0,0,1,.37,0,7.7,7.7,0,0,0,.87.5,10.25,10.25,0,0,0,1,.44,9.49,9.49,0,0,0,1,.3A4.07,4.07,0,0,0,72,55a1.43,1.43,0,0,0,.47-.14.92.92,0,0,0,.28-.24.68.68,0,0,0,.1-.4.24.24,0,0,0-.1-.17,1.47,1.47,0,0,0-.42-.28,2.79,2.79,0,0,0-.55-.2,1.62,1.62,0,0,0-.78-.06l-.39.05-.37.08a.63.63,0,0,0-.18.08.36.36,0,0,1-.4,0,.35.35,0,0,1-.2-.34l.06-3.08a.37.37,0,0,1,.13-.27.39.39,0,0,1,.29-.09l.32,0a5.14,5.14,0,0,0,1.08,0,3,3,0,0,0,.71-.22,1.3,1.3,0,0,0,.5-.39.83.83,0,0,0,.17-.57.44.44,0,0,0-.1-.32.84.84,0,0,0-.34-.24,2.09,2.09,0,0,0-.52-.14c-.21,0-.39,0-.55,0a4.84,4.84,0,0,0-1.59.28,4,4,0,0,0-1.36.81.38.38,0,0,1-.37.08.37.37,0,0,1-.25-.28l-.9-3.91a.35.35,0,0,1,.12-.37,7.69,7.69,0,0,1,2.37-1.3,8.14,8.14,0,0,1,5-.08,5.91,5.91,0,0,1,2,1.06,5.1,5.1,0,0,1,1.4,1.75,5.3,5.3,0,0,1,.53,2.4,3.19,3.19,0,0,1-.13.85,4.13,4.13,0,0,1-.31.8,5,5,0,0,1-.47.72c-.07.08-.13.16-.2.23a2,2,0,0,1,.4.37,3.22,3.22,0,0,1,.53.87,4.33,4.33,0,0,1,.26,1,8.2,8.2,0,0,1,.07,1,6.63,6.63,0,0,1-.49,2.63,5,5,0,0,1-1.38,1.87,5.62,5.62,0,0,1-2.08,1.11A9.27,9.27,0,0,1,71.79,60.26Zm-4.49-2.1c.28.17.57.32.88.47a12,12,0,0,0,1.18.46,9,9,0,0,0,1.24.31,7.57,7.57,0,0,0,3.56-.21,4.87,4.87,0,0,0,1.82-1,4.32,4.32,0,0,0,1.17-1.6,5.87,5.87,0,0,0,.43-2.33,6.33,6.33,0,0,0-.06-.86,3.06,3.06,0,0,0-.22-.8,2.48,2.48,0,0,0-.4-.66,1.57,1.57,0,0,0-.61-.45.35.35,0,0,1-.21-.29.36.36,0,0,1,.13-.34,3.05,3.05,0,0,0,.47-.48,3.43,3.43,0,0,0,.39-.6,3.12,3.12,0,0,0,.26-.66,2.37,2.37,0,0,0,.1-.64A4.5,4.5,0,0,0,77,46.46,4.44,4.44,0,0,0,75.78,45,5.3,5.3,0,0,0,74,44a7.46,7.46,0,0,0-4.55.08,7,7,0,0,0-2,1l.72,3.1a4.82,4.82,0,0,1,1.13-.58,5.57,5.57,0,0,1,1.84-.32,5.27,5.27,0,0,1,.64.05,2.39,2.39,0,0,1,.72.19,1.57,1.57,0,0,1,.61.43,1.23,1.23,0,0,1,.29.82,1.6,1.6,0,0,1-.34,1,2.07,2.07,0,0,1-.75.59,4.09,4.09,0,0,1-.92.28,5.63,5.63,0,0,1-1.2.06l0,2.11.27,0,.46,0a2.67,2.67,0,0,1,1,.07,4.5,4.5,0,0,1,.7.25,2.44,2.44,0,0,1,.61.42,1,1,0,0,1,.33.71,1.4,1.4,0,0,1-.8,1.31,2.09,2.09,0,0,1-.68.22,4.91,4.91,0,0,1-1.83-.08,7.78,7.78,0,0,1-1.14-.33,9.67,9.67,0,0,1-1.09-.47c-.15-.07-.29-.15-.43-.23Z"/><path class="cls-46" d="M43.75,59.25a.4.4,0,0,1-.26-.1.39.39,0,0,1-.12-.28c.05-2.5.09-5,.15-7.46s.12-5,.2-7.46a.37.37,0,0,1,.37-.36h5.59a.38.38,0,0,1,.28.12.39.39,0,0,1,.09.29c-.16,1.57-.32,3.13-.47,4.7s-.24,2.88-.31,4.33h4a.36.36,0,0,1,.28.12.38.38,0,0,1,.1.29l-.45,4.77a.39.39,0,0,1-.35.34l-9,.71Zm.71-14.91c-.08,2.37-.14,4.74-.19,7.09s-.1,4.68-.14,7l8.32-.66.38-4H49.88l-1,0a.37.37,0,0,1-.36-.39c.06-1.59.17-3.19.32-4.75s.28-2.86.43-4.29Z"/><path class="cls-47" d="M57.67,59.66a.38.38,0,0,1-.35-.26l-4.84-14a.36.36,0,0,1,0-.32.37.37,0,0,1,.28-.17l5.09-.48a.4.4,0,0,1,.4.29L60,51.33l1.65-7.28a.39.39,0,0,1,.39-.29l4.94.32a.37.37,0,0,1,.28.16.35.35,0,0,1,.06.31L63.36,59.08a.38.38,0,0,1-.34.27l-5.33.3ZM53.35,45.58l4.58,13.31,4.78-.27L66.45,44.8l-4.17-.27L60.36,53a.38.38,0,0,1-.36.29.36.36,0,0,1-.37-.29l-2-7.85Z"/><path class="cls-48" d="M71.79,60.06a7.65,7.65,0,0,1-1.33-.12,10.76,10.76,0,0,1-1.33-.33,9.9,9.9,0,0,1-1.27-.51,11.35,11.35,0,0,1-1.15-.62.35.35,0,0,1-.17-.35l.4-4.32a.38.38,0,0,1,.22-.3.35.35,0,0,1,.37,0,7.7,7.7,0,0,0,.87.5,10.25,10.25,0,0,0,1,.44,9.49,9.49,0,0,0,1,.3,4.28,4.28,0,0,0,1.55.06,1.43,1.43,0,0,0,.47-.14.92.92,0,0,0,.28-.24.68.68,0,0,0,.1-.4.24.24,0,0,0-.1-.17,1.47,1.47,0,0,0-.42-.28,2.79,2.79,0,0,0-.55-.2,1.62,1.62,0,0,0-.78-.06l-.39,0-.37.08a.63.63,0,0,0-.18.08.36.36,0,0,1-.4,0,.35.35,0,0,1-.2-.34l.06-3.08a.37.37,0,0,1,.13-.27.39.39,0,0,1,.29-.09l.32,0a5.14,5.14,0,0,0,1.08-.05,3,3,0,0,0,.71-.22,1.3,1.3,0,0,0,.5-.39.83.83,0,0,0,.17-.57.44.44,0,0,0-.1-.32.76.76,0,0,0-.34-.24,2.09,2.09,0,0,0-.52-.14c-.21,0-.39,0-.55,0a4.84,4.84,0,0,0-1.59.28,4,4,0,0,0-1.36.81.38.38,0,0,1-.37.08.37.37,0,0,1-.25-.28l-.9-3.91a.35.35,0,0,1,.12-.37,7.69,7.69,0,0,1,2.37-1.3,8.14,8.14,0,0,1,5-.08,5.91,5.91,0,0,1,2,1.06,5.1,5.1,0,0,1,1.4,1.75,5.3,5.3,0,0,1,.53,2.4,3.19,3.19,0,0,1-.13.85,4.13,4.13,0,0,1-.31.8,5,5,0,0,1-.47.72l-.2.23a2,2,0,0,1,.4.37,3.33,3.33,0,0,1,.53.86,4.56,4.56,0,0,1,.26,1,8.2,8.2,0,0,1,.07,1,6.63,6.63,0,0,1-.49,2.63,5,5,0,0,1-1.38,1.87,5.62,5.62,0,0,1-2.08,1.11A9.27,9.27,0,0,1,71.79,60.06ZM67.3,58c.28.17.57.32.88.47a12,12,0,0,0,1.18.46,9,9,0,0,0,1.24.31A7.57,7.57,0,0,0,74.16,59,4.87,4.87,0,0,0,76,58a4.32,4.32,0,0,0,1.17-1.6,5.87,5.87,0,0,0,.43-2.33,6.33,6.33,0,0,0-.06-.86,3.06,3.06,0,0,0-.22-.8,2.33,2.33,0,0,0-.4-.66,1.57,1.57,0,0,0-.61-.45.35.35,0,0,1-.21-.29.36.36,0,0,1,.13-.34,3.05,3.05,0,0,0,.47-.48,3.43,3.43,0,0,0,.39-.6,3.12,3.12,0,0,0,.26-.66,2.43,2.43,0,0,0,.1-.64A4.5,4.5,0,0,0,77,46.26a4.44,4.44,0,0,0-1.2-1.51A5.3,5.3,0,0,0,74,43.82a7.46,7.46,0,0,0-4.55.08,7,7,0,0,0-2,1l.72,3.1a4.82,4.82,0,0,1,1.13-.58,5.57,5.57,0,0,1,1.84-.32,5.27,5.27,0,0,1,.64,0,2.71,2.71,0,0,1,.72.18,1.71,1.71,0,0,1,.61.44,1.23,1.23,0,0,1,.29.82,1.6,1.6,0,0,1-.34,1.05,2.19,2.19,0,0,1-.75.59,4.09,4.09,0,0,1-.92.28,5.63,5.63,0,0,1-1.2.06l0,2.11.27-.05a3.8,3.8,0,0,1,.46,0,2.67,2.67,0,0,1,1,.07,3.66,3.66,0,0,1,.7.25,2.44,2.44,0,0,1,.61.42,1,1,0,0,1,.33.71,1.4,1.4,0,0,1-.8,1.31,2.09,2.09,0,0,1-.68.22,5.13,5.13,0,0,1-1.83-.08,7.78,7.78,0,0,1-1.14-.33c-.38-.14-.74-.3-1.09-.47-.15-.07-.29-.15-.43-.23Z"/><path class="cls-49" d="M43.75,59.05a.4.4,0,0,1-.26-.1.39.39,0,0,1-.12-.28c.05-2.5.09-5,.15-7.46s.12-5,.2-7.46a.37.37,0,0,1,.37-.36h5.59a.38.38,0,0,1,.28.12.39.39,0,0,1,.09.29c-.16,1.57-.32,3.13-.47,4.7s-.24,2.88-.31,4.33h4a.36.36,0,0,1,.28.12.38.38,0,0,1,.1.29L53.17,58a.39.39,0,0,1-.35.34l-9,.71Zm.71-14.91c-.08,2.37-.14,4.74-.19,7.09s-.1,4.68-.14,7l8.32-.66.38-4H49.88l-1,0a.38.38,0,0,1-.36-.39c.06-1.59.17-3.19.32-4.75s.28-2.86.43-4.29Z"/><path class="cls-50" d="M57.67,59.46a.38.38,0,0,1-.35-.26l-4.84-14a.36.36,0,0,1,0-.32.37.37,0,0,1,.28-.17l5.09-.48a.4.4,0,0,1,.4.29L60,51.13l1.65-7.28a.38.38,0,0,1,.39-.29l4.94.32a.37.37,0,0,1,.28.16.35.35,0,0,1,.06.31L63.36,58.88a.38.38,0,0,1-.34.27l-5.33.3ZM53.35,45.38l4.58,13.31,4.78-.27L66.45,44.6l-4.17-.27-1.92,8.5a.38.38,0,0,1-.36.29.38.38,0,0,1-.37-.29l-2-7.85Z"/><path class="cls-51" d="M71.79,59.86a7.65,7.65,0,0,1-1.33-.12,9.27,9.27,0,0,1-1.33-.34,8.58,8.58,0,0,1-1.27-.5,11.35,11.35,0,0,1-1.15-.62.35.35,0,0,1-.17-.35l.4-4.32a.42.42,0,0,1,.22-.31.38.38,0,0,1,.37,0,7.7,7.7,0,0,0,.87.5,10.25,10.25,0,0,0,1,.44,9.49,9.49,0,0,0,1,.3,4.28,4.28,0,0,0,1.55.06,1.43,1.43,0,0,0,.47-.14.92.92,0,0,0,.28-.24.68.68,0,0,0,.1-.4.24.24,0,0,0-.1-.17,1.47,1.47,0,0,0-.42-.28,2.79,2.79,0,0,0-.55-.2,1.62,1.62,0,0,0-.78-.06l-.39.05-.37.08a.63.63,0,0,0-.18.08.36.36,0,0,1-.4,0,.35.35,0,0,1-.2-.34L69.52,50a.37.37,0,0,1,.13-.27.39.39,0,0,1,.29-.09l.32,0a5.14,5.14,0,0,0,1.08,0,3,3,0,0,0,.71-.22,1.3,1.3,0,0,0,.5-.39.83.83,0,0,0,.17-.57.44.44,0,0,0-.1-.32.76.76,0,0,0-.34-.24,2.09,2.09,0,0,0-.52-.14c-.21,0-.39,0-.55,0a4.84,4.84,0,0,0-1.59.28,4,4,0,0,0-1.36.81.38.38,0,0,1-.37.08.37.37,0,0,1-.25-.28l-.9-3.91a.35.35,0,0,1,.12-.37A7.69,7.69,0,0,1,69.23,43a8.21,8.21,0,0,1,5-.09,6.11,6.11,0,0,1,2,1.07,5.1,5.1,0,0,1,1.4,1.75,5.3,5.3,0,0,1,.53,2.4,3.19,3.19,0,0,1-.13.85,4.13,4.13,0,0,1-.31.8,5,5,0,0,1-.47.72l-.2.23a2,2,0,0,1,.4.37A3.33,3.33,0,0,1,78,52a4.56,4.56,0,0,1,.26,1,8.2,8.2,0,0,1,.07,1,6.63,6.63,0,0,1-.49,2.63,5,5,0,0,1-1.38,1.87,5.62,5.62,0,0,1-2.08,1.11A9.27,9.27,0,0,1,71.79,59.86Zm-4.49-2.1a8.13,8.13,0,0,0,.88.46,10,10,0,0,0,1.18.47A9,9,0,0,0,70.6,59a7.57,7.57,0,0,0,3.56-.21,4.87,4.87,0,0,0,1.82-1,4.32,4.32,0,0,0,1.17-1.6,5.87,5.87,0,0,0,.43-2.33,6.33,6.33,0,0,0-.06-.86,3.06,3.06,0,0,0-.22-.8,2.33,2.33,0,0,0-.4-.66,1.57,1.57,0,0,0-.61-.45.35.35,0,0,1-.21-.29.36.36,0,0,1,.13-.34,3.05,3.05,0,0,0,.47-.48,3.43,3.43,0,0,0,.39-.6,3.12,3.12,0,0,0,.26-.66,2.43,2.43,0,0,0,.1-.64A4.5,4.5,0,0,0,77,46.06a4.44,4.44,0,0,0-1.2-1.51A5.3,5.3,0,0,0,74,43.62a7.46,7.46,0,0,0-4.55.08,7,7,0,0,0-2,1l.72,3.1a4.82,4.82,0,0,1,1.13-.58,5.57,5.57,0,0,1,1.84-.32,5.27,5.27,0,0,1,.64,0,2.71,2.71,0,0,1,.72.18,1.71,1.71,0,0,1,.61.44,1.23,1.23,0,0,1,.29.82,1.6,1.6,0,0,1-.34,1,2.19,2.19,0,0,1-.75.59,4.09,4.09,0,0,1-.92.28,5.63,5.63,0,0,1-1.2.06l0,2.11.27,0a3.8,3.8,0,0,1,.46-.05,2.67,2.67,0,0,1,1,.07,3.66,3.66,0,0,1,.7.25,2.21,2.21,0,0,1,.61.42,1,1,0,0,1,.33.71,1.4,1.4,0,0,1-.8,1.31,1.87,1.87,0,0,1-.68.21,4.91,4.91,0,0,1-1.83-.07A7.78,7.78,0,0,1,69.15,55c-.38-.14-.74-.3-1.09-.47-.15-.07-.29-.15-.43-.23Z"/><path class="cls-52" d="M43.75,58.85a.4.4,0,0,1-.26-.1.39.39,0,0,1-.12-.28c.05-2.5.09-5,.15-7.46s.12-5,.2-7.46a.37.37,0,0,1,.37-.36h5.59a.38.38,0,0,1,.28.12.39.39,0,0,1,.09.29c-.16,1.57-.32,3.13-.47,4.7s-.24,2.88-.31,4.33h4a.36.36,0,0,1,.28.12.38.38,0,0,1,.1.29l-.45,4.77a.39.39,0,0,1-.35.34l-9,.71Zm.71-14.91c-.08,2.37-.14,4.74-.19,7.09s-.1,4.68-.14,7l8.32-.66.38-4H49.88l-1,0a.37.37,0,0,1-.36-.39c.06-1.59.17-3.19.32-4.75s.28-2.86.43-4.29Z"/><path class="cls-53" d="M57.67,59.26a.38.38,0,0,1-.35-.26L52.48,45a.36.36,0,0,1,0-.32.37.37,0,0,1,.28-.17L57.89,44a.38.38,0,0,1,.4.28L60,50.93l1.65-7.28a.38.38,0,0,1,.39-.29l4.94.32a.37.37,0,0,1,.28.16.35.35,0,0,1,.06.31L63.36,58.68A.36.36,0,0,1,63,59l-5.33.31ZM53.35,45.18l4.58,13.31,4.78-.27L66.45,44.4l-4.17-.27-1.92,8.5a.38.38,0,0,1-.36.29.35.35,0,0,1-.37-.29l-2-7.85Z"/><path class="cls-54" d="M71.79,59.66a7.65,7.65,0,0,1-1.33-.12,10.76,10.76,0,0,1-1.33-.33,9.9,9.9,0,0,1-1.27-.51,11.35,11.35,0,0,1-1.15-.62.35.35,0,0,1-.17-.35l.4-4.32a.38.38,0,0,1,.22-.3.35.35,0,0,1,.37,0,7.7,7.7,0,0,0,.87.5,10.25,10.25,0,0,0,1,.44,9.49,9.49,0,0,0,1,.3,4.28,4.28,0,0,0,1.55.06,1.43,1.43,0,0,0,.47-.14.92.92,0,0,0,.28-.24.68.68,0,0,0,.1-.4.24.24,0,0,0-.1-.17,1.47,1.47,0,0,0-.42-.28,2.79,2.79,0,0,0-.55-.2A1.62,1.62,0,0,0,71,53l-.39,0-.37.08a.63.63,0,0,0-.18.08.36.36,0,0,1-.4,0,.35.35,0,0,1-.2-.34l.06-3.08a.37.37,0,0,1,.13-.27.39.39,0,0,1,.29-.09l.32,0a5.14,5.14,0,0,0,1.08-.05,3,3,0,0,0,.71-.22,1.3,1.3,0,0,0,.5-.39.83.83,0,0,0,.17-.57.44.44,0,0,0-.1-.32.84.84,0,0,0-.34-.24,2.09,2.09,0,0,0-.52-.14c-.21,0-.39,0-.55,0a4.84,4.84,0,0,0-1.59.28,4,4,0,0,0-1.36.81.38.38,0,0,1-.37.08.37.37,0,0,1-.25-.28l-.9-3.91a.35.35,0,0,1,.12-.37,7.69,7.69,0,0,1,2.37-1.3,8.14,8.14,0,0,1,5-.08,5.91,5.91,0,0,1,2,1.06,5.1,5.1,0,0,1,1.4,1.75,5.3,5.3,0,0,1,.53,2.4,3.19,3.19,0,0,1-.13.85,4.13,4.13,0,0,1-.31.8,5,5,0,0,1-.47.72c-.07.08-.13.16-.2.23a2,2,0,0,1,.4.37,3.22,3.22,0,0,1,.53.87,4.33,4.33,0,0,1,.26,1,8.2,8.2,0,0,1,.07,1,6.63,6.63,0,0,1-.49,2.63,5,5,0,0,1-1.38,1.87,5.62,5.62,0,0,1-2.08,1.11A9.27,9.27,0,0,1,71.79,59.66Zm-4.49-2.1c.28.17.57.32.88.47a12,12,0,0,0,1.18.46,9,9,0,0,0,1.24.31,7.57,7.57,0,0,0,3.56-.21,4.87,4.87,0,0,0,1.82-1A4.32,4.32,0,0,0,77.15,56a5.87,5.87,0,0,0,.43-2.33,6.33,6.33,0,0,0-.06-.86,3.06,3.06,0,0,0-.22-.8,2.33,2.33,0,0,0-.4-.66,1.57,1.57,0,0,0-.61-.45.35.35,0,0,1-.21-.29.36.36,0,0,1,.13-.34,3.05,3.05,0,0,0,.47-.48,3.43,3.43,0,0,0,.39-.6,3.12,3.12,0,0,0,.26-.66,2.43,2.43,0,0,0,.1-.64A4.5,4.5,0,0,0,77,45.86a4.44,4.44,0,0,0-1.2-1.51A5.3,5.3,0,0,0,74,43.42a7.38,7.38,0,0,0-4.55.08,7,7,0,0,0-2,1l.72,3.1a4.82,4.82,0,0,1,1.13-.58,5.57,5.57,0,0,1,1.84-.32,5.27,5.27,0,0,1,.64.05,2.39,2.39,0,0,1,.72.19,1.57,1.57,0,0,1,.61.43,1.23,1.23,0,0,1,.29.82,1.6,1.6,0,0,1-.34,1.05,2.07,2.07,0,0,1-.75.59,4.09,4.09,0,0,1-.92.28,5.63,5.63,0,0,1-1.2.06l0,2.11.27-.05.46,0a2.67,2.67,0,0,1,1,.07,4.5,4.5,0,0,1,.7.25,2.44,2.44,0,0,1,.61.42,1,1,0,0,1,.33.71A1.4,1.4,0,0,1,72.8,55a2.09,2.09,0,0,1-.68.22,4.91,4.91,0,0,1-1.83-.08,7.78,7.78,0,0,1-1.14-.33,9.67,9.67,0,0,1-1.09-.47c-.15-.07-.29-.15-.43-.23Z"/><path class="cls-55" d="M43.75,58.65a.4.4,0,0,1-.26-.1.39.39,0,0,1-.12-.28c.05-2.5.09-5,.15-7.46s.12-5,.2-7.46a.37.37,0,0,1,.37-.36h5.59a.38.38,0,0,1,.28.12.39.39,0,0,1,.09.29c-.16,1.57-.32,3.13-.47,4.7s-.24,2.88-.31,4.33h4a.36.36,0,0,1,.28.12.38.38,0,0,1,.1.29l-.45,4.77a.39.39,0,0,1-.35.34l-9,.71Zm.71-14.91c-.08,2.37-.14,4.74-.19,7.09s-.1,4.68-.14,7l8.32-.66.38-4H49.88l-1,0a.37.37,0,0,1-.36-.39c.06-1.59.17-3.19.32-4.75s.28-2.86.43-4.29Z"/><path class="cls-56" d="M57.67,59.06a.38.38,0,0,1-.35-.26l-4.84-14a.36.36,0,0,1,0-.32.37.37,0,0,1,.28-.17l5.09-.48a.4.4,0,0,1,.4.29L60,50.73l1.65-7.28a.38.38,0,0,1,.39-.29l4.94.32a.37.37,0,0,1,.28.16.35.35,0,0,1,.06.31L63.36,58.48a.38.38,0,0,1-.34.27l-5.33.3ZM53.35,45l4.58,13.31L62.71,58,66.45,44.2l-4.17-.27-1.92,8.5a.38.38,0,0,1-.36.29.37.37,0,0,1-.37-.29l-2-7.85Z"/><path class="cls-57" d="M71.79,59.46a7.65,7.65,0,0,1-1.33-.12A10.76,10.76,0,0,1,69.13,59a9.9,9.9,0,0,1-1.27-.51,11.35,11.35,0,0,1-1.15-.62.35.35,0,0,1-.17-.35l.4-4.32a.42.42,0,0,1,.22-.31.38.38,0,0,1,.37,0,7.7,7.7,0,0,0,.87.5,10.25,10.25,0,0,0,1,.44,9.49,9.49,0,0,0,1,.3,4.28,4.28,0,0,0,1.55.06,1.43,1.43,0,0,0,.47-.14.92.92,0,0,0,.28-.24.68.68,0,0,0,.1-.4.24.24,0,0,0-.1-.17,1.47,1.47,0,0,0-.42-.28,2.79,2.79,0,0,0-.55-.2,1.62,1.62,0,0,0-.78-.06l-.39,0-.37.08a.63.63,0,0,0-.18.08.36.36,0,0,1-.4,0,.35.35,0,0,1-.2-.34l.06-3.08a.37.37,0,0,1,.13-.27.39.39,0,0,1,.29-.09l.32,0a5.14,5.14,0,0,0,1.08,0,3,3,0,0,0,.71-.22,1.3,1.3,0,0,0,.5-.39.83.83,0,0,0,.17-.57.44.44,0,0,0-.1-.32.76.76,0,0,0-.34-.24,2.09,2.09,0,0,0-.52-.14c-.21,0-.39,0-.55,0a4.84,4.84,0,0,0-1.59.28,4,4,0,0,0-1.36.81.38.38,0,0,1-.37.08.37.37,0,0,1-.25-.28l-.9-3.91a.35.35,0,0,1,.12-.37,7.69,7.69,0,0,1,2.37-1.3,8.14,8.14,0,0,1,5-.08,5.91,5.91,0,0,1,2,1.06,5.1,5.1,0,0,1,1.4,1.75,5.3,5.3,0,0,1,.53,2.4,3.19,3.19,0,0,1-.13.85,4.13,4.13,0,0,1-.31.8,5,5,0,0,1-.47.72l-.2.23a2,2,0,0,1,.4.37,3.33,3.33,0,0,1,.53.86,4.56,4.56,0,0,1,.26,1,8.2,8.2,0,0,1,.07,1,6.63,6.63,0,0,1-.49,2.63A5,5,0,0,1,76.46,58a5.62,5.62,0,0,1-2.08,1.11A9.27,9.27,0,0,1,71.79,59.46Zm-4.49-2.1a8.13,8.13,0,0,0,.88.46,10,10,0,0,0,1.18.47,9,9,0,0,0,1.24.31,7.57,7.57,0,0,0,3.56-.21,4.87,4.87,0,0,0,1.82-1,4.32,4.32,0,0,0,1.17-1.6,5.87,5.87,0,0,0,.43-2.33,6.33,6.33,0,0,0-.06-.86,3.06,3.06,0,0,0-.22-.8,2.33,2.33,0,0,0-.4-.66,1.57,1.57,0,0,0-.61-.45.35.35,0,0,1-.21-.29.36.36,0,0,1,.13-.34,3.05,3.05,0,0,0,.47-.48,3.43,3.43,0,0,0,.39-.6,3.12,3.12,0,0,0,.26-.66,2.43,2.43,0,0,0,.1-.64A4.5,4.5,0,0,0,77,45.66a4.44,4.44,0,0,0-1.2-1.51A5.3,5.3,0,0,0,74,43.22a7.38,7.38,0,0,0-4.55.08,7,7,0,0,0-2,1l.72,3.1a4.82,4.82,0,0,1,1.13-.58,5.57,5.57,0,0,1,1.84-.32,5.27,5.27,0,0,1,.64,0,2.71,2.71,0,0,1,.72.18,1.71,1.71,0,0,1,.61.44,1.23,1.23,0,0,1,.29.82,1.6,1.6,0,0,1-.34,1,2.19,2.19,0,0,1-.75.59,4.09,4.09,0,0,1-.92.28,5.63,5.63,0,0,1-1.2.06l0,2.11.27,0A3.8,3.8,0,0,1,71,52a2.67,2.67,0,0,1,1,.07,3.66,3.66,0,0,1,.7.25,2.44,2.44,0,0,1,.61.42,1,1,0,0,1,.33.71,1.4,1.4,0,0,1-.8,1.31,2.09,2.09,0,0,1-.68.22,4.91,4.91,0,0,1-1.83-.08,7.78,7.78,0,0,1-1.14-.33c-.38-.14-.74-.3-1.09-.47-.15-.07-.29-.15-.43-.23Z"/><path class="cls-58" d="M43.75,58.45a.4.4,0,0,1-.26-.1.39.39,0,0,1-.12-.28c.05-2.5.09-5,.15-7.46s.12-5,.2-7.46a.37.37,0,0,1,.37-.36h5.59a.38.38,0,0,1,.28.12.39.39,0,0,1,.09.29c-.16,1.57-.32,3.13-.47,4.7s-.24,2.88-.31,4.33h4a.36.36,0,0,1,.28.12.38.38,0,0,1,.1.29l-.45,4.77a.39.39,0,0,1-.35.34l-9,.71Zm.71-14.91c-.08,2.37-.14,4.74-.19,7.09s-.1,4.68-.14,7L52.45,57l.38-4H49.88l-1,0a.37.37,0,0,1-.36-.39c.06-1.59.17-3.19.32-4.75s.28-2.86.43-4.29Z"/><path class="cls-59" d="M57.67,58.86a.38.38,0,0,1-.35-.26l-4.84-14a.36.36,0,0,1,0-.32.37.37,0,0,1,.28-.17l5.09-.47a.38.38,0,0,1,.4.28L60,50.53l1.65-7.28A.38.38,0,0,1,62,43l4.94.32a.37.37,0,0,1,.28.16.35.35,0,0,1,.06.31L63.36,58.28a.36.36,0,0,1-.34.27l-5.33.31ZM53.35,44.78l4.58,13.31,4.78-.27L66.45,44l-4.17-.27-1.92,8.5a.38.38,0,0,1-.36.29.34.34,0,0,1-.37-.29l-2-7.85Z"/><path class="cls-60" d="M71.79,59.26a7.65,7.65,0,0,1-1.33-.12,10.76,10.76,0,0,1-1.33-.33,9.9,9.9,0,0,1-1.27-.51,11.35,11.35,0,0,1-1.15-.62.35.35,0,0,1-.17-.35l.4-4.32a.38.38,0,0,1,.22-.3.35.35,0,0,1,.37,0,7.7,7.7,0,0,0,.87.5,10.25,10.25,0,0,0,1,.44,9.49,9.49,0,0,0,1,.3A4.28,4.28,0,0,0,72,54a1.43,1.43,0,0,0,.47-.14.92.92,0,0,0,.28-.24.68.68,0,0,0,.1-.4.24.24,0,0,0-.1-.17,1.47,1.47,0,0,0-.42-.28,2.79,2.79,0,0,0-.55-.2,1.62,1.62,0,0,0-.78-.06l-.39.05-.37.08a.63.63,0,0,0-.18.08.36.36,0,0,1-.4,0,.35.35,0,0,1-.2-.34l.06-3.08a.37.37,0,0,1,.13-.27.39.39,0,0,1,.29-.09l.32,0a5.14,5.14,0,0,0,1.08,0,3,3,0,0,0,.71-.22,1.3,1.3,0,0,0,.5-.39.83.83,0,0,0,.17-.57.44.44,0,0,0-.1-.32.84.84,0,0,0-.34-.24,2.09,2.09,0,0,0-.52-.14c-.21,0-.39,0-.55,0a4.84,4.84,0,0,0-1.59.28,4,4,0,0,0-1.36.81.38.38,0,0,1-.37.08.37.37,0,0,1-.25-.28l-.9-3.91a.35.35,0,0,1,.12-.37,7.69,7.69,0,0,1,2.37-1.3,8.14,8.14,0,0,1,5-.08,5.91,5.91,0,0,1,2,1.06,5.1,5.1,0,0,1,1.4,1.75,5.3,5.3,0,0,1,.53,2.4,3.19,3.19,0,0,1-.13.85,4.13,4.13,0,0,1-.31.8,5,5,0,0,1-.47.72c-.07.08-.13.16-.2.23a2,2,0,0,1,.4.37,3.22,3.22,0,0,1,.53.87,4.33,4.33,0,0,1,.26,1,8.2,8.2,0,0,1,.07,1,6.63,6.63,0,0,1-.49,2.63,5,5,0,0,1-1.38,1.87,5.62,5.62,0,0,1-2.08,1.11A9.27,9.27,0,0,1,71.79,59.26Zm-4.49-2.1c.28.17.57.32.88.47a12,12,0,0,0,1.18.46,9,9,0,0,0,1.24.31,7.57,7.57,0,0,0,3.56-.21,4.87,4.87,0,0,0,1.82-1,4.32,4.32,0,0,0,1.17-1.6,5.87,5.87,0,0,0,.43-2.33,6.33,6.33,0,0,0-.06-.86,3.06,3.06,0,0,0-.22-.8,2.48,2.48,0,0,0-.4-.66,1.57,1.57,0,0,0-.61-.45.35.35,0,0,1-.21-.29.36.36,0,0,1,.13-.34,3.05,3.05,0,0,0,.47-.48,3.43,3.43,0,0,0,.39-.6,3.12,3.12,0,0,0,.26-.66,2.37,2.37,0,0,0,.1-.64A4.5,4.5,0,0,0,77,45.46,4.44,4.44,0,0,0,75.78,44,5.3,5.3,0,0,0,74,43a7.46,7.46,0,0,0-4.55.08,7,7,0,0,0-2,1l.72,3.1a4.82,4.82,0,0,1,1.13-.58,5.57,5.57,0,0,1,1.84-.32,5.27,5.27,0,0,1,.64.05,2.39,2.39,0,0,1,.72.19,1.57,1.57,0,0,1,.61.43,1.23,1.23,0,0,1,.29.82,1.6,1.6,0,0,1-.34,1,2.07,2.07,0,0,1-.75.59,4.09,4.09,0,0,1-.92.28,5.63,5.63,0,0,1-1.2.06l0,2.11.27,0,.46,0a2.67,2.67,0,0,1,1,.07,4.5,4.5,0,0,1,.7.25,2.44,2.44,0,0,1,.61.42,1,1,0,0,1,.33.71,1.4,1.4,0,0,1-.8,1.31,2.09,2.09,0,0,1-.68.22,5.13,5.13,0,0,1-1.83-.08,7.78,7.78,0,0,1-1.14-.33,9.67,9.67,0,0,1-1.09-.47c-.15-.07-.29-.15-.43-.23Z"/><path class="cls-61" d="M43.75,58.25a.4.4,0,0,1-.26-.1.39.39,0,0,1-.12-.28c.05-2.5.09-5,.15-7.46s.12-5,.2-7.46a.37.37,0,0,1,.37-.36h5.59a.38.38,0,0,1,.28.12.39.39,0,0,1,.09.29c-.16,1.57-.32,3.13-.47,4.7s-.24,2.88-.31,4.33h4a.36.36,0,0,1,.28.12.38.38,0,0,1,.1.29l-.45,4.77a.39.39,0,0,1-.35.34l-9,.71Zm.71-14.91c-.08,2.37-.14,4.74-.19,7.09s-.1,4.68-.14,7l8.32-.66.38-4H49.88l-1,0a.37.37,0,0,1-.36-.39c.06-1.59.17-3.19.32-4.75s.28-2.86.43-4.29Z"/><path class="cls-62" d="M57.67,58.66a.38.38,0,0,1-.35-.26l-4.84-14a.36.36,0,0,1,0-.32.37.37,0,0,1,.28-.17l5.09-.48a.4.4,0,0,1,.4.29L60,50.33l1.65-7.28a.39.39,0,0,1,.39-.29l4.94.32a.37.37,0,0,1,.28.16.35.35,0,0,1,.06.31L63.36,58.08a.38.38,0,0,1-.34.27l-5.33.3ZM53.35,44.58l4.58,13.31,4.78-.27L66.45,43.8l-4.17-.27L60.36,52a.38.38,0,0,1-.36.29.36.36,0,0,1-.37-.29l-2-7.85Z"/><path class="cls-63" d="M71.79,59.06a7.65,7.65,0,0,1-1.33-.12,10.76,10.76,0,0,1-1.33-.33,9.9,9.9,0,0,1-1.27-.51,11.35,11.35,0,0,1-1.15-.62.35.35,0,0,1-.17-.35l.4-4.32a.38.38,0,0,1,.22-.3.35.35,0,0,1,.37,0,7.7,7.7,0,0,0,.87.5,10.25,10.25,0,0,0,1,.44,9.49,9.49,0,0,0,1,.3,4.28,4.28,0,0,0,1.55.06,1.43,1.43,0,0,0,.47-.14.92.92,0,0,0,.28-.24.68.68,0,0,0,.1-.4.24.24,0,0,0-.1-.17,1.47,1.47,0,0,0-.42-.28,2.79,2.79,0,0,0-.55-.2,1.62,1.62,0,0,0-.78-.06l-.39,0-.37.08a.63.63,0,0,0-.18.08.36.36,0,0,1-.4,0,.35.35,0,0,1-.2-.34l.06-3.08a.37.37,0,0,1,.13-.27.39.39,0,0,1,.29-.09l.32,0a5.14,5.14,0,0,0,1.08-.05,3,3,0,0,0,.71-.22,1.3,1.3,0,0,0,.5-.39.83.83,0,0,0,.17-.57.44.44,0,0,0-.1-.32.76.76,0,0,0-.34-.24,2.09,2.09,0,0,0-.52-.14c-.21,0-.39,0-.55,0a4.84,4.84,0,0,0-1.59.28,4,4,0,0,0-1.36.81.38.38,0,0,1-.37.08.37.37,0,0,1-.25-.28l-.9-3.91a.35.35,0,0,1,.12-.37,7.69,7.69,0,0,1,2.37-1.3,8.14,8.14,0,0,1,5-.08,5.91,5.91,0,0,1,2,1.06,5.1,5.1,0,0,1,1.4,1.75,5.3,5.3,0,0,1,.53,2.4,3.19,3.19,0,0,1-.13.85,4.13,4.13,0,0,1-.31.8,5,5,0,0,1-.47.72l-.2.23a2,2,0,0,1,.4.37,3.33,3.33,0,0,1,.53.86,4.56,4.56,0,0,1,.26,1,8.2,8.2,0,0,1,.07,1,6.63,6.63,0,0,1-.49,2.63,5,5,0,0,1-1.38,1.87,5.62,5.62,0,0,1-2.08,1.11A9.27,9.27,0,0,1,71.79,59.06ZM67.3,57c.28.17.57.32.88.47a12,12,0,0,0,1.18.46,9,9,0,0,0,1.24.31A7.57,7.57,0,0,0,74.16,58,4.87,4.87,0,0,0,76,57a4.32,4.32,0,0,0,1.17-1.6,5.87,5.87,0,0,0,.43-2.33,6.33,6.33,0,0,0-.06-.86,3.06,3.06,0,0,0-.22-.8,2.33,2.33,0,0,0-.4-.66,1.57,1.57,0,0,0-.61-.45.35.35,0,0,1-.21-.29.36.36,0,0,1,.13-.34,3.05,3.05,0,0,0,.47-.48,3.43,3.43,0,0,0,.39-.6,3.12,3.12,0,0,0,.26-.66,2.43,2.43,0,0,0,.1-.64A4.5,4.5,0,0,0,77,45.26a4.44,4.44,0,0,0-1.2-1.51A5.3,5.3,0,0,0,74,42.82a7.46,7.46,0,0,0-4.55.08,7,7,0,0,0-2,1l.72,3.1a4.82,4.82,0,0,1,1.13-.58,5.57,5.57,0,0,1,1.84-.32,5.27,5.27,0,0,1,.64,0,2.71,2.71,0,0,1,.72.18,1.71,1.71,0,0,1,.61.44,1.23,1.23,0,0,1,.29.82,1.6,1.6,0,0,1-.34,1.05,2.19,2.19,0,0,1-.75.59,4.09,4.09,0,0,1-.92.28,5.63,5.63,0,0,1-1.2.06l0,2.11.27-.05a3.8,3.8,0,0,1,.46,0,2.67,2.67,0,0,1,1,.07,3.66,3.66,0,0,1,.7.25,2.44,2.44,0,0,1,.61.42,1,1,0,0,1,.33.71,1.4,1.4,0,0,1-.8,1.31,2.09,2.09,0,0,1-.68.22,4.91,4.91,0,0,1-1.83-.08,7.78,7.78,0,0,1-1.14-.33c-.38-.14-.74-.3-1.09-.47-.15-.07-.29-.15-.43-.23Z"/><path class="cls-64" d="M43.75,57.92a.21.21,0,0,1-.17-.07.23.23,0,0,1-.08-.18q.06-3.75.14-7.46c.06-2.47.12-5,.2-7.46a.26.26,0,0,1,.25-.24h5.59a.23.23,0,0,1,.18.08.31.31,0,0,1,.07.2c-.17,1.57-.33,3.13-.48,4.7s-.24,3-.31,4.46l.74,0h1l1.18,0h1.18a.25.25,0,0,1,.19.09.22.22,0,0,1,.06.19L53,57a.25.25,0,0,1-.23.22l-9,.71ZM44.33,43c-.07,2.42-.14,4.82-.19,7.21S44.05,55,44,57.4l8.56-.67L53,52.44h-.9l-1.19,0h-1l-1,0a.25.25,0,0,1-.24-.26c.07-1.58.18-3.18.33-4.74s.29-2.95.44-4.43Z"/><path class="cls-65" d="M57.67,58.33a.26.26,0,0,1-.24-.17l-4.83-14a.2.2,0,0,1,0-.21.25.25,0,0,1,.18-.12l5.09-.47a.25.25,0,0,1,.27.19L60,50.67l1.76-7.79a.26.26,0,0,1,.27-.2L67,43a.22.22,0,0,1,.18.1.23.23,0,0,1,0,.21L63.24,57.84A.26.26,0,0,1,63,58l-5.33.3ZM53.18,44.27l4.66,13.55,5-.28,3.81-14-4.43-.29-2,8.6A.24.24,0,0,1,60,52h0a.26.26,0,0,1-.24-.19l-2-7.95Z"/><path class="cls-66" d="M71.79,58.74a7.42,7.42,0,0,1-1.31-.12,12,12,0,0,1-1.31-.33,11.38,11.38,0,0,1-1.26-.5,11,11,0,0,1-1.13-.61.27.27,0,0,1-.12-.24l.41-4.32a.25.25,0,0,1,.14-.2.25.25,0,0,1,.25,0,6.58,6.58,0,0,0,.88.51,9.22,9.22,0,0,0,1,.44,8.48,8.48,0,0,0,1.06.31,4.33,4.33,0,0,0,1.6.07,1.47,1.47,0,0,0,.5-.16.75.75,0,0,0,.33-.28.82.82,0,0,0,.12-.47.36.36,0,0,0-.13-.26,1.77,1.77,0,0,0-.45-.3,3.1,3.1,0,0,0-.58-.21A2.14,2.14,0,0,0,71,52a2.73,2.73,0,0,0-.4,0,2.33,2.33,0,0,0-.38.08.56.56,0,0,0-.22.1.26.26,0,0,1-.27,0,.24.24,0,0,1-.14-.23L69.64,49a.34.34,0,0,1,.09-.19.26.26,0,0,1,.19-.06l.33,0a5.48,5.48,0,0,0,1.11-.06,2.62,2.62,0,0,0,.75-.23,1.49,1.49,0,0,0,.54-.42,1,1,0,0,0,.2-.65.6.6,0,0,0-.14-.41,1.19,1.19,0,0,0-.38-.27,2,2,0,0,0-.56-.14,4,4,0,0,0-.56,0,4.82,4.82,0,0,0-1.63.28,4.24,4.24,0,0,0-1.41.83.26.26,0,0,1-.24.06.25.25,0,0,1-.17-.19l-.9-3.91a.27.27,0,0,1,.08-.25,7.41,7.41,0,0,1,2.33-1.27A8.11,8.11,0,0,1,74.21,42a6,6,0,0,1,2,1,5,5,0,0,1,1.37,1.71,5.13,5.13,0,0,1,.51,2.34,2.84,2.84,0,0,1-.12.81,4.33,4.33,0,0,1-.3.78,4.23,4.23,0,0,1-.46.7,3.11,3.11,0,0,1-.29.33,2.32,2.32,0,0,1,.5.43,3.06,3.06,0,0,1,.5.83,3.8,3.8,0,0,1,.25,1,6.16,6.16,0,0,1,.07.95,6.42,6.42,0,0,1-.48,2.58,5,5,0,0,1-1.34,1.83,5.54,5.54,0,0,1-2,1.08A8.93,8.93,0,0,1,71.79,58.74Zm-4.62-1.91a10.82,10.82,0,0,0,1,.51,9.64,9.64,0,0,0,1.2.47,9.37,9.37,0,0,0,1.24.31,7.62,7.62,0,0,0,3.63-.21,5,5,0,0,0,1.86-1,4.46,4.46,0,0,0,1.2-1.65,5.91,5.91,0,0,0,.44-2.38,6.62,6.62,0,0,0-.06-.88,3.28,3.28,0,0,0-.22-.83A2.83,2.83,0,0,0,77,50.5a1.84,1.84,0,0,0-.66-.49.25.25,0,0,1,0-.42,3.24,3.24,0,0,0,.49-.49,3.65,3.65,0,0,0,.4-.62,3.57,3.57,0,0,0,.27-.68,2.33,2.33,0,0,0,.1-.68A4.63,4.63,0,0,0,77.09,45a4.54,4.54,0,0,0-1.23-1.54,5.56,5.56,0,0,0-1.8-1,7.49,7.49,0,0,0-4.63.09,6.72,6.72,0,0,0-2.05,1.09L68.16,47a4.55,4.55,0,0,1,1.25-.67,5.33,5.33,0,0,1,1.8-.31,5.06,5.06,0,0,1,.63,0,2.52,2.52,0,0,1,.68.18,1.47,1.47,0,0,1,.57.4,1.11,1.11,0,0,1,.26.74,1.54,1.54,0,0,1-.31,1,2,2,0,0,1-.72.55,3.22,3.22,0,0,1-.88.27,5.23,5.23,0,0,1-1.22.06h-.08l0,2.4.42-.09.44,0a2.71,2.71,0,0,1,1,.07,3.81,3.81,0,0,1,.67.24,2.21,2.21,0,0,1,.58.4.81.81,0,0,1,.29.62,1.31,1.31,0,0,1-.21.76,1.35,1.35,0,0,1-.51.44,2,2,0,0,1-.65.2,4.85,4.85,0,0,1-1.78-.07,7.66,7.66,0,0,1-1.13-.33,9.31,9.31,0,0,1-1.07-.46,6.5,6.5,0,0,1-.59-.32Z"/><path class="cls-67" d="M53.24,52.39l-.45,4.77-9,.71q.06-3.75.14-7.45c.06-2.47.12-5,.2-7.46h5.59c-.17,1.57-.32,3.14-.47,4.7s-.26,3.14-.33,4.73l1,0h1l1.18,0Z"/><path class="cls-68" d="M66.93,43.46,63,58l-5.33.3-4.83-14,5.09-.47L60,51.94l2-8.81Z"/><path class="cls-69" d="M78,53.1a6.07,6.07,0,0,1-.46,2.48,4.57,4.57,0,0,1-1.27,1.74,5.35,5.35,0,0,1-2,1,8.45,8.45,0,0,1-2.48.34,6.88,6.88,0,0,1-1.26-.12,11.4,11.4,0,0,1-1.28-.32A10.86,10.86,0,0,1,68,57.76a8.34,8.34,0,0,1-1.11-.6l.41-4.32a7.05,7.05,0,0,0,.91.54,9.75,9.75,0,0,0,1,.45,7.09,7.09,0,0,0,1.09.31,5.08,5.08,0,0,0,1.07.12,3.31,3.31,0,0,0,.62,0,2,2,0,0,0,.57-.17,1.11,1.11,0,0,0,.43-.37,1,1,0,0,0,.16-.61.61.61,0,0,0-.21-.44,2,2,0,0,0-.52-.35,3.29,3.29,0,0,0-.62-.23,2.43,2.43,0,0,0-.54-.08L71,52l-.42.05a2.71,2.71,0,0,0-.41.09,1,1,0,0,0-.31.14l.06-3.07.35,0,.34,0a6.33,6.33,0,0,0,.82-.07,3.06,3.06,0,0,0,.81-.25,1.79,1.79,0,0,0,.63-.49,1.25,1.25,0,0,0,.26-.81.84.84,0,0,0-.2-.57,1.27,1.27,0,0,0-.48-.34,2.38,2.38,0,0,0-.61-.16,4.62,4.62,0,0,0-.6,0,5.11,5.11,0,0,0-1.72.3,4.39,4.39,0,0,0-1.49.88l-.9-3.91a7,7,0,0,1,2.25-1.23,8,8,0,0,1,2.54-.43,7.55,7.55,0,0,1,2.24.34,5.9,5.9,0,0,1,1.89,1,4.84,4.84,0,0,1,1.3,1.63,4.94,4.94,0,0,1,.48,2.23,2.71,2.71,0,0,1-.11.74,3.89,3.89,0,0,1-.72,1.4,3.74,3.74,0,0,1-.52.53,2,2,0,0,1,.74.55,2.66,2.66,0,0,1,.46.76,4.23,4.23,0,0,1,.24.88A7.34,7.34,0,0,1,78,53.1Z"/></g></g></g></svg>