<svg xmlns="http://www.w3.org/2000/svg" xmlns:xlink="http://www.w3.org/1999/xlink" viewBox="0 0 112.06 148.37"><defs><style>.cls-1{isolation:isolate;}.cls-2{fill:#d66b00;}.cls-13,.cls-3{fill:#ef8600;}.cls-11,.cls-13,.cls-17,.cls-22,.cls-24,.cls-26,.cls-3,.cls-33,.cls-39,.cls-52,.cls-57,.cls-6,.cls-61,.cls-63{mix-blend-mode:multiply;}.cls-3{opacity:0.53;}.cls-4{fill:#ffd300;}.cls-5{fill:#ffcc43;}.cls-17,.cls-31,.cls-5{opacity:0.57;}.cls-6{fill:#ffb253;opacity:0.67;}.cls-7{fill:#b5250a;}.cls-11,.cls-8,.cls-9{fill:#d1351c;}.cls-12,.cls-30,.cls-31,.cls-32,.cls-59,.cls-62,.cls-9{mix-blend-mode:screen;}.cls-11,.cls-9{opacity:0.35;}.cls-10{fill:#e9a095;}.cls-12{fill:#ffdf5a;opacity:0.6;}.cls-13{opacity:0.44;}.cls-14{fill:#ffd6a4;}.cls-15{fill:#e7a190;}.cls-16{fill:#91a500;}.cls-17{fill:#cf8c00;}.cls-18{fill:#738200;}.cls-19{fill:#636363;}.cls-20{fill:#3b3b3b;}.cls-21{fill:#2c2c2c;}.cls-22,.cls-23{fill:#772900;}.cls-22,.cls-62{opacity:0.43;}.cls-24,.cls-30,.cls-32{fill:#811e00;}.cls-24,.cls-57,.cls-59{opacity:0.39;}.cls-25,.cls-26{fill:#542c05;}.cls-26{opacity:0.45;}.cls-27{fill:#ffae0a;}.cls-28{fill:#ffca0a;}.cls-29{fill:#ffe659;}.cls-30{opacity:0.37;}.cls-32{opacity:0.5;}.cls-33{fill:#ff9203;opacity:0.55;}.cls-34{fill:#fff;}.cls-35,.cls-39{fill:#5e1a00;}.cls-36{fill:#dbdbdb;}.cls-37{fill:#4a0900;}.cls-38{fill:#ff2a36;}.cls-39{opacity:0.52;}.cls-40{fill:url(#linear-gradient);}.cls-41{fill:#461202;}.cls-42{fill:url(#linear-gradient-2);}.cls-43{fill:#5b1e01;}.cls-44{fill:#8fffd8;}.cls-45{fill:#da3f63;}.cls-46{fill:#be1944;}.cls-47{fill:#924419;}.cls-48{fill:#4b848d;}.cls-49,.cls-52{fill:#206672;}.cls-50{fill:#92d4e7;}.cls-51{fill:#56bcda;}.cls-52{opacity:0.4;}.cls-53{fill:#ff7283;}.cls-54{fill:#ffbb3e;}.cls-55{fill:#ffff72;}.cls-56,.cls-57,.cls-59,.cls-62{fill:#7d8c27;}.cls-58{fill:#2f2a00;}.cls-60,.cls-61,.cls-63{fill:#5c5700;}.cls-61{opacity:0.46;}.cls-63{opacity:0.22;}</style><linearGradient id="linear-gradient" x1="-91.48" y1="472.43" x2="-85.19" y2="472.43" gradientTransform="translate(-201.51 -352.94) rotate(-41.76)" gradientUnits="userSpaceOnUse"><stop offset="0" stop-color="#ad3900"/><stop offset="1" stop-color="#ffc300"/></linearGradient><linearGradient id="linear-gradient-2" x1="-97.75" y1="466.82" x2="-91.46" y2="466.82" xlink:href="#linear-gradient"/></defs><g class="cls-1"><g id="Слой_2" data-name="Слой 2"><g id="Слой_2-2" data-name="Слой 2"><path class="cls-2" d="M92.1,69.76a22.79,22.79,0,0,1,.41,11.07c-.31,1.71-.93,3.31-1.38,4.94-.39,1.46-.21,3-.64,4.47a30,30,0,0,1-2,4.18c-1.5,3.09-3.68,6-5.4,9-1.51,2.66-4.1,4.43-6.4,6.44-3,2.63-5.39,3.6-9,5-3.23,1.28-6.6,3.69-10.16,3.51-3.78-.18-7.61.34-11.39.1a29.35,29.35,0,0,1-17.4-7.5c-2.68-2.44-6.29-4.08-8.58-6.87-3.85-4.68-6-10.29-7.65-16-.61-2.11-1.76-4-2.27-6.17-.42-1.81,0-3.25.25-5.06.62-5.16.22-10.32,3.13-14.75a15.13,15.13,0,0,0,1.59-4.66C15.94,54.9,17,54.19,19,52.6c2.43-1.87,3.73-4.6,5.84-6.75,5.82-5.94,15.18-8,23-9.43,10-1.88,22,.49,29.64,7.56,2.15,2,3.63,4.62,5.65,6.75A32.81,32.81,0,0,1,87.56,56c1.35,2.21,1.51,4.57,2.21,7S91.36,67.5,92.1,69.76Z"/><path class="cls-3" d="M87.13,92.41c-1.45,5.91-5.62,10-10.37,13.39a62,62,0,0,1-9.82,6.08c-4.19,2-8,4.09-12.77,3.65a63.12,63.12,0,0,0-8.58-.49,10,10,0,0,1-5.83-1.31c-2.28-1.14-4.82-1.45-7.12-2.6s-3.85-3-5.81-4.6a30.82,30.82,0,0,1-5.7-5.71c-1.42-2-2-4.35-3.39-6.34a22.47,22.47,0,0,1-3.34-6.4c-.6-2.11-.62-4.44-1-6.61-.95-4.92-1.37-9.57.87-14.18,1.29-2.63,1.52-5.56,2.76-8.2.93-2,2.77-3.5,4.08-5.25A38,38,0,0,1,41.19,39.71,34.32,34.32,0,0,1,54,38.77c4.4.5,9.37.29,13.38,2.49,3.08,1.69,7,2.78,9.26,5.67a74.58,74.58,0,0,0,5.06,6.3c1.39,1.4,1.59,3.39,2.3,5.14.85,2.08,2.58,3.2,3.68,5.09,1.8,3.1,1.22,7.36,1.65,10.78.36,2.85.9,5.72.45,8.62C89.31,86.1,87.9,89.27,87.13,92.41Z"/><path class="cls-4" d="M86.16,92c-1.41,5.74-5.47,9.71-10.09,13a59.5,59.5,0,0,1-9.55,5.91c-4.08,1.9-7.8,4-12.43,3.55a61.19,61.19,0,0,0-8.34-.47,9.8,9.8,0,0,1-5.68-1.27c-2.22-1.11-4.68-1.41-6.92-2.53s-3.75-2.91-5.65-4.48A29.17,29.17,0,0,1,22,100.18c-1.39-2-2-4.23-3.3-6.18a21.61,21.61,0,0,1-3.25-6.22c-.59-2.06-.6-4.32-1-6.43-.92-4.78-1.34-9.32.85-13.8,1.25-2.56,1.48-5.4,2.68-8,.9-1.95,2.69-3.41,4-5.11A37,37,0,0,1,41.46,40.72,33.3,33.3,0,0,1,54,39.81c4.29.49,9.12.27,13,2.41,3,1.65,6.79,2.71,9,5.52a72.9,72.9,0,0,0,4.92,6.13c1.35,1.37,1.55,3.3,2.24,5,.83,2,2.52,3.12,3.58,5,1.75,3,1.19,7.16,1.61,10.49.35,2.77.87,5.56.44,8.38C88.28,85.85,86.91,88.94,86.16,92Z"/><path class="cls-5" d="M27.3,46.66c2-1.9,4.52-3.16,6.85-4.63a11.68,11.68,0,0,1,3-1.32,10.14,10.14,0,0,0,1.55-.54c.16-.08,1.05-.81,1.12-.8a5.85,5.85,0,0,0-2.79.48,13.2,13.2,0,0,1-2.51.3c-1.48.22-2.34,1.67-3.55,2.4a29.67,29.67,0,0,0-4,2.31c-1.55,1.3-2.44,3.15-3.58,4.76s-6.49,4.82-5.72,6.72c2.31-1.4,4.4-4.56,6.45-6.51C25.14,48.78,26.2,47.69,27.3,46.66Z"/><path class="cls-5" d="M14.26,62.1a12.7,12.7,0,0,0-1.19,2.32c-.11.25-1,3.87-.68,3.72,2-.83,2.52-5,2.5-6.77A5.5,5.5,0,0,0,14.26,62.1Z"/><path class="cls-5" d="M13,85.19c-.61-1.11-.29-3.64-.49-4.94a14.15,14.15,0,0,0-1-4.21,11.44,11.44,0,0,0-.54,5.08A17.74,17.74,0,0,0,13,85.19Z"/><path class="cls-5" d="M21.29,102.47c-1.29-1.37-1.84-3.14-2.63-4.79-.57-1.19-2.48-2.86-2.7-4a25,25,0,0,0,4,9.12A10.62,10.62,0,0,0,23,105.62c.77.5,1.9.76,2.47,1.43C24,105.68,22.68,103.94,21.29,102.47Z"/><path class="cls-5" d="M42.9,115.4l6.2.9c1.9.28,3.68-.19,5.57-.23,2.36,0,3.92.85,6.23-.21,2-.94,4-1.88,6-2.74,2.31-1,4.48-2.35,6.78-3.38s3.81-3.61,6.29-4.55c-2.81,2.85-5.33,6-9.13,7.47a58.35,58.35,0,0,0-7.62,3.61c-3.8,2.11-7.69.87-11.81,1.39a20.86,20.86,0,0,1-6.78-.13c-4.3-.86-8-1.13-10.76-4.77,1.35-.13,3,1.15,4.3,1.56A27,27,0,0,0,42.9,115.4Z"/><path class="cls-5" d="M90.47,85.65A23.91,23.91,0,0,1,86.62,96c.73-4.55,3.28-8.59,3.74-13.23.2-2.12.83-4.16.43-6.27a43.46,43.46,0,0,1-1-5.21c-.11-1.69.25-3.2-.3-4.88A18,18,0,0,0,87,61c-1.69-2-3.32-3.62-2.48-6.68a85.58,85.58,0,0,1,5.34,11.29c.68,1.93,1.87,4,2,6.07.09,1.66-.21,3.23,0,4.89a15.75,15.75,0,0,1,0,4.39C91.56,82.59,90.74,84,90.47,85.65Z"/><path class="cls-5" d="M74,43.51c-1.87-.31-3.55-1.77-5.17-2.67a19.43,19.43,0,0,0-5.84-2c-2.09-.31-3.94.25-6-.51-1.16-.43-4-.46-4.69-1.19A24.68,24.68,0,0,1,63.57,38c1.68.53,3.41.41,5,1.2,1.28.62,2.42,1.46,3.7,2.08a18.4,18.4,0,0,1,6.3,4.91,21,21,0,0,0,2,2.55c.63.63,1.93,1.57,1.64,2.53C80.68,51,79.94,50.14,79,48.89c-.66-.84-1.21-1.76-1.88-2.59C76.13,45.15,74.92,44.51,74,43.51Z"/><path class="cls-6" d="M84.34,75.24a8.4,8.4,0,0,1-.64,1.89,5,5,0,0,1-2.34,2.6c-2.07.84-4.58,1.38-6.71.48A6.11,6.11,0,0,1,71,75.39a7.56,7.56,0,0,1,.41-4.27,6.83,6.83,0,0,1,3.63-3,11.22,11.22,0,0,1,3.52-.48,4.84,4.84,0,0,1,3.4,1.72,10.57,10.57,0,0,1,2.26,2.9A5,5,0,0,1,84.34,75.24Z"/><path class="cls-7" d="M83.8,74.67a8.85,8.85,0,0,1-.64,1.9,5,5,0,0,1-2.34,2.59c-2.07.84-4.58,1.38-6.71.48a6.15,6.15,0,0,1-3.7-4.82,7.57,7.57,0,0,1,.42-4.27,6.81,6.81,0,0,1,3.62-3A11.52,11.52,0,0,1,78,67.1a4.82,4.82,0,0,1,3.4,1.72,10.57,10.57,0,0,1,2.26,2.9A4.92,4.92,0,0,1,83.8,74.67Z"/><path class="cls-8" d="M83.4,75.15a8,8,0,0,1-.76,1.76,4.8,4.8,0,0,1-2.44,2.28c-2,.64-4.47,1-6.43-.07a5.88,5.88,0,0,1-3.14-4.89,7.31,7.31,0,0,1,.73-4,6.53,6.53,0,0,1,3.7-2.55,10.92,10.92,0,0,1,3.38-.17,4.62,4.62,0,0,1,3.11,1.9,10.13,10.13,0,0,1,1.92,3A4.69,4.69,0,0,1,83.4,75.15Z"/><path class="cls-9" d="M75.17,77.89a.91.91,0,0,0-1,.07c-.16.12-.07.31-.31.36s-.7-.42-.88-.6a3.16,3.16,0,0,1-.64-1.6c-.18-.62-.5-.65-.91-.25-1.19-.94,0-3-.06-4.13a1.4,1.4,0,0,1,.87-1.48c.27.48,2-1.71,2-.57,0,.29-.4.61-.54.85A1.14,1.14,0,0,0,73.69,72s.15-.08.18-.11c0,.35-.28.38-.54.5s-.24,0-.36.11-.15.3-.27.38c-.69.53-.35-.81-.45-1.18-.45.17-.29,1.65-.27,2s.45,1.29.84.67c.36.34.24,1.11.34,1.55a1,1,0,0,0,.29.64c.08.06.64.23.67.05.08-.49-.55-1.13-.2-1.56.14-.16.42-.12.59-.2s.11-.22.28-.28c.27.32,0,.85.31,1.19s.59.26,1,.19c.08.7,1.19.36,1.44,0s.29-1.28-.28-1.15a10.53,10.53,0,0,1-.37-1c0-.43.53-.78.94-.81.08,0,.07.26.23.2s.18-.45.22-.61a6.31,6.31,0,0,0,.23-.93,3.46,3.46,0,0,0-.09-.35c0-.31.16-.82.57-.86s.52.64.81,1a1.24,1.24,0,0,0,.87.43c.27,0,.75-.27.91,0a.84.84,0,0,1,0-.81,1.53,1.53,0,0,1,1,.8,3.57,3.57,0,0,0,.19.45c.07.13.18.21.26.38s.22.54,0,.76-.71-.15-1.08.12c-.15.1-.2.37-.32.51a1.49,1.49,0,0,1-.66.39c-.46.17-1,.58-.77,1.2.18.43.27.12.57,0,.15-.08.22.07.47-.15s.23-.37.39-.5c.2.25,0,.87,0,1.17-.2.83-.53,2-1.54,1.73-.49-.12-.53-.77-.9-.88s-.31.2-.56.43-.37,0-.66.18-.19.52-.35.73-.33.24-.69.28-.92.2-1.19.07S75.4,78.11,75.17,77.89Z"/><path class="cls-9" d="M76.25,68c-.18,0-.35.08-.51.1-.46,0-1.2-.18-1.6.2-.64.62,1.83.29,1.66.59s-.41.5-.42.76.07.23.28.42c.44.39.51.65.93.13a1.76,1.76,0,0,1,1.27-.83,4.16,4.16,0,0,1,1.72,0c.35.13.52.63,1,.53s.24-.53.06-.88-2.2-1.42-1.84-.44c-.4.17-1.29.34-1.58-.08.14-.22.39-.35.53-.57A2.08,2.08,0,0,0,76.25,68Z"/><path class="cls-10" d="M74.68,68.4a2.3,2.3,0,0,0-.69.32,3.41,3.41,0,0,0-.78.47.57.57,0,0,0,.26,1,2.09,2.09,0,0,0,1.89-.89A.59.59,0,0,0,74.68,68.4Z"/><path class="cls-10" d="M73.47,71.27a.78.78,0,0,0-.42.45.55.55,0,0,0,0,.38v.09a.3.3,0,0,0,.18.25.33.33,0,0,0,.31,0,1,1,0,0,0,.47-.73A.39.39,0,0,0,73.47,71.27Z"/><path class="cls-10" d="M75.73,75.84a1.34,1.34,0,0,0-1.24-.79.58.58,0,0,0-.47.79,1.78,1.78,0,0,0,.36.48l.09.19c.2.38.6.82,1.08.64S75.93,76.25,75.73,75.84Z"/><path class="cls-10" d="M79.52,74.33s0,0,0,0S79.54,74.26,79.52,74.33Z"/><path class="cls-10" d="M80.44,74a.45.45,0,0,0-.49-.11.82.82,0,0,0-.32.23.45.45,0,0,0-.09.22h0l0,.14a.34.34,0,0,0,0,.22.38.38,0,0,0,.4.41.62.62,0,0,0,.44-.25,1.73,1.73,0,0,0,.18-.36A.45.45,0,0,0,80.44,74Z"/><path class="cls-10" d="M80.49,70.49a.85.85,0,0,0-.18-.51,1.28,1.28,0,0,0-.81-.51.52.52,0,0,0-.49.2.53.53,0,0,0-.08.53.71.71,0,0,0,.43.49.6.6,0,0,0,.34.09l0,.07a.45.45,0,0,0,.38.14h0l.08,0A.47.47,0,0,0,80.49,70.49Z"/><path class="cls-10" d="M77.53,72.89v0a.42.42,0,0,0,0-.22h0v0a.58.58,0,0,0-.06-.17l-.06-.12c-.09-.09-.1-.11-.06-.05h0a.3.3,0,0,0-.19-.13.35.35,0,0,0-.42.2.56.56,0,0,0,0,.28.61.61,0,0,0,.13.32l0,0h0a.58.58,0,0,0,.1.12,1,1,0,0,0,.24.1A.26.26,0,0,0,77.53,72.89Z"/><path class="cls-10" d="M80.92,76.28a1.13,1.13,0,0,0-.45.29.9.9,0,0,0-.15.19l-.08.06a.36.36,0,0,0-.13.38.34.34,0,0,0,.3.27,1.18,1.18,0,0,0,1-.5A.45.45,0,0,0,80.92,76.28Z"/><path class="cls-10" d="M72.42,75l0-.12a1,1,0,0,0,0-.3,1.46,1.46,0,0,0-.07-.19s0-.08,0,0,0-.1,0,0l0-.09h0a.54.54,0,0,0-.57-.34.55.55,0,0,0-.47.6,1,1,0,0,0,.23.59.14.14,0,0,0,0,.06h0a.64.64,0,0,0,.08.14.39.39,0,0,0,.42.09l.18,0A.35.35,0,0,0,72.42,75Z"/><path class="cls-11" d="M74.75,79.09c-.46-.19-.89-.32-1.39-.48s-2.46-1.73-1.65-2.22a3,3,0,0,0,.78,1.36c.32.24,1.05.76,1.47.71s.49-.51.8-.45.26.43.42.63.62.27,1,.32A1.89,1.89,0,0,0,78,78.29c.13-.15.2-.34.42-.38s.15.18.29.19.3-.09.48,0,.31.21.66.16a2.33,2.33,0,0,0,1.79-1.13c.21-.41.74-1.78.41-2.22s-.7,0-1-.25a1.1,1.1,0,0,1,.85-.68c.25,0,.37.23.57.22.83,0,.66-1.25.59-1.73a2.32,2.32,0,0,0-1-1.6c-.48-.26-.84-.09-1.31,0-.1-.44.06-1.08.62-1s1.1.86,1.36,1.23c.93,1.37.65,3.44,0,4.87a5.22,5.22,0,0,1-1.48,1.76,4.84,4.84,0,0,1-2,1.28c-.9.23-1.82.31-2.73.47A2.79,2.79,0,0,1,75,79.22Z"/><path class="cls-11" d="M75.19,74.28c-1.06-1.06-.79.46-1.61.62s-.12-1.81-1.2-1.33c.11-.27.38-.31.64-.36.49-.11.6,0,.82-.6.39-1,.23-2.14,1.49-2.58-.51.93.14,1.3.94,1,.51-.22,1.24-1.41,1.83-1s0,.82-.16,1.21c0,.18.08.85,0,1-.2.27-.59-.1-.86-.08-.86,0-.94,1.2-.68,1.82.15.35.57,1,.44,1.38-.07.21-.19.35-.43.24s-.14-.55-.21-.78c-.12-.39-.39-.6-.72-.22C75.24,74.4,75,74.27,75.19,74.28Z"/><path class="cls-11" d="M73.91,68.47c.4.53-1.39,1.89-1.92,1.6C72,69.74,73.61,68.09,73.91,68.47Z"/><path class="cls-6" d="M46.52,101.08a8.58,8.58,0,0,1-.64,1.89,5,5,0,0,1-2.35,2.6c-2.06.84-4.57,1.38-6.71.48a6.15,6.15,0,0,1-3.7-4.82A7.66,7.66,0,0,1,33.54,97a6.83,6.83,0,0,1,3.63-3,11.15,11.15,0,0,1,3.51-.48,4.81,4.81,0,0,1,3.41,1.72,10.76,10.76,0,0,1,2.26,2.9A5,5,0,0,1,46.52,101.08Z"/><path class="cls-7" d="M46,100.51a8.4,8.4,0,0,1-.64,1.89A5.06,5.06,0,0,1,43,105c-2.06.84-4.57,1.38-6.7.48a6.16,6.16,0,0,1-3.71-4.82A7.66,7.66,0,0,1,33,96.39a6.83,6.83,0,0,1,3.63-3,11.52,11.52,0,0,1,3.52-.48,4.84,4.84,0,0,1,3.4,1.72,10.57,10.57,0,0,1,2.26,2.9A5,5,0,0,1,46,100.51Z"/><path class="cls-8" d="M45.58,101a8.73,8.73,0,0,1-.76,1.76A4.8,4.8,0,0,1,42.38,105c-2,.64-4.47,1-6.43-.07a5.89,5.89,0,0,1-3.15-4.89,7.3,7.3,0,0,1,.74-4,6.53,6.53,0,0,1,3.7-2.55,10.91,10.91,0,0,1,3.38-.17,4.62,4.62,0,0,1,3.11,1.9,10.2,10.2,0,0,1,1.92,3A4.77,4.77,0,0,1,45.58,101Z"/><path class="cls-9" d="M37.35,103.73a.91.91,0,0,0-1.06.07c-.16.12-.06.31-.31.36s-.69-.42-.87-.6a3.19,3.19,0,0,1-.64-1.6c-.18-.62-.51-.65-.91-.25-1.2-.94,0-3-.06-4.13a1.4,1.4,0,0,1,.86-1.48c.27.48,2-1.71,2-.57,0,.29-.4.61-.54.85a1.12,1.12,0,0,0,.06,1.42l.18-.11c0,.35-.29.38-.55.5s-.23,0-.35.1-.16.31-.27.39c-.69.53-.36-.81-.46-1.18-.44.17-.28,1.64-.26,2s.45,1.29.84.67c.35.34.24,1.11.34,1.55a1.07,1.07,0,0,0,.28.64c.09.06.64.23.68,0,.08-.49-.55-1.13-.2-1.56.13-.16.41-.12.59-.2s.11-.22.28-.28c.26.32,0,.85.31,1.19s.59.26.95.18c.07.71,1.19.37,1.44,0s.29-1.28-.29-1.15a8.25,8.25,0,0,1-.36-1c0-.43.52-.78.94-.81.08,0,.06.26.22.2s.19-.45.23-.61a6.31,6.31,0,0,0,.23-.93,3.46,3.46,0,0,0-.09-.35c0-.31.16-.82.57-.86s.52.64.8.95a1.26,1.26,0,0,0,.88.43c.27,0,.74-.27.9,0a.91.91,0,0,1,0-.82,1.52,1.52,0,0,1,1,.8,3.57,3.57,0,0,0,.19.45c.07.13.18.21.26.37s.21.55,0,.77-.71-.15-1.07.12c-.15.1-.2.37-.32.51a1.38,1.38,0,0,1-.66.38c-.46.18-1,.59-.77,1.21.17.43.26.12.57,0,.15-.08.22.07.47-.15s.23-.37.39-.5c.2.25,0,.87,0,1.17-.21.82-.53,2-1.54,1.73-.5-.12-.53-.77-.91-.88s-.3.2-.55.43-.37,0-.66.18-.2.52-.35.73-.33.24-.69.28-.92.2-1.19.07S37.58,104,37.35,103.73Z"/><path class="cls-9" d="M38.43,93.81a2.55,2.55,0,0,1-.51.1c-.46,0-1.2-.17-1.6.21-.65.62,1.83.29,1.66.59s-.41.5-.42.76.06.23.28.42c.44.39.51.65.93.13A1.72,1.72,0,0,1,40,95.19a4.11,4.11,0,0,1,1.71,0c.36.13.53.63,1,.53s.23-.53.05-.88-2.19-1.42-1.83-.44c-.4.17-1.29.34-1.59-.08.15-.22.39-.35.54-.57A2.14,2.14,0,0,0,38.43,93.81Z"/><path class="cls-10" d="M36.86,94.24a2.3,2.3,0,0,0-.69.32,3.8,3.8,0,0,0-.78.47.57.57,0,0,0,.26,1,2.08,2.08,0,0,0,1.88-.9A.59.59,0,0,0,36.86,94.24Z"/><path class="cls-10" d="M35.64,97.11a.84.84,0,0,0-.42.45.61.61,0,0,0,0,.38s0,.06,0,.09a.33.33,0,0,0,.19.25.34.34,0,0,0,.31,0,1.06,1.06,0,0,0,.47-.73A.39.39,0,0,0,35.64,97.11Z"/><path class="cls-10" d="M37.91,101.68a1.34,1.34,0,0,0-1.24-.79.59.59,0,0,0-.48.79,1.83,1.83,0,0,0,.37.47l.09.2c.2.38.6.82,1.08.63S38.11,102.09,37.91,101.68Z"/><path class="cls-10" d="M41.7,100.17a.08.08,0,0,0,0,0S41.72,100.1,41.7,100.17Z"/><path class="cls-10" d="M42.62,99.79a.45.45,0,0,0-.49-.11.75.75,0,0,0-.32.23.61.61,0,0,0-.1.22h0a.89.89,0,0,0,0,.14.34.34,0,0,0,0,.22.36.36,0,0,0,.4.4.58.58,0,0,0,.44-.24,1.73,1.73,0,0,0,.18-.36A.48.48,0,0,0,42.62,99.79Z"/><path class="cls-10" d="M42.67,96.33a.89.89,0,0,0-.19-.52,1.29,1.29,0,0,0-.8-.5.52.52,0,0,0-.49.2.53.53,0,0,0-.08.53.71.71,0,0,0,.43.49.68.68,0,0,0,.33.09l.06.06a.41.41,0,0,0,.37.15h0l.09,0A.47.47,0,0,0,42.67,96.33Z"/><path class="cls-10" d="M39.71,98.73v0a.55.55,0,0,0,0-.22h0v0a1.15,1.15,0,0,0-.06-.17.75.75,0,0,0-.07-.12c-.08-.09-.1-.11,0,0h0a.36.36,0,0,0-.62.07.87.87,0,0,0,0,.28.55.55,0,0,0,.14.32l0,0h0a.63.63,0,0,0,.11.12,1.15,1.15,0,0,0,.23.1A.27.27,0,0,0,39.71,98.73Z"/><path class="cls-10" d="M43.1,102.12a1.13,1.13,0,0,0-.45.29.9.9,0,0,0-.15.19l-.08.06a.36.36,0,0,0-.13.38.34.34,0,0,0,.3.27,1.18,1.18,0,0,0,1-.5A.45.45,0,0,0,43.1,102.12Z"/><path class="cls-10" d="M34.6,100.87a.56.56,0,0,0,0-.12,1.05,1.05,0,0,0,0-.3c0-.07-.05-.12-.07-.19s0-.08,0,0,0-.1,0,0l0-.09h0a.53.53,0,0,0-.56-.34.55.55,0,0,0-.47.6,1,1,0,0,0,.22.59.14.14,0,0,1,0,.06h0a.29.29,0,0,0,.08.14.39.39,0,0,0,.42.09l.18,0A.35.35,0,0,0,34.6,100.87Z"/><path class="cls-11" d="M36.93,104.93c-.46-.19-.89-.32-1.39-.48s-2.46-1.73-1.66-2.22a3.06,3.06,0,0,0,.79,1.36c.32.24,1,.75,1.46.7s.49-.5.81-.44.26.43.42.63.62.27,1,.32a1.89,1.89,0,0,0,1.85-.67c.13-.15.2-.34.42-.39s.15.19.29.2.3-.09.48,0,.31.21.66.16a2.33,2.33,0,0,0,1.79-1.13c.21-.42.74-1.78.41-2.22s-.7,0-1-.25a1.13,1.13,0,0,1,.86-.68c.25,0,.37.23.56.22.84,0,.66-1.25.6-1.74a2.32,2.32,0,0,0-1-1.59c-.49-.26-.84-.09-1.31,0-.1-.44.06-1.08.61-1s1.11.86,1.37,1.23c.93,1.37.65,3.44,0,4.87a5.22,5.22,0,0,1-1.48,1.76,4.84,4.84,0,0,1-2,1.28c-.9.23-1.82.31-2.73.47a2.79,2.79,0,0,1-1.64-.16Z"/><path class="cls-11" d="M37.37,100.12c-1.06-1.06-.79.46-1.61.62s-.12-1.81-1.2-1.33c.11-.27.38-.31.64-.36.49-.11.59,0,.81-.6.39-1,.23-2.15,1.5-2.58-.51.93.14,1.3.94.95.51-.22,1.24-1.41,1.83-1s0,.82-.16,1.21c0,.18.08.85,0,1-.19.27-.58-.1-.85-.08-.86,0-.94,1.2-.68,1.81.15.36.57,1,.44,1.39-.07.21-.19.35-.43.24s-.14-.55-.21-.78c-.12-.39-.39-.6-.72-.22C37.42,100.24,37.2,100.11,37.37,100.12Z"/><path class="cls-11" d="M36.09,94.31c.4.52-1.39,1.89-1.92,1.6C34.22,95.58,35.79,93.92,36.09,94.31Z"/><path class="cls-6" d="M46.42,52.25a7.35,7.35,0,0,1-.55,1.62,4.28,4.28,0,0,1-2,2.21,7.63,7.63,0,0,1-5.72.41A5.24,5.24,0,0,1,35,52.38a6.44,6.44,0,0,1,.36-3.64,5.81,5.81,0,0,1,3.09-2.53,9.64,9.64,0,0,1,3-.4,4.08,4.08,0,0,1,2.9,1.46,8.7,8.7,0,0,1,1.93,2.47A4.28,4.28,0,0,1,46.42,52.25Z"/><path class="cls-7" d="M46,51.77a7.27,7.27,0,0,1-.55,1.61,4.24,4.24,0,0,1-2,2.21A7.66,7.66,0,0,1,37.7,56a5.26,5.26,0,0,1-3.16-4.11,6.52,6.52,0,0,1,.36-3.64A5.85,5.85,0,0,1,38,45.73a9.36,9.36,0,0,1,3-.41,4.08,4.08,0,0,1,2.9,1.46,8.88,8.88,0,0,1,1.93,2.48A4.19,4.19,0,0,1,46,51.77Z"/><path class="cls-8" d="M45.62,52.18A6.73,6.73,0,0,1,45,53.67a4,4,0,0,1-2.08,1.95,7.29,7.29,0,0,1-5.47-.06,5,5,0,0,1-2.68-4.17A6.11,6.11,0,0,1,35.36,48a5.53,5.53,0,0,1,3.15-2.17,9.23,9.23,0,0,1,2.88-.15A3.94,3.94,0,0,1,44,47.26a9,9,0,0,1,1.64,2.51A4.13,4.13,0,0,1,45.62,52.18Z"/><path class="cls-9" d="M38.6,54.51c-.22-.22-.66-.11-.9.06s-.05.27-.26.3-.6-.35-.74-.5A2.8,2.8,0,0,1,36.14,53c-.15-.54-.42-.56-.76-.22-1-.8,0-2.55-.06-3.52A1.2,1.2,0,0,1,36.06,48c.23.41,1.67-1.45,1.69-.49,0,.25-.34.53-.46.72a1,1,0,0,0,.05,1.22l.15-.1c0,.3-.24.33-.46.43s-.2,0-.3.09-.13.26-.23.33c-.59.45-.3-.69-.39-1-.38.14-.24,1.4-.22,1.74s.37,1.1.71.57c.3.29.2.94.29,1.32a.87.87,0,0,0,.24.55c.07,0,.55.19.58,0,.07-.42-.47-1-.17-1.33.11-.14.35-.1.5-.17s.09-.19.24-.24c.22.27,0,.72.26,1a.72.72,0,0,0,.81.16c.07.6,1,.32,1.23,0s.25-1.09-.24-1c-.06-.25-.3-.64-.32-.86s.45-.67.8-.69c.07,0,.06.22.2.17s.16-.39.19-.52a4.54,4.54,0,0,0,.19-.79c0-.1-.07-.24-.07-.3,0-.26.13-.7.48-.73s.45.54.69.81a1.05,1.05,0,0,0,.75.36c.23,0,.63-.23.77,0a.74.74,0,0,1,0-.69,1.32,1.32,0,0,1,.81.68,2.59,2.59,0,0,0,.17.38,3,3,0,0,1,.21.32c.1.22.19.47,0,.65s-.61-.12-.92.1c-.13.1-.17.32-.27.44a1.18,1.18,0,0,1-.57.33c-.38.15-.86.5-.65,1,.15.36.23.1.49,0s.18.06.39-.12.2-.32.34-.43c.17.21,0,.74,0,1-.17.7-.45,1.68-1.31,1.47-.42-.11-.45-.66-.77-.76s-.26.18-.47.38-.32,0-.57.15-.16.44-.3.62-.27.21-.58.24-.79.17-1,.06S38.79,54.7,38.6,54.51Z"/><path class="cls-9" d="M39.52,46.06a2.29,2.29,0,0,1-.44.09c-.39,0-1-.15-1.35.18-.55.52,1.56.24,1.41.5s-.35.42-.36.64.06.2.24.36c.37.33.44.56.79.11a1.46,1.46,0,0,1,1.09-.7,3.38,3.38,0,0,1,1.45,0c.31.1.45.53.83.45s.2-.46,0-.76-1.87-1.2-1.56-.37c-.34.15-1.1.29-1.35-.06.12-.19.33-.3.46-.49A1.78,1.78,0,0,0,39.52,46.06Z"/><path class="cls-10" d="M38.18,46.43a1.93,1.93,0,0,0-.58.27,2.88,2.88,0,0,0-.67.4.48.48,0,0,0,.22.86,1.77,1.77,0,0,0,1.61-.76A.5.5,0,0,0,38.18,46.43Z"/><path class="cls-10" d="M37.15,48.87a.7.7,0,0,0-.36.38.53.53,0,0,0,0,.33s0,.05,0,.07a.24.24,0,0,0,.16.22.27.27,0,0,0,.26,0,.87.87,0,0,0,.39-.62A.32.32,0,0,0,37.15,48.87Z"/><path class="cls-10" d="M39.08,52.77A1.14,1.14,0,0,0,38,52.09a.5.5,0,0,0-.4.68,1.44,1.44,0,0,0,.31.4,1.3,1.3,0,0,0,.08.17c.17.32.51.69.92.54S39.25,53.11,39.08,52.77Z"/><path class="cls-10" d="M42.31,51.48s0,0,0,0S42.33,51.42,42.31,51.48Z"/><path class="cls-10" d="M43.09,51.15a.4.4,0,0,0-.42-.09.6.6,0,0,0-.27.2.55.55,0,0,0-.08.18h0l0,.12a.28.28,0,0,0,0,.18.32.32,0,0,0,.34.35.54.54,0,0,0,.38-.22,1.68,1.68,0,0,0,.15-.3A.41.41,0,0,0,43.09,51.15Z"/><path class="cls-10" d="M43.14,48.2a.76.76,0,0,0-.16-.43,1.08,1.08,0,0,0-.69-.43.45.45,0,0,0-.42.17.48.48,0,0,0-.06.45.61.61,0,0,0,.36.42.5.5,0,0,0,.29.07l0,.06a.39.39,0,0,0,.32.12h.08A.44.44,0,0,0,43.14,48.2Z"/><path class="cls-10" d="M40.62,50.25v0a.25.25,0,0,0,0-.19h0v0a.37.37,0,0,0,0-.15l-.06-.1c-.07-.08-.09-.09,0,0h0a.26.26,0,0,0-.16-.11.29.29,0,0,0-.36.17.64.64,0,0,0,0,.23.47.47,0,0,0,.12.28h0v0a.38.38,0,0,0,.09.09.59.59,0,0,0,.2.09A.23.23,0,0,0,40.62,50.25Z"/><path class="cls-10" d="M43.5,53.14a1.08,1.08,0,0,0-.39.25,1,1,0,0,0-.12.16.18.18,0,0,0-.07.05.33.33,0,0,0-.11.32.32.32,0,0,0,.26.24,1,1,0,0,0,.86-.44A.38.38,0,0,0,43.5,53.14Z"/><path class="cls-10" d="M36.26,52.07l0-.1a.72.72,0,0,0,0-.25l-.06-.17s0-.06,0,0,0-.08,0,0a.19.19,0,0,0,0-.08h0a.44.44,0,0,0-.48-.29.47.47,0,0,0-.4.51.85.85,0,0,0,.19.51s0,0,0,0h0a.41.41,0,0,0,.07.11.33.33,0,0,0,.36.08.38.38,0,0,0,.15,0A.3.3,0,0,0,36.26,52.07Z"/><path class="cls-11" d="M38.24,55.54a10.93,10.93,0,0,0-1.18-.41c-.4-.13-2.1-1.48-1.41-1.9a2.56,2.56,0,0,0,.67,1.16c.27.21.89.65,1.25.6s.41-.43.68-.38.22.37.36.54.53.23.86.28a1.63,1.63,0,0,0,1.58-.58c.11-.13.16-.29.36-.33s.13.16.25.17.25-.08.4,0,.27.18.56.15a2,2,0,0,0,1.53-1c.18-.35.63-1.52.35-1.89s-.6,0-.83-.21a.93.93,0,0,1,.72-.58c.22,0,.32.19.49.18.71,0,.56-1.06.5-1.47a2,2,0,0,0-.82-1.36c-.41-.23-.71-.08-1.11,0-.09-.37,0-.91.52-.86s1,.73,1.16,1a4.63,4.63,0,0,1,0,4.15,4.44,4.44,0,0,1-1.26,1.5,4.14,4.14,0,0,1-1.71,1.09c-.76.2-1.55.26-2.32.4a2.4,2.4,0,0,1-1.4-.14Z"/><path class="cls-11" d="M38.62,51.43c-.91-.9-.68.4-1.37.54s-.1-1.55-1-1.14c.1-.23.32-.26.55-.31.42-.09.51,0,.69-.51.34-.83.2-1.83,1.28-2.2-.44.8.12,1.11.8.81.43-.18,1.06-1.2,1.56-.87s0,.7-.14,1c0,.15.07.72,0,.81s-.49-.09-.72-.07c-.73,0-.81,1-.58,1.54.13.31.48.83.37,1.19-.06.17-.16.29-.37.2s-.12-.47-.17-.67-.34-.5-.61-.18C38.66,51.54,38.47,51.42,38.62,51.43Z"/><path class="cls-11" d="M37.53,46.49c.34.44-1.18,1.61-1.64,1.36C35.94,47.57,37.27,46.16,37.53,46.49Z"/><path class="cls-6" d="M72,54.24a8.5,8.5,0,0,1-.65,1.9A5,5,0,0,1,69,58.73c-2.06.85-4.57,1.39-6.71.49a6.17,6.17,0,0,1-3.7-4.83A7.66,7.66,0,0,1,59,50.12a6.88,6.88,0,0,1,3.63-3,11.15,11.15,0,0,1,3.51-.47,4.81,4.81,0,0,1,3.4,1.71,10.65,10.65,0,0,1,2.27,2.91A5,5,0,0,1,72,54.24Z"/><path class="cls-7" d="M71.44,53.67a8,8,0,0,1-.65,1.9,5,5,0,0,1-2.34,2.59c-2.06.85-4.57,1.39-6.7.49A6.16,6.16,0,0,1,58,53.83a7.68,7.68,0,0,1,.42-4.28,6.92,6.92,0,0,1,3.63-3,11.21,11.21,0,0,1,3.52-.47A4.83,4.83,0,0,1,69,47.82a10.61,10.61,0,0,1,2.26,2.91A5,5,0,0,1,71.44,53.67Z"/><path class="cls-8" d="M71,54.16a7.93,7.93,0,0,1-.77,1.75,4.78,4.78,0,0,1-2.43,2.28c-2,.65-4.47,1-6.43-.06a5.89,5.89,0,0,1-3.15-4.89,7.34,7.34,0,0,1,.74-4,6.58,6.58,0,0,1,3.69-2.54,10.41,10.41,0,0,1,3.39-.17,4.55,4.55,0,0,1,3.11,1.9,10.27,10.27,0,0,1,1.92,3A4.77,4.77,0,0,1,71,54.16Z"/><path class="cls-9" d="M62.81,56.9a.89.89,0,0,0-1.06.07c-.16.11-.06.31-.31.35s-.69-.41-.87-.59a3.23,3.23,0,0,1-.64-1.6c-.18-.62-.51-.65-.91-.26-1.2-.93,0-3-.06-4.13a1.39,1.39,0,0,1,.86-1.47c.28.47,2-1.71,2-.58,0,.29-.4.62-.54.85a1.13,1.13,0,0,0,0,1.42l.19-.11c0,.35-.29.39-.55.5s-.23,0-.35.11-.16.3-.27.39c-.69.53-.36-.81-.46-1.18-.44.17-.28,1.64-.26,2s.44,1.28.84.66c.35.35.24,1.11.34,1.56.05.22.08.49.28.63s.64.23.67,0c.09-.48-.55-1.13-.19-1.56.13-.16.41-.12.59-.2s.1-.22.28-.28c.26.32,0,.85.3,1.19s.6.27,1,.19c.07.7,1.19.37,1.44,0s.29-1.29-.29-1.15c-.07-.3-.35-.76-.37-1,0-.43.53-.78,1-.81.07,0,.06.26.22.2s.19-.45.23-.6a5.44,5.44,0,0,0,.22-.93,1.84,1.84,0,0,0-.08-.35c0-.31.15-.83.57-.86s.52.63.8,1a1.27,1.27,0,0,0,.88.42c.27,0,.74-.27.9,0a.83.83,0,0,1,0-.81,1.54,1.54,0,0,1,1,.8,3.43,3.43,0,0,0,.19.44c.07.13.18.21.26.38s.21.55-.05.76-.71-.15-1.08.12c-.14.11-.19.37-.32.51a1.25,1.25,0,0,1-.66.39c-.45.18-1,.58-.76,1.2.17.43.26.13.57,0,.15-.07.22.07.46-.14s.24-.37.39-.51c.2.25,0,.88,0,1.18-.21.82-.53,2-1.54,1.72-.5-.12-.54-.76-.91-.88s-.3.21-.55.44-.38,0-.66.18-.2.51-.36.72-.32.25-.69.28a3.14,3.14,0,0,1-1.18.08C62.94,57.5,63,57.11,62.81,56.9Z"/><path class="cls-9" d="M63.88,47a2.3,2.3,0,0,1-.51.1c-.46,0-1.19-.17-1.59.21-.65.62,1.83.29,1.66.59s-.41.5-.42.75.06.23.28.43c.43.38.51.65.93.13a1.72,1.72,0,0,1,1.27-.83,4,4,0,0,1,1.71,0c.36.12.53.62,1,.53s.24-.54.06-.89-2.19-1.42-1.83-.44c-.4.17-1.29.35-1.59-.07.15-.22.39-.36.54-.57A2.11,2.11,0,0,0,63.88,47Z"/><path class="cls-10" d="M62.31,47.41a2.22,2.22,0,0,0-.68.31,3.4,3.4,0,0,0-.78.48.57.57,0,0,0,.25,1A2.1,2.1,0,0,0,63,48.32.59.59,0,0,0,62.31,47.41Z"/><path class="cls-10" d="M61.1,50.27a.88.88,0,0,0-.42.45.65.65,0,0,0,0,.39.25.25,0,0,0,0,.09.35.35,0,0,0,.19.25.34.34,0,0,0,.31,0,1,1,0,0,0,.47-.73A.39.39,0,0,0,61.1,50.27Z"/><path class="cls-10" d="M63.37,54.85a1.32,1.32,0,0,0-1.24-.79.58.58,0,0,0-.48.79,1.48,1.48,0,0,0,.37.47,1.76,1.76,0,0,0,.09.2c.2.37.6.82,1.08.63S63.57,55.25,63.37,54.85Z"/><path class="cls-10" d="M67.16,53.33s0,0,0,0Z"/><path class="cls-10" d="M68.08,53a.49.49,0,0,0-.5-.12.73.73,0,0,0-.31.24.5.5,0,0,0-.1.21h0c0,.05,0,.09,0,.14a.42.42,0,0,0,0,.22.37.37,0,0,0,.4.4.58.58,0,0,0,.44-.25,1.49,1.49,0,0,0,.17-.36A.44.44,0,0,0,68.08,53Z"/><path class="cls-10" d="M68.13,49.49a.87.87,0,0,0-.19-.51,1.32,1.32,0,0,0-.8-.5.54.54,0,0,0-.57.72.75.75,0,0,0,.43.5.67.67,0,0,0,.33.08l0,.07a.46.46,0,0,0,.38.15h0l.09,0A.47.47,0,0,0,68.13,49.49Z"/><path class="cls-10" d="M65.17,51.89v0a.42.42,0,0,0,0-.22h0v0a.61.61,0,0,0-.05-.18.75.75,0,0,0-.07-.12l0,0h0a.38.38,0,0,0-.19-.14.37.37,0,0,0-.43.21.62.62,0,0,0,0,.27.55.55,0,0,0,.14.33l0,0h0l.11.11a.58.58,0,0,0,.23.1A.26.26,0,0,0,65.17,51.89Z"/><path class="cls-10" d="M68.55,55.28a1.48,1.48,0,0,0-.45.3l-.15.18-.07.06a.38.38,0,0,0-.14.38.37.37,0,0,0,.31.28,1.16,1.16,0,0,0,1-.51A.45.45,0,0,0,68.55,55.28Z"/><path class="cls-10" d="M60.06,54a.36.36,0,0,0,0-.11,1,1,0,0,0,0-.3c0-.07-.05-.13-.07-.2s0-.07,0,0,0-.1,0,0a.36.36,0,0,0,0-.1h0a.53.53,0,0,0-.56-.35.56.56,0,0,0-.48.61,1.06,1.06,0,0,0,.23.59l0,.05h0a.35.35,0,0,0,.08.13.37.37,0,0,0,.42.09l.18,0A.35.35,0,0,0,60.06,54Z"/><path class="cls-11" d="M62.39,58.1c-.46-.19-.9-.32-1.4-.48s-2.45-1.73-1.65-2.23a3,3,0,0,0,.79,1.36c.31.25,1,.76,1.46.71s.49-.5.8-.45.27.43.43.63.62.27,1,.33a1.88,1.88,0,0,0,1.85-.68c.13-.14.19-.34.42-.38s.15.19.29.2.29-.1.48-.06.31.21.66.17a2.38,2.38,0,0,0,1.79-1.13c.21-.42.73-1.79.4-2.23s-.69,0-1-.25a1.17,1.17,0,0,1,.86-.68c.25,0,.37.23.56.22.84,0,.66-1.24.6-1.73a2.37,2.37,0,0,0-1-1.6c-.48-.26-.83-.08-1.3,0-.11-.43,0-1.07.61-1s1.11.86,1.36,1.24c.93,1.36.66,3.43,0,4.86A5,5,0,0,1,69,56.63a4.62,4.62,0,0,1-2,1.28c-.89.24-1.82.31-2.72.47a2.71,2.71,0,0,1-1.64-.16Z"/><path class="cls-11" d="M62.82,53.28c-1-1.06-.78.46-1.61.63S61.1,52.09,60,52.57c.11-.26.37-.3.64-.36.49-.1.59-.05.81-.6.39-1,.23-2.14,1.5-2.58-.51.94.14,1.3.94,1,.5-.22,1.24-1.42,1.83-1s0,.82-.16,1.2c0,.18.08.85,0,1-.2.26-.58-.1-.86-.09-.85,0-.93,1.2-.67,1.82.15.36.57,1,.43,1.39-.06.21-.19.34-.43.24s-.14-.56-.21-.79c-.11-.39-.39-.59-.71-.22C62.88,53.41,62.66,53.27,62.82,53.28Z"/><path class="cls-11" d="M61.55,47.48c.4.52-1.39,1.89-1.93,1.6C59.68,48.75,61.25,47.09,61.55,47.48Z"/><path class="cls-6" d="M29.65,75.9A8.4,8.4,0,0,1,29,77.79a5,5,0,0,1-2.34,2.6c-2.07.84-4.58,1.38-6.71.48a6.14,6.14,0,0,1-3.7-4.82,7.57,7.57,0,0,1,.41-4.27,6.83,6.83,0,0,1,3.63-3,11.21,11.21,0,0,1,3.52-.47,4.79,4.79,0,0,1,3.4,1.71A10.57,10.57,0,0,1,29.48,73,4.92,4.92,0,0,1,29.65,75.9Z"/><path class="cls-7" d="M29.12,75.33a8.68,8.68,0,0,1-.65,1.9,5,5,0,0,1-2.34,2.59c-2.06.84-4.58,1.38-6.71.48a6.14,6.14,0,0,1-3.7-4.82,7.65,7.65,0,0,1,.41-4.27,6.85,6.85,0,0,1,3.64-3,11.15,11.15,0,0,1,3.51-.47,4.77,4.77,0,0,1,3.4,1.71A10.6,10.6,0,0,1,29,72.38,5.09,5.09,0,0,1,29.12,75.33Z"/><path class="cls-8" d="M28.71,75.81A8,8,0,0,1,28,77.57a4.8,4.8,0,0,1-2.44,2.28c-2,.64-4.47,1-6.43-.07a5.9,5.9,0,0,1-3.14-4.89,7.31,7.31,0,0,1,.73-4,6.52,6.52,0,0,1,3.7-2.54,10.68,10.68,0,0,1,3.39-.18,4.63,4.63,0,0,1,3.1,1.9A10.37,10.37,0,0,1,28.79,73,4.77,4.77,0,0,1,28.71,75.81Z"/><path class="cls-9" d="M20.48,78.55a.91.91,0,0,0-1.05.07c-.16.12-.06.31-.31.36s-.7-.42-.87-.6a3.17,3.17,0,0,1-.65-1.6c-.18-.62-.5-.65-.9-.25-1.2-.94,0-3-.07-4.13a1.4,1.4,0,0,1,.87-1.48c.27.48,2-1.7,2-.57,0,.29-.4.61-.53.85A1.13,1.13,0,0,0,19,72.62c.05,0,.15-.08.18-.11,0,.35-.28.38-.54.5s-.24,0-.36.11-.15.3-.26.38c-.7.54-.36-.81-.46-1.17-.45.16-.28,1.64-.26,2s.44,1.29.83.67c.36.34.24,1.11.34,1.55a1,1,0,0,0,.29.64c.08.06.64.23.67,0,.08-.49-.55-1.13-.2-1.56.14-.16.42-.12.59-.2s.11-.22.28-.28c.27.32,0,.85.31,1.19s.59.26,1,.19c.07.7,1.18.36,1.43,0s.29-1.28-.28-1.15a10.53,10.53,0,0,1-.37-1c0-.43.53-.78.94-.81.08,0,.07.26.23.2s.19-.45.22-.61a6.31,6.31,0,0,0,.23-.93,3.46,3.46,0,0,0-.09-.35c0-.3.16-.82.57-.86s.53.64.81,1a1.24,1.24,0,0,0,.87.43c.27,0,.75-.27.91,0a.86.86,0,0,1,.05-.82,1.56,1.56,0,0,1,.95.8,3,3,0,0,0,.19.45,2.29,2.29,0,0,1,.26.38c.12.25.22.54,0,.76s-.71-.15-1.08.12c-.15.1-.2.37-.32.51a1.49,1.49,0,0,1-.66.39c-.46.17-1,.58-.76,1.2.17.43.26.12.56,0s.22.07.47-.14.23-.37.39-.51c.2.25,0,.87,0,1.17-.2.83-.53,2-1.54,1.73-.49-.12-.53-.77-.9-.88s-.31.2-.56.43-.37,0-.66.19-.19.51-.35.72-.33.25-.69.28-.92.2-1.19.07S20.71,78.77,20.48,78.55Z"/><path class="cls-9" d="M21.56,68.64a5.09,5.09,0,0,1-.51.1c-.46,0-1.2-.18-1.59.2-.65.63,1.83.29,1.65.59s-.41.5-.42.76.07.23.28.42c.44.39.52.65.94.13A1.69,1.69,0,0,1,23.18,70a4,4,0,0,1,1.71,0c.36.13.53.63,1,.53s.24-.53.06-.88-2.2-1.42-1.84-.44c-.39.17-1.29.34-1.58-.08.14-.22.39-.35.54-.57A2.11,2.11,0,0,0,21.56,68.64Z"/><path class="cls-10" d="M20,69.06a2.72,2.72,0,0,0-.69.32,4.1,4.1,0,0,0-.78.47.58.58,0,0,0,.26,1A2.11,2.11,0,0,0,20.67,70,.6.6,0,0,0,20,69.06Z"/><path class="cls-10" d="M18.78,71.93a.78.78,0,0,0-.42.45.55.55,0,0,0,0,.38v.09a.29.29,0,0,0,.19.25.34.34,0,0,0,.31,0,1,1,0,0,0,.46-.73A.39.39,0,0,0,18.78,71.93Z"/><path class="cls-10" d="M21.05,76.51a1.35,1.35,0,0,0-1.25-.8.59.59,0,0,0-.47.8,1.74,1.74,0,0,0,.37.47,1.08,1.08,0,0,0,.08.19c.21.38.6.82,1.08.64S21.25,76.91,21.05,76.51Z"/><path class="cls-10" d="M24.84,75v0Z"/><path class="cls-10" d="M25.75,74.61a.45.45,0,0,0-.49-.11.82.82,0,0,0-.32.23.57.57,0,0,0-.09.22h0a.65.65,0,0,0,0,.13.34.34,0,0,0,0,.22.38.38,0,0,0,.4.41.62.62,0,0,0,.44-.25,1.35,1.35,0,0,0,.18-.36A.45.45,0,0,0,25.75,74.61Z"/><path class="cls-10" d="M25.8,71.15a.85.85,0,0,0-.18-.51,1.33,1.33,0,0,0-.81-.51.52.52,0,0,0-.49.2.56.56,0,0,0-.08.53.71.71,0,0,0,.43.49.6.6,0,0,0,.34.09l0,.07a.45.45,0,0,0,.38.14h0l.09,0A.48.48,0,0,0,25.8,71.15Z"/><path class="cls-10" d="M22.85,73.55s0,0,0,0a.34.34,0,0,0,0-.22h0v-.05a1.09,1.09,0,0,0,0-.17.75.75,0,0,1-.07-.12c-.08-.09-.1-.11-.05,0h0a.3.3,0,0,0-.19-.13A.35.35,0,0,0,22,73a.69.69,0,0,0-.05.28.55.55,0,0,0,.14.32v0h0a.58.58,0,0,0,.1.12,1,1,0,0,0,.24.1A.27.27,0,0,0,22.85,73.55Z"/><path class="cls-10" d="M26.23,76.94a1.05,1.05,0,0,0-.45.3.65.65,0,0,0-.15.18l-.08.06a.36.36,0,0,0-.13.38.34.34,0,0,0,.3.27,1.18,1.18,0,0,0,1-.5A.45.45,0,0,0,26.23,76.94Z"/><path class="cls-10" d="M17.73,75.69l0-.12a.8.8,0,0,0,0-.3.73.73,0,0,0-.07-.19s0-.08,0,0,0-.1,0,0l0-.09h0a.54.54,0,0,0-.57-.35.56.56,0,0,0-.47.6,1,1,0,0,0,.23.59.14.14,0,0,0,0,.06h0a.64.64,0,0,0,.08.14.4.4,0,0,0,.42.09l.18,0A.34.34,0,0,0,17.73,75.69Z"/><path class="cls-11" d="M20.06,79.75c-.45-.19-.89-.32-1.39-.48S16.21,77.54,17,77.05a2.84,2.84,0,0,0,.79,1.36c.31.24,1,.76,1.46.71s.49-.51.8-.45.26.43.42.63.62.27,1,.32A1.88,1.88,0,0,0,23.35,79c.13-.15.2-.34.42-.38s.16.19.3.19.29-.09.47-.05.32.21.66.16A2.33,2.33,0,0,0,27,77.74c.22-.41.74-1.78.41-2.22s-.7,0-1-.25a1.12,1.12,0,0,1,.85-.68c.25,0,.38.23.57.22.83,0,.66-1.25.59-1.73a2.34,2.34,0,0,0-1-1.6c-.48-.26-.84-.09-1.31,0-.1-.43.06-1.08.62-1s1.1.86,1.36,1.24c.93,1.36.65,3.43.05,4.86a5.22,5.22,0,0,1-1.48,1.76,4.84,4.84,0,0,1-2,1.28c-.89.24-1.82.31-2.72.47a2.82,2.82,0,0,1-1.65-.16Z"/><path class="cls-11" d="M20.5,74.94c-1.06-1.06-.79.46-1.61.62s-.11-1.81-1.2-1.33c.11-.26.38-.31.64-.36.5-.11.6-.05.82-.6.39-1,.23-2.14,1.49-2.58-.51.94.14,1.3.94,1,.51-.22,1.25-1.41,1.83-1s0,.82-.15,1.21c-.06.18.07.85,0,1-.2.27-.59-.1-.86-.08-.86,0-.94,1.2-.68,1.82.16.35.57,1,.44,1.38-.07.21-.19.35-.43.24s-.14-.55-.21-.78c-.12-.39-.39-.59-.71-.22C20.56,75.06,20.33,74.93,20.5,74.94Z"/><path class="cls-11" d="M19.22,69.13c.41.53-1.39,1.89-1.92,1.6C17.35,70.4,18.92,68.75,19.22,69.13Z"/><path class="cls-6" d="M73.56,100.2a8.59,8.59,0,0,1-.65,1.89,5,5,0,0,1-2.34,2.6c-2.06.84-4.58,1.38-6.71.48a6.15,6.15,0,0,1-3.7-4.82,7.56,7.56,0,0,1,.42-4.27,6.79,6.79,0,0,1,3.63-3,11.45,11.45,0,0,1,3.51-.48,4.89,4.89,0,0,1,3.41,1.71,11,11,0,0,1,2.26,2.91A5.09,5.09,0,0,1,73.56,100.2Z"/><path class="cls-7" d="M73,99.63a8.58,8.58,0,0,1-.64,1.89A5,5,0,0,1,70,104.11c-2.06.85-4.57,1.39-6.71.49a6.15,6.15,0,0,1-3.7-4.82A7.65,7.65,0,0,1,60,95.51a6.83,6.83,0,0,1,3.63-3,11.45,11.45,0,0,1,3.51-.48,4.84,4.84,0,0,1,3.41,1.72,10.76,10.76,0,0,1,2.26,2.9A5,5,0,0,1,73,99.63Z"/><path class="cls-8" d="M72.62,100.11a7.93,7.93,0,0,1-.77,1.75,4.74,4.74,0,0,1-2.44,2.29c-2,.64-4.46.95-6.43-.07a5.9,5.9,0,0,1-3.14-4.89,7.25,7.25,0,0,1,.74-4,6.59,6.59,0,0,1,3.69-2.54,11,11,0,0,1,3.39-.17,4.65,4.65,0,0,1,3.11,1.9,10.55,10.55,0,0,1,1.92,3A4.85,4.85,0,0,1,72.62,100.11Z"/><path class="cls-9" d="M64.39,102.85a.92.92,0,0,0-1.06.07c-.16.12-.06.31-.31.36s-.7-.42-.87-.6a3.26,3.26,0,0,1-.65-1.6c-.18-.62-.5-.65-.9-.25-1.2-.94,0-3-.06-4.13a1.4,1.4,0,0,1,.86-1.48c.27.48,2-1.71,2-.57,0,.29-.41.61-.54.84a1.14,1.14,0,0,0,0,1.43c.05,0,.15-.08.18-.11,0,.35-.28.38-.54.5s-.23,0-.35.11-.16.3-.27.38c-.69.53-.36-.81-.46-1.18-.44.17-.28,1.64-.26,2s.44,1.29.83.67c.36.34.24,1.1.35,1.55a1,1,0,0,0,.28.64c.08.06.64.23.67,0,.09-.49-.55-1.13-.19-1.56.13-.16.41-.12.58-.2s.11-.23.28-.29c.27.33,0,.86.31,1.2s.6.26,1,.18c.07.71,1.19.37,1.44,0s.29-1.29-.29-1.15a10.53,10.53,0,0,1-.37-1c0-.43.53-.78,1-.81.07,0,.06.25.22.2s.19-.45.22-.61a4.51,4.51,0,0,0,.23-.93c0-.12-.08-.28-.08-.35,0-.31.15-.82.57-.86s.52.64.8,1a1.24,1.24,0,0,0,.88.43c.27,0,.74-.27.9,0a.86.86,0,0,1,.05-.81,1.5,1.5,0,0,1,.95.8,3.62,3.62,0,0,0,.2.45c.07.12.18.21.26.37s.21.55,0,.77-.71-.15-1.08.11c-.15.11-.19.38-.32.52a1.3,1.3,0,0,1-.66.38c-.45.18-1,.59-.76,1.21.17.42.26.12.57,0,.15-.08.22.06.46-.15s.24-.37.39-.5c.2.25,0,.87,0,1.17-.2.83-.53,2-1.53,1.73-.5-.13-.54-.77-.91-.89s-.31.21-.56.44-.37,0-.65.18-.2.52-.36.73-.33.24-.69.28-.91.2-1.18.07S64.61,103.07,64.39,102.85Z"/><path class="cls-9" d="M65.46,92.94A4.59,4.59,0,0,1,65,93c-.46,0-1.19-.18-1.59.2-.65.62,1.83.29,1.66.59s-.42.5-.43.76.07.23.29.42c.43.39.51.65.93.13a1.72,1.72,0,0,1,1.27-.83,4.11,4.11,0,0,1,1.71,0c.36.13.53.63,1,.53s.24-.53.06-.88-2.19-1.42-1.83-.44c-.4.17-1.29.34-1.59-.08.15-.22.39-.35.54-.57A2.11,2.11,0,0,0,65.46,92.94Z"/><path class="cls-10" d="M63.89,93.36a2.24,2.24,0,0,0-.68.32,3.41,3.41,0,0,0-.78.47.57.57,0,0,0,.26,1,2.08,2.08,0,0,0,1.88-.88A.6.6,0,0,0,63.89,93.36Z"/><path class="cls-10" d="M62.68,96.23a.81.81,0,0,0-.42.45.55.55,0,0,0,0,.38.28.28,0,0,0,0,.09.31.31,0,0,0,.19.25.34.34,0,0,0,.31,0,1,1,0,0,0,.46-.73A.38.38,0,0,0,62.68,96.23Z"/><path class="cls-10" d="M65,100.8A1.34,1.34,0,0,0,63.7,100a.59.59,0,0,0-.47.79,1.48,1.48,0,0,0,.37.47l.09.2c.2.38.6.82,1.08.63S65.15,101.2,65,100.8Z"/><path class="cls-10" d="M68.74,99.29v0S68.76,99.22,68.74,99.29Z"/><path class="cls-10" d="M69.66,98.91a.46.46,0,0,0-.5-.11.79.79,0,0,0-.31.23.61.61,0,0,0-.1.22h0a1,1,0,0,0,0,.14.42.42,0,0,0,0,.22.36.36,0,0,0,.4.4.58.58,0,0,0,.44-.25,1.92,1.92,0,0,0,.18-.35A.48.48,0,0,0,69.66,98.91Z"/><path class="cls-10" d="M69.71,95.45a.87.87,0,0,0-.19-.51,1.29,1.29,0,0,0-.8-.51.54.54,0,0,0-.5.2.56.56,0,0,0-.07.53.7.7,0,0,0,.42.49.62.62,0,0,0,.34.09l0,.06a.46.46,0,0,0,.38.15h0l.09,0A.49.49,0,0,0,69.71,95.45Z"/><path class="cls-10" d="M66.75,97.85s0,0,0,0a.33.33,0,0,0,0-.22h0v0a1.09,1.09,0,0,0,0-.17l-.07-.12c-.08-.09-.1-.11,0,0h0a.3.3,0,0,0-.18-.13.36.36,0,0,0-.43.2.69.69,0,0,0,0,.28.55.55,0,0,0,.14.32v0h0a.29.29,0,0,0,.11.11.7.7,0,0,0,.23.11A.26.26,0,0,0,66.75,97.85Z"/><path class="cls-10" d="M70.13,101.24a1.2,1.2,0,0,0-.45.29,1.39,1.39,0,0,0-.15.19l-.07.06a.35.35,0,0,0-.14.38.36.36,0,0,0,.3.27,1.17,1.17,0,0,0,1-.5A.45.45,0,0,0,70.13,101.24Z"/><path class="cls-10" d="M61.63,100a.27.27,0,0,0,0-.12,1,1,0,0,0,0-.3c0-.07,0-.12-.07-.19s0-.08,0,0,0-.09,0,0a.29.29,0,0,0,0-.09h0a.53.53,0,0,0-.56-.34.56.56,0,0,0-.48.6,1.06,1.06,0,0,0,.23.59s0,0,0,.06h0a.42.42,0,0,0,.09.14.39.39,0,0,0,.42.09l.18,0A.34.34,0,0,0,61.63,100Z"/><path class="cls-11" d="M64,104.05c-.46-.19-.9-.32-1.4-.48s-2.45-1.73-1.65-2.22a3.06,3.06,0,0,0,.79,1.36c.31.24,1,.76,1.46.7s.49-.5.8-.44.26.42.42.63.63.27,1,.32a1.9,1.9,0,0,0,1.85-.67c.13-.15.19-.34.42-.38s.15.18.29.19.29-.09.48-.06.31.22.66.17A2.31,2.31,0,0,0,70.89,102c.22-.42.74-1.78.41-2.22s-.7,0-1-.25a1.12,1.12,0,0,1,.85-.68c.26,0,.38.23.57.22.83,0,.66-1.25.6-1.74a2.33,2.33,0,0,0-1-1.59c-.48-.26-.83-.09-1.3,0-.11-.44,0-1.08.61-1s1.11.86,1.36,1.23c.93,1.37.66,3.43,0,4.86a5,5,0,0,1-1.48,1.77,4.72,4.72,0,0,1-2,1.28c-.89.23-1.82.31-2.72.47a2.79,2.79,0,0,1-1.64-.16Z"/><path class="cls-11" d="M64.4,99.24c-1.05-1.06-.79.46-1.61.62s-.11-1.81-1.2-1.33c.12-.27.38-.31.65-.36.49-.11.59,0,.81-.6.39-1,.23-2.15,1.5-2.58-.51.93.14,1.3.94,1,.5-.22,1.24-1.41,1.83-1s0,.82-.16,1.21c-.06.18.07.85,0,.95-.19.27-.58-.1-.86-.08-.85.05-.94,1.2-.67,1.81.15.36.57,1,.43,1.39-.06.21-.19.35-.43.24s-.14-.55-.21-.78c-.11-.39-.39-.6-.71-.22C64.46,99.36,64.24,99.23,64.4,99.24Z"/><path class="cls-11" d="M63.13,93.43c.4.52-1.39,1.89-1.93,1.6C61.26,94.7,62.83,93.05,63.13,93.43Z"/><path class="cls-6" d="M63.44,83.51A7.14,7.14,0,0,1,62.93,85a4,4,0,0,1-1.88,2.07,7.16,7.16,0,0,1-5.37.39,4.94,4.94,0,0,1-3-3.86,6.12,6.12,0,0,1,.34-3.42A5.48,5.48,0,0,1,56,77.83a8.83,8.83,0,0,1,2.81-.38,3.89,3.89,0,0,1,2.73,1.37,8.66,8.66,0,0,1,1.81,2.33A4,4,0,0,1,63.44,83.51Z"/><path class="cls-7" d="M63,83.05a7.14,7.14,0,0,1-.51,1.52,4,4,0,0,1-1.88,2.07,7.21,7.21,0,0,1-5.37.4,5,5,0,0,1-3-3.87,6.21,6.21,0,0,1,.34-3.42,5.53,5.53,0,0,1,2.91-2.38A9.13,9.13,0,0,1,58.34,77a3.89,3.89,0,0,1,2.73,1.37,8.86,8.86,0,0,1,1.81,2.33A4,4,0,0,1,63,83.05Z"/><path class="cls-8" d="M62.69,83.44a6.81,6.81,0,0,1-.61,1.4,3.82,3.82,0,0,1-1.95,1.83,6.89,6.89,0,0,1-5.15,0,4.73,4.73,0,0,1-2.52-3.92,5.76,5.76,0,0,1,.59-3.23,5.25,5.25,0,0,1,3-2,8.78,8.78,0,0,1,2.71-.14,3.71,3.71,0,0,1,2.49,1.53,8.36,8.36,0,0,1,1.54,2.36A3.88,3.88,0,0,1,62.69,83.44Z"/><path class="cls-9" d="M56.1,85.63a.73.73,0,0,0-.84.06c-.13.09-.06.25-.25.28s-.56-.33-.7-.47a2.6,2.6,0,0,1-.52-1.28c-.14-.5-.4-.52-.72-.21-1-.75,0-2.4,0-3.31a1.12,1.12,0,0,1,.69-1.18c.22.39,1.57-1.37,1.59-.46,0,.23-.32.5-.43.68a.9.9,0,0,0,0,1.14s.12-.06.15-.09c0,.28-.23.31-.44.4s-.19,0-.28.09-.13.24-.21.31c-.56.42-.29-.65-.37-.94-.36.13-.23,1.31-.21,1.63s.35,1,.67.54c.28.27.19.88.27,1.24a.78.78,0,0,0,.23.51c.07.05.51.19.54,0,.06-.39-.44-.9-.16-1.25.11-.12.33-.09.47-.16s.09-.18.22-.22c.22.26,0,.68.25,1s.48.21.77.15c0,.56.95.3,1.15,0s.23-1-.23-.92c-.06-.24-.28-.6-.3-.81s.43-.63.76-.65c.06,0,.05.21.18.16s.15-.36.18-.49a4,4,0,0,0,.18-.74,2.26,2.26,0,0,0-.07-.28c0-.25.13-.66.46-.69s.42.51.64.76a1,1,0,0,0,.7.34c.22,0,.6-.22.73,0a.68.68,0,0,1,0-.65,1.22,1.22,0,0,1,.76.64,2.32,2.32,0,0,0,.16.36c.06.1.14.17.21.3s.17.44,0,.61-.57-.12-.86.1c-.12.08-.16.3-.26.41a1.15,1.15,0,0,1-.53.31c-.37.14-.81.47-.61,1,.14.34.21.1.45,0s.18,0,.38-.12.18-.29.31-.4c.16.2,0,.7,0,.94-.16.66-.43,1.58-1.24,1.38-.39-.1-.42-.62-.72-.71s-.24.17-.45.35-.29,0-.52.15-.16.41-.29.58-.26.19-.55.22a2.54,2.54,0,0,1-.95.06C56.2,86.11,56.28,85.8,56.1,85.63Z"/><path class="cls-9" d="M57,77.69a2,2,0,0,1-.41.08c-.36,0-1-.14-1.27.17-.52.49,1.46.23,1.33.47s-.33.4-.34.6,0,.19.22.34c.35.31.41.52.75.11a1.35,1.35,0,0,1,1-.66,3.33,3.33,0,0,1,1.37,0c.28.1.42.51.78.43s.19-.43,0-.71S58.7,77.37,59,78.15c-.31.14-1,.27-1.27-.06.12-.18.32-.28.44-.46A1.75,1.75,0,0,0,57,77.69Z"/><path class="cls-10" d="M55.71,78a1.8,1.8,0,0,0-.56.26,3.37,3.37,0,0,0-.62.37.46.46,0,0,0,.21.82,1.68,1.68,0,0,0,1.51-.72A.48.48,0,0,0,55.71,78Z"/><path class="cls-10" d="M54.73,80.33a.65.65,0,0,0-.33.36.44.44,0,0,0,0,.3.22.22,0,0,0,0,.08.26.26,0,0,0,.15.2.28.28,0,0,0,.25,0,.79.79,0,0,0,.37-.58A.31.31,0,0,0,54.73,80.33Z"/><path class="cls-10" d="M56.55,84a1.07,1.07,0,0,0-1-.63.47.47,0,0,0-.38.63,1.32,1.32,0,0,0,.3.38,1.11,1.11,0,0,0,.07.16c.16.3.48.65.86.5S56.71,84.31,56.55,84Z"/><path class="cls-10" d="M59.59,82.78a0,0,0,0,1,0,0S59.6,82.72,59.59,82.78Z"/><path class="cls-10" d="M60.32,82.48a.37.37,0,0,0-.4-.09.64.64,0,0,0-.25.18.45.45,0,0,0-.07.18h0l0,.11a.29.29,0,0,0,0,.18.29.29,0,0,0,.32.32.46.46,0,0,0,.35-.2,1.55,1.55,0,0,0,.14-.29A.36.36,0,0,0,60.32,82.48Z"/><path class="cls-10" d="M60.36,79.7a.71.71,0,0,0-.15-.41,1,1,0,0,0-.64-.4.43.43,0,0,0-.46.58.6.6,0,0,0,.34.4.68.68,0,0,0,.27.07l.05,0a.37.37,0,0,0,.3.12h0l.07,0A.39.39,0,0,0,60.36,79.7Z"/><path class="cls-10" d="M58,81.62v0a.33.33,0,0,0,0-.17h0v0a.74.74,0,0,0,0-.14l-.06-.1c-.06-.07-.08-.08,0,0h0a.33.33,0,0,0-.15-.11.29.29,0,0,0-.34.16.45.45,0,0,0,0,.23.38.38,0,0,0,.11.26h0a.38.38,0,0,0,.09.09.54.54,0,0,0,.19.08A.2.2,0,0,0,58,81.62Z"/><path class="cls-10" d="M60.7,84.34a1,1,0,0,0-.36.24.81.81,0,0,0-.12.14l-.06,0a.31.31,0,0,0-.11.31.32.32,0,0,0,.24.22.94.94,0,0,0,.82-.41A.36.36,0,0,0,60.7,84.34Z"/><path class="cls-10" d="M53.9,83.34l0-.09a.66.66,0,0,0,0-.24c0-.06,0-.11-.05-.16s0-.06,0,0,0-.07,0,0,0,0,0-.08h0a.43.43,0,0,0-.45-.28.45.45,0,0,0-.38.48.82.82,0,0,0,.18.48s0,0,0,0h0a.36.36,0,0,0,.07.1.3.3,0,0,0,.33.08h.15A.28.28,0,0,0,53.9,83.34Z"/><path class="cls-11" d="M55.76,86.59c-.36-.15-.71-.25-1.11-.38s-2-1.39-1.32-1.78A2.31,2.31,0,0,0,54,85.52c.25.19.83.6,1.17.56s.39-.4.64-.36.21.35.34.51.5.21.81.26A1.53,1.53,0,0,0,58.4,86c.1-.12.15-.27.33-.31s.13.15.24.16.24-.08.38,0,.25.17.53.14A1.87,1.87,0,0,0,61.31,85c.17-.33.59-1.42.33-1.78s-.56,0-.78-.2a.89.89,0,0,1,.68-.54c.21,0,.3.18.46.17.67,0,.53-1,.47-1.38A1.8,1.8,0,0,0,61.7,80c-.38-.21-.66-.07-1,0-.09-.35,0-.87.49-.81s.89.69,1.09,1a4.33,4.33,0,0,1,0,3.89,4.22,4.22,0,0,1-1.18,1.41,3.94,3.94,0,0,1-1.61,1c-.71.18-1.45.25-2.18.37A2.25,2.25,0,0,1,56,86.7Z"/><path class="cls-11" d="M56.11,82.74c-.84-.85-.63.37-1.28.5s-.1-1.45-1-1.07c.1-.21.31-.25.52-.29.39-.08.48,0,.65-.48.31-.78.18-1.72,1.2-2.06-.41.74.11,1,.75.76.4-.18,1-1.13,1.47-.83s0,.66-.13,1c0,.14.06.68,0,.76s-.46-.08-.68-.06c-.69,0-.76,1-.55,1.45.13.29.46.77.35,1.11,0,.17-.15.28-.34.19s-.12-.44-.17-.62-.31-.48-.57-.18C56.16,82.84,56,82.73,56.11,82.74Z"/><path class="cls-11" d="M55.09,78.09c.32.42-1.11,1.51-1.54,1.28C53.59,79.11,54.85,77.78,55.09,78.09Z"/><path class="cls-6" d="M48.88,69.85a6.12,6.12,0,0,1-.49,1.46,3.85,3.85,0,0,1-1.81,2,6.91,6.91,0,0,1-5.18.38A4.76,4.76,0,0,1,38.54,70a5.88,5.88,0,0,1,.33-3.3,5.24,5.24,0,0,1,2.8-2.29A8.5,8.5,0,0,1,44.38,64,3.74,3.74,0,0,1,47,65.33a8,8,0,0,1,1.74,2.24A3.76,3.76,0,0,1,48.88,69.85Z"/><path class="cls-7" d="M48.47,69.41a6.61,6.61,0,0,1-.5,1.46,3.84,3.84,0,0,1-1.8,2,6.92,6.92,0,0,1-5.18.38,4.76,4.76,0,0,1-2.86-3.72,6,6,0,0,1,.32-3.3,5.27,5.27,0,0,1,2.8-2.29A8.52,8.52,0,0,1,44,63.57a3.73,3.73,0,0,1,2.62,1.32,8.13,8.13,0,0,1,1.75,2.25A3.88,3.88,0,0,1,48.47,69.41Z"/><path class="cls-8" d="M48.16,69.78a6.42,6.42,0,0,1-.59,1.36,3.75,3.75,0,0,1-1.88,1.76,6.6,6.6,0,0,1-5-.06,4.54,4.54,0,0,1-2.43-3.77A5.53,5.53,0,0,1,38.87,66a5.09,5.09,0,0,1,2.85-2,8.45,8.45,0,0,1,2.61-.13,3.54,3.54,0,0,1,2.4,1.47,7.9,7.9,0,0,1,1.49,2.27A3.69,3.69,0,0,1,48.16,69.78Z"/><path class="cls-9" d="M41.81,71.9c-.21-.2-.6-.1-.82,0s-.05.24-.24.28-.54-.33-.67-.46a2.5,2.5,0,0,1-.5-1.24c-.14-.48-.39-.5-.7-.2-.92-.72,0-2.31,0-3.18A1.07,1.07,0,0,1,39.5,66c.21.37,1.51-1.32,1.54-.44,0,.22-.32.47-.42.65a.87.87,0,0,0,0,1.1l.14-.09c0,.27-.22.3-.42.39s-.18,0-.27.08-.12.23-.21.3c-.53.41-.27-.63-.35-.91-.34.13-.22,1.27-.2,1.58s.34,1,.64.52c.28.26.19.85.27,1.19a.74.74,0,0,0,.22.5c.06,0,.49.17.51,0,.07-.37-.42-.87-.15-1.2.11-.12.32-.09.46-.15s.08-.18.21-.22c.21.25,0,.66.24.92s.46.2.74.14c0,.55.91.29,1.11,0s.22-1-.22-.88c-.05-.23-.27-.59-.29-.79s.41-.6.73-.62c.06,0,0,.19.17.15s.15-.35.18-.47a4.43,4.43,0,0,0,.17-.72c0-.09-.06-.22-.06-.27,0-.23.12-.63.44-.66s.4.49.62.73a.94.94,0,0,0,.67.33c.21,0,.58-.21.7,0a.65.65,0,0,1,0-.62,1.2,1.2,0,0,1,.74.61,3.65,3.65,0,0,0,.14.35,1.64,1.64,0,0,1,.2.29c.09.19.17.42,0,.59s-.55-.12-.83.09c-.12.08-.15.29-.25.4a1,1,0,0,1-.51.29c-.35.14-.78.45-.59.93.13.33.2.1.44,0s.17,0,.36-.11.18-.29.3-.39c.16.19,0,.67,0,.9-.16.64-.41,1.53-1.19,1.34-.38-.1-.41-.6-.7-.69s-.23.16-.43.34-.28,0-.5.14-.15.4-.28.56-.25.19-.53.22-.71.15-.91,0S42,72.06,41.81,71.9Z"/><path class="cls-9" d="M42.64,64.24a2.08,2.08,0,0,1-.39.08c-.36,0-.93-.13-1.24.16-.5.48,1.42.22,1.28.46s-.31.38-.32.58.05.18.22.33c.33.29.39.5.72.1a1.28,1.28,0,0,1,1-.64,3,3,0,0,1,1.33,0c.27.09.4.48.75.41s.18-.42,0-.69-1.69-1.09-1.42-.34c-.3.14-1,.27-1.22-.05.12-.17.3-.28.42-.45A1.67,1.67,0,0,0,42.64,64.24Z"/><path class="cls-10" d="M41.43,64.57a1.85,1.85,0,0,0-.53.25,2.8,2.8,0,0,0-.61.36.44.44,0,0,0,.2.78A1.62,1.62,0,0,0,42,65.28.46.46,0,0,0,41.43,64.57Z"/><path class="cls-10" d="M40.49,66.78a.61.61,0,0,0-.32.35.51.51,0,0,0,0,.3v.07a.23.23,0,0,0,.15.19.23.23,0,0,0,.24,0,.76.76,0,0,0,.35-.56A.3.3,0,0,0,40.49,66.78Z"/><path class="cls-10" d="M42.24,70.32a1,1,0,0,0-1-.61.45.45,0,0,0-.36.61,1.17,1.17,0,0,0,.28.36,1,1,0,0,0,.07.15c.15.29.46.63.83.49S42.4,70.63,42.24,70.32Z"/><path class="cls-10" d="M45.17,69.15s0,0,0,0S45.18,69.09,45.17,69.15Z"/><path class="cls-10" d="M45.88,68.85a.37.37,0,0,0-.39-.08.53.53,0,0,0-.24.18.31.31,0,0,0-.07.17h0a.43.43,0,0,0,0,.11.21.21,0,0,0,0,.17.28.28,0,0,0,.31.31.47.47,0,0,0,.34-.19,1.75,1.75,0,0,0,.13-.28A.37.37,0,0,0,45.88,68.85Z"/><path class="cls-10" d="M45.92,66.18a.7.7,0,0,0-.15-.39.94.94,0,0,0-.62-.39.39.39,0,0,0-.38.15.43.43,0,0,0-.06.41.55.55,0,0,0,.33.38.59.59,0,0,0,.26.07l0,0a.36.36,0,0,0,.29.11h0l.07,0A.36.36,0,0,0,45.92,66.18Z"/><path class="cls-10" d="M43.63,68v0a.33.33,0,0,0,0-.17h0v0a.74.74,0,0,0,0-.14l-.06-.09c-.06-.07-.07-.08,0,0h0a.3.3,0,0,0-.14-.1.28.28,0,0,0-.33.16.38.38,0,0,0,0,.21.44.44,0,0,0,.11.25v0h0a.6.6,0,0,0,.08.08.55.55,0,0,0,.18.08A.2.2,0,0,0,43.63,68Z"/><path class="cls-10" d="M46.24,70.65a1,1,0,0,0-.34.23.53.53,0,0,0-.12.14l-.06,0a.27.27,0,0,0-.1.29.28.28,0,0,0,.23.21.9.9,0,0,0,.79-.39A.35.35,0,0,0,46.24,70.65Z"/><path class="cls-10" d="M39.68,69.69a.24.24,0,0,0,0-.09.85.85,0,0,0,0-.23.66.66,0,0,0-.05-.15s0-.06,0,0,0-.08,0,0,0,0,0-.08h0a.41.41,0,0,0-.43-.27.44.44,0,0,0-.37.46.83.83,0,0,0,.18.46v0h0a.21.21,0,0,0,.06.1.28.28,0,0,0,.32.07l.14,0A.26.26,0,0,0,39.68,69.69Z"/><path class="cls-11" d="M41.48,72.82c-.35-.14-.69-.24-1.07-.37s-1.9-1.33-1.28-1.71a2.38,2.38,0,0,0,.61,1c.24.19.81.59,1.13.55s.38-.39.62-.34.2.33.32.48.48.21.79.25A1.44,1.44,0,0,0,44,72.2c.1-.11.15-.26.33-.29s.11.14.22.15.23-.07.37,0,.24.16.51.13a1.82,1.82,0,0,0,1.38-.88c.17-.32.57-1.37.32-1.71s-.54,0-.75-.2a.85.85,0,0,1,.65-.52c.2,0,.29.17.44.17.65,0,.51-1,.46-1.34a1.75,1.75,0,0,0-.74-1.23c-.37-.2-.65-.07-1,0-.08-.34,0-.83.47-.78s.86.66,1,1a4.16,4.16,0,0,1,0,3.75,3.83,3.83,0,0,1-1.14,1.36,3.62,3.62,0,0,1-1.54,1c-.69.18-1.41.24-2.11.37a2.16,2.16,0,0,1-1.26-.13Z"/><path class="cls-11" d="M41.82,69.1c-.82-.81-.61.36-1.24.49s-.09-1.4-.93-1c.09-.2.29-.24.5-.28.38-.08.46,0,.63-.46.3-.76.18-1.66,1.15-2-.39.72.11,1,.73.73.38-.17,1-1.09,1.41-.79s0,.63-.12.93c-.05.14.06.65,0,.73s-.45-.07-.66-.06c-.66,0-.73.93-.52,1.4.11.28.43.75.33,1.07-.05.16-.14.27-.33.19s-.11-.43-.16-.61-.3-.46-.55-.16C41.86,69.2,41.69,69.1,41.82,69.1Z"/><path class="cls-11" d="M40.83,64.63c.31.4-1.07,1.46-1.48,1.23C39.39,65.61,40.6,64.33,40.83,64.63Z"/><path class="cls-12" d="M57.85,66.39c.2-.34.11-.76.23-1.07-1.21.07-1.79,1.27-2.85,1.59s-.58-.09-1.31-.32c-1-.32-2.51-.92-3.21.28-.35.61,0,1.71,0,2.36a4.38,4.38,0,0,1-.94,3.53c-1.67,2.19-4.38,3.68-7.09,2.67-5.1-1.9-9.18-8.72-4.21-13.13,2.66-2.35,7.88-2.23,10.2.66.4-1.5-1.42-1.68-2.21-2.52-2.06-2.2,1-2.25,2.38-2.92,1.06-.51.66-.88,1.06-1.81a3.69,3.69,0,0,1,2.39-2.17,7.69,7.69,0,0,1,5.16.45c.2-1-.33-1.64-.53-2.53a6,6,0,0,1,.36-3.53,6.8,6.8,0,0,1,3-3.41c.47-.24,2.46-.59,2.5-1.2.15-2.24-7-.64-8-.35-2.68.83.17,2,.89,3.71,1,2.27-2.41,4.65-3.12,2.28-.3-1,.45-1.33-.28-2.32-.59-.79-1.54-.62-1.67-1.74s1.14-1.67.14-2.7-4.58-1-5.79-1.13a8.68,8.68,0,0,0-6.45,1.81,7.75,7.75,0,0,1,3.56-.79c1.8.22,1.46,1.13,2.42,2.08.57.56,1.38.46,2.15.89a6.05,6.05,0,0,1,2.62,4.19c.84,4.47-3.2,7.43-7.18,8a11.1,11.1,0,0,1-6.37-1,6,6,0,0,0,.55,1.46c-3.57-1.15-4-3.94-4.67-7.11a13.11,13.11,0,0,1-1.53,0c-.23-1.5,1.41-2.59,1.81-3.84-2.11-.18-4.57,2.73-5.95,4-1.09,1-4.65,4-3.95,5.73,1.86-.62,3.1-1.32,2.15,1.27-.3.81-2.15,4.47-3.69,3.54-.75-.46,0-1.92.31-2.57-1.8.57-3.55,5.48-3,7.18,1.58-.69,2.38-1.63,4.17-1.44a18.13,18.13,0,0,1,5.31,1.31,5.72,5.72,0,0,1,3.46,4.41c0,.12-.5.51-.47,1,0,.69.95,1.65,1.29,2.26,1.08,2,.12,2-.53,3.69-.58,1.56.45,3.92-1.33,4.81-1,.5-2.77.19-3.84.34-1.6.23-3.17.77-4.79.86-2.32.12-3.15-1-4.61-2.51-.54,3.22,1.42,6.4,2.69,9.21.29.65,2.66,6,3.24,3.09.45.36.25.75.35,1.29A12.62,12.62,0,0,0,24,98.43c.54.95,1.93,2.9,3.06,2.94-.16-1.24-1.15-3.68-.83-4.78s2.67-1.45,2.11-2.66c.82-1.34,3.93-.4,2-2.71-.73-.89-4.63-2-3.58-3.62.46-.72,1.94-.42,2.61-.38,1.56.09,2.42.24,3.84-.64,2-1.23,4-3.92,6.6-3.25.42,1.46-1.69,2.86-.35,4.42.66.76,2,.3,2.48.85s0,.73.22,1.25c.68,1.39,2.07,1.72,3.12,2.7a10.24,10.24,0,0,1,2,3.17c1.16,2.54,1.68,5.68.43,8.28-.83,1.72-2.48,2.45-4.25,3-1.48.42-4.46.22-5.61,1.11A9.69,9.69,0,0,0,42,110.45c1.93.62,4.35,1.61,6.39,1.6,4.94,0-1.84-2.72-1-4.14.5-.87,1.88-.25,2.37.2s.41,1.08.93,1.51a7.47,7.47,0,0,0,2.93.9c2.15.44,10.22,1.81,10.17-2.24-4.26-.34-9.15,1.07-12.3-3-1.76-2.29.24-5.72.89-8.17.23.23.25.12.48.25.25-1.71.55-3-1-4.16-2.36-1.83-6.78-3.35-6.1-7.3.16-1,1.16-2.79,2.29-2.89,0,2.05.31,2.56,1.9,3.76a9.65,9.65,0,0,0,3.52,2,12.91,12.91,0,0,1-3.15-4.66c-1.36-3.46.31-8.45,3.83-10,3-1.31,7.72-1.24,10,1.3,2,2.21,1.52,5.92.68,8.55S61,86.77,59.35,88.73,55.74,94,56.87,96.51A9.88,9.88,0,0,0,58,93.43a4.71,4.71,0,0,1,3.43-3.24c3.44-1.21,9.2-2.32,11.91.86a4.82,4.82,0,0,1,1.13,3.07c.14,1.35.67,2.61.74,4a7.28,7.28,0,0,1-.75,3.64c-.51,1-1.61,1.7-1.92,2.72,2.65-.08,5-4.17,5.26-6.54a15.87,15.87,0,0,0-.36-4.56c-.19-1-1.2-3.34.6-2.7.7.24,1.29,2.79,2.2,2.18,1.07-.71-.81-3.53-1.22-4a6.16,6.16,0,0,0-4.24-2.55c-1.31-.22-2.82-.06-4-.66.35-2.17,2.9-2.25,4.58-2,3.26.42,6.13-.21,7.77-3.34-.43.82-3.17,1.22-4,1.35a11,11,0,0,1-4.56-.21c-2.54-.72-5.69-3.54-6.2-6.22a7.3,7.3,0,0,1,.86-4.71c1.84-3.69,6.29-8,10.86-6.06.37-1.64-1.26-3.17-.54-4.76,1,.24,1,1.66,1.37,2.49a10.08,10.08,0,0,0,1.52,2.47c1,1.41,1.43,3.21,2.85,4.34,2-1.34-1-6.07-1.65-7.59-.83-2.05-2.17-6-4.44-6.9A5.2,5.2,0,0,1,79,56c-3.52-1.48-1.86-8.43-6.54-8.77a14.54,14.54,0,0,1,2.46,4.93c.66,2,1.66,3.7,1.65,5.76a20.36,20.36,0,0,1,.08,3.39c-.32,1.58-1.32,1.16-2.67,1.34a5.55,5.55,0,0,0-2.38.88c-.55.34-1.35,1.44-2.07,1.4-2.17-.11.26-2.92.77-3.52a7.8,7.8,0,0,0,1.51-2.16c0-.13.18-2.27-.23-1.91-1.76,1.55-2.28,3.29-4.95,3.6a26.74,26.74,0,0,1-8-.59c.71,2.58,5.85,2.75,4.56,5.49.2-.43-2.38.2-2.58.25C59.91,66.29,58.56,66.79,57.85,66.39Z"/><path class="cls-12" d="M40.22,75.79a10.87,10.87,0,0,1-4.4-4.51c-1-1.65-2.48-4.12-1.25-5.94.14.2.46.3.59.43-.7-.71,2.17-3,2.62-3.32a8.87,8.87,0,0,1,4.45-2.06c.84-.08,2.48.58,3.06.12.13-.1-.66-.71-.68-.78-.12-.52.12-.39.41-.82a4.34,4.34,0,0,1,2.31-1.27c.34-.08,1.05.07,1.31-.08.67-.37.69-1.25,1.07-1.9.64-1.1,1.8-2.78,3.06-3.24,1-.36,2.66.46,3.19-.66-1.45-.72-2-.15-2.86-1.69a19.92,19.92,0,0,0-2.59-3.41c-.77-.85-.55-.73-.69-1.67-.06-.42.4-.6.18-1.07-.42-.92-3.47-1.17-4.16-.72-1.46.93.76.87,1.4,1.12a6.34,6.34,0,0,1,3.24,4.25c1.05,4.77-4.95,11.62-9.94,9.51.87,1.63-3.88,1-4.56.83-.13.47-.1,1.35-.57,1.71-.78.59-2.6-.92-3.09-1.55a6.78,6.78,0,0,1-1.21-3c-.19,1.71.38,2-.85,3.18a9,9,0,0,1-1-3.14A27.87,27.87,0,0,0,29,53.17a3.13,3.13,0,0,1-1.52.87c-.45-2,1.14-3.46,2.13-4.92-1.54,1-5.49,3.6-5.2,5.81.27,2,3.63.71,2.43,3.4-.4.91-1.37,3.33-2.1,3.86s-4.56,1.53-5.1.51a1.84,1.84,0,0,0-.39,1.76c3.3-1.09,6.05-1.37,9.24.42a6.05,6.05,0,0,1,3.41,5c.09,1-.1,4.26,1.78,3.41a16.22,16.22,0,0,1,.29,4.81c-.23,1.22-1,1.39-1.62,2.33s-.17,2.13-1.13,2.83-3.28.27-4.49.36-5.73.14-6,1.63c-.33,1.86,3-.44,3.46-.61,3.23-1.09,6.09,1.58,9.2-.06-.52.74-1.25,1.29-1.81,1.95,2.34-.07,2.67-1.26,4.17-2.76,1.71-1.71,4.76-1.08,6.31-2.63-1.59-.88-3-.45-4.61.06-1.8.57-2.07-.19-1.28-1.71,1-1.93,2.28-1.89,4.17-1.08a7.24,7.24,0,0,0,3,.55c.84,0,2.11-.52,2.82-.17.53.26-2.65,3.75-.54,4.32,3.5-3.9,1.6.8,4.4,1.89-.12-1.9-1.25-3-.85-5A8,8,0,0,1,56,73.35a27.32,27.32,0,0,1,5.84-.49,3.93,3.93,0,0,1,3,1.61c.37.48,1.33,2.75,2.17,2.47.5-.17.16-2.22.15-2.6a9.62,9.62,0,0,1,.57-3.63,11,11,0,0,1,2.63-4,13.06,13.06,0,0,1,4.11-2.73,35.38,35.38,0,0,1,4.59-1,9.75,9.75,0,0,0-1.17-5.38c-.89,1-.05,2.9-.67,4.11-.75,1.49-2,1.43-3.33,1.68a8.61,8.61,0,0,0-3.77,1.85c-3,2.13-1.72-3.37-.46-3.48-.78.07-1.79.53-2.66.69-1,.19-2.5,0-3.41.48.57.84,2.09.75,2.75,1.64,1.11,1.51-.38,2.19-1.57,2.69-1.59.68-3.29,2-5,2.14-2.15.22-1.37-.62-1.27-2-2.49-.62-3.49,4-5.49.39-1.49.32-1.15,3-1.32,4.11A5.38,5.38,0,0,1,49,76.19C46.87,77.18,42.34,76.81,40.22,75.79Z"/><path class="cls-12" d="M48.92,104.2c.25-1.69.74-3,.57-4.75s-1-3.3-1.37-5c3.06-2.3,3,3.84,2.79,5.17a22.18,22.18,0,0,0-.54,4c0,1.44.65,2,1.26,3.18,1.11,2.17-.39,1.15-1.63.35-2.16-1.41-2.14.44-4.1.7C46.58,106.41,48.12,105.63,48.92,104.2Z"/><path class="cls-12" d="M25.49,98.66a9.52,9.52,0,0,1,.16-2.35c.43-1,1.45-.77,2-1.53.15-.21.15-1.32.29-1.67.2-.53.62-.89.75-1.45-1.15-.73-2.42.08-3.62-.62-1.38-.8-2.47-2.24-3.74-3.07a4.39,4.39,0,0,0-.26,3.18c.6,1.3,1.05.78,2.22.33C23.27,91.48,25.21,98.14,25.49,98.66Z"/><path class="cls-12" d="M69.42,85.28c-.38-1.19,1-1.82,1.85-2.17a23.55,23.55,0,0,1,3.35-1.06c-1.68-1-3.63.34-5.18.76-2.43.66-1.27-1.18-1.75-2.69-1.65,1.75-1.52,5.16-3.53,6.47-1.28.84-3.67,1-3.67,3.08,1.12,0,2.59-1.06,3.7-1.43a9.76,9.76,0,0,1,5.5-.48,10.48,10.48,0,0,1,3.72,1.81c.8.72.81,1.71,1.34,2.47,1.57-.88,0-2.34.33-3.19s1.58-.12,2.55-.16c-.92-2.66-4.28-1.75-6.39-2.11A2,2,0,0,1,69.42,85.28Z"/><path class="cls-12" d="M82.66,91.7A6,6,0,0,0,78.88,86c1.12-1.63,3.68.21,5.05-1.62,1.11-1.48.82-3.59,1.45-5.19.24-.6.72-1,.93-1.64.34-1.1-.32-2.52-.32-3.65,0-2,1.23-3.93,1.11-.74a42.83,42.83,0,0,0,.75,8.38c.43,2.76-.79,4.66-1.74,7.18s-2.71,9.37-6.26,9.72A7.22,7.22,0,0,1,79.77,95c0,.24,1.45-.12,1.61-.22a3.13,3.13,0,0,0,1-1.43A5,5,0,0,0,82.66,91.7Z"/><path class="cls-13" d="M61.38,57.53a7.15,7.15,0,1,0,6.74,7.55A7.15,7.15,0,0,0,61.38,57.53ZM60.66,70.2A5.54,5.54,0,1,1,66.51,65,5.54,5.54,0,0,1,60.66,70.2Z"/><path class="cls-14" d="M61.29,56.51A7.15,7.15,0,1,0,68,64.06,7.15,7.15,0,0,0,61.29,56.51Zm-.76,13.4A6.27,6.27,0,1,1,67.14,64,6.28,6.28,0,0,1,60.53,69.91Z"/><path class="cls-15" d="M61.25,57.34a6.33,6.33,0,1,0,6,6.67A6.33,6.33,0,0,0,61.25,57.34Zm-.68,11.84A5.54,5.54,0,1,1,66.42,64,5.53,5.53,0,0,1,60.57,69.18Z"/><path class="cls-13" d="M27.18,76.41a5.94,5.94,0,1,0,5.6,6.27A6,6,0,0,0,27.18,76.41Zm-.6,10.53a4.61,4.61,0,1,1,4.86-4.33A4.61,4.61,0,0,1,26.58,86.94Z"/><path class="cls-14" d="M27.1,75.56a5.94,5.94,0,1,0,5.6,6.27A5.94,5.94,0,0,0,27.1,75.56ZM26.47,86.7A5.21,5.21,0,1,1,32,81.79,5.23,5.23,0,0,1,26.47,86.7Z"/><path class="cls-15" d="M27.06,76.25a5.25,5.25,0,1,0,5,5.54A5.24,5.24,0,0,0,27.06,76.25Zm-.56,9.84a4.6,4.6,0,1,1,4.87-4.33A4.59,4.59,0,0,1,26.5,86.09Z"/><path class="cls-13" d="M33.37,52.45A7.15,7.15,0,1,0,40.11,60,7.14,7.14,0,0,0,33.37,52.45Zm-.72,12.67A5.54,5.54,0,1,1,38.5,59.9,5.55,5.55,0,0,1,32.65,65.12Z"/><path class="cls-14" d="M33.28,51.42A7.16,7.16,0,1,0,40,59,7.16,7.16,0,0,0,33.28,51.42Zm-.76,13.4a6.27,6.27,0,1,1,6.61-5.9A6.27,6.27,0,0,1,32.52,64.82Z"/><path class="cls-15" d="M33.24,52.25a6.33,6.33,0,1,0,5.95,6.67A6.33,6.33,0,0,0,33.24,52.25ZM32.56,64.1a5.54,5.54,0,1,1,5.85-5.22A5.55,5.55,0,0,1,32.56,64.1Z"/><path class="cls-13" d="M58.51,42.79l0,0-.35.1A4.86,4.86,0,0,1,48.45,42a4.56,4.56,0,0,1,.27-1.34l-.7-.75,0,0c-.2.12-.42.22-.63.33A6.43,6.43,0,0,0,47,41.89,6.28,6.28,0,0,0,59.46,43.5Z"/><path class="cls-14" d="M58.54,42.81A5.5,5.5,0,1,1,47.91,40c-.29.16-.6.29-.89.45q0,.3-.06.6A6.28,6.28,0,0,0,59.2,43.3Z"/><path class="cls-15" d="M58.51,42.79l0,0-.65.18a4.87,4.87,0,0,1-9.46-1.86,4.17,4.17,0,0,1,.09-.72L48,39.88l0,0-.14.08A5.21,5.21,0,0,0,47.68,41a5.56,5.56,0,0,0,10.9,1.8Z"/><path class="cls-13" d="M79.46,95.19a5.54,5.54,0,0,1-7.57-8.08c-.35-.36-.69-.73-1-1.1l-.18,0A7.15,7.15,0,0,0,80,96.85C79.81,96.29,79.65,95.73,79.46,95.19Z"/><path class="cls-14" d="M79.41,95.06a6.2,6.2,0,0,1-4,1.17A6.26,6.26,0,0,1,70.88,86l0,0-1.22.24A7.15,7.15,0,0,0,79.7,95.94,9.06,9.06,0,0,0,79.41,95.06Z"/><path class="cls-15" d="M79.39,95l-.46-.5a5.43,5.43,0,0,1-3.5,1,5.53,5.53,0,0,1-4.05-8.94L70.86,86h0a6.32,6.32,0,0,0,4.58,10.27,6.27,6.27,0,0,0,4-1.17A.49.49,0,0,0,79.39,95Z"/><path class="cls-13" d="M49.87,81.77a6.17,6.17,0,1,0,5.82,6.51A6.17,6.17,0,0,0,49.87,81.77Zm-.62,10.94a4.78,4.78,0,1,1,5-4.51A4.79,4.79,0,0,1,49.25,92.71Z"/><path class="cls-14" d="M49.8,80.89a6.17,6.17,0,1,0,5.81,6.51A6.18,6.18,0,0,0,49.8,80.89Zm-.66,11.56a5.41,5.41,0,1,1,5.71-5.09A5.4,5.4,0,0,1,49.14,92.45Z"/><path class="cls-15" d="M49.76,81.6a5.46,5.46,0,1,0,5.14,5.76A5.46,5.46,0,0,0,49.76,81.6Zm-.58,10.23a4.78,4.78,0,1,1,5-4.51A4.79,4.79,0,0,1,49.18,91.83Z"/><path class="cls-13" d="M56.88,103.46l-.65.07-.78.79a5.55,5.55,0,0,1-4,9.68,5.59,5.59,0,0,1-3.62-1.63l-.09.11c0,.64,0,1.28,0,1.91a7,7,0,0,0,3.58,1.21,7.15,7.15,0,0,0,5.52-12.14Z"/><path class="cls-14" d="M56.54,103.49a6.27,6.27,0,0,1-8.72,8.89.86.86,0,0,0-.07.1c0,.31,0,.62,0,.93a7,7,0,0,0,3.54,1.17,7.15,7.15,0,0,0,6.31-11.16C57.24,103.43,56.89,103.45,56.54,103.49Z"/><path class="cls-15" d="M56.23,103.53q-.16.15-.33.33A5.53,5.53,0,0,1,51.37,113a5.42,5.42,0,0,1-3.06-1.13c-.18.19-.35.39-.52.59A6.33,6.33,0,0,0,58,107.8a6.3,6.3,0,0,0-1.39-4.32Z"/><path class="cls-16" d="M50.41,54.67c-.37-.3-.85.19-1,.48a4,4,0,0,0-.3.58c-.07.2-.07.4-.13.6s.08.21.16.13a6.18,6.18,0,0,1,.53-.36,6.4,6.4,0,0,0,.5-.41C50.39,55.47,50.76,55,50.41,54.67Z"/><path class="cls-16" d="M50.55,62.12a2.4,2.4,0,0,0-.6,0,4.72,4.72,0,0,0-.53.18.07.07,0,0,0,0,.12c.15.12.25.27.4.37a2.31,2.31,0,0,0,.58.25c.31.08.79.1.86-.32S50.85,62.16,50.55,62.12Z"/><path class="cls-16" d="M77.1,63.06a.71.71,0,0,0-.64-.43,1.23,1.23,0,0,0-.43,0c-.15,0-.25.15-.39.19a.11.11,0,0,0,0,.19,1,1,0,0,1,.21.15,1,1,0,0,0,.41.19.82.82,0,0,0,.79-.1A.21.21,0,0,0,77.1,63.06Z"/><path class="cls-16" d="M74.63,52.75c-.28-.3-.71.06-.9.28a2.56,2.56,0,0,0-.27.45c-.08.17-.1.35-.17.52s.06.16.14.11a4.32,4.32,0,0,1,.43-.22c.13-.08.28-.16.4-.25S74.91,53.05,74.63,52.75Z"/><path class="cls-16" d="M76.48,54.66a2.17,2.17,0,0,0-1-.06.21.21,0,0,0-.09.32,1.38,1.38,0,0,0,.93.41c.24.05.68.11.75-.23S76.71,54.69,76.48,54.66Z"/><path class="cls-16" d="M38.49,82.75c0-.12-.16-.12-.21,0-.13.26-.31.49-.44.75a1.25,1.25,0,0,0-.13.74.17.17,0,0,0,.26.11C38.52,84,38.5,83.35,38.49,82.75Z"/><path class="cls-16" d="M40.27,87.49a1.07,1.07,0,0,0-1,.08,2.57,2.57,0,0,0-.44.29,2.53,2.53,0,0,0-.36.37c-.06.07,0,.22.09.22a2.24,2.24,0,0,0,.45,0,2.64,2.64,0,0,0,.56-.11,1,1,0,0,0,.74-.62A.18.18,0,0,0,40.27,87.49Z"/><path class="cls-16" d="M29,96l0-.15c0-.35-.29-.66-.38-1a.15.15,0,0,0-.29,0,4.27,4.27,0,0,0-.15.67,1.22,1.22,0,0,0-.06.47.91.91,0,0,0,.17.59.66.66,0,0,0,.45.21C29.06,96.66,29.09,96.19,29,96Z"/><path class="cls-16" d="M78.12,84.91c.09.12-.09-.11-.09-.11a1.17,1.17,0,0,0-.32-.15l-.53-.21a1.25,1.25,0,0,1-.4-.13.13.13,0,0,0-.19.15,1.45,1.45,0,0,0,.17.52,1.2,1.2,0,0,0,.48.38,1,1,0,0,0,.6.11A.45.45,0,0,0,78,85.4l0-.05,0,0a.24.24,0,0,0,.09-.11C78.25,85.09,78.19,85,78.12,84.91Z"/><path class="cls-16" d="M83.51,81.21c-.06,0-.17,0-.25.05a3.84,3.84,0,0,0-.35.18,1,1,0,0,1-.34.11,1.63,1.63,0,0,1-.42.11.13.13,0,0,0-.07.25,1.06,1.06,0,0,0,1,.21,1.34,1.34,0,0,0,.51-.17,1,1,0,0,0,.28-.42C83.92,81.33,83.7,81.15,83.51,81.21Z"/><path class="cls-16" d="M64.9,75.07a.09.09,0,0,0-.07.15,3.1,3.1,0,0,0,.74.75c.27.22.47.5.84.54a.17.17,0,0,0,.18-.14C66.7,75.65,65.55,74.9,64.9,75.07Z"/><path class="cls-16" d="M66.28,77.77a.16.16,0,0,0-.22.16,5.89,5.89,0,0,0,.24.94,3.14,3.14,0,0,0,.3.91.21.21,0,0,0,.32,0A1.57,1.57,0,0,0,66.28,77.77Z"/><path class="cls-16" d="M32,58.43a1,1,0,0,0-1.08-.27,2.3,2.3,0,0,0-.95.74s0,.08.05.08c.64-.12,1.47.29,2-.3A.21.21,0,0,0,32,58.43Z"/><path class="cls-16" d="M22,59.07c0-.18-.26-.15-.29,0-.19.71-.51,1.78.29,2.24a.23.23,0,0,0,.31-.12C22.58,60.49,22.05,59.78,22,59.07Z"/><path class="cls-16" d="M56.89,96.92s0,0,0,0a1.44,1.44,0,0,0-.84.59,1.86,1.86,0,0,0-.38,1.08s0,.08.07.07a1.81,1.81,0,0,0,1-.44,1.75,1.75,0,0,0,.39-.47l.14-.31a1.7,1.7,0,0,1,0-.22C57.4,97,57.1,96.8,56.89,96.92Z"/><path class="cls-16" d="M54.22,103.11V103a.42.42,0,0,0-.08-.22,1,1,0,0,0-.34-.26l-.63-.41a.07.07,0,0,0-.11.06,1.92,1.92,0,0,0,.24.77,1.28,1.28,0,0,0,.29.36.38.38,0,0,0,.29.08s.22,0,.13,0A.2.2,0,0,0,54.22,103.11Z"/><path class="cls-16" d="M52.07,103.93c0-.52-.31-1-.31-1.49,0-.14-.2-.11-.23,0a4.27,4.27,0,0,0-.39,1.6,2.57,2.57,0,0,0,.58,1.34.15.15,0,0,0,.26-.07A5.32,5.32,0,0,0,52.07,103.93Z"/><path class="cls-16" d="M84.22,93.22a1.43,1.43,0,0,0-.37-.23,2.14,2.14,0,0,0-.35-.06.11.11,0,0,0-.12.11.39.39,0,0,1,0,.15s0,.2,0,.08a1.53,1.53,0,0,0,.11.42.84.84,0,0,0,.52.55l0,0a.28.28,0,0,0,.39-.22h0A.77.77,0,0,0,84.22,93.22Z"/><path class="cls-16" d="M25.16,89.69a1.42,1.42,0,0,0-1,.24l-.42.23a4.59,4.59,0,0,1-.44.33.14.14,0,0,0,.07.27c.18,0,.36,0,.54,0a2.9,2.9,0,0,0,.57-.08,1.26,1.26,0,0,0,.9-.63A.3.3,0,0,0,25.16,89.69Z"/><path class="cls-16" d="M37.72,73a1.84,1.84,0,0,1-1-.3.15.15,0,0,0-.22.17,4,4,0,0,1,.19.48,1.74,1.74,0,0,0,.29.45c.3.39.91.76,1.31.25S38.19,73.05,37.72,73Z"/><path class="cls-16" d="M63.11,42.16A.56.56,0,0,0,62.9,42a1.5,1.5,0,0,0-.59-.14c-.43,0-.82.09-1.24.1-.15,0-.15.25,0,.27a3.63,3.63,0,0,1,1.19.57c.26.13.74.28.93,0A.9.9,0,0,0,63.11,42.16Z"/><path class="cls-17" d="M92.1,69.76c-.74-2.26-1.67-4.49-2.33-6.78s-.86-4.76-2.21-7a32.81,32.81,0,0,0-4.43-5.28c-2-2.13-3.5-4.75-5.65-6.75-7.59-7.07-19.61-9.44-29.64-7.56-7.79,1.47-17.15,3.49-23,9.43C22.76,48,21.46,50.73,19,52.6c-2.05,1.59-3.09,2.3-3.81,4.92a15.13,15.13,0,0,1-1.59,4.66c-2.91,4.43-2.51,9.59-3.13,14.75-.22,1.81-.67,3.25-.25,5.06.51,2.15,1.66,4.06,2.27,6.17,1.65,5.72,3.8,11.33,7.65,16,2.29,2.79,5.9,4.43,8.58,6.87a29.35,29.35,0,0,0,17.4,7.5c3.78.24,7.61-.28,11.39-.1,3.56.18,6.93-2.23,10.16-3.51,3.63-1.44,6-2.41,9-5,2.3-2,4.89-3.78,6.4-6.44,1.72-3,3.9-5.94,5.4-9a30,30,0,0,0,2-4.18c.43-1.45.25-3,.64-4.47.45-1.63,1.07-3.23,1.38-4.94A22.79,22.79,0,0,0,92.1,69.76Zm0,11c-.31,1.7-.92,3.28-1.36,4.9-.39,1.44-.22,3-.64,4.42a28.93,28.93,0,0,1-2,4.14c-1.48,3.06-3.64,6-5.35,8.94-1.5,2.64-4.06,4.39-6.33,6.38-3,2.61-5.34,3.57-8.94,5-3.2,1.27-6.53,3.66-10.06,3.48-3.74-.18-7.53.33-11.28.1A29.16,29.16,0,0,1,29,110.71c-2.65-2.42-6.22-4-8.5-6.81-3.8-4.63-5.93-10.18-7.56-15.84-.61-2.1-1.75-4-2.25-6.11-.42-1.8,0-3.22.24-5,.61-5.11.22-10.22,3.1-14.6a15,15,0,0,0,1.58-4.62c.71-2.59,1.74-3.3,3.77-4.87,2.4-1.85,3.69-4.55,5.78-6.68,5.76-5.88,15-7.89,22.75-9.34,9.93-1.87,21.83.49,29.35,7.48,2.13,2,3.59,4.58,5.59,6.69a32.72,32.72,0,0,1,4.39,5.23c1.33,2.19,1.5,4.52,2.19,6.9s1.57,4.47,2.31,6.71A22.47,22.47,0,0,1,92.11,80.79Z"/><path class="cls-16" d="M35.1,84.81a6,6,0,0,1-.85-2.46c0-.3-.32-1.11-.06-1.38,0,0,.64-.39.6-.18.19-1.05-.66-2.24-.11-3.34.54.1.62-.09.9.34.81-.23,1.37-1.05,2.25-1.12.05.14,0,.26.1.4,1-.2,3.73-.84,4.49.1-.88,0-3.64.08-3.34,1.31-.37-1.55-3,1.62-3.1,2a17.5,17.5,0,0,0-.53,4.84C35.33,85.15,35.21,85,35.1,84.81Z"/><path class="cls-18" d="M64.77,88.3a2.58,2.58,0,0,1-.18-.48c-.06-.21.19-2.3.45-2a1.38,1.38,0,0,0,.63.31c.47-1,.55-2.19,1.68-2.82,0,.27,0,.63,0,.9.6-.29,1-.91,1.76-1,0,.13,0,.25,0,.38a19.42,19.42,0,0,1,2.16,0c-1.75.77-3.05,1-4,2.83-.22.42-1.37,3.25-.73,3.52A3.78,3.78,0,0,1,64.77,88.3Z"/><path class="cls-16" d="M34,106.35a20.54,20.54,0,0,0-2.22-3.52,3.74,3.74,0,0,0,.47,3.64c-.62-.21-.56.08-1,.39.32.32.91.58,1.16,1,0,0,.38.9.26.77.89.91,1.85.38,3.2.57-.07.16-.08.37-.15.54,1.07.89,4.75-1.24,5.13-2.39C38.49,107.09,36.05,107.53,34,106.35Z"/><path class="cls-16" d="M26.33,51.79c1.24-1.55,3.21-2.38,4.71-.84-1.89,1-6.93,2.52-5.88,5.68,0-.09-.92-2.54-.84-2.47s.36.18.52.28c.45-1.09.27-2.83,1.39-3.59C26.2,51.16,26.35,51.49,26.33,51.79Z"/><path class="cls-16" d="M83,68.53A5.68,5.68,0,0,1,84,70.14c.21.47,1.58,5.07.81,5.23.77-.16,1.07-1.06,1.31-1.77a.51.51,0,0,0,.35.22,2.33,2.33,0,0,0,.37-3.21c-.24-.39-2.22-2.53-2.68-2.36a7.32,7.32,0,0,1,1-.49c-1.21-.8-2.7,0-3.83-.57A10.1,10.1,0,0,1,83,68.53Z"/><path class="cls-18" d="M22,87.57c-.77-.25-1.62-.1-2.22-.76.12,0,.23,0,.36,0-.63-.7-3-1.73-2.07-3.07a1.68,1.68,0,0,0,.46.19c-.08-1.29,0-2.89,1.55-3.35-.62.19-.14,3.29,0,3.74A7.67,7.67,0,0,0,22,87.57Z"/><path class="cls-19" d="M46.66,59a2,2,0,1,1-1.85-2.09A2,2,0,0,1,46.66,59Z"/><path class="cls-20" d="M46.06,58.94a1.37,1.37,0,1,1-1.29-1.44A1.37,1.37,0,0,1,46.06,58.94Z"/><path class="cls-21" d="M44.77,57.5a1.37,1.37,0,1,0,1.29,1.44A1.37,1.37,0,0,0,44.77,57.5ZM45,59.89a.8.8,0,0,1-.94-.52.94.94,0,0,1,.7-1.27.85.85,0,0,1,.79,1.45A1,1,0,0,1,45,59.89Z"/><path class="cls-19" d="M74.18,58.19a2,2,0,1,1-1.86-2.08A2,2,0,0,1,74.18,58.19Z"/><path class="cls-20" d="M73.58,58.16a1.37,1.37,0,1,1-1.29-1.45A1.38,1.38,0,0,1,73.58,58.16Z"/><path class="cls-21" d="M72.29,56.71A1.37,1.37,0,0,0,70.85,58a1.37,1.37,0,0,0,2.73.16A1.38,1.38,0,0,0,72.29,56.71Zm.21,2.39a.79.79,0,0,1-.94-.52.93.93,0,0,1,.69-1.27.85.85,0,0,1,.8,1.45A1,1,0,0,1,72.5,59.1Z"/><path class="cls-19" d="M58.39,94a2,2,0,1,1-1.86-2.08A2,2,0,0,1,58.39,94Z"/><path class="cls-20" d="M57.78,93.93a1.37,1.37,0,1,1-1.28-1.44A1.37,1.37,0,0,1,57.78,93.93Z"/><path class="cls-21" d="M56.5,92.49a1.36,1.36,0,0,0-1.45,1.28,1.37,1.37,0,1,0,2.73.16A1.36,1.36,0,0,0,56.5,92.49Zm.2,2.39a.79.79,0,0,1-.93-.52.93.93,0,0,1,.69-1.27.85.85,0,0,1,.8,1.45A1.11,1.11,0,0,1,56.7,94.88Z"/><path class="cls-19" d="M52.78,77.58a2,2,0,1,1-1.86-2.08A2,2,0,0,1,52.78,77.58Z"/><path class="cls-20" d="M52.17,77.55a1.37,1.37,0,0,1-2.73-.16,1.37,1.37,0,1,1,2.73.16Z"/><path class="cls-21" d="M50.88,76.1a1.37,1.37,0,0,0-.15,2.73,1.36,1.36,0,0,0,1.44-1.28A1.37,1.37,0,0,0,50.88,76.1Zm.21,2.39a.79.79,0,0,1-.94-.52.94.94,0,0,1,.7-1.27.85.85,0,0,1,.79,1.45A.93.93,0,0,1,51.09,78.49Z"/><path class="cls-19" d="M36,89.84a2,2,0,1,1-1.86-2.08A2,2,0,0,1,36,89.84Z"/><path class="cls-20" d="M35.4,89.81a1.37,1.37,0,1,1-1.28-1.45A1.37,1.37,0,0,1,35.4,89.81Z"/><path class="cls-21" d="M34.12,88.36a1.37,1.37,0,1,0,1.28,1.45A1.37,1.37,0,0,0,34.12,88.36Zm.21,2.4a.8.8,0,0,1-.94-.52A.94.94,0,0,1,34.08,89a.86.86,0,0,1,.8,1.46A1.08,1.08,0,0,1,34.33,90.76Z"/><path class="cls-19" d="M26,64.2a2,2,0,1,1-1.86-2.08A2,2,0,0,1,26,64.2Z"/><path class="cls-20" d="M25.4,64.17A1.37,1.37,0,1,1,22.66,64a1.37,1.37,0,0,1,2.74.16Z"/><path class="cls-21" d="M24.11,62.73A1.37,1.37,0,0,0,22.66,64a1.37,1.37,0,1,0,2.74.16A1.37,1.37,0,0,0,24.11,62.73Zm.21,2.39a.8.8,0,0,1-.94-.52.94.94,0,0,1,.69-1.28.86.86,0,0,1,.8,1.46A1.08,1.08,0,0,1,24.32,65.12Z"/><path class="cls-19" d="M56,52.75a2,2,0,1,1-1.86-2.08A2,2,0,0,1,56,52.75Z"/><path class="cls-20" d="M55.42,52.72a1.37,1.37,0,1,1-1.28-1.44A1.36,1.36,0,0,1,55.42,52.72Z"/><path class="cls-21" d="M54.14,51.28a1.37,1.37,0,1,0,1.28,1.44A1.37,1.37,0,0,0,54.14,51.28Zm.21,2.39a.8.8,0,0,1-.94-.52.93.93,0,0,1,.69-1.27.85.85,0,0,1,.8,1.45A1.12,1.12,0,0,1,54.35,53.67Z"/><path class="cls-19" d="M77.54,84.48a2,2,0,1,1-1.86-2.08A2,2,0,0,1,77.54,84.48Z"/><path class="cls-20" d="M76.93,84.44A1.37,1.37,0,1,1,75.64,83,1.37,1.37,0,0,1,76.93,84.44Z"/><path class="cls-21" d="M75.64,83a1.37,1.37,0,1,0,1.29,1.44A1.37,1.37,0,0,0,75.64,83Zm.21,2.39a.79.79,0,0,1-.93-.52.93.93,0,0,1,.69-1.27.85.85,0,0,1,.79,1.45A1,1,0,0,1,75.85,85.39Z"/><path class="cls-19" d="M54.82,105.9A2,2,0,1,1,53,103.82,2,2,0,0,1,54.82,105.9Z"/><path class="cls-20" d="M54.21,105.86a1.37,1.37,0,1,1-1.29-1.44A1.36,1.36,0,0,1,54.21,105.86Z"/><path class="cls-21" d="M52.92,104.42a1.37,1.37,0,1,0,1.29,1.44A1.37,1.37,0,0,0,52.92,104.42Zm.21,2.39a.78.78,0,0,1-.93-.52.93.93,0,0,1,.69-1.27.85.85,0,0,1,.79,1.45A1,1,0,0,1,53.13,106.81Z"/><path class="cls-22" d="M36,48.89a192.32,192.32,0,0,0,26,1.33,97.32,97.32,0,0,0,19.44-1.93,9.33,9.33,0,0,0-1.86-2c-1.24-.92-3.12-.94-4.59-1.29-2.63-.63-5.3-1.12-8-1.52A144,144,0,0,0,46.6,41.92c-2.16,0-4.32.11-6.47.08-1.61,0-3.18-.28-4.83-.21-3.49.15-7,.85-9.61,3.38-.47.46-1,.91-1.46,1.37C27.9,48.13,32.05,48.4,36,48.89Z"/><path class="cls-23" d="M45.12,36.06c21.82.21,38.69,4.84,39.3,8.17.54,3-19.62,4.81-24,4.58-30-1.55-39.67-4.55-41.67-6.73C16.58,39.68,25.18,35.87,45.12,36.06Z"/><path class="cls-23" d="M35.3,39.5s-.43,3.11,16.25,4.06,18.92-1.71,18.92-1.71S61.1,28.14,60.87,20c-.07-2.3,2-13,6.08-11.67,1.66.54,2.26,3.53,4.33,3,1.85-.5,2.66-4,5-3.08,1.72.7,2.3,3.36,4.39,3.58.2-1.21-.4-2.33.23-3.53a3.39,3.39,0,0,0-1,2.37c-1.52-.43-2.3-3.35-3.48-4.46-.78-.73-1.16-.88-2.11-.48s-1.7,2.15-2.81,1.9c-.72-.16-1.69-2.1-2.23-2.64C68.52,4.2,65.33.65,64.17,1,63.46,1.22,37.62,16.07,35.3,39.5Z"/><path class="cls-24" d="M80.63,11.76a9.31,9.31,0,0,0-.06-2c-.15.61-.34,1.09-.86,1-2.18-.25-2.26-4.41-4.48-4.15A5.13,5.13,0,0,0,73,7.8c-.73.63-1.07,1.38-2.2,1.29a4.06,4.06,0,0,1-2.48-1.78C67.1,5.77,67.54,3.43,65,4.68c-4.31,2.1-6.88,7.3-7.81,11.77-.72,3.53-.31,6.48.21,10,.2,1.39.79,2.87-.71,3.47a15.81,15.81,0,0,1-5.47.75,23.82,23.82,0,0,1-4.85-.06c-2.07-.38-4.26-.43-6.22-1.25a17.09,17.09,0,0,1-1.83-1,38.66,38.66,0,0,0-2.19,6.46,1.54,1.54,0,0,0,.19.17c3.54,3,9,4.63,13.46,5.4,5.45.93,11,.67,16-1.85a10.27,10.27,0,0,0,1.85-1.18C64.84,32.56,61,25.14,60.87,20c-.07-2.3,2-13,6.08-11.67,1.66.54,2.26,3.53,4.33,3,1.85-.5,2.66-4,5-3.08C78,8.88,78.54,11.54,80.63,11.76Z"/><path class="cls-25" d="M61.48,31.23C55.36,32,49,32.07,43,30.44a10,10,0,0,1-4.68-2.28c-2,2.47-3.48,7.29-3.9,11.48,0,0-.45,3.27,17,4.26s19.81-1.8,19.81-1.8a107.83,107.83,0,0,0-6.85-11.28C63.34,31,62.58,31.1,61.48,31.23Z"/><path class="cls-26" d="M34.88,36.83c-.19,1-.33,1.9-.42,2.81,0,0-.45,3.27,17,4.26s19.81-1.8,19.81-1.8a107.83,107.83,0,0,0-6.85-11.28c-1.1.17-1.86.28-3,.41s-2.11.23-3.18.32a11.93,11.93,0,0,1,1,2.5,5,5,0,0,1,.15,2.72c-.31,1-1.68,3-2.86,2.8s-.11-2.15-1.49-2.44c-.47-.1-.5,0-.7-.43a6.61,6.61,0,0,1-.09-2c-.1-1.45-.66-3.12-2.27-3.43a19.27,19.27,0,0,0-3.22.07c.88.87,2.7.62,3.5,1.79.54.78.2,2,.18,2.84a2,2,0,0,0-2,1.49c-.27,1.09.67,1.64,1.48,2.07-.55,1.78-3.63,1.76-5.13,1.68a3,3,0,0,1-2.58-1.16,9.2,9.2,0,0,1-.77-4.38c-.55,1.27-.12,4.78-2.17,4.53a13.46,13.46,0,0,1-3.78-1.1C36.94,38.85,34.71,37.71,34.88,36.83Z"/><path class="cls-27" d="M53.81,30.36l-9.62-.8a2.3,2.3,0,0,0-2.48,2.1l-.81,9.62A2.31,2.31,0,0,0,43,43.76l9.62.8a2.3,2.3,0,0,0,2.48-2.1l.81-9.61A2.32,2.32,0,0,0,53.81,30.36ZM53,40.78a1.59,1.59,0,0,1-1.71,1.44l-6.61-.55A1.58,1.58,0,0,1,43.25,40l.55-6.61a1.59,1.59,0,0,1,1.71-1.45l6.61.55a1.58,1.58,0,0,1,1.44,1.71Z"/><path class="cls-28" d="M55.15,39.11l-2.83-.17a1.26,1.26,0,0,1-1.19-1.33h0a1.27,1.27,0,0,1,1.33-1.19l2.83.16a1.27,1.27,0,0,1,1.2,1.33h0A1.28,1.28,0,0,1,55.15,39.11Z"/><path class="cls-29" d="M43.51,30a2.41,2.41,0,0,0-1.6,2.17,23.34,23.34,0,0,0-.09,3.24,10.76,10.76,0,0,0,0,2.41,32.36,32.36,0,0,1,1-5.23c.53-1.59,1.86-1.63,3.36-1.55a55.82,55.82,0,0,1,7.19.52c1,.19,1.24.54,1.53,1.56.64-1.57-.67-2.15-2-2.34s-2.51-.34-3.76-.53a32.39,32.39,0,0,0-5-.36A2.35,2.35,0,0,0,43.51,30Z"/><path class="cls-29" d="M45.55,43.41c-.62-.09-1.25-.18-1.86-.29s-2.11-.33-1.55-1.41a1.43,1.43,0,0,0,1.34,1.11,25.49,25.49,0,0,0,4.09.37,20.26,20.26,0,0,0,4,0c1.63-.28,2.51-1.83,2.86-3.37a5.85,5.85,0,0,1-.49,3.66c-.4.48-1.08.4-1.68.41a44,44,0,0,1-6.29-.42Z"/><path class="cls-30" d="M65.25,2.36A2.59,2.59,0,0,0,64.71,2a2.38,2.38,0,0,0-1.47,0,11,11,0,0,0-3,1.8A69.36,69.36,0,0,0,49.37,13a51,51,0,0,0-6.12,7.32c-.9,1.34-1.56,2.81-2.42,4.17-.54.87-1.76,2.25-1.11,3.38a3.72,3.72,0,0,0,1.91,1.28c.23,0,.63-.36.87-.43a4.89,4.89,0,0,1,1.87-.12c1.15.09,2.54.62,3.66.28-.62-1.3-.26-3.44-.18-4.85.21-3.32,1.93-6.43,3.85-9.08,3.15-4.36,7-9.13,11.86-11.65a6.48,6.48,0,0,1,2.54-.44A3.58,3.58,0,0,1,65.25,2.36Z"/><path class="cls-30" d="M84.42,44.23c-.18-1-1.42-1.68-2.21-2.1a11.06,11.06,0,0,1-5.81,2.61c-2.58.5-5.21.66-7.82.9-5.29.48-10.56.59-15.86.56a90.24,90.24,0,0,1-15.11-1.55,19.44,19.44,0,0,1-5.93-1.72c-2.55-1.36-2.82-4.11-.18-5.68.45-.26.91-.5,1.37-.73-11.15,1.07-15.77,3.73-14.1,5.56,2,2.18,11.65,5.18,41.67,6.73,4.36.23,24.48-1.6,24-4.57Z"/><g class="cls-31"><path class="cls-32" d="M83.34,43.36c.48,3-5.68,3.29-7.46,3.39-4.83.27-9.83.9-14.72.68-3.42-.15-6.79-.17-10.24-.46-2.7-.23-5.45-.57-8.14-1-4.59-.68-9.72-1.22-14.07-2.84-1.3-.48-4.25-1.21-4.35-2.91-.08-1.2,1.16-1.91,2-2.44-1.41,0-10,1.67-7.61,4.27,2,2.18,11.64,5.18,41.66,6.73,4.36.23,24.48-1.6,24-4.57h0A2.89,2.89,0,0,0,83,42.55a1.8,1.8,0,0,1,.39.81Z"/></g><path class="cls-24" d="M67.38,6.48c-3.65-3.33-7.92,5.65-8.86,8.24-1.14,3.15-.13,7.18.79,10.3.28,1,2.57,4.72.92,5.22.71-.24,2,0,2.51-.59-3.5-4.79-3-12.18-.81-17.35C62.87,10,65.78,5.44,68.17,9,68,8.24,68,7,67.38,6.48Z"/><path class="cls-26" d="M67.58,36.29l.34.62c.82,1.56,1.21,3.24,2,4.81-1.51,1.14-3.8,1.06-5.52,1.32a37,37,0,0,1-7.29.28c2.63-.09,6.17-1.63,6.86-4.38a18.55,18.55,0,0,0,.53-7.14A24.45,24.45,0,0,1,67.58,36.29Z"/><path class="cls-33" d="M34.11,58c.6-2.5,3.13-8.11,6.21-8.37,2.53-.21,2,4,2,5.6,0,2.14.76,6.83-1.47,8.17-1.23.74-3.86.15-5-.55A4.17,4.17,0,0,1,34.11,58Z"/><path class="cls-33" d="M44.61,63c2.13,1.76,7-1,7.31-3.46a8.3,8.3,0,0,0-1.47-5.33c-1-1.65-3.7-5.88-6.09-5.14-2.9.9-1.26,7.36-1,9.43C43.55,59.54,43.65,62.17,44.61,63Z"/><path class="cls-34" d="M34,58.85c.59-2.5,3.12-8.11,6.2-8.36,2.54-.22,2.06,4,2,5.6,0,2.13.76,6.82-1.46,8.16-1.23.74-3.86.15-5-.54C34,62.66,33.58,60.76,34,58.85Z"/><path class="cls-34" d="M44.52,63.83c2.14,1.77,7-1,7.31-3.45A8.38,8.38,0,0,0,50.37,55c-1-1.65-3.7-5.88-6.1-5.14-2.89.9-1.25,7.36-1,9.43C43.46,60.4,43.57,63,44.52,63.83Z"/><path class="cls-35" d="M45.69,45.94c2.43-.88,3.48,2.78,3.9,4.48-.07-.29-2.27-1.09-2.59-1.19a6.17,6.17,0,0,0-3.46.05C43.88,48,44.34,46.43,45.69,45.94Z"/><path class="cls-35" d="M37.32,51c.14-1.38.71-4.17,2.34-4.58s2.37,1.71,2.55,2.87C40.13,49,39.09,50,37.32,51Z"/><path class="cls-36" d="M41.94,59.33c-.09,1.08-.09,2.53-.84,3.4a3,3,0,0,1-2.67.81,6.23,6.23,0,0,1-2.57-.76,3.34,3.34,0,0,1-1.57-2.06A3.38,3.38,0,0,0,36,63.5c1.06.63,3.43,1.16,4.53.49C41.81,63.22,42,61.19,41.94,59.33Z"/><path class="cls-36" d="M51.24,58.43a5,5,0,0,1,0,1.28c-.28,2.17-4.64,4.68-6.55,3.09a3.13,3.13,0,0,1-.77-1.72,4.13,4.13,0,0,0,.9,2.45c1.91,1.58,6.26-.92,6.55-3.1A5.62,5.62,0,0,0,51.24,58.43Z"/><path class="cls-35" d="M39.91,100.26A2.65,2.65,0,0,0,42,101.44a5.23,5.23,0,0,0,2.6-.84,21.15,21.15,0,0,0,4.4-4,16.07,16.07,0,0,0,4.31-12A18,18,0,0,0,50,76.74c-.09,1.26-1.1,3.71-2.52,4s-.45-2,0-2.63c0,0,0,0,0,0-1.13.06-2.33.27-3.44.33.28.4,2.23,2.37.7,2.42-1.06,0-2.77-2.72-3.2-3.52-1.84,2.35-3,5.2-2.44,8.25.5,2.56,2.75,4.48,4.05,6.64A7.75,7.75,0,0,1,43.76,98,2.72,2.72,0,0,1,42.23,100c-.68.35-1.73.68-2.36,0A.93.93,0,0,0,39.91,100.26Z"/><path class="cls-37" d="M39.17,71.82s8.3-.33,11.91-2.62c0,0-.37,9.08-6.09,8.52C41.52,77.37,39.17,71.82,39.17,71.82Z"/><path class="cls-38" d="M47.67,72a7.15,7.15,0,0,0-2.05,5.77c3.86-.11,5-4.91,5.33-7.27A7.25,7.25,0,0,0,47.67,72Z"/><path class="cls-34" d="M44.83,76.26a13.55,13.55,0,0,0-.29,1.38l.45.08a4.59,4.59,0,0,0,4.64-2.81A22,22,0,0,1,44.83,76.26Z"/><path class="cls-34" d="M42.59,73.88a.63.63,0,0,1,.21.18,14.26,14.26,0,0,0,7.89-2.15,16.93,16.93,0,0,0,.39-2.71c-2.8,1.78-8.41,2.37-10.79,2.55A7.91,7.91,0,0,0,42.59,73.88Z"/><path class="cls-35" d="M42.93,66.7c-2.36-4.14-6.85-1.65-10.13-.58-6.91,2.25-14.24,3-20.31-1.65.13.1.21.92.27,1.12a7.75,7.75,0,0,0,.48,1.11,5.88,5.88,0,0,0,1.46,1.75,26.21,26.21,0,0,0,3.95,2.61,7.69,7.69,0,0,1,1.81,1,2.71,2.71,0,0,1-1.27.68c1.72,2.24,5.18,2.33,7.73,2.59-.38,1.08,1,1.13,1.88,1.16a26.77,26.77,0,0,0,3.35-.19c1-.09,1.86-.56,2.8-.63-1.15,1.8,2.39.69,3,.39a8.22,8.22,0,0,0,4-3.63A8.42,8.42,0,0,0,42.93,66.7Z"/><path class="cls-35" d="M84.37,64.39a5.07,5.07,0,0,0,.37-.44,11.27,11.27,0,0,1-2.2,3.65,18.16,18.16,0,0,1-3.44,3.05A14.23,14.23,0,0,1,71,73.49a2.6,2.6,0,0,0,1.13.68c-.67.82-2.56.65-3.51.79a15.48,15.48,0,0,1-5.45-.5c.2.36.74.58,1,.91a6.15,6.15,0,0,1-2.53.24,13.36,13.36,0,0,1-2.68-.24,9.6,9.6,0,0,1-4.63-1.75c.46.38.47.73.73,1.23-4.16.81-14-5.22-9.94-9.8,2.89-3.25,9.09-3.24,13-2.41,4.57,1,9,2.57,13.61,3.28a34.6,34.6,0,0,0,7,.63A8.32,8.32,0,0,0,84.37,64.39Z"/><path class="cls-39" d="M49,96.55a16.07,16.07,0,0,0,4.31-12A18,18,0,0,0,50,76.74c0,.11,0,.23,0,.36.09.44.2.86.24,1.13.16.88.49,1.71.73,2.58a19.15,19.15,0,0,1-.34,10.32c-.13.43-.67,2-1.36,1.59-.3-.19-.26-.88-.26-1.2-.49.87-.5,2-.92,3-.3.66-1.06,2.31-1.87,2.52-1,.28-.4-2.58-.4-3.13a9.07,9.07,0,0,0-1.68-5.82,13.24,13.24,0,0,1,.36,3.41c-.63,0-1.11-1.17-1.44-1.62a20.4,20.4,0,0,1-2.08-2.92,11,11,0,0,1-1.26-6.43,8.77,8.77,0,0,0-.58,5.11c.5,2.56,2.75,4.48,4.05,6.64A7.75,7.75,0,0,1,43.76,98,2.72,2.72,0,0,1,42.23,100c-.68.35-1.73.68-2.36,0a.93.93,0,0,0,0,.23A2.65,2.65,0,0,0,42,101.44a5.23,5.23,0,0,0,2.6-.84A21.15,21.15,0,0,0,49,96.55Z"/><path class="cls-39" d="M82.54,67.6A11.22,11.22,0,0,0,84.72,64a6.29,6.29,0,0,1-.55.83,8.69,8.69,0,0,1-2.86,2.7,23,23,0,0,1-13.8,2.32c-.61-.09-1.3-.36-1.86-.42a6.63,6.63,0,0,0,2,2c-2.55.46-4.82-.7-7.21-1.14.31.65,1.24,1.08,1.85,1.41s.91.69,1.41.92a54.55,54.55,0,0,1-7.61-1.12,19.74,19.74,0,0,1-5-1.74c.15.77,1.65,1.53,2.16,2.22a6.11,6.11,0,0,1-3-.48A8.59,8.59,0,0,1,46.14,69a5,5,0,0,1-.55-4.45v0l-.53.53C41,69.63,50.85,75.66,55,74.85c-.26-.5-.27-.85-.73-1.23a9.6,9.6,0,0,0,4.63,1.75,13.36,13.36,0,0,0,2.68.24,6.15,6.15,0,0,0,2.53-.24c-.25-.33-.79-.55-1-.91a15.48,15.48,0,0,0,5.45.5c1-.14,2.84,0,3.51-.79A2.6,2.6,0,0,1,71,73.49a14.23,14.23,0,0,0,8.14-2.84A18.16,18.16,0,0,0,82.54,67.6Z"/><path class="cls-39" d="M42.93,66.7a6,6,0,0,0-.57-.83,11.28,11.28,0,0,1,0,2.18,9.73,9.73,0,0,1-1.72,3.7c-.37.45-1.84,2-2.45,1.42-.3-.28,0-1,.24-1.28a12,12,0,0,1-3.45,2c-.34.1-4.06.8-4.07.43,0-.9,1.22-1.74,2-2-2,.31-4,1.22-6.05,1.08a8.88,8.88,0,0,1-3.33-1c.53-.43,1.26-.56,1.77-1-3-.81-6.15-1.06-8.79-3a15,15,0,0,1-3.35-3.17c-.14-.19-.26-.4-.39-.6l-.22-.17c.13.1.21.92.27,1.12a7.75,7.75,0,0,0,.48,1.11,5.88,5.88,0,0,0,1.46,1.75,26.21,26.21,0,0,0,3.95,2.61,7.69,7.69,0,0,1,1.81,1,2.71,2.71,0,0,1-1.27.68c1.72,2.24,5.18,2.33,7.73,2.59-.38,1.08,1,1.13,1.88,1.16a26.77,26.77,0,0,0,3.35-.19c1-.09,1.86-.56,2.8-.63-1.15,1.8,2.39.69,3,.39a8.22,8.22,0,0,0,4-3.63A8.42,8.42,0,0,0,42.93,66.7Z"/><path class="cls-39" d="M46.7,45.83a2,2,0,0,1,1.44,1.59.69.69,0,0,1-.52.81,8.78,8.78,0,0,1-2.75.14,1.65,1.65,0,0,1-.91-.43c-.17.45-.3.92-.42,1.34A6.17,6.17,0,0,1,47,49.23c.32.1,2.52.9,2.59,1.19C49.24,49,48.43,46.12,46.7,45.83Z"/><path class="cls-39" d="M41.42,47.18a1.08,1.08,0,0,1-.34,1,3.24,3.24,0,0,1-1,.54c-.31.13-.6.27-.91.39A2.52,2.52,0,0,1,38,49.4a.9.9,0,0,1-.4-.13,12.31,12.31,0,0,0-.3,1.68c1.77-.94,2.81-2,4.89-1.71A5.24,5.24,0,0,0,41.42,47.18Z"/><path class="cls-40" d="M49.57,56.23A3.14,3.14,0,1,1,45.14,56,3.13,3.13,0,0,1,49.57,56.23Z"/><path class="cls-41" d="M49.33,58.44a2.1,2.1,0,1,1-2-2.22A2.1,2.1,0,0,1,49.33,58.44Z"/><path class="cls-34" d="M49.93,56.43a.79.79,0,0,0-.15-.34,1,1,0,0,0-.9-.39h0a2.1,2.1,0,0,0-.24.06l-.22.12-.19.18a.71.71,0,0,0-.16.34.5.5,0,0,0,0,.24.52.52,0,0,0,0,.25.67.67,0,0,0,.1.23.62.62,0,0,0,.24.29l.23.14a1,1,0,0,0,.5.07,1,1,0,0,0,.46-.18l.18-.18a.9.9,0,0,0,.2-.47A.78.78,0,0,0,49.93,56.43Z"/><path class="cls-34" d="M49.91,58.09a.46.46,0,0,0-.08-.19l-.08-.08a.41.41,0,0,0-.19-.08.29.29,0,0,0-.16,0,.35.35,0,0,0-.14.06.45.45,0,0,0-.11.13.25.25,0,0,0,0,.15.34.34,0,0,1,0,.1.41.41,0,0,0,.08.19l.08.08a.37.37,0,0,0,.2.09.38.38,0,0,0,.15,0,.27.27,0,0,0,.14-.07.25.25,0,0,0,.11-.12.47.47,0,0,0,.06-.15Z"/><path class="cls-34" d="M47.26,60.6a.56.56,0,0,0-.12-.31L47,60.16a.76.76,0,0,0-.31-.13.42.42,0,0,0-.25,0,.52.52,0,0,0-.23.1.47.47,0,0,0-.17.2.5.5,0,0,0-.09.23v.17a.59.59,0,0,0,.12.31l.12.12a.62.62,0,0,0,.31.14.52.52,0,0,0,.25,0,.48.48,0,0,0,.23-.1.47.47,0,0,0,.17-.2.5.5,0,0,0,.09-.24Z"/><path class="cls-42" d="M41.16,56.23A3.14,3.14,0,1,1,36.72,56,3.13,3.13,0,0,1,41.16,56.23Z"/><path class="cls-41" d="M40.92,58.44a2.1,2.1,0,1,1-2-2.22A2.1,2.1,0,0,1,40.92,58.44Z"/><path class="cls-34" d="M41.52,56.43a.79.79,0,0,0-.15-.34,1,1,0,0,0-.9-.39h0a2.1,2.1,0,0,0-.24.06l-.22.12-.19.18a.71.71,0,0,0-.16.34.51.51,0,0,0,0,.24.52.52,0,0,0,0,.25.5.5,0,0,0,.09.23.76.76,0,0,0,.24.29l.24.14a.92.92,0,0,0,.49.07.93.93,0,0,0,.46-.18l.19-.18a.9.9,0,0,0,.2-.47A.78.78,0,0,0,41.52,56.43Z"/><path class="cls-34" d="M41.49,58.09a.44.44,0,0,0-.07-.19l-.08-.08a.44.44,0,0,0-.2-.08.26.26,0,0,0-.15,0,.35.35,0,0,0-.14.06.33.33,0,0,0-.11.13.34.34,0,0,0-.06.15v.1a.41.41,0,0,0,.08.19l.08.08a.34.34,0,0,0,.19.09.43.43,0,0,0,.16,0,.27.27,0,0,0,.14-.07.32.32,0,0,0,.11-.12.3.3,0,0,0,.05-.15Z"/><path class="cls-34" d="M39,60.53a.76.76,0,0,0-.14-.35l-.13-.13a.73.73,0,0,0-.35-.15.5.5,0,0,0-.27,0,.47.47,0,0,0-.25.11.5.5,0,0,0-.19.22.59.59,0,0,0-.1.26v.18a.76.76,0,0,0,.14.35l.13.13a.7.7,0,0,0,.34.15.53.53,0,0,0,.28,0,.51.51,0,0,0,.25-.11.67.67,0,0,0,.19-.22.58.58,0,0,0,.09-.26A1.09,1.09,0,0,0,39,60.53Z"/><path class="cls-43" d="M62.13,139.86c0-2-.05-4-.05-6,0-1.83.31-3.65-.17-5.43a12.91,12.91,0,0,0-1.21-2.92c-1.16-2.1-1.19-4.84-1.42-7.17a8.33,8.33,0,0,1-1.65.11c.26,1.1.58,2.2.8,3.27,1.07,5.07,1.72,10.19,2.48,15.3.24,1.67.53,3.32.69,5,.13,1.44.1,2.88.18,4.3.78.17.6-.47.6-1C62.36,143.52,62.1,141.69,62.13,139.86Z"/><path class="cls-43" d="M47.91,139.06c0-2,0-4,0-6,0-1.83.31-3.64-.17-5.42a13.19,13.19,0,0,0-1.21-2.92c-1-1.83-1.17-4.15-1.34-6.26q-.59-.06-1.17-.15l-.38-.06h0c.23.9.48,1.8.66,2.67,1.07,5.07,1.72,10.19,2.48,15.3.24,1.67.53,3.33.69,5,.13,1.44.1,2.88.18,4.3.78.18.6-.47.6-1C48.14,142.71,47.88,140.88,47.91,139.06Z"/><path class="cls-44" d="M28.38,23.78a3.79,3.79,0,0,0-.88,1.81c-.12.45-.26,1.18-.86,1.18-.84,0-1.51-1.2-2-1.69-1.3-1.31-3.05-2.2-4.1-3.75a5.43,5.43,0,0,1-1.07-3A2.7,2.7,0,0,1,20,16.79c.54-.66.56.07.61.05.48-.26,1.56-1.86,2.09-1.29.15.16,0,.94.13,1.2a1.24,1.24,0,0,0,.94.95c1.16.18,2.56-1.41,3.4-2,.16-.13.54-.52.78-.4s.07.36.19.47c.63.55,1.15,0,1.37-.8.31-1.08.08-3.18,1.42-3.71.94-.37,0,1.93.07,2.52.12,1.59.93.62,1.65,0,0,1.24,1.21.23,1.57-.33.59-.91.45-3,1.43-3.56.75-.41,1,.7,1.79.41,1.06-.39.91-2.46,2-2.82,1.18,1.81,3-1.15,3.49-1.95,1-1.46,3.68-4,5.56-3,.07,0-.1.22.14.34.43.2,1.56-.43,1.85-.7.9-.81.91-2.41,2.59-2.07a1.5,1.5,0,0,0-.83.59,3.68,3.68,0,0,0-.66,1.13c-.07.21,0,.67-.19.83-.33.36-1.74.46-2.2.57a2.69,2.69,0,0,1-1,.13c-.29,0-.35-.26-.68-.22-1.31.15-2.94,2.12-3.64,3.11s-.88,2.75-2,3.25c-.86.38-1-.25-1.6-.5a8.47,8.47,0,0,0-1.34,1.9c-.18.48-.31,1.32-.93,1.3s-.73-1.2-1.52-.69a4,4,0,0,0-1.16,2.11c-.23.75-.6,2.53-1.49,2.77-.69.18-1-.7-1.59-.18-.42.36-.62,1.38-1.11.37-.19-.39.08-1.19-.46-1.32a7.84,7.84,0,0,0-.27,4.27c.12.93.31,2.39-.75,1.41a4.13,4.13,0,0,0-.25,1.18A4.13,4.13,0,0,1,28.38,23.78Z"/><path class="cls-45" d="M26,25.53c-2.43,2.37-5.66,3-7.23,1.38s-.87-4.82,1.56-7.19,5.66-3,7.22-1.39S28.45,23.16,26,25.53Z"/><path class="cls-46" d="M25.59,25.08c-2.05,2-4.79,2.52-6.11,1.17s-.73-4.08,1.31-6.08,4.79-2.53,6.12-1.17S27.64,23.08,25.59,25.08Z"/><path class="cls-45" d="M26.92,19.58C28,21.15,26.65,24.24,25,25c1-1.45,1.94-4.31.5-5.76-.2-.2-.55-.35-.65-.61A2.14,2.14,0,0,1,26.92,19.58Z"/><path class="cls-45" d="M23.2,19a4.07,4.07,0,0,0-2.69,2.13C21.59,20.4,23,20,23.2,19Z"/><path class="cls-47" d="M2.9,44S21,23.74,21.89,23.09s1,.75,1,.75S4.93,44.19,4.17,44.28A1.94,1.94,0,0,1,2.9,44Z"/><path class="cls-48" d="M4.68,44.64A1.83,1.83,0,1,1,3,42.71,1.83,1.83,0,0,1,4.68,44.64Z"/><path class="cls-49" d="M3.76,43a1.09,1.09,0,0,1,.19.78A1.46,1.46,0,0,1,2.7,44.92a1.08,1.08,0,0,1-1.28-1,1.45,1.45,0,0,1,.07-.58A1.84,1.84,0,1,0,3.76,43Z"/><path class="cls-50" d="M19.16,21.25c.39.69,2.45.87,2.82.1a4.8,4.8,0,0,0,.32-2.1,2.18,2.18,0,0,0-.54-1.41,14,14,0,0,1-1.42-2.46,5.31,5.31,0,0,1-.23-2.51c0-.25.25-1.08,0-1.19s-.89.59-1,.86A3.43,3.43,0,0,0,19,13.93c-.11-.43-.52-.75-.83-.59-.67.34-.62,1.22-.45,1.81a.65.65,0,0,0-.83,0c-.38.34-.09.76,0,1.17a.57.57,0,0,0-.7.17c-.22.37.28.8.53,1-1,0-.21,1.07.21,1.35-.26,0-.37.11-.35.34,0,.62,1.22.75,1.63.9-.68.25.89.77,1.11.8C19.15,21,19,21,19.16,21.25Z"/><path class="cls-51" d="M19.78,15.2l0,.08Z"/><path class="cls-51" d="M22.09,21.07a1.36,1.36,0,0,1-1.32-.26c-.3-.23-.61-.79-.11-.88-.45,0-1.28-.19-1.35-.65,0-.28.11-.43.41-.38-.43-.14-1.93-.37-1.78-1.06.09-.41.94-.33,1.24-.28-.38-.22-1.58-.73-1.27-1.31s1.12-.2,1.46,0c-.14-.34-.81-1.14-.4-1.53s.67.18.81.49a2.89,2.89,0,0,1-.16-1.69,3.92,3.92,0,0,1,.58-1.62.25.25,0,0,0-.13-.21c-.41-.17-.89.59-1,.86A3.43,3.43,0,0,0,19,13.93c-.11-.43-.52-.75-.83-.59-.67.34-.62,1.22-.45,1.81a.65.65,0,0,0-.83,0c-.38.34-.09.76,0,1.17a.57.57,0,0,0-.7.17c-.22.37.28.8.53,1-1,0-.21,1.07.21,1.35-.26,0-.37.11-.35.34,0,.62,1.22.75,1.63.9-.68.25.89.77,1.11.8-.17.05-.28.13-.16.34.39.69,2.45.87,2.82.1A2.33,2.33,0,0,0,22.09,21.07Z"/><path class="cls-51" d="M20.66,19.93h0Z"/><path class="cls-50" d="M24.13,26.42c-.64-.46-.59-2.54.22-2.82a4.88,4.88,0,0,1,2.12-.08,2.22,2.22,0,0,1,1.35.7,13.87,13.87,0,0,0,2.28,1.69,5.3,5.3,0,0,0,2.47.51c.25,0,1.09-.13,1.18.18s-.69.81-1,.88a3.48,3.48,0,0,1-1.4,0c.42.16.69.6.5.9-.42.62-1.29.48-1.85.24a.64.64,0,0,1-.11.82c-.38.34-.77,0-1.15-.17a.58.58,0,0,1-.25.67c-.4.18-.76-.36-1-.63-.16,1-1.08.08-1.32-.36,0,.25-.14.34-.37.3-.61-.11-.61-1.3-.71-1.72-.32.65-.67-1-.67-1.2C24.42,26.46,24.33,26.56,24.13,26.42Z"/><path class="cls-51" d="M30.21,26.48l-.07,0Z"/><path class="cls-51" d="M24.64,23.52a1.42,1.42,0,0,0,.11,1.35c.2.32.72.69.86.21-.07.44.05,1.29.5,1.41.27.08.44-.06.42-.36.09.44.15,1.95.85,1.88.42,0,.44-.89.42-1.19.18.4.55,1.65,1.16,1.4s.32-1.09.17-1.44c.33.17,1,.93,1.48.56s-.1-.68-.4-.86a3,3,0,0,0,1.67.36,4,4,0,0,0,1.67-.4.28.28,0,0,1,.2.16c.11.42-.69.81-1,.88a3.48,3.48,0,0,1-1.4,0c.42.16.69.6.5.9-.42.62-1.29.48-1.85.24a.64.64,0,0,1-.11.82c-.38.34-.77,0-1.15-.17a.58.58,0,0,1-.25.67c-.4.18-.76-.36-1-.63-.16,1-1.08.08-1.32-.36,0,.25-.14.34-.37.3-.61-.11-.61-1.3-.71-1.72-.32.65-.67-1-.67-1.2-.07.17-.16.27-.36.13-.64-.46-.59-2.54.22-2.82Z"/><path class="cls-51" d="M25.61,25.08l0-.11Z"/><path class="cls-48" d="M24.28,25.35a2.78,2.78,0,1,1,.83-3.85A2.78,2.78,0,0,1,24.28,25.35Z"/><path class="cls-49" d="M25.54,22.72a1.72,1.72,0,0,1-.79.93,2.25,2.25,0,0,1-2.59-.48,1.67,1.67,0,0,1,.13-2.5,2.31,2.31,0,0,1,.79-.42,2.74,2.74,0,0,0-1.81.42,2.78,2.78,0,1,0,4.27,2Z"/><path class="cls-52" d="M25.54,22.72c0,.06-.05.11-.07.17a2.25,2.25,0,0,1-1,1.39c-1.23.84-3.2.53-3.58-1.1a3.19,3.19,0,0,1,.84-2.76,3.13,3.13,0,0,0-.48.25,2.78,2.78,0,1,0,4.27,2Z"/><path class="cls-50" d="M23,21c.67-1.23,2.87,1.46,1.71,2-.31.15-.9-.1-1.16-.29A1.68,1.68,0,0,1,23,21Z"/><path class="cls-48" d="M19.69,27.34l-.1,0a1.79,1.79,0,0,1-.4-.38c-.22-.28-.14-.74-.43-.89a.75.75,0,0,0-.82.29,1.31,1.31,0,0,0,.2,1.6,2,2,0,0,0,.94.59c.74.38,1.57-.83.84-1.18A.58.58,0,0,0,19.69,27.34Z"/><path class="cls-48" d="M18.24,28.87a1.21,1.21,0,0,1-.49-.29c-.26-.3-.14-.86-.68-.83a1.17,1.17,0,0,0-.91.89,1.76,1.76,0,0,0,1.3,1.53c.53.12,1.39-.23,1.22-.92C18.63,29.05,18.44,29,18.24,28.87Z"/><path class="cls-52" d="M19.52,28a1.21,1.21,0,0,1-.89-.38,1.48,1.48,0,0,1-.37-1.52,1,1,0,0,0-.32.25,1.31,1.31,0,0,0,.2,1.6,2,2,0,0,0,.94.59c.55.28,1.14-.31,1.12-.77A1.14,1.14,0,0,1,19.52,28Z"/><path class="cls-52" d="M17.79,29.7a1.39,1.39,0,0,1-.86-.71,1.53,1.53,0,0,1-.13-1.16,1.21,1.21,0,0,0-.64.81,1.76,1.76,0,0,0,1.3,1.53,1.09,1.09,0,0,0,1.22-.56A1.36,1.36,0,0,1,17.79,29.7Z"/><path class="cls-53" d="M28.35,15.75a.56.56,0,0,0-.09-.17c-.13-.13-.15-.16-.07-.08s0,.06,0,0a.56.56,0,0,0-.6-.15.74.74,0,0,0-.44.63.83.83,0,0,0,.47.84.64.64,0,0,0,.87-.49A1.24,1.24,0,0,0,28.35,15.75Z"/><path class="cls-53" d="M29.61,17.6h0s0,0,0,0h0s0-.09,0-.1v0s0-.05,0-.08h0a.2.2,0,0,0-.16-.18.21.21,0,0,0-.23.07.36.36,0,0,0,0,.46.41.41,0,0,0,.31.12A.15.15,0,0,0,29.61,17.6Z"/><path class="cls-53" d="M29.6,17.49v0S29.61,17.49,29.6,17.49Z"/><path class="cls-53" d="M34.84,12.87a.17.17,0,0,1,0-.07c0-.53-.32-1.17-.88-1.13a.79.79,0,0,0-.67.8,1.31,1.31,0,0,0,.07.55.78.78,0,0,0,.25.35l.18.11c-.1-.05-.11-.05,0,0A.69.69,0,0,0,34.84,12.87Z"/><path class="cls-53" d="M35.32,15l0,0a.17.17,0,0,0-.1-.14.16.16,0,0,0-.2.05l0,.05a.49.49,0,0,0-.08.18.25.25,0,0,0,.19.27h0a.17.17,0,0,0,.18,0,.34.34,0,0,0,0-.37Z"/><path class="cls-53" d="M32,13.81a.32.32,0,0,0-.15-.13.26.26,0,0,0-.31.08.31.31,0,0,0-.07.18V14a.3.3,0,0,0,.18.23.29.29,0,0,0,.38-.16A.31.31,0,0,0,32,13.81Z"/><path class="cls-53" d="M39.17,8.82a1.42,1.42,0,0,0-.05-.22c0,.09,0,.06,0,0a.55.55,0,0,0-1-.27.93.93,0,0,0-.23.6.7.7,0,0,0,.18.48c.19.2-.12-.14.06,0l.11.1a.53.53,0,0,0,.85-.34v0A.69.69,0,0,0,39.17,8.82Z"/><path class="cls-53" d="M36.89,8.09a.29.29,0,0,0,0-.09s0,0,0-.06a.36.36,0,0,0-.21-.21.32.32,0,0,0-.27,0,.51.51,0,0,0-.16.13.37.37,0,0,0-.08.18.37.37,0,0,0,.29.42l.09,0a.34.34,0,0,0,.36-.2A.33.33,0,0,0,36.89,8.09Z"/><path class="cls-53" d="M41.75,5.37a.28.28,0,0,0-.31-.09.26.26,0,0,0-.16.28.31.31,0,0,0,.19.26l.09,0a.15.15,0,0,0,.2-.08l0-.09A.3.3,0,0,0,41.75,5.37Z"/><path class="cls-53" d="M43.49,8.58a.31.31,0,0,0-.05-.1.32.32,0,0,1,0-.06.43.43,0,0,0-.78,0,.69.69,0,0,0-.09.34.68.68,0,0,0,0,.2.61.61,0,0,0,.19.29.47.47,0,0,0,.48.07.47.47,0,0,0,.3-.39A.57.57,0,0,0,43.49,8.58Z"/><path class="cls-53" d="M45,5.14l0,0a.42.42,0,0,0-.25-.18.45.45,0,0,0-.34,0,.54.54,0,0,0-.32.42.51.51,0,0,0,.1.38.56.56,0,0,0,.37.21A.51.51,0,0,0,45,5.71a.45.45,0,0,0,.07-.25A.5.5,0,0,0,45,5.14Z"/><path class="cls-53" d="M45,2.8h0l-.09,0a.18.18,0,0,0-.15.07.42.42,0,0,0-.06.14.25.25,0,0,0,0,.19.27.27,0,0,0,.48.07A.28.28,0,0,0,45,2.8Z"/><path class="cls-53" d="M47.64,1.14a.22.22,0,0,0,0-.19l0,0a.35.35,0,0,0-.25-.15.36.36,0,0,0-.4.31.36.36,0,0,0,.07.26.37.37,0,0,0,.24.14.43.43,0,0,0,.22,0,.37.37,0,0,0,.16-.21A.16.16,0,0,0,47.64,1.14Z"/><path class="cls-53" d="M49,.78h0a.14.14,0,0,0,0-.06c0-.09-.2-.11-.23,0v0l-.05.07h0a.23.23,0,0,0-.07.23.13.13,0,0,0,.14.14h0A.21.21,0,0,0,49,1.07a.42.42,0,0,0,0-.15A.21.21,0,0,0,49,.78Z"/><path class="cls-53" d="M32.25,17.12l0-.07c0,.12,0,.1,0-.07a.58.58,0,0,0-.05-.14.52.52,0,0,0-.54-.33.57.57,0,0,0-.46.44h0a.64.64,0,1,0,1.1.17Z"/><path class="cls-53" d="M33,16.21h0Z"/><path class="cls-53" d="M33,15.59a.52.52,0,0,0-.39.28.3.3,0,0,0,0,.23.4.4,0,0,0,.09.22.15.15,0,0,0,.18,0c.05,0,.06-.06.08-.1a0,0,0,0,1,0,0,.13.13,0,0,0,.07-.06.16.16,0,0,0,0-.07l0-.09c0-.07,0-.12.06-.18S33.13,15.56,33,15.59Z"/><path class="cls-53" d="M31.31,21.83a1.3,1.3,0,0,0,0-.21.81.81,0,0,0-.12-.18.36.36,0,0,0-.61.08.52.52,0,0,0,0,.5.39.39,0,0,0,.46.24A.41.41,0,0,0,31.31,21.83Z"/><path class="cls-53" d="M30.19,18.24a.21.21,0,0,0-.05-.13l-.05-.05S30,18,30,18a.18.18,0,0,0-.16,0,.27.27,0,0,0-.12.06.27.27,0,0,0-.07.14l0,.07a.29.29,0,0,0,.11.26.28.28,0,0,0,.25.06.29.29,0,0,0,.19-.17A.26.26,0,0,0,30.19,18.24Z"/><path class="cls-53" d="M28.68,12a1.14,1.14,0,0,0-.07-.32.81.81,0,0,0-.17-.24l0,0a.45.45,0,0,0-.68,0,.69.69,0,0,0-.07.91.4.4,0,0,0,.13.16c.14.07.17.1.11.07s0,0,0,0a.57.57,0,0,0,.25.11h.15a.26.26,0,0,0,.28-.19A.72.72,0,0,0,28.68,12Z"/><path class="cls-53" d="M35.19,9.38a.62.62,0,0,0-.07-.19l-.06-.09a.13.13,0,0,0-.21,0,.6.6,0,0,0-.14.21.28.28,0,0,0,.07.29.17.17,0,0,0,.29,0l0,0A.22.22,0,0,0,35.19,9.38Z"/><path class="cls-54" d="M32.21,14.85a.9.9,0,0,0-.34-.68.56.56,0,0,0-.62,0A.76.76,0,0,0,31,15c.05.25.25.55.54.55a1,1,0,0,0,.25,0,.35.35,0,0,0,.15-.07c.09-.11.11-.12.06,0A.63.63,0,0,0,32.21,14.85Z"/><path class="cls-54" d="M34.78,14.84l0,0h0a.32.32,0,0,0-.11-.12.2.2,0,0,0-.26,0h0a.31.31,0,0,0-.19.24.34.34,0,0,0,0,.1.35.35,0,0,0,.13.32.26.26,0,0,0,.19.07.28.28,0,0,0,.32-.17A.37.37,0,0,0,34.78,14.84Z"/><path class="cls-54" d="M35.57,10.85a.37.37,0,0,0-.15-.2h0c0-.11-.11-.23-.21-.17l-.13.07a.14.14,0,0,0,0,0l0,0a.41.41,0,0,0,.06.7h0a.39.39,0,0,0,.4-.08A.37.37,0,0,0,35.57,10.85Z"/><path class="cls-54" d="M40.41,8.08a.39.39,0,0,0-.33-.23.38.38,0,0,0-.34.22.64.64,0,0,1,0,.07.43.43,0,0,0,.17.64.42.42,0,0,0,.57-.33A.78.78,0,0,0,40.41,8.08Z"/><path class="cls-54" d="M38.84,6.94a.3.3,0,0,0-.29-.13h-.07a.61.61,0,0,0-.14.1.36.36,0,0,0-.06.2.3.3,0,0,0,.06.18.05.05,0,0,0,0,0,.29.29,0,0,0,.45,0l0,0A.33.33,0,0,0,38.84,6.94Z"/><path class="cls-54" d="M30.9,13.94a.52.52,0,0,0-1-.14.51.51,0,0,0-.06.34.83.83,0,0,0,0,.15l.05.1c0-.06,0,0,0,.08l.11.11a.47.47,0,0,0,.2.1.4.4,0,0,0,.22,0,.33.33,0,0,0,.13-.07l.09-.09c-.08.07-.06,0,.05-.06l.08-.12A.55.55,0,0,0,30.9,13.94Z"/><path class="cls-54" d="M30.06,18.72a.38.38,0,0,0-.46,0,.57.57,0,0,0-.2.59.66.66,0,0,0,.15.3.52.52,0,0,0,.13.17.17.17,0,0,0,.18,0,.49.49,0,0,0,.18-.17A.64.64,0,0,0,30.06,18.72Z"/><path class="cls-54" d="M30.29,22.64a1,1,0,0,0-.05-.23s0-.07,0-.11a.15.15,0,0,0-.23-.13l-.12.1a.58.58,0,0,0-.24.2.44.44,0,0,0,0,.52.3.3,0,0,0,.42.06A.44.44,0,0,0,30.29,22.64Z"/><path class="cls-55" d="M33.05,13.47a.9.9,0,0,0-.2-.28l-.07,0a.41.41,0,0,0-.67.18.84.84,0,0,0,0,.76.73.73,0,0,0,.29.23.5.5,0,0,0,.56-.15A.6.6,0,0,0,33.05,13.47Z"/><path class="cls-55" d="M34.8,13a.39.39,0,0,0-.43-.34.38.38,0,0,0-.33.43.37.37,0,0,0,.05.18.37.37,0,0,0,.29.23.36.36,0,0,0,.36-.18A.58.58,0,0,0,34.8,13Z"/><path class="cls-55" d="M30.94,18.15a.37.37,0,0,0-.13-.12l0,0a.24.24,0,0,0-.34,0,.05.05,0,0,0,0,0,.45.45,0,0,0-.1.14.36.36,0,0,0,.14.45.28.28,0,0,0,.44-.05A.36.36,0,0,0,30.94,18.15Z"/><path class="cls-55" d="M29.42,20.22a.4.4,0,0,0-.18-.16.13.13,0,0,0-.19,0l-.07,0a.26.26,0,0,0-.11.1.47.47,0,0,0-.08.26.35.35,0,0,0,.29.38.35.35,0,0,0,.38-.29A.55.55,0,0,0,29.42,20.22Z"/><path class="cls-55" d="M27.86,16a.39.39,0,0,0,0-.28l0-.08h0v0a.41.41,0,0,0-.38-.34.39.39,0,0,0-.39.33,1.13,1.13,0,0,0,0,.32.44.44,0,0,0,.19.3l.09.07a.42.42,0,0,0,.27.05.23.23,0,0,0,.22-.17A1,1,0,0,0,27.86,16Z"/><path class="cls-55" d="M37.28,14.25h0Z"/><path class="cls-55" d="M37.55,13.42s-.08-.08,0,0a.53.53,0,0,0-.23-.16.49.49,0,0,0-.27,0,.47.47,0,0,0-.27.45s0,.07,0,.1a.53.53,0,0,0,.17.31.49.49,0,0,0,.35.09h0a.39.39,0,0,0,.43-.34A.48.48,0,0,0,37.55,13.42Z"/><path class="cls-55" d="M37.25,11.36a.58.58,0,0,0-.19-.25.59.59,0,0,0-.29-.13h-.16l-.15,0-.13.07a.49.49,0,0,0-.16.19.35.35,0,0,0-.06.14.26.26,0,0,0,0,.15.24.24,0,0,0,0,.15.47.47,0,0,0,.09.22h0a.65.65,0,0,0,.26.2.59.59,0,0,0,.3,0,.61.61,0,0,0,.29-.11.43.43,0,0,0,.15-.18.47.47,0,0,0,.09-.22A.65.65,0,0,0,37.25,11.36Z"/><path class="cls-55" d="M39.23,9.83l0,0a.19.19,0,0,0-.1,0H39a.11.11,0,0,0-.07,0,.13.13,0,0,0-.06.07.11.11,0,0,0,0,.08.18.18,0,0,0,0,.16l0,.05a.21.21,0,0,0,.11,0,.36.36,0,0,0,.16,0l.06-.07,0-.08A.32.32,0,0,0,39.23,9.83Z"/><path class="cls-55" d="M43.07,6.44c0-.09-.07-.17-.16-.13a.49.49,0,0,0-.2.11s-.06.11-.1.16a.19.19,0,0,0,0,.26.18.18,0,0,0,.26,0L43,6.66C43.08,6.59,43.06,6.51,43.07,6.44Z"/><path class="cls-55" d="M26,16.12a0,0,0,0,1,0,0V16a.41.41,0,0,0-.15-.27,0,0,0,0,1,0,0l0,0,0,0h0a.61.61,0,0,0-.05-.12.26.26,0,0,0-.29-.08.52.52,0,0,0-.22.22.61.61,0,0,0-.08.4.39.39,0,0,0,.25.33c-.09,0-.08,0,0,0l0,0A.38.38,0,0,0,26,16.12Z"/><path class="cls-55" d="M29,13.29a.31.31,0,0,0-.06-.13.34.34,0,0,0-.4-.12.36.36,0,0,0-.21.36.42.42,0,0,0,.67.26A.23.23,0,0,0,29,13.29Z"/><polygon class="cls-54" points="39.54 12.32 38.85 12.03 38.21 12.43 38.28 11.68 37.7 11.2 38.43 11.03 38.71 10.33 39.1 10.97 39.85 11.02 39.35 11.59 39.54 12.32"/><polygon class="cls-54" points="32.85 11.6 32.48 11.48 32.17 11.73 32.17 11.34 31.84 11.12 32.21 10.99 32.32 10.62 32.55 10.93 32.94 10.91 32.72 11.23 32.85 11.6"/><polygon class="cls-54" points="35.87 16.15 35.56 16.8 35.91 17.41 35.2 17.32 34.73 17.85 34.6 17.14 33.95 16.85 34.58 16.51 34.65 15.8 35.17 16.3 35.87 16.15"/><polygon class="cls-54" points="41.75 6.83 41.29 6.31 40.6 6.4 40.95 5.8 40.65 5.17 41.33 5.32 41.83 4.84 41.91 5.53 42.52 5.86 41.88 6.14 41.75 6.83"/><polygon class="cls-54" points="31.97 18.43 31.75 18.92 32.02 19.39 31.49 19.32 31.13 19.73 31.02 19.2 30.52 18.99 31 18.72 31.05 18.18 31.44 18.55 31.97 18.43"/><polygon class="cls-54" points="28.04 18.46 27.35 18.43 26.93 18.98 26.74 18.31 26.09 18.09 26.67 17.7 26.69 17.01 27.23 17.45 27.89 17.25 27.64 17.89 28.04 18.46"/><polygon class="cls-54" points="28.7 22 28.44 21.52 27.89 21.48 28.26 21.08 28.14 20.55 28.63 20.77 29.1 20.49 29.04 21.03 29.45 21.39 28.91 21.5 28.7 22"/><polygon class="cls-54" points="23.93 17.62 23.33 17.33 22.75 17.65 22.84 16.99 22.35 16.54 23.01 16.43 23.29 15.82 23.6 16.41 24.26 16.49 23.8 16.97 23.93 17.62"/><polygon class="cls-54" points="26.03 21.08 25.8 21.15 25.72 21.37 25.58 21.17 25.34 21.16 25.49 20.98 25.43 20.74 25.65 20.83 25.85 20.69 25.84 20.93 26.03 21.08"/><path class="cls-43" d="M10.14,79.46c0-.2,0-.41.07-.61.06-.41.13-.83.2-1.26l.09-.66.09-.84A79.25,79.25,0,0,1,4.81,64.87c-1-2.29-1.8-4.6-2.57-7-.43-1.32.47-2.33.92-3.68.87-2.66,1.5-5.4,2.4-8.06a15.49,15.49,0,0,1,2.2-4.9c1.07-1.38,2.74-2,3.83-3.41.33-.41,2.21-2.32,2.06-2.7C13,33.63,11,36.84,10.57,37.05c-1.63-1.87,2.9-3.08,2.27-4.84-.69.57-1.36.28-2.08.61a17.69,17.69,0,0,0-2.08,1.41c-1.9,1.23-1.88,1-1.9,3.6,0,4.23-2.63,8.26-4.08,12.14C1.62,52.87-.6,56.25.15,59.09c1.13,4.24,3.34,8.65,5.24,12.66C6.46,74,8,78.3,10.1,79.85,10.11,79.72,10.12,79.59,10.14,79.46Z"/><path class="cls-56" d="M64,147.09c-.43,1-2.4.79-3.24.86-1.32.1-2.68.79-4,.14a2.18,2.18,0,0,1-1.11-1.8,1.56,1.56,0,0,1,.54-1.21c.1-.08,1.27-.53,1.25-.27,0,.44-.71.68-.7,1.05s.93.79,1.21.81c.75,0,1.16-.66,1.77-1.1s1.23-.72,1.28-1.45c.11-1.36-3.2-4.05.19-3.66a5,5,0,0,1,2.49,1.11c.88.76,1,1.14.4,1.91a2,2,0,0,0-.49,2.12C63.69,145.93,64.14,146.8,64,147.09Z"/><path class="cls-57" d="M64.13,143.48c.51-.68.5-1-.1-1.63a.56.56,0,0,1,0,.12c-.22.59-.79,1-1.16,1.47-.53.71-.66,1.62-1.23,2.31a3.82,3.82,0,0,1-4.19.91c-.51-.16-1.11-.47-1.21-1.06a.91.91,0,0,1,0-.52h0a1.56,1.56,0,0,0-.54,1.21,2.18,2.18,0,0,0,1.11,1.8c1.3.65,2.66,0,4-.14.84-.07,2.81.16,3.24-.86.11-.29-.34-1.16-.39-1.49A2,2,0,0,1,64.13,143.48Z"/><path class="cls-58" d="M63.66,146.35a7.36,7.36,0,0,1-3.79,1,8,8,0,0,1-3.38-.43,1.69,1.69,0,0,1-.79-.63h0a2.18,2.18,0,0,0,1.11,1.8c1.3.65,2.66,0,4-.14.84-.07,2.81.16,3.24-.86a1.75,1.75,0,0,0-.19-.87Z"/><path class="cls-59" d="M60.61,140.91a2.43,2.43,0,0,1,2.14.83c.47.89-.71,1.37-1.22,2C61.43,143.47,60.29,141,60.61,140.91Z"/><path class="cls-56" d="M49.8,146.28c-.42,1-2.39.79-3.23.86-1.32.11-2.69.8-4,.15a2.21,2.21,0,0,1-1.1-1.8,1.54,1.54,0,0,1,.54-1.21c.1-.08,1.27-.54,1.25-.28,0,.44-.72.68-.71,1.05s.93.8,1.22.81c.75,0,1.16-.66,1.77-1.1s1.23-.72,1.28-1.45c.11-1.35-3.21-4,.19-3.65a5,5,0,0,1,2.49,1.11c.88.75,1,1.13.4,1.9a2,2,0,0,0-.49,2.13C49.47,145.13,49.92,146,49.8,146.28Z"/><path class="cls-57" d="M49.91,142.67c.51-.67.49-1-.1-1.63l0,.12c-.23.6-.79,1-1.16,1.47-.53.71-.66,1.62-1.23,2.31a3.83,3.83,0,0,1-4.19.92c-.51-.16-1.11-.48-1.21-1.06a.93.93,0,0,1,0-.53h0a1.54,1.54,0,0,0-.54,1.21,2.21,2.21,0,0,0,1.1,1.8c1.3.65,2.67,0,4-.15.84-.07,2.81.17,3.23-.86.12-.28-.33-1.15-.38-1.48A2,2,0,0,1,49.91,142.67Z"/><path class="cls-58" d="M49.44,145.55a7.48,7.48,0,0,1-3.79,1,8,8,0,0,1-3.38-.43,1.57,1.57,0,0,1-.79-.63h0a2.21,2.21,0,0,0,1.1,1.8c1.3.65,2.67,0,4-.15.84-.07,2.81.17,3.23-.86a1.61,1.61,0,0,0-.18-.87Z"/><path class="cls-59" d="M46.38,140.1a2.47,2.47,0,0,1,2.15.83c.47.9-.71,1.37-1.22,2C47.21,142.67,46.07,140.18,46.38,140.1Z"/><path class="cls-43" d="M107.37,50.55c-2.05,4.21-3.17,8.68-5.46,12.82-1.41,2.55-2.26,5-4.39,7.17s-4.69,4.33-6.94,6.6c-.81.83-4.45,6-6,4.06s4.6-6.79,5.86-7.87c2.85-2.45,5.71-5.08,8.69-7.28a20.45,20.45,0,0,0,.49-2.88,14.75,14.75,0,0,1,1.27-2.94c1.11-2,2.32-3.84,3.41-5.82.55-1,1.74-2.76,1.23-4-.27-.63-1.13-.85-1.55-1.35-1-1.19-.61-2.6-1.35-4,1-1.33,3,1,3.37,1.94.58-.68.4-2.31.09-3.12-3.63.15-1.38-3.66,1-2.7,1.13.45,1.15,1.86,1.39,2.88C109.09,46.51,108.35,48.54,107.37,50.55Z"/><path class="cls-60" d="M94.59,101.79c-2.44-2.93-4.42-6.35-4.64-10.15-.29.62-.62,1.23-.94,1.83-.17.32-.34.64-.49,1a79.22,79.22,0,0,1-4.22,7.06c-.4.65-.8,1.31-1.18,2-1.51,2.66-4.1,4.43-6.4,6.44a21.7,21.7,0,0,1-5.92,3.76l-.29.13c-.45.2-.92.39-1.41.59l-.18.08-1.22.48-1,.44-.47.22-.14.07A14.29,14.29,0,0,0,72,117.87c1.64.19,2.37-.76,3.82-1.19,1.92-.56,3.66.26,5.35,1.08,2.41,1.16,3.14.71,5.11-1.06A31.63,31.63,0,0,1,92,112.21a25.63,25.63,0,0,1,6.57-2.45,15.08,15.08,0,0,1,3.57-.61c.74,0,1.32.59,2,.11C101.09,106.56,97.25,105,94.59,101.79Z"/><path class="cls-61" d="M93.35,104.79a21.37,21.37,0,0,1-1.24-6.5A14.93,14.93,0,0,1,90,91.63c-.29.62-.62,1.24-.94,1.84-.17.32-.34.64-.49,1a79.22,79.22,0,0,1-4.22,7.06c-.4.65-.8,1.31-1.18,2-1.51,2.66-4.1,4.43-6.4,6.44a21.7,21.7,0,0,1-5.92,3.76l-.29.13-.18.08a7.2,7.2,0,0,1,.86.29,6,6,0,0,1,3.1,2.5,2.87,2.87,0,0,1,.24.57,6.74,6.74,0,0,1,1.27-.54,5.56,5.56,0,0,1,3.63.31c-1-.73-2-1.4-2.91-2.16-2.44-2-2.5-4,1.48-2.94,3.49,1,6.17,3.14,9.93,3.32a22.67,22.67,0,0,1,4.09-3,25.46,25.46,0,0,1,4.51-1.89A45.25,45.25,0,0,1,93.35,104.79Z"/><path class="cls-56" d="M96.34,100.41a34.55,34.55,0,0,0,8.1,6c2.4,1.21,5.39,1.79,7.62,3.21-1.52,2.55-3.77,5.42-6.61,6.72-3.75,1.71-7.7-1.46-10-4.25A28.67,28.67,0,0,1,89.37,97c-.27-2.84-.11-7.13,1.51-9.58C88.88,91.92,93.37,97.53,96.34,100.41Z"/><path class="cls-62" d="M102.19,111.54l-.31-.14a18.85,18.85,0,0,1-7.45-6.17,35,35,0,0,1-3.16-5.39,7.06,7.06,0,0,1-.87-2.78c-.21,2.51,1,5.15,1.86,7.44,1.78,4.73,5.78,10.41,11.25,10.81,2.55.19,6-2.45,6.29-5.16C108.26,112.65,104.61,112.57,102.19,111.54Z"/><path class="cls-63" d="M100.34,106.46a12.89,12.89,0,0,0,6,1.66,7.57,7.57,0,0,0-2.26-1.4,25.75,25.75,0,0,1-3.28-2,35.16,35.16,0,0,1-7.57-7.14c.13,1.7,1.58,3.48,2.5,4.85a12.85,12.85,0,0,0,4.44,4Z"/><path class="cls-62" d="M109,112.13c-4.53,4-10.54.39-13.86-3.41a21.48,21.48,0,0,1-2.71-3.89c1.83,4.66,5.77,10.09,11.12,10.48,2,.15,4.58-1.43,5.72-3.43Z"/></g></g></g></svg>