<svg xmlns="http://www.w3.org/2000/svg" viewBox="0 0 366.78 322.46"><defs><style>.cls-1{isolation:isolate;}.cls-2{fill:#ff7bda;}.cls-3{fill:#ff27ad;}.cls-4{fill:#ff4dcd;}.cls-16,.cls-5{fill:#7c035a;}.cls-5{opacity:0.27;}.cls-6{fill:#61eaf8;}.cls-7{opacity:0.17;}.cls-8{fill:#077faf;}.cls-9{opacity:0.38;}.cls-10,.cls-12,.cls-13,.cls-14{fill:#007796;}.cls-10{opacity:0.64;}.cls-11{opacity:0.29;}.cls-13{opacity:0.45;}.cls-14{opacity:0.46;}.cls-15{fill:#ff43c0;}.cls-16{opacity:0.19;}.cls-17{fill:#cbfa21;}.cls-18{fill:#aacc18;mix-blend-mode:multiply;opacity:0.35;}.cls-19,.cls-24,.cls-28,.cls-29,.cls-30{fill:#fff2ff;}.cls-19,.cls-24,.cls-26,.cls-28,.cls-29,.cls-30{mix-blend-mode:overlay;}.cls-19{opacity:0.34;}.cls-20{fill:#e1ff61;}.cls-21,.cls-26{fill:#fff;}.cls-22{fill:#004b70;}.cls-23{fill:#01161e;opacity:0.16;}.cls-24{opacity:0.49;}.cls-25{fill:#ff5f89;opacity:0.47;}.cls-26,.cls-28{opacity:0.6;}.cls-27{fill:#7ff6ff;}.cls-29{opacity:0.48;}.cls-30{opacity:0.4;}</style></defs><g class="cls-1"><g id="Слой_2" data-name="Слой 2"><g id="Layer_1" data-name="Layer 1"><path class="cls-2" d="M290.92,284.21s.57,4.29,6.57,10.86,8,3.14,9.13,2.85,1.72-.57.87-2.85-6.29-5.71-8.29-9.14S291.2,280.5,290.92,284.21Z"/><path class="cls-3" d="M258.82,210.58s15.27,9.67,53.91,27.13,53,39.26,48,57.33c0,0-17.46,15.59-23.06,15.59s-10.6-32.42-38-46.13-58-47.36-62.94-53.59S258.82,210.58,258.82,210.58Z"/><path class="cls-4" d="M349.07,261.9h.31a77.1,77.1,0,0,0-6.58-6.11c-4.21.86-9.89,2.86-17.4,8.49a88.08,88.08,0,0,0-11.65,10.48,66.56,66.56,0,0,1,6.22,7.18C328.18,273.31,340.27,262.38,349.07,261.9Z"/><path class="cls-4" d="M278.05,221.12c-6.9,2.69-14.55,6.57-20.22,12,2.46,2.34,5.07,4.74,7.78,7.14,7.58-5.79,15.95-11.27,23.1-13.77Q282.74,223.53,278.05,221.12Z"/><path class="cls-4" d="M305.2,267.74c4.26-7.58,11.49-17.75,23.09-22q-3.71-2.18-7.84-4.29a38.73,38.73,0,0,0-21.88,15c-1.38,2-2.61,3.84-3.69,5.57,1.59.92,3.18,1.78,4.76,2.56A52.59,52.59,0,0,1,305.2,267.74Z"/><path class="cls-4" d="M292,244.25a60.56,60.56,0,0,1,19.38-7.17q-7.85-3.54-14.4-6.66c-7.11,2.08-15,5.92-20.38,13-1,1.32-1.93,2.57-2.78,3.78,2.2,1.78,4.43,3.52,6.69,5.2A108.52,108.52,0,0,1,292,244.25Z"/><path class="cls-4" d="M359.73,284.39a16.14,16.14,0,0,1,1.68-.11,32.72,32.72,0,0,0-3.05-9.81c-5.45,1.79-15.63,5.66-22.31,11.5-3,2.59-6.05,5.12-8.89,7.35,1.49,2.76,2.78,5.38,3.9,7.69C338.88,294.59,351.34,285.41,359.73,284.39Z"/><path class="cls-5" d="M337.66,310.63c5.6,0,23.06-15.59,23.06-15.59a27.59,27.59,0,0,0,.58-2.7A44.18,44.18,0,0,1,340.46,300c-7.47.47-4.67-21-12.15-30.85S282.5,229,273.62,223.84c-2.77-1.6-2.22-3.39-.15-5.09-10.18-5.34-14.65-8.17-14.65-8.17s-27.11-5.91-22.12.33,35.52,39.88,62.94,53.59S332.05,310.63,337.66,310.63Z"/><path class="cls-6" d="M263.59,161.28c6.86-9.59,15-27.66-4.43-43.71-17.21-14.21-41.8-16.26-60-9.43-8.07-5.49-20.72-10.13-40.39-12.35-36.13-4.06-60.74-2.94-74.15,4C79,94.23,66.48,86.9,42.14,93c-33.85,8.47-48.39,46.5-17.88,75.51-1.43,4.83-4,10.2-8.81,13.69C4.92,189.9-8.43,207.46,7,225c10,11.43,26.36,14.23,40.38,9.95.71,11,6.31,24.66,28.45,33.6,16.22,6.55,28.3,4.09,36.92-1.15,8.36,6.9,22.53,13.79,45.95,13.79,25.82,0,40.62-9.57,48.77-19.48,6.62,1.21,15.08,1.46,25.67-.19,29.44-4.58,41.19-32.9,25.65-51,1.9-6.7,1.94-14,3.85-17.87C266.17,185.73,278,171.79,263.59,161.28Z"/><g class="cls-7"><path class="cls-8" d="M158.73,281.21c25.82,0,40.62-9.57,48.77-19.48,6.62,1.21,15.08,1.46,25.67-.19,25.5-4,37.72-25.75,30.43-43.25-6.05,3.55-15.62,12.4-26.4,21.16-15.81,12.85-34.1-.49-34.1-.49s-3.95,17.29-38.54,20.75-41-13.34-41-13.34-4.44,6.92-34.59,0-27.18-26.69-27.18-26.69-10.87,11.37-33.6,1.49C13,214.57,7.53,200.74,5.56,192.24-.66,201.1-3.5,213.06,7,225c10,11.43,26.36,14.23,40.38,9.95.71,11,6.31,24.66,28.45,33.6,16.22,6.55,28.3,4.09,36.92-1.15C121.14,274.32,135.31,281.21,158.73,281.21Z"/></g><g class="cls-9"><path class="cls-8" d="M269.74,168.86c-6.29,10.71-24.89,19.36-32.58,16.65-7.94-2.8-1.4.94-17.29,8.41s-42.07,7.48-54.22,5.15-9.35-.94-23.37,0-8.88-3.27-36-3.74-50.95-13.09-55.16-18.7-3.73.93-23.37-12.15a67.41,67.41,0,0,1-18-17.73c2.51,7.41,7.21,14.83,14.48,21.74-1.43,4.83-4,10.2-8.81,13.69-5,3.69-10.67,9.6-13.55,16.69,9.67,5.88,41.28,25.44,53.31,28.31s32.38,11.62,48.27,9.75,43,6.54,70.58,4.21,39.73,4.2,49.08,8.41c5.67,2.55.69,8.7-4.12,13.15q3.71,0,7.91-.39c8.41-3.21,19-7.14,27-9.79,13.18-11,16-29.07,4.9-41.94,1.9-6.7,1.94-14,3.85-17.87C265.37,187.32,273,177.77,269.74,168.86Z"/></g><path class="cls-10" d="M207.05,232s13.92,4.28,25,13.55,7.85,13.55,7.85,13.55,21.76-7.13,23.18-17.83S214.19,225.23,207.05,232Z"/><g class="cls-11"><path class="cls-12" d="M147,121.47a1.65,1.65,0,0,0,0-.26Z"/><path class="cls-12" d="M239.49,107.14a64.24,64.24,0,0,0-40.37,1c-8.07-5.49-20.72-10.13-40.39-12.35-36.13-4.06-60.74-2.94-74.15,4a29,29,0,0,0-8.9-5.94l7.3,11s17.23-10.46,41.54-2c21.81,7.55,22.36,17,22.43,18.43.06-1.86,10-12.41,38.79-7.68,31.33,5.14,32.26,12.15,34.6,14s2.8-18.23,17.76-20.1A6.63,6.63,0,0,0,239.49,107.14Z"/></g><path class="cls-13" d="M124,94.33c-1.59-.17,13.19,5,22.83,11.06s10,2.13,32.81,5.34,26.69,9.53,27.79,5.84S134.29,95.4,124,94.33Z"/><path class="cls-14" d="M233.17,261.54c21.13-3.28,33.15-18.81,32.5-34-3.1,12.25-16.33,25.63-33.71,28.81s-27.88-1.24-27.88-1.24c-5.67,12.58-22.2,24.68-51.8,21.47s-35.52-17.76-35.52-17.76c-6.67,4.93-25.41,11.83-42.93,2.46s-20.47-28.86-20.47-28.86C58.29,230.22,60,227,60,227s-27.13,11.35-45.39-2C5,218,2.31,207.37,1.9,198.87c-3.16,7.78-3,17,5.13,26.15,10,11.43,26.36,14.23,40.38,9.95.71,11,6.31,24.66,28.45,33.6,16.22,6.55,28.3,4.09,36.92-1.15,8.36,6.9,22.53,13.79,45.95,13.79,25.82,0,40.62-9.57,48.77-19.48C214.12,262.94,222.58,263.19,233.17,261.54Z"/><path class="cls-2" d="M304.53,282.17c.35.52,7.61,8.75,13.06,6.47s-1.27-4.69-5.07-6.72S308,279,308,279,303.13,280.14,304.53,282.17Z"/><path class="cls-2" d="M314.54,274.82s3.56,4.56,8.88,5.32,5.2-2.28,2.79-4.06-8.11-3.8-9.64-5.07S311,271.64,314.54,274.82Z"/><path class="cls-2" d="M320,266.06s8.24,2.67,11.29,1.53,1.9-4.07.38-4.2-7.74-.12-10.15-.63S317.33,265,320,266.06Z"/><path class="cls-2" d="M323,255.84s8.34,1.59,10.37-1.7-.51-2.79-2.54-2.67-10.65.64-10.91.64S321,255.4,323,255.84Z"/><path class="cls-15" d="M220,222.19s8,17.59,30.15,26.63,17.09,33.17,42.73,37.7c0,0,15.58-3,24.12-12.07s5.53-22.61,5.53-22.61-20.1,0-42.22-18.6l-22.12-18.59S224,217.16,220,222.19Z"/><path class="cls-2" d="M253.15,233.77c10.18-3.17,15.2-5.77,18.41-7.85l-4.13-3.47c-3,1.39-9,3.83-20,6.38-8.51,2-14.25,4.25-17.89,6.31a60.82,60.82,0,0,0,7.41,6.35C239.5,239.47,244.17,236.58,253.15,233.77Z"/><path class="cls-2" d="M276.59,243.41a67.65,67.65,0,0,0,12.7-3.47c-2.25-1.47-4.57-3.11-6.91-5a107.51,107.51,0,0,1-12,3.49c-8,1.75-14.9,3.18-21,10l.8.34A30.93,30.93,0,0,1,261,256.27C264.07,251.3,267.29,245.06,276.59,243.41Z"/><path class="cls-2" d="M290.91,264c7.53-4.28,12.35-9.82,16.59-15.15a76.29,76.29,0,0,1-8.41-3.39c-4.34,5.67-7,11.8-19.64,14.11a44.75,44.75,0,0,0-12.73,4.21c2.39,3.76,4.48,7.62,7.07,11.11C278.3,272.16,284.42,267.66,290.91,264Z"/><path class="cls-2" d="M317,274.45c8.55-9,5.53-22.61,5.53-22.61a38.36,38.36,0,0,1-6.36-.75,40.33,40.33,0,0,1-1.78,10.8c-3.38,10.94-18.74,18.23-29.68,21.35-.3.09-.6.21-.91.33a31.76,31.76,0,0,0,9.08,2.95S308.41,283.5,317,274.45Z"/><path class="cls-16" d="M280.12,272.29c-10.13-11.82-9.29-16.05-19-22s-18.15-7.18-19-12.24,8.44-9.29,15.19-11.82c3.39-1.27,9-1.16,13.77-.74-12.93-10.88-12.95-10.88-12.95-10.88S224,217.16,220,222.19c0,0,8,17.59,30.15,26.63s17.09,33.17,42.73,37.7c0,0,.5-.1,1.36-.31C290,283.91,287.5,280.9,280.12,272.29Z"/><path class="cls-15" d="M20.32,164.66s9.9,16.64,62.19,28.92,86.77,11.09,128,4.75,56.66-16.24,57.85-16.64,2,3.57.79,9.11-2.78,7.53.39,12.29,1.2,13.07,0,14.26-27.33,15.85-85.17,18.23-97.46-2-131.93-13.08S6.84,194.38,6.06,192s-.4-4,4-8.32S16,176.94,16,174.17,20.32,164.66,20.32,164.66Z"/><path class="cls-2" d="M164.64,202.88c1.69,10.16,1,24.43,1.62,32.66,0,.19,0,.38,0,.57q6.84-.12,14-.38c-.2-1.91-.4-4.15-.57-6.81-1-14.65-3.66-18.64-1.8-26.74C173.54,202.52,169.11,202.75,164.64,202.88Z"/><path class="cls-2" d="M215.46,232.85c-2-7.21-8.34-19.8-8.12-25.67.09-2.28.44-5.33.85-8.5-4.21.64-8.36,1.21-12.48,1.72a27.75,27.75,0,0,1,.5,3.07c1.75,16,8,16.21,7.56,30.76C207.88,233.83,211.76,233.36,215.46,232.85Z"/><path class="cls-2" d="M269.51,203.09c-3.17-4.76-1.58-6.74-.39-12.29s.39-9.5-.79-9.11c-.48.16-3.22,1.83-8.94,4.18,1.87,3,2.66,6.42,2.83,11.23.26,7.69,0,7.69,1.85,18.3a31.84,31.84,0,0,1,.46,4.65,26.9,26.9,0,0,0,5-2.7C270.71,216.16,272.69,207.84,269.51,203.09Z"/><path class="cls-2" d="M131.19,201.81c0,.2.06.39.08.59,1.18,11.63.24,22.19-1.11,33.21,3.85.19,7.78.33,11.82.43.52-9.55-.85-24.26-.34-33.45C138.21,202.4,134.74,202.14,131.19,201.81Z"/><path class="cls-2" d="M244.35,227.1a30.9,30.9,0,0,0-.42-9c-1.59-9.28-8.75-10.35-6.36-19.89a33.33,33.33,0,0,0,.86-5.48q-5.34,1.4-11.82,2.75c1.61,8.43.66,10.7,3.26,14.4,3.14,4.43,5,13,4,19.8C237.7,228.81,241.18,228,244.35,227.1Z"/><path class="cls-2" d="M106.34,201.08c.39-.88.79-1.66,1.2-2.41q-4.5-.76-9.18-1.68a51.24,51.24,0,0,0-3.94,17.08c-.4,6.28-2.76,12.35-4.92,17.35q5.61.93,11.51,1.68C102.06,223.94,102.87,209.13,106.34,201.08Z"/><path class="cls-2" d="M71.89,198.69a23.12,23.12,0,0,1,2-7.28q-5.09-1.38-9.57-2.77A23.56,23.56,0,0,0,61,198.43c-.8,9.27-1.86,8.22-5,18a47.2,47.2,0,0,0-1.63,6.65q5.37,1.68,10.92,3.15a39.28,39.28,0,0,1,.78-5.56C67.91,212,71.35,206.65,71.89,198.69Z"/><path class="cls-2" d="M34.91,176.38c-1,3.29-2.25,8.79-1.73,13.3.8,6.9.27,9.81-5.56,16.7a19.17,19.17,0,0,0-2.46,3.75,102.87,102.87,0,0,0,9.08,5.07,49.46,49.46,0,0,1,4.25-11.73c4.24-8,.52-13.52,5.56-21.74.12-.19.24-.35.37-.53C40.74,179.54,37.6,177.92,34.91,176.38Z"/><path class="cls-17" d="M135.39,35s-9.25-13-2.94-19.34,17.24,3.36,21,1.26S163.57-1.19,172.4.07s7.14,19.34,11.35,22.29,24.81,2.1,19.76,10.93S186.7,48,186.7,48Z"/><path class="cls-18" d="M186.7,48s11.77-5.89,16.81-14.72c1.57-2.74.66-4.54-1.45-5.82-3,7.11-9.78,12.4-15.08,8-7.71-6.35-18.58-12.24-32.63-10s-13.59,2.72-21.3-4.53a7.69,7.69,0,0,1-2.11-3.15C128,24.58,135.39,35,135.39,35Z"/><path class="cls-15" d="M88.52,70.7c-.51-1.42,38.2-46.31,71.62-43.45s55.38,55.87,54.91,67.32S92.82,82.64,88.52,70.7Z"/><path class="cls-2" d="M136.54,36.54C160.37,33.8,184.71,47.18,199.22,56a94.59,94.59,0,0,0-10-12.76c-8.44-5.11-23.73-12.48-41.74-12.48-3.05,0-6,.07-8.81.2a90.83,90.83,0,0,0-15.09,7.82A107.31,107.31,0,0,1,136.54,36.54Z"/><path class="cls-2" d="M204.43,64.65c-9.2-5.82-29.65-17.41-50.94-20.54A103.37,103.37,0,0,0,113,46.31c-2.12,1.65-4.14,3.32-6,5,12.31-1.93,43.22-5.15,70.82,5.23,14.37,5.41,24.55,12.1,31.64,18.18C208,71.47,206.3,68.08,204.43,64.65Z"/><path class="cls-19" d="M131.65,58.09s19.44-29.82,30.89-29.29,17.58,20.77,17.31,40.75S123.39,73.54,131.65,58.09Z"/><path class="cls-16" d="M202.93,71.8c0,6-5.7-6-38.4-15.3S111.72,58,109,53.2c-1.35-2.4,8.07-9.71,17.81-16.39C105.39,49.35,88.18,69.75,88.52,70.7,92.82,82.64,214.57,106,215.05,94.57c.3-7.34-8.61-31.75-23.85-49.09C198.23,55.92,202.93,67.61,202.93,71.8Z"/><path class="cls-17" d="M83,104.83s19.89-9.21,51.21-5.16,50.11,11.06,70.38,16.22,21.37,1.1,21.37-.38-.74-3.68,1.84-8.1S216,88.25,198.3,75,147.09,52.51,117.61,57.3,79.66,75,78.92,77.57,71.56,95.62,83,104.83Z"/><path class="cls-20" d="M151.37,79.41c2-9.64,3.12-16.68,3.81-21.51-2.59-.45-5.21-.83-7.86-1.12-.09.3-.18.61-.29.94-2.61,7.81-9.11,29.49-10.84,40.77-.08.5-.14,1-.19,1.42,3.17.44,6.21.89,9.14,1.37A140.8,140.8,0,0,0,151.37,79.41Z"/><path class="cls-20" d="M98.88,100.23s-3.47-20.39,2.6-33.4c1.24-2.66,2.39-4.85,3.44-6.65a71.15,71.15,0,0,0-10.43,4c-2.8,4.22-5.34,10.26-6,18.68a38.19,38.19,0,0,0,3,19.13c2.12-.56,4.62-1.14,7.47-1.65Z"/><path class="cls-20" d="M123.28,56.56c-3.81,4.8-9.09,13.63-11,27.18a81.59,81.59,0,0,0-.82,15.12q3.27-.21,6.84-.21c0-6.23,1-21.44,8.73-34.86A48.42,48.42,0,0,1,132.51,56C129.42,56.08,126.33,56.25,123.28,56.56Z"/><path class="cls-20" d="M220.77,95c0-.11,0-.21,0-.32-1.86-2-4-4.13-6.38-6.33-.05,10.78-2,21-7.05,28.2q3,.69,5.35,1.11C216.29,113.14,219.69,105.86,220.77,95Z"/><path class="cls-20" d="M194.58,113.2a37.6,37.6,0,0,0,7.11-15.14,91.12,91.12,0,0,0,2.38-18.6c-1.88-1.5-3.8-3-5.77-4.47l-.11-.09a.86.86,0,0,0,0,.17c1.55,10.06-2.09,25.62-10.28,36.25Z"/><path class="cls-20" d="M175.66,98.92c5.64-13.72,7.54-24.54,8-32.37a111.42,111.42,0,0,0-10.63-4.15c.93,11.2-1.47,28.67-6.95,40l-1.38,2.79c2.46.58,4.83,1.16,7.15,1.76A83.2,83.2,0,0,0,175.66,98.92Z"/><path class="cls-12" d="M61.25,156.56S66.21,135,83.1,129s27.34,7.77,28.82,20.77-.67,20.64-.67,20.64-6.57,8.31-23.46,8.18S61.65,165.67,61.25,156.56Z"/><path class="cls-21" d="M63.93,155.24s5.44-22.16,24.25-23.76,25.79,18.15,22.19,37.36A29.52,29.52,0,0,1,88.49,177C71.68,176.07,63.53,165.64,63.93,155.24Z"/><path class="cls-22" d="M93.75,176.77a29.59,29.59,0,0,0,16.62-7.93c2.46-13.1,0-26.45-7.79-33.1a11.58,11.58,0,0,0-3.84-.68c-8.68,0-15.71,9.59-15.71,21.41C83,165.92,87.52,173.92,93.75,176.77Z"/><path class="cls-23" d="M96.2,172.35c-18.46,2.26-31.57-13.11-24.24-28,5.23-10.67,16.29-12.43,22.18-12.56a21.92,21.92,0,0,0-6-.26c-18.81,1.6-24.25,23.76-24.25,23.76-.4,10.4,7.75,20.83,24.56,21.73a29.52,29.52,0,0,0,21.88-8.13c.13-.73.26-1.47.36-2.2C107.92,169.15,103.42,171.47,96.2,172.35Z"/><path class="cls-21" d="M109.26,153.28c0,4-2.14,7.18-4.79,7.18s-4.78-3.21-4.78-7.18,2.14-7.18,4.78-7.18S109.26,149.31,109.26,153.28Z"/><path class="cls-12" d="M92.75,109.15a25.59,25.59,0,0,0-11,3.46c-5.76,3.31-4.75,4.75-.43,4.46a62.4,62.4,0,0,0,11.09-1.44C97.21,114.63,98.08,109.29,92.75,109.15Z"/><path class="cls-22" d="M96.06,131.48s-7.34-2-17.29,3.31a29.11,29.11,0,0,0-14.25,18.58c-1,4-5.19,4.18-7.93,2.6s-1-4.9,4.46-4.61c0,0,1.59-9.51,11.1-17.15S96.06,128.89,96.06,131.48Z"/><path class="cls-24" d="M93.39,151.84c0,5.41-3.88,9.8-8.67,9.8s-8.67-4.39-8.67-9.8,3.88-9.79,8.67-9.79S93.39,146.43,93.39,151.84Z"/><path class="cls-12" d="M217.59,163.47s-5-21.58-21.85-27.61-27.34,7.78-28.82,20.78.67,20.64.67,20.64,6.57,8.31,23.46,8.18S217.19,172.59,217.59,163.47Z"/><path class="cls-21" d="M214.91,162.15s-5.44-22.16-24.25-23.76-25.79,18.15-22.19,37.37a29.55,29.55,0,0,0,21.89,8.13C207.16,183,215.31,172.56,214.91,162.15Z"/><path class="cls-22" d="M185.09,183.68a29.54,29.54,0,0,1-16.62-7.92c-2.46-13.1,0-26.45,7.79-33.11a11.89,11.89,0,0,1,3.85-.67c8.67,0,15.7,9.58,15.7,21.41C195.81,172.84,191.32,180.84,185.09,183.68Z"/><path class="cls-23" d="M182.63,179.27c18.47,2.26,31.58-13.11,24.25-28.05-5.24-10.68-16.28-12.43-22.18-12.56a22.33,22.33,0,0,1,6-.27c18.81,1.6,24.25,23.76,24.25,23.76.4,10.41-7.75,20.84-24.55,21.74a29.55,29.55,0,0,1-21.89-8.13c-.14-.73-.25-1.47-.36-2.2C170.92,176.06,175.41,178.39,182.63,179.27Z"/><path class="cls-21" d="M169.58,160.2c0,4,2.14,7.18,4.79,7.18s4.79-3.22,4.79-7.18S177,153,174.37,153,169.58,156.23,169.58,160.2Z"/><path class="cls-12" d="M186.09,116.07A25.63,25.63,0,0,1,197,119.53c5.76,3.31,4.76,4.75.43,4.46a63.46,63.46,0,0,1-11.09-1.44C181.63,121.54,180.76,116.21,186.09,116.07Z"/><path class="cls-22" d="M182.78,138.39s7.35-2,17.28,3.32a29.12,29.12,0,0,1,14.27,18.58c1,4,5.18,4.18,7.92,2.59s1-4.89-4.47-4.61c0,0-1.58-9.5-11.09-17.14S182.78,135.81,182.78,138.39Z"/><path class="cls-24" d="M185.45,158.76c0,5.41,3.88,9.8,8.67,9.8s8.67-4.39,8.67-9.8-3.88-9.8-8.67-9.8S185.45,153.35,185.45,158.76Z"/><path class="cls-12" d="M125.21,176.56s-.53,11.06,11.07,10,9.22-8.43,10.28-8.18,2.37,7.13-4,10.82-14.49,1-17.39-3.43S123.62,175.76,125.21,176.56Z"/><path class="cls-25" d="M83.57,181.56S72.75,173.92,67,178.39s5.27,10,14.76,9.5S85.15,182.09,83.57,181.56Z"/><path class="cls-25" d="M189.27,188.26s12.1-5.37,16.91.17-7.14,8.78-16.34,6.4S187.62,188.47,189.27,188.26Z"/><path class="cls-18" d="M225.94,115.51c0-.54-.1-1.19-.1-2-.18.15-.35.3-.54.43-6.79,5.16-44.79-12.75-89.56-21.44s-49.67,1.91-51,3-3.25,5.43-7.87-3.26c-.17-.32-.32-.66-.48-1A17.65,17.65,0,0,0,83,104.83s19.89-9.21,51.21-5.16,50.11,11.06,70.38,16.22S225.94,117,225.94,115.51Z"/><path class="cls-26" d="M73.59,102.27c6.46,3.33,5.28-5.23-2.84-10.15-6.9-1.85-16.21-2.23-28.61.86-27,6.76-41.73,32.35-31.06,57.16-1.54-7.49-1.43-18.4,5-32.41C29.08,89.24,64.63,97.65,73.59,102.27Z"/><path class="cls-5" d="M31.23,174.15c-8.54-5.51-10.91-9.49-10.91-9.49S16,171.39,16,174.17s-1.57,5.15-5.94,9.51S5.26,189.62,6.06,192c.39,1.19,3.39,6.08,10.64,12.06a54.13,54.13,0,0,1,4.52-13.88c3.27-6.07,11.69,7.95,11.69,3.74s-7.49-10.74-3.75-17.76A4.39,4.39,0,0,1,31.23,174.15Z"/><path class="cls-27" d="M61.57,102.83s-28.63-2.6-30.8,12.58S71.55,105,61.57,102.83Z"/><path class="cls-27" d="M27.19,121.35a3.8,3.8,0,0,0-3.7-.17c-1.87.88-4.45,3-2.7,7.68C23.14,135.11,31.8,124.49,27.19,121.35Z"/><path class="cls-27" d="M133.33,109.21s-11.45-8.7-21.53-6.87S139.29,117.92,133.33,109.21Z"/><path class="cls-27" d="M248.3,116.54s-14.2-5-16,6.41,8.71-2.29,21.07,6.42S261.13,119.75,248.3,116.54Z"/><path class="cls-27" d="M265.71,138.07c-1.59-2.24-9.62-2.75-9.62,3.21S271.21,145.86,265.71,138.07Z"/><path class="cls-27" d="M257,163.26s-10.54.92-4.59,6.87S267.09,165.1,257,163.26Z"/><path class="cls-16" d="M68.45,206.56s28.3,6.2,71.65,9.74,72.53-4.87,80.49-7.08-24.76,16.36-62.36,15S75.53,212.31,68.45,206.56Z"/><path class="cls-5" d="M269.12,190.8c1.19-5.54.39-9.5-.79-9.11-.36.12-2,1.09-5.16,2.54.28,5.34.23,11.16-.95,12.87C260,200.37,238.28,207,241.38,207s23.89-4,25.21-3.1c.88.59,2.92,4.08,4.58,7.27.19-2.73-.14-5.82-1.66-8.09C266.34,198.33,267.93,196.35,269.12,190.8Z"/><path class="cls-28" d="M147.72,58a119,119,0,0,0-31.91.2C98.51,60.7,85.73,68.4,85.22,74s2.79,6.81,9.7,6.5,39-5.7,74.41,6.6,44.1,17.71,48.31,14.71S198.73,64.6,147.72,58Z"/><path class="cls-29" d="M237.57,198.16s-54.67,10-95.45,7.26-68-12.24-58.45-4.53,45.31,12.23,69.77,13.59,34.89-1.36,53-4.07S250.1,195.89,237.57,198.16Z"/><path class="cls-29" d="M244.52,212.21S224.58,214,212.8,219s-41.68,8.61-61.62,6.35-53.47,1.81-18.13,5.43,50.75.45,58-.9,7.71-1.82,20.39-1.36,14.95-1.36,29.46-5S260.83,210,244.52,212.21Z"/><path class="cls-30" d="M260.93,234.52c12.79,8.89,30.59,28.92,39.49,42.27a61.12,61.12,0,0,0,4.37,5.81A38.12,38.12,0,0,0,317,274.45c5.64-6,6.24-13.9,6-18.61a89.18,89.18,0,0,1-26.43-9.09C277.61,236.74,248.14,225.62,260.93,234.52Z"/><path class="cls-28" d="M142.85,15.59s-7.53-2.56-7.07.15,6.47,4.22,10.38,4.07S147.22,16.19,142.85,15.59Z"/><path class="cls-28" d="M171.76,2.05s-5-1.36-8.89,5.72,3.31-.16,7.68,1.8,3,6.78,6.47,8S178.67,2.5,171.76,2.05Z"/><path class="cls-28" d="M197.34,26.73s-11.59-3.16-10.09-.15,6.48,4.07,9.49,3.61S199.75,27.93,197.34,26.73Z"/><path class="cls-3" d="M338.83,307.8s-1.63,1.9-.54,7.05,1.36,7.61,3.26,7.61a3.46,3.46,0,0,0,3.53-4.35C344.53,315.13,341.82,306.71,338.83,307.8Z"/><path class="cls-3" d="M348.45,303.24s-2,.48-1.65,4,1.89,9.1,4,9.46,4.5-1.77,4.61-3.31S351.17,302.42,348.45,303.24Z"/><path class="cls-3" d="M355.78,297.93s-2.6,1.18-.47,4.84,2.48,7.93,3.66,8.39,3.9-1.18,3.78-3.78S356.49,297.69,355.78,297.93Z"/><path class="cls-3" d="M360.51,293.91s-2.25-.12-1.07,1.89,4,8.15,5.32,8.39a2.18,2.18,0,0,0,2-2.13C366.56,299.4,363.73,295.06,360.51,293.91Z"/></g></g></g></svg>