<svg xmlns="http://www.w3.org/2000/svg" xmlns:xlink="http://www.w3.org/1999/xlink" viewBox="0 0 732.87 685.07"><defs><style>.cls-1{isolation:isolate;}.cls-2,.cls-3,.cls-8{fill:#bf0076;}.cls-10,.cls-12,.cls-14,.cls-15,.cls-17,.cls-23,.cls-28,.cls-3,.cls-30,.cls-34,.cls-36,.cls-5{mix-blend-mode:multiply;}.cls-3,.cls-30{opacity:0.56;}.cls-17,.cls-31,.cls-35,.cls-4,.cls-5{fill:#f516b5;}.cls-28,.cls-5{opacity:0.55;}.cls-6{fill:#f100ff;opacity:0.62;}.cls-11,.cls-13,.cls-22,.cls-25,.cls-31,.cls-35,.cls-6,.cls-8{mix-blend-mode:screen;}.cls-7{fill:#f556f5;}.cls-8{opacity:0.44;}.cls-9{fill:#f5c628;}.cls-10{fill:#e37c00;opacity:0.24;}.cls-11{fill:#f5d66b;}.cls-11,.cls-13{opacity:0.31;}.cls-12{fill:#f5a100;opacity:0.29;}.cls-13{fill:#f5e4a9;}.cls-14{fill:url(#linear-gradient);}.cls-15{fill:#e316b5;}.cls-15,.cls-36{opacity:0.68;}.cls-16{fill:#f5c23c;}.cls-18{fill:#f5f5f5;}.cls-19{fill:#dbdbdb;}.cls-20{fill:url(#linear-gradient-2);}.cls-21,.cls-23{fill:#4f2100;}.cls-22,.cls-25{opacity:0.39;}.cls-22{fill:url(#linear-gradient-3);}.cls-23{opacity:0.48;}.cls-24{fill:url(#linear-gradient-4);}.cls-25{fill:url(#linear-gradient-5);}.cls-26{fill:#290000;}.cls-27{fill:#f51a21;}.cls-28{fill:#d30088;}.cls-29,.cls-30{fill:#790076;}.cls-31{opacity:0.74;}.cls-32{fill:#572a00;}.cls-33{fill:#6b0053;}.cls-34,.cls-36{fill:#d50095;}</style><linearGradient id="linear-gradient" x1="392.6" y1="150.98" x2="677.38" y2="150.98" gradientUnits="userSpaceOnUse"><stop offset="0" stop-color="#f2d05b"/><stop offset="0.34" stop-color="#f2ce58"/><stop offset="0.64" stop-color="#f3c74d"/><stop offset="0.91" stop-color="#f4bb3b"/><stop offset="1" stop-color="#f4b634"/></linearGradient><linearGradient id="linear-gradient-2" x1="502.84" y1="98.09" x2="502.25" y2="124.18" gradientTransform="translate(110.14 -173.02) rotate(28.25)" gradientUnits="userSpaceOnUse"><stop offset="0" stop-color="#f2d05b"/><stop offset="1" stop-color="#df7215"/></linearGradient><linearGradient id="linear-gradient-3" x1="503.34" y1="98.21" x2="503.14" y2="107.27" xlink:href="#linear-gradient-2"/><linearGradient id="linear-gradient-4" x1="561" y1="85.02" x2="560.42" y2="111.11" xlink:href="#linear-gradient-2"/><linearGradient id="linear-gradient-5" x1="561.51" y1="85.15" x2="561.3" y2="94.21" xlink:href="#linear-gradient-2"/></defs><g class="cls-1"><g id="Слой_2" data-name="Слой 2"><g id="Layer_1" data-name="Layer 1"><path class="cls-2" d="M530.35,381.65c-4-18.15,7.77-36.47,18.59-49.9,11.73-14.58,36.61-48.25,16.26-60.76-3.4-5-10.23-3.38-15.54-2-15,3.92-27.57,9.55-43.59,11.19-22.91,2.33-39.85-3.42-55.54-19.46-3.74-3.82-7.52-7.76-11.46-11.53-.29,3.85-1.35,7.23-3.86,7.93a4.47,4.47,0,0,1-2.42-.07c-5.53-1.54-10.63-15.48-16.37-19-8.5-5.21-19.35-5.06-28.8-2.82-19.73,4.65-36.1,18.57-52.19,30.11-42.6,30.53-77,71.39-120.07,101.54C196.73,380,172,396.26,149,398.86h-.11c11.85,11.73,18.54,24.64,16.24,42.53-2.22,17.2-21,41.86-5.67,57.15,24.08,24,66,5.53,94.76,19.22,4.81,2.29,9,7.66,13.83,9.37,6.8,2.4,14.81-.64,21.28-2.88,12.55-4.34,24-9.31,37.61-6.65,24,4.7,26.52,34.62,52.06,40.27,18.95,4.2,33.66-6.81,48.12-17.44,14.87-10.95,29.65-20.66,47.23-26.6,17.1-5.76,36.55-6.88,51-18.43,17.59-14,23.87-31.6,25.3-53.44a71,71,0,0,0-6-33.15C540.75,399.69,532.52,391.46,530.35,381.65Z"/><path class="cls-3" d="M530.35,381.65c-4-18.15,7.77-36.47,18.59-49.9,11.73-14.58,36.61-48.25,16.26-60.76-3.4-5-10.23-3.38-15.54-2-15,3.92-27.57,9.55-43.59,11.19-22.91,2.33-39.85-3.42-55.54-19.46-3.74-3.82-7.52-7.76-11.46-11.53-.29,3.85-1.35,7.23-3.86,7.93a4.47,4.47,0,0,1-2.42-.07c-5.53-1.54-10.63-15.48-16.37-19-8.5-5.21-19.35-5.06-28.8-2.82-19.73,4.65-36.1,18.57-52.19,30.11-42.6,30.53-77,71.39-120.07,101.54C196.73,380,172,396.26,149,398.86h-.11c11.85,11.73,18.54,24.64,16.24,42.53-.73,5.61-3.22,12-5.71,18.65,43-42.61,77.75-93.45,125.51-131.19a250.22,250.22,0,0,1,38.75-25.59c9.08-4.75,18.5-9.57,28.5-12.09,7.15-1.79,19.42-2.93,22.86,5.71,3.69,9.24-7.27,20.21-13.76,25.44C348.66,332.48,335.91,342,324,353c-20.06,18.51-39.74,39.48-51.41,64.45-10,21.43-8.35,45.71-17.29,66.88C251.18,494,244,501.51,236.48,508c9.59,1,17.56,5.92,25.67,11,1.5-11.76,13.29-19.68,23-24.51s19.44-7.46,30.06-3.36c11.94,4.61,12,9.85,11.24,21.26,20.59-9.16,35.49,41.76,58.61,40.37-11.19-10.32-13.59-24.17-1.8-34.93,11.24-10.25,23.17-8.85,36.9-9.78,7.41-.51,14.13.92,21.1,3.25,1.56.52,17.19,9.26,17.42,9.15a123,123,0,0,1,15.65-6.6c17.1-5.76,36.55-6.88,51-18.43,17.59-14,23.87-31.6,25.3-53.44a71,71,0,0,0-6-33.15C540.75,399.69,532.52,391.46,530.35,381.65Z"/><path class="cls-3" d="M530.35,381.65c-4-18.15,7.77-36.47,18.59-49.9,11.73-14.58,36.61-48.25,16.26-60.76-3.4-5-10.23-3.38-15.54-2-15,3.92-27.57,9.55-43.59,11.19-22.91,2.33-39.85-3.42-55.54-19.46-3.74-3.82-7.52-7.76-11.46-11.53-.29,3.85-1.35,7.23-3.86,7.93a4.47,4.47,0,0,1-2.42-.07c-5.53-1.54-10.63-15.48-16.37-19-8.5-5.21-19.35-5.06-28.8-2.82-19.73,4.65-36.1,18.57-52.19,30.11-42.6,30.53-77,71.39-120.07,101.54C196.73,380,172,396.26,149,398.86h-.11a74.66,74.66,0,0,1,7,7.94c8.4-2.35,16.79-4.72,24.7-8.39,13.75-6.38,26.15-16.06,37.51-26,20.89-18.22,39.9-38.54,60.4-57.21,18.32-16.67,37.73-32.71,59.38-44.89,18-10.14,42.34-21.33,63.46-15.88,17.18,4.44,24.22,21.09,24,37.54-.29,17.85-7.07,34.31-15.45,49.76-9.92,18.32-21.44,35.74-30.53,54.5-7.73,16-15.15,35.16-10.47,53.07,5.92,22.65,29.47,33.17,49.26,41.13,12.77,5.13,25.8,9.8,38.09,16.07a99.27,99.27,0,0,1,14.14,8.85c1.35-.52,2.67-1.08,4.05-1.55,17.1-5.76,36.55-6.88,51-18.43,17.59-14,23.87-31.6,25.3-53.44a71,71,0,0,0-6-33.15C540.75,399.69,532.52,391.46,530.35,381.65Z"/><path class="cls-4" d="M583.44,244.81c-8.78-3.7-20.21,2.86-26.51,8.64-3.65,3.35-14.95,13.42-11,19,1.16,1.64,7.09.59,9.07,1.18,8.62,2.6,8.19,13.2,8.31,20.58.18,10.79-7.72,23.44-15,30.83a95.75,95.75,0,0,1,5.45,11.49c.13.33,9.54-10.94,10.13-11.85,3-4.56,6.24-9.05,9.13-13.72,6.38-10.3,11.41-22,9.72-34.41-.87-6.43-5.24-13.21-12.38-12.91,4.78-7.07,21.81-8.4,28.17-3.42C596.18,254.74,590.15,247.64,583.44,244.81Z"/><path class="cls-5" d="M557.17,329.4c-2.8-8.08,4.36-16.55,6.58-24,2.4-8.05,2.29-14.73-1-22.38-.17-.4-.35-.8-.53-1.21,1.08,4,1,8.62,1.07,12.43.18,10.79-7.72,23.44-15,30.83a95.75,95.75,0,0,1,5.45,11.49,51.74,51.74,0,0,0,4.62-5.15A5.09,5.09,0,0,1,557.17,329.4Z"/><path class="cls-6" d="M566,264.21c2.6-3.06,16.83-14.69,21.56-11.08-5.24-4-12.81-1.91-18.06,1-2.34,1.27-12.14,13.13-11.78,13.12,22.86-.54,8.79,41.32,5.92,51.3,7.74-8,14.27-22.48,14.73-33.57C578.66,277.82,574.82,264.63,566,264.21Z"/><path class="cls-5" d="M555,273.63a9.62,9.62,0,0,1,5.27,3.78c-3.14-6.85-6.43-14.18-6.28-21.24-4.64,4.48-11.23,11.81-8.06,16.28C547.1,274.09,553,273,555,273.63Z"/><path class="cls-3" d="M159.42,460c26.37-26.15,49.66-55.38,74.75-82.8-6.25,5.66-12.65,11.14-19.35,16.28-11,8.43-22.6,15.92-35.61,20.89-5.33,2-10.79,3.66-16.28,5.22a45.41,45.41,0,0,1,2.2,21.76C164.4,447,161.91,453.42,159.42,460Z"/><path class="cls-7" d="M334.25,504.26c-1.56,2.56-3.23,5.22-5,7.92,9.77-2,20.53-1.32,30.72.81,3.74-2.95,7.32-5.72,10.6-8.24C358.55,501.43,345.33,500,334.25,504.26Z"/><path class="cls-8" d="M161.73,491.25c-1.94-1.95-3-5.2-3.09-9.82-.31-13,9.55-22.52,17.62-31.47,35.84-39.71,67-88.53,113.75-116.55-30.73,24-54.31,60.48-70.81,95.41-11.2,23.68-14.91,54.1-44.49,63.47C168.72,494.18,164.38,493.91,161.73,491.25Z"/><path class="cls-9" d="M619.57,211.72a224.13,224.13,0,0,0,22.09-17.43c20.16-18.51,39.16-39.49,51.55-64.11,6.45-12.8,11.4-26.94,12.41-41.33,1.17-16.77-4.3-18-19.1-22.49-13.85-4.23-12.4-14.76-23-21.9-13.09-8.86-30.37,1.5-44.49-6.88-14.35-8.53-17.42-21.42-36.75-21.35-23.68.11-35.12,10-55-6.67C508.75-6,493.15.08,471.52,9.09c-10.18,4.23-18.45,7.39-29,3.06C437,9.9,432.78,1.85,427.17.76c-15.29-2.94-25.42,18.72-42.71,14-5.29-1.45-11.84-11.29-16.41-10.8-24.76,2.59-11.27,79.38-7.73,92.2,9.74,35.24,29.6,71,50.05,101.3,14,20.71,34.2,42.72,22.9,70-9.45,22.83-43,40.51-62.08,54.5-33.93,24.81-64.79,51-82.54,90.29-6.51,14.38-25.3,66.94,3.5,65.11,9.76-.62,14.79-7.07,24.49-3.24,7.47,3,11.87,10.93,19.59,13.48,15.59,5.15,29.32-9.06,44.63-3.85,15.79,5.39,18.86,19.57,37.22,16.38,15.55-2.71,23.64-6.13,37.28,4.17,16.16,12.23,17.83,10.84,37.31,6.43,18.61-4.21,21.67,8.21,35.9,15.15,13.41,6.56,24.38-5,38.53-3.62,14.4,1.44,19.86,10,29.25-8,12.93-24.72,6-59-1.25-84.38-8.75-30.36-26.18-57.12-38.27-86.11-8.36-20-22.68-41.81-12-63.92C559.56,249.63,591.71,231.47,619.57,211.72Z"/><path class="cls-10" d="M469.17,231.12c5.9-18.64,12.87-42.74-.24-60.08s-31-8.59-21.27,11.88c12.5,26.2,16,43.69,13,72.19-2.77,25.65-9.14,50.28-23.44,72.23-13.94,21.41-35.49,33.13-50,52.41,10.79,10.12,38.58-3,46.36-13.07,16.59-21.57,23.06-56.8,25.64-83.11C460.93,265.55,463.64,248.56,469.17,231.12Z"/><path class="cls-10" d="M518.29,269.61c-6.41,31.81-26.16,58.93-25.69,92.4.18,12.31,23.84,61.41,39.88,40.93,7.49-9.57-11.74-43.82-14.56-53.11-5.35-17.59-5.23-35-1.91-52.9,4.92-26.45,19.31-49.15,35.38-70,5.64-7.34,15.24-18.23,14.9-28.17-.65-19.11-14.21-12.19-22.76-2.26C525.72,217.13,523.47,243.91,518.29,269.61Z"/><path class="cls-10" d="M584.32,149.53c9.26-1.1,28.06,3.55,31.07,14.16,3.55,12.55-18.95,19.95-27.32,26.32-34.46,26.25-68.44,69.43-72.24,114.33-2.31,27.42,11.74,49.56,19.36,74.87,4.61,15.31,12.7,30.44-3.12,37.49-13.05,5.82-27.85.45-36.76-10.26-17-20.44-5.64-53.87.16-76.43,5.44-21.11,15.16-40.72,22-61.35,5.59-16.82,7.52-34.33,12.51-51.3C537.85,190.66,552.28,153.36,584.32,149.53Z"/><path class="cls-10" d="M444.16,349.41c13.87-41.78,22.19-88.09,28.54-131.74,5.16-35.46,5.21-79.34-27.45-102.21-12.63-8.85-24.51-5.68-25.71,10.91-1.54,21.24,18.51,46.16,25.42,66,14,40.18,14.36,90.06-12.51,125.31-15.55,20.39-36.87,31.6-57.54,45.43-21.32,14.26-7.53,25.81,13.62,29C418.1,396.53,435.65,375.08,444.16,349.41Z"/><path class="cls-11" d="M322.92,437.21c.83-.07,1.69-.18,2.59-.33,14.18-2.46,21.39-4.7,34.49,2.92,11.94,6.94,23.8,18.34,38.5,18s27.08-10.43,42.12-9.35c12,.85,22.21,7.19,33.77,9.7s19.31.29,30.11-2.56c10.21-2.69,19.75,2.59,29.89,2.76,7.3.14,16.1-4.77,12.38-13.4-3.58-8.3-16.11-5.42-23.11-5.75-12-.56-24.35-.89-35-7-16.42-9.44-24.74-25.05-23.93-43.82.87-20.51,8.81-38.46,14.71-57.7,3.17-10.27,6.88-20,10.61-30.12,11.72-31.69,20.82-69.59,10.13-102.68-2.4-7.45-6.9-22.72-15.27-25.2-4.44,4.41-2.5,11.38-2.71,17-1.07,29-9.29,56.74-12.77,85.46-3.17,26.25-6.22,53.24-14.5,78.38-6.54,19.85-18.82,52.07-41.13,58-19.5,5.22-48.1,4.38-61.95-12.63-24.09-29.58,35.45-59.81,51.81-72.1,13.71-10.32,27.39-25.64,35.26-41.09,5.42-10.64,4.82-21.16,7.43-32-10.12,26.74-28.36,42.14-52.13,59.95-15.87,11.9-31.11,24.35-46.8,36.34-19,14.52-40.51,34-43,59.4C302.94,424.37,307,438.53,322.92,437.21Z"/><path class="cls-11" d="M686.52,66.36c-13.85-4.24-12.4-14.76-23-21.9-13.09-8.86-30.37,1.5-44.49-6.88-14.35-8.53-17.42-21.42-36.75-21.35-23.68.11-35.12,10-55-6.67C508.74-6,493.15.08,471.52,9.09c-10.18,4.23-18.45,7.39-29,3.06C437,9.9,432.78,1.85,427.17.76c-15.29-2.94-25.42,18.72-42.71,14-5.29-1.45-11.83-11.27-16.41-10.8-27.27,2.81-12.68,67.29,6.33,105.88,9.83,20,20.85,33,27.87,27,10.51-9,5.38-30.33,23.05-36.08,13.65-4.45,28,8.27,36.08,18,23.79,28.56,20.76,76.49,15.66,110.92-1.57,10.61-12.42,46.25-5.84,55.71,13.18,18.92,31.31-49.54,31.85-57.34,1.64-23.8-4.65-45.87-9.91-69.08-6.22-27.35,17.95-43.78,40.1-52.71,29-11.71,58.8-6.88,87.29,5.33,11.16,4.78,23.33,7.89,35.51,7.91,11,0,21.83-2.63,30.87-9,9.36-6.65,15.21-16.74,18.8-27.45C705.14,71.71,699.33,70.27,686.52,66.36Z"/><path class="cls-11" d="M380.26,12.31C376,9,371.46,3.56,368.05,3.92c-6.05.62-9.8,5.71-12,13.17,1.17-4,10.6-.76,12.67.55,2.34,1.49,3.84,4.4,5.24,6.68,3.78,6.09,5.49,13.48,8.08,20.11,5.07,13,12.36,24.88,27.52,16,13-7.66,20.66-21.18,34.75-27.46,11-4.91,16.31-2.25,27.58-.19,13.92,2.53,20.94-5.74,33.57-9.27,13.19-3.69,18.53,3.63,28,11,11.56,9,21,11.58,35.19,8.38,12.29-2.78,22.48-5,33.7,2.54,8.6,5.8,13.17,14.42,24.52,14.76,5.2.16,10.49-2.46,15.78-2.44,6.66,0,15.63,3.81,21.27,7.39,6.48,4.11,10.18,12,18.5,13,6.67.77,13.45-2.42,19.78-4l.64-.14c-2.94-3.61-8.24-5.1-16.36-7.58-13.85-4.24-12.4-14.76-23-21.9-13.09-8.86-30.37,1.5-44.49-6.88-14.35-8.53-17.42-21.42-36.75-21.35-23.68.11-35.12,10-55-6.67C508.75-6,493.15.08,471.52,9.09c-10.18,4.23-18.45,7.39-29,3.06C437,9.9,432.78,1.85,427.17.76c-15.29-2.94-25.42,18.72-42.71,14A12.7,12.7,0,0,1,380.26,12.31Z"/><path class="cls-12" d="M561.08,499.52c-9.23.81-18.39-1.55-25.93-8.32-8.08-7.27-12-13.39-24.36-11.29-12.53,2.12-24.08,16.29-37.31,12.58-9.2-2.59-10.72-11.84-18.24-16.73-8.05-5.24-16.84-4-26.15-2.69-14.38,2.08-14.41,1.86-25.91-5.3-23.07-14.36-43.24,8.82-64.47.06-13.23-5.46-12.4-11.33-28.33-10.65-26.43,1.15-20.71-19.71-22.47-37.89-.16-1.64-.19-3.27-.19-4.92-7.14,16.79-23.11,64.74,4.43,63,9.77-.62,14.79-7.07,24.49-3.24,7.47,3,11.87,10.93,19.59,13.48,15.59,5.15,29.32-9.06,44.63-3.85,15.79,5.39,18.86,19.57,37.22,16.38,15.55-2.71,23.64-6.13,37.28,4.17,16.16,12.23,17.83,10.84,37.31,6.43,18.61-4.21,21.67,8.21,35.9,15.15,13.41,6.56,24.38-5,38.53-3.62,14.4,1.44,19.86,10,29.25-8,6.76-12.91,8.08-28.45,6.78-43.95C595.72,485.52,578.29,498,561.08,499.52Z"/><path class="cls-12" d="M559.28,511.18a36.8,36.8,0,0,1-19.88-7c-5.62-4-10.75-8.78-17.57-10.67s-12.49,1.05-18.94,2.44c-8.28,1.78-16.81,1.58-24.59-2-.59-.27-1.13-.64-1.69-.94a16.39,16.39,0,0,1-3.13-.53c-5.25-1.48-8-5.14-10.8-8.91-.21-.13-.4-.28-.61-.41-6.6-3.87-12-4.33-19.22-2.41-7.47,2-15.11,3.28-22.73,1.2-7.27-2-13.26-6.59-19.81-10-15.5-8.18-29.44,3.91-44.68,6.58-7.64,1.34-15.84.78-22.36-3.78-5-3.54-8.51-9.47-14.42-11.73-6.64-2.52-14.52-.35-21.43-2.17-7.48-2-13.45-7.78-16.67-14.68a37.1,37.1,0,0,1-1.82-4.86c-4.2,18.27-4.27,37.21,13.22,36.09,9.77-.62,14.79-7.07,24.49-3.24,7.47,3,11.87,10.93,19.59,13.48,15.59,5.15,29.32-9.06,44.63-3.85,15.79,5.39,18.86,19.57,37.22,16.38,15.55-2.71,23.64-6.13,37.28,4.17,16.16,12.23,17.83,10.84,37.31,6.43,18.61-4.21,21.67,8.21,35.9,15.15,13.41,6.56,24.38-5,38.53-3.62,14.4,1.44,19.86,10,29.25-8,4.33-8.28,6.42-17.65,7-27.39C593.24,501.41,579.61,512.19,559.28,511.18Z"/><path class="cls-11" d="M536.74,307.5c-.06-.36-.11-.7-.15-1-1.67-12.26,3-25,9.24-35.46,12.94-21.88,34.76-37,54.73-51.89-12.27,9.15-29.12,12.32-41.74,22.42-15.36,12.31-30.58,30-31.08,50.64-.47,19.62,10.34,38.35,24.1,51.62C544,336.23,538.42,318.41,536.74,307.5Z"/><path class="cls-13" d="M424.42,8.15C418.9,6.33,413,8.5,408.09,11a55.93,55.93,0,0,0-6.62,4,18.4,18.4,0,0,0-5.43,5,9.47,9.47,0,0,0-1.45,5.56A7.89,7.89,0,0,0,395.4,33c2.53,3.91,8.06,4.63,12.3,3.64a59.76,59.76,0,0,0,14-5.15c4.4-2.29,9.22-5.26,10.41-10.45C433.44,15.36,429.81,9.92,424.42,8.15Z"/><path class="cls-13" d="M491.6,12.62A3.36,3.36,0,0,0,489,11a10.53,10.53,0,0,0-4.49.82,3.78,3.78,0,0,0-.43.26l-.65.27.41-.14-.12.08a8,8,0,0,0-2.57,1.45c-.29.21-.54.46-.83.68s-.31.21-.45.32a4.21,4.21,0,0,0-.87,1,3.22,3.22,0,0,0-.41,2.9,2.37,2.37,0,0,0,.6,1.15,3.28,3.28,0,0,0,1.38,1,8.17,8.17,0,0,0,6.79-.06,8.21,8.21,0,0,0,4.58-5A3.52,3.52,0,0,0,491.6,12.62Z"/><path class="cls-13" d="M452.8,42.53a17.32,17.32,0,0,0-8.72,2.4,22.62,22.62,0,0,0-4.88,2.53A17.52,17.52,0,0,0,434,52.91a7.28,7.28,0,0,0-1.05,5.22,7,7,0,0,0,4.06,4.8c3.14,1.41,6.47.25,9.3-1.3a63.11,63.11,0,0,0,7.13-4.58c2.57-1.9,5.42-3.89,6-7.26C460.09,45.84,456.49,42.72,452.8,42.53Z"/><path class="cls-13" d="M457.7,64.57l.21-.31a6.49,6.49,0,0,1,.8-.69.81.81,0,0,0-.45-1.43,12.3,12.3,0,0,0-1.35.12A2.8,2.8,0,0,0,455,63a2.74,2.74,0,0,0-.62.69,3.44,3.44,0,0,0-.2.56,3.12,3.12,0,0,0-.25.35,2.11,2.11,0,0,0-.09,1.06,6.39,6.39,0,0,0,.24.74,7.06,7.06,0,0,0,.4.65,3.19,3.19,0,0,0,.71.71l.46.23a1.43,1.43,0,0,0,.76.11,1.07,1.07,0,0,0,.53-.1c.08,0,.15-.08.23-.11a2.43,2.43,0,0,0,.38-.13,2.13,2.13,0,0,0,.78-.71,1.4,1.4,0,0,0,.11-1.36,1.33,1.33,0,0,0-.39-.46,1.84,1.84,0,0,0-.19-.4l-.08-.09s-.05-.1-.07-.14l0,0s0,0,0-.05S457.69,64.57,457.7,64.57Z"/><path class="cls-11" d="M535.85,127.51a11.08,11.08,0,0,0-8.33-5.57c-3.25-.42-6.48.69-9.43,1.93a41.15,41.15,0,0,0-5.43,2.73c-4,2.38-7.89,5.36-10.21,9.48a17.3,17.3,0,0,0-2.58,8.4,9.14,9.14,0,0,0,1.13,4.45c.45,3.19,2.1,6.08,5.44,7.33,3.57,1.33,6.93-.47,9.66-2.66q3.35-2.68,6.67-5.39c2.09-1.68,4.16-3.39,6.24-5.11s4.5-3.43,6.06-5.72A9.46,9.46,0,0,0,535.85,127.51Z"/><path class="cls-11" d="M506.59,171.92h0s0,.06,0,.08h0A.45.45,0,0,0,506.59,171.92Z"/><path class="cls-11" d="M512.81,172.36c.11-.9.23-1.81.34-2.71a3,3,0,0,0-1.89-3,3.42,3.42,0,0,0-1.52-.13,3.15,3.15,0,0,0-1.89,1.2,5.06,5.06,0,0,0-1,1.63,4.17,4.17,0,0,0-.17.54,5.87,5.87,0,0,0-.22,1,2.92,2.92,0,0,0,.12,1.08c0-.27,0-.53,0-.78,0,.28,0,.57.05.86l.19.61c-.06-.19-.13-.39-.19-.6,0,.21,0,.42.05.62a9.28,9.28,0,0,0,.4,1.46,3.54,3.54,0,0,0,2.35,2.2,3.86,3.86,0,0,0,2.12.52,1,1,0,0,0,.83-1.19c-.05-.25-.12-.49-.16-.74,0,0,0-.08,0-.13a4,4,0,0,0,.16-1.25A2.76,2.76,0,0,0,512.81,172.36Z"/><path class="cls-11" d="M506.59,171.93h0l0-.08Z"/><path class="cls-11" d="M638.25,164.39c-1-6.72-6.3-12.53-13.16-13.37a4.4,4.4,0,0,0-4.28,2.35,4.53,4.53,0,0,0,.49,4.84s0,0,0,0c.13.21.24.41.35.62s.32.63.46.95c0,.09.23.65.31.85s.16.65.17.72.06.31.08.47a21.63,21.63,0,0,1-1.64,7.32c-.23.52-.47,1-.73,1.52l-.34.61-.39.61c-.35.52-.72,1-1.1,1.48a2.11,2.11,0,0,0-.15.22s0,0-.17.16l-.8.76c-1.48,1.32-2.83,2.58-3.17,4.64a5.44,5.44,0,0,0,1.7,5c4.74,4.36,12.2.16,16-3.39C636.38,176.53,639.2,170.57,638.25,164.39Z"/><path class="cls-11" d="M607.74,193.49a.69.69,0,0,0-.69-1.07l-.54.14a1,1,0,0,0-.38,0,1.32,1.32,0,0,0-.42.15l-.45.21c-.28.14-.56.29-.83.45h0a2.15,2.15,0,0,0-.59.29l-.33.24c-.23.17-.45.34-.66.53-.41.35-.78.75-1.17,1.13a2.24,2.24,0,0,0-.76,1.76,2.14,2.14,0,0,0,.92,1.71,2.57,2.57,0,0,0,1.89.38l.35-.06a3.61,3.61,0,0,0,1.66-.76,6.4,6.4,0,0,0,1.41-1.94,2.75,2.75,0,0,0,.32-1,2.34,2.34,0,0,0-.26-1.24,1.78,1.78,0,0,0,.14-.36Z"/><path class="cls-11" d="M420.37,164a29.51,29.51,0,0,0-2-6.68,33.2,33.2,0,0,0-9.61-12.47,3.51,3.51,0,0,0-5.26,1.64,25.43,25.43,0,0,0,2.14,19c.15.35.28.71.45,1.05a23.49,23.49,0,0,0,3.69,5.68,9.16,9.16,0,0,0,5.55,3,4.92,4.92,0,0,0,5.37-4A20.32,20.32,0,0,0,420.37,164Z"/><path class="cls-11" d="M564.23,405.36a21.75,21.75,0,0,0-2.05-4.49c-9.34-14.62-11.62,4.56-12.72,11.76s-4.83,22.79,6.27,24C569.82,438.19,568.14,416.47,564.23,405.36Z"/><path class="cls-14" d="M394.94,66.43c-6.4-5.12-5.27,121.36,78.64,153.27,0,0,37.67-22.26,68.5,15.91,0,0,101.9,6.59,135.3-97.13C677.38,138.48,507.24,156.34,394.94,66.43Z"/><path class="cls-4" d="M394.94,58.63c-6.4-5.11-5.27,121.36,78.64,153.28,0,0,37.67-22.27,68.5,15.9,0,0,101.9,6.59,135.3-97.14C677.38,130.67,507.24,148.54,394.94,58.63Z"/><path class="cls-15" d="M608.09,187.25c-25.61,11-54.28,16.23-82.09,13s-58.37-13-77.62-34.46c-15.63-17.47-25.16-39.31-32.89-61.2-3.32-9.4-6.09-19-7.1-29a42.1,42.1,0,0,1,0-8.25c-4.54-3.19-9-6.52-13.41-10-6.4-5.13-5.27,121.36,78.64,153.26,0,0,37.67-22.26,68.5,15.91,0,0,93.33,6,130.6-84.49C654.12,160.88,632.46,176.82,608.09,187.25Z"/><path class="cls-16" d="M641.34,136.11c-57.24,0-164.23-9.32-244.61-71-.84,11.65,1.2,43.56,14.82,76.16,13.79,33,34.57,55.33,61.78,66.25a60.31,60.31,0,0,1,26.06-6.07c16.83,0,32.22,7.75,44.63,22.43h1.7c15.92,0,95.37-4.36,125.9-88.73C665.49,135.58,655,136.11,641.34,136.11ZM545.86,219.9c-13-14.7-29-22.44-46.47-22.44a65.18,65.18,0,0,0-26.18,5.68c-25.39-10.72-44.89-32-58-63.4A194,194,0,0,1,400.62,73c80.64,58.26,184.89,67.12,240.72,67.12,9.89,0,18.11-.28,24.33-.59C634.66,215.71,561,219.88,545.86,219.9Z"/><path class="cls-17" d="M525.33,180.44c-4.43,10.68-12.91,19.46-24,19.89-9.43.37-19.39-4.35-25.83-11.79-8.37-9.71-5.3-27.87-.62-38.64,6.39-14.76,20.87-30,36.73-30.36,8.29-.16,15.25,6.57,18.42,14.51C535.83,148.55,531,166.78,525.33,180.44Z"/><path class="cls-17" d="M530.6,179.27c-1.79,11.55.76,24,9.75,31.08a32.75,32.75,0,0,0,27.48,5.86c11.92-3,18.66-19.93,20.3-31.7,2.24-16.13-2-37.6-15-47.48-6.8-5.18-16-3.8-22.72.87C538.2,146.41,532.89,164.5,530.6,179.27Z"/><path class="cls-18" d="M523.38,181.25c-4.42,10.67-12.9,19.45-24,19.89-9.43.36-19.39-4.35-25.83-11.8-8.37-9.7-5.29-27.86-.62-38.63,6.39-14.76,20.88-30,36.73-30.36,8.3-.16,15.25,6.57,18.43,14.51C533.89,149.35,529.05,167.59,523.38,181.25Z"/><path class="cls-18" d="M528.65,180.08c-1.79,11.55.76,24,9.75,31.07A32.78,32.78,0,0,0,565.89,217c11.92-3,18.66-19.92,20.29-31.69,2.24-16.14-2-37.6-15-47.49-6.8-5.18-16-3.8-22.72.87C536.25,147.22,530.94,165.31,528.65,180.08Z"/><path class="cls-19" d="M522.15,181a103.21,103.21,0,0,0,5.2-15.87c-1.09,3.57-2.35,7-3.67,10.19-4.24,10.22-12.36,18.64-23,19-9,.35-18.56-4.17-24.72-11.3-5.75-6.65-5.86-17.47-3.81-26.85-3.38,10.34-4.68,24.47,2.28,32.52,6.16,7.13,15.69,11.65,24.72,11.3C509.79,199.57,517.92,191.17,522.15,181Z"/><path class="cls-19" d="M583.46,191.42c-3,9.18-8.62,18.47-16.93,20.54a30.85,30.85,0,0,1-25.86-5.51c-8.47-6.68-10.87-18.39-9.18-29.26.44-2.85,1-5.84,1.72-8.87A106.1,106.1,0,0,0,530,182.77c-1.69,10.87.71,22.58,9.18,29.25A30.86,30.86,0,0,0,565,217.54C575.05,215,581.16,202.07,583.46,191.42Z"/><path class="cls-20" d="M514.11,173a17.13,17.13,0,1,1-7-23.2A17.14,17.14,0,0,1,514.11,173Z"/><path class="cls-21" d="M508.78,170.13a11.08,11.08,0,1,1-4.51-15A11.08,11.08,0,0,1,508.78,170.13Z"/><path class="cls-18" d="M510.94,161.85a5.22,5.22,0,0,0,.15-2.74l-.45-1.27a5.13,5.13,0,0,0-1.78-2,3.82,3.82,0,0,0-2-.75,3.76,3.76,0,0,0-2,0,5.85,5.85,0,0,0-3.27,2.22c-.21.42-.41.84-.62,1.27a5.31,5.31,0,0,0-.15,2.74l.45,1.27a5.2,5.2,0,0,0,1.78,2,3.94,3.94,0,0,0,2,.75,3.85,3.85,0,0,0,2.05,0,5.87,5.87,0,0,0,3.28-2.23C510.53,162.7,510.73,162.27,510.94,161.85Z"/><path class="cls-18" d="M508.38,169.46a2.3,2.3,0,0,0,.06-1.19c-.06-.18-.13-.36-.19-.55a2.29,2.29,0,0,0-.77-.87,2.58,2.58,0,0,0-1.73-.33,1.84,1.84,0,0,0-.79.36,1.75,1.75,0,0,0-.63.61l-.26.54a2.29,2.29,0,0,0-.07,1.19c.07.18.13.37.19.54a2.24,2.24,0,0,0,.77.87,1.69,1.69,0,0,0,.85.33,1.58,1.58,0,0,0,.89,0,2.66,2.66,0,0,0,1.42-1C508.2,169.83,508.29,169.63,508.38,169.46Z"/><path class="cls-18" d="M489,171.52a6.07,6.07,0,0,0,.17-3.11l-.51-1.43a5.87,5.87,0,0,0-2-2.27,6.78,6.78,0,0,0-4.55-.87,4.55,4.55,0,0,0-2.06.93,4.44,4.44,0,0,0-1.64,1.58l-.7,1.45a5.94,5.94,0,0,0-.17,3.1c.17.48.34.95.5,1.44a6,6,0,0,0,2,2.27,6.61,6.61,0,0,0,4.54.87,4.54,4.54,0,0,0,2.07-.93,4.46,4.46,0,0,0,1.64-1.59C488.52,172.48,488.75,172,489,171.52Z"/><path class="cls-22" d="M512.65,167.19a3.69,3.69,0,0,1-1.65-.29,12.12,12.12,0,0,1-4-3.05,26.61,26.61,0,0,0-6.54-4.62c-1.95-1-9.25-3.47-9.26-6,0-2.41,3.94-3.79,5.84-4.14a15.38,15.38,0,0,1,9.56,1.77,16.1,16.1,0,0,1,7.74,9.51C515,162.65,515.32,167,512.65,167.19Z"/><path class="cls-21" d="M510.24,119a34.06,34.06,0,0,1,9.74,4.39,7.21,7.21,0,0,0,4.3-9,10.54,10.54,0,0,0-.85-1.86,10.22,10.22,0,0,0-6.47-4.75c-6.4-1.73-16.13-.1-20.54,5.29a8.8,8.8,0,0,0-1.83,4.55A42.21,42.21,0,0,1,510.24,119Z"/><path class="cls-23" d="M510.24,119a34.47,34.47,0,0,1,9.65,4.33,7.12,7.12,0,0,0,4.62-5.37,6.81,6.81,0,0,1-4.73,2,17.42,17.42,0,0,1-6.28-1.39,14.32,14.32,0,0,0-3-.54,31.47,31.47,0,0,1-8.95-1.88,6.66,6.66,0,0,1-3.89-4.36,13.1,13.1,0,0,0-1.25,1.22,8.8,8.8,0,0,0-1.83,4.55A42.21,42.21,0,0,1,510.24,119Z"/><path class="cls-21" d="M558.72,119.92c6.34-.94,12.83-1.32,19.07.35a26.61,26.61,0,0,1,6.46,2.72,9.73,9.73,0,0,0-.19-4.29C582,112.06,573.5,107,566.91,106.21a10.2,10.2,0,0,0-7.76,2,11,11,0,0,0-1.48,1.43A7.15,7.15,0,0,0,558.72,119.92Z"/><path class="cls-23" d="M558.82,119.91c6.31-.93,12.76-1.31,19,.36a26.61,26.61,0,0,1,6.46,2.72,9.73,9.73,0,0,0-.19-4.29,11.5,11.5,0,0,0-.72-1.6,6.72,6.72,0,0,1-5.22,2.63,31.8,31.8,0,0,1-9-1.56,15.14,15.14,0,0,0-3-.6,17.73,17.73,0,0,1-6.36-1,6.89,6.89,0,0,1-3.64-3.62A7.07,7.07,0,0,0,558.82,119.91Z"/><path class="cls-24" d="M571.53,189a17.12,17.12,0,1,1-7-23.2A17.12,17.12,0,0,1,571.53,189Z"/><path class="cls-21" d="M565.91,186a10.75,10.75,0,1,1-4.38-14.56A10.75,10.75,0,0,1,565.91,186Z"/><path class="cls-18" d="M568.36,177.87a5.25,5.25,0,0,0,.15-2.75l-.45-1.26a5.13,5.13,0,0,0-1.77-2,4,4,0,0,0-2-.75,3.92,3.92,0,0,0-2,0,5.87,5.87,0,0,0-3.28,2.23c-.2.42-.41.84-.61,1.27a5.2,5.2,0,0,0-.15,2.74l.44,1.27a5.28,5.28,0,0,0,1.78,2,4.08,4.08,0,0,0,2,.75,4,4,0,0,0,2.05,0,4.14,4.14,0,0,0,1.82-.82,3.87,3.87,0,0,0,1.45-1.42C568,178.71,568.16,178.29,568.36,177.87Z"/><path class="cls-18" d="M565.8,185.48a2.3,2.3,0,0,0,.07-1.19l-.2-.55a2.3,2.3,0,0,0-.77-.87,2.18,2.18,0,0,0-2.52,0,1.56,1.56,0,0,0-.62.6c-.09.19-.19.36-.27.55a2.29,2.29,0,0,0-.07,1.19c.07.17.13.37.2.54a2.23,2.23,0,0,0,.77.87,1.75,1.75,0,0,0,.85.33,1.64,1.64,0,0,0,.88,0,1.72,1.72,0,0,0,.79-.35,1.65,1.65,0,0,0,.62-.61C565.62,185.84,565.72,185.65,565.8,185.48Z"/><path class="cls-18" d="M546.4,187.54a5.87,5.87,0,0,0,.17-3.11l-.51-1.43a5.87,5.87,0,0,0-2-2.27,6.69,6.69,0,0,0-4.54-.88,4.67,4.67,0,0,0-2.07.94,4.44,4.44,0,0,0-1.64,1.58c-.23.49-.47,1-.7,1.45a5.83,5.83,0,0,0-.17,3.1l.51,1.43a5.89,5.89,0,0,0,2,2.28,4.51,4.51,0,0,0,2.22.84,5.27,5.27,0,0,0,4.39-.91,4.54,4.54,0,0,0,1.65-1.58C545.94,188.5,546.16,188,546.4,187.54Z"/><path class="cls-25" d="M570.07,183.21a3.86,3.86,0,0,1-1.65-.29,12.12,12.12,0,0,1-4-3,26.2,26.2,0,0,0-6.54-4.63c-1.94-1-9.26-3.47-9.26-6,0-2.42,3.93-3.8,5.84-4.14a15.38,15.38,0,0,1,9.56,1.77,16,16,0,0,1,7.74,9.51C572.43,178.66,572.74,183,570.07,183.21Z"/><path class="cls-26" d="M479.56,215.87c1.19,1,26.55,9.95,52.57,14.11,0,0-24.91,39.19-43.28,33.4S479.56,215.87,479.56,215.87Z"/><path d="M502.07,261.31c.88-7.13.75-14.21-1-20.55-1.87-6.6-6.88-14.59-15.1-15a17.56,17.56,0,0,0-8.1,1.68c-1.28,12.8-1.08,32.19,11,36C493,264.7,497.57,263.67,502.07,261.31Z"/><path class="cls-27" d="M496.53,256.82c0-.63-.31-2.12,0-.65-.11-.55-.19-1.11-.29-1.67-.21-1.1-.46-2.19-.76-3.27s-.7-2.14-1.08-3.2a3.62,3.62,0,0,0-.2-.45c-.3-.56-.57-1.12-.88-1.67s-.66-1-1-1.57A3.07,3.07,0,0,0,492,244c-.72-.75-1.36-1.54-2.14-2.23-.47-.44-1.62-1.12-.46-.43-.47-.29-.92-.64-1.4-.92s-1-.58-1.5-.84-.86-.36-.88-.38c-.45-.15-.88-.3-1.34-.42-.15,0-.74-.14-1.06-.21l-1-.07c-.59,0-1.18,0-1.76,0l-.61.06-.14,0c-.67.16-1.34.3-2,.5l-.37.13c.27,10.61,2.81,21.41,11.51,24.14a14.23,14.23,0,0,0,7.9,0A55.75,55.75,0,0,0,496.53,256.82Z"/><path class="cls-18" d="M483.05,230.32a16,16,0,0,0,6.06,4.51c.18.07,1,.42,1.2.48.88.27,1.74.54,2.64.74.53.13,1.08.22,1.62.31l1.28.13a43.9,43.9,0,0,0,5,0c.63,0,1.25-.11,1.86-.17.17,0,1.54-.28,1.73-.32a57.81,57.81,0,0,0,19.05-7.54c-22.72-4.53-42.87-11.72-43.93-12.56,0,0-.55,2.51-1.1,6.37A27.71,27.71,0,0,0,483.05,230.32Z"/><path class="cls-18" d="M504.86,259.56c-.27-.42-.46-.92-.71-1.34s-.54-.78-.77-1.19a1.06,1.06,0,0,1,.11.21c.32.44.54.94,0,0a2,2,0,0,0-.17-.23c-.37-.4-.78-.76-1.17-1.15l-.16-.17-.1-.05c-.76-.46-1.51-.88-2.28-1.3l-.68-.29q-.94-.31-1.92-.57c-.69-.17-1.38-.29-2.08-.44l-.31-.07-.35,0a59.33,59.33,0,0,0-9.14.08l-.5,0-.46.08c-.72.12-1.43.25-2.14.41s-1.41.4-2.12.59c1.75,4.42,4.56,7.85,8.94,9.23,5.07,1.6,10.64-.23,16-3.72Z"/><path class="cls-4" d="M435.21,257.13a4.47,4.47,0,0,1-2.42-.07c-5.53-1.54-10.63-15.48-16.37-19-8.5-5.21-19.35-5.06-28.8-2.82-19.73,4.65-36.1,18.57-52.19,30.11-42.6,30.53-77,71.39-120.07,101.54C196.73,380,172,396.26,149,398.86c-20.75,2.33-45.19.84-65.13-5.61-24.07-7.77-45.48-26.65-61.06-46.07-9.64-12-20.54-34-22.81-49.38,5.14,9.12,18.22,13.84,27.41,17.73,20.44,8.68,41.24,10.1,63.21,10.28,54.29.41,104-15.21,151.15-41.54,24.66-13.77,49.66-26.62,74.87-39.38,22.09-11.17,46.15-24.29,71.33-26,11.29-.76,19.29,2.37,28.15,9.14-4.55-9.37-13.81-20.39-25.72-18.74,10.56-5.26,29.26.5,37.84,10.38a50.27,50.27,0,0,1,9.83,17.86C439.39,242.26,440.51,255.65,435.21,257.13Z"/><path class="cls-16" d="M43.52,369c2.39,2.12,4.85,4.18,7.38,6.15-2.42-4.34-4.71-8.75-6.72-13.33a254.51,254.51,0,0,1-12.86-38.36c-.62-2.34-1.19-4.72-1.73-7.1-.73-.28-1.46-.52-2.18-.83-.56-.23-1.17-.48-1.74-.73A213.65,213.65,0,0,0,43.52,369Z"/><path class="cls-16" d="M47.77,321.89c-2.32-.5-4.63-1.06-6.94-1.71.31,1.18.62,2.35.94,3.49,3.3,12.1,7,24.2,12.22,35.62a150.75,150.75,0,0,0,17.5,28.89c2.21,1.1,4.46,2.08,6.73,3C63.07,370.31,51.07,347.58,47.77,321.89Z"/><path class="cls-28" d="M438.07,237.56a49.7,49.7,0,0,0-8.49-16.12,25.11,25.11,0,0,1,1.5,6.73c.31,3.72-3.52,7.36-7.17,7.17-10.41-.54-19.18-7-29.55-8.28-10.15-1.21-20.61.09-30.41,2.8-18.39,5.07-35.47,15.55-50.81,26.63-28,20.26-51.81,45.68-77.4,68.78-26.07,23.56-55.91,48.05-91.32,55.06a89.4,89.4,0,0,1-53-5.31,194.48,194.48,0,0,1-34.81-19.08c-15.76-11-31-25.71-36.93-43.67C12,308.89,3.81,304.55,0,297.8c2.27,15.37,13.17,37.37,22.81,49.38,15.58,19.42,37,38.3,61.06,46.07,19.94,6.45,44.38,7.94,65.13,5.61,23-2.6,47.73-18.91,66.36-32,43-30.15,77.47-71,120.07-101.54,16.09-11.54,32.46-25.46,52.19-30.11,9.45-2.24,20.3-2.39,28.8,2.82,5.74,3.52,10.84,17.46,16.37,19a4.47,4.47,0,0,0,2.42.07C440.51,255.65,439.39,242.26,438.07,237.56Z"/><path class="cls-29" d="M553.72,265.49S389.35,371.05,324.6,360.92c0,0-13.61,3.86-12.77,14.23,0,0,84.74,8.25,231.67-92.07A28.53,28.53,0,0,0,553.72,265.49Z"/><path class="cls-30" d="M498,309C481.59,318,465.35,327,448.54,335.11c-14.24,6.88-29,12.39-43.75,18-11.71,4.43-25.8,9.3-37.86,3.54-16.25,4.25-30.86,6.1-42.33,4.3,0,0-13.61,3.86-12.77,14.23,0,0,79.51,7.74,218-82.95C519.24,297.81,508.54,303.29,498,309Z"/><path class="cls-4" d="M487.41,328.8c-10.4,5.55-21.79,4.49-25.44-2.34S463.8,309.57,474.2,304s21.79-4.49,25.44,2.35S497.81,323.26,487.41,328.8Z"/><path class="cls-16" d="M485.54,325.29c-8.26,4.4-17.06,4-19.67-.91s2-12.44,10.2-16.84,17.07-4,19.68.91S493.79,320.9,485.54,325.29Z"/><path class="cls-4" d="M484.35,323.06c-7,3.73-14.27,3.79-16.22.12s2.14-9.68,9.14-13.41,14.26-3.78,16.22-.12S491.35,319.33,484.35,323.06Z"/><path class="cls-30" d="M483.53,321.54c-5.39,2.87-11,2.92-12.5.09s1.64-7.46,7.05-10.34,11-2.91,12.5-.09S488.94,318.66,483.53,321.54Z"/><path class="cls-30" d="M498.9,306.78c-3.44-6.45-14.32-7.35-24.31-2s-15.31,14.86-11.87,21.31,14.31,7.34,24.3,2S502.32,313.21,498.9,306.78Zm-34.39,18.33c-3.1-5.81,1.69-14.4,10.69-19.2s18.81-4,21.9,1.82-1.69,14.4-10.69,19.2S467.6,330.91,464.51,325.11Z"/><path class="cls-31" d="M472.26,332.19A93.46,93.46,0,0,1,475,317.55c.86-3.29,1.85-6.56,2.63-9.88.46-1.94.94-3.84,1.51-5.71A31.62,31.62,0,0,0,474.2,304c-.58.31-1.14.64-1.69,1,0,.07,0,.13,0,.19.74,9.06-2.2,17.48-5.3,25.8A16.43,16.43,0,0,0,472.26,332.19Z"/><path class="cls-31" d="M499.64,306.38a10.36,10.36,0,0,0-5.54-4.62,49.34,49.34,0,0,1-1.76,11.89c-1.35,5.08-3.21,10-4.73,15C497.87,323.11,503.26,313.17,499.64,306.38Z"/><path class="cls-32" d="M422.47,432.17a8.86,8.86,0,0,0-1.73-.75c-3.28-1-7.44-.17-10.79.21-7.29.84-14.37,1.76-21.54,3.29-18,3.85-35.38,7.88-53,13.42-5.38,1.7-27.25,7.09-22,15.28,6.17,9.57,24.72,3.26,32.71.46,11.83-4.15,23.41-9.13,35.08-13.71,6.31-2.47,13.15-5.77,19.86-6.34-8.38,6.15-17.84,10.67-26,17.42-12.54,10.39-21.23,24.5-29.81,38.12C336,514.29,325.76,528.2,316,542.62a1.06,1.06,0,0,0,1.74,1.21c16.67-21,35.15-40.67,54.29-59.46,9.23-9.08,18.76-17.88,28.45-26.46q7.27-6.44,14.67-12.77C418.19,442.51,428.26,435.54,422.47,432.17Z"/><path class="cls-4" d="M290.33,568.11c-.46-3.05,47.63-61.72,53.52-83.52,0,0,36.44-.59,43.31,7.74,0,0-71.53,52-74.54,66.46s18.41,35.86,26.11,35c0,0,1.27,4.71-4.29,5.14S293.76,590.37,290.33,568.11Z"/><path class="cls-16" d="M332.68,506.79c-.41.67-.8,1.32-1.22,2a66.37,66.37,0,0,1,26.66,5.67l5.63-4.42C353.71,507.37,343.39,506.87,332.68,506.79Z"/><path class="cls-33" d="M334.27,592.64a23.14,23.14,0,0,1-8.38,0c-8.57-1.45-16.44-7.51-22.07-13.87-4.12-4.64-8.2-10.41-9.94-16.64-2.28,3.28-3.63,5.43-3.55,6,3.43,22.26,38.54,31.26,44.11,30.83s4.29-5.14,4.29-5.14A8.87,8.87,0,0,1,334.27,592.64Z"/><path class="cls-34" d="M310,586.22a24.12,24.12,0,0,1-8-20.89c1.21-11.75,7.46-22.29,14.67-31.83,9.47-19.13,25.2-35.41,42.23-48.48-8.25-.54-15-.43-15-.43-5.89,21.8-54,80.47-53.52,83.52,3.43,22.26,38.54,31.26,44.11,30.83,2.59-.21,3.67-1.34,4.11-2.49a24.64,24.64,0,0,1-8.47-1.93C322.77,593.44,315.76,591.07,310,586.22Z"/><path class="cls-35" d="M312.62,552.69c-.88,1,39.92-61.26,51.61-63.36s18.51,3.85,18.51,3.85S342.18,518,312.62,552.69Z"/><path class="cls-32" d="M441.88,273.17c-.11-.19-.24-.39-.38-.61-2-2.89-9.83-5.25-13.19-5-14.87.94-30.66,5.32-44.82,9.61-12.11,3.67-23.76,8.36-35.5,13-10.68,4.2-13.69,7.36-4.67,16,10.16,9.69,22.1,15,35.39,19.05,11.14,3.37,22.23,7.08,33.44,10.26,3.81,1.1,11.89,5,13.84.32-8.18-4.82-15.64-7.86-24.27-11.69A220.75,220.75,0,0,1,380,313.15c-6.65-3.88-12.84-8.38-19.27-12.6-1.67-1.11-3.81-2.61-6.11-4,13-2,25.72-5.42,38.52-8.28,9.2-2,18.41-4,27.62-5.95,4.44-1,8.9-1.87,13.35-2.82C439.07,278.47,444.67,277.91,441.88,273.17Z"/><path class="cls-4" d="M398.41,336.35c9.67,2.73,19.25,5.75,28.68,8.83,4.86,1.6,15.48,3.79,17.75,9.09.54,1.28-.8,2.77-.73,4.11.24,5.09,3.44,3.28,5.95,6,2.12,2.26,1.87,6.23,4.37,9,3.33,3.66,6.31,3.94,11,2.36,6.46-2.2,18.16-11.2,9.85-17-5.54-3.86-13.18-5.43-19.27-8.25A343.27,343.27,0,0,1,411.14,325c-7.14-4.73-15.06-9.33-21.52-15-3.85-3.36-7.45-9.52-13.32-8.36-8.85,1.76-17.09,6.68-23.6,12.63-2.41,2.21-11.45,8.93-4.78,11.66,5.11,2.09,13.17,1.75,18.6,2.77C377.18,330.73,387.85,333.37,398.41,336.35Z"/><path class="cls-16" d="M386.91,307.36c-.76-.8-1.54-1.63-2.34-2.4-13.52,2.67-25.42,11.21-35.37,21.43a31.56,31.56,0,0,0,5.6,1.1C363.64,318.28,374.73,311,386.91,307.36Z"/><path class="cls-36" d="M467.78,367.92c-10.7-8.54-20.54-16.94-33.13-22.62-12.76-5.77-26.28-9.61-39.41-14.45-9.26-3.43-21.51-7.26-28.14-15.15a12.46,12.46,0,0,1-3.08-9.48,57.55,57.55,0,0,0-11.32,8.09c-2.41,2.21-11.45,8.93-4.78,11.66,5.11,2.09,13.17,1.75,18.6,2.77,10.66,2,21.33,4.63,31.89,7.61,9.67,2.73,19.25,5.75,28.68,8.83,4.86,1.6,15.48,3.79,17.75,9.09.54,1.28-.8,2.77-.73,4.11.24,5.09,3.44,3.28,5.95,6,2.12,2.26,1.87,6.23,4.37,9,3.33,3.66,6.31,3.94,11,2.36a26.52,26.52,0,0,0,9.94-6.56A7.77,7.77,0,0,1,467.78,367.92Z"/><path class="cls-35" d="M375,304.46c-3.39-1.63-4.51,4.76-3.5,7.14,3.17,7.51,15.45,12.55,22.35,15,11.29,4,22.84,7.4,34,11.82,8.32,3.29,14.63,7.67,21.7,12.93,4.8,3.57,9.44,8,14.45,11.2,3.69,2.36,11.93,3.44,6.6-2.85-3.36-4-10.5-6.15-15.06-8.24-6.08-2.79-11.83-6.54-17.68-9.82-7.95-4.44-16-8.41-24-12.67a149.6,149.6,0,0,1-22.29-14.58C386.59,310.47,379.48,303.08,375,304.46Z"/><path class="cls-32" d="M712.49,275.39c-13.14-.33-26.54,1-39.49-.08-14.61-1.22-29.26-1.93-43.88-2.85-5-.32-10.74-.73-15.75,0-6.62,1-12,4-18.83,4.07-15.75.16-31.59-1-47.37-1-.79,1.41-1.58,2.82-2.28,4.27a37.27,37.27,0,0,0-2.31,6.18c6.29.11,12.58.13,18.88,0,8.83-.18,17.65-.55,26.48-1,8.35-.38,15,2.48,23.07,3.44,16.06,1.91,30.81-4,46.16-6.64,18.07-3.14,37.12-2.72,55.37-5.17A.66.66,0,0,0,712.49,275.39Z"/><path class="cls-4" d="M649,287.61c9.84-2.06,19.73-3.83,29.51-5.46,5.05-.85,15.48-3.81,19.94-.17,1.08.89.58,2.82,1.26,4,2.57,4.39,4.56,1.31,8,2.53,2.93,1,4.55,4.67,8,5.94,4.66,1.69,7.42.56,10.81-3,4.71-4.94,10.92-18.32.87-19.6-6.69-.85-14.19,1.29-20.89,1.62a343.63,343.63,0,0,1-51.52-1.81c-8.52-.87-17.68-1.28-26-3.3-5-1.2-11-5-15.69-1.24-7,5.64-12,13.83-15.07,22.11-1.11,3.09-6,13.23,1.17,12.55,5.49-.5,12.47-4.55,17.76-6.15C627.62,292.45,638.29,289.85,649,287.61Z"/><path class="cls-16" d="M625.42,267.22c-1-.35-2.12-.73-3.2-1-10.74,8.62-17.33,21.7-21.42,35.37a31.49,31.49,0,0,0,5.48-1.63A74.9,74.9,0,0,1,625.42,267.22Z"/><path class="cls-35" d="M617.88,267.57c-4.15,0-10,6-7.94,10.28,4.16,8.52,21.31,4.2,28.17,3.67,20.06-1.56,39.81-5.06,60-5.1,7,0,13.92,1.48,20.95,1.48,1.56,0,10.37.15,7.56-3.93-1.82-2.62-12.85-.42-15.35-.13a249.68,249.68,0,0,1-28.41,1.69C661.75,275.54,640.28,274.52,617.88,267.57Z"/><path class="cls-36" d="M725.13,283.46c-13.44-2.62-26-5.5-39.83-4.71-14,.79-27.75,3.65-41.62,5.43-9.8,1.26-22.43,3.54-32-.39a12.5,12.5,0,0,1-7.12-7,58,58,0,0,0-6.29,12.41c-1.11,3.09-6,13.23,1.17,12.55,5.49-.5,12.47-4.55,17.76-6.15,10.38-3.17,21-5.77,31.79-8,9.84-2.05,19.73-3.82,29.51-5.45,5.05-.85,15.48-3.81,19.94-.17,1.08.89.58,2.82,1.26,4,2.57,4.39,4.56,1.31,8,2.53,2.93,1,4.55,4.66,8,5.94,4.66,1.69,7.42.56,10.81-3A26.44,26.44,0,0,0,732.38,281,7.77,7.77,0,0,1,725.13,283.46Z"/><path class="cls-32" d="M496.35,510.1c-.1,2.84-.16,5.67-.16,8.5-.05,12.72-1.41,25.41-1.74,38-.33,12.82-1.85,25.89-6.58,37.9-43.95-12.13-95.73,18.73-134,37.32-.85.42-.45,1.94.53,1.65,22.3-6.55,44.67-13.15,67.43-18,40.08-8.47,70.05-4.19,74.33-6.76,3.36-2,13.64-61.27,18.44-92.86C509.72,512,504.82,509.09,496.35,510.1Z"/><path class="cls-4" d="M332,635.09c1.18-2.85,72.73-28.08,89.08-43.66,0,0,31.45,18.38,33,29.07,0,0-88.13,7.37-98.2,18.18S353,678.89,360,682.15c0,0-1.35,4.69-6.33,2.17S323.36,655.91,332,635.09Z"/><path class="cls-16" d="M431,622.8c3.52-.4,6.82-.74,9.72-1-11.43-9.46-25.2-16.33-39.77-17.62-.86.45-1.78.89-2.67,1.33C410.26,609.21,421.7,614.53,431,622.8Z"/><path class="cls-33" d="M342.65,658.59c-3.28-8-5.62-17.85-4.31-26.85-3.79,1.68-6.16,2.86-6.37,3.35-8.61,20.82,16.75,46.71,21.73,49.23,3.65,1.85,5.35-.19,6-1.39C351.73,677,346.3,667.52,342.65,658.59Z"/><path class="cls-36" d="M352.91,683c-7.32-6-10.8-17.06-10-26.31.47-5.12,1.89-10.13,5.44-14a14.12,14.12,0,0,1,7.84-4.34c11.49-10.63,97.83-17.86,97.83-17.86-.44-3-3.32-6.67-7.17-10.34-2.94,1.3-5.85,2.34-8.15,3.16-16.79,6-34.22,9.79-51.73,13-8.4,1.56-16.85,2.82-25.12,5-7.89,2-16.35,3.84-24.17.69-3.43,1.53-5.55,2.61-5.75,3.08-8.61,20.82,16.75,46.71,21.73,49.23a6.56,6.56,0,0,0,2,.65A23.93,23.93,0,0,1,352.91,683Z"/><path class="cls-35" d="M350.64,628.9s61.48-25.25,68.61-33.39c0,0,19.12,9.85,19.55,12.84S362.94,626.08,350.64,628.9Z"/></g></g></g></svg>