<svg xmlns="http://www.w3.org/2000/svg" xmlns:xlink="http://www.w3.org/1999/xlink" viewBox="0 0 517.32 503.96"><defs><style>.cls-1{isolation:isolate;}.cls-13,.cls-2,.cls-9{fill:#6d390c;}.cls-3{fill:url(#linear-gradient);}.cls-4{fill:url(#linear-gradient-2);}.cls-10,.cls-15,.cls-16,.cls-5{fill:#fff;}.cls-12,.cls-15,.cls-16,.cls-18,.cls-19,.cls-5{mix-blend-mode:overlay;}.cls-5{opacity:0.49;}.cls-6{fill:#fff064;}.cls-7{fill:url(#linear-gradient-3);}.cls-8{fill:#b06518;}.cls-9{opacity:0.17;}.cls-11{fill:#b26510;}.cls-12,.cls-18,.cls-19{fill:#fcfacc;}.cls-12{opacity:0.44;}.cls-13{opacity:0.46;}.cls-14{fill:url(#linear-gradient-4);}.cls-16{opacity:0.34;}.cls-17{fill:url(#linear-gradient-5);}.cls-18{opacity:0.6;}.cls-19{opacity:0.22;}</style><linearGradient id="linear-gradient" x1="34.33" y1="251.99" x2="485.33" y2="251.99" gradientUnits="userSpaceOnUse"><stop offset="0" stop-color="#ffd600"/><stop offset="1" stop-color="#d43000"/></linearGradient><linearGradient id="linear-gradient-2" x1="259.82" y1="-3.51" x2="259.82" y2="437.5" gradientUnits="userSpaceOnUse"><stop offset="0" stop-color="#f7e436"/><stop offset="1" stop-color="#ce7c1d"/></linearGradient><linearGradient id="linear-gradient-3" x1="294.67" y1="529.55" x2="252.55" y2="194.11" xlink:href="#linear-gradient-2"/><linearGradient id="linear-gradient-4" x1="329.84" y1="360.08" x2="329.84" y2="163.58" gradientUnits="userSpaceOnUse"><stop offset="0" stop-color="#ce7c1d"/><stop offset="1" stop-color="#f7e436"/></linearGradient><linearGradient id="linear-gradient-5" x1="174.18" y1="331.89" x2="174.18" y2="191.77" xlink:href="#linear-gradient-4"/></defs><g class="cls-1"><g id="Слой_2" data-name="Слой 2"><g id="Layer_12" data-name="Layer 12"><path class="cls-2" d="M258.66,504C116,504,0,390.91,0,252c0-1.13,0-2.21.08-3.33l.05-1.81,10.51.06-10.5-.21C2.79,121.85,100.65,16.61,227.78,1.84l.9-.09c4.56-.54,9.53-1,14.25-1.25l.86,0C249,.15,253.92,0,258.66,0h.51c.77,0,1.52,0,2.28.06l.82,0c3.58.06,7.09.12,10.58.31,2.72.15,5.42.37,8.12.6l1.52.13c1.31.09,2.6.2,3.89.34,3.32.34,6.67.77,10,1.24l2.72.4c66.15,10,125,44.16,165.77,96.17l11.32,16.42a245.27,245.27,0,0,1,41,131l.06,1.66c0,1.22.08,2.43.08,3.66C517.32,390.91,401.28,504,258.66,504ZM35.52,247.37c0,.86,0,1.7-.07,2.55,0,.68-.05,1.36-.05,2.05,0,119.43,100.15,216.59,223.26,216.59S481.92,371.4,481.92,252c0-.82,0-1.62-.05-2.43l-.07-2.12a209.47,209.47,0,0,0-17.34-79.57,216.29,216.29,0,0,0-27.79-46.56l-8-10.23c-34.61-39.23-82-65-134.86-73l-2.38-.33c-2.84-.4-5.76-.79-8.7-1.08-1.06-.11-2.05-.18-3.05-.27l-1.21-.09c-2.8-.25-5.11-.44-7.45-.57-3.07-.16-6.14-.22-9.2-.25l-3.56-.09c-3.66,0-7.91.13-12.6.4l-.81.05c-4.14.24-8.39.64-12.62,1.11l-.87.1C122.24,49.74,37.84,140.17,35.52,247.37Z"/><path class="cls-3" d="M259.76,33C135.48,33,34.33,131.21,34.33,252S135.48,471,259.82,471c123.87,0,225-97.87,225.48-218.18l0-.71a213,213,0,0,0-45.77-132.34l-7.78-10c-40.33-45.87-98-73.56-160.28-76.5l-.63,0c-1.63-.08-3.29-.14-4.91-.17l-2,0-2.18,0-1.46,0h-.58Z"/><path class="cls-4" d="M500.78,252c0,129.39-107.89,234.29-241,234.29s-241-104.9-241-234.29S126.74,17.7,259.82,17.7,500.78,122.59,500.78,252Z"/><path class="cls-5" d="M259.82,17.7c-133.08,0-241,104.89-241,234.27,0,2.85.14,5.66.25,8.48C80.48,314,165,347.08,258.26,347.08c94.93,0,180.76-34.27,242.37-89.47.05-1.89.15-3.74.15-5.64C500.78,122.59,392.89,17.7,259.82,17.7Z"/><path class="cls-5" d="M452.11,110.19C408.12,54,338.59,17.7,260.34,17.7c-78.86,0-148.87,36.85-192.82,93.77,54.47,32.71,120.33,51.86,191.26,51.86C330.64,163.33,397.24,143.68,452.11,110.19Z"/><path class="cls-5" d="M259.83,31.1c130.75,0,237.11,101.32,240.76,227.58.09-2.22.19-4.46.19-6.71,0-129.38-107.89-234.27-240.95-234.27S18.88,122.59,18.88,252c0,2.25.11,4.49.17,6.71C22.71,132.42,129.06,31.1,259.83,31.1Z"/><path class="cls-6" d="M259.82,476.36C128.46,476.36,21.71,374.12,19,247c0,1.64-.14,3.28-.14,4.94,0,129.39,107.89,234.29,241,234.29s241-104.9,241-234.29c0-1.66-.1-3.3-.14-4.94C497.91,374.12,391.18,476.36,259.82,476.36Z"/><path class="cls-7" d="M456.41,252c0,105.57-88,191.15-196.59,191.15S63.22,357.54,63.22,252s88-191.16,196.6-191.16S456.41,146.41,456.41,252Z"/><path class="cls-8" d="M259.82,60.81a198.56,198.56,0,0,0-145.47,62.61,198.85,198.85,0,0,1,133.77-51.1c108.56,0,196.57,85.57,196.57,191.14,0,49.53-19.35,94.64-51.11,128.58,38.65-34.91,62.83-84.73,62.83-140.07C456.41,146.41,368.4,60.81,259.82,60.81Z"/><path class="cls-9" d="M137.37,365.05c0-105.57,88-191.15,196.59-191.15a199.28,199.28,0,0,1,118.15,38.38C433.34,125.77,354.37,60.81,259.79,60.81,151.22,60.81,63.21,146.41,63.21,252c0,62.47,30.79,117.91,78.42,152.8A188.51,188.51,0,0,1,137.37,365.05Z"/><path class="cls-6" d="M259.82,432.69C153.15,432.69,66.39,350.05,63.4,247c-.07,1.82-.18,3.64-.18,5.49,0,105.59,88,191.14,196.6,191.14s196.59-85.55,196.59-191.14c0-1.85-.09-3.67-.14-5.49C453.26,350.05,366.5,432.69,259.82,432.69Z"/><path class="cls-10" d="M227.47,33.1c11.21-.86,22.77,3.42,17.16,8.29s-43.51,26.74-60.07,13.22S214.26,34.11,227.47,33.1Z"/><path class="cls-10" d="M97.09,92.67c-35.11,29.54-63.47,84.11-62.76,116s17.74-18.14,26.55-36.29,52.77-73.47,84.65-90.23S152,46.48,97.09,92.67Z"/></g><g id="Layer_2" data-name="Layer 2"><path class="cls-2" d="M234.91,187.28l-26.22-24.47-32.48,37.31L140.32,158,76.59,215.13,118.86,262,75.48,307.64l57.66,58.7,38.73-42.61,36.62,42.36,58.72-48.29L279.31,386l4,0H284c5.65,0,43.77-.49,68.4-13.21h0a98.13,98.13,0,0,0,9.94-5.13,90.49,90.49,0,0,0,20.64-16.49,87.6,87.6,0,0,0,6.56-8.1,52.3,52.3,0,0,0,7.92-13.78c1.56-3,11.39-23.58,3.9-51.66a54.78,54.78,0,0,0-7.45-16.35,57.84,57.84,0,0,0-15.16-16.4h46.06V140.17H234.91Zm-10.1,70.06,10.1-11.45v22.66Z"/><path class="cls-11" d="M299.3,360.93,293.46,328a97.17,97.17,0,0,0,21.07-3.42,61.26,61.26,0,0,0,7.9-2.84,35,35,0,0,0,7.05-4.06,22,22,0,0,0,5.2-5.48,16,16,0,0,0,2.49-7.26q.57-6.27-2.63-10a19.53,19.53,0,0,0-9.12-5.7,56.41,56.41,0,0,0-13.88-2.42q-8-.49-16.87-.28t-18.09.71q-9.18.5-17.58.5V164.44H400.68V221H303.85v30.33q21.79,0,35.88,3.06T362.3,263a33.63,33.63,0,0,1,12.25,13.31,54.16,54.16,0,0,1,4.91,17.3,52,52,0,0,1-.36,13.53,49.85,49.85,0,0,1-4.48,14.24,57.06,57.06,0,0,1-9.47,13.74,66.08,66.08,0,0,1-15.16,12,92.81,92.81,0,0,1-21.72,9A139.73,139.73,0,0,1,299.3,360.93Z"/><path class="cls-11" d="M283.35,381.36l-12.64-71.24,21.58-1.31a79.18,79.18,0,0,0,16.91-2.7l.36-.11c-4.53-.25-9.38-.32-14.43-.2-5.71.14-11.6.37-17.51.69-6.38.35-12.65.52-18.62.52H239.73V145.17H420v95.06H359.82a70.41,70.41,0,0,1,13,6.62,52.78,52.78,0,0,1,19,21,73.45,73.45,0,0,1,6.71,23.43l0,.17a71.33,71.33,0,0,1-.45,18.51A69.62,69.62,0,0,1,392,329.69a76.43,76.43,0,0,1-12.62,18.4,85.78,85.78,0,0,1-19.54,15.6,113,113,0,0,1-26.22,11,160.06,160.06,0,0,1-33,5.48ZM338.27,273.8a36.41,36.41,0,0,1,11,8.66c3.85,4.54,8.21,12.42,7.14,24.25l0,.25a35.4,35.4,0,0,1-4.44,14,36.71,36.71,0,0,0,5.35-8,31.16,31.16,0,0,0,2.8-8.77,33,33,0,0,0,.27-8.46,35.25,35.25,0,0,0-3.1-11.09,14.87,14.87,0,0,0-5.48-5.62C349.5,277.62,345.4,275.57,338.27,273.8Zm-60-90.1v84.16l6.31-.28V201.7h96.83v-18Z"/><polygon class="cls-12" points="239.73 145.17 259 163.26 400.68 163.26 419.94 145.17 239.73 145.17"/><path class="cls-12" d="M341.32,233.58l-37.47,16.86s45.18,8.71,56.63,15.89,15.86,35.87,16.74,40.3-1.29,10.91-1.29,10.91L393,327.48s11.19-20.18,3.65-48.44C387.09,243.19,341.32,233.58,341.32,233.58Z"/><polygon class="cls-13" points="303.85 220.11 359.82 240.23 419.94 240.23 400.68 220.11 303.85 220.11"/><path class="cls-2" d="M283.35,381.36s41.46.41,66.76-12.66,31-22.92,35.67-28.53A47.43,47.43,0,0,0,393,327.48l-17.07-9.94-74.78,40.18Z"/><path class="cls-14" d="M299.3,360.08l-5.84-32.89a98.4,98.4,0,0,0,21.07-3.42,62.86,62.86,0,0,0,7.9-2.85,35,35,0,0,0,7.05-4.06,21.78,21.78,0,0,0,5.2-5.48,16,16,0,0,0,2.49-7.26q.57-6.27-2.63-10a19.6,19.6,0,0,0-9.12-5.69A55.94,55.94,0,0,0,311.54,286q-8-.51-16.87-.29t-18.09.71q-9.18.51-17.58.5V163.58H400.68v56.53H303.85v30.33q21.79,0,35.88,3.06t22.57,8.62a33.63,33.63,0,0,1,12.25,13.31,54,54,0,0,1,4.91,17.3,52.07,52.07,0,0,1-.36,13.53,49.79,49.79,0,0,1-4.48,14.23,57.3,57.3,0,0,1-9.47,13.75,66.35,66.35,0,0,1-15.16,12,92.81,92.81,0,0,1-21.72,9A140.4,140.4,0,0,1,299.3,360.08Z"/><path class="cls-15" d="M334.68,311.06a21.78,21.78,0,0,1-5.2,5.48,35,35,0,0,1-7.05,4.06,62.86,62.86,0,0,1-7.9,2.85,98.4,98.4,0,0,1-21.07,3.42l2,11.16a96.94,96.94,0,0,0,20.05-3.34,63.57,63.57,0,0,0,7.91-2.85,34.65,34.65,0,0,0,7-4.06,21.78,21.78,0,0,0,5.2-5.48,15.88,15.88,0,0,0,2.49-7.26,14,14,0,0,0-1.51-8.41A15,15,0,0,1,334.68,311.06Z"/><path class="cls-15" d="M373.58,275.43a33.53,33.53,0,0,0-12.24-13.31q-8.47-5.56-22.57-8.62-13.78-3-34.92-3.06v11.24q21.79,0,35.88,3.06t22.57,8.62a33.63,33.63,0,0,1,12.25,13.31,51.86,51.86,0,0,1,4.21,12.82,50.1,50.1,0,0,0-.26-6.76A53.76,53.76,0,0,0,373.58,275.43Z"/><path class="cls-15" d="M259,286.57h1l6-112.06H400.68V163.26H259Z"/><path class="cls-2" d="M259,286.89,239.73,307l68.48-1.08,1,.18,27.8-5.75s0-12.89-23.36-14.58S259,286.89,259,286.89Z"/><path class="cls-12" d="M270.71,310.12l22.75,17.07s14.64-.22,27.28-5.88,14.42-10.45,15.88-14.68.38-6.27.38-6.27-25.81,6.09-35.16,7.42C295,308.76,270.71,310.12,270.71,310.12Z"/><path class="cls-16" d="M259,249.47a210.85,210.85,0,0,1,44.85-12.77V220.11h96.83V163.58H259Z"/><path class="cls-11" d="M211.34,332.74l-39-45.14-39.87,43.86L109,307.54l42.72-45-41-45.42L138,192.63l38,44.57,34.46-39.59,19.22,17.94L192.55,257.7l46.84,52Z"/><polygon class="cls-11" points="209.06 359.56 171.96 316.65 133 359.51 82.18 307.76 125.42 262.21 83.41 215.68 139.86 165.11 176.18 207.68 209.05 169.91 256.55 214.25 218.36 257.56 267.21 311.75 209.06 359.56"/><path class="cls-17" d="M211.34,331.89l-39-45.14L132.46,330.6,109,306.68l42.72-45-41-45.42L138,191.77l38,44.57,34.46-39.58,19.22,17.94-37.16,42.15,46.84,52Z"/><polygon class="cls-15" points="224.71 220.36 229.71 214.69 210.49 196.75 176.03 236.33 138.01 191.76 110.67 216.25 116.71 222.95 138.98 203 176.99 247.57 211.45 207.99 224.71 220.36"/><polygon class="cls-15" points="193.24 267.76 233.86 312.83 239.12 308.5 192.55 256.85 193.24 267.76"/><polygon class="cls-15" points="109.26 306.36 115.17 312.39 152.94 272.61 151.68 261.69 109.26 306.36"/><polygon class="cls-12" points="82.18 307.76 108.96 306.36 151.68 261.69 125.42 262.21 82.18 307.76"/><polygon class="cls-2" points="132.46 331.46 133 359.51 171.9 316.71 171.9 287.23 132.46 331.46"/><polygon class="cls-13" points="172.33 286.75 171.9 287.23 171.9 316.71 171.96 316.65 209.06 359.56 209.44 354.27 211.34 331.88 172.33 286.75"/><polygon class="cls-2" points="239.39 308.5 211.34 331.89 211.34 331.88 209.06 359.56 267.21 311.75 239.39 308.5"/><polygon class="cls-12" points="192.55 256.85 218.36 257.56 267.21 311.75 238.73 307.76 192.55 256.85"/><polygon class="cls-18" points="83.41 215.68 110.67 216.27 138.01 191.77 138.03 191.8 139.86 165.11 83.41 215.68"/><polygon class="cls-18" points="176.03 236.34 210.51 196.91 209.05 169.91 176.18 207.68 176.03 236.33 176.03 236.34"/><polygon class="cls-19" points="176.03 236.34 176.03 236.33 176.18 207.68 139.86 165.11 138.03 191.8 176.03 236.34 176.03 236.34"/><polygon class="cls-19" points="229.71 214.69 210.49 197.61 209.05 169.91 256.55 214.25 229.71 214.69"/><path class="cls-16" d="M127.79,325.85a79.11,79.11,0,0,1,68.63-64.71l-3.87-4.29,37.16-42.15-19.22-17.94L176,236.34l-38-44.57-27.34,24.5,41,45.42-42.72,45Z"/></g></g></g></svg>