<svg xmlns="http://www.w3.org/2000/svg" xmlns:xlink="http://www.w3.org/1999/xlink" viewBox="0 0 418.82 418.83"><defs><style>.cls-1{isolation:isolate;}.cls-16,.cls-2,.cls-6,.cls-9{fill:#6d390c;}.cls-3{fill:#ab5c16;}.cls-4{fill:#b06518;}.cls-5{fill:#e0ae37;}.cls-6{opacity:0.5;}.cls-7{fill:url(#linear-gradient);}.cls-8{fill:#fdfac5;}.cls-9{opacity:0.32;}.cls-10{fill:#faefd2;}.cls-10,.cls-13,.cls-15,.cls-18,.cls-19,.cls-21{mix-blend-mode:overlay;}.cls-11{fill:#f3d632;}.cls-12{fill:#b26510;}.cls-13,.cls-15,.cls-21{fill:#fcfacc;}.cls-13{opacity:0.6;}.cls-14{opacity:0.3;}.cls-15{opacity:0.44;}.cls-16{opacity:0.46;}.cls-17{fill:url(#linear-gradient-2);}.cls-18,.cls-19{fill:#fff;}.cls-19{opacity:0.34;}.cls-20{fill:url(#linear-gradient-3);}.cls-21{opacity:0.22;}</style><linearGradient id="linear-gradient" x1="297.33" y1="599.46" x2="141.96" y2="-89.77" gradientUnits="userSpaceOnUse"><stop offset="0" stop-color="#f7e436"/><stop offset="1" stop-color="#ce7c1d"/></linearGradient><linearGradient id="linear-gradient-2" x1="284.27" y1="309.55" x2="284.27" y2="111.06" gradientUnits="userSpaceOnUse"><stop offset="0" stop-color="#ce7c1d"/><stop offset="1" stop-color="#f7e436"/></linearGradient><linearGradient id="linear-gradient-3" x1="131.95" y1="282.41" x2="131.95" y2="140.72" xlink:href="#linear-gradient-2"/></defs><g class="cls-1"><g id="Слой_2" data-name="Слой 2"><g id="Layer_20" data-name="Layer 20"><path class="cls-2" d="M370.46,418.83H48.35A48.4,48.4,0,0,1,0,370.47V48.35A48.4,48.4,0,0,1,48.35,0H370.46a48.41,48.41,0,0,1,48.36,48.35V370.47A48.41,48.41,0,0,1,370.46,418.83ZM48.35,18.59A29.79,29.79,0,0,0,18.59,48.35V370.47a29.8,29.8,0,0,0,29.76,29.77H370.46a29.81,29.81,0,0,0,29.77-29.77V48.35a29.8,29.8,0,0,0-29.77-29.76ZM365.7,365.71H53.11V53.12H365.7Zm-294-18.59H347.1V71.71H71.71Z"/><path class="cls-3" d="M370.46,9.3H48.35A39.11,39.11,0,0,0,9.29,48.35V370.47a39.11,39.11,0,0,0,39.06,39.06H370.46a39.11,39.11,0,0,0,39.06-39.06V48.35A39.1,39.1,0,0,0,370.46,9.3ZM356.4,356.41h-294v-294h294Z"/><path class="cls-4" d="M409.52,166.2V48.35a39.1,39.1,0,0,0-39.06-39H48.35A39.11,39.11,0,0,0,9.29,48.35V274.51a313.5,313.5,0,0,0,53.12,12.63V62.43h294V217C377.51,201.55,395.44,184.41,409.52,166.2Z"/><path class="cls-5" d="M356.4,106.42c22.72-13.71,40.86-29.67,53.12-47.2V48.35a39.1,39.1,0,0,0-39.06-39H48.35A39.11,39.11,0,0,0,9.29,48.35v87.72A420.19,420.19,0,0,0,62.41,149V62.43h294Z"/><path class="cls-6" d="M38,377.31l345-7,26.55,22.08-28.6,18.85s-262.5,1.52-311.07,3.28-51.52-17.42-51.52-17.42Z"/><rect class="cls-7" x="35.85" y="35.85" width="347.12" height="347.11" rx="12.5"/><path class="cls-8" d="M370.46,376.28H48.35a12.5,12.5,0,0,1-12.5-12.5v6.55a12.49,12.49,0,0,0,12.5,12.5H370.46a12.49,12.49,0,0,0,12.5-12.5v-6.55A12.5,12.5,0,0,1,370.46,376.28Z"/><path class="cls-8" d="M370.46,36.52H48.35A12.5,12.5,0,0,0,35.85,49V55a12.51,12.51,0,0,1,12.5-12.51H370.46A12.51,12.51,0,0,1,383,55V49A12.5,12.5,0,0,0,370.46,36.52Z"/><path class="cls-9" d="M360,321.27a115.3,115.3,0,0,1-12.76,11.62c-4.46,3.54-9.08,6.86-13.82,10s-9.62,6.05-14.64,8.75A113.53,113.53,0,0,1,303,358.74a111.5,111.5,0,0,1,12.74-11.64c4.47-3.55,9.09-6.86,13.83-10s9.63-6.05,14.66-8.74A112.24,112.24,0,0,1,360,321.27Z"/><path class="cls-10" d="M361.43,319.53s-19,19-34.12,27.2a205.92,205.92,0,0,1-25.74,12s16.91-3.91,29.93-11.13S361.43,319.53,361.43,319.53Z"/><path class="cls-2" d="M347.44,330.63S327.05,342.16,324,344s-13.94,9.73-13.94,9.73S333.81,345.6,347.44,330.63Z"/><path class="cls-9" d="M171.75,64.75A203.63,203.63,0,0,1,146,81.87c-8.88,5.07-18,9.69-27.22,13.95s-18.69,8.1-28.32,11.52a200,200,0,0,1-29.79,8.29A203.26,203.26,0,0,1,86.41,98.5q13.32-7.6,27.23-13.92T142,73.07A204.47,204.47,0,0,1,171.75,64.75Z"/><path class="cls-10" d="M174.83,62.09S136,90.53,107,101s-48.87,14.28-48.87,14.28,31-2.32,56.05-11.56S174.83,62.09,174.83,62.09Z"/><path class="cls-2" d="M147,77.94s-39.25,14.88-45.11,17.37-27.34,13.45-27.34,13.45S118.81,100.75,147,77.94Z"/><path class="cls-2" d="M385.36,157.47l-18.57,14.11-11.37,5.52s8.32-2.44,11.46-3.15,12.42-4.8,14.45-2.79,1.9,13.31,3.22,11.06S385.36,157.47,385.36,157.47Z"/><path class="cls-11" d="M366.88,174l-11.71,4s11.09-2,11.67-2.15,13-4.32,13.35-5.17S366.88,174,366.88,174Z"/><path class="cls-4" d="M385.45,140.43S369,165.55,367.66,166.76s-12.24,10.34-12.24,10.34l11.37-5.52L385.3,159.3Z"/><path class="cls-2" d="M410.46,146.08c-.57-1.18-25.1,11.39-25.1,11.39l-.81,24.75,25.35,10.1S416.77,159.21,410.46,146.08Z"/><path class="cls-4" d="M32.93,374.35s17.1-3.26,19.93-19.52-14.57-17-14.57-17Z"/><path class="cls-4" d="M50.85,352.39a21.64,21.64,0,0,1-10,11s.65.5.74,3.07a22,22,0,0,0,.51,4.23s8.8-5,10.56-12.57-.42-12-.42-12A50.64,50.64,0,0,1,50.85,352.39Z"/><path class="cls-2" d="M7.23,330.42s34.24,7.72,36.06,8.4S53.66,346.7,53.1,350a104.8,104.8,0,0,1-3,10.52s-2.31-16-4.5-16-6.1,5.34-11.54,7.86S7.23,356.6,7.23,356.6Z"/><polygon class="cls-2" points="176.95 389.18 184.34 383.27 165.03 383.51 169.92 388.42 169.1 409.43 176.75 409.43 184.14 405.18 177.66 402.74 176.95 389.18"/><path class="cls-3" d="M207.65,407.75s-18.37,1.35-16.88-.51,1.15-4.68-1-4.86-10.55-4.82-9.85-5.4,1.58-8.83,1.58-8.83,7,.69,21.31-1.59-24.21.73-13.67-3.59l-4.8.3L177,389.18l.71,13.55,6.48,2.45-6.85,6.08Z"/><path class="cls-10" d="M84.16,14.83c-33.2-3.22-37.79-5.66-50.47,0-8.95,4-6.33,17.37,7.62,17.37S117.36,18.06,84.16,14.83Z"/><path class="cls-10" d="M330.5,12.94c-13.65-.29-187.91-1-205.5,0s-22.59,10.63-11,13.94,192.82,1.66,214.76-3S351.09,13.38,330.5,12.94Z"/></g><g id="Layer_9" data-name="Layer 9"><path class="cls-2" d="M384.41,147.09V147c-.14-.57-3.5-14.06-16.22-28-1.67-1.87-3.37-3.61-5.08-5.19a84,84,0,0,0-16.69-12A105.63,105.63,0,0,0,319,91.39l-.62-.13-.32-.08a130.35,130.35,0,0,0-13.53-2.46,138.13,138.13,0,0,0-15.27-1.21c-2.21-.09-4-.12-5.65-.12A111.79,111.79,0,0,0,259.75,90c-2.4.54-5,1.19-7.85,2-20.52,5.5-36.52,15.08-46.8,21.83l-.12.08c-2.66,1.71-5.11,3.37-7.23,4.9-4.72,3.3-9,6.5-12.81,9.56l-18.09-16.89L134,149.16l-36.3-42.55L33.27,164.35,76,211.69l-43.86,46.2,58.3,59.36,39.17-43.09,37,42.84,29.59-24.34-.9,1.56,14.32,13.23a97.39,97.39,0,0,0,28.28,18.3,110.41,110.41,0,0,0,30.67,8.11,116.52,116.52,0,0,0,12.94.73h.14a112.49,112.49,0,0,0,17.55-1.38,99.9,99.9,0,0,0,28.46-8.9,80.48,80.48,0,0,0,23.77-17.58c1.3-1.41,2.61-3,4-4.81l3.46-4.57-.35-.19a63.42,63.42,0,0,0,7.74-18.27l.06-.25a61.85,61.85,0,0,0,1.75-15.18v-.08a53.09,53.09,0,0,0-10.24-31.61,119.17,119.17,0,0,0,10-9.4,77.56,77.56,0,0,0,11.55-15.63,74.2,74.2,0,0,0,7.44-19.31,68,68,0,0,0,1.1-23.81A89.32,89.32,0,0,0,384.41,147.09ZM225.3,242.58l-4,6.82L183.16,207l18.63-21.13,23.08,36.34.24.38Z"/><path class="cls-12" d="M226.2,289.75,242.32,262a95.63,95.63,0,0,0,17.93,9.29,64.87,64.87,0,0,0,15.05,3.89,37.92,37.92,0,0,0,12-.29,27.35,27.35,0,0,0,8.71-3.17,15.11,15.11,0,0,0,5.11-4.68,7.58,7.58,0,0,0,1.37-5,15.67,15.67,0,0,0-3.74-8.42,22.24,22.24,0,0,0-7.49-5.4,43,43,0,0,0-10-3A97.28,97.28,0,0,0,270,243.75q-5.69-.36-11-.36h-9.36l-.29-29.81q17.42,0,29.95-3t19.51-8q7-5,8.42-11.38t-3-13.17a17.44,17.44,0,0,0-11.3-7.35,41,41,0,0,0-17,.44,89.47,89.47,0,0,0-20.45,7.27,127.89,127.89,0,0,0-21.38,13.17l-29.81-46.94q1.73-1.44,5.62-4.39t9.57-6.55q5.69-3.6,12.82-7.49a130.49,130.49,0,0,1,15.33-7.06A120.82,120.82,0,0,1,265,113.94a86.63,86.63,0,0,1,18.65-2q6.77,0,15,.8a103.83,103.83,0,0,1,16.64,3,94.75,94.75,0,0,1,16.55,6.12,59.05,59.05,0,0,1,14.76,10,55.46,55.46,0,0,1,11.23,14.69,57,57,0,0,1,6.05,20.23,43.23,43.23,0,0,1-.65,15.26,49.64,49.64,0,0,1-5,13,53.17,53.17,0,0,1-7.92,10.73,94.76,94.76,0,0,1-9.51,8.71,107.61,107.61,0,0,1-27.07,14.83,55.21,55.21,0,0,1,17.43,9.65,46.17,46.17,0,0,1,5.76,6,32,32,0,0,1,4.53,7.63,30.32,30.32,0,0,1,2.23,9.43,36,36,0,0,1-1,11.24,39,39,0,0,1-9.29,17.2,55.91,55.91,0,0,1-16.63,12.24,75.24,75.24,0,0,1-21.53,6.7,88.36,88.36,0,0,1-23.9.5,85.54,85.54,0,0,1-23.9-6.33A73,73,0,0,1,226.2,289.75Z"/><path class="cls-12" d="M281.52,329.9a109.35,109.35,0,0,1-12.36-.7,105.16,105.16,0,0,1-29.32-7.75A92.8,92.8,0,0,1,213,304.06l-11.46-10.59,28.68-49.42-.24-25-1,.73-50.3-79.23,13.16-11c1.4-1.16,3.4-2.72,6.3-4.92,3.05-2.32,6.73-4.85,10.94-7.51s8.81-5.34,13.91-8.13A148.93,148.93,0,0,1,240.63,101a139.82,139.82,0,0,1,20.17-6,106.55,106.55,0,0,1,22.85-2.47c5.08,0,10.75.3,16.84.88a124.41,124.41,0,0,1,19.76,3.59,114.65,114.65,0,0,1,20,7.37,79,79,0,0,1,19.58,13.27A75.58,75.58,0,0,1,375,137.32a76.77,76.77,0,0,1,8.23,27.08,62.83,62.83,0,0,1-1,22.1,68.92,68.92,0,0,1-6.94,18,72.67,72.67,0,0,1-10.82,14.65,113.41,113.41,0,0,1-11.48,10.51l-.27.22-1.76,1.31q.6.71,1.17,1.41a51.36,51.36,0,0,1,7.33,12.28,50.13,50.13,0,0,1,3.71,15.43,55,55,0,0,1-1.47,17.35l-.05.23a58.36,58.36,0,0,1-13.87,25.68,75.66,75.66,0,0,1-22.34,16.51,95.2,95.2,0,0,1-27.07,8.46A106.61,106.61,0,0,1,281.52,329.9Zm39.83-73.27c.17.85.33,1.7.45,2.57l.06.5a27,27,0,0,1-4.29,17.79,32.88,32.88,0,0,1-2.54,3.42,34.17,34.17,0,0,0,4.05-3.72,19.68,19.68,0,0,0,4.68-8.62,16.89,16.89,0,0,0,.52-5,11.53,11.53,0,0,0-.76-3.45,12.72,12.72,0,0,0-1.75-3ZM286,150.5a52.47,52.47,0,0,1,11,1.12,36.88,36.88,0,0,1,23.38,15.49l.12.18c7.45,11.31,7.25,21.56,5.77,28.17a34.79,34.79,0,0,1-2.46,7.12q2.63-1.68,5-3.5a76.12,76.12,0,0,0,7.4-6.8,33.84,33.84,0,0,0,5-6.8,30.35,30.35,0,0,0,3-7.89,24.22,24.22,0,0,0,.27-8.43,38.11,38.11,0,0,0-3.87-13.38,36.18,36.18,0,0,0-7.29-9.6,39.53,39.53,0,0,0-9.94-6.74,74.91,74.91,0,0,0-13.15-4.86,85.46,85.46,0,0,0-13.51-2.47c-4.84-.46-9.26-.7-13.1-.7A66.91,66.91,0,0,0,269.2,133a101.47,101.47,0,0,0-14.54,4.33,109.4,109.4,0,0,0-13,6c-4.07,2.22-7.78,4.37-11,6.4L240,164.48c2.33-1.3,4.66-2.51,7-3.65A109.7,109.7,0,0,1,271.93,152,68.2,68.2,0,0,1,286,150.5Zm-6.17,39.7a54.18,54.18,0,0,0-5.78,1.58l.7-.16C276.7,191.15,278.38,190.67,279.84,190.2Zm9.31-.4Z"/><path class="cls-12" d="M333.4,289.54l-107.2-1-24.69,4.9L213,304.06a92.8,92.8,0,0,0,26.87,17.39,105.16,105.16,0,0,0,29.32,7.75,109.35,109.35,0,0,0,12.36.7,106.61,106.61,0,0,0,16.79-1.32,95.2,95.2,0,0,0,27.07-8.46,75.66,75.66,0,0,0,22.34-16.51,60.34,60.34,0,0,0,4-4.9Z"/><path class="cls-2" d="M240,321.45a105.16,105.16,0,0,0,29.32,7.75,109.35,109.35,0,0,0,12.36.7,106.61,106.61,0,0,0,16.79-1.32,95.2,95.2,0,0,0,27.07-8.46,75.66,75.66,0,0,0,22.34-16.51c1.32-1.43,2.54-2.93,3.7-4.46l-18-9.61-107.2-1-24.69,4.9,11.46,10.59A92.8,92.8,0,0,0,240,321.45Z"/><path class="cls-13" d="M178.68,140.59l25.63,3.16s25.53-21.07,50-28.15,46.94-6.28,67.43.94S351,135,355.15,140.68s7.06,16.16,7.06,16.16l17.45-8.5s-9.58-39.76-61.74-52-89,7.82-110.21,21.77S178.68,140.59,178.68,140.59Z"/><g class="cls-14"><polygon class="cls-15" points="201.51 293.47 226.2 288.56 242.32 261.1 230.19 244.05 201.51 293.47"/><polygon class="cls-15" points="234.12 190.69 204.31 143.75 178.68 140.59 228.98 219.81 234.12 190.69"/><polygon class="cls-15" points="249.38 212.7 229.95 219.09 230.19 244.05 249.67 242.5 249.38 212.7"/></g><path class="cls-13" d="M350.9,231.23l-37.16-2.82s16.84,5,24.62,17.52a35.24,35.24,0,0,1,1.25,34.7c-4.08,7.63-6.21,8.91-6.21,8.91l18.37,9.18a60.59,60.59,0,0,0,11.49-35.15C363.25,242.93,350.9,231.23,350.9,231.23Z"/><path class="cls-16" d="M229,219.82a119.08,119.08,0,0,1,45.78-28.2c28-9.17,32.16-.08,32.16-.08s5.45-7.14,4.43-10.06-4.18-15.1-10-17.3-3.16-7.55-29.22-2.43-38,28.94-38,28.94Z"/><path class="cls-16" d="M230.19,244.05l18,9.28s38.66,5.21,45.79,9,8.29,5.46,8.29,5.46,7.45-2.54,6.28-9.12,7.35-15.83-10.43-19.72-47.63,3.54-47.63,3.54Z"/><path class="cls-17" d="M226.2,288.89l16.12-27.79a96.23,96.23,0,0,0,17.93,9.29,64.81,64.81,0,0,0,15.05,3.88,38,38,0,0,0,12-.28,27.59,27.59,0,0,0,8.71-3.17,15.11,15.11,0,0,0,5.11-4.68,7.61,7.61,0,0,0,1.37-5,15.64,15.64,0,0,0-3.74-8.42,22,22,0,0,0-7.49-5.4,43,43,0,0,0-10-3A99.52,99.52,0,0,0,270,242.88c-3.79-.23-7.46-.36-11-.36h-9.36l-.29-29.8q17.42,0,29.95-3t19.51-8q7-5,8.42-11.37t-3-13.18a17.43,17.43,0,0,0-11.3-7.34,41,41,0,0,0-17,.43,90.43,90.43,0,0,0-20.45,7.27,128.63,128.63,0,0,0-21.38,13.18l-29.81-46.94q1.73-1.44,5.62-4.4t9.57-6.55q5.69-3.6,12.82-7.48a127.33,127.33,0,0,1,15.33-7.06A119.56,119.56,0,0,1,265,113.08a86,86,0,0,1,18.65-2q6.77,0,15,.79a103.87,103.87,0,0,1,16.64,3A94,94,0,0,1,331.81,121a59,59,0,0,1,14.76,10,55.63,55.63,0,0,1,11.23,14.69,57.06,57.06,0,0,1,6.05,20.23,43.23,43.23,0,0,1-.65,15.26,49.37,49.37,0,0,1-5,13,52.89,52.89,0,0,1-7.92,10.73,93.58,93.58,0,0,1-9.51,8.71,107,107,0,0,1-27.07,14.83,55.4,55.4,0,0,1,17.43,9.65,46.27,46.27,0,0,1,5.76,6,31.8,31.8,0,0,1,4.53,7.63,30.25,30.25,0,0,1,2.23,9.43,35.92,35.92,0,0,1-1,11.23,39,39,0,0,1-9.29,17.21,56.25,56.25,0,0,1-16.63,12.24,75.23,75.23,0,0,1-21.53,6.69,88.36,88.36,0,0,1-23.9.51,85.91,85.91,0,0,1-23.9-6.34A72.75,72.75,0,0,1,226.2,288.89Z"/><path class="cls-18" d="M341.46,251.63a31.8,31.8,0,0,0-4.53-7.63,46.27,46.27,0,0,0-5.76-6c-1.48-1.24-10-7.74-17.43-9.61-3.7,1.9-2.89,8.51,1,11.33a55.26,55.26,0,0,1,17.42,9.65,44.88,44.88,0,0,1,5.76,6,32.36,32.36,0,0,1,4.54,7.63,27.48,27.48,0,0,1,1.2,3.59,31,31,0,0,0,.05-5.52A30.25,30.25,0,0,0,341.46,251.63Z"/><path class="cls-18" d="M298.84,201.68q-7,5-19.51,8t-29.95,3l.29,29.8h.86l-.18-18.44q17.43,0,30-3t19.51-8q7-5,8.43-11.38a15.47,15.47,0,0,0-1.32-10.13C305.72,195.31,303,198.69,298.84,201.68Z"/><path class="cls-18" d="M363.85,165.94a57.06,57.06,0,0,0-6.05-20.23A55.63,55.63,0,0,0,346.57,131a59,59,0,0,0-14.76-10,94,94,0,0,0-16.55-6.12,103.87,103.87,0,0,0-16.64-3q-8.21-.78-15-.79a86,86,0,0,0-18.65,2,119.56,119.56,0,0,0-17.35,5.18,127.33,127.33,0,0,0-15.33,7.06q-7.14,3.89-12.82,7.48t-9.57,6.55q-3.9,3-5.62,4.4l5.13,8.08,1.46-1.11q3.89-2.94,9.58-6.55t12.81-7.49a128.3,128.3,0,0,1,15.34-7A120.45,120.45,0,0,1,266,124.46a86.53,86.53,0,0,1,18.64-2q6.76,0,15,.79a105,105,0,0,1,16.63,3,94.85,94.85,0,0,1,16.56,6.12,59.42,59.42,0,0,1,14.76,10,55.84,55.84,0,0,1,11.23,14.69,54.36,54.36,0,0,1,5.43,16.21A50,50,0,0,0,363.85,165.94Z"/><path class="cls-18" d="M301.22,265.69l-.08.12a15.11,15.11,0,0,1-5.11,4.68,27.35,27.35,0,0,1-8.71,3.17,37.92,37.92,0,0,1-12,.29,64.87,64.87,0,0,1-15.05-3.89,95.63,95.63,0,0,1-17.93-9.29l-16.12,27.8q2.46,2.26,5.08,4.29l12-20.72a96.17,96.17,0,0,0,17.92,9.29,65.51,65.51,0,0,0,15,3.89,38.29,38.29,0,0,0,12-.29,27.68,27.68,0,0,0,8.71-3.17,15.3,15.3,0,0,0,5.11-4.68,7.66,7.66,0,0,0,1.37-5A16.46,16.46,0,0,0,301.22,265.69Z"/><path class="cls-19" d="M255.5,177.51a90.37,90.37,0,0,1,20.44-7.27,41,41,0,0,1,17-.43,17.45,17.45,0,0,1,11.31,7.34q4.45,6.78,3,13.18a15.86,15.86,0,0,1-2.5,5.56A95,95,0,0,1,348,207.19c.77-.75,1.54-1.53,2.29-2.32a52.89,52.89,0,0,0,7.92-10.73,49,49,0,0,0,5-13,43.46,43.46,0,0,0,.65-15.26,57.26,57.26,0,0,0-6.05-20.23A55.84,55.84,0,0,0,346.57,131a59.38,59.38,0,0,0-14.76-10,93.76,93.76,0,0,0-16.56-6.12,103.75,103.75,0,0,0-16.63-3q-8.21-.78-15-.79a85.93,85.93,0,0,0-18.65,2,119.18,119.18,0,0,0-17.35,5.18,127.48,127.48,0,0,0-15.34,7.06q-7.12,3.88-12.81,7.48t-9.58,6.55q-3.88,3-5.61,4.4l29.8,46.94A129.11,129.11,0,0,1,255.5,177.51Z"/><path class="cls-12" d="M169.53,283.27l-39.45-45.64L89.76,282,66,257.79l43.2-45.5L67.73,166.35l27.65-24.76,38.44,45.07,34.85-40,19.44,18.14-37.58,42.62L197.9,260Z"/><polygon class="cls-12" points="167.22 310.4 129.71 267 90.31 310.34 38.92 258.02 82.65 211.95 40.16 164.89 97.25 113.75 133.97 156.81 167.22 118.62 215.25 163.45 176.63 207.25 226.02 262.05 167.22 310.4"/><path class="cls-20" d="M169.53,282.41l-39.45-45.64L89.76,281.11,66,256.92l43.2-45.5L67.73,165.49l27.65-24.77,38.44,45.07,34.85-40,19.44,18.15-37.58,42.62,47.37,52.55Z"/><polygon class="cls-18" points="183.05 169.63 188.11 163.9 168.67 145.75 133.82 185.78 95.38 140.71 67.73 165.48 73.84 172.25 96.35 152.08 134.8 197.15 169.64 157.12 183.05 169.63"/><polygon class="cls-18" points="151.23 217.57 192.3 263.14 197.63 258.76 150.53 206.53 151.23 217.57"/><polygon class="cls-18" points="66.3 256.6 72.28 262.69 110.47 222.46 109.2 211.42 66.3 256.6"/><polygon class="cls-15" points="38.92 258.02 66 256.6 109.2 211.42 82.65 211.95 38.92 258.02"/><polygon class="cls-2" points="89.76 281.98 90.31 310.34 129.65 267.07 129.65 237.25 89.76 281.98"/><polygon class="cls-16" points="130.08 236.76 129.65 237.25 129.65 267.07 129.71 267 167.22 310.4 167.6 305.04 169.53 282.4 130.08 236.76"/><polygon class="cls-2" points="197.9 258.76 169.53 282.41 169.53 282.4 167.22 310.4 226.02 262.05 197.9 258.76"/><polygon class="cls-15" points="150.53 206.53 176.63 207.25 226.02 262.05 197.23 258.02 150.53 206.53"/><polygon class="cls-13" points="40.16 164.89 67.73 165.49 95.38 140.72 95.4 140.75 97.25 113.75 40.16 164.89"/><polygon class="cls-13" points="133.82 185.79 168.7 145.92 167.22 118.62 133.97 156.81 133.82 185.78 133.82 185.79"/><polygon class="cls-21" points="133.82 185.79 133.82 185.78 133.97 156.81 97.25 113.75 95.4 140.75 133.82 185.79 133.82 185.79"/><polygon class="cls-21" points="188.11 163.9 168.67 146.63 167.22 118.62 215.25 163.45 188.11 163.9"/></g></g></g></svg>