<svg xmlns="http://www.w3.org/2000/svg" xmlns:xlink="http://www.w3.org/1999/xlink" viewBox="0 0 91.4 109.21"><defs><style>.cls-1{isolation:isolate;}.cls-13,.cls-2,.cls-3{fill:#ffda80;}.cls-22,.cls-23,.cls-25,.cls-27,.cls-29,.cls-3,.cls-31,.cls-32,.cls-36,.cls-44,.cls-45,.cls-49{mix-blend-mode:multiply;}.cls-3{opacity:0.87;}.cls-22,.cls-4{fill:#e96f00;}.cls-5,.cls-7,.cls-8{fill:#ffd32f;}.cls-6{fill:#c62800;}.cls-11,.cls-13,.cls-14,.cls-18,.cls-28,.cls-30,.cls-37,.cls-46,.cls-47,.cls-7,.cls-8{mix-blend-mode:screen;}.cls-7{opacity:0.54;}.cls-8{opacity:0.43;}.cls-9{fill:#7c0000;}.cls-10{fill:#ffbdbb;}.cls-11{fill:#de3f37;}.cls-11,.cls-46,.cls-47{opacity:0.41;}.cls-12{fill:#fff66a;}.cls-13{opacity:0.62;}.cls-14{fill:#ef9d00;}.cls-14,.cls-28{opacity:0.46;}.cls-15{fill:#564100;}.cls-16,.cls-18{fill:#796835;}.cls-17{fill:#40301b;}.cls-18{opacity:0.56;}.cls-19{fill:#291700;}.cls-20,.cls-45,.cls-46{fill:#6ac71a;}.cls-21{fill:#a6ed17;}.cls-22{opacity:0.5;}.cls-23,.cls-51{fill:#e2ad53;}.cls-23{opacity:0.81;}.cls-24,.cls-25,.cls-31{fill:#bf1868;}.cls-25{opacity:0.69;}.cls-26,.cls-27,.cls-28,.cls-30,.cls-49{fill:#f24db2;}.cls-27,.cls-29{opacity:0.59;}.cls-29{fill:#c82591;}.cls-30{opacity:0.64;}.cls-31{opacity:0.25;}.cls-32{fill:#eaab1b;opacity:0.73;}.cls-33{fill:#fff;}.cls-34,.cls-36,.cls-37{fill:#9c4500;}.cls-35{fill:#5d2a00;}.cls-36{opacity:0.4;}.cls-37{opacity:0.45;}.cls-38{fill:#e2e2e2;}.cls-39{fill:url(#linear-gradient);}.cls-40{fill:#452000;}.cls-41{fill:url(#linear-gradient-2);}.cls-42{fill:#431600;}.cls-43,.cls-44,.cls-47{fill:#51ddf9;}.cls-44{opacity:0.6;}.cls-45{opacity:0.32;}.cls-48{fill:#e53498;opacity:0.27;}.cls-49{opacity:0.57;}.cls-50{fill:#801e3b;}.cls-52{fill:#c57c00;}.cls-53{fill:#ffe55e;}</style><linearGradient id="linear-gradient" x1="31.63" y1="30.88" x2="35.06" y2="30.88" gradientUnits="userSpaceOnUse"><stop offset="0" stop-color="#ffff2a"/><stop offset="1" stop-color="#ff7717"/></linearGradient><linearGradient id="linear-gradient-2" x1="37.26" y1="31.06" x2="41.27" y2="31.06" xlink:href="#linear-gradient"/></defs><g class="cls-1"><g id="Слой_2" data-name="Слой 2"><g id="Слой_2-2" data-name="Слой 2"><path class="cls-2" d="M58.34,18.61a9.4,9.4,0,0,1-2,3.18c-2.85,2.52-2.83,6.49-3.33,10A61.46,61.46,0,0,0,52.4,40a48.22,48.22,0,0,0,1.15,11c.8,3.53,2.38,6.76,3.34,10.23a38.47,38.47,0,0,1,1.45,10.34c0,1.13.51,3.82-1.34,3.17s-2.42-5.55-2.91-7.18c-1.35-4.48-2.55-9-4.06-13.4s-3.72-10.1-3.1-14.87c.27-2,.78-2.2,2.22-2.95,1.26-.67,1.36-1.42,1.37-3,0-3.38-.64-7.22,1-10.39.46-.89,9-8.55,9.71-7.42A4,4,0,0,0,58.62,18C58.52,18.22,58.44,18.41,58.34,18.61Z"/><path class="cls-3" d="M57.52,72a35.25,35.25,0,0,0-2.33-15c-1.15-2.76-2.68-5.29-3.58-8.17-.5-1.58-1.9-4.79-1.24-6.29.09.13.32.35.39.47a12,12,0,0,0-.25-2.29,2.44,2.44,0,0,0,.56.78A22.73,22.73,0,0,0,51.33,35a15,15,0,0,1,.7-5.25c.35-1.09.49-2.77.82-3.87a8,8,0,0,1,1.71-3.31c1-1.13,3.92-4,2.68-5.6s-4.7,1.36-5.5,2.05a23.6,23.6,0,0,0-7.66,14,39.5,39.5,0,0,0,3.56,25.81c2.1,4.18,5.1,8,6.73,12.42C55.34,73.86,57.05,72.69,57.52,72Z"/><path class="cls-4" d="M34.51,68.91l-.12,0c-1.84-.73-3-2.73-4.66-3.81-2.31-1.5-3.95-1.62-6.41-2.26-2.15-.57-2.54-2.74-2.65-4.71-1.77,2.34-4.7,3.34-4.43,6.83.2,2.5,2.16,4.57,4,6.12a42.9,42.9,0,0,0,14.18,7.59c5,1.66,9.8,4,15.06,4.76a6.68,6.68,0,0,0,6.35-2.3c1.75-1.93,3.75-5.41,2.18-8-1.32-2.24-2.94-.21-4.61.32-2.75.89-6.33-.65-8.93-1.6-1.74-.64-3.33-1.87-5.12-2.23C37.72,69.21,36.09,69.49,34.51,68.91Z"/><path class="cls-5" d="M21.57,62.6c1.88,1.53,5.05.57,7.09,2.35,2.81,2.45,4.16,5.27,8.37,4.88,3.14-.29,4.25,1.64,7,2.89,2.47,1.1,6,2.25,8.79,1.69.68-.14,1-.7,1.65-.62S55.59,75,56.4,74.88c2.92-.32-.23-12.26-.75-14.07-1-3.69-3-6.33-4.44-9.78-1.27-3.14-3.09-8-1.59-11.3.19.24.7.5.87.7.62-1.13-.38-2.34.23-3.44,1.57,2,2.38-.72,2.34-2.16-.11-3.3-2-6.39-1.13-9.77.84-3.1,2.9-2.74,4.61-4.69.93-1.06,3.06-5.73,5.19-4.62,1.6.83-.45,3.63-.61,4.92s-.26,5.26,2.07,3.76c2.65-1.7,1.88-9.82-.67-11.39-1.08-.66-1-.62-1.92.18-.39.33-.24,1-.63,1.39s-1.09,0-1.42.2c-1,.56-1.33,1.37-2.3,1.67-1.21.36-3-.56-4.21-.56a11.57,11.57,0,0,0-5.94,1.76c-2.22,1.44-2.83,4.13-5.31,5.39-4.44,2.26-10.88.95-12.46,7.13a21.36,21.36,0,0,1-4,8.09A10.77,10.77,0,0,0,21.57,46c0,3-.95,5.84-1.25,8.8C20.12,56.83,19.83,61.17,21.57,62.6Z"/><path class="cls-6" d="M47.6,69.57c5.51-5.35-2.32-18.71-7.37-12.23-2.52,3.24.25,9.28,2.72,11.88C44.45,70.79,46,71.14,47.6,69.57Z"/><path class="cls-6" d="M23.39,56.93c4.27.07,1.94-9.11-1.08-10.22-5-1.83-4,4.85-2.26,7.3C20.64,54.86,22.21,56.91,23.39,56.93Z"/><path class="cls-6" d="M43.53,35.69c2.41,4.9,8.76-5.44,4.11-6.24C45.38,29.06,42.63,33.86,43.53,35.69Z"/><path class="cls-7" d="M52.43,23l.1-.14c.39-.67-.25-1-.53-1.52-.52-.92,1-1.05,1.63-1.08a4.62,4.62,0,0,0,2.23-.68,4.46,4.46,0,0,0,1.43-1.74,9.73,9.73,0,0,1,4.19-3.39c-.59-.52-.85.21-1.5.41s-1.09,0-1.74.33a28.84,28.84,0,0,1-2.76,1.59,3.89,3.89,0,0,1-2.43.38c-1-.27-1.24-.83-2.28-.8a8.28,8.28,0,0,0-4.13,1.72,18.09,18.09,0,0,0-2.77,2.83c-.43.49-.88,1-1.36,1.43-.26.25-.94.61-.88,1s.38.44.4.79A3.24,3.24,0,0,1,40.33,27c-1.17.63-2.38.38-2.58-1-.14-1-.65-1.08-1.51-.91a14.78,14.78,0,0,0-3,.92A10.45,10.45,0,0,0,30.2,27.9c-.52.49-1.25,2-.37,2.56.36.21.85,0,1.24.11,1.66.33,2.29,2.5,2.12,4-.24,2-2.23,2.63-4,2.57a2.37,2.37,0,0,1-1.1-.31c-.19-.13-.38-.44-.59-.51-.77-.3-1.37.95-1.7,1.44-.51.76-1.24,1.73-1,2.7.55,2.25,3.15-.22,4.19-.84a11.91,11.91,0,0,1,5.28-1.41c1.63-.1,2.91,0,4-1.39,1.18-1.55,1.78-3.45,3.07-5a24.85,24.85,0,0,1,3-3.17,2.71,2.71,0,0,1,.89-.57c.2-.07.48,0,.66-.06.47-.22.11-.9.13-1.36a4.1,4.1,0,0,1,1.72-3.21,4.62,4.62,0,0,1,3-.27C51.21,23.25,52,23.49,52.43,23Z"/><path class="cls-8" d="M63.13,22.77c.85.91,1-3.72,1-3.89-.06-1.6-.38-3.42-1.73-4.45A11.15,11.15,0,0,1,63,19.08C62.83,20.23,62.19,21.77,63.13,22.77Z"/><path class="cls-8" d="M37.26,39.41a3.89,3.89,0,0,0,1.86-.68c1.53-1.23.7-4.18,3.14-5,.12,1.18-1.41,2-.67,3.32s3.71,1.26,5,.89c2.07-.6,2.77-3.71,3.36-5.48.75-2.27,2-.76,2.26,1.12.08.54.25,1.51-.28,1.93-.73.58-.77-.43-1.48-.27-1.21.27-.25,2.18-.6,3.13-.17-.14-.63-.23-.81-.38a18.9,18.9,0,0,1-.53,2.18,12.68,12.68,0,0,0-.25,2.22,9.33,9.33,0,0,0,.19,2.3c.1.4.63,1.17.29,1.56S47.35,46,47,45.93c-2-.1-3.41,2-3.3,3.85.12,2.07,2.07,4.07,4.27,3.55.87-.21,1.27-.8,2-1.21,1.3-.77,1.89,2,2.23,2.76.67,1.56,1.33,3.13,1.87,4.73.85,2.48,3.14,8.84.89,11.12-1,1-3.21,1.08-4.53.81-2-.43-1-1,0-2.13,1.26-1.57,1.39-4,1.11-5.9-.43-3-2.11-6.47-4.76-8.1s-5.8-2.36-7.75.68c-2.16,3.38,1.19,7.11.7,10.53-1.78-2.06-1.53-4.48-2.55-6.79-.46.8.33,1.53,0,2.3-4-1.44-1-8.25,0-10.56.5-1.17.9-2.26-.82-2.11S34,51.35,33.46,52.55s-.9,3.65-2.48,2.87c-1-.52-.94-2-2.28-.82s-1.29,3-3,4c-.73.45-2.93,1-2.66-.54,2.27.67,3.57-1.77,4.07-3.57a7.07,7.07,0,0,0-.64-5.53c-1-1.6-3-2.07-3.85-3.48-.76-1.2.81-3.87,1.4-4.86.44,1.3-1.12,2.82,1.5,2.19,2.33-.57,4.06-2.37,6.43-3C33.33,39.44,35.53,39.67,37.26,39.41Z"/><path class="cls-9" d="M46.91,35a3.88,3.88,0,0,1-2.73.79,1.65,1.65,0,0,1-.73-.34,1.19,1.19,0,0,0,.08.2c1.62,3.3,5-.31,5.66-3.27A6.33,6.33,0,0,1,46.91,35Z"/><path class="cls-9" d="M46.64,57.35c.13.22.24.44.35.66,1.4,2.9,2.16,6.93.93,10a3.52,3.52,0,0,1-3.34,2.38,2.72,2.72,0,0,0,3-.84C50.88,66.37,49.42,60.33,46.64,57.35Z"/><path class="cls-9" d="M23.28,47.36a9.07,9.07,0,0,1,1.34,3.34c.34,1.75.35,3.88-.95,5.25a2,2,0,0,1-1.22.64,2,2,0,0,0,.94.34C27.18,57,25.77,49.74,23.28,47.36Z"/><path class="cls-10" d="M46.62,30.44h0c-.22-.05-.49.16-.63.3a1.34,1.34,0,0,0-.25.37.81.81,0,0,0,0,.41.33.33,0,0,0,.58.13c.12-.15.19-.29.29-.44a3.07,3.07,0,0,0,.27-.36A.24.24,0,0,0,46.62,30.44Z"/><path class="cls-10" d="M45.36,32.49a.15.15,0,0,0-.18,0,.85.85,0,0,0-.17.25c0,.08-.11.17-.09.26a.1.1,0,0,0,.12.08c.1,0,.17-.12.23-.19a1.48,1.48,0,0,0,.16-.27A.15.15,0,0,0,45.36,32.49Z"/><path class="cls-10" d="M47.87,31.71h0a.74.74,0,0,0-.54.2.67.67,0,0,0-.24.66.38.38,0,0,0,.52.27.8.8,0,0,0,.41-.42l0-.08s0,0,0,0a.54.54,0,0,0,.09-.26l0,0C48.2,31.84,48,31.71,47.87,31.71Z"/><path class="cls-10" d="M45.81,34l-.25.42s0,.06,0,0l.32-.38C46,34,45.86,33.9,45.81,34Z"/><path class="cls-10" d="M21.19,50a.66.66,0,0,0-.05-.28l-.1-.37a2.07,2.07,0,0,0-.24-.67.47.47,0,0,0-.66-.06,1.14,1.14,0,0,0-.25,1.09,1.23,1.23,0,0,0,.26.54,1,1,0,0,0,.5.28.4.4,0,0,0,.52-.44C21.18,50.2,21.19,50,21.19,50Z"/><path class="cls-10" d="M22.67,50.12a1,1,0,0,0-.06-.23l-.06-.14c0-.19-.26-.16-.33,0l-.07.1-.06.12a.78.78,0,0,0,0,.34.54.54,0,0,0,.38.46.14.14,0,0,0,.18-.09.2.2,0,0,0,0-.11A.67.67,0,0,0,22.67,50.12Z"/><path class="cls-10" d="M21.91,53.72a1.66,1.66,0,0,0-.52-.71,1.18,1.18,0,0,0-.22-.17.28.28,0,0,0-.4.07,1.07,1.07,0,0,0,.79,1.57.42.42,0,0,0,.39-.27A.63.63,0,0,0,21.91,53.72Z"/><path class="cls-10" d="M23.42,53.52l0-.08a.3.3,0,0,0-.1-.19.62.62,0,0,0-.21-.15c-.1-.05-.18.06-.18.15a.49.49,0,0,0,.22.39.46.46,0,0,0,.07.07.15.15,0,0,0,.16,0l.06-.06A.14.14,0,0,0,23.42,53.52Z"/><path class="cls-10" d="M42.15,61.33a1.74,1.74,0,0,0-.57-1,.59.59,0,0,0-.89.28,1.71,1.71,0,0,0,.06,1.18,1.2,1.2,0,0,0,.53.73l0,0a.47.47,0,0,0,.69-.17A1.17,1.17,0,0,0,42.15,61.33Z"/><path class="cls-10" d="M43.23,58.81c-.08-.18-.38-.62-.62-.4a.74.74,0,0,0-.21.71,1.11,1.11,0,0,0,.09.4.71.71,0,0,0,.24.3c.07,0,.07,0,0,0l.1.12a.29.29,0,0,0,.22,0c.17,0,.21-.19.24-.34A1,1,0,0,0,43.23,58.81Z"/><path class="cls-10" d="M45.51,66.21a3.78,3.78,0,0,0-.22-.33.54.54,0,0,0-.16-.14s-.14,0-.17,0a.2.2,0,0,0-.3.1h0a.42.42,0,0,0-.14.4,1.72,1.72,0,0,0,.38,1.09.45.45,0,0,0,.79-.25A1.54,1.54,0,0,0,45.51,66.21Z"/><path class="cls-10" d="M47.25,62.33c-.12-.25-.48-.56-.78-.41a1,1,0,0,0-.3,1.33.58.58,0,0,0,1,.09A1,1,0,0,0,47.25,62.33Z"/><path class="cls-10" d="M45,61.71a1.19,1.19,0,0,0-.08-.2.32.32,0,0,0-.13-.15c-.05,0-.05,0,0,0a.25.25,0,0,0-.48.09s0,0,0,0a.28.28,0,0,0-.06.18,1.62,1.62,0,0,0,0,.22,1.59,1.59,0,0,0,.14.57A.38.38,0,0,0,45,62.3,1.47,1.47,0,0,0,45,61.71Z"/><path class="cls-10" d="M43.15,66.67a.84.84,0,0,0-.09-.25.63.63,0,0,0-.23-.23.24.24,0,0,0-.38.18.51.51,0,0,0,0,.3.84.84,0,0,0,.13.27c.1.15.18.3.37.34a.21.21,0,0,0,.19-.09C43.24,67.05,43.17,66.84,43.15,66.67Z"/><path class="cls-10" d="M45.67,57.37a1,1,0,0,0-.48-.69.3.3,0,0,0-.44.36,2.7,2.7,0,0,0,.22.53,1.09,1.09,0,0,0,.23.32l.12.23a.17.17,0,0,0,.28,0,.67.67,0,0,0,0-.19.22.22,0,0,1,0-.09A.85.85,0,0,0,45.67,57.37Z"/><path class="cls-11" d="M46.48,62.49c0-1.14.62-3.4-.19-4.39s-2.71,0-2.47,1c0-.15-.14-.34-.19-.5-1.59,1.5-.8-1.52-.7-2.05-3.28-.92-4.75,7.5-1.37,8.18.13-.68.47-1.7,1.27-1.24.64.37.31,1.81.58,2.39.47,1,.32.89,1.17,1.58.84-.8.46-2.24,1.06-3.15.15-.22.64,0,.74-.16C46.74,63.45,46.48,63.29,46.48,62.49Z"/><path class="cls-11" d="M44.61,34.42c-.08.3,2-.47,2.14-.54a4.3,4.3,0,0,0,1.75-2c.61-2.19-1.94-2-3.06-.79-.32.34-.56,1.68-.79,1.8.24-.13.62-.12.88-.29A8.41,8.41,0,0,0,44.61,34.42Z"/><path class="cls-11" d="M21.3,47.27a1.16,1.16,0,0,0-.83-.27c-.39.1-.91,1.49-.45,1.68-1.38-.56-.29.86-.24,1.39.09.87-.18.93.07,1.77.35,1.21,1.54,2.27,2.52,1.16a12.39,12.39,0,0,0,.69-1.93c.37-.85,1-1.5.28-2.46-.46-.67-.55-.28-1.07-.64C22.06,47.83,21.68,47.5,21.3,47.27Z"/><path class="cls-12" d="M38.43,31.34l0,0c-.56-.32-.22-1,0-1.4s.73-1,.27-1.34c-.66-.44-2.43.72-3,1.1-1,.7-1.87,1.83-1.35,3.11.42,1,2.76,1.85,1.73,3.13-.72.9-2.19,1.29-3.25,1.6-1.24.36-2.51.57-3.73,1a9.44,9.44,0,0,0-1.63.79c-.39.23-1.08.65-1.53.35-.84-.56.52-2.31,1.12-2.59.4-.18.23,0,.46.09s.32.38.76.44a3.93,3.93,0,0,0,1.32-.13c1.15-.25,3.89-.65,4-2.17a9.38,9.38,0,0,0-.25-1.56A3.92,3.92,0,0,0,33,32a2.13,2.13,0,0,0-.78-.68c-.29-.16-.79-.17-1-.36-.49-.39-.36-1.6-.14-2.1.53-1.22,1.66-1.42,2.88-1.61A8.35,8.35,0,0,0,36,26.75c.35-.16,1-.73,1.38-.55s.2.57.37.89c.53,1,2.17.52,2.93.13a4.12,4.12,0,0,0,2.07-2.62c0-.48-.29-.69-.36-1.09s.34-.69.64-.89a5.82,5.82,0,0,0,1.06-1c1.44-1.58,2.72-3.15,4.74-4,.48-.22,1.58-.71,2.13-.46s.16.85.6,1.13c1.55,1,3.11-1.05,4.55-1.2,0,0-.4.75-.46.84a3.8,3.8,0,0,1-.68.65,8.78,8.78,0,0,1-1.7.94c-.55.24-2.68.85-2.64,1.6,0,.35.53.37.73.64.74,1-1.42.85-1.87.91A3.7,3.7,0,0,0,46.94,24c-.22.33-.34.9-.85.8s-.47-.63-.81-.75c-.77-.27-1.43,1-1.66,1.54a4.81,4.81,0,0,1-1.34,2c-.56.49-1.18.46-1.34,1.22a3.39,3.39,0,0,1-.41,1.33C40.17,30.58,39.17,31.69,38.43,31.34Z"/><path class="cls-12" d="M24,42.67c.05,2.31,1.34,2,3,.88a24,24,0,0,1,6.37-3.18,8.73,8.73,0,0,1,3.32-.49c1.08.14,1.58.74,2.58.08s1-2,2-2.52c-.64,3.27,6.22.62,7.27-.25,0,1.92-2,2.36-3.5,2.77-.6.17-1.69.37-1.91,1a2.77,2.77,0,0,0,1.2,2.89c.72.45,1.56.25,2.35.41a2,2,0,0,1,1.56,1.1c.26.73-.39.52-.9.5a3.76,3.76,0,0,0-4,2.78,3.58,3.58,0,0,0,1,3c1,1.11,3.17,1.76,4.55.94.12.66-.83,1.13-1.34,1.25-.29.06-.76,0-.74.43s1.08.95,1.34,1.15a8.05,8.05,0,0,1,2.34,3.13c.11.27,1.06,2,.73,2.23-.49.31-1.17-1.55-1.26-1.76a8.88,8.88,0,0,0-2.12-2.92A8.1,8.1,0,0,0,44,54a7.81,7.81,0,0,0-4.1,0,3.56,3.56,0,0,0-2.26,2.74,5.26,5.26,0,0,0,0,1.77,1.79,1.79,0,0,1,0,.89c-.86-.33-1-2.34-1-3.07.05-1.63,1.09-2.71,1.45-4.21.26-1,.43-2.64-.82-3.13a2.62,2.62,0,0,0-2.11.4A3.52,3.52,0,0,0,34,50.84c-.14.28-.23.77-.48,1-.7-.9.5-2.91,1.06-3.62a11.73,11.73,0,0,1,4-2.77c.8-.41,2.8-1.23,2.34-2.46-.53-1.39-3.84-1.2-4.9-1.12-2.31.16-5.71,1.23-7.06,3.29-.64,1-.43,1.35.56,1.7.51.18,1.25.65,1.37,1.24a8.77,8.77,0,0,1,0,2,8.65,8.65,0,0,1-.57,2.41c-.15.4-.6,1.42-1.05.72-.3-.48,0-1.2-.27-1.7a5,5,0,0,0-.69,2,14.49,14.49,0,0,1-.67,1.69c-.41,1.13-.72,2.22-1.86,2.83-.64.34-2.95.81-3.1-.33a3.83,3.83,0,0,0,1.53.45,3,3,0,0,0,2.22-1.25,7.28,7.28,0,0,0,1.44-4.47c.07-1.28.33-3.29-.53-4.37S20.84,44.89,24,42.67Z"/><path class="cls-13" d="M52.73,82.79c-3.46,1.15.39-6.31,1-7.57.83-1.69.73-.84,1.88-.18,1.36.77,1.52-.09,2.31-1.12-.2.26.23,1.57.2,1.94a6.24,6.24,0,0,1-.81,2.5,9.54,9.54,0,0,1-3.67,4A6.32,6.32,0,0,1,52.73,82.79Z"/><path class="cls-13" d="M57.93,73.92a4.36,4.36,0,0,0-.73,1.44,3.76,3.76,0,0,1-.68,1.44c-.5.41-1.21,0-.88-.62L55.28,76c-.41.28-.94-.29-1-.68-.47.62-1.36,1.32-1.28,2.19.89-.2.94-1.46,1.92-.73.53.39,1.19,1,.69,1.78-.25.37-.94.46-.75-.06-.85.92-.45-1-.46-1.06-1,.09-1.1,1.5-.73,2.08s.82.93.18,1.58c-.36.36-1.16.57-1.14-.11-1,.16-.6-.68-.49-1.26-1.21.29-1.58,3.78.49,3.09a6.32,6.32,0,0,0,.92-.42,9.54,9.54,0,0,0,3.67-4,6.24,6.24,0,0,0,.81-2.5C58.16,75.49,57.73,74.18,57.93,73.92Z"/><path class="cls-14" d="M27.7,64.82c-1.44-.95-3.63-.71-5.27-1.1A4.63,4.63,0,0,1,19.57,60c-.81,1.26-1.59,2.84-.28,4a4.44,4.44,0,0,0,2.73.81,15.61,15.61,0,0,1,4.61.81c1.25.55,2,2,2.63,3.11.94,1.62,2.06,3.27,4,3.64,1.32.24,2.53-.43,3.82-.59,3-.37,4.68,2.92,7.45,3.61,1.37.34,2.76-.07,4.14,0s2.47.17,3.7.25a11.11,11.11,0,0,0-2.58-.49,27.88,27.88,0,0,1-4.44-.87c-2-.76-3.34-2.49-5.26-3.37-2.24-1-4.79.1-6.89-1.19a15.11,15.11,0,0,1-2.81-2.3A18.28,18.28,0,0,0,27.7,64.82Z"/><path class="cls-14" d="M47.82,74.67c-1.11-.3-2.26-.21-3.36-.48a7.93,7.93,0,0,1-2.67-1.5c-1.63-1.24-3.29-2.24-5.42-2.16a11.16,11.16,0,0,1-3,0,5.39,5.39,0,0,1-2.49-1.65c-1.7-1.68-2.87-3.8-5.28-4.57-1.46-.46-2.91-.12-4.18-1.12a3.73,3.73,0,0,1-1.49-3.66c0,.11-1.06.73-1.22.95A4.64,4.64,0,0,0,18,61.79a7,7,0,0,0,.07,2.94,4,4,0,0,0,3.52,3.51,12.55,12.55,0,0,1,4.15,1.25,23.38,23.38,0,0,1,3.5,2.86,12,12,0,0,0,4.48,3c1.47.41,3.18-.07,4.6.56A17.24,17.24,0,0,1,41.29,78,8.74,8.74,0,0,0,49,79.47c1-.36,3.18-2.18,2.52-3.39S48.92,75,47.82,74.67Z"/><path class="cls-8" d="M34.24,57.25a6.68,6.68,0,0,0,.33,4.39,4.66,4.66,0,0,0,.94,1.5c.19.11,1.33.14,1-.13,1.25,1,.75,3,2.17,4.2.9.75,2.64,1.54,2.62,2.86-.82.14-1.77-.53-2.45-.94-.44-.26-1.77-1.76-2.19-1.77-1.15,0-.4,1.47-1.93,1.31C32,68.39,30.78,64.8,29,63.26a6.31,6.31,0,0,0-3.29-1.56c-.75-.07-1.57.45-2.25-.14-1.58-1.37,1.74-1.22,2.52-1.48,2.15-.72,2.25-3.28,4.34-3.95.25,1.13-.21,3.34,1.91,2.32,1.74-.83,1.49-3.67,3.2-4.52C35.33,55.1,34.52,56.12,34.24,57.25Z"/><path class="cls-12" d="M33.08,61.16c.17.87,2.17,5.35-.06,4.68-.69-.21-1.65-1.39-2.14-1.89-1.16-1.18-1.93-2.19-3.73-2.23-1.37,0-2.78.45-3.93-.58,0,0,.16-.26.15-.22,1,.43,2.41-.17,3.26-.74a19.41,19.41,0,0,0,2.74-1.88c-.35,1.06-.28,2.57,1.09,2.73s1.38-1.25,2.46-1.21A10.41,10.41,0,0,1,33.08,61.16Z"/><path class="cls-15" d="M50.18,50.25a3,3,0,1,1-2-3.69A3,3,0,0,1,50.18,50.25Z"/><path class="cls-16" d="M49.44,50a2.6,2.6,0,1,1-1.66-3.5A2.74,2.74,0,0,1,49.44,50Z"/><path class="cls-17" d="M48.48,49.72a1.59,1.59,0,1,1-1-2.15A1.69,1.69,0,0,1,48.48,49.72Z"/><path class="cls-18" d="M46.07,46.81A2,2,0,0,0,45,48.08a4.39,4.39,0,0,1,.36-.28A2,2,0,0,0,45,49.5a2,2,0,0,1,.13-.55c-.14.47-.25,1.22.19,1.57a5.32,5.32,0,0,1,.07-2,2.1,2.1,0,0,1,2.12-1.22,1.58,1.58,0,0,0-.58-.18c.62-.64,1.86.77,1.85,1.36,0-.21,0-.4,0-.61a1.56,1.56,0,0,1,.28.75c.27-1.06-1.1-2-2-2A2.12,2.12,0,0,0,46.07,46.81Z"/><path class="cls-19" d="M46.6,48.6a1.61,1.61,0,0,0-.72,2,1.53,1.53,0,0,0,.58.34,1.69,1.69,0,0,0,2-1.26,1.78,1.78,0,0,0,0-.94A1.59,1.59,0,0,0,46.6,48.6Z"/><path class="cls-15" d="M32.46,32.31a3,3,0,1,1-4.12-.81A3,3,0,0,1,32.46,32.31Z"/><path class="cls-16" d="M31.8,32.73a2.59,2.59,0,1,1-4.28,2.87,2.59,2.59,0,1,1,4.28-2.87Z"/><path class="cls-17" d="M31,33.28a1.6,1.6,0,1,1-2.3-.59A1.69,1.69,0,0,1,31,33.28Z"/><path class="cls-18" d="M27.18,33.28A2.06,2.06,0,0,0,27.45,35a2.33,2.33,0,0,1,0-.46,1.93,1.93,0,0,0,1.11,1.33,1.89,1.89,0,0,1-.34-.46c.27.41.77,1,1.32.86a5.49,5.49,0,0,1-1.48-1.32,2.1,2.1,0,0,1,.42-2.41,1.45,1.45,0,0,0-.51.33c-.1-.89,1.77-.94,2.22-.55-.16-.13-.28-.3-.45-.42a1.58,1.58,0,0,1,.76.27c-.65-.89-2.26-.45-2.86.25A2.28,2.28,0,0,0,27.18,33.28Z"/><path class="cls-19" d="M28.91,34A1.6,1.6,0,0,0,30,35.87a1.46,1.46,0,0,0,.63-.23A1.69,1.69,0,0,0,31,33.28a1.88,1.88,0,0,0-.69-.63A1.58,1.58,0,0,0,28.91,34Z"/><path class="cls-15" d="M52.06,26.76a2.62,2.62,0,1,1-1.77-3.25A2.62,2.62,0,0,1,52.06,26.76Z"/><path class="cls-16" d="M51.41,26.55A2.29,2.29,0,1,1,50,23.46,2.43,2.43,0,0,1,51.41,26.55Z"/><path class="cls-17" d="M50.57,26.3a1.41,1.41,0,1,1-.9-1.9A1.49,1.49,0,0,1,50.57,26.3Z"/><path class="cls-18" d="M48.43,23.72a1.82,1.82,0,0,0-1,1.12,2.43,2.43,0,0,1,.32-.24,1.71,1.71,0,0,0-.28,1.5,2.19,2.19,0,0,1,.12-.49c-.13.42-.23,1.08.16,1.39a4.89,4.89,0,0,1,.07-1.75,1.85,1.85,0,0,1,1.87-1.08A1.32,1.32,0,0,0,49.2,24c.55-.57,1.63.68,1.62,1.2a4.89,4.89,0,0,0,0-.54,1.34,1.34,0,0,1,.25.66c.24-.94-1-1.78-1.79-1.8A2.05,2.05,0,0,0,48.43,23.72Z"/><path class="cls-19" d="M48.9,25.31a1.42,1.42,0,0,0-.63,1.79,1.19,1.19,0,0,0,.51.3,1.49,1.49,0,0,0,1.79-1.1,1.68,1.68,0,0,0,0-.83A1.4,1.4,0,0,0,48.9,25.31Z"/><path class="cls-15" d="M41.69,23.59a2.23,2.23,0,1,1-3-1.06A2.23,2.23,0,0,1,41.69,23.59Z"/><path class="cls-16" d="M41.16,23.82a1.95,1.95,0,1,1-3.5,1.66,1.95,1.95,0,1,1,3.5-1.66Z"/><path class="cls-17" d="M40.48,24.14a1.2,1.2,0,1,1-1.64-.69A1.27,1.27,0,0,1,40.48,24.14Z"/><path class="cls-18" d="M37.67,23.72a1.52,1.52,0,0,0,0,1.27,3.2,3.2,0,0,1,.07-.33,1.43,1.43,0,0,0,.67,1.1,1.65,1.65,0,0,1-.2-.37c.16.33.47.81.89.78a4.16,4.16,0,0,1-1-1.14,1.56,1.56,0,0,1,.57-1.75,1.33,1.33,0,0,0-.42.19c0-.67,1.43-.5,1.71-.17-.1-.11-.17-.25-.28-.35a1.09,1.09,0,0,1,.53.28c-.38-.73-1.63-.58-2.15-.13A1.71,1.71,0,0,0,37.67,23.72Z"/><path class="cls-19" d="M38.87,24.46a1.2,1.2,0,0,0,.61,1.5,1.24,1.24,0,0,0,.5-.1,1.27,1.27,0,0,0,.5-1.72A1.34,1.34,0,0,0,40,23.6,1.17,1.17,0,0,0,38.87,24.46Z"/><path class="cls-20" d="M36.4,55.89c-1.5.15-2.49,2.21-2.95,3.45A4.65,4.65,0,0,0,33,62c-.5-.07-1.87-.08-2.15-.59-.45-.84.49-2.39.79-3.16a7.64,7.64,0,0,1,2.51-3.63,2.85,2.85,0,0,1,1.78-.48,4.94,4.94,0,0,0,2.94-1c1-.66,3.31-2.72,4.67-1.58.32.27.29,1,.25,1.46a6.16,6.16,0,0,0-1.94.61c-1,.56-1.76,1.77-2.86,2.05A17.08,17.08,0,0,1,36.4,55.89Z"/><path class="cls-21" d="M36.76,54.71a9.5,9.5,0,0,0,2.84-.62,15.34,15.34,0,0,0,2.1-1.4,6.79,6.79,0,0,1,2-1,.48.48,0,0,0-.12-.16c-1.36-1.14-3.68.92-4.67,1.58a4.94,4.94,0,0,1-2.94,1,2.85,2.85,0,0,0-1.78.48,7.64,7.64,0,0,0-2.51,3.63c-.3.77-1.24,2.32-.79,3.16a.87.87,0,0,0,.54.35C31.84,58.68,33.42,55.21,36.76,54.71Z"/><path class="cls-20" d="M41.68,69.83a7.94,7.94,0,0,0,1.66-.29,2.09,2.09,0,0,0-.26-.72,7.75,7.75,0,0,0-3.33-2.9c-.73-.38-2.17-1.48-3-1.13-.54.22-.7,1.58-.83,2.07a4.67,4.67,0,0,1,2.57.73,6.88,6.88,0,0,1,2.8,2.29Z"/><path class="cls-21" d="M43.34,69.54a2.09,2.09,0,0,0-.26-.72,7.75,7.75,0,0,0-3.33-2.9c-.73-.38-2.17-1.48-3-1.13a.88.88,0,0,0-.41.5c2.45.64,5.11,2.09,6,4.46A4.77,4.77,0,0,0,43.34,69.54Z"/><path class="cls-20" d="M51.51,61.39a4.88,4.88,0,0,1-1.86-1.51c-.4.55-.76,1.11-1.11,1.69a6.54,6.54,0,0,0,.81,1.14c.77.84,2.19.94,3.17,1.54A6.32,6.32,0,0,1,54,65.66c.41-.19,1.07-.51,1.15-.92C55.49,63,52.57,62,51.51,61.39Z"/><path class="cls-21" d="M51.51,61.39a4.88,4.88,0,0,1-1.86-1.51c-.14.19-.28.38-.41.58a8.63,8.63,0,0,0,1.78,2,15.31,15.31,0,0,0,2.23,1.18,6.64,6.64,0,0,1,1.8,1.25.42.42,0,0,0,.08-.18C55.49,63,52.57,62,51.51,61.39Z"/><path class="cls-20" d="M29,39.28c-.12-.27-.24-.55-.35-.82a2.49,2.49,0,0,0-1.45.46,7.72,7.72,0,0,0-2.51,3.64c-.3.77-1.24,2.32-.79,3.15.27.52,1.65.52,2.15.6a4.6,4.6,0,0,1,.44-2.64c.39-1,1.15-2.65,2.27-3.23A7.71,7.71,0,0,1,29,39.28Z"/><path class="cls-20" d="M36.55,35.88c-.79-.66-1.91-.24-2.9.37,0,.41.06.82.1,1.23q.33.39.63.81a3.91,3.91,0,0,1,.49-.34,6.53,6.53,0,0,1,1.94-.61C36.84,36.89,36.88,36.16,36.55,35.88Z"/><path class="cls-21" d="M28.62,38.46a2.49,2.49,0,0,0-1.45.46,7.72,7.72,0,0,0-2.51,3.64c-.3.77-1.24,2.32-.79,3.15a.88.88,0,0,0,.54.36c.41-2.79,1.77-5.92,4.54-6.83C28.83,39,28.73,38.72,28.62,38.46Z"/><path class="cls-21" d="M33.88,37.64c.28-.21.55-.42.84-.61a6.43,6.43,0,0,1,2-1,.76.76,0,0,0-.13-.17c-.79-.66-1.91-.24-2.9.37,0,.41.06.82.1,1.23Z"/><path class="cls-22" d="M43.73,81.4a65.89,65.89,0,0,0,7.33,1.68,2.46,2.46,0,0,1-.66-1.61,6.37,6.37,0,0,1,1.45-3.12c-1.17.86-1.88,1.9-3.42,2.18A14,14,0,0,1,43.28,80a38.09,38.09,0,0,1-5.43-1.53c-3.06-1.17-6-2.57-8.91-4-4.79-2.33-11.83-5.43-12.11-11.59a6.94,6.94,0,0,0,2.3,6.77,28.65,28.65,0,0,0,3.7,3,38.88,38.88,0,0,0,4.08,2,61.26,61.26,0,0,0,8.32,3.92C38.05,79.58,40.88,80.55,43.73,81.4Z"/><path class="cls-23" d="M45.65,28.33a4,4,0,0,1,2.66,1.45A9.94,9.94,0,0,1,50,33.94c.2.93,0,2.32.6,3.07,1.07-.52,1-2.69,1.08-3.71.21-1.93.39-3.87.56-5.79.23-2.58-1.34-6.16.39-8.33.44-.55,1.77-1.11,1.35-1.88-.31-.56-1.79-.43-2.28-.41-2.5.11-2.57.9-3.54,2.89-1.64,3.34-4.44,5.91-8.28,5.92C40,25.7,42,27,42.42,27.14A22.69,22.69,0,0,0,45.65,28.33Z"/><path class="cls-24" d="M65.87,87.85A22.63,22.63,0,0,0,64.93,83c-.6-2.54-.79-5.13-1.62-7.63C62,71.49,60.85,67,57.65,64.46a37.26,37.26,0,0,1,.69,7.11,15.81,15.81,0,0,1,0,2.3c.78,2.5-1,5.48-2.56,7.21a6.68,6.68,0,0,1-6.35,2.3c-5.26-.71-10.06-3.1-15.06-4.76A46.12,46.12,0,0,1,22.72,73c1.42,4,3.33,9.54,8.41,9.89.7,0,1.55-.33,2.13-.15s1.12,1.12,1.68,1.41c1.85,1,4.88.18,7,.51,2.32.36,3.45,1.88,4.85,3.71,1.24,1.64,3.59,5.26,6,4.06,1.34-.67,2.06-2.2,3.73-2.17,1.19,0,2.32.93,3.27,1.54.4.25.85.55,1.34.82a3.68,3.68,0,0,0,3.22.55C66.21,92.31,65.89,89.49,65.87,87.85Z"/><path class="cls-25" d="M57,79.52a14.83,14.83,0,0,1-1.21,1.56,6.68,6.68,0,0,1-6.35,2.3c-5.26-.71-10.06-3.1-15.06-4.76A46.74,46.74,0,0,1,23.07,73.2a3.47,3.47,0,0,0,1.36,1.61,17.72,17.72,0,0,1,3,2.12,16.58,16.58,0,0,1,2.34,3.46c.35.64.53,2,1.12,2.22.78.27,1.72-.65,2.56-.3.64.28,1.06,1.07,1.64,1.44a6.36,6.36,0,0,1-.33-2.83c.44-1.55,2.27-.52,3.1,0a12.63,12.63,0,0,1,2.71,2.36,3.06,3.06,0,0,0,2,.94c2,.51,3.34,2.33,4.64,3.73a5.67,5.67,0,0,1-.91-3.37c.43-1.69,3.39.13,4.19.66a6.82,6.82,0,0,1,2.06,2.66,18.78,18.78,0,0,1,1.37,3.24,4.93,4.93,0,0,1,1.82-1.2A5.82,5.82,0,0,1,56.06,87c.94-1.25,2.65,1.75,3.12,2.59.69.43,1.37-.85,1.47-1.64.29-2.17-.79-4.18-1.84-6A10.07,10.07,0,0,0,57,79.52Z"/><path class="cls-26" d="M37.42,24.45A4.2,4.2,0,0,0,40.16,26c2.68.66,8.61.83,10.73-1.44-1.65-2.53-1.56-5.12-1.84-7.94-.2-1.92-.51-5,.34-6.78,3.46,3.5,7-7.56,10.46-6.69.94.24,2.81,3.68,2.77,4.63-.07,1.41-2.24,2.49-2.86,4.15a1.88,1.88,0,0,1-1.83-.82c-.81-1.2,0-1.58,1-2.19,2.64-1.66-.69-1.6.65-3.18a1.29,1.29,0,0,0-.13,1.87c-1.15.84-2.83,1.48-2.3,3,.22.63,1.77,2.27,2.51,2.32s.6-.56,1-1.3c1-1.72,3.13-1.72,2.75-4C63,5,60.19,2.39,59,0a8.6,8.6,0,0,0-1.88,1.21A10.88,10.88,0,0,1,52,2.71c-1.92.13-7.29-1.46-8.39.88-.2.42,0,1,0,1.43A15.8,15.8,0,0,1,43,8.21c-1.43,5.11-4.55,9.56-5.71,14.76A2,2,0,0,0,37.42,24.45Z"/><path class="cls-27" d="M63.42,7.64c-.37-2.16-2.27-4.28-3.63-6.28-1.08,1.19-2.91,2.08-3.89,2.95a24,24,0,0,1-3.41,3,3.86,3.86,0,0,1-3.69.23,13.13,13.13,0,0,0-1.2,8.05c.26,2.12.95,5.13-.55,7a5.91,5.91,0,0,1-3.92,1.71c-1.69.2-4.56,0-5.86-1.39a.07.07,0,0,1,0,0,2,2,0,0,0,.16,1.48A4.2,4.2,0,0,0,40.16,26c2.68.66,8.61.83,10.73-1.44-1.65-2.53-1.56-5.12-1.84-7.94-.2-1.92-.51-5,.34-6.78,3.46,3.5,7-7.56,10.46-6.69.94.24,2.81,3.68,2.77,4.63-.07,1.41-2.24,2.49-2.86,4.15a1.88,1.88,0,0,1-1.83-.82c-.81-1.2,0-1.58,1-2.19,2.64-1.66-.69-1.6.65-3.18a1.29,1.29,0,0,0-.13,1.87c-1.15.84-2.83,1.48-2.3,3,.22.63,1.77,2.27,2.51,2.32s.6-.56,1-1.3C61.65,9.88,63.8,9.88,63.42,7.64Z"/><path class="cls-28" d="M45.81,3C44,3.25,44.09,4.3,43.89,5.88a27,27,0,0,1-1.7,5.44,43.85,43.85,0,0,1-2.92,6.73c-.61,1.16-1.41,3.46.84,2.8,5.67-1.67,5.15-9.42,6.32-13.86.84-3.19,4.47-1.65,6.62-3.59C50.51,3.66,48.28,2.74,45.81,3Z"/><path class="cls-29" d="M63.42,7.64c-.32-1.87-1.8-3.72-3.07-5.48-.41.29-.8.62-1.16.92a1.84,1.84,0,0,1,.66,0c.94.24,2.81,3.68,2.77,4.63-.07,1.41-2.24,2.49-2.86,4.15a1.88,1.88,0,0,1-1.83-.82c-.81-1.2,0-1.58,1-2.19,2.64-1.66-.69-1.6.65-3.18a1.29,1.29,0,0,0-.13,1.87c-1.15.84-2.83,1.48-2.3,3,.22.63,1.77,2.27,2.51,2.32s.6-.56,1-1.3C61.65,9.88,63.8,9.88,63.42,7.64Z"/><path class="cls-29" d="M55.88,5.82l-.66.53C53.75,7.48,51,9.55,49.13,8.41a10.15,10.15,0,0,0-.65,5.72c.27,2.49.94,5,.79,7.5a4.46,4.46,0,0,1-3.09,3.95,10.59,10.59,0,0,1-5.18.55c2.93.5,8,.44,9.89-1.61-1.65-2.53-1.56-5.12-1.84-7.94-.2-1.92-.51-5,.34-6.78C51.54,12,53.71,8.54,55.88,5.82Z"/><path class="cls-28" d="M45.81,3C44,3.25,44.09,4.3,43.89,5.88a27,27,0,0,1-1.7,5.44c-.78,2.37-3.17,5.41-3.08,7.86,1.88.43,3.8-3.67,4.43-5.06a13.75,13.75,0,0,0,1.18-5.21c.05-1.22-.07-3.1.72-4.09h0c.64-.79,1.9-.63,2.45-1.47C47.46,2.75,46.5,3,45.81,3Z"/><path class="cls-26" d="M65,68.62c-3.66-6.51-10-11.56-11.68-19.09-.26-1.14-.71-2.48-2-1.21-1,.94-.82,3.18-.62,4.38C51.2,55.66,53,58.23,54,61a28.79,28.79,0,0,1,1.69,14c-.65,4-1.71,8.4,1.44,11.74,1.5,1.59,1.7,3.86,3.11,5.55,2.11,2.53,6.09,4.07,9.22,4.75,4.34,1,7.29-.89,11.09-2.67A16.62,16.62,0,0,1,91.4,93.05C88.66,89.8,84,89.28,80,89.07c-6.64-.34-8.46-5.66-10.7-10.92A97,97,0,0,0,65,68.62Z"/><path class="cls-30" d="M67.65,76.15a37.37,37.37,0,0,0-4.17-8.86c-2-3-4.13-6-6.29-8.92a21.1,21.1,0,0,1-2.84-4.7C54,60.38,61,63.42,63.18,69.18c1.62,4.24,2.25,8.77,3.76,13,.87,2.48,1.57,5.19,3.32,7.24,2.23,2.62,5.32,2.32,8.41,1.63,1.47-.33,3.38-1.12,4.89-.78-2-1-4.63-.68-6.82-1.28-3.5-1-4.91-4-6.5-7A39.24,39.24,0,0,1,67.65,76.15Z"/><path class="cls-31" d="M74.27,95.08c-.79-.5-2-.36-2.85-.74s-2-.81-3-1.25a17.64,17.64,0,0,1-2.31-1.32,19.3,19.3,0,0,1-4.21-4.06,15.88,15.88,0,0,1-3.54-6.83A39,39,0,0,1,58.08,74a31.1,31.1,0,0,0-2-10.4c.15,2.59,1.1,5,1.13,7.68,0,4-1.23,8.07-.58,12.06a3,3,0,0,0,1.49,2.28,8.64,8.64,0,0,1,2,3,13.91,13.91,0,0,0,3.25,4.17A11.87,11.87,0,0,0,74.27,95.08Z"/><path class="cls-31" d="M59.28,81.66a9.32,9.32,0,0,0,.54,1.16A45.76,45.76,0,0,0,66.46,92c1.13,1.25,3.12,3.34,4.73,3.53a14.46,14.46,0,0,1-10.27-6.78,10.86,10.86,0,0,0-2.57-3.2c-2.18-1.74-2.12-5.07-1.79-7.57.2-1.57.57-3.06.62-4.68,0-2-.06-3.89-.11-5.84,1.7,3.1,1.45,7.24,1.56,10.65A10.76,10.76,0,0,0,59.28,81.66Z"/><path class="cls-30" d="M67.19,74.75A34.64,34.64,0,0,0,61,63.7c-1.32-1.64-2.67-3.25-3.84-5-.82-1.22-2.79-3.86-2.61-5.41a10.67,10.67,0,0,0,.14,4.29c.39,1.18,1,2.29,1.43,3.44a39.53,39.53,0,0,0,4.47,8.11,37.72,37.72,0,0,0,5,4.92c3.1,2.92.85,10,6.18,10.8-.64-1.3-1.58-2.48-2.23-3.8A48.35,48.35,0,0,1,67.19,74.75Z"/><path class="cls-32" d="M38.56,34.2c3.08.75,4.37-2.76,3.94-5.21-.31-1.74-1.67-5.14-3.93-3.43S34.91,33.32,38.56,34.2Z"/><path class="cls-32" d="M32.63,27c-1.08,1.28-2.15,3.29-1.65,5a2.34,2.34,0,0,0,3.86,1c1.12-1.25,1.63-4.12,1.41-5.74C36,25,33.78,25.6,32.63,27Z"/><path class="cls-33" d="M38.25,35c3.08.74,4.38-2.77,3.94-5.22-.3-1.74-1.67-5.14-3.93-3.43S34.61,34.1,38.25,35Z"/><path class="cls-33" d="M32.32,27.74c-1.08,1.28-2.14,3.29-1.64,5a2.34,2.34,0,0,0,3.85,1C35.66,32.52,36.16,29.65,36,28,35.65,25.75,33.47,26.38,32.32,27.74Z"/><path class="cls-34" d="M32.47,27c-1.83-.51-.81-1.24.17-1.79.78-.45,1.63-1.93,2.66-1.75,1.22.21.74,2,.18,2.62A3,3,0,0,1,32.47,27Z"/><path class="cls-34" d="M41,24.84a2.47,2.47,0,0,1,1.18.5c.85.81.28,1.87-.72,2.16a3,3,0,0,1-2.72-.91c-.53-.53-1.43-2.27-.33-2.71.55-.23,1.12.46,1.64.69A5.52,5.52,0,0,0,41,24.84Z"/><path class="cls-35" d="M30.55,37.83a23.08,23.08,0,0,0,7.3.7s-.45,3.29-4.58,2.55A3.23,3.23,0,0,1,30.55,37.83Z"/><path class="cls-33" d="M35.7,40a12.31,12.31,0,0,0,1.59-.19,3.28,3.28,0,0,0,.56-1.31,21.86,21.86,0,0,1-6.39-.48,8.07,8.07,0,0,0,.14,1.1A6.46,6.46,0,0,0,35.7,40Z"/><path class="cls-33" d="M33.71,40.32a7.58,7.58,0,0,0-.82.68l.38.08c2.06.37,3.2-.27,3.83-1C36,40.24,34.84,40.24,33.71,40.32Z"/><path class="cls-34" d="M33.71,37.31c-.11-2.59-3.71-2.92-5.47-2-1,.55-2,1.72-3.31,1.19-.93-.39-1.48-1.82-1.89-2.68-.8,1.46-.06,3.84.54,5.24.75,1.73,1.79,3.09,3.84,2.69,1.88-.36,2.32-2.14,3.81-3C32.15,38.22,33.92,38.68,33.71,37.31Z"/><path class="cls-34" d="M34.2,37.75c-.29-.84.62-1.74,1.35-2.06a5.08,5.08,0,0,1,4,0c2,1,6.32,4.41,7.78.48-.12,3.9-2.64,8.53-7.24,7.35a4.85,4.85,0,0,1-2.9-3.06c-.25-.57-.27-1.06-.8-1.44s-1.49-.29-2-.94A1.12,1.12,0,0,1,34.2,37.75Z"/><path class="cls-34" d="M33.1,71.69a5.25,5.25,0,0,0,1.65-1.26c1.74-2,2.23-4.87,2.71-7.39a62.5,62.5,0,0,0,1.29-11.49c0-3.45-.23-6.72-2.74-9.32-1.06-1.1-1.68-.18-3-.67-.56-.21-.91-.65-1.56-.58-2.67.32-4.59,3.83-5.35,6-1.4,4-2,8.39,1,11.79,2.22,2.5,4.86,6,5.39,9.34a2.69,2.69,0,0,1-.81,2.76,2,2,0,0,1-2.42-.3c-.46-.5-.51-2.12.39-2.32.6-.13.46.5.57.93,1.26-.71-.09-2.21-1.08-2.43C27,66.27,25.67,69.15,27,70.72A5,5,0,0,0,33.1,71.69Z"/><path class="cls-36" d="M33.71,37.31a2.66,2.66,0,0,0-.27-1c-.39,1.86-3.57.1-4.67.87.46.29,1,.16,1.55.61-1.62-.15-2.24,1.85-4,1.28a3.3,3.3,0,0,0,.86.57c.19.09-.89.3-.92.3a2,2,0,0,1-1.08-.19,4.73,4.73,0,0,1-1.84-2.31,7.6,7.6,0,0,1-.66-2.28,9.44,9.44,0,0,0,.88,3.91c.75,1.73,1.79,3.09,3.84,2.69,1.88-.36,2.32-2.14,3.81-3C32.15,38.22,33.92,38.68,33.71,37.31Z"/><path class="cls-36" d="M46.94,37.84c-.74,1.71-3.1,5.66-5.53,4.17-.67-.41.37-1,.69-1.21a2.09,2.09,0,0,1-2.53-.35c-.45-.44-1.48-1.7-1.46-2.37a2.88,2.88,0,0,1,1.35.25c-1.08-1.73-3.79-.18-4.84-1.92a1.32,1.32,0,0,0-.42,1.34,1.12,1.12,0,0,0,.19.33c.52.65,1.4.49,2,.94s.55.87.8,1.44a4.85,4.85,0,0,0,2.9,3.06c4.28,1.1,6.77-2.85,7.19-6.55C47.18,37.27,47.06,37.56,46.94,37.84Z"/><path class="cls-36" d="M36,42.23c-1.06-1.1-1.68-.18-3-.67-.56-.21-.91-.65-1.56-.58a2.47,2.47,0,0,0-1.19.42c.24.11.3.37.46.51a5.36,5.36,0,0,0-1.82,2.81A5,5,0,0,1,31,43c-.37,2.27-2.52,5.3-1.29,7.75.32-2.68.89-5,2.94-6.91a7.37,7.37,0,0,0-.18,3.79c.58-1.27.8-2.62,1.83-3.64.56.54.47,1.72.55,2.46a6.12,6.12,0,0,1,.46-2c1.92,1.58,1.37,6,1.19,8.12-.13,1.44-.26,2.89-.43,4.32-.14,1.19-.09,2.74-.85,3.74a1.81,1.81,0,0,1-.36-1.37c-.59,1.33-.31,3.18-.28,4.62A7.53,7.53,0,0,1,33.07,58c-.76,2.06.29,4.08.07,6.1-.73-.16-1.32-1.85-1.62-2.53.34,1.12,1.25,2.68,1.07,3.9a5.68,5.68,0,0,1-1.62-2c.81,1.59,2.94,6,.75,7.36a2,2,0,0,1-2.42-.3c-.46-.5-.51-2.12.39-2.32.6-.13.46.5.57.93.86-.49.5-1.34-.13-1.91a.55.55,0,0,1-.18.06c-1.37.2-1.75,1.66-2,2.82a.68.68,0,0,1-1.13.3l-.14-.19a1.94,1.94,0,0,0,.27.43,5,5,0,0,0,6.15,1,5.25,5.25,0,0,0,1.65-1.26c1.74-2,2.23-4.87,2.71-7.39a62.5,62.5,0,0,0,1.29-11.49C38.76,48.1,38.52,44.83,36,42.23Z"/><path class="cls-36" d="M36,23.92a2.6,2.6,0,0,1-1.61,1.68,2.92,2.92,0,0,1-1.7.24,1.32,1.32,0,0,1-.62-.29c-.68.48-1,1,.43,1.42a3,3,0,0,0,3-.92A2.44,2.44,0,0,0,36,23.92Z"/><path class="cls-36" d="M42.14,25.34a1.6,1.6,0,0,0-.37-.25,1.17,1.17,0,0,1-1,1.32A2.44,2.44,0,0,1,38,24.16c-.46.67.26,2,.7,2.43a3,3,0,0,0,2.72.91C42.42,27.21,43,26.15,42.14,25.34Z"/><path class="cls-37" d="M31.58,58.47c.15.05.52-3.36.59-3.55a3.07,3.07,0,0,1,1.15,1.54,5.47,5.47,0,0,1,.17-1.54c0-.36,0-.71.08-1.07s.27-1.48.68-.82a6.08,6.08,0,0,1,.17,1.51,10.84,10.84,0,0,0,.34,1.6A5.26,5.26,0,0,0,35,54.88c.08-.65.21-1.3.31-1.94.28-1.73.26-3.52.4-5.26-.4.81-.48,2-1.09,2.66a8.41,8.41,0,0,1-.19-2.66c0-.51-.18-1-.23-1.5-.74,1-.8,2.32-1.55,3.28-.92-.66-.57-2.65-.55-3.61-.35.14-.52.84-.66,1.16-.31.68-.67,1.37-.93,2.08a8.21,8.21,0,0,0-.33,2.57c-1-.34-1.29-2-1.35-2.84a5.81,5.81,0,0,1,.7-3.42c-.74.21-1,1.24-1.62,1.45a4.57,4.57,0,0,1,.44-2.62c-2.28,1.58-2.79,6.39-2.55,8.86.33,3.31,2.7,5.42,4.81,7.76A6.35,6.35,0,0,1,30,56.31,3.48,3.48,0,0,0,31.58,58.47Z"/><path class="cls-37" d="M38.48,36.84a6.19,6.19,0,0,0-2.12-.34c1.24-1.46,3.48,0,4.64.84s4.13,2.35,5.28.51c.07.51-.59,1.3-.87,1.68a4.76,4.76,0,0,1-1.53,1.56c-.31.17-1.47.68-1.43,0,0-.27.63-.74.77-1-.75,0-4,.14-3.74-1.24a1.27,1.27,0,0,0,1.33-.16c.16-.15-1.53-1.48-1.72-1.58A5.63,5.63,0,0,0,38.48,36.84Z"/><path class="cls-37" d="M32,36c-1.22-1.38-3.05-.64-4.39.29-1.71,1.19-2.29.8-3.85-.31.16,1.08.94,2.92,2.34,2.8-.32-.25-.68-.62-.34-.92.8.56,3.57.15,2.05-.91a10.87,10.87,0,0,1,2-.48c.8,0,1.59-.18,2.39-.18C32.13,36.21,32.06,36.11,32,36Z"/><path class="cls-37" d="M39.3,24.62c.45.17,1.45.31,1.65.83.35.95-1.42.46-1.75.17s-1-.83-.73-1.23S39,24.5,39.3,24.62Z"/><path class="cls-37" d="M35.21,23.84l-.08-.08c-.4-.24-2.22,1.16-2,1.55C33.48,26,35.7,24.61,35.21,23.84Z"/><path class="cls-38" d="M42,29.9a8.13,8.13,0,0,0-.6-1.86,7.64,7.64,0,0,1,.41,1.44c.4,2.25-.79,5.48-3.61,4.79A2.41,2.41,0,0,1,36.52,33a2.45,2.45,0,0,0,1.82,1.68C41.16,35.38,42.35,32.15,42,29.9Z"/><path class="cls-38" d="M35.76,28.23a2.08,2.08,0,0,0-.27-.84,2.38,2.38,0,0,1,.09.42c.2,1.5-.27,4.16-1.32,5.32a2.16,2.16,0,0,1-3.39-.48,2.18,2.18,0,0,0,3.58.91A8.07,8.07,0,0,0,35.76,28.23Z"/><path class="cls-39" d="M35.06,30.88a1.72,1.72,0,1,1-1.72-1.72A1.72,1.72,0,0,1,35.06,30.88Z"/><path class="cls-40" d="M34.65,30.88a1.31,1.31,0,1,1-1.31-1.31A1.31,1.31,0,0,1,34.65,30.88Z"/><path class="cls-33" d="M32.75,30.36a.59.59,0,0,0-.14-.31.69.69,0,0,0-.13-.11.6.6,0,0,0-.32-.12.54.54,0,0,0-.25,0,.64.64,0,0,0-.38.32.55.55,0,0,0-.07.25v.17a.69.69,0,0,0,.14.3l.13.12a.65.65,0,0,0,.32.11.52.52,0,0,0,.25,0,.7.7,0,0,0,.23-.11.51.51,0,0,0,.15-.21.41.41,0,0,0,.08-.24A.91.91,0,0,0,32.75,30.36Z"/><path class="cls-33" d="M32.4,31.16c-.5,0-.57.79-.07.79S32.9,31.16,32.4,31.16Z"/><path class="cls-33" d="M33.89,29.6a.14.14,0,0,0,0-.11v0a.25.25,0,0,0,0-.07.31.31,0,0,0-.11-.08h-.1l-.09,0h-.05l-.06,0-.06.06a.21.21,0,0,0,0,.11.17.17,0,0,0,0,.07s0,.05,0,.08a.25.25,0,0,0,0,.07.13.13,0,0,0,0,.06.17.17,0,0,0,.1.06l.07,0h.08l.07,0,.07,0,.05-.06a.22.22,0,0,0,0-.11A.09.09,0,0,0,33.89,29.6Z"/><path class="cls-41" d="M41.27,31.06a2,2,0,1,1-2-2A2,2,0,0,1,41.27,31.06Z"/><path class="cls-40" d="M40.74,31.06a1.48,1.48,0,1,1-1.48-1.49A1.48,1.48,0,0,1,40.74,31.06Z"/><path class="cls-33" d="M38.57,30.45a.75.75,0,0,0-.16-.35L38.26,30a.77.77,0,0,0-.38-.14.57.57,0,0,0-.29,0,.64.64,0,0,0-.26.13.58.58,0,0,0-.19.25.66.66,0,0,0-.09.28,1.34,1.34,0,0,1,0,.2.86.86,0,0,0,.16.35l.16.14a.73.73,0,0,0,.37.14.57.57,0,0,0,.29,0,.68.68,0,0,0,.27-.13.64.64,0,0,0,.18-.25.55.55,0,0,0,.09-.28Z"/><path class="cls-33" d="M38.15,31.39c-.58,0-.66.92-.07.92S38.75,31.39,38.15,31.39Z"/><path class="cls-33" d="M39.91,29.56a.31.31,0,0,0,0-.13,0,0,0,0,1,0,0,.35.35,0,0,0,0-.08.43.43,0,0,0-.13-.09h-.12a.23.23,0,0,0-.11,0h-.05l-.07,0a.23.23,0,0,0-.07.07.26.26,0,0,0-.05.12.28.28,0,0,0,0,.09.29.29,0,0,0,0,.09.12.12,0,0,0,0,.08.18.18,0,0,0,0,.07.32.32,0,0,0,.12.08h.18l.08,0,.08,0,.06-.07a.31.31,0,0,0,.06-.13A.28.28,0,0,0,39.91,29.56Z"/><path class="cls-42" d="M21.57,46.11V46a14.82,14.82,0,0,1,.09-1.68,18,18,0,0,1-5.85-1c-.58-.24-.69-.8-1.17-1.31-1.37-1.5-3.28-2.29-4.27-4.13-.45-.85-.77-2.06-1.68-2.54s-2.41.11-3.46.22a6.31,6.31,0,0,1-2-.32C2.1,35,1.09,35.73.29,36.44c.36.74,1.68-.08,2.23-.13C1.75,37.32.08,37.5,0,39c-.11,2.1,1.93-.54,2.71-.57a5.79,5.79,0,0,0,.1,1.32c.08.28.31.46.37.71s-.1.69,0,1a3.64,3.64,0,0,0,.48.86c.13.22.07.43.38.35s.33-.44.37-.65c.07-.39-.13-.9,0-1.24.81.17,1.5-.74.52-1.11.36-.45,1.6-2.17,2.31-1.62s.5,1.82.71,2.57c.12.41.85,1.53,1.34,1,.28-.33-.15-1.09-.21-1.45-.13-.68.28-1.32.1-2,.86.58,1.41,1.91,1.94,2.75A22.07,22.07,0,0,0,13.42,44c.44.48.47.51,1,.55a20.11,20.11,0,0,1,4.29,1.07A8.48,8.48,0,0,0,21.57,46.11Z"/><path class="cls-42" d="M42.9,91.92a5.56,5.56,0,0,1-1.12-2.12,11.4,11.4,0,0,1-.07-2.74,16.14,16.14,0,0,0,0-2.41c-.13-.86-.07-1.73-.24-2.59a8.67,8.67,0,0,1-.13-.89l-2-.73,0,.3c.24,2.07.69,4.14,1.09,6.18.14.72.18,1.45.3,2.17.08.47.21.93.28,1.4.15,1,.35,2,.52,3s.38,2.08.48,3.14a76.65,76.65,0,0,1,.63,8.17c0,.17,0,.34,0,.51a4.53,4.53,0,0,0,.46-.3c.27-.19.41-5.71.5-6.43s.08-1.35.2-2a5.18,5.18,0,0,0,.2-1.22A6,6,0,0,0,42.9,91.92Z"/><path class="cls-42" d="M30.34,85.72A12,12,0,0,1,30.52,83a16.32,16.32,0,0,0,.2-2.41c0-.87.08-1.73,0-2.6,0-.25,0-.5,0-.75-.63-.26-1.25-.53-1.87-.82v.07c0,2.08.3,4.18.51,6.25.07.73.05,1.46.1,2.19,0,.47.12.94.15,1.42.06,1,.16,2,.24,3s.19,2.11.19,3.17a77.41,77.41,0,0,1-.13,8.2l-.06.51c.11,0,.38-.19.49-.26.29-.17.93-5.65,1.08-6.36s.21-1.33.4-2a5.57,5.57,0,0,0,.31-1.2,6,6,0,0,0-.83-3.5A5.58,5.58,0,0,1,30.34,85.72Z"/><path class="cls-43" d="M8.27,42H4.87a.46.46,0,0,1-.46-.46h0a.46.46,0,0,1,.46-.47h3.4a.46.46,0,0,1,.46.47h0A.46.46,0,0,1,8.27,42Z"/><path class="cls-43" d="M8.27,42H4.93V52.65a1.68,1.68,0,0,0,1.68,1.67h0a1.67,1.67,0,0,0,1.67-1.67V42Z"/><path class="cls-20" d="M7.94,42H5.27V52.42a1.33,1.33,0,0,0,1.34,1.33h0a1.32,1.32,0,0,0,1.33-1.33V42Z"/><path class="cls-44" d="M8.41,41.08a.44.44,0,0,1-.39.38,14.07,14.07,0,0,1-2.67.14,1.06,1.06,0,0,1-.81-.4.44.44,0,0,0-.13.32.46.46,0,0,0,.46.46h3.4a.46.46,0,0,0,.46-.46A.45.45,0,0,0,8.41,41.08Z"/><path class="cls-45" d="M8.27,42H4.93v.22a2.34,2.34,0,0,1,1.65.44A2.2,2.2,0,0,1,7.24,44a9.3,9.3,0,0,1,.08,1.67c0,.68,0,1.35,0,2a13.85,13.85,0,0,1-.08,2.41,2.75,2.75,0,0,1-.67,1.71,1.58,1.58,0,0,1-1.67.28v.58a1.68,1.68,0,0,0,1.68,1.67h0a1.67,1.67,0,0,0,1.67-1.67V42Z"/><path class="cls-46" d="M5.12,43.89V51a1.93,1.93,0,0,0,1.1-1.33,24.19,24.19,0,0,0,0-5.4C6,43.94,5.12,43.89,5.12,43.89Z"/><path class="cls-47" d="M4.91,41.13H8.06a3,3,0,0,1-.71.28,9,9,0,0,1-2.29.05A.44.44,0,0,1,4.91,41.13Z"/><path class="cls-44" d="M4.93,42H8.27v3.41s0-2.37-.43-2.54a28.63,28.63,0,0,0-2.92-.41Z"/><path class="cls-48" d="M5.1,31.66c.63.48,1,.14,1.66-.05s1.16.1,1,.89c-.18,1-1.24,1.39-1.75,2.18a3.19,3.19,0,0,0-.35,3.1c.19.39.59.71.68,1.15.11.61-.42,1.44-.76,2.14H7.52a10.29,10.29,0,0,0-.69-1.92,3.5,3.5,0,0,1,.06-3.65c.67-1,3.49-2.1,2.9-3.52a2.23,2.23,0,0,0-2.18-1.36c-.65,0-1.51.11-1.36-.86a3.26,3.26,0,0,1,1.81-2.05c1.2-.5,1.87.84.88,1.5-.17-.25-.07-.53-.08-.76-.16.32-.56,1.05-.06,1.22.85.28,1.29-1.37,1.16-1.91-.48-2-2.87-.72-3.9.12a4.2,4.2,0,0,0-1.44,2.6A1.2,1.2,0,0,0,5.1,31.66Z"/><path class="cls-26" d="M39.54,100A25.85,25.85,0,0,1,42,102.4a3,3,0,0,1,0,2.81,4.22,4.22,0,0,1-.92.92c-.65.51-1.35,1.51-2.22,1.63-1.62.22-.22-1.65-.06-1.56-1.12-.62-1.77,1.42-1.34,2.23.65,1.21,1.81.72,2.83.42.71-.21,1.4-.44,2.12-.6.41-.09,1-.12,1.25-.37a1.75,1.75,0,0,0,.26-1,7.67,7.67,0,0,1,.52-2.46c.3-.64.91-1.12,1.16-1.78,0-.12.18-.15.18-.3,0-.3-.64-.83-.81-1a6.75,6.75,0,0,0-3.06-1.74c-.63-.16-2.1-.43-2.61.11C39.33,99.79,39.43,99.91,39.54,100Z"/><path class="cls-49" d="M43.59,107.88a1.75,1.75,0,0,0,.26-1,7.67,7.67,0,0,1,.52-2.46c.3-.64.91-1.12,1.16-1.78,0-.12.18-.15.18-.3a.81.81,0,0,0-.22-.42,3.59,3.59,0,0,1-1.06,1.38,4.3,4.3,0,0,0-.77,1.56c-.29.79-.39.73-1.1,1.08A5.4,5.4,0,0,0,41.38,107c-.59-.55-1.61.62-2.07.89s-.72.41-1.16.12-.79-1.09-.48-1.5a2.15,2.15,0,0,0-.28,2c.65,1.21,1.81.72,2.83.42.71-.21,1.4-.44,2.12-.6C42.75,108.16,43.34,108.13,43.59,107.88Z"/><path class="cls-50" d="M43.59,107.88a.88.88,0,0,0,.21-.7c-.23.07-1.08.67-1.12.07,0-.27.83-.51.33-.82s-1.7,1.5-2.22,1.65a.89.89,0,0,1,.29-.79.21.21,0,0,0-.06-.1c-.73.07-1.42,1-2.18,1.12-1.76.36-.71-2.32-.29-2.19-1-.32-1.57,1.55-1.16,2.31.65,1.21,1.81.72,2.83.42.71-.21,1.4-.44,2.12-.6C42.75,108.16,43.34,108.13,43.59,107.88Z"/><path class="cls-30" d="M44.09,100.86A6.4,6.4,0,0,0,41,99.59c-.34,0-1-.18-1,.3s1.15,1.1,1.43,1.38a3.25,3.25,0,0,1,1.09,2.13c.1,1.27-.57,1.72-1.22,2.62.85,0,1.89-1.78,2-2.57a3.13,3.13,0,0,0-.43-1.48c-.37-.94,1.11-1.41,1.64-.79A3.34,3.34,0,0,0,44.09,100.86Z"/><path class="cls-26" d="M27.16,95.7a25.14,25.14,0,0,1,2.19,2.58,2.93,2.93,0,0,1-.29,2.79,4,4,0,0,1-1,.84c-.69.45-1.48,1.38-2.36,1.41-1.64.08-.07-1.66.08-1.55-1.05-.72-1.89,1.25-1.54,2.1.54,1.26,1.74.87,2.78.67.73-.14,1.43-.3,2.17-.4.41,0,1,0,1.27-.25s.3-.71.36-1a7.71,7.71,0,0,1,.75-2.4c.35-.62,1-1,1.32-1.67,0-.11.19-.13.21-.28s-.57-.89-.72-1.07a6.81,6.81,0,0,0-2.88-2c-.61-.21-2.06-.63-2.62-.13C27,95.44,27.06,95.57,27.16,95.7Z"/><path class="cls-49" d="M30.46,103.89c.28-.23.3-.71.36-1a7.71,7.71,0,0,1,.75-2.4c.35-.62,1-1,1.31-1.67.06-.11.2-.13.22-.28a.77.77,0,0,0-.19-.44,3.5,3.5,0,0,1-1.18,1.28,4.42,4.42,0,0,0-.91,1.48c-.36.76-.45.69-1.2,1a5.62,5.62,0,0,0-1.27,1c-.53-.6-1.66.46-2.15.7s-.75.33-1.16,0-.69-1.15-.33-1.54a2.16,2.16,0,0,0-.47,2c.54,1.26,1.74.87,2.78.67.73-.14,1.43-.3,2.17-.4C29.6,104.09,30.19,104.12,30.46,103.89Z"/><path class="cls-50" d="M30.46,103.89a.88.88,0,0,0,.28-.68c-.23.05-1.13.57-1.13,0,0-.27.88-.43.41-.79s-1.83,1.34-2.36,1.44a.9.9,0,0,1,.36-.76A.18.18,0,0,0,28,103c-.73,0-1.5.83-2.27.91-1.79.2-.5-2.37-.09-2.2-1-.41-1.7,1.4-1.37,2.2.54,1.26,1.74.87,2.78.67.73-.14,1.43-.3,2.17-.4C29.6,104.09,30.19,104.12,30.46,103.89Z"/><path class="cls-30" d="M31.62,96.94a6.37,6.37,0,0,0-3-1.54c-.34-.08-1-.28-1.05.2s1,1.2,1.3,1.5a3.2,3.2,0,0,1,.88,2.22c0,1.28-.72,1.66-1.45,2.5.85.06,2.05-1.59,2.19-2.38a3.18,3.18,0,0,0-.29-1.51c-.28-1,1.24-1.3,1.7-.63A2,2,0,0,0,31.62,96.94Z"/><path class="cls-51" d="M61.21,49c.49,0,.71,0,.65-.47S59.36,29.6,59.61,25.9a13.37,13.37,0,0,0-.29,5.16C60,37.87,60.88,49,61.21,49Z"/><path class="cls-5" d="M59.81,25.15l.17.35a.36.36,0,0,0,.26.19l.39,0a.35.35,0,0,1,.19.59l-.28.27a.34.34,0,0,0-.1.3l.07.39a.35.35,0,0,1-.5.36l-.35-.18a.34.34,0,0,0-.31,0l-.35.18a.34.34,0,0,1-.5-.36l.07-.39a.34.34,0,0,0-.1-.3l-.28-.27a.35.35,0,0,1,.19-.59l.39,0A.35.35,0,0,0,59,25.5l.18-.35A.34.34,0,0,1,59.81,25.15Z"/><path class="cls-52" d="M61.62,46.7c-.53-2.43-.81-4.92-1.17-7.39-.23-1.56-.41-3.11-.55-4.68a13,13,0,0,1-.13-4.26.29.29,0,0,1,0-.09,35.51,35.51,0,0,1-.18-4.38,13.37,13.37,0,0,0-.29,5.16C60,37.87,60.88,49,61.21,49c.49,0,.71,0,.65-.47C61.85,48.47,61.76,47.79,61.62,46.7Z"/><path class="cls-42" d="M55.52,52.93a2.14,2.14,0,0,0,1.16.18c1.06-.28,1.79-2.65,2-3.56a26.38,26.38,0,0,1,.73-3c.17-.56.28-1.14.44-1.7.23-.79.39-.89,1.18-.76,1.78.28,1.78-2.33,1.48-3.37-.13-.49-.3-1.38-.79-1.67-.16-.09-1.56-.32-1.41.14-.15-.47-.93-3.42-2-2-.44.61.55,1.43.7,2a13,13,0,0,1-.06,5.8c-.46,1.38-1.45,2.31-2.11,3.57A11.1,11.1,0,0,0,56,51.36c-2.64-1-4.8-3-7.14-4.59-.82-.54-2.3-1.51-2.08.1.25,1.8,2.77,3,4.17,3.74,1,.52,1.94,1.11,3,1.57C54.27,52.35,54.91,52.71,55.52,52.93Z"/><path class="cls-26" d="M42.73,46.69c-.28.4-1.59,2.44-.68,2.93.45.25,1.48-.63,1.85-.82,1.38-.73,3.28-1.95,4.93-1.63,1.94.37,2.79,2.78,4.79,3-.39-2-1.35-5.65-3.34-6.63C47.4,42.1,44.32,44.4,42.73,46.69Z"/><path class="cls-30" d="M51.12,45.42a.17.17,0,0,0,.06-.06c.13-.21-.31-.92-.47-1.1a2.26,2.26,0,0,0-1-.54,3.87,3.87,0,0,0-2.13-.11c-1.62.53-4.07,2-4.56,3.75.75,0,1.22-.62,1.82-1a12.83,12.83,0,0,1,1.35-.64,6.94,6.94,0,0,1,3.8-.31A2.78,2.78,0,0,0,51.12,45.42Z"/><path class="cls-33" d="M59.66,25.9l.1.18a.15.15,0,0,0,.13.1l.21,0a.18.18,0,0,1,.1.31l-.15.14a.19.19,0,0,0,0,.16L60,27a.18.18,0,0,1-.26.19l-.18-.1a.17.17,0,0,0-.17,0l-.18.1A.18.18,0,0,1,59,27l0-.21a.19.19,0,0,0,0-.16l-.15-.14a.18.18,0,0,1,.1-.31l.2,0a.18.18,0,0,0,.14-.1l.09-.18A.17.17,0,0,1,59.66,25.9Z"/><path class="cls-5" d="M66.87,24.3l.12.25a.25.25,0,0,0,.19.14l.28,0a.24.24,0,0,1,.14.42l-.21.2a.26.26,0,0,0-.07.22l.05.29a.25.25,0,0,1-.36.26L66.76,26a.31.31,0,0,0-.23,0l-.26.14a.24.24,0,0,1-.35-.26l0-.29a.23.23,0,0,0-.07-.22l-.2-.2a.24.24,0,0,1,.14-.42l.28,0a.22.22,0,0,0,.18-.14l.13-.25A.25.25,0,0,1,66.87,24.3Z"/><path class="cls-53" d="M67.77,21.36l-.15.14a.18.18,0,0,0-.05.16l0,.2a.18.18,0,0,1-.26.18L67.16,22a.18.18,0,0,0-.16,0l-.19.1a.18.18,0,0,1-.25-.19l0-.2a.18.18,0,0,0,0-.16l-.14-.15a.17.17,0,0,1,.1-.29l.2,0a.15.15,0,0,0,.13-.1l.1-.18a.17.17,0,0,1,.31,0l.09.18a.19.19,0,0,0,.13.1l.2,0A.18.18,0,0,1,67.77,21.36Z"/><path class="cls-53" d="M59.73,21.21l.13.26a.26.26,0,0,0,.19.13l.28,0a.25.25,0,0,1,.14.43l-.21.19a.29.29,0,0,0-.07.22l.05.29a.25.25,0,0,1-.36.26l-.25-.14a.31.31,0,0,0-.23,0l-.26.14a.24.24,0,0,1-.35-.26l0-.29a.23.23,0,0,0-.07-.22l-.2-.19a.25.25,0,0,1,.14-.43l.28,0a.23.23,0,0,0,.18-.13l.13-.26A.25.25,0,0,1,59.73,21.21Z"/><path class="cls-53" d="M66.87,14l.12.26a.26.26,0,0,0,.19.13l.28,0a.25.25,0,0,1,.14.43l-.21.2a.25.25,0,0,0-.07.22l.05.28a.25.25,0,0,1-.36.26l-.25-.13a.24.24,0,0,0-.23,0l-.26.13a.24.24,0,0,1-.35-.26l0-.28a.22.22,0,0,0-.07-.22l-.2-.2a.25.25,0,0,1,.14-.43l.28,0a.23.23,0,0,0,.18-.13l.13-.26A.25.25,0,0,1,66.87,14Z"/><path class="cls-5" d="M69.5,13l0,.44a.4.4,0,0,0,.17.3l.38.23a.39.39,0,0,1-.07.68l-.41.15a.37.37,0,0,0-.24.26l-.11.43a.38.38,0,0,1-.66.14l-.27-.34a.38.38,0,0,0-.32-.15l-.44,0a.38.38,0,0,1-.34-.58l.24-.37a.36.36,0,0,0,0-.35l-.16-.41a.37.37,0,0,1,.45-.5l.42.12a.41.41,0,0,0,.35-.08l.33-.28A.38.38,0,0,1,69.5,13Z"/><path class="cls-5" d="M70.37,16.38l.07.14a.15.15,0,0,0,.11.08l.16,0a.14.14,0,0,1,.08.24l-.12.12a.14.14,0,0,0,0,.12l0,.16a.14.14,0,0,1-.21.15l-.14-.07a.11.11,0,0,0-.13,0l-.15.07a.14.14,0,0,1-.2-.15l0-.16a.17.17,0,0,0,0-.12l-.12-.12a.14.14,0,0,1,.08-.24l.16,0a.16.16,0,0,0,.1-.08l.08-.14A.14.14,0,0,1,70.37,16.38Z"/><path class="cls-5" d="M66.79,10.1l.08.17a.15.15,0,0,0,.12.08l.18,0a.16.16,0,0,1,.09.27l-.14.13a.17.17,0,0,0,0,.14l0,.18a.16.16,0,0,1-.23.17l-.16-.09a.2.2,0,0,0-.15,0l-.16.09a.16.16,0,0,1-.23-.17l0-.18a.15.15,0,0,0,0-.14L66,10.65a.16.16,0,0,1,.09-.27l.18,0a.17.17,0,0,0,.12-.08l.08-.17A.16.16,0,0,1,66.79,10.1Z"/><path class="cls-53" d="M70.37,8.81l.07.14a.15.15,0,0,0,.11.08l.16,0a.14.14,0,0,1,.08.24l-.12.12a.14.14,0,0,0,0,.12l0,.16a.15.15,0,0,1-.21.15l-.14-.07a.11.11,0,0,0-.13,0L70,9.84a.14.14,0,0,1-.2-.15l0-.16a.17.17,0,0,0,0-.12l-.12-.12a.14.14,0,0,1,.08-.24l.16,0A.16.16,0,0,0,70,9l.08-.14A.14.14,0,0,1,70.37,8.81Z"/></g></g></g></svg>