<?xml version="1.0" encoding="UTF-8"?><svg xmlns="http://www.w3.org/2000/svg" viewBox="0 0 340.56 1059.56"><defs><style>.e{fill:#d46803;}.e,.f,.g,.h,.i,.j,.k,.l,.m,.n,.o,.p,.q{fill-rule:evenodd;}.f{fill:#e8a189;}.r,.p{fill:#360b1e;}.g{fill:#dbd3d7;}.h{fill:#ffda37;}.i{fill:#d7cad0;}.j{fill:#c36c4e;}.k{fill:#08255f;}.l{fill:#f2bead;}.m{fill:#031437;}.n{fill:#fcf8fa;}.o{fill:#d2866c;}.q{fill:#e4d7dd;}</style></defs><g id="a"/><g id="b"><g id="c"><g id="d"><g><path class="i" d="M249.48,419.49s65.82-5.39,76.82,49.89c8.8,44.2,9.99,114.19-2.41,243.09-2.23,23.26,8,107.61-5.81,119.97-13.82,12.36-68.59-412.95-68.59-412.95Z"/><g><path class="e" d="M134.07,1036.73v5.4c0,1.75,.6,3.17,1.35,3.18,0,0,52.2,.15,53.19-.37,6.45-3.44,30.05-27.87,34.88-29.85,4.83-1.97,42.89-19.96,45.32-22.73,2.42-2.76,.55-11.03-3.57-10.47-4.11,.55-128.63,50.87-131.17,54.84Z"/><path class="p" d="M194.84,950.21s-3.49-2.89-2.54-4.48c.94-1.6,13.01-6.21,14.8-6.54,1.79-.33,27.62-1.54,26.9,1.37-.72,2.91-29.2,20.2-39.16,9.65Z"/><path class="p" d="M138.4,1029.17s-6.9,8.44-3.75,11.02c3.15,2.57,46.13,4.56,52.96-.27,6.83-4.83,24.06-22.29,33.94-27.19,9.88-4.89,45.87-20.83,44.96-26.34-.92-5.51,1.2-7.21-13.38-3.05-14.59,4.15-100.61,48.05-114.73,45.84Z"/><path class="f" d="M190.12,914.22s9.41,50.45,4.95,59.77c-4.47,9.33-20.17,34.97-24.35,38.79-4.17,3.82-9.85,10.41-15.64,10.41-5.79,0-14.42,.39-16.97,3.41-2.55,3.01-5.1,9.49-.29,10.71,4.81,1.22,40.94,5.18,46.45,.83,5.5-4.34,30.36-30.21,38.07-32.47,7.7-2.25,39.33-8.49,37.42-24.19-1.9-15.69-26.51-29.89-27.49-37.95-.98-8.05-3.39-55.19-3.39-55.19l-38.75,25.86Z"/><path class="o" d="M190.81,915.87l5.09,36.61s41.58-27.93,39.54-58.86c-2.03-30.93-44.63,22.25-44.63,22.25Z"/><path class="o" d="M194.68,949.87s15.65,5.49,23.07,3.84c7.42-1.65,15.17-7.27,15.17-7.27l4.09,4.58s-5.81,11.18-14.21,14.26c-8.39,3.08-26.8,5.82-26.8,5.82,0,0,.62-5.71,.02-10.95-.62-5.33-2.45-10.17-1.34-10.27Z"/><path class="p" d="M192.68,945.36s15.65,5.49,23.07,3.84c7.41-1.65,18.28-8.97,18.28-8.97l1.52,6.15s-6.36,11.31-14.75,14.39c-8.39,3.09-24.72,6.05-24.72,6.05,0,0,.09-3.55-.8-7.39-1.44-6.22-3.96-13.94-2.61-14.07Z"/><path class="p" d="M169.36,1013.45s-1.45,3.03-.55,9.04c.91,6.01,8.75,17.68,8.75,17.68l-18.87,1.36s-7.59-7.33-6.41-12.45c1.18-5.12,4.85-7.43,4.85-7.43,0,0,10.21-5.73,12.22-8.21Z"/><path class="o" d="M169.96,1016.66s9.53,8.79,12.63,8.35c3.09-.44,3.96,.28,3.96,.28,0,0,4.25,6.63,5.35,6.08,.93-.47,3.29-3.57,3.29-3.57l-4.79-7.69s.77-.87-.39-6.83c-1.16-5.95-6.31-16.95-7.57-16.68-1.26,.26-2.44,1.96-2.03,2.73,.41,.78,6.67,15.25,3.53,17.45-3.14,2.2-9.78-5.4-11.13-5.43-1.35-.04-3.15,2.15-2.85,5.32Z"/><path class="p" d="M168.26,1017.69s9.53,8.79,12.63,8.35c3.1-.44,3.97,.28,3.97,.28l6.46,6.17,2.96-2.81-5.57-8.55s.77-.87-.39-6.83c-1.16-5.95-6.31-16.94-7.57-16.68-1.26,.26-2.45,1.96-2.04,2.73,.41,.78,6.67,15.25,3.53,17.45-3.14,2.2-9.78-5.39-11.13-5.43-1.35-.04-3.14,2.15-2.85,5.32Z"/><path class="o" d="M185.78,994.47s9.97,11.63,14.7,12.11c4.73,.48,8.09-.93,8.09-.93l5.73,5.14,6.53-4.59s-8.28-7.3-8.15-9.17c.12-1.87-2.19-9.18-6.21-15.97-4.02-6.79-10.35-9.41-11.03-7.81-1.66,3.91-2.87,4.13-1.27,6.65,1.6,2.53,12.49,12.02,12.74,16.06,.24,4.04-4.96,5.03-8.37,1.71-3.41-3.32-11.03-9.96-11.03-9.96,0,0-3.72,4.15-1.73,6.78Z"/><path class="p" d="M182.43,995.7s10.71,12.49,15.44,12.97c4.73,.48,8.09-.93,8.09-.93l8.01,6.71,6.5-4.57s-10.52-8.89-10.4-10.75c.12-1.87-2.19-9.19-6.21-15.98-4.02-6.79-8.73-8.75-10.15-7.75-1.42,1.01-3.93,3.27-2.33,5.79,1.59,2.53,12.67,12.82,12.92,16.86,.25,4.04-4.95,5.03-8.36,1.71-3.41-3.32-10.27-10.33-10.27-10.33,0,0-5.21,3.66-3.23,6.28Z"/><path class="o" d="M215.87,973.07c-.39-2.78,3.45-5.61,8.57-6.31,5.12-.71,9.58,.98,9.96,3.77,.39,2.78-3.45,5.61-8.57,6.31-5.12,.71-9.58-.98-9.96-3.77Z"/><path class="r" d="M196.98,939.27c-2.12,0-3.5-.06-3.75-.07-.37-.02-.65-.33-.63-.7,.02-.36,.31-.63,.66-.63h.03c.3,.02,29.48,1.31,38.51-9.25,.24-.28,.66-.31,.94-.07,.28,.24,.31,.66,.07,.94-7.54,8.82-27.47,9.79-35.84,9.79Z"/><path class="r" d="M219.6,942.78c-.58,0-1.17-.02-1.78-.06-12.11-.78-23.83-9-24.32-9.35-.3-.21-.37-.63-.16-.93,.21-.3,.63-.37,.93-.16,.12,.08,11.91,8.35,23.64,9.11,11.58,.73,17.74-6.58,17.8-6.65,.23-.29,.66-.33,.94-.09,.29,.23,.33,.65,.09,.94-.25,.31-6.04,7.19-17.14,7.19Z"/><path class="r" d="M196.1,951.8c-1,0-1.99-.1-2.97-.31-.36-.08-.59-.43-.51-.79,.08-.36,.44-.59,.79-.51,16.7,3.58,38.33-28.49,38.55-28.82,.2-.31,.62-.39,.92-.18,.31,.2,.39,.62,.18,.92-.85,1.28-20.01,29.69-36.96,29.69Z"/><path class="p" d="M135,1034.02s2.47-6.42,5.46-6.38c2.99,.04,10.81,4.72,10.81,4.72,0,0-7.99-3.22-11.05-2.96-3.07,.26-4.15,2.95-5.21,4.62Z"/></g><path class="o" d="M44.53,186.85s21.26-4.13,27.61-8.59c6.35-4.46,9.99-8.83,10.71-4.69,.73,4.14-8.29,14.91-11.55,16.76-3.26,1.85-1.27,6.47,5.72,8.5,7,2.03,25.67,11.89,23.27,21.48-1.41,5.69-14.24,7.15-18.89,6.87-4.65-.28-36.89-40.34-36.89-40.34Z"/><path class="p" d="M72.74,203.07s22.26,6.47,26.41,10.81c4.14,4.34-2.33,14.59-3.63,16.88-1.31,2.29-22.77-27.7-22.77-27.7Z"/><path class="f" d="M15.4,405.07s27.98-10.7,33.07-3.27c5.1,7.42,14.27,47.17,18.37,46.43s78.46-77.32,78.46-77.32l28.08,21.28s-35.69,44.14-80.08,64.36c-16.03,7.3-23.1,18.49-30.53,16.17-13.69-4.27-31.31-24.67-34.76-35.1-3.46-10.44-3.35-37.23-12.61-32.54Z"/><path class="o" d="M41.16,399.19c-10.02-.13-25.77,5.89-25.77,5.89,5.82-2.94,7.89,6.57,9.52,16.61,7.43,7.79,16.07,15.67,20.61,15.43,3.92-.2,8.97-2.81,13.15-7.21-3.64-11.29-7.47-24.17-10.19-28.13-1.27-1.85-3.97-2.56-7.31-2.6Z"/><path class="p" d="M326.43,986.49s2.22-.84,2.52-.22c.3,.63-.49,3.12-.49,3.12l-2.03-2.9Z"/><path class="e" d="M216.44,1039.22s-1.65,8.42,.25,11.04c1.89,2.62,17.01,8.64,27.27,9.12,10.27,.47,31.67,.35,42.79-4.79,11.11-5.15,23.9-8.87,27.75-9.09,3.85-.22,25.07-7.01,25.72-10.61,.65-3.59,.95-7.29-4.39-13.73-5.34-6.45-119.38,18.07-119.38,18.07Z"/><path class="p" d="M336.98,1019.13s7.63,9.02-3.34,13.83c-10.96,4.8-33.99,9.5-41.71,12.53-7.73,3.03-22.25,10.15-29.47,9.8-7.22-.34-36.43-2.72-39.92-5.79-3.49-3.07-12.13-7.48-4.14-12.34,1.36-.83,4.82-3.93,10.99-5.38,29.97-7.07,105.43-17.39,107.58-12.65Z"/><path class="f" d="M266.4,849.4s29.06,119.41,28.43,127.63c-.63,8.21-1.58,20.22-8.21,26.22-6.64,6-29.61,21.77-34,23.71-4.38,1.94-17.51,3.75-19.58,4.64-2.06,.89-18.69,.63-18.45,4.49,.23,3.85,5.73,6.09,5.73,6.09,0,0-.05,3.67,3.01,4.43,3.06,.77,5.34,.27,5.34,.27,0,0-1.08,2.23,1.17,2.75,2.25,.52,5.93-.07,5.93-.07,0,0-.41,2.55,1.34,3.09,1.75,.55,6.66-1.06,6.66-1.06,0,0,5.69,1.56,8.22,1.26,2.53-.3,12.57,.44,21.77-3.95,9.19-4.39,25.18-9.35,32.27-10.99,7.09-1.64,30.63-5.09,31.09-16.63,.46-11.53-4-23.92-7.28-30.51-3.29-6.59-6.03-18.76-6.47-21.81-.43-3.05,2.01-129.04-9.76-156.38-11.77-27.34-47.21,36.81-47.21,36.81Z"/><path class="k" d="M97.4,123.68l.67-8.6L149.5,8.08s45.86-21.19,75.27,5.06c29.41,26.25,37.63,75.59,37.63,75.59l-86.03,96.14-78.99-61.19Z"/><path class="m" d="M253.51,58.1l-84.35,116.54-.23,4.46,7.45,5.77,86.02-96.15s-2.41-13.8-8.89-30.63Z"/><path class="h" d="M105.9,101.93c-.93,0-.75,.02-1.52,.02l-6.31,13.12-.69,8.6,78.07,60.46,7.56-6.69,3.52-3.92c-.37-.99-4.14-11.11-8.25-16.54-4.31-5.69-9.19-22.7-6.75-27.23,2.45-4.53,2.19-12-13.41-20.46-11.71-6.35-39.19-7.3-52.21-7.38Z"/><path class="f" d="M147.08,310.97s28.15,38.02,49.04,48.99c20.89,10.98,28.94,11.4,28.94,11.4,0,0-3.27-130.27-19.25-138.29-15.99-8.01-64.66,60.48-58.73,77.89Z"/><path class="f" d="M108.5,208.1s14.61,33.51,15.5,42.39c.88,8.88,1.39,33.57,1.39,33.57l52.17-44.2s-16.32-25.08-14.49-36.3c1.83-11.22,5.03-34.38,5.03-34.38l-59.59,38.91Z"/><path class="p" d="M109.4,210.65l5.69,11.63s31.28-3.29,35.73-9.61c4.44-6.32,12.97-33.17,12.97-33.17l-54.39,31.15Z"/><path class="f" d="M98.04,121.14s-1.73,13.81-3.31,15.97c-1.59,2.16-4.89,4.32-4.17,6.62,.72,2.3,2.45,7.34,.72,11.08-1.73,3.74-5.9,16.4-4.61,21.87,1.29,5.47,6.05,14.39,5.76,17.41-.29,3.02-1.01,18.7,3.45,20.57,4.46,1.87,22.16-1.58,30.36-2.45,8.2-.86,21.01,0,24.75-6.04,3.74-6.04,12.39-20.97,12.39-20.97,0,0,6.93,7.54,12.03,4.6,5.09-2.94,5.99-12.69,10.67-17.98,4.69-5.29,6.29-13.82,1.13-16.41s-14.37,4.76-14.37,4.76c0,0-8.23-7.89-9.5-13.4-1.28-5.51-5.15-15.51-17.04-18.69-11.9-3.19-43.77-9.55-48.27-6.94Z"/><path class="p" d="M90.06,189.11s4.99,.48,9.33,1.16c4.34,.68,14.74,.47,14.74,.47,0,0-7.81-5.53-11.29-6.83-3.47-1.3-4.29-.05-5.88-.39-1.59-.34-3.04-1.21-4.78-.14-1.73,1.06-3.23,4.15-2.12,5.74Z"/><path class="p" d="M115.82,156.26s4.55-8.54,9.32-8.88c4.77-.34,11.07,5.05,13.73,5.43,2.67,.38,4.07,.89,4.07,.89,0,0-7.61,1.43-10,2.56-2.39,1.13-3.87,1.33-6.09,.79-2.23-.54-8.49-1.67-11.03-.8Z"/><path class="g" d="M128.91,149.95s.39,1.38,.57,2.86c.17,1.48-.69,2.71-.69,2.71,0,0,2.41,.26,3.77-.09,1.37-.36,4.53-1.5,3.67-2.14-.85-.64-4.57-3.26-7.33-3.34Z"/><path class="p" d="M111.64,137.56s-.65,5.73,2.07,5.04c2.71-.68,8.5-5.24,13.49-4.97,4.99,.27,9.98,2.06,11.91,3.2,1.93,1.14,6.13,3.95,7.21,3.13,1.08-.82-5.01-8.2-13.17-10.41s-18.83-.73-21.51,4Z"/><path class="o" d="M274.06,883.77l9.09,34.42s37.51-50.2,32.57-80.58c-4.93-30.39-41.66,46.16-41.66,46.16Z"/><path class="p" d="M94.34,195.56c-.99,.99,1.87,3.26,5.85,3.24,3.98-.02,6.45,0,6.31-2.25-.14-2.26-9.93-3.2-12.15-.99Z"/><path class="p" d="M225.54,367.51s-31.54-27.68-38.57-33.81c-7.03-6.12-7.71-9.3-7.71-9.3,0,0,42.2-57.62,28.59-75.32-13.61-17.7-68.97,72.6-65.56,78.5,3.4,5.89,74.41,42.65,83.26,39.93Z"/><path class="j" d="M102.99,176.98s5.69-.55,4.64-2.36c-1.05-1.81-10.1-5.81-12.81-5.53-2.72,.28-3.46,2.51-2.25,4.98,1.2,2.48,5.15,3.4,10.43,2.91Z"/><path class="n" d="M123.87,248.51s-35.61,152.41-17.81,160.67c17.8,8.27,54.67,36.24,68.02,36.24s25.43,.63,23.53,16.53c-1.91,15.89-42.59,219.33-47.68,252.39-5.09,33.06-1.27,245.39-1.27,245.39,0,0,56.58-19.71,87.09-42.59,30.52-22.89,84.55-58.49,85.19-95.36,.63-36.87-2.55-116.34,3.81-149.4,6.36-33.05,15.26-209.79-19.71-234.59-34.97-24.79-57.85-10.81-62.31-24.79-4.45-13.99-12.47-43.13-12.47-43.13,0,0-57.68-31.07-73.35-53.49-15.68-22.43-33.05-67.87-33.05-67.87Z"/><path class="i" d="M200.1,449.44s-54.91-28.49-72.35-39.37c-5.35-3.33-19.47-51.01-15.88-59.57,3.59-8.55,18.79,41.03,29.01,51.97,12.09,12.95,69.75,47.99,59.22,46.96Z"/><path class="r" d="M203.34,449.28c-4.59,0-73.04-35.54-80.7-43.59-8.68-9.11-10.31-71.22-10.37-73.86,0-.37,.28-.67,.65-.68h.02c.36,0,.66,.29,.67,.65,.02,.64,1.68,64.23,10,72.97,7.5,7.88,63.5,36.4,76.87,42.17-3.38-2.58-9.74-7.07-16.83-12.08-17.44-12.32-41.32-29.2-45.32-34.62-.22-.3-.16-.71,.14-.93,.3-.22,.71-.16,.93,.14,3.87,5.24,27.65,22.05,45.02,34.32,9.89,6.99,17.7,12.5,19.26,14.06,.13,.13,.47,.47,.34,.92-.06,.23-.31,.46-.54,.52-.03,0-.08,.01-.13,.01Z"/><path class="i" d="M207.53,432.71s-19.31,.81-35.32-9.67c-16-10.49-63.84-73.12-60.25-81.67,3.59-8.55,43.32,61.81,57.12,67.61,13.79,5.79,56.39,21.53,38.45,23.74Z"/><path class="i" d="M217.99,376.65s-19.31,.81-35.32-9.68c-16-10.48-63.84-73.12-60.25-81.67,3.59-8.55,43.32,61.81,57.12,67.61,13.79,5.79,56.39,21.54,38.45,23.75Z"/><path class="j" d="M90.1,142.22s7.63-7.91,11.59-4.41c3.96,3.5,.63,14.98-1.09,18.87-1.73,3.89-7.47,11.8-7.47,11.8,0,0-2.61-11.18-2.14-12.69,.47-1.52,1.76-5.84,1.37-7.73-.39-1.9-3.25-2.98-2.26-5.83Z"/><path class="p" d="M89.1,139.54c-.47,.95-.73,4,1.04,2.73,1.77-1.26,5.3-3.01,7.57-2.77,3.15,.34,6.86,3.75,6.76,2.28-.1-1.47-3.27-6.34-6.97-6.28-3.71,.06-7.64,2.48-8.4,4.04Z"/><path class="f" d="M204.34,229.64s-11.21-22.14-42.83,1.62c-10.4,7.82-26.8,36.25-50.83,61.23-49.03,50.95-99.64,95.77-96.45,106.53,4.75,16.03,6.49,16.09,25.29,5.05,18.81-11.03,100.43-51.55,137.21-90.62,36.79-39.07,41.23-75.59,27.61-83.8Z"/><path class="p" d="M93.19,148.17s-2.77,2.23-2.28,4.3c.5,2.06,2.74,2.63,4.77,2.5,1.95-.12,5.65-.57,5.68-1.48,.05-2.01-4.69-5.47-8.17-5.31Z"/><path class="q" d="M94.96,148.85s6.51,3.36,5.24,4.63c-1.27,1.26-4.87,1.09-4.87,1.09,0,0,1.63-2.93-.37-5.71Z"/><path class="p" d="M103.9,140.97s1.16,6.63-1.12,12.47c-2.28,5.84-11.7,17.49-11.7,17.49,0,0,10.6-16.23,11.56-19.16,.95-2.93-.28-11.8-.28-11.8l1.54,1Z"/><path class="r" d="M145.21,150.69c-.15,0-.29-.05-.42-.15-.09-.07-9-7.15-16.98-7.55-7.69-.39-9.96,6.15-9.98,6.22-.12,.35-.49,.54-.84,.42-.35-.12-.54-.49-.42-.84,.02-.08,2.59-7.57,11.31-7.13,8.41,.42,17.37,7.54,17.75,7.85,.29,.23,.33,.65,.1,.94-.13,.16-.33,.25-.52,.25Z"/><path class="r" d="M111.57,156.26h-.04c-.37-.02-.65-.34-.62-.71l.23-3.58c.02-.37,.37-.63,.71-.62,.37,.02,.65,.34,.62,.71l-.23,3.58c-.02,.35-.32,.62-.66,.62Z"/><path class="p" d="M171.5,170.38s4.5-5.86,8.54-7.3c4.05-1.44,7.06-2.04,7.06-2.04,0,0-7.15,2.98-9.52,5.49-2.37,2.51-7.58,8.12-7.58,8.12l1.5-4.26Z"/><path class="r" d="M103.54,148.89c-.25,0-.48-.14-.6-.37-.8-1.61-1.99-2.67-3.55-3.16-4.05-1.27-9.33,1.6-9.38,1.63-.32,.18-.73,.06-.91-.26-.18-.32-.06-.73,.26-.91,.24-.13,5.81-3.17,10.42-1.74,1.92,.6,3.39,1.89,4.35,3.84,.16,.33,.03,.73-.3,.89-.09,.05-.2,.07-.29,.07Z"/><path class="j" d="M98.92,120.71s10.69,3.88,20.21,5.71c9.53,1.83,33.81,8.09,37.25,16.2,3.44,8.11,11.17,30.07,11.17,30.07l5.57-13.64s-7.95-5.8-9.5-11.53c-1.54-5.74-1.56-18.47-15.59-21.29-14.03-2.83-44.29-7.46-49.11-5.53Z"/><path class="j" d="M98.92,120.71s10.69,3.88,20.21,5.71c9.53,1.83,33.81,8.09,37.25,16.2,3.44,8.11,11.17,30.07,11.17,30.07l5.57-13.64s-7.95-5.8-9.5-11.53c-1.54-5.74-1.56-18.47-15.59-21.29-14.03-2.83-44.29-7.46-49.11-5.53Z"/><path class="f" d="M57.24,184.51s9.15,15.32,16.8,19.44c7.65,4.11,24.05,7.55,25.4,15.06,1.36,7.51-8.01,20.52-9.39,31.65-4.06,32.68-40.19,144.12-51.73,152.69-11.54,8.57-24.01,15.05-30.12,11.21-6.11-3.83-11.39-35.32-5.88-50.66,5.51-15.34,52.93-81.82,59.63-94.9,6.69-13.08,13.51-31.65,7.41-36.85-6.09-5.19-27.96-37.78-29.91-40.6-1.95-2.82-7.69-13.15-1.28-13.86,6.41-.7,28.27-5.63,31.94-8.31,3.67-2.68,6.48-5.18,7.05-1.05,.57,4.12-1.95,16.4-19.93,16.19Z"/><path class="p" d="M230.07,1031.58s11.41,2.88,16.56,8.24c5.15,5.36,6.87,13.55,6.87,13.55l16.12-2.02s-4.17-13.9-6.78-17.23c-2.61-3.33-6.87-10.16-6.87-10.16,0,0-21.6,6.71-25.89,7.62Z"/><path class="o" d="M292.39,1001.27s14.67,8.66,22.88,5.89c8.21-2.77,14.53-16.25,14.53-16.25l3.13,6.67s-2.8,16.01-11.27,18.51c-8.47,2.49-26.49-7.15-26.49-7.15l-2.79-7.67Z"/><path class="o" d="M258.8,1024.73s10.41,11.12,15.53,8.56c5.11-2.56,6.17-7.85,5.55-10.67-.61-2.83-3.53-9.53-3.53-9.53,0,0,4.06-5.65,5.38-4.68,1.33,.97,13.32,24.09,17.65,17.91,4.32-6.18-7.06-26.65-7.06-26.65l1.59-3.09s12.53,12.26,12.88,20.11c.35,7.85-1.41,12.61-1.41,12.61l2.81,8.42-5.13,1.75-2.36-7.07s-3.88,4.15-7.94-.62c-4.05-4.77-8.55-9-8.55-9,0,0,1.26,3.21,.76,6.17-.51,2.96-2.38,3.94-2.38,3.94l5.17,10.56-6.01,1.93-4.19-7.52s-9.96-.16-12.75-1.74c-2.79-1.58-8.62-9.97-8.62-9.97l2.61-1.43Z"/><path class="p" d="M255.98,1023.87s10.41,11.11,15.53,8.55c5.12-2.56,6.18-7.85,5.56-10.67-.62-2.83-3.53-9.53-3.53-9.53,0,0,4.05-5.65,5.38-4.68,1.32,.97,13.32,24.09,17.64,17.91,4.33-6.18-7.05-26.65-7.05-26.65l1.59-3.09s12.53,12.27,12.88,20.11c.35,7.85-1.41,12.62-1.41,12.62l3.88,11.47-4.49,2.56-4.06-10.94s-3.88,4.15-7.94-.62c-4.06-4.76-8.56-9-8.56-9,0,0,1.27,3.21,.76,6.17-.51,2.96-2.37,3.94-2.37,3.94l6.51,15.55-5.17,1.89-6.37-12.47s-9.97-.16-12.75-1.74c-2.79-1.58-8.63-9.97-8.63-9.97l2.61-1.43Z"/><path class="p" d="M291.49,996.44s14.67,8.66,22.88,5.89c8.21-2.77,14.53-16.25,14.53-16.25l3.13,6.67s-2.8,16.01-11.27,18.51c-8.47,2.49-26.49-7.15-26.49-7.15l-2.79-7.67Z"/><path class="p" d="M293.16,990.34s10.19,5.4,18.39,2.63c8.2-2.77,17.35-6.89,17.35-6.89l3.13,6.67s-2.8,16.01-11.27,18.51c-8.47,2.49-26.49-7.15-26.49-7.15l-4.01-6.15,2.9-7.61Z"/><path class="r" d="M304.53,976.5c-5.54,0-11.33-1.99-11.64-2.1-.35-.12-.53-.5-.41-.85,.12-.35,.5-.53,.85-.41,.1,.03,9.77,3.36,15.68,1.41,6.01-1.98,14.74-9.34,14.83-9.41,.28-.24,.7-.2,.94,.08,.24,.28,.2,.7-.08,.94-.37,.31-9.02,7.6-15.28,9.66-1.5,.49-3.18,.68-4.9,.68Z"/><path class="r" d="M297.56,969.16c-3.83,0-6.44-.46-6.51-.48-.36-.07-.6-.42-.53-.78s.42-.6,.78-.53c.2,.04,20.18,3.57,30.81-9.55,.23-.29,.65-.33,.94-.1,.29,.23,.33,.65,.1,.94-7.22,8.92-18.49,10.5-25.58,10.5Z"/><path class="r" d="M306.77,980.44c-8.2,0-14.59-7.97-14.89-8.36-.23-.29-.18-.71,.11-.94,.29-.23,.71-.18,.94,.11,.08,.1,8.05,10.03,17.01,7.39,9.17-2.69,14.25-9.32,14.3-9.39,.22-.3,.64-.35,.93-.13,.29,.22,.35,.64,.13,.93-.21,.29-5.38,7.04-14.99,9.87-1.21,.36-2.39,.51-3.54,.51Z"/><path class="r" d="M297.59,1002.07c-.4,0-.83-.05-1.29-.17-1.84-.44-3.28-1.55-4.28-3.31-1.66-2.9-1.93-7.27-1.61-11.66-1.81,5.69-4.26,11.24-7.29,13.2-1.16,.75-2.36,.96-3.56,.64-1.47-.39-2.02-1.33-2.21-2.05-1.35-4.92,9.22-17.18,14.57-22.97,.54-2.53,.82-4.23,.83-4.29,.05-.29,.28-.52,.58-.55,.13-.01,.25,0,.36,.06,.16-.12,.38-.16,.58-.09,.35,.11,.55,.48,.44,.83,0,.02-.08,.28-.21,.74,.05,.13,.11,.26,.17,.41,.01-.01,.03-.03,.04-.04,.25-.26,.68-.27,.94-.01,.26,.26,.27,.68,.01,.94-.14,.15-.29,.3-.45,.46,2.7,6.78,8.42,22.58,4.89,26.76-.62,.74-1.46,1.1-2.5,1.1Zm-4-26.16c-1.43,5.99-3.38,16.82-.41,22.03,.83,1.45,1.95,2.32,3.43,2.67,1.14,.27,1.95,.11,2.46-.5,2.72-3.23-1.77-16.86-4.88-24.84-.19,.21-.39,.42-.6,.64Zm-2.26,2.48c-5.92,6.63-13.69,16.38-12.7,19.98,.1,.36,.34,.87,1.27,1.12,.84,.23,1.65,.07,2.5-.47,4.15-2.68,7.26-13.37,8.93-20.62Z"/><path class="p" d="M231.28,1037.12s-8.65,3.07-9.85,4.05c-1.2,.98-1.35,3-1.35,3l1.06,1.42s-.23-1.54,1.37-3.49c1.61-1.95,7.68-4.53,8.76-4.97Z"/><path class="p" d="M237.93,1039.33s-4.63,2.15-5.71,3.13c-1.08,.97-4.6,4.55-5.53,4.73-.93,.17,.68,1.75,.68,1.75,0,0,.74-1.56,2.4-2.73,1.66-1.16,4.47-3.16,5.69-4.07,1.23-.91,2.46-2.81,2.46-2.81Z"/><path class="p" d="M246.07,1042.26s-5.43-.47-7.22,1.73c-1.79,2.19-4.87,6.39-4.87,6.39l1.13,.99s2.67-5.51,5.04-7.1c2.37-1.59,5.92-2.01,5.92-2.01Z"/><path class="f" d="M81.56,179.91s-26.94,12.21-23.94,15.84c3,3.63,24.23,23.76,24.23,23.76l5.13-4.16s-18.57-14.77-17.98-17.79c.59-3.02,18.78-11.94,12.55-17.66Z"/><path class="i" d="M296.87,479.71s6.93,115.65,5.07,202.77c-2.39,112.07-76.29,234.02-76.29,234.02,0,0,68.49-58.06,82.1-142.87,13.61-84.82-10.89-293.91-10.89-293.91Z"/><path class="i" d="M220.01,491.69s-45.95,234.78-48.97,264.45c-3.02,29.67-21.44,179.13-21.44,179.13,0,0,16.09-216.27,36.21-317.35,20.11-101.09,34.19-126.23,34.19-126.23Z"/><path class="i" d="M254.86,419.56s-15.1,36.49-27.34,51.91c-12.23,15.43-40.53,44.32-40.53,44.32,0,0,6.62-32.29,9.99-39.76,3.37-7.47,57.89-56.47,57.89-56.47Z"/><path class="h" d="M187.1,450.17s22.05-12.64,31.25-23.65c9.19-11.01,26.86-22.89,26.86-22.89l10.81,13.93s-27.92,45.79-39.53,51.63c-11.61,5.85-22.66,14.78-22.66,14.78,0,0,6.93-23.37-6.73-33.8Z"/><path class="l" d="M188.95,220.31c-6.61-.41-15.58,2.03-27.44,10.94-9.27,6.96-23.33,30.29-43.27,52.96,14.03-1.37,32.67-5.47,53.09-16.52,16.15-8.75,28.75-19.73,38.35-31.31-1.2-2.99-2.97-5.31-5.33-6.73,0,0-4.39-8.65-15.39-9.33Z"/><path class="j" d="M90.88,188.6s-2.67,1.19-.33,4.11c1.75,2.19,9.03,3.13,12.48,1.78,4.55-1.77,11.24-3.81,11.24-3.81,0,0-8.45-.47-14.96-.83-4.45-.25-7.19-1.63-8.43-1.25Z"/><path class="p" d="M28.68,365.33s47.8-38.1,62.76-53.54c16.49-17.02,30.88-32.33,30.88-32.33,0,0-18.53,27.3-36.47,42.87-13.07,11.33-57.17,42.99-57.17,42.99Z"/><path class="f" d="M27.5,440.65s9.58-1.99,15.69,1.73c6.1,3.72,19.5,27.91,15.53,28.26-3.98,.35-46.73-27.63-31.21-29.99Z"/><path class="l" d="M123.7,171.55c-1.01-3.5,4.65-8.21,12.65-10.52s15.3-1.34,16.31,2.17c1.01,3.5-4.65,8.21-12.65,10.52-8,2.31-15.31,1.34-16.31-2.17Z"/></g></g></g></g></svg>