<?xml version="1.0" encoding="UTF-8"?><svg xmlns="http://www.w3.org/2000/svg" viewBox="0 0 277.26 824.41"><defs><style>.e{fill:#feb53d;}.e,.f,.g,.h,.i,.j,.k,.l,.m,.n,.o{fill-rule:evenodd;}.f{fill:#ed6163;}.g{fill:#fff;}.h{fill:#f4d652;}.i{fill:#e8a189;}.j{fill:#23c264;}.k{fill:#fc9f07;}.l{fill:#bb735b;}.m{fill:#e9a642;}.n{fill:#dbcfcf;}.o{fill:#360b1e;}</style></defs><g id="a"/><g id="b"><g id="c"><g id="d"><g><path class="k" d="M146.86,396.33s-56.8,18.73-56.77,21.85c.03,3.12,78.51,.49,82.7-1.33,4.19-1.82,5.59-.53,4.78-3.78-.81-3.25-30.71-16.75-30.71-16.75Z"/><path class="i" d="M119.11,567.05s.65,130.49-1.95,152.53c-2.59,22.04-19.79,63.13-19.79,63.13,0,0,11.7,30.62,4.25,32.09-7.44,1.47-47.25,1.76-54.37,4.7-7.12,2.94-45.95,7.64-47.25,1.77-1.29-5.88,68.93-25.87,69.58-36.15,.65-10.28,19.09-166.63,24.91-190.14,5.83-23.51,24.6-27.92,24.6-27.92Z"/><path class="o" d="M140.54,144.14s30.57,.74,48.62,86.09c5.24,24.79,5.47,90.05,5.47,90.05l-34.79-4.06-19.29-172.07Z"/><path class="m" d="M220,536.29c-16.83-.5-38.41,8.15-39.22,25.85-.72,15.83,24.99,37.43,30.69,42.04l-47.87-2.64-.8,12.33,52.17-3.09-2.17,75.17,15.73,.25-3.9-75.47,52.64,2.45-1.17-11.83-48.93,2.87c5.23-3.43,30.31-20.95,31.02-44.02,.49-15.88-19.84-23.38-38.19-23.92Zm.23,7.31c9.73,.05,29.24,2.73,28.52,19.77-.72,17.04-30.03,35.75-30.03,35.75,0,0-28.85-20.35-28.36-35.79,.49-15.43,20.15-19.77,29.87-19.72Z"/><path class="i" d="M99.06,154.09s-15.19,14.07-17.67,25.9c-2.48,11.82-.31,21.67-.31,21.67,0,0-12.99,13.09-11.51,14.46,1.49,1.37,6.61,2.59,6.91,5.79,.31,3.2-.93,8.09,.91,9.6,1.85,1.51,3.77,2.24,3.92,4.53,.15,2.28-1.45,7.03,2.21,7.89,3.66,.87,22.67-5.54,24.91-1.58,2.24,3.96,.41,12.43-4.27,14.04-2.24,.77-13.91,17.2-24.42,34.84-3.06,5.14-20.37-1.49-26.05,9.72-15.58,30.73-22.33,93.45-18.64,95.92,5.58,3.73,43.28-53.71,50.38-48.14,5.17,4.06,9.08,8.45,9.29,12.91,.51,10.59-1.01,34.09-3.05,51.14-2.03,17.05,40.69,246.22,44.45,290.65,3.77,44.43,5.65,81.51,3.41,86.8-2.25,5.3-14.09,10.81-24.2,14.12-10.11,3.31-45.81,10.9-40.32,16.33,5.49,5.44,60.69,.41,69.64,1.47,8.94,1.07,25.27,5.32,27.13-1.76,1.86-7.08-7.19-19.82-5.07-33.36,2.11-13.54,13.41-101.38,12.33-111.24-1.09-9.85-6.35-22.39-5.27-35.2,1.08-12.81,8.68-129.35,9.22-137.24,.55-7.88,16.45-18.81,3.31-51.86-13.14-33.05-20.55-69.76-17.85-87.81,2.69-18.05,7.41-45.59,7.41-45.59,0,0,18.19,77.11,18.19,87.21s-2.88,58.44,.83,79.55c3.71,21.11,4.05,36.11,4.05,36.11,0,0-7.08,13.77-8.09,19.89-1.01,6.12,4.71,16.52,11.45,18.05,6.74,1.53,29.99,1.53,33.02-5.2,3.03-6.73-13.82-29.97-12.41-37.21,6.38-32.87,3.05-101.22,3.64-116.19,.6-14.97-14.29-106.38-22.04-120.76-7.75-14.38-57.62-27.23-57.62-27.23,0,0-7.01-32.41-10.34-50.28-3.33-17.87-37.49-47.95-37.49-47.95Z"/><path class="l" d="M214.72,318.6l.55,2.68s-22.15,8.61-27.08,11.68c-4.93,3.06-7.57,5.51-7.57,5.51l-3.65-15.59,37.76-4.27Z"/><path class="g" d="M178.65,325.69l38.81-7.05s-6.51-36.41-12.61-42.1c-6.1-5.69-20.57-9.61-20.57-9.61l-61.25,14.78-25.3-23.5s-25.86,2.72-35.62,9.37c-10.79,7.35-16.54,50.09-16.54,50.09l18.03,1.5s-2.31,19.25,6.56,22.91c8.87,3.65,23.24,14.72,23.07,21.1-.17,6.37-3,34.72-2.73,42.15,.27,7.44,5.55,53.07,2.31,75.76-3.24,22.69-36.09,286.55-36.09,286.55l88.79-7.61,16.23-180.2,12.31,65.87s8.1-136.39,12.92-142.96c9.04-12.32,8.81-26.27,4.46-41.9-4.34-15.63-19.59-41.16-20.14-65.71-.55-24.55,7.35-69.43,7.35-69.43Z"/><path class="l" d="M103.52,259.29s8.15,14.35,28.12,11.17c19.96-3.19,42.79-8.97,42.79-8.97,0,0-28.63,14.3-42.8,14.91-14.17,.61-25.66-11.99-28.11-17.11Z"/><path class="e" d="M102.32,256.15s10.01,16.15,27.67,16.83c17.65,.68,45.14-11.42,45.14-11.42l18.17,6.51s-22.53,40-60.16,39c-45.49-1.21-64.93-43.38-64.93-43.38l34.12-7.53Z"/><path class="o" d="M103.92,148.98s-20.83,13.68-15.37,18.42c5.47,4.74,42.95,23.79,46.43,31.23,3.48,7.45,4.97,128.19,4.97,128.19l31.31-3.16v-68.15s8.7-30.69,1.49-59.81c-7.21-29.11-17.89-44.46-27.09-49.43-9.2-4.96-41.75,2.71-41.75,2.71Z"/><path class="n" d="M91.57,417.78s34.15-5.41,50.05-3.9c15.9,1.5,34.09,5.45,34.09,5.45l-3.84-13.87s-43.66-2.87-52.65-.6c-8.99,2.27-27.65,12.92-27.65,12.92Z"/><path class="h" d="M90.38,385.83s18.68-3.34,40.19-4.37c21.51-1.03,41.99,4.49,41.99,4.49l5.1,27.39s-28.72-5.61-41.63-3.51c-12.91,2.1-46.01,8.42-46.01,8.42l.35-32.43Z"/><path class="i" d="M128.28,201.4c1.86-6.99,7.49-11.75,12.57-10.63,5.08,1.11,7.69,7.69,5.83,14.67-1.86,6.99-7.49,11.74-12.57,10.63-5.08-1.11-7.69-7.69-5.83-14.67Z"/><g><path class="f" d="M79.86,65.28c0-26.63,23.77-48.22,53.11-48.22s53.1,21.59,53.1,48.22-23.77,48.22-53.1,48.22-53.11-21.59-53.11-48.22Z"/><path class="e" d="M59.64,0s17.45,17.25,16.3,33.63c-1.15,16.39-6.61,54.65,5.73,64.15s48.86,10.47,49.21,16c.35,5.53,.17,21.31,.17,21.31l-14.95,.21-.73-12.48s-42.03-.2-51.01-25.89c-8.98-25.68,2.78-52.51,1.98-62.71-.79-10.19-6.71-34.23-6.71-34.23Z"/><path class="e" d="M204.9,0s-17.45,17.25-16.3,33.63c1.15,16.39,6.61,54.65-5.73,64.15-12.34,9.5-48.86,10.47-49.21,16-.35,5.53-.17,21.31-.17,21.31l14.95,.21,.73-12.48s42.03-.2,51.01-25.89c8.98-25.68-2.78-52.51-1.98-62.71,.79-10.19,6.71-34.23,6.71-34.23Z"/><path class="e" d="M112.2,132.51h38.07c6.03,0,10.93,4.45,10.93,9.92h0c0,5.48-4.89,9.92-10.93,9.92h-38.07c-6.03,0-10.93-4.44-10.93-9.92h0c0-5.47,4.89-9.92,10.93-9.92Z"/><path class="g" d="M127.36,22.48c-2.72-3.92-14.01,1.89-20.44,5.91-6.43,4.02-12.85,12.03-11.43,15.61,1.43,3.58,13.17-8.91,18.38-11.72,5.21-2.81,15.25-7.24,13.49-9.79Z"/><path class="g" d="M90.32,52.64c4.37,.15,4.24,11.95-1.16,10.89-5.4-1.06-3.21-11.04,1.16-10.89Z"/></g><path class="o" d="M83.76,189.31s-2.47,3.88-.19,4.23c2.28,.34,8.73-.87,12.53-.26,3.79,.6,8.16,3.27,8.16,3.27,0,0-3.51-5.34-7.4-6.89-3.89-1.55-12.05-1.89-13.09-.35Z"/><path class="o" d="M83.98,200.74s4.19,1.01,8.66,.84c4.47-.17,8.69-1.64,8.69-1.64,0,0-4.71,4.67-12.84,3.71-4.69-.55-4.51-2.91-4.51-2.91Z"/><path class="o" d="M128.44,206.09s2.73-5.81,7.21-7.99c4.49-2.18,7.75,1.41,7.75,1.41,0,0-4.99-1.64-8.06,1.02-3.06,2.67-6.89,5.57-6.89,5.57Z"/><path class="f" d="M147.81,734.75l-88.47,12.02c-.37,2.93-2.61,20.87-2.61,20.87l88.8-7.6,2.28-25.29Z"/><path class="o" d="M35.66,389.23s6.67-16.77,15.77-28.88c9.1-12.1,24.32-36.28,28.3-40.42,3.98-4.15,13.84-12.51,17.44-15.17,3.6-2.67,6.37-5.37,6.59-7.36,.23-1.99,.38-6.1,1.97-6.37,1.58-.27,4.75,2.05,4.9,5.34,.15,3.29-3.32,10.21-3.32,10.21,0,0,8.72-1.63,15.86-4.04,7.15-2.4,14.75-6.81,17.49-8.33,2.74-1.52,13.47-6.27,13.81-3.13,.34,3.15-4.8,7.84-6.99,9.57-2.19,1.73-7.33,6.27-9.21,7.42-1.88,1.15-5.42,1.28-4.07,2.34,1.34,1.07,7.77-.41,12.01-1.01,4.25-.59,11.79-1.5,15.25-2.24,3.45-.73,13.81-3.79,14.79,.35,.98,4.14-8.27,5.74-11.33,6.83-3.06,1.09-11.18,1.95-13.53,2.69-2.36,.73-14.71,2.16-12.96,3.29,1.74,1.13,8.9-.81,12.88-1.09,3.97-.29,7.89,.77,11.49,.57,3.59-.19,15.57-4.15,17.4-.54,1.46,2.88-6.3,6.88-11.32,7.63-5.03,.75-15.73,3.55-18.25,3.47-2.52-.08-7.48-1.03-8.16,.65-.67,1.67-1.71,1.73,2.54,3.23,4.24,1.5,8.23,2.5,9.87,3.38,1.65,.88,4.2,1.96,6.35,2.57,2.15,.61,9.23,2.16,8.69,5.4-.4,2.37-6.14,3.68-12.89,1.53-6.75-2.15-19.19-6.64-20.94-6.35-1.75,.3-16.25,1.6-20.91,1.18-4.67-.42-11.18-2.9-13.21,.03-2.04,2.92-15.64,34.25-27.39,51.58-11.75,17.33-25.48,21.56-33.37,18.63-7.89-2.93-5.55-22.95-5.55-22.95Z"/><path class="i" d="M34.36,391.09s.39-.73,1.07-1.98c2.59-4.72,9.5-16.97,16.69-26.53,9.11-12.1,23.89-37.65,27.86-41.8,3.98-4.14,13.84-12.5,17.44-15.17s6.37-5.37,6.6-7.36c.23-1.99,.37-6.1,1.96-6.37,1.58-.27,4.75,2.05,4.9,5.34,.15,3.29-3.32,10.21-3.32,10.21,0,0,8.72-1.63,15.86-4.04,7.15-2.4,14.75-6.81,17.49-8.33,2.74-1.52,12.47-6.44,12.8-3.3,.34,3.15-4.75,6.53-6.94,8.27-2.19,1.73-6.88,6.19-8.76,7.35-1.88,1.15-6.04,2.25-4.69,3.31,1.35,1.07,8.89,.16,13.14-.44,4.25-.6,11.79-1.5,15.25-2.24,3.45-.73,12.71-4.65,13.69-.51,.98,4.14-7.91,5.27-10.97,6.36-3.06,1.09-10.45,3.28-12.8,4.01-2.35,.73-14.7,2.16-12.96,3.29,1.74,1.13,8.9-.81,12.88-1.09,3.97-.29,7.89,.77,11.49,.57,3.59-.19,14.42-4.25,16.23-1.54,1.81,2.71-5.9,6.73-10.93,7.49-5.02,.75-15.78,2.75-18.29,2.67-2.52-.09-7.65-.18-8.32,1.5-.68,1.67-.73,2.82,3.52,4.33,4.24,1.5,8.23,2.5,9.88,3.38,1.65,.88,4.19,1.96,6.35,2.57,2.15,.61,7.83,1.9,7.65,4.3-.19,2.39-5.93,3.29-12.68,1.13-6.75-2.15-18.35-5.15-20.11-4.85-1.75,.3-16.25,1.6-20.91,1.18-4.67-.42-11.17-2.9-13.21,.03-2.04,2.92-15.64,34.25-27.39,51.58-11.75,17.33-25.48,21.55-33.37,18.63-7.89-2.93-7.11-21.95-7.11-21.95Z"/><path class="o" d="M130.4,212.98c0-1.91,1.71-3.45,3.8-3.45s3.8,1.54,3.8,3.45-1.7,3.45-3.8,3.45-3.8-1.55-3.8-3.45Z"/><g><path class="h" d="M121.93,227.19h23.98c1.07,0,1.95,.79,1.95,1.77v3.98c0,.98-.88,1.77-1.95,1.77h-23.98c-1.08,0-1.95-.79-1.95-1.77v-3.98c0-.98,.87-1.77,1.95-1.77Z"/><path class="h" d="M133.23,211.49h1.37c1.08,0,1.95,.79,1.95,1.77v11.02c0,.98-.87,1.77-1.95,1.77h-1.37c-1.07,0-1.95-.79-1.95-1.77v-11.02c0-.98,.87-1.77,1.95-1.77Z"/><g><path class="h" d="M121.62,236.4h1.37c1.08,0,1.95,.79,1.95,1.77v11.02c0,.98-.87,1.77-1.95,1.77h-1.37c-1.08,0-1.95-.79-1.95-1.77v-11.02c0-.98,.87-1.77,1.95-1.77Z"/><path class="h" d="M118.51,257.33c0-1.9,1.69-3.44,3.79-3.44s3.79,1.54,3.79,3.44-1.69,3.45-3.79,3.45-3.79-1.54-3.79-3.45Z"/><path class="j" d="M120.48,257.33c0-.91,.81-1.65,1.81-1.65s1.82,.74,1.82,1.65-.81,1.65-1.82,1.65-1.81-.74-1.81-1.65Z"/></g><g><path class="h" d="M145.58,236.4h1.37c1.07,0,1.95,.79,1.95,1.77v11.02c0,.98-.87,1.77-1.95,1.77h-1.37c-1.08,0-1.95-.79-1.95-1.77v-11.02c0-.98,.87-1.77,1.95-1.77Z"/><path class="h" d="M142.47,257.33c0-1.9,1.7-3.44,3.79-3.44s3.79,1.54,3.79,3.44-1.7,3.45-3.79,3.45-3.79-1.54-3.79-3.45Z"/><path class="j" d="M144.44,257.33c0-.91,.81-1.65,1.82-1.65s1.82,.74,1.82,1.65-.82,1.65-1.82,1.65-1.82-.74-1.82-1.65Z"/></g><g><path class="h" d="M129.6,236.4h1.37c1.08,0,1.95,.79,1.95,1.77v11.02c0,.98-.87,1.77-1.95,1.77h-1.37c-1.08,0-1.95-.79-1.95-1.77v-11.02c0-.98,.87-1.77,1.95-1.77Z"/><path class="h" d="M126.5,257.33c0-1.9,1.69-3.44,3.79-3.44s3.79,1.54,3.79,3.44-1.69,3.45-3.79,3.45-3.79-1.54-3.79-3.45Z"/><path class="j" d="M128.47,257.33c0-.91,.81-1.65,1.82-1.65s1.81,.74,1.81,1.65-.81,1.65-1.81,1.65-1.82-.74-1.82-1.65Z"/></g><g><path class="h" d="M137.59,236.4h1.37c1.07,0,1.95,.79,1.95,1.77v11.02c0,.98-.87,1.77-1.95,1.77h-1.37c-1.08,0-1.95-.79-1.95-1.77v-11.02c0-.98,.87-1.77,1.95-1.77Z"/><path class="h" d="M134.48,257.33c0-1.9,1.7-3.44,3.79-3.44s3.79,1.54,3.79,3.44-1.69,3.45-3.79,3.45-3.79-1.54-3.79-3.45Z"/><path class="j" d="M136.46,257.33c0-.91,.81-1.65,1.82-1.65s1.81,.74,1.81,1.65-.81,1.65-1.81,1.65-1.82-.74-1.82-1.65Z"/></g></g></g></g></g></g></svg>