<svg xmlns="http://www.w3.org/2000/svg" viewBox="0 0 512.48 627.43"><defs><style>.cls-1{isolation:isolate;}.cls-2{opacity:0.15;}.cls-3{fill:#dd9c78;}.cls-14,.cls-16,.cls-20,.cls-4,.cls-6,.cls-8,.cls-9{mix-blend-mode:soft-light;}.cls-4{opacity:0.5;}.cls-5{fill:#2d2d2d;}.cls-6{opacity:0.6;}.cls-7{fill:#353535;}.cls-8,.cls-9{opacity:0.33;}.cls-10{fill:#cc805e;}.cls-11{fill:#b25734;}.cls-12{fill:#e5e1e1;}.cls-13{fill:#424242;}.cls-14{opacity:0.3;}.cls-15{fill:#f4f4f4;}.cls-17{fill:#ffd110;}.cls-18{fill:#aaa;}.cls-19{fill:#b26b47;}.cls-20{opacity:0.45;}.cls-21{fill:#914027;}.cls-22{fill:#212021;}.cls-23{fill:#ffb012;}.cls-24{fill:#fff;}.cls-25{fill:#db987d;}</style></defs><g class="cls-1"><g id="Слой_2" data-name="Слой 2"><g id="Layer_3" data-name="Layer 3"><ellipse class="cls-2" cx="256.24" cy="583.05" rx="256.24" ry="44.38"/><path class="cls-3" d="M472.16,65.49c0,11.56-12,72.6-12,72.6L445,144.61l-.65-.07L402.32,140s-14.14-4.46-17.49-11.64-5.33-52.39-5.33-52.39V44.52l5.3-.55,31.09-3.15S472.16,53.93,472.16,65.49Z"/><path class="cls-4" d="M472.16,65.49c0,11.56-12,72.6-12,72.6L445,144.61l-.65-.07L402.32,140s-14.14-4.46-17.49-11.64-5.33-52.39-5.33-52.39V44.52l5.3-.55,31.09-3.15S472.16,53.93,472.16,65.49Z"/><path class="cls-5" d="M472.16,65.49c0,11.56-12,72.6-12,72.6L445,144.61l-.65-.07c-5.08-2.39-10.52-5.26-15.61-7-12.38-4.18-16.65-21.06-16.65-21.06s2.54-13.91-2.08-18.19-10.75,2.7-10.75,2.7a21.12,21.12,0,0,1-7.76-10.64c-2.3-7.16-1.38-25.66-1.38-25.66L384.8,44l31.09-3.15S472.16,53.93,472.16,65.49Z"/><path class="cls-6" d="M433.28,93.28c-5.95,12.37,11.08,24.39,29.18,32.94-1.35,7.1-2.28,11.87-2.28,11.87L445,144.61l-.65-.07c-5.08-2.39-10.52-5.26-15.61-7-12.38-4.18-16.65-21.06-16.65-21.06s2.53-13.91-2.09-18.19-10.74,2.7-10.74,2.7a21.12,21.12,0,0,1-7.76-10.64c-2.3-7.16-1.38-25.66-1.38-25.66L384.8,44l31.09-3.15s56.27,13.11,56.27,24.67a98.13,98.13,0,0,1-1.11,11.11C457.23,76.67,439.83,79.68,433.28,93.28Z"/><path class="cls-7" d="M453.85,549l-4.41,10.76A141.3,141.3,0,0,1,429.8,564c-8.79,1-8.21,5.55-3.24,13.65s17.81,7.63,29.84,6.24,24.86-.81,24.86-6.13-2.78-17-2.78-17"/><path class="cls-8" d="M481.26,577.78c0,5.32-12.83,4.74-24.87,6.12s-24.85,1.86-29.83-6.24c-3.67-6-4.94-10-1.81-12.11,3.89,13.56,28.91,11.49,29.68,6.42.64-4.2-5.12-9.13-8.08-11.36,1.9-.51,3.08-.87,3.08-.87L453.85,549l24.64,11.79S481.26,572.46,481.26,577.78Z"/><path class="cls-7" d="M360.07,565.77c0-.52-8.78,7-19.73,9s-16-.08-16.19,7,5.78,10.49,10.25,12.26,30.14-.47,40.09-1.74,10-10.21,7.86-18.46"/><path class="cls-8" d="M374.49,592.27c-9.94,1.27-35.61,3.51-40.08,1.74s-10.42-5.16-10.26-12.26c.06-2.76.87-4.15,2.49-4.91.11.74.23,1.52.37,2.34,2.3,13.77,25.54,9.36,26.81,2.42.66-3.66-2.49-6.94-5.62-9.22,7-2.91,11.87-7,11.87-6.61l22.28,8C384.51,582.06,384.43,591,374.49,592.27Z"/><path class="cls-5" d="M479.41,562.42a22.89,22.89,0,0,1-16,3,38.47,38.47,0,0,1-13.91-5.21L427.17,390.33S390.72,549.22,384.58,574c-6.91,4.75-12.9,5.62-17.56,5a19.64,19.64,0,0,1-10.65-5l22.36-245,.25-.27,11.16-11.9,15.57-1.68s50.57-15.13,63.52,2.75,4.94,51.49,4.94,51.49S476.94,384.18,479.41,562.42Z"/><g class="cls-9"><path d="M453.85,549l-4.41,10.76A141.3,141.3,0,0,1,429.8,564c-8.79,1-8.21,5.55-3.24,13.65s17.81,7.63,29.84,6.24,24.86-.81,24.86-6.13-2.78-17-2.78-17"/><path class="cls-8" d="M481.26,577.78c0,5.32-12.83,4.74-24.87,6.12s-24.85,1.86-29.83-6.24c-3.67-6-4.94-10-1.81-12.11,3.89,13.56,28.91,11.49,29.68,6.42.64-4.2-5.12-9.13-8.08-11.36,1.9-.51,3.08-.87,3.08-.87L453.85,549l24.64,11.79S481.26,572.46,481.26,577.78Z"/><path d="M360.07,565.77c0-.52-8.78,7-19.73,9s-16-.08-16.19,7,5.78,10.49,10.25,12.26,30.14-.47,40.09-1.74,10-10.21,7.86-18.46"/><path class="cls-8" d="M374.49,592.27c-9.94,1.27-35.61,3.51-40.08,1.74s-10.42-5.16-10.26-12.26c.06-2.76.87-4.15,2.49-4.91.11.74.23,1.52.37,2.34,2.3,13.77,25.54,9.36,26.81,2.42.66-3.66-2.49-6.94-5.62-9.22,7-2.91,11.87-7,11.87-6.61l22.28,8C384.51,582.06,384.43,591,374.49,592.27Z"/><path d="M457.75,453.12l6.53,112.44h0a38.21,38.21,0,0,1-14.77-5.33L427.17,390.33S390.72,549.22,384.58,574c-5.73,3.94-10.82,5.2-15,5.16,2.34-17.9,10.34-75.82,17.25-125.77,4.45-32.07,17.74-61.94,36.57-88.28,7.28-10.17,3.74-22.35-3.78-27.08-12-7.57-30.31-7.88-41-7.27l.16-1.81.25-.27,11.16-11.9,15.57-1.68s50.57-15.13,63.52,2.75c.37.51.71,1,1,1.55-15.45,2-35.22,6.87-39.6,18.63a20.68,20.68,0,0,0,.44,16.37C445.76,385.59,455.76,418.74,457.75,453.12Z"/></g><path class="cls-10" d="M185.7,264.68s40.12,30.72,66.89,40c8.62,1.28,15.67,16.54,24.46,17.23s12.6-16.53,12.49-17.34,5.78-13.07,5.78-13.07S286,283,282.71,282.1s-17.23,1.16-21.85.35-37.7-28.91-43.94-35.61l-7.52-28.57-23.7,13"/><path class="cls-4" d="M274.86,300.26c-4.45,8.13-.16,19.46,7.76,19.41a7.2,7.2,0,0,1-5.58,2.21c-8.78-.7-15.84-16-24.45-17.23-26.77-9.25-66.9-40-66.9-40V231.23l23.72-12.95.86,3.31c-3.93,4.56-8.45,10.56-9.78,15.34-2.45,8.95,3.7,16.26,25.68,34.3,13.37,11,25.25,11.48,32.49,10.19a7.83,7.83,0,0,0,2.2,1,33.3,33.3,0,0,0,6.22.11,14.82,14.82,0,0,0,9,8.33c5.69,2,11-1,14.21-3.69,2.71,2.2,5,4.27,5,4.27l-.52,1.09C287,293.28,277.6,295.22,274.86,300.26Z"/><path class="cls-3" d="M351.44,239.09l-8.76,6L334.33,271S305.65,289.35,281,295.36c-1.39,10,1.7,22-2.62,23.82s-8-7.24-8.64-10.4-.3-11.1-.3-11.1-16.08,5.64-16.83,7,.06,5.15,2.31,5.32c-2,3.65.18,5.55,2.89,6.83-2.65,4.33.41,7.74,2.38,7.92-2.2,5.89,2.94,8.73,4.27,8.61s36.74-13.14,41.05-19c27.91-1.7,64.07-22.4,64.07-22.4l31.37-5.72-3.39-20.6-17.42-15.73-18-12.95"/><path class="cls-4" d="M400.93,286.21l-31.37,5.72s-36.16,20.7-64.07,22.4c-3.21,4.37-23.77,12.74-34.52,16.75-.65-2.52-1.67-6.05-2.37-6.72-.88-.84-6.72,1.56-8.94,2.52a7.45,7.45,0,0,1,.46-2l8.2-2.95a32.79,32.79,0,0,0-2.38-5.11c-.62-.84-5.95.54-8.81,1.37a7.84,7.84,0,0,1,.67-1.37l-.21-.11,7.55-2.29s-.76-3.91-1.56-4.43c-.62-.39-6.51,1.76-9.42,2.86a5,5,0,0,1,.62-2.63l7.16-2.85s-1-4.43-3.8-4.2a21.42,21.42,0,0,0-5.68,1.83,1.08,1.08,0,0,1,.13-.33c.75-1.33,16.83-7,16.83-7s-.31,7.95.31,11.1S274,321,278.35,319.19s1.25-13.81,2.63-23.82A124.19,124.19,0,0,0,297.29,290c23.61,12,70.78-14.84,59.08-25.63a126.7,126.7,0,0,1-14.58-16.58l.89-2.74,8.76-6,10.64-2.16,18,12.95,17.42,15.73Z"/><path class="cls-3" d="M510.32,239.71s2.08,33.07,0,39.23-43.79,32.54-43.79,32.54-6-50.65-5.51-52.73,28.1-26.25,28.1-26.25"/><path class="cls-4" d="M507.49,282.44c-9.78,9.34-40.95,29-40.95,29s-6-50.65-5.51-52.73,28.09-26.25,28.09-26.25l21.2,7.21s.1,1.62.23,4.2a94.85,94.85,0,0,1-11.25,8C483.14,261.69,470.09,277.72,507.49,282.44Z"/><path class="cls-10" d="M38.1,366.36,45,322.94h0c-3.51-32-1.45-71.59,2.29-97.57,18.26,8.29,38.73,13.19,38.73,13.19C74.28,270.18,67.44,322,67.44,322l2,5.8.44.27,12,7.24s4.38,18.09,7.34,21.17a3.12,3.12,0,0,1-.79.85c-1.32,1-4.39,2-10.14-2.92-8.13-7-10.11-7.92-10.11-7.92s-9,11.09-10.3,16.63a4.3,4.3,0,0,0-.17,1.22c0,3.78,5.12,22.94,3.06,32.2-.55,2.76-1.81,4.65-4,5l-11.33-17.1-.75-4-5.59-9.16A7.32,7.32,0,0,1,38.1,366.36Z"/><path class="cls-4" d="M56.91,362.88s.36.11,1,.26c1.34-5.54,10.3-16.63,10.3-16.63s2,.93,10.11,7.92c5.75,4.93,8.82,3.94,10.14,2.92-11.37-6.12-13.26-21-20.88-15.44C58.55,348.48,56.91,362.88,56.91,362.88Z"/><path class="cls-4" d="M39.08,371.31l5.6,9.17.74,4,11.33,17.1c2.19-.33,3.46-2.22,4-5C55,386.27,43.31,363.08,46.61,351.83c3.11-10.59,16.48-19.69,23.27-23.75l-.44-.26-2-5.81s6.83-51.83,18.64-83.44c0,0-20.47-4.9-38.73-13.2-.29,2-.56,4.09-.83,6.24,6.4,6.84,15.31,20.16,15,41.16C61.25,295.33,51.15,314,45,323.43L38.1,366.35A7.3,7.3,0,0,0,39.08,371.31Z"/><path class="cls-11" d="M44.67,380.49a20.44,20.44,0,0,1-1.32-4.75,33.11,33.11,0,0,1-.41-4.75,31.8,31.8,0,0,1,.27-4.77,20.49,20.49,0,0,1,1.18-4.78,20.5,20.5,0,0,1,1.32,4.74,33.08,33.08,0,0,1,.13,9.53A21,21,0,0,1,44.67,380.49Z"/><path class="cls-12" d="M212.53,219a29,29,0,0,1-7.39,5.75A112.8,112.8,0,0,1,192,231.2l-.08,0s0,1-.08,2.94c-.22,6.86-1,25.36-3.58,51.12-.48,4.85-1,10-1.66,15.32,5.43,7.65-8.09,17.57-37.92,18.49-40.94-2.3-51.88-14.18-44.87-25.66C96.66,275.17,89,242.33,89,242.33l-3.48,5.79A111.46,111.46,0,0,1,66.85,240,115.69,115.69,0,0,1,46,225.68s3.6-14.28,10.06-31.74a248.77,248.77,0,0,1,12.38-28.35c9.94-6.66,41.39-24.56,41.39-24.56l46.26,6s15.61,5.42,27.22,9.88c6.65,2.54,12,4.76,12.32,5.46C196.57,164.32,204.89,192.6,212.53,219Z"/><path class="cls-6" d="M56.07,193.94a248.77,248.77,0,0,1,12.38-28.35c9.94-6.66,41.39-24.56,41.39-24.56l46.26,6s15.61,5.42,27.22,9.88C170.92,174.94,135,211.67,56.07,193.94Z"/><path class="cls-6" d="M188.28,285.29c-.48,4.85-1,10-1.66,15.32,5.43,7.65-8.09,17.57-37.92,18.49-40.94-2.3-51.88-14.18-44.87-25.66C96.66,275.17,89,242.33,89,242.33l-3.48,5.79A111.46,111.46,0,0,1,66.85,240l18-29.74,14.32,11.27-7.29,15.09S106.42,286.81,188.28,285.29Z"/><path class="cls-6" d="M192,231.2c.44-8.83,1.49-34.71-.69-42.11,7.36,18.28,11.56,29.43,13.81,35.63A112.8,112.8,0,0,1,192,231.2Z"/><path class="cls-5" d="M172.59,283a61.74,61.74,0,0,1-20.74,20.53s-11.38-9.14-17.24-17.64c-.33-30,4.21-93.17,4.21-93.17l7.59-3.62,5.48,2.4,2.81,1.22S171.42,262.44,172.59,283Z"/><path class="cls-13" d="M162.89,176.49a11.56,11.56,0,0,1-1.15,3.69h0a112.17,112.17,0,0,1-7,12.52s-5.27,1.11-15.88,0c-3.58-3.46-10.39-13.88-10.39-13.88s-6.69-11.33,9.38-13.26S163.06,172.64,162.89,176.49Z"/><path class="cls-14" d="M162.89,176.49a11.56,11.56,0,0,1-1.15,3.69h0s-14.83-5.87-18.58-2.89c-3.45,2.72-.8,9.54,8.73,14.19.87.42,1.81.83,2.81,1.22-2.85,20.21-11.88,77.36-2.85,110.81,0,0-11.38-9.14-17.24-17.64-.33-30,4.21-93.17,4.21-93.17-3.58-3.46-10.39-13.88-10.39-13.88s-6.69-11.33,9.38-13.26S163.06,172.64,162.89,176.49Z"/><path class="cls-15" d="M166.41,186.31a1.45,1.45,0,0,0-.09.22c-3.26-6.66-14.1-16-22.55-19.26h0c-13.54,7.22-24.16,25.45-24.16,25.45l-.19-.26c-1.06-1.42-6.25-8.64-8.35-16.2-2.34-8.43-5.19-33.38-4.85-34.91s18.24-14.76,18.24-14.76,13.08,5.13,24.42,11c1.57.82,3.13,1.65,4.6,2.48,12.05,6.82,14.39,12.27,14.39,12.27S172.31,171,166.41,186.31Z"/><path class="cls-16" d="M157,160.16s-11,7-13.3,7.1c-5.71-.74-23.62-6.31-23.62-6.31a157.89,157.89,0,0,0-1.45,17.81c.06,7,.72,13.69.72,13.69-1.06-1.42-6.25-8.64-8.35-16.2-2.34-8.43-5.19-33.38-4.85-34.91s18.24-14.76,18.24-14.76,13.08,5.13,24.42,11L157,157A12.69,12.69,0,0,1,157,160.16Z"/><path class="cls-16" d="M166.41,186.31a1.45,1.45,0,0,0-.09.22c-3.26-6.66-14.1-16-22.55-19.26.74.1,12.7,1.82,18.37,6.5A23.35,23.35,0,0,1,166.41,186.31Z"/><path class="cls-10" d="M120.61,118.63v30.5s15,12.6,22.71,17A149.64,149.64,0,0,0,157,157v-25.2Z"/><path class="cls-4" d="M131.28,147.45c4.76,9.94,9.16,13.73,14.54,13.72,5,0,10.43-3.63,11.14-4.11a153,153,0,0,1-13.64,9.08c-7.69-4.42-22.71-17-22.71-17V118.63L157,131.8V157s-1.83-12-4-12.92C153,144.08,126.51,137.49,131.28,147.45Z"/><path class="cls-5" d="M197.77,163.67l-2.52,5.59a2,2,0,0,1-2.56,1.07l-5.77-2.09L183.64,167l-4.38-1.6-9.1-3.25a2,2,0,0,1-1.25-2.56l2.29-6.9a2.05,2.05,0,0,1,2.72-1.24l8.45,3.52,4.47,1.87,3.16,1.29,6.69,2.79A2,2,0,0,1,197.77,163.67Z"/><polygon class="cls-17" points="186.83 156.86 183.64 167.03 179.25 165.45 182.36 155 186.83 156.86"/><path class="cls-17" d="M197.77,163.65l-2.53,5.59a2,2,0,0,1-2.55,1.08l-5.75-2.07L190,158.14l6.7,2.79A2,2,0,0,1,197.77,163.65Z"/><path class="cls-5" d="M69.58,165.54l4.55,6.84a2.74,2.74,0,0,0,3.61.86l7.17-4L89,166.89l5.43-3,11.31-6.29a2.72,2.72,0,0,0,1.09-3.66l-4.52-8.61a2.74,2.74,0,0,0-3.87-1L88,150.73l-5.51,3.44-3.88,2.4-8.24,5.14A2.73,2.73,0,0,0,69.58,165.54Z"/><polygon class="cls-17" points="82.55 154.16 88.98 166.9 94.44 163.86 88.05 150.73 82.55 154.16"/><path class="cls-17" d="M69.58,165.52l4.55,6.84a2.73,2.73,0,0,0,3.61.87l7.16-4-6.25-12.69-8.24,5.15A2.73,2.73,0,0,0,69.58,165.52Z"/><path class="cls-18" d="M191.94,231.23c-.75-7.55-.91-15.06-1.05-22.57l-.1-11.26c0-3.75,0-7.49-.24-11.27a53.26,53.26,0,0,1,2.08,11.17c.38,3.77.54,7.55.62,11.32s0,7.55-.22,11.32A113.16,113.16,0,0,1,191.94,231.23Z"/><path class="cls-18" d="M89,242.33a28.49,28.49,0,0,1,1.49-5q.93-2.4,2.08-4.68a47.71,47.71,0,0,1,2.54-4.45,28.83,28.83,0,0,1,3.14-4.15,29.26,29.26,0,0,1-1.49,5c-.62,1.6-1.31,3.17-2.08,4.69s-1.63,3-2.55,4.44A29.59,29.59,0,0,1,89,242.33Z"/><path class="cls-5" d="M164.65,222.93a37.48,37.48,0,0,0,24.74-4.14v-8.54q-12.37,6.47-24.74,4.14Z"/><path class="cls-5" d="M103.66,233.5c9.62,1.74,18.88.07,27.81-4.65v-9.6q-13.9,7.26-27.81,4.66Z"/><path class="cls-7" d="M119,546c0,.32,0,.62,0,.94a21.46,21.46,0,0,1-1.85,8.1,25.69,25.69,0,0,1-1.76,3.4c-2.55,4.15-9.31.09-11.86,8.32-1.12,3.55.14,7.81-.55,11.84a10,10,0,0,1-2.91,5.62,11.94,11.94,0,0,1-1.71,1.45c-.2.15-.41.28-.62.42a19.85,19.85,0,0,1-2,1.15c-.46.23-1,.45-1.5.68l-.81.32c-.89.34-1.85.67-2.89,1-.6.19-1.23.36-1.9.53-1.08.28-2.25.53-3.49.79l-1.28.25c-1.31.24-2.7.46-4.19.67a43.2,43.2,0,0,1-11.29.36c-17.42-2.15-7.48-20,3.8-32.84,13-14.9,11.38-15.44,11.38-15.44l6-9,4.58-1.75s2.44.53,5.79,1.43c6.66,1.79,16.83,5,18.25,8.26.12.26.22.54.32.83a5.39,5.39,0,0,1,.21.86,8.43,8.43,0,0,1,.18.9C118.93,545.38,119,545.68,119,546Z"/><path class="cls-7" d="M201.68,574c-17.54.26-10.45-7.73-10.78-12.15-.14-1.94-3.36-2.17-7.07-2.11-4.77.08-10.34.63-11.09-1.36-1.36-3.56-3.28-19.71-3.28-19.71l4.38-11.16,9.1-5.47,1.79.44L199.29,526a15.92,15.92,0,0,0,0,3.11,21.17,21.17,0,0,0,4.34,11.33c3.47,4.43,13.19,9.66,20.37,15.13a43.54,43.54,0,0,1,4.4,3.77,6.63,6.63,0,0,1,.53.53,16.92,16.92,0,0,1,1.65,2,4.6,4.6,0,0,1,.46.69.86.86,0,0,1,.13.2c.14.24.27.46.38.69a6.19,6.19,0,0,1,.36.8C235.19,572.76,219,573.74,201.68,574Z"/><path class="cls-8" d="M89.86,574.63c2.56,3.23,7.62,4.13,13.11,4a10,10,0,0,1-2.91,5.62,11.94,11.94,0,0,1-1.71,1.45c-.2.15-.41.28-.62.42a19.85,19.85,0,0,1-2,1.15c-.46.23-1,.45-1.5.68l-.81.32c-.89.34-1.85.67-2.89,1-.6.19-1.23.36-1.9.53-1.08.28-2.25.53-3.49.79l-1.28.25c-1.31.24-2.7.46-4.19.67a43.2,43.2,0,0,1-11.29.36c-17.42-2.15-7.48-20,3.8-32.84,13-14.9,11.38-15.44,11.38-15.44l6-9,4.58-1.75s2.44.53,5.79,1.43c6.66,1.79,16.83,5,18.25,8.26.12.26.22.54.32.83a5.39,5.39,0,0,1,.21.86,5.74,5.74,0,0,1,.18.9c0,.3.07.6.08.9s0,.62,0,.94a157.66,157.66,0,0,1-18.25,2.29,12.84,12.84,0,0,0-2.66.41C88,552.15,83.09,566.12,89.86,574.63Z"/><path class="cls-8" d="M201.68,574c-17.54.26-10.45-7.73-10.78-12.15-.14-1.94-3.36-2.17-7.07-2.11-4.77.08-10.34.63-11.09-1.36-1.36-3.56-3.28-19.71-3.28-19.71l4.38-11.16,9.1-5.47,1.79.44L199.29,526a15.92,15.92,0,0,0,0,3.11c-3.63,2-8.59,4.82-13.37,7.53l-1,.55c-3,1.72-1.81,5.24,1.76,8.92,7.58,7.79,25.84,16.2,37.28,9.46a43.54,43.54,0,0,1,4.4,3.77,6.63,6.63,0,0,1,.53.53,16.92,16.92,0,0,1,1.65,2,4.6,4.6,0,0,1,.46.69.86.86,0,0,1,.13.2c.14.24.27.46.38.69a6.19,6.19,0,0,1,.36.8C235.19,572.76,219,573.74,201.68,574Z"/><path class="cls-5" d="M83.53,543.53l15.32-.47,19.34-.58L148,367.4l21.47,171.28,16.06-6.82L199.3,526,188.68,320.14l-.25-4.92-.07-1.28-.53-10.24v-.18s-25,9.76-83.81,2.32l-1.26,14.67Z"/><path class="cls-8" d="M83.53,543.53l15.32-.47c.33-2.63.7-5.58,1.08-8.83,5.43-44.14,17.4-139,25.69-184.45A92.29,92.29,0,0,0,148.91,346L148,367.4l21.47,171.28,16.06-6.82-.79-9.37L169.05,337a83.87,83.87,0,0,0,19.63-16.85l-.25-4.92-.07-1.28-.53-10.24v-.18s-25,9.76-83.81,2.32l-1.26,14.67Z"/><path class="cls-7" d="M102.75,320.51c16.69,2.58,56.53,6.83,85.68-5.29l-.07-1.28-.53-10.24v-.18s-25,9.76-83.81,2.32Z"/><path class="cls-8" d="M102.75,320.51c16.69,2.58,56.53,6.83,85.68-5.29l-.07-1.28c-10.28,4.19-19.64-2.68-11-5.23a45.3,45.3,0,0,0,10.5-5v-.18s-25,9.76-83.81,2.32Z"/><path class="cls-18" d="M170.17,325.67a59.29,59.29,0,0,1-29.95,1.81,7.73,7.73,0,0,1-5.71-5,21.8,21.8,0,0,1-1.26-8.87,5.92,5.92,0,0,1,4.18-5.34,62.12,62.12,0,0,1,29.76-1.59,7.69,7.69,0,0,1,5.65,4.88,20.28,20.28,0,0,1,1.34,8.69A6,6,0,0,1,170.17,325.67Z"/><path class="cls-8" d="M174.23,319.09c0,.39,0,.76,0,1.14a6,6,0,0,1-4,5.44,59.44,59.44,0,0,1-30,1.81,7.75,7.75,0,0,1-5.71-5,21.7,21.7,0,0,1-1.26-8.88,5.89,5.89,0,0,1,4.18-5.33,61.11,61.11,0,0,1,9.55-2.12,21.63,21.63,0,0,0,1.31,7.45,7.72,7.72,0,0,0,5.67,5A60.28,60.28,0,0,0,174.23,319.09Z"/><path class="cls-12" d="M512.48,240.48a32.12,32.12,0,0,1-11.83,4.31,50.25,50.25,0,0,1-14.3.31s-1.16,6.94-11.8,26.13c-1.84,8.8-5.32,46.64-5.32,46.64S410.49,314,378.73,329c-1.85-16-9.17-37-9.17-37s4.85-1.38,7.05-3.12,2.89-3.93,8.91-22a53.7,53.7,0,0,1-38-16.11,42.41,42.41,0,0,1-5.6-6.87s17.7-67.75,25.8-78.92a6.12,6.12,0,0,1,1.18-1.26c7.4-5.24,38.7-12.94,38.7-12.94L402.32,140c33-11.09,64.59,0,64.59,0l2.32,14.26s15.12,7.2,27.26,13a9.83,9.83,0,0,1,5.32,6.67c1,4.55,2.56,11.76,4.19,20.66C508.34,207.35,510.89,223.63,512.48,240.48Z"/><path class="cls-15" d="M469.23,154.21c-28.44-11.32-61.67-3.46-61.67-3.46L402.32,140c33-11.09,64.59,0,64.59,0Z"/><path class="cls-18" d="M400.93,202.55a260.94,260.94,0,0,1-5.66,32.63,217,217,0,0,1-9.75,31.67c1.2-5.41,2.43-10.77,3.7-16.13L393,234.64C395.51,223.93,398,213.22,400.93,202.55Z"/><path class="cls-18" d="M496.21,205.48a85.48,85.48,0,0,1-1,10.37c-.5,3.44-1.18,6.84-2,10.22s-1.71,6.74-2.86,10a55.34,55.34,0,0,1-4.15,9.59l4.71-20.16C492.53,218.83,494.1,212.12,496.21,205.48Z"/><path class="cls-19" d="M254.9,310a23.5,23.5,0,0,1,4.91-2.46,22.3,22.3,0,0,1,5.33-1.35A25.44,25.44,0,0,1,254.9,310Z"/><path class="cls-19" d="M257.79,316.8a22.56,22.56,0,0,1,4.94-2.24,21.81,21.81,0,0,1,5.3-1.1,24.95,24.95,0,0,1-10.24,3.34Z"/><path class="cls-19" d="M260.17,324.72a27.68,27.68,0,0,1,10.75-3.88,24.19,24.19,0,0,1-5.18,2.49A24.83,24.83,0,0,1,260.17,324.72Z"/><path class="cls-6" d="M500.65,244.79a50.25,50.25,0,0,1-14.3.31s-1.16,6.94-11.8,26.13c-1.36,6.47-3.59,28.67-4.69,39.94-.39,4.06-.63,6.7-.63,6.7S410.49,314,378.73,329c-.37-3.28-1-6.78-1.72-10.27a248.64,248.64,0,0,0-7.45-26.77s4.85-1.38,7.05-3.12,2.89-3.93,8.91-22a53.7,53.7,0,0,1-38-16.11c36.17,12.48,52-42.07,52.87-45.14-.41,2-5.66,26.72-14.29,59.51,41.72,4.74,94.05-1.28,109.81-57.67C498.57,223,500,237.72,500.65,244.79Z"/><path class="cls-6" d="M506,194.55c-48.94,26.78-115.95-13.76-138.32-29.6a6.12,6.12,0,0,1,1.18-1.26c7.4-5.24,38.7-12.94,38.7-12.94l-.23-.48C419,147,438.39,147,438.39,147s13.11-8.93-6.85-9.09a122.44,122.44,0,0,0-28.76,3l-.46-1c33-11.09,64.59,0,64.59,0l2.32,14.26s15.12,7.2,27.26,13a9.83,9.83,0,0,1,5.32,6.67C502.85,178.44,504.37,185.65,506,194.55Z"/><path class="cls-5" d="M369.88,163.36l2.87,7.57a2.69,2.69,0,0,0,3.28,1.62l7.78-2.29,4.43-1.35,5.89-1.75,12.26-3.56a2.7,2.7,0,0,0,1.85-3.28l-2.47-9.27a2.69,2.69,0,0,0-3.48-1.85l-11.42,4-6.05,2.1-4.26,1.45-9.05,3.15A2.69,2.69,0,0,0,369.88,163.36Z"/><polygon class="cls-17" points="384.84 155.25 388.24 168.92 394.15 167.19 390.88 153.16 384.84 155.25"/><path class="cls-17" d="M369.88,163.34l2.88,7.57a2.68,2.68,0,0,0,3.27,1.63l7.76-2.28-3.22-13.57-9.06,3.15A2.69,2.69,0,0,0,369.88,163.34Z"/><path class="cls-10" d="M286.33,334.12c2.39-1.38,4.92-4.42,2.56-8.82-2.19-4.1-3.76-6.36-6.14-6.68a5.32,5.32,0,0,0-5.62,3.53,1.23,1.23,0,0,0-.08.23c-1.15,3.69.28,8.34.28,8.34a6.4,6.4,0,0,0,6.9,4.23A6.26,6.26,0,0,0,286.33,334.12Z"/><path class="cls-10" d="M296.59,328.19a5.38,5.38,0,0,0,1.55-7.39c-1.95-3.65-3.35-5.66-5.47-6a4.7,4.7,0,0,0-4.47,2.09,4.55,4.55,0,0,0-.62,1.27c-1,3.29.25,7.44.25,7.44a5.7,5.7,0,0,0,6.16,3.77A6.56,6.56,0,0,0,296.59,328.19Z"/><path class="cls-10" d="M303.46,323.46a4.33,4.33,0,0,0,1.43-6.07c-1.57-2.93-2.69-4.56-4.4-4.79a3.73,3.73,0,0,0-3.28,1.27,3.91,3.91,0,0,0-.81,1.43,11.81,11.81,0,0,0,.2,6,4.58,4.58,0,0,0,4.95,3A4.86,4.86,0,0,0,303.46,323.46Z"/><path class="cls-10" d="M277.35,338.06c1.88-1.61,3.28-4.33,1.33-8-2.19-4.1-3.76-6.36-6.14-6.68a5.28,5.28,0,0,0-5.1,2.47,5.42,5.42,0,0,0-.6,1.29c-1.15,3.69.29,8.34.29,8.34a6.39,6.39,0,0,0,6.89,4.23A7.65,7.65,0,0,0,277.35,338.06Z"/><path class="cls-4" d="M303.46,323.46a4.33,4.33,0,0,0,1.43-6.07c-1.57-2.93-2.69-4.56-4.4-4.79a3.73,3.73,0,0,0-3.28,1.27C299.2,314.08,302.79,315.59,303.46,323.46Z"/><path class="cls-4" d="M296.59,328.19a5.38,5.38,0,0,0,1.55-7.39c-1.95-3.65-3.35-5.66-5.47-6a4.7,4.7,0,0,0-4.47,2.09C290.34,316.76,294.53,317.87,296.59,328.19Z"/><path class="cls-4" d="M286.33,334.12c2.39-1.38,4.92-4.42,2.56-8.82-2.19-4.1-3.76-6.36-6.14-6.68a5.32,5.32,0,0,0-5.62,3.53c1.32-.72,4.53-1.59,7.08,4.39A25.31,25.31,0,0,1,286.33,334.12Z"/><path class="cls-4" d="M277.35,338.06c1.88-1.61,3.28-4.33,1.33-8-2.19-4.1-3.76-6.36-6.14-6.68a5.28,5.28,0,0,0-5.1,2.47C270.18,325.89,274.92,327.54,277.35,338.06Z"/><path class="cls-7" d="M469.86,311.17c-.39,4.06-.63,6.7-.63,6.7s-58.66-2.69-90.5,11.1c-.37-3.28-1-6.78-1.72-10.27C394.16,313.38,431.15,304.45,469.86,311.17Z"/><path class="cls-10" d="M118.2,115.67c-3.61,1.91-7.35.61-10.47-2.33C101.6,107.6,97.82,95.56,102,89c1.66-2.55,3.5-3.58,5.34-3.7,5.23-.32,10.34,6.78,10.34,6.78S128.87,110,118.2,115.67Z"/><path class="cls-20" d="M118.2,115.67c-3.61,1.91-7.35.61-10.47-2.33,3.45.64,5.37-.68,3.53-3.54-2.4-3.75-9.1-11-8-15.27s6.8.83,6.8.83c.75-5.14-.94-8.25-2.66-10,5.23-.32,10.34,6.78,10.34,6.78S128.87,110,118.2,115.67Z"/><path class="cls-21" d="M116.8,106.2a65.73,65.73,0,0,0-5.22-8.46,16.32,16.32,0,0,0-3.33-3.26,14.35,14.35,0,0,0-4.51-1.86,7.91,7.91,0,0,1,5.35.28,11.28,11.28,0,0,1,4.3,3.42,15.66,15.66,0,0,1,2.52,4.71A14.92,14.92,0,0,1,116.8,106.2Z"/><path class="cls-22" d="M102.26,53.5A47.89,47.89,0,0,0,102.11,64a52.58,52.58,0,0,0,.77,5.37c.18,1,.39,2,.65,3.05.44,1.83,1,3.74,1.65,5.7a88.33,88.33,0,0,0,5.44,12.68l5,16.63,86.24,10.75,19.54-42.11s1.72-8.6-3.42-20.61a60.76,60.76,0,0,0-10.3-16.09c-8.89-10.19-23.29-21.06-46.55-30.62l1,13.06a94.48,94.48,0,0,0-26.43.79,73.33,73.33,0,0,0-7.48,1.69,56.76,56.76,0,0,0-15.08,6.59,27.58,27.58,0,0,0-4.71,5.59,37.5,37.5,0,0,0-2.88,5.22A40.58,40.58,0,0,0,102.26,53.5Z"/><path class="cls-7" d="M176.49,66.53c11.91-20.92-13.6-44-14.33-44.69,37.21,27.94,21.09,46.6,21.09,46.6,47.34-22.22-22.08-59.68-22.08-59.68l1,13.06a94.48,94.48,0,0,0-26.43.79C172.25,37.26,176.49,66.53,176.49,66.53Z"/><path class="cls-7" d="M169,61.67c-6.53-22.08-30.94-33.56-40.8-37.37a56.76,56.76,0,0,0-15.08,6.59,27.58,27.58,0,0,0-4.71,5.59c5.48.69,12.75,1,25.1,3.32C154.91,43.74,168.63,61.17,169,61.67Z"/><path class="cls-7" d="M105.56,41.7a40.58,40.58,0,0,0-3.3,11.8c19.18,3.33,30.5-6.62,30.5-6.62C123.11,47.24,113.4,44.68,105.56,41.7Z"/><path class="cls-7" d="M126.55,65.65l.39,2.39c-5.43,5-15.56,5.2-23.41,4.39.44,1.83,1,3.74,1.65,5.7a39.47,39.47,0,0,0,27.62-6.61S146,47.28,127.53,57.87A47,47,0,0,1,102.11,64a52.58,52.58,0,0,0,.77,5.37C117.61,69.89,126.55,65.65,126.55,65.65Z"/><path class="cls-10" d="M179.71,133c2.07,3.52,5.94,4.37,10.14,3.5,8.23-1.69,17.74-10,17.57-17.74-.07-3-1.11-4.89-2.61-5.94-4.29-3-12.36.36-12.36.36S173.57,122.65,179.71,133Z"/><path class="cls-20" d="M179.71,133c2.07,3.52,5.94,4.37,10.14,3.5-3.28-1.27-4.22-3.39-1.16-4.87,4-1.94,13.53-4.65,14.84-8.81s-6.24-2.85-6.24-2.85c2.06-4.77,5.12-6.54,7.52-7.15-4.29-3-12.36.36-12.36.36S173.57,122.65,179.71,133Z"/><path class="cls-21" d="M185.86,125.71a14.53,14.53,0,0,1,3.46-3.95,15.51,15.51,0,0,1,4.61-2.69,11.32,11.32,0,0,1,5.45-.67,7.84,7.84,0,0,1,4.7,2.57,14.22,14.22,0,0,0-4.81-.78,16.78,16.78,0,0,0-4.54,1A66.64,66.64,0,0,0,185.86,125.71Z"/><path class="cls-10" d="M114.22,91.61l.63,23.08c5.85,16.64,25.31,34.13,31.06,39a9.22,9.22,0,0,0,4.12,2A173.44,173.44,0,0,0,167.56,158a6.84,6.84,0,0,0,3.05-.39,7.37,7.37,0,0,0,1.65-.85c1-.69,2-1.48,3.05-2.3l.32-.25c1.59-1.27,3.25-2.67,4.88-4.07l.3-.27c4-3.49,7.82-7.06,10.05-9.22a11.52,11.52,0,0,0,3-4.6l7.71-21.76,12.38-35v0c-.54-3.86-3.71-8.41-6.21-11.49a5.36,5.36,0,0,0-6.76-1.3c-4.41,2.45-12.32,5.71-20.67,3.73-10.83-2.56-22-13.93-26.45-17.54-.82-.66-7.12-2.65-8.15-2.74-11.93-1.14-24.17,6.59-24.17,6.59C135.13,83.74,114.22,91.61,114.22,91.61Z"/><path class="cls-11" d="M154.85,136.21c2.49.92,4.73,1.61,7.08,2.27l3.54,1a33,33,0,0,1,3.68,1.16,11.72,11.72,0,0,1-3.92.61,14.89,14.89,0,0,1-3.92-.54,13.85,13.85,0,0,1-3.64-1.63A8.24,8.24,0,0,1,154.85,136.21Z"/><path class="cls-7" d="M194.35,66.59C205.65,64.31,213.11,60,218,55.47a60.76,60.76,0,0,0-10.3-16.09C213.78,56.94,195.21,66.16,194.35,66.59Z"/><path class="cls-22" d="M167.1,88.19c-1.8,4-4.23,4.46-4.23,4.46a49,49,0,0,0-6.75-5.18l-.6-.39-.43-.25a35.9,35.9,0,0,0-5.67-2.75c-.37-.14-.72-.26-1.07-.37l-1-.31a15.88,15.88,0,0,0-3.8-.69,18.74,18.74,0,0,1,4-1.76c.42-.13.83-.24,1.25-.33s.79-.16,1.18-.21a15.37,15.37,0,0,1,6,.36l.8.22.77.26A23.85,23.85,0,0,1,167.1,88.19Z"/><path class="cls-7" d="M148.74,80.62a13.4,13.4,0,0,1-.39,3.09l-1-.31a12,12,0,0,0,.18-2.45C147.91,80.82,148.32,80.71,148.74,80.62Z"/><path class="cls-7" d="M155.91,80.77a12.8,12.8,0,0,1-.82,6.06,35.9,35.9,0,0,0-5.67-2.75,15.35,15.35,0,0,0,.5-3.67A15.37,15.37,0,0,1,155.91,80.77Z"/><path class="cls-7" d="M156.12,87.47l-.6-.39A16.27,16.27,0,0,0,156.71,81l.77.26A16.54,16.54,0,0,1,156.12,87.47Z"/><path class="cls-22" d="M182,91.3c-.65,4.34,1.15,6,1.15,6a49.45,49.45,0,0,1,8.48-.73h.72l.5,0a35.62,35.62,0,0,1,6.25.74c.39.08.75.17,1.1.26l1,.29a15.93,15.93,0,0,1,3.58,1.47,19.21,19.21,0,0,0-2.4-3.63c-.29-.33-.58-.64-.88-.94s-.59-.56-.89-.82a15.4,15.4,0,0,0-5.24-2.92l-.78-.24-.8-.2A23.68,23.68,0,0,0,182,91.3Z"/><path class="cls-7" d="M201.52,94.81a13.58,13.58,0,0,0-1.34,2.81l1,.29a11.76,11.76,0,0,1,1.18-2.16C202.11,95.42,201.82,95.11,201.52,94.81Z"/><path class="cls-7" d="M195.39,91.07a12.77,12.77,0,0,0-2.56,5.55,35.62,35.62,0,0,1,6.25.74A15.87,15.87,0,0,1,200.63,94,15.4,15.4,0,0,0,195.39,91.07Z"/><path class="cls-7" d="M191.61,96.6h.72a15.91,15.91,0,0,1,2.28-5.77l-.8-.2A16.49,16.49,0,0,0,191.61,96.6Z"/><path class="cls-23" d="M99.86,45.81l2,14.08c8.32-2.94,19.74-3.27,19.74-3.27l6.36-.35,43.59,8.59,48.05,3.38,1.83.17,1.44-3.79.28-.6s12.74-4.15,14.19-14.08S208,5.79,195.43,1.32,110.1,3.68,97.92,17.17,99.86,45.81,99.86,45.81Z"/><path d="M99.86,45.81C181.25,26,223.11,64,223.11,64a28.51,28.51,0,0,0,7-3.78c3.2-2.17,6.44-5.67,7.15-10.3C238.78,39.88,208,5.79,195.43,1.32a13.8,13.8,0,0,0-3.19-.63c-18.57-2.72-83,3.85-94.32,16.48C85.86,30.7,99.86,45.81,99.86,45.81Z"/><path class="cls-5" d="M230.15,60.24c3.2-2.17,6.44-5.67,7.15-10.3C238.78,39.88,208,5.79,195.43,1.32a13.8,13.8,0,0,0-3.19-.63c-20.82,1.68-51.73,5.88-65.65,15.49C104.66,31.34,189.45,27.92,230.15,60.24Z"/><path class="cls-17" d="M126.73,44l7.13,4.78s36.93-6.5,85.7,19.48l1.83.17,1.44-3.79A137.56,137.56,0,0,0,126.73,44Z"/><path class="cls-17" d="M189.58,31.17c-1.71,7.11,1.42,13.95,7,15.29S208,43.11,209.7,36s-1.42-13.95-7-15.28S191.28,24.07,189.58,31.17Z"/><path class="cls-23" d="M190.66,31.43c-1.52,6.34,1.27,12.45,6.22,13.64s10.21-3,11.73-9.33-1.26-12.45-6.22-13.64S192.19,25.09,190.66,31.43Z"/><ellipse class="cls-17" cx="199.64" cy="33.59" rx="8.76" ry="6.84" transform="translate(120.41 219.88) rotate(-76.51)"/><path class="cls-20" d="M160.6,103.27c-1.08,6-4.88,10.51-8.5,10s-5.67-5.91-4.59-12,4.88-10.5,8.49-10S161.67,97.23,160.6,103.27Z"/><path d="M157.89,105.71c-.72,4-3.23,6.94-5.62,6.57s-3.75-3.91-3-7.91,3.23-6.94,5.62-6.57S158.6,101.71,157.89,105.71Z"/><path class="cls-24" d="M153.47,102.37c-.23,1.26-1,2.18-1.77,2.07s-1.17-1.23-.95-2.49,1-2.17,1.76-2.06S153.69,101.12,153.47,102.37Z"/><path class="cls-24" d="M153.86,105.46c-.11.63-.51,1.1-.89,1s-.6-.62-.49-1.26.52-1.1.9-1S154,104.82,153.86,105.46Z"/><path class="cls-20" d="M194.19,112.69c-1.73,5-5.54,8.18-8.5,7s-4-6.16-2.23-11.19,5.54-8.19,8.5-7S195.92,107.65,194.19,112.69Z"/><path d="M191.58,114.29c-1.15,3.33-3.66,5.42-5.62,4.66s-2.62-4.07-1.48-7.4,3.66-5.41,5.62-4.66S192.72,111,191.58,114.29Z"/><path class="cls-24" d="M188.32,110.6c-.36,1-1.15,1.7-1.77,1.46s-.82-1.28-.46-2.32,1.15-1.7,1.76-1.46S188.68,109.55,188.32,110.6Z"/><path class="cls-24" d="M188.23,113.34c-.19.53-.59.86-.9.74s-.41-.65-.23-1.18.58-.86.89-.74S188.41,112.81,188.23,113.34Z"/><path class="cls-22" d="M140.84,120s.1,3.69,1.35,4.56a146.4,146.4,0,0,0,19.44,8.24c5.77,1.72,19.93,3.48,21.79,3.52a11.65,11.65,0,0,0,4.14-1s-.32-.65-1-1.68a37.68,37.68,0,0,0-4.59-6,27.79,27.79,0,0,0-2.27-2.18s-5.34,5.31-15.55-2.35Z"/><path class="cls-22" d="M114.22,91.61l.63,23.08c5.85,16.64,25.31,34.13,31.06,39a9.22,9.22,0,0,0,4.12,2A173.44,173.44,0,0,0,167.56,158a6.84,6.84,0,0,0,3.05-.39,7.37,7.37,0,0,0,1.65-.85c1-.69,2-1.48,3.05-2.3l.32-.25c1.59-1.27,3.25-2.67,4.88-4.07l.3-.27c4-3.49,7.82-7.06,10.05-9.22a11.52,11.52,0,0,0,3-4.6l7.71-21.76-9.48,20.9-6.43,6.44.14-5.39-3.61-.5-7.73,11.18-6.1,1-1.06-7.1-9.47-2-5.35,6.69-5-3.48-1.53-15.35L141.75,124l-3.11,10.61-2.41-2.86L135,119.89l-18.15-15.26Z"/><path class="cls-20" d="M114.22,91.61l.63,23.08c5.86,16.64,25.31,34.13,31.06,39a9.22,9.22,0,0,0,4.12,2A176.73,176.73,0,0,0,167.56,158a6.84,6.84,0,0,0,3.05-.39,55,55,0,0,0,4.7-3.15l.32-.25c1.74-1.31,3.38-2.7,4.88-4.07l.3-.27a90.84,90.84,0,0,0,9.61-10.28L170.09,155c-7.08-6.51-19.43-2.66-19.43-2.66-13.84-10.94-27.45-39.5-21.28-61.89S148.77,64.78,168,70.79s18.94,1.34,31.1,0c11.85-1.26,14.69,8,14.82,8.5-.54-3.86-3.71-8.41-6.21-11.49A5.34,5.34,0,0,0,201,66.54c-4.41,2.44-12.32,5.7-20.67,3.72-10.82-2.56-22-13.93-26.45-17.54-.82-.66-7.12-2.65-8.15-2.75-11.92-1.12-24.17,6.6-24.17,6.6C135.13,83.74,114.22,91.61,114.22,91.61Z"/><path d="M121.51,56.57s104.48,45.2,112.6,27L221.33,68.36S139.8,33.69,121.51,56.57Z"/><path class="cls-5" d="M219.39,69.92l9,12s-22,5.6-75.4-17.3L138.55,52.49S157.85,49,219.39,69.92Z"/><path class="cls-11" d="M140.24,119.08c.73,1.57,1.43,3.15,2.07,4.75l-.22-.31c3.37,1.8,6.86,3.42,10.38,4.89a112.76,112.76,0,0,0,10.75,3.84,85.8,85.8,0,0,0,11.09,2.59,86.41,86.41,0,0,0,11.43,1.1l-.12,0c.78-.32,1.58-.59,2.37-.89-.69.49-1.37,1-2.07,1.45l0,0-.09,0c-1,.16-1.93.3-2.91.43l-1.47.2-1.47.06c-1,0-2,.1-3,.11l-3-.16a54.94,54.94,0,0,1-11.65-2.12,65.39,65.39,0,0,1-11-4.31,55.64,55.64,0,0,1-10-6.31l-.19-.16,0-.15C140.83,122.49,140.52,120.79,140.24,119.08Z"/><path class="cls-11" d="M139,120.46a2,2,0,0,1,1.84-2.25,2.13,2.13,0,0,1,2.39,1.6,9,9,0,0,1-1.29.47,4.11,4.11,0,0,1-.81.2C140.65,120.53,140.19,120.45,139,120.46Z"/><path class="cls-25" d="M176.55,117.48s-9.24-1.89-10.3,1.84,7.48,7.7,12.66,6.44S176.55,117.48,176.55,117.48Z"/><path class="cls-11" d="M176,113.2c.49,1.39.86,2.79,1.23,4.19L177,117c.91.75,1.83,1.48,2.71,2.26l.67.58a3.86,3.86,0,0,1,.75.83,4.21,4.21,0,0,1,.7,2.26,4.29,4.29,0,0,1-2.4,3.93,12.73,12.73,0,0,1-3.64,1.18,11.54,11.54,0,0,1-7.47-1.18,14.39,14.39,0,0,1-5.25-5,23.69,23.69,0,0,0,6,3.33,14,14,0,0,0,3.15.64,11.82,11.82,0,0,0,3.14-.22,15.06,15.06,0,0,0,3-1,2.06,2.06,0,0,0,1.15-1.72,2,2,0,0,0-.21-1.1,2.88,2.88,0,0,0-.36-.51l-.58-.67c-.78-.88-1.53-1.79-2.27-2.7l-.18-.22v-.15C175.89,116.12,175.86,114.67,176,113.2Z"/><path class="cls-7" d="M149.61,124.86s20.39,12.57,37,8.81a37.68,37.68,0,0,0-4.59-6c-2.13,1.18-7,2.84-15.4,0C155,123.62,149.61,124.86,149.61,124.86Z"/><path d="M368.35,68s-16,13.3-14.63,17.95,33.91-1.77,53.19-20.83C406.91,65.13,384.75,68.23,368.35,68Z"/><path class="cls-17" d="M365.47,59.14,368.35,68s7.31,2.21,65.38-4a13.73,13.73,0,0,0-7.32-6.21C421.1,55.82,381.65,62,365.47,59.14Z"/><path d="M486.49,59.63c-6,9.74-23.52,16.62-56.75,3H369S348,47.4,355.72,34.54c6.57-10.89,20.61-18.12,51.86-14.28,5.62.7,11.82,1.75,18.61,3.2C470.74,33,481.38,33,487.59,45.4A14.76,14.76,0,0,1,486.49,59.63Z"/><path class="cls-5" d="M486.49,59.63c-20.26,3-41.05-4.47-57.19-12-19.95-9.3-54.53,3.11-49.21-14.18,2.21-7.18,14.21-11.06,27.49-13.17,5.62.7,11.82,1.75,18.61,3.2C470.74,33,481.38,33,487.59,45.4A14.76,14.76,0,0,1,486.49,59.63Z"/><path class="cls-5" d="M397.38,70.45S374.44,83.63,362,85.3s14.41-14.74,14.41-14.74S392.28,70.78,397.38,70.45Z"/></g></g></g></svg>