<svg xmlns="http://www.w3.org/2000/svg" xmlns:xlink="http://www.w3.org/1999/xlink" viewBox="0 0 771.2 684.94"><defs><style>.cls-1,.cls-4{fill:#69693f;}.cls-1{clip-rule:evenodd;}.cls-2{fill:#7eb2c7;}.cls-10,.cls-12,.cls-13,.cls-14,.cls-15,.cls-18,.cls-3,.cls-4,.cls-6,.cls-7,.cls-8{fill-rule:evenodd;}.cls-3{fill:url(#GradientFill_1);}.cls-5{clip-path:url(#clip-path);}.cls-6{fill:#313821;}.cls-7{fill:#826441;}.cls-8{fill:#ccac6d;}.cls-9{fill:#231f20;}.cls-10{fill:#fff;}.cls-11{clip-path:url(#clip-path-2);}.cls-12{fill:#b03c0a;}.cls-13{fill:#e5e5e5;}.cls-15{fill:#fc0;}.cls-16{clip-path:url(#clip-path-3);}.cls-17{clip-path:url(#clip-path-4);}.cls-18{fill:#91915a;}</style><radialGradient id="GradientFill_1" cx="84.7" cy="21.82" r="135.74" gradientUnits="userSpaceOnUse"><stop offset="0" stop-color="#fff"/><stop offset="0.53" stop-color="#d0e1e7"/><stop offset="1" stop-color="#b1d8e4"/></radialGradient><clipPath id="clip-path"><path class="cls-1" d="M343.94,418.81l10.47-30.63C326.72,383,238.68,368,229.12,372.27c-8.7,4.63,3.35,10,8,12.3,11.11,5.36,85.88,30.85,106.78,34.24Zm117.37,29.44,5.29-32c25.21,7.93,112,35.91,118.6,44.28,5.51,8.17-8.13,8-13.32,7.77C559.55,467.76,481.34,455.1,461.31,448.25Z"/></clipPath><clipPath id="clip-path-2"><path class="cls-1" d="M321.21,181.94c-13,6.89-24.64,72.63-23.74,106.14.58,21.75-13.17,11.36-16.5-15.44-5.25-42.32,4.6-97.35,22.5-135.94,0,0,38.35-94.82,168-69.87,79.55,15.3,114.85,56,127.65,101,14.43,50.77-.86,96-14.07,130.16-8,20.71-14.8,31.55-23.34,41.85-11,13.25-18.73,18.4-21.88,16.8C532.94,353.07,577,270.5,570,244.43,509.63,214,378.73,184.78,321.21,181.94Z"/></clipPath><clipPath id="clip-path-3"><path class="cls-1" d="M249.35,490.41l21.92-64.13c-58-10.84-242.35-42.17-262.36-33.3-18.21,9.66,7,21,16.84,25.73,23.26,11.23,179.83,64.61,223.6,71.7ZM495.1,552.06,506.17,485c52.79,16.6,234.64,75.21,248.35,92.73,11.55,17.08-17,16.68-27.89,16.25C700.83,592.92,537.05,566.4,495.1,552.06Z"/></clipPath><clipPath id="clip-path-4"><path class="cls-1" d="M234.32,495.27c.82-33.09,20.78-65,42.43-90.45,32.87-38.68,71.9-40.26,128.09-25.51,58.76,15.42,98.16,33.58,109.32,83,8.42,37.25,6.07,79.11-4.23,101.82-25.86,57-86.12,63.17-158.9,46S232.82,556.21,234.32,495.27Z"/></clipPath></defs><g id="Слой_2" data-name="Слой 2"><g id="Layer_1" data-name="Layer 1"><path class="cls-2" d="M128.82,99l-.07,0-.34-.23-.34-.24-.35-.22-.35-.22-.33-.22-.35-.21-.34-.21L126,97.2l-.34-.2-.35-.2-.33-.2-.34-.19-.34-.21L124,96l-.33-.18-.34-.19-.34-.17-.33-.19-.33-.17L122,95l-.33-.16-.34-.16-.32-.17-.33-.15-.32-.15L120,94l-.32-.14-.32-.15-.34-.14,2.31-5.42.35.16.37.15.37.17.36.17.37.17.37.18.38.17.36.18.37.19.36.19.38.19.38.19.36.2.37.2.37.21.37.21.38.2.36.21.38.22.37.23.37.22.38.22.37.23.36.24.39.24.37.24.36.25.37.24.39.25.07,0L128.82,99ZM191.29,364l.37-.37.63-.67.64-.67.62-.65.63-.67.61-.66.61-.66.61-.66.6-.66.61-.65.59-.67.59-.65.58-.65.24-.28,4.42,3.89-.26.28-.6.68-.59.68-.62.66-.6.68-.62.68-.61.66-.64.68-.63.68-.63.67-.65.68-.64.67-.65.68-.36.38L191.29,364ZM203,351l.45-.53.55-.65.53-.66.54-.64.53-.65.52-.64.53-.65.51-.64.51-.64.51-.66.5-.63.5-.64.48-.64.5-.65.13-.17,4.7,3.55-.15.19-.49.65-.52.66-.51.67-.51.66-.52.65-.52.66-.54.67-.52.65-.55.67-.54.67-.54.66-.56.66-.55.67-.45.54L203,351Zm10.75-13.77.16-.23.46-.64.44-.63.45-.63.43-.63.43-.63.44-.63.42-.63.42-.62.42-.63.42-.62.4-.62.41-.63.4-.62.4-.62.39-.62v0l5,3.12,0,0-.41.64-.41.64-.41.64-.42.63-.42.65-.42.64-.44.65-.42.65-.45.65-.43.64-.46.64-.45.66-.45.65-.46.65-.46.64-.16.23-4.8-3.41Zm9.51-14.61.33-.56.36-.61.35-.61.35-.62.34-.61.34-.6.33-.61.34-.6.32-.61.33-.6.31-.6.32-.6.31-.6.31-.6.3-.6.31-.59.29-.59,5.28,2.61-.31.61-.31.62-.32.62-.32.62-.33.62-.32.63-.34.62-.32.63-.35.62-.33.63-.36.63-.34.62-.36.64-.35.62-.37.63-.36.63-.33.56-5.1-2.95Zm8-15.45,0-.1.27-.59.25-.58.26-.59.25-.58.25-.58.24-.59.25-.57.24-.58.23-.58.24-.58.22-.57.23-.58.23-.58.21-.56.22-.57.21-.57.21-.57.21-.57.07-.22,5.56,2-.09.24-.21.6-.22.59-.23.59-.22.6-.23.61-.23.59-.23.6-.24.6-.24.6-.25.6-.25.61-.24.6-.27.6-.25.61-.27.61-.26.6-.27.61-.27.61,0,.1-5.37-2.42Zm6.17-16.2.15-.48.17-.55.17-.56.16-.55.17-.54.15-.55.15-.56.16-.55.14-.54.15-.55.15-.55.13-.54.14-.55.13-.54.14-.54.12-.53.13-.54.13-.54.12-.53.11-.54.07-.32,5.77,1.22-.07.35-.14.55-.12.56-.13.56-.13.57-.14.57-.13.57-.14.56-.14.57-.16.57-.14.57-.15.57-.17.57-.15.57-.16.58-.17.57-.17.59-.16.58-.17.58-.19.57-.15.49-5.63-1.74Zm4-16.82.05-.33.09-.53.08-.52.07-.51.08-.52.08-.5.07-.52.07-.51.07-.51.05-.51.07-.51.06-.51.06-.51.05-.5.06-.5,0-.49.05-.51,0-.5,0-.5,0-.49,0-.5,0-.5,0-.46,5.88.39,0,.49,0,.52,0,.52,0,.52-.06.52,0,.52,0,.53-.05.53-.06.53,0,.53-.06.53-.06.53-.07.53-.08.54-.06.53-.07.54-.08.53-.07.56-.08.53-.1.55-.08.54-.08.54-.06.34-5.81-.95Zm1.6-17.19v-4.8l0-.46v-.47l0-.46,0-.46,0-.45,0-.46,0-.46,0-.45,0-.45,0-.45,0-.45,0-.45,0-.44,0-.45,0-.35,5.88-.48,0,.37,0,.47,0,.47,0,.47,0,.47,0,.47,0,.48,0,.48,0,.47,0,.48,0,.48,0,.49,0,.48v1l0,.49V257l-5.88-.09Zm-1-17.23h0l-.06-.43-.06-.42-.06-.43-.06-.42-.07-.42-.06-.41-.06-.42-.07-.41-.07-.41-.07-.41-.08-.41-.06-.4-.08-.41-.07-.4-.08-.41-.08-.4-.08-.4-.07-.4-.09-.4-.08-.39-.09-.39-.08-.4-.08-.39-.09-.38-.09-.39-.09-.4-.09-.38-.09-.38,5.72-1.36.11.4.09.41.09.4.09.41.09.41.1.41.09.41.08.42.09.41.08.42.1.43.08.4.08.43.07.42.08.43.08.43.08.43.08.43.07.43.07.44.07.43.07.44.08.43.06.45.06.44.07.43.06.44.06.45h0l-5.84.78Zm28.68-109.1-.71-.41-.73-.41-.72-.39-.72-.41-.73-.41-.31-.17,2.88-5.15.31.18.73.41.72.4.73.42.72.41.74.41-2.91,5.12Zm-9.07-5.08-.32-.18-.72-.4-.71-.39-.72-.4-.72-.39-.72-.4-.72-.4-.72-.39-.72-.4-.71-.39-.72-.4-.72-.39-.72-.39-.72-.39-.66-.36,2.81-5.17.66.36.72.39.72.39.72.4.72.39.73.39.72.4.72.4.72.39.73.4.72.4.72.4.73.41.73.4.31.18-2.86,5.14ZM246.21,117l-.59-.32-.7-.38-.71-.38-.72-.38-.71-.38-.71-.38-.71-.37-.71-.38-.7-.37-.71-.38-.71-.37-.71-.38-.7-.37-.71-.38-.6-.31,2.74-5.21.6.31.71.38.71.37.71.37.71.38.71.38.72.37.71.38.71.39.71.38.71.38.72.38.71.38.72.39.59.31L246.21,117Zm-15.61-8.25-.5-.26-.7-.36-.7-.37-.7-.36-.69-.36-.7-.36-.7-.35-.68-.36-.69-.36-.7-.35-.69-.36-.69-.34-.69-.35-.68-.35-.69-.35-.28-.14,2.65-5.26.29.14.68.35.71.35.68.35.7.37.69.35.69.36.69.36.71.35.7.36.7.36.69.36.7.36.7.36.7.36.5.26-2.7,5.24Zm-15.74-8-.6-.3-.68-.33-.68-.34-.67-.33-.66-.34-.68-.33-.67-.34-.67-.33-.67-.33-.67-.33-.66-.33-.67-.33-.66-.33-.67-.32-.66-.33-.59-.27,2.58-5.31.59.3.66.33.67.32.66.33.67.33.68.33.67.33.67.33.67.33.68.33.67.34.69.34.67.33.68.34.68.35.6.3-2.63,5.26ZM199,93h0l-.65-.31-.65-.31-.65-.32-.65-.29-.65-.31-.63-.31-.64-.3-.64-.31-.64-.3-.64-.3-.63-.3-.63-.3-.63-.3-.63-.29-.64-.3-.62-.29-.42-.19,2.49-5.34.42.2.63.29.63.3.63.3.63.29.65.3.64.3.63.31.64.3.65.3.64.31.65.3.65.31.64.32.65.31.65.31.65.31h0L199,93Zm-16-7.51-.43-.2L182,85l-.61-.27-.59-.27-.61-.27-.6-.28-.61-.27-.6-.27-.59-.27-.59-.27-.6-.27-.6-.26-.59-.27-.58-.26-.58-.25-.59-.26-.59-.26-.58-.25-.17-.09,2.35-5.39.2.08.58.26.58.26.59.26.59.27.6.26.59.27.6.26.59.27.6.26.61.28.6.27.61.27.6.27.61.28.62.29.61.27.61.28.43.2L183,85.46ZM166.91,78.3l-.13,0-.57-.24-.56-.24-.55-.24-.56-.24-.54-.23-.55-.23-.55-.24-.55-.21-.54-.23-.54-.23-.54-.23-.54-.22-.53-.22-.53-.22-.53-.22-.53-.22-.52-.22-.53-.2L156.5,74l-.44-.18,2.21-5.47.44.18.53.21.52.23.54.22.53.21.54.22.53.22.55.23.54.22.54.23.54.22.56.23.55.24.55.24.55.23.57.23.55.24.56.24.56.24.56.24.13,0-2.3,5.42Zm-16.29-6.69-.19-.07-.49-.19-.49-.2L149,71l-.49-.17L148,70.6l-.48-.18-.47-.18-.48-.18-.46-.18-.47-.18-.48-.17-.45-.16-.47-.17-.46-.17-.45-.17-.45-.17-.46-.17-.44-.16-.45-.15-.43-.16-.45-.16-.44-.15-.42-.16-.15,0L141.58,62l.14.06.45.15.45.16.44.15.46.16.45.18.46.16.45.16.46.17.47.17.46.17.47.17.48.19.47.17.47.18.49.18.47.18.5.18.48.18.48.19.49.2.5.19.49.19.5.19.18.07-2.12,5.49Zm-16.51-5.94-.11,0-.39-.13-.4-.11-.38-.13-.37-.12-.39-.12-.37-.12-.38-.11-.37-.1-.36-.12-.37-.11-.36-.1-.37-.11-.35-.09-.35-.11-.35-.1-.34-.1-.34-.09-.34-.09-.34-.09-.33-.09-.33-.09-.32-.09-.34-.07-.31-.08-.32-.08-.31-.08-.31-.07-.3-.07-.31-.08-.3-.07-.29-.07-.29,0,1.24-5.77.32.08.31.07.33.07.32.08.33.07.33.09.34.08.33.08.34.08.34.1.34.08.36.09.35.1.34.09.36.11.36.09.37.1.36.1.37.1.37.12.37.11.38.1.37.11.39.11.38.13.39.12.39.11.39.12.4.13.4.12.4.13.4.13.12,0-1.8,5.6ZM759.05,539.11l.2-.8.21-.8.19-.81.18-.8.19-.8.19-.8.18-.8,0-.21,5.77,1.25-.06.22-.19.83-.18.82-.19.83-.21.83-.2.82-.2.83-.2.83-5.72-1.44Zm2.57-11.52.09-.5.15-.8.15-.8.14-.79.14-.8.14-.8.13-.8.13-.8.13-.79.11-.8.13-.8.12-.79.11-.8.11-.79.09-.63,5.83.76-.08.65-.11.82-.12.82-.12.82-.12.82-.14.81-.13.83-.13.81-.13.83-.14.82-.14.82-.16.82-.15.82-.15.82-.1.51-5.78-1.09Zm2.55-17.26.08-.74.08-.79.08-.79.07-.79.06-.79.07-.79.06-.79.06-.79.06-.79.06-.8,0-.79.05-.79,0-.78,0-.79,0-.61L771,499l0,.63,0,.81,0,.81-.05.81,0,.81-.06.8-.06.82-.06.8-.06.82-.07.81-.08.81-.07.82-.08.81-.08.82-.08.74-5.86-.58Zm1.1-17.43,0-.64v-7.84l0-.77,0-.78,0-.78,0-.78v-.08l5.88-.18v.08l0,.8,0,.8v.8l0,.8v8l0,.64-5.88-.09Zm-.33-17.48,0-.32,0-.78-.06-.78-.05-.77,0-.78-.06-.77-.06-.76-.07-.78-.06-.78-.06-.77-.07-.77-.08-.77-.07-.76-.08-.77-.08-.78-.06-.49,5.86-.62.06.51.08.78.08.79.07.79.08.79.07.8.08.79.06.78.07.79.06.8.06.79,0,.8.05.79,0,.79,0,.79,0,.32-5.88.35ZM763.28,458l-.08-.63-.11-.76-.1-.78-.12-.75-.11-.77-.12-.76-.11-.77-.11-.76-.12-.76-.13-.75-.12-.78-.13-.75-.13-.76-.14-.76-.13-.77,0-.23,5.78-1,.06.26.14.77.13.78.13.78.13.78.12.77.13.78.12.78.13.79.12.77.12.78.11.78.11.79.11.77.1.79.09.62-5.84.79Zm-2.89-17.28v-.08l-.16-.75-.15-.75-.16-.76-.17-.75-.16-.75-.16-.76-.16-.75-.17-.75-.17-.76-.18-.75-.17-.74-.18-.76-.17-.74-.18-.75-.18-.75,0-.05,5.72-1.41,0,.07.18.76.18.77.19.77.18.75.18.77.17.77.17.76.17.77.18.77.17.76.16.77.16.78.16.76.16.77.15.78,0,.07-5.77,1.16Zm-4-17.07-.06-.25-.2-.74-.2-.73-.2-.75-.2-.74-.21-.75-.21-.74-.21-.73-.22-.75-.2-.73-.22-.75-.22-.73-.22-.73-.22-.75-.22-.73-.19-.66,5.63-1.7.21.66.22.75.22.74.22.76.22.76.22.74.23.76.21.74.21.76.21.76.21.75.21.76.21.75.21.76.19.76.07.25-5.7,1.5Zm-5-16.83-.12-.37-.24-.74-.24-.72-.23-.74-.25-.72-.25-.74-.25-.72-.24-.73-.26-.72-.24-.73-.25-.73-.26-.73-.25-.72-.26-.73-.26-.71-.19-.54,5.54-2,.2.55.27.74.25.73.26.74.26.73.25.74.26.73.26.74.25.74.24.74.25.74.25.75.25.73.24.75.24.74.12.37-5.6,1.82Zm-5.81-16.59-.17-.45-.28-.72-.27-.71-.27-.72-.27-.71-.28-.72-.28-.71-.28-.72-.29-.72-.27-.7-.28-.72-.29-.7-.29-.72-.29-.7-.29-.72-.18-.48,5.44-2.21.21.48.29.72.29.72.28.71.29.73.29.72.29.73.28.72.29.71.28.74.28.72.27.73.29.72.28.73.27.73.17.45-5.51,2.07Zm-6.54-16.32-.19-.46-.31-.71-.3-.71-.3-.69-.29-.71-.31-.7-.3-.7-.31-.7-.31-.69-.31-.7-.31-.7-.3-.69-.31-.7-.31-.7-.32-.69-.23-.51,5.38-2.42.23.51.31.71.31.7.32.7.32.71.31.7.31.7.3.72.31.7.31.72.3.7.32.7.3.72.3.71.31.71.19.46-5.42,2.31Zm-7.15-16.1-.18-.36-.31-.7-.32-.69-.32-.69-.33-.67-.32-.69-.33-.69-.33-.67-.31-.69-.33-.69-.33-.68-.33-.67-.33-.69-.33-.68-.33-.67-.33-.68,5.3-2.58.34.68.33.69.33.69.33.68.33.69.32.69.33.68.34.69.33.7.32.68.33.69.32.71.33.68.32.69.33.69.18.37-5.35,2.49ZM698,299.2l-.4-.57-1.28-1.76-1.28-1.76-1.29-1.75-1.3-1.75-1.31-1.74-.08-.12,4.68-3.57.11.14,1.32,1.77,1.31,1.76,1.31,1.78,1.3,1.78,1.29,1.79.4.56L698,299.2Zm-10.52-14.11-.31-.4L685.84,283l-1.34-1.71-1.35-1.71-1.38-1.7-1.36-1.68-.22-.27,4.54-3.74.24.29,1.39,1.71,1.38,1.72,1.37,1.71,1.37,1.74,1.36,1.73.3.4-4.65,3.62Zm-11-13.71-.2-.23-1.4-1.67-1.41-1.66L672,266.18l-1.42-1.65-1.45-1.64-.34-.4,4.4-3.9.37.41,1.45,1.65,1.44,1.67L677.9,264l1.44,1.67,1.42,1.7.2.23-4.52,3.78ZM664.89,258.1l-.09-.1-1.48-1.61-1.47-1.61-1.48-1.59-1.49-1.6-1.5-1.6-.47-.49,4.27-4.05.47.51,1.52,1.59,1.51,1.62,1.5,1.62,1.5,1.63,1.47,1.64.1.1-4.36,3.94Zm-12-12.83h0l-1.53-1.56-1.53-1.56-1.56-1.56L646.67,239l-1.55-1.54-.55-.54,4.1-4.22.57.56,1.59,1.56,1.57,1.57L654,238l1.56,1.58,1.55,1.59h0l-4.22,4.11Zm-12.49-12.39-1.55-1.48-1.6-1.5-1.6-1.51-1.61-1.5-1.61-1.49-.61-.54,4-4.36.6.57,1.64,1.51,1.64,1.5,1.62,1.53,1.62,1.53,1.55,1.47-4.06,4.27Zm-12.93-11.95-1.6-1.43L624.17,218l-1.68-1.44-1.67-1.46-1.67-1.44-.58-.49,3.8-4.49.61.51,1.7,1.46,1.69,1.46,1.67,1.47,1.68,1.48,1.6,1.42-3.9,4.41Zm-13.34-11.51h0L612.36,208l-1.71-1.4-1.72-1.42-1.73-1.39-1.73-1.39L605,202l3.65-4.62.5.4,1.76,1.41,1.75,1.42,1.74,1.41,1.74,1.43,1.71,1.43h0l-3.76,4.52Zm-13.72-11-.15-.11-1.76-1.38-1.77-1.36-1.78-1.36-1.78-1.34-1.8-1.34-.3-.24,3.51-4.72.32.23,1.8,1.36,1.81,1.37,1.79,1.36,1.8,1.38,1.78,1.37.15.12-3.62,4.66Zm-14.07-10.6-.38-.28-1.82-1.33-1.82-1.31-1.85-1.31-1.83-1.29-1.85-1.3h0l3.35-4.85,0,0,1.87,1.3,1.86,1.31,1.84,1.32,1.85,1.33,1.84,1.32.38.28-3.46,4.78Zm-14.4-10.17-.74-.5-1.87-1.26-1.88-1.27-1.88-1.25-1.89-1.26-1.5-1,3.2-4.93,1.52,1,1.92,1.25,1.91,1.28,1.9,1.27,1.89,1.29.74.5-3.32,4.86Zm-14.7-9.71-1.21-.78-1.92-1.21-1.94-1.21-1.93-1.21-2-1.2-1-.62,3.07-5,1,.62,2,1.22,2,1.21,2,1.24,1.95,1.23,1.21.78-3.16,5Zm-15-9.27-1.82-1.09-2-1.18-2-1.17-2-1.16-2-1.16-.35-.2,2.9-5.11.38.22,2,1.16,2,1.17,2,1.18,2,1.17,1.82,1.09-3,5.08ZM527,149.77l-.55-.32-2-1.13-2-1.12-2-1.12-2-1.11-1.61-.87,2.79-5.19,1.63.87,2,1.13,2.06,1.12,2,1.15,2,1.13.56.32L527,149.77Zm-15.47-8.44-1.43-.75L508,139.5l-2.08-1.08-2.08-1.07-2.09-1.06-.68-.35,2.63-5.26.7.35,2.11,1.08,2.11,1.07,2.1,1.09,2.08,1.09,1.44.76-2.73,5.21Zm-15.71-8-.36-.18-2.11-1-2.12-1L489,130l-2.13-1-1.72-.82,2.51-5.33,1.75.83,2.15,1,2.14,1,2.14,1,2.14,1,.35.18-2.6,5.28Zm-15.91-7.62-1.53-.71-2.16-1L474,123l-2.17-1-2.18-1-.49-.2,2.37-5.4.51.23,2.19,1,2.19,1,2.19,1,2.18,1,1.54.71-2.47,5.35Zm-16.08-7.23-.7-.3-2.2-.94-2.21-1-2.21-.94-2.21-.93-1.31-.54,2.27-5.44,1.29.54,2.24,1,2.24.94,2.22,1,2.21,1,.7.3-2.33,5.4Zm-16.26-6.84-2.2-.89-2.26-.91-2.24-.9-2.26-.88-2-.78,2.12-5.49,2,.78,2.27.91,2.28.9,2.25.9,2.2.9-2.19,5.46Zm-16.42-6.47-1.62-.61-2.28-.87-2.3-.86-2.29-.84-2.29-.84-.25-.09,2-5.54.24.09,2.32.85,2.32.86,2.29.86,2.31.87,1.62.61-2.08,5.51Zm-16.56-6.1-1.15-.41-2.32-.83L408.74,97l-2.33-.8-2.33-.81-.65-.22,1.89-5.58.65.22,2.35.81,2.35.82,2.33.82,2.35.82,1.15.41-2,5.56Zm-16.69-5.76L397,93l-2.36-.77-2.37-.78L390,90.7l-2.37-.76-.92-.28L388.44,84l.92.31,2.39.76,2.38.77,2.38.77,2.37.79.82.28-1.85,5.58Zm-16.8-5.4-.61-.19L378,87l-2.39-.74-2.4-.71-2.42-.72-1-.32,1.66-5.65,1.07.32,2.41.72,2.42.74,2.42.73,2.4.74.61.19-1.73,5.63Zm-16.91-5.08-.54-.15L361.17,82l-2.43-.69-2.43-.69-2.45-.68-1.05-.29L354.36,74l1.07.29,2.45.68,2.45.69,2.45.69,2.43.71.55.16-1.62,5.64Zm-17-4.73-.61-.16-2.46-.66-2.46-.65L339.13,76l-2.47-.63-.91-.23,1.43-5.72.94.25,2.49.64,2.47.64,2.48.65,2.48.66.61.17-1.52,5.69ZM330,73.66l-.82-.21-2.48-.61-2.51-.61-2.49-.61L319.23,71l-.63-.15,1.34-5.75.65.15,2.51.61,2.52.61,2.5.61,2.51.61.82.21L330,73.66Zm-17.18-4.12-1.17-.26-2.51-.58-2.52-.57-2.54-.56L301.59,67l-.21,0,1.23-5.76.23,0,2.55.57,2.53.56,2.55.57,2.54.57,1.16.27-1.31,5.74Zm-17.24-3.8L294,65.38l-2.56-.53-2.55-.53-2.55-.52-2.23-.44,1.16-5.78,2.22.46,2.58.52,2.57.53,2.56.53,1.65.35-1.2,5.77Zm-17.31-3.52L276,61.78l-2.57-.49-2.59-.49-2.58-.48L266.74,60l1-5.78,1.56.28,2.6.48,2.59.49,2.6.49,2.29.44-1.11,5.79ZM261,59l-.46-.08-2.61-.46-2.6-.45-2.61-.45-2.62-.45-.71-.11.95-5.82.73.12,2.62.44,2.63.45,2.63.46,2.61.45.45.08L261,59Zm-17.42-3-1.34-.21-2.63-.42L236.92,55l-2.63-.39-2.41-.37.88-5.83,2.4.37,2.66.41,2.64.41,2.65.43,1.34.21L243.53,56Zm-17.46-2.67L223.7,53l-2.65-.38-2.67-.37-2.66-.37-1.31-.18.76-5.83,1.34.18,2.68.36,2.66.38,2.68.37,2.37.35-.83,5.83ZM208.57,51l-.86-.11L205,50.5l-2.68-.32-2.69-.33L197,49.52h-.1l.67-5.86h.12l2.71.33,2.69.33,2.7.35,2.68.34.85.11L208.57,51ZM191,48.82l-2.13-.25-2.71-.3-2.7-.3-2.71-.29-1.46-.16.6-5.86,1.48.16,2.71.29,2.73.3,2.7.3,2.14.25L191,48.82Zm-17.57-1.9-.83-.09-2.71-.26-2.73-.27L164.46,46l-2.73-.25.53-5.86,2.73.26,2.75.25,2.73.27,2.74.27.82.08-.57,5.86ZM44.83,365.75l.25-.13.24-.13.24-.13.25-.13.24-.13.24-.13.24-.14.23-.12.24-.14.25-.12.24-.13.24-.13.24-.13.24-.13.24-.13.24-.13.23-.14.25-.12.23-.14.23-.13.24-.13.24-.13.24-.13.24-.13.23-.13.23-.12.23-.14.24-.12.24-.14.23-.13.24-.13.23-.13.24-.13.23-.13.23-.13.23-.14.24-.13.23-.13.23-.13.08,0,2.88,5.14-.07,0-.24.14-.23.12-.24.14-.23.13-.25.13-.23.13-.23.13-.24.14-.24.12-.23.14-.24.13-.23.13-.24.13-.25.14-.24.13-.23.14L53,368l-.24.14-.24.13-.24.13-.25.13-.23.13-.25.13-.24.13-.24.14-.24.13-.24.13-.24.13-.24.13-.24.14-.24.13-.26.13-.24.13-.24.14-.24.12-.25.14-.24.13-.24.13-.25.13-2.79-5.19Zm14.43-8,.1-.06.23-.13.23-.13.23-.14.22-.12.23-.14.23-.13.22-.13.21-.13.23-.14.22-.12.23-.13.22-.13.23-.13.22-.13.23-.13.21-.14.22-.13.23-.13.22-.13.22-.13.22-.14.23-.13.22-.13.21-.12.22-.13.22-.14.22-.12.22-.14.22-.13.22-.13.22-.13.21-.14.23-.13.21-.13.22-.13.22-.13.22-.12.21-.14.22-.13.22-.13.22-.13.2-.13.22-.14.21-.13.22-.13.06,0,3.07,5-.06,0-.22.13-.22.13-.21.14-.23.12-.22.14-.22.13-.21.13-.22.13-.22.15-.22.13-.22.13-.23.13-.2.14-.24.13-.22.13-.22.13-.22.13-.22.13-.22.14-.22.13-.22.13-.23.14-.22.14-.23.13-.22.13-.22.13-.23.13-.22.14-.22.13-.24.13-.22.13-.23.14-.22.12-.22.14-.23.13-.22.14-.23.13-.24.13-.22.14-.23.13-.23.13-.22.13-.23.13-.23.13-.23.14-.1.06-3-5.1Zm15.08-9.09c3.31-2.07,6.59-4.21,9.83-6.38l3.28,4.89q-5,3.32-10,6.47l-3.13-5ZM89,339q4.82-3.33,9.52-6.81l3.51,4.73q-4.8,3.54-9.69,6.93L89,339Zm34.17-27.09.35-.32.34-.32.35-.33.34-.3.34-.33.34-.33.34-.31.34-.32.34-.33.33-.31.33-.32.34-.33.32-.31.34-.32.33-.33.32-.31.33-.32.33-.33.31-.31.25-.24,4.15,4.17-.25.25-.34.33-.32.32-.33.33-.35.33-.33.33-.33.32-.35.34-.34.32-.35.32-.34.34-.34.33-.35.32-.34.33-.35.33-.35.32-.35.34-.35.32-.36.32-.35.34-4-4.33Zm10.69-10.48.07-.07.31-.33.31-.32.29-.31.31-.33.3-.32.29-.31.3-.33.3-.32.29-.31.3-.32.3-.31.28-.32.29-.33.3-.31.28-.32.29-.32.29-.32.27-.32.29-.31.27-.33.29-.31.28-.32.27-.32.28-.32.28-.32.27-.31.23-.27,4.47,3.83-.23.27-.29.33-.28.33-.28.33-.29.32-.29.33-.28.33-.3.32-.28.34-.3.32-.29.33-.29.33-.3.32-.3.34-.29.32-.31.33-.29.33-.3.32-.31.34-.3.32-.3.32-.32.34-.3.32-.31.32-.32.34-.3.32-.31.33-.07.07-4.27-4.06Zm11.54-13.1,0,0,.25-.32.25-.31.26-.32.25-.31.24-.32.26-.32.25-.32.24-.32.25-.31.25-.32.23-.31.25-.32.24-.31.23-.32.25-.31.24-.32.23-.33.24-.3.23-.33.23-.31.24-.32.23-.31L151,281l.23-.31.23-.32.22-.31.23-.32.23-.31.21-.32.06-.06,4.82,3.37-.06.08-.24.32-.22.34-.23.32-.24.33-.23.32-.23.33-.25.32-.23.34-.24.32-.25.33-.24.32-.24.33-.25.32-.24.32-.24.34-.26.32-.24.33-.25.32-.26.34-.24.32-.25.33-.26.32-.26.32-.25.34-.27.32-.25.34-.26.32-.27.33-.26.32,0,0-4.59-3.69Zm10.25-14.07.1-.16.21-.3.2-.33.2-.3.2-.33.19-.3.2-.32.21-.31.19-.32.19-.3.2-.32.18-.31.2-.32.19-.31.18-.31.19-.31.19-.32.18-.31.19-.32.19-.31.17-.31.19-.31.18-.3.17-.32.19-.31.18-.31.17-.31.17-.32.18-.31.18-.31.16-.31.18-.3.05-.1,5.16,2.81-.05.1-.17.33-.19.33-.18.31-.17.33-.18.32-.19.33-.18.32-.19.33-.19.31-.18.33-.19.33-.2.32-.18.33-.19.32-.2.33-.2.32-.19.33-.2.32-.19.33-.2.32-.21.33-.19.31-.2.33-.21.33-.2.33-.2.31-.22.34-.2.32-.21.33-.21.31-.21.33-.11.17-4.93-3.21Zm8.61-15.06,0,0,.15-.31.14-.31.16-.31.15-.3.14-.32.15-.3.15-.32.15-.3.13-.3.15-.32.14-.3.15-.32.13-.3.14-.3.14-.31.13-.31.14-.3.13-.32.14-.3.13-.31.13-.31.14-.29.13-.32.12-.3.13-.31.13-.31.13-.3.11-.31.13-.3.12-.3.13-.32.11-.3.12-.31.12-.3,0-.06,5.49,2.1,0,.08-.12.32-.12.32-.14.32-.12.32-.13.32-.12.32-.14.32-.13.32-.13.33-.13.31-.14.32-.14.32-.13.32-.14.33-.14.31-.14.33-.14.31-.13.33-.16.32-.14.32-.14.32-.15.33-.15.32-.14.32-.15.31-.16.33-.14.33-.15.31-.15.33-.16.32-.16.32-.15.33-.17.32-.15.32,0,.05-5.29-2.6Zm6.59-16,.1-.29.1-.3.1-.3.1-.3.1-.3.09-.31.09-.3.1-.3.1-.31.09-.29.08-.3.1-.31.09-.3.09-.3.09-.29.07-.31.09-.3.09-.3.08-.3.09-.3.07-.3.08-.3.09-.3.08-.3.08-.3.08-.3.06-.29.08-.31.08-.29.07-.3.08-.3.07-.3.06-.3.07-.3.07-.29.08-.3.07-.31,5.74,1.29-.07.31-.07.32-.07.32-.08.3-.08.32-.07.32-.08.31-.07.31-.08.32-.08.31-.09.31-.08.33-.08.31-.08.31-.08.32-.08.31-.1.32-.08.32-.09.32-.09.3L178,240l-.1.31-.09.32-.09.32-.09.32-.1.31-.1.32-.1.32-.09.31-.1.32-.1.32-.11.31-.09.32-.1.32-.1.32-.11.32-.09.28-5.61-1.84Zm6.32-39,0-.42.05-.62.05-.63,0-.62,0-.63,0-.62,0-.62,0-.64,0-.62,0-.63,0-.61,0-.63v-4.19l5.88-.09V197l0,.65,0,.66,0,.66,0,.66,0,.65,0,.67,0,.67,0,.65,0,.67-.05.66-.07.67,0,.42-5.86-.54Zm.21-17.22,0-.55-.05-.6-.05-.62,0-.6-.06-.61-.06-.61-.06-.6-.07-.6-.07-.6-.08-.61-.07-.6-.08-.6-.08-.6-.09-.59-.09-.6-.09-.6-.09-.59-.1-.6-.11-.59v0l5.78-1,0,.08.11.62.1.62.1.63.1.62.09.63.09.63.09.63.08.64.09.63.07.63.08.64.06.63.07.64.06.64.06.63.06.65.06.63,0,.65,0,.56-5.88.41Zm-2.51-17.06,0-.18-.14-.58-.13-.58-.14-.58-.15-.57-.15-.58-.14-.57-.15-.58-.16-.56-.15-.58-.16-.57-.17-.57-.16-.57-.17-.56-.16-.56-.18-.57-.17-.56-.18-.57-.18-.55-.19-.56,0-.08,5.58-1.87,0,.11.19.58.19.6.19.58.18.59.18.59.18.59.17.6.18.59.17.6.16.59.17.6.16.61.16.6.16.6.15.6.15.62.14.6.15.61.14.62,0,.18-5.74,1.29Zm-5-16.52-.21-.53-.21-.54-.21-.53-.22-.54-.21-.53-.23-.54-.22-.53-.23-.53-.22-.53-.23-.53-.24-.53-.23-.52-.24-.53-.23-.52-.25-.52-.24-.52-.24-.51-.25-.51-.25-.51-.24-.51,0,0,5.28-2.63,0,.06.27.53.25.54.26.54.25.55.26.54.25.54.25.55.24.54.26.55.23.55.24.56.24.55.23.56.24.55.23.56.23.56.23.56.23.58.21.56.21.53-5.49,2.12Zm-7.29-15.67-.19-.35-.28-.49-.27-.5-.28-.48-.27-.49-.29-.48-.27-.48-.29-.47-.28-.48-.28-.47-.3-.48-.28-.46-.3-.47-.28-.47-.3-.46-.29-.46-.3-.46-.3-.46-.29-.46-.31-.46-.3-.45-.05-.08,4.86-3.3.08.11.32.47.31.48.31.46.31.48.31.49.32.48.3.49.31.48.3.5.3.49.3.49.3.5.3.5.29.5.3.5.29.51.29.5.28.51.3.5.28.51.18.35-5.14,2.86Zm-9.34-14.58,0,0-.31-.42-.32-.42-.32-.42-.31-.42-.33-.42-.32-.42-.32-.41-.34-.4-.31-.41-.33-.4-.33-.4-.33-.41-.32-.4-.34-.39-.33-.39-.33-.39-.33-.38-.34-.4-.33-.38-.33-.38-.33-.37-.35-.38-.07-.08,4.36-4,.09.1.35.4.36.39.35.41.35.4.34.4.36.4.35.41.35.42.34.41.35.42.34.41.34.43.34.42.35.43.33.43.34.43.35.44.32.42.34.44.34.45.33.44.33.45h0l-4.73,3.51ZM142,110l0,0-.34-.33-.36-.35-.34-.34-.34-.33-.35-.32-.34-.33-.35-.34-.34-.32-.36-.31-.34-.32-.35-.31-.34-.31-.35-.32-.35-.3-.34-.3-.35-.3-.35-.29-.35-.29-.35-.3-.34-.29-.35-.28-.35-.28-.35-.28-.35-.29-.18-.14,3.62-4.64.21.17.37.29.37.3.37.3.37.31.37.31.37.3.37.31.37.32.37.32.38.32.37.33.37.32.37.33.36.33.37.34.36.34.37.35.36.33.37.35.37.35.36.35.37.36.35.35.37.36,0,0Z"/><path class="cls-3" d="M106.49,18.72s-5.17-13.36-14-10.16-7.19,13.92-7.19,13.92S72.64.64,53.61,12.4s-3.67,26.93-3.67,26.93S23.79,49.7,49.36,63.89c-16.9,25,22.72,36.32,33.79,17.94-8.53,6.51-36.38,5.49-26.94-19.77,0,0-18-8.41-2.74-21.62,0,0-5.89-12.53,5.07-20.2S78.65,19.16,86.05,27c0,0,5.51-19.19,20.44-8.24Zm97.9,20.62c-13.61-23.22-32-.8-32-.8C167,23.87,158.58,9.81,139.54,13.72s-18.42,24-18.42,24c-28,8.8-8.8,30.42-8.8,30.42-27.15,28.25,9.4,45.67,24.55,41.9-25.38,18.15-71.71-19.78-34.74-43.41C76.21,33,117.07,34.22,117.07,34.22S105.33,5.14,137.49.42,174,32.13,174,32.13s4-15.21,17.61-14.41S204.39,39.34,204.39,39.34Z"/><path class="cls-4" d="M343.94,418.81l10.47-30.63C326.72,383,238.68,368,229.12,372.27c-8.7,4.63,3.35,10,8,12.3,11.11,5.36,85.88,30.85,106.78,34.24Zm117.37,29.44,5.29-32c25.21,7.93,112,35.91,118.6,44.28,5.51,8.17-8.13,8-13.32,7.77C559.55,467.76,481.34,455.1,461.31,448.25Z"/><g class="cls-5"><path class="cls-6" d="M594.26,471.51s-95.06-23-132.52-33.37l-.51,20.34s95.47,17.86,133,13ZM216.51,375.15s98.51,27.55,135,35.18l-8.75,21.93S228.43,399.52,216.51,375.15Z"/></g><path d="M346.2,419.57l10.47-30.63a2.38,2.38,0,0,0-1.49-3,3.2,3.2,0,0,0-.42-.1c-17-3.18-56.63-10-87-13.87-19.56-2.48-35.45-3.69-39.59-1.85l-.16.07h0c-4.64,2.46-5.21,5.36-3.66,8.26,1.86,3.51,7.74,6.33,11.18,8l.61.3h0c6.4,3.09,33.52,12.73,59.53,21.07,19.68,6.31,38.78,11.9,47.91,13.38a2.4,2.4,0,0,0,2.63-1.59ZM351.27,390l-8.92,26.09c-9.49-1.85-27.08-7-45.23-12.86-25.83-8.28-52.67-17.81-58.92-20.83h0l-.62-.3c-2.91-1.39-7.88-3.78-9-5.93-.22-.41.15-1,1.61-1.77,3.42-1.39,18.35-.12,37,2.25,28.74,3.64,65.93,10,84.12,13.35ZM464,446.62l4.51-27.31c17.14,5.41,54.18,17.38,81.78,27.69,17.16,6.4,30.58,12.07,33,14.87,1.29,1.93.29,2.89-1.34,3.35-3,.85-7.48.75-9.94.66-7-.28-35.27-4.51-62.06-9.35-18.73-3.39-36.67-7.08-45.92-9.91Zm.26-30.79L459,447.77a2.37,2.37,0,0,0,1.56,2.74c8.71,3,28.17,7,48.53,10.7,27,4.88,55.6,9.14,62.71,9.42,2.74.11,7.72.21,11.42-.83,5.1-1.42,8.16-4.45,4-10.64h0l-.1-.14c-2.78-3.55-17.06-9.74-35.13-16.49-29.36-11-69-23.67-84.63-28.6h0l-.32-.08A2.38,2.38,0,0,0,464.25,415.83Z"/><path class="cls-6" d="M483.65,469.73c6.11-33.1-7.56-79.36-24.65-111.77-2.72-5.17-80.26-22.94-80.25-22.94-32,10.67-60.9,60.13-72.1,90.25,12.71,8.08,49.87,16.52,90.9,26.36C427.19,458.75,465.45,468.85,483.65,469.73Z"/><path d="M485.5,470c2.86-15.59,1.43-34-2.65-52.5a249,249,0,0,0-22.19-60.42c-3.09-5.85-79.13-23.34-81.44-23.88h-.06a1.81,1.81,0,0,0-1.13.1c-14.15,4.76-27.61,16.76-39.24,31.32-15.27,19.11-27.46,42.71-33.89,60a1.87,1.87,0,0,0,.75,2.23h0c11.94,7.58,44.49,15.37,81.73,24.26l9.74,2.34c4.66,1.11,10.1,2.44,15.64,3.8,26.46,6.49,55.52,13.61,70.81,14.35A1.87,1.87,0,0,0,485.5,470Zm-6.29-51.69c3.84,17.43,5.29,34.71,2.89,49.45-15.35-1.13-43.11-7.93-68.47-14.14-5.19-1.28-10.29-2.52-15.65-3.81l-9.75-2.34c-35.58-8.5-66.84-16-79.29-23,6.45-16.84,18.18-39.26,32.77-57.53,11.13-13.93,23.89-25.4,37.13-30,6.62,1.53,76.3,17.68,78.51,21.87A245.09,245.09,0,0,1,479.21,418.32Z"/><path class="cls-4" d="M454.93,354.51a83.93,83.93,0,0,1-31.63,29c-1.5-6.39-3.64-11.24-8.06-22.26-6.34,3.72-12.64,13.41-19,16.76-7.91-10.27-13.17-24.85-16.63-42.37l12.79-2.06c7.94,10.9,13.14,18.94,22.95,26.78,11.87-2.26,21-6.55,31.48-13.17Z"/><path d="M452.5,354.84a82.83,82.83,0,0,1-28,25.94c-1.26-4.59-3-8.82-5.79-15.81-.4-1-.81-2-1.25-3.1a79.16,79.16,0,0,0,14.86-4.7,108.5,108.5,0,0,0,14.27-7.61l5.88,5.28Zm-10.21,17.6a83.65,83.65,0,0,0,14.16-16.84,1.86,1.86,0,0,0-.27-2.47l-8.05-7.23a1.85,1.85,0,0,0-2.3-.25,107.56,107.56,0,0,1-15,8.08,74.47,74.47,0,0,1-15,4.66c-8-6.52-12.88-13.3-19.06-21.88-.82-1.14-1.68-2.33-2.83-3.9a1.86,1.86,0,0,0-1.86-.84l-6.39,1-6.27,1a.58.58,0,0,0-.19,0,1.87,1.87,0,0,0-1.48,2.19,147.15,147.15,0,0,0,6.75,24.21,75.34,75.34,0,0,0,10.18,18.87,1.87,1.87,0,0,0,2.41.58c3.53-1.86,6.92-5.39,10.29-8.92a66.54,66.54,0,0,1,7-6.65l.9,2.22c3.22,8,5,12.28,6.21,17.62h0a1.69,1.69,0,0,0,.15.43,1.86,1.86,0,0,0,2.51.81,84,84,0,0,0,18.14-12.77Zm-29.54-11.75a61.92,61.92,0,0,0-8.05,7.52,54.92,54.92,0,0,1-8,7.37A73.37,73.37,0,0,1,388,358.92a140.35,140.35,0,0,1-6.17-21.71l4.46-.72,5.27-.85c.68.94,1.45,2,2.2,3.05C399.92,347.25,404.84,354.06,412.75,360.69Z"/><path class="cls-7" d="M289.11,271.74S285,335.13,394.52,367.87,553,344.06,553,344.06l13.57-14.56,12.66-160.24s-46.89-61-118.86-71.14-127.12,18.21-127.12,18.21L283.58,237.86Z"/><path d="M286.72,271.88c-.15,4.39-.39,66.14,107.12,98.27,111,33.17,160.77-24.34,160.92-24.51l0,0,13.49-14.48a2.41,2.41,0,0,0,.63-1.44h0l12.66-160.24a2.34,2.34,0,0,0-.61-1.78c-2.43-3.11-49.2-61.91-120.31-71.9C388,85.54,332.32,114.12,332.16,114.2a2.39,2.39,0,0,0-1.19,1.37L281.38,237a2.32,2.32,0,0,0-.14,1.27h0l5.49,33.64Zm108.48,93.7c-105.95-31.66-103.83-91.53-103.72-93.67a2.12,2.12,0,0,0,0-.56L286,238.13l49-120.07C342,114.74,393.63,91.15,460,100.47S571.25,163.13,576.76,170L564.24,328.48l-12.93,13.88a1.14,1.14,0,0,0-.11.11C551.06,342.63,503.28,397.88,395.2,365.58Z"/><path class="cls-8" d="M335,303.4c.09,21.07,16.62,51.84,72.49,64.07,71.23,15.58,94.63-7.62,98-38.27S454.38,272,433.11,268.61C391.43,261.93,334.81,266.65,335,303.4Z"/><path class="cls-7" d="M299.84,166.67l65-51.87c-9-24.56-65.74-40.61-74.76-32.45-11.43,10.34-18.82,60.35,9.8,84.32Zm298.41,80.41-38-73.93c18.29-18.71,76.61-10.11,81.49,1C647.93,188.29,634.17,236.94,598.25,247.08Z"/><path class="cls-9" d="M299.91,163.48,361.83,114a28.3,28.3,0,0,0-4.68-6.83c-7.75-8.57-21.14-15.52-34-19.82s-24.77-5.91-30.11-4a4,4,0,0,0-1.34.72,12.49,12.49,0,0,0-1,1.09c-4.67,5.59-8.35,18.47-8.29,33s3.94,30.53,14.44,42.15q1.45,1.6,3.12,3.12Zm66.41-46.76-65,51.86-1.56,1.25-1.53-1.29a50.22,50.22,0,0,1-5.09-4.91c-11.43-12.63-15.65-29.83-15.71-45.4s4.11-29.78,9.42-36.12a16,16,0,0,1,1.51-1.57,9,9,0,0,1,2.92-1.7c6.32-2.32,19.63-.67,33.35,3.91,13.56,4.53,27.74,11.94,36.1,21.18a31.09,31.09,0,0,1,6.32,10l.61,1.65-1.38,1.11ZM596.07,248.2l-38-73.93-.81-1.57,1.23-1.26a31.26,31.26,0,0,1,9.88-6.57c11.41-5,27.37-5.94,41.6-4.51,14.39,1.44,27.21,5.39,32,10.09h0a8.78,8.78,0,0,1,2,2.75,15.46,15.46,0,0,1,.73,2c2.25,8,.26,22.57-6.2,36.8s-17.34,28.14-33,35a51.49,51.49,0,0,1-6.65,2.39L597,250l-.92-1.77Zm-32.8-74.54,36.22,70.48a43.29,43.29,0,0,0,4.12-1.58c14.33-6.28,24.43-19.28,30.44-32.52s7.93-26.46,6-33.46a12.27,12.27,0,0,0-.5-1.42,4,4,0,0,0-.91-1.2c-4.07-4-15.72-7.4-29.09-8.74s-28.58-.51-39.17,4.14A28.06,28.06,0,0,0,563.27,173.66Z"/><path class="cls-10" d="M578.84,195.73c12.75-7,40.19-4.27,44.15,3.1s-4.43,30.67-23.76,42.65c1.4-7.6-7.81-31.8-20.39-45.75ZM338.58,127.79c-8.75-11.62-34.91-20.37-41.54-15.27s-8.53,29.79,4.2,48.64C303.07,153.66,321.39,135.36,338.58,127.79Z"/><path class="cls-4" d="M321.21,181.94c-13,6.89-24.64,72.63-23.74,106.14.58,21.75-13.17,11.36-16.5-15.44-5.25-42.32,4.6-97.35,22.5-135.94,0,0,38.35-94.82,168-69.87,79.55,15.3,114.85,56,127.65,101,14.43,50.77-.86,96-14.07,130.16-8,20.71-14.8,31.55-23.34,41.85-11,13.25-18.73,18.4-21.88,16.8C532.94,353.07,577,270.5,570,244.43,509.63,214,378.73,184.78,321.21,181.94Z"/><g class="cls-11"><path class="cls-12" d="M508.72,59.76,470.06,49.55C453.29,73.61,411,136.33,384.74,210l112.31,29.18C511.65,190.49,512.36,126.85,508.72,59.76Z"/></g><path class="cls-9" d="M321.83,184.42c-5.14,3.49-10.25,18.21-14.29,36.26-5,22.34-8.11,49.48-7.63,67.34.16,6.22-.85,10.24-2.53,12.28a4.86,4.86,0,0,1-5.05,1.85,8.84,8.84,0,0,1-4.52-3c-3.77-4.23-7.69-13.52-9.27-26.22-2.61-21.05-1.53-45.21,2.4-68.95,4.05-24.47,11.13-48.53,20.31-68.32h0c1.22-2.93,40.94-96.21,170.7-71.25,37.17,7.16,64.83,19.82,85.13,35.88,23.75,18.78,37.4,42.17,44.41,66.84,7.33,25.78,7.11,50.12,3.39,72.36S594,281.62,587.35,298.84A182,182,0,0,1,575.73,324a118.7,118.7,0,0,1-12.11,17.36,90.88,90.88,0,0,1-13.77,14c-4.78,3.67-8.6,4.73-11.11,3.44-4.8-2.45,1.29-18.09,9-37.91,10.1-25.95,23.21-59.6,20.14-74.76-28-13.93-70.87-27.6-114.46-38.55-50.06-12.57-101-21.53-131.6-23.14Zm-19.05,35.21c4.46-19.94,10.57-36.3,17.29-39.85l1.25-.28c30.84,1.52,82.58,10.57,133.3,23.31C499,214,542.76,228,571.11,242.25l1,.5.28,1.06c4.35,16.14-9.47,51.62-20.06,78.82-6.83,17.53-12.22,31.36-11.35,31.8s2.77-.56,5.92-3a86.79,86.79,0,0,0,13-13.2,114.71,114.71,0,0,0,11.63-16.68,177.51,177.51,0,0,0,11.31-24.49c6.56-17,13.63-36.67,17.27-58.39s3.83-45.23-3.28-70.23c-6.75-23.75-19.89-46.27-42.72-64.33-19.71-15.59-46.68-27.9-83-34.9-127.71-24.57-165.2,68.15-165.31,68.41l0,.08c-9,19.41-15.95,43-19.93,67.06-3.85,23.29-4.92,47-2.36,67.56,1.45,11.65,4.85,19.94,8.07,23.56a4.41,4.41,0,0,0,1.89,1.46c.06,0,.15,0,.25-.17,1-1.18,1.55-4.09,1.42-9.05C294.54,269.92,297.7,242.31,302.78,219.63Z"/><path class="cls-6" d="M581.47,279.75s12.6,9,9.48,20.17-21.19.14-21.19.14-18.27,33-48.37,28.21-43-38.6-71.73-52.66-43.51-15.15-60.65-7.85-84.49,32-99.28-31.93c0,0-21-2.82-16.74-18s19.7-7.8,19.7-7.8c4.36-17.8,7-39.89,38.84-41.75,56.15-3.26,180,27.91,235.94,57.9C584.62,235.41,587,250.18,581.47,279.75Z"/><path d="M580.07,281.68s11.26,8,8.58,17.61C586.38,307.44,571,298,571,298a2.39,2.39,0,0,0-3.27.8l-.1.19c-1.22,2.13-18.4,31.25-45.86,26.9-16.19-2.56-27.44-14.23-39.13-26.37-9.38-9.73-19-19.75-31.92-26.06-14.61-7.15-25.73-11-35.44-12.17-9.89-1.17-18.24.45-27.19,4.26-8.43,3.59-29.16,11.45-49.49,10.57-19.87-.86-39.46-10.24-46.54-40.84a2.37,2.37,0,0,0-2-1.82h0c-.05,0-18.27-2.47-14.78-15s16.36-6.3,16.4-6.28a2.38,2.38,0,0,0,3.16-1.16,3.66,3.66,0,0,0,.15-.43h0c.46-1.87.71-3,1-4.06,3.76-16.12,8-34.26,35.7-35.87,27.51-1.6,71.53,5.17,115.76,16,45.3,11.12,90.76,26.52,118.91,41.6,7.93,4.25,12.44,9.76,14.31,17.58,2,8.18,1.18,19-1.52,33.42a2.39,2.39,0,0,0,.94,2.36Zm13.18,18.88c2.92-10.5-5.88-19-9.18-21.79,2.61-14.41,3.29-25.37,1.22-34-2.22-9.26-7.48-15.73-16.69-20.67-28.47-15.26-74.36-30.81-120-42-44.65-11-89.18-17.78-117.15-16.16-31.27,1.82-35.93,21.79-40.07,39.54l-.34,1.43c-5.21-1.59-16.51-3.27-20.3,10.32-4.17,15,11.85,19.57,17.09,20.67,8,32.13,29.15,42.07,50.6,43s42.83-7.22,51.56-10.94c8.19-3.49,15.81-5,24.78-3.91,9.16,1.09,19.8,4.81,33.9,11.71,12.12,5.93,21.48,15.65,30.58,25.09,12.25,12.72,24,25,41.83,27.78,27.09,4.29,44.9-20.07,49.57-27.37C576,306,590,312.08,593.25,300.56Z"/><path class="cls-10" d="M520.81,304.65A31.42,31.42,0,0,1,510.52,301c-19.33-10.71-30.11-33.2-53.75-44.77-22.52-11-42.58-17.87-66.62-7.63-23.1,9.85-51.56,15.64-67.37-1.58-15.6-17-13.85-31.69-4.49-50.81,3.19-6.52,7.9-8.55,19.68-9.23,53.79-3.13,167.54,27.39,215.31,53,10.4,5.58,11.31,14.59,9.73,25.31C560.19,284.38,543.18,308.2,520.81,304.65Z"/><path class="cls-13" d="M498.05,291.85c-6.72-6.11-12.86-13.29-19.86-20l-28.41-68.61q6.54,1.67,13,3.46l35.25,85.16Zm-30.72-29.19-25.42-61.41c-4.28-1.05-8.57-2.05-12.83-3l23.12,55.85q2.26,1.06,4.57,2.19a71.89,71.89,0,0,1,10.56,6.39Zm-27.62-13.87c-14.58-5.38-28.79-7.37-44.61-2l-24.22-58.5c14.41,1.51,30.39,4.13,46.89,7.54Z"/><path class="cls-10" d="M372.05,81.15c-30.39,13.13-46.82,30.37-56.61,54.89,12.49-16.68,36.86-37.34,58.64-43.92l-2-11Zm9.54-4.65,3.14,11.9,15.79-6.25-2.35-11.44Z"/><path class="cls-14" d="M459.11,284.09c-5.18,14.46-26.44,19.78-40,16-16.52-4.65-28.31-26.6-24.47-36.42,5.05-12.9,31.16-6.31,38.13-5C442.7,260.53,464.27,269.69,459.11,284.09Z"/><path d="M454.16,323.59c-2.32,3.93-10.33,12.89-35.3,13.55-31.7.86-36.19-25.5-36.2-25.58a2.38,2.38,0,0,0-4.68.86c0,.09,5.2,30.44,41,29.48,28.24-.75,37.24-12.15,39.74-16.79a8.13,8.13,0,0,1,3.93,4.08,2.38,2.38,0,0,0,4.51-1.54s-3.32-10.18-19.47-9.06a2.39,2.39,0,0,0,.32,4.76A25.9,25.9,0,0,1,454.16,323.59Z"/><polygon class="cls-15" points="473.61 109.94 459.6 131.04 435.22 124.15 450.97 143.99 436.88 165.04 460.62 156.21 476.28 176.11 475.21 150.8 498.99 142.05 474.58 135.25 473.61 109.94"/><path class="cls-15" d="M420.48,410.45,424,399.16c8.31,1.87,25.54,6,29.22,4.85,8.09-2.54,7.88-5.12,6.77-14.52-1.22-10.38-1.65-19.55,7.74-21.36S479,376,479,376c1.74,6.07,2,13.49,1.58,20.49-1,15.85-3.86,23.07-13.95,23.88-10.73.85-31.38-5.9-46.19-9.91Zm-27.16-20.23s-23.17-5.33-32.69-10.28S352,372,357,362.79s10.62-19.33,2.59-24.52-15.84,3.46-16.87,6.89c-17,29.24-8.05,41.72,3.59,45.06,9.45,2.72,34.74,8.91,43.89,11.12Z"/><path d="M423.48,408.8l2.11-6.83.18,0c9.07,2.08,24.15,5.52,28.12,4.28,4.81-1.52,7.21-3.18,8.34-6.12,1-2.68.69-5.91.09-10.95h0c-.59-5-1-9.63-.17-13.06a7,7,0,0,1,6-5.68c7.07-1.36,8.57,6,8.57,6a1.24,1.24,0,0,1,0,.16h0a44.42,44.42,0,0,1,1.48,8.73,80.32,80.32,0,0,1,0,11c-.46,7.58-1.35,13.05-3.27,16.59-1.69,3.1-4.33,4.71-8.48,5.05-8.34.66-23.5-3.65-36.72-7.4q-3.21-.93-6.29-1.78Zm-1.79-10.35-3.45,11.17c0,.06-.05.14-.07.21a2.39,2.39,0,0,0,1.69,2.92c2.62.71,5.56,1.55,8.61,2.41,13.6,3.87,29.2,8.3,38.39,7.57,5.93-.48,9.78-2.88,12.3-7.55,2.29-4.22,3.33-10.3,3.84-18.56a86.34,86.34,0,0,0,0-11.6,49.44,49.44,0,0,0-1.63-9.66c-.31-1.29-3.12-11.68-14.1-9.57-5.8,1.12-8.58,4.52-9.71,9.25-1,4.2-.58,9.33.06,14.73h0c.51,4.35.82,7.12.21,8.71-.52,1.33-2.06,2.23-5.33,3.26-2.75.86-17-2.41-25.64-4.38l-2.3-.52a2.39,2.39,0,0,0-2.84,1.61Zm-27.84-10.56c-.06,0-22.86-5.25-32.12-10.07-4-2.08-5.77-3.56-6-5.18-.24-1.82,1.11-4.54,3.39-8.7l0,0h0c5.53-10.09,11.64-21.25,1.76-27.63a12.47,12.47,0,0,0-3.25-1.51,12.33,12.33,0,0,0-9.89,1.42,18.88,18.88,0,0,0-6.09,5.82,9.89,9.89,0,0,0-1.12,2.19,81.93,81.93,0,0,0-8,17.91c-2.12,7.41-2,13.3-.52,17.91a18.36,18.36,0,0,0,8.42,10.31,23.51,23.51,0,0,0,5.21,2.19c3.69,1.06,9.81,2.66,16.46,4.34,10,2.54,21.79,5.42,27.53,6.81a2.39,2.39,0,0,0,2.86-1.68h0l3.08-11.13a2.39,2.39,0,0,0-1.66-2.93l-.11,0Zm-34.32-5.84c7.88,4.1,24.6,8.39,30.84,9.91l-1.8,6.53c-6-1.45-15.89-3.89-25.26-6.26-6.56-1.66-12.62-3.24-16.31-4.3a18.59,18.59,0,0,1-4.13-1.73,13.72,13.72,0,0,1-6.28-7.69c-1.23-3.74-1.26-8.69.58-15.11a76.74,76.74,0,0,1,7.59-16.95,2.63,2.63,0,0,0,.29-.61,5.15,5.15,0,0,1,.64-1.27,13.88,13.88,0,0,1,4.48-4.27,7.71,7.71,0,0,1,6.14-1,8.49,8.49,0,0,1,2,1c6.14,4,1.15,13.08-3.37,21.32h0l0,0c-2.75,5-4.36,8.39-3.94,11.61C351.48,376.68,354,379.18,359.53,382.05Z"/><path class="cls-7" d="M329.79,377.74c2.49,9.37-6.15,17.93-13.39,8.86-6.16-7.71-11-24.34-3.73-38,7.15-13.52,23.89-17.92,33.85-12.64,8.82,4.68,3.51,17.51-6.25,18.5,10.52,9.06,4.35,26.85-10.48,23.31ZM481.5,412.21c-5.81,7-2.15,18.25,7.65,13.75,8.64-4,19.71-17.31,16.89-33.24-2.67-15.06-17.28-24.37-28.38-22.38-9.83,1.77-14.14,13.77-1.83,19.19C467.24,392.58,462.89,412.1,481.5,412.21Z"/><path d="M327.53,378.49a9.47,9.47,0,0,1-.83,7.05,5.67,5.67,0,0,1-1.94,2,3.5,3.5,0,0,1-2.2.48c-1.31-.15-2.79-1-4.3-2.94-3.17-4-6-10.52-6.67-17.79a31.07,31.07,0,0,1,3.18-17.64l0,0a25.59,25.59,0,0,1,14.51-12.19c5.71-1.93,11.69-1.76,16.09.57h0a5.86,5.86,0,0,1,2.85,3,6.42,6.42,0,0,1,.12,3.89,9.83,9.83,0,0,1-8.34,7.11,2.38,2.38,0,0,0-2.14,2.6,2.41,2.41,0,0,0,.81,1.57h0a12.42,12.42,0,0,1,4.41,8.63,11.39,11.39,0,0,1-1,5.61,9.29,9.29,0,0,1-3.52,4,10.66,10.66,0,0,1-8.23.95,2.38,2.38,0,0,0-2.81,3.07Zm3.27,9.45a13.78,13.78,0,0,0,1.8-7.38,14.42,14.42,0,0,0,8.45-2,14.08,14.08,0,0,0,5.34-6,16.13,16.13,0,0,0,1.48-7.95,16.85,16.85,0,0,0-3.2-8.84,14.56,14.56,0,0,0,5-3.53,14.3,14.3,0,0,0,3.35-6.05,11.11,11.11,0,0,0-.28-6.8,10.54,10.54,0,0,0-5.07-5.51l0,0c-5.55-2.93-12.91-3.2-19.82-.87a30.41,30.41,0,0,0-17.21,14.49l0,0a35.75,35.75,0,0,0-3.71,20.31c.81,8.23,4,15.72,7.68,20.31,2.38,3,5,4.42,7.49,4.71a8.2,8.2,0,0,0,5.15-1.12,10.4,10.4,0,0,0,3.63-3.73Zm146.69,26.31a13.73,13.73,0,0,0-1.11,6.44,10.63,10.63,0,0,0,1.61,4.93,8,8,0,0,0,4.12,3.27,10.52,10.52,0,0,0,8-.77c5.25-2.4,11.29-7.94,15-15.33a32.41,32.41,0,0,0,3.21-20.49v-.05a1.6,1.6,0,0,0-.05-.21,30.35,30.35,0,0,0-11.92-18.83c-5.87-4.32-13-6.32-19.12-5.22h0L477,368a14.38,14.38,0,0,0-8.27,4.69,11.7,11.7,0,0,0-2.75,5.88,10.42,10.42,0,0,0,1.17,6.57,13.43,13.43,0,0,0,4,4.47,16.36,16.36,0,0,0-4.31,6.84,15.8,15.8,0,0,0-.73,6.81,12.06,12.06,0,0,0,2.83,6.54,14,14,0,0,0,8.48,4.41Zm3.65,6.07a9.21,9.21,0,0,1,2.19-6.58h0a2.42,2.42,0,0,0,.55-1.52,2.38,2.38,0,0,0-2.37-2.39c-4.47,0-7.31-1.28-8.9-3.11a7.32,7.32,0,0,1-1.7-4,11.18,11.18,0,0,1,.53-4.78c.95-2.89,2.87-5.36,5.15-6.18a2.38,2.38,0,0,0,.2-4.44,10.83,10.83,0,0,1-5.41-4.43,5.8,5.8,0,0,1-.64-3.63,7,7,0,0,1,1.64-3.47,9.75,9.75,0,0,1,5.53-3.11l.16,0h0c4.9-.86,10.64.8,15.49,4.37a25.63,25.63,0,0,1,10.06,15.86,1,1,0,0,0,0,.16v.06a27.62,27.62,0,0,1-2.76,17.51c-3.24,6.39-8.36,11.14-12.77,13.16a6.05,6.05,0,0,1-4.49.6A3.38,3.38,0,0,1,482,423,5.85,5.85,0,0,1,481.14,420.32Z"/><path class="cls-14" d="M425.32,394.92c1.65,3,3,7.7,1.33,14.11-3.15,12.06-10.46,10.47-22.45,7.61s-22.21-7.86-18.74-18.36,8.67-13.56,13.22-12.74c2.71.49,7.29,1.73,12.46,3C417.06,390,423.32,391.29,425.32,394.92Z"/><path class="cls-4" d="M607.27,552.48l-15.44-3.37-14.4,49.48c7.18.49,18.52,2.59,27,7.21l2.83-53.32ZM161.75,439.25l15.22,4.3-11.81,52c-6.57-2.95-17.56-6.44-27.22-6.35Z"/><path d="M607.78,550.14l-15.45-3.36a2.37,2.37,0,0,0-2.83,1.83h0l-14.36,49.32a2.39,2.39,0,0,0,1.63,3,1.74,1.74,0,0,0,.5.08h0a77,77,0,0,1,14.26,2.41,54,54,0,0,1,11.77,4.51,2.38,2.38,0,0,0,3.51-2h0l2.84-53.32a2.39,2.39,0,0,0-1.88-2.45Zm-14.29,1.77,11.3,2.46-2.54,47.7a64.81,64.81,0,0,0-9.51-3.3,84.37,84.37,0,0,0-12.22-2.29l13-44.57ZM163,442.09l11.11,3.14-10.68,47a85.75,85.75,0,0,0-11.92-3.75,64.63,64.63,0,0,0-9.89-1.56L163,442.09Zm14.57-.84L162.53,437a2.39,2.39,0,0,0-2.93,1.23l-23.81,49.92h0a2.38,2.38,0,0,0,2.17,3.4,54.24,54.24,0,0,1,12.51,1.56,78.74,78.74,0,0,1,13.65,4.55,2.21,2.21,0,0,0,.51.18,2.38,2.38,0,0,0,2.85-1.79l11.78-51.85A2.39,2.39,0,0,0,177.61,441.25Z"/><path class="cls-4" d="M579.31,640.24l10.5,42.32,5.65-.13L599,638.28l-19.73,2Zm38-51.93L660.86,586l1.52,5.45-41.17,16.32-3.88-19.43ZM559,587l-43.23-5.69-1.93,5.31,39.78,19.46Z"/><path d="M577,640.81l10.49,42.32a2.39,2.39,0,0,0,2.49,1.8l5.53-.13a2.39,2.39,0,0,0,2.32-2.19h0l3.58-44.14a2.37,2.37,0,0,0-2.19-2.57,2.24,2.24,0,0,0-.58,0l-19.56,1.94a2.37,2.37,0,0,0-2.13,2.6c0,.12,0,.23,0,.34Zm14.66,39.33-9.37-37.8,14.14-1.41-3.18,39.17-1.59,0Zm28.54-89.61,38.88-2.08.43,1.55L623,604.48l-2.79-14Zm40.54-6.93-43.38,2.32a2.18,2.18,0,0,0-.5.05,2.37,2.37,0,0,0-1.87,2.8l3.88,19.44h0a3.31,3.31,0,0,0,.12.42,2.39,2.39,0,0,0,3.09,1.33l41-16.27a2.39,2.39,0,0,0,1.56-2.91l-1.53-5.44h0a2.37,2.37,0,0,0-2.41-1.73Zm-101.56,1-43.1-5.67a2.37,2.37,0,0,0-2.54,1.55h0l-1.94,5.31a2.38,2.38,0,0,0,1.3,3l39.68,19.4a2.37,2.37,0,0,0,3.18-1.09,2.74,2.74,0,0,0,.15-.4h0l5.37-19.08a2.37,2.37,0,0,0-1.65-2.93,3.73,3.73,0,0,0-.46-.09Zm-41.83-.7L556,589l-3.86,13.69L516.8,585.4Z"/><path class="cls-4" d="M129.51,521.18l-9.29,42.6,5.12,2.37,22.73-38-18.56-7Zm57-29.8,40.09,17.15-1,5.56-44.15-3.55,5.1-19.16Zm-51.72-27-36.27-24.2-4.08,3.9,27.09,35Z"/><path d="M127.17,520.68l-9.28,42.59a2.37,2.37,0,0,0,1.43,2.71l5,2.33a2.38,2.38,0,0,0,3.09-1l22.67-37.93a2.39,2.39,0,0,0-.82-3.26,2.26,2.26,0,0,0-.48-.21L130.33,519a2.37,2.37,0,0,0-3.05,1.4,2.07,2.07,0,0,0-.1.33ZM123,562.42l8.3-38,13.31,5L124.4,563.09l-1.45-.67Zm65.2-67.77L224,510l-.29,1.57-39.17-3.15,3.66-13.74Zm39.42,11.69-40-17.13a2.32,2.32,0,0,0-.37-.13,2.39,2.39,0,0,0-2.91,1.7l-5.06,19a2.14,2.14,0,0,0-.11.56,2.39,2.39,0,0,0,2.19,2.57l44.14,3.54h0a2.38,2.38,0,0,0,2.53-1.93l1-5.51a2.39,2.39,0,0,0-1.4-2.68Zm-91.54-44L99.88,438.23a2.37,2.37,0,0,0-3,.26h0l-4.08,3.91a2.37,2.37,0,0,0-.2,3.23l27.05,35A2.36,2.36,0,0,0,123,481a1.78,1.78,0,0,0,.32-.29h0L136.6,466a2.38,2.38,0,0,0-.18-3.36c-.13-.11-.26-.2-.39-.29Zm-37.2-19.11,32.38,21.62-9.5,10.58-24-31.09Z"/><path class="cls-14" d="M577.6,651.47c-23.78-6-38.51-29.89-32.73-53s30-37.29,53.82-31.34,38.62,29.91,32.84,53-30,37.28-53.93,31.32ZM138.68,541.72c23.77,5.94,48-8.25,53.82-31.35s-9-47-32.73-53-48.16,8.22-53.94,31.33S114.79,535.75,138.68,541.72Z"/><path class="cls-15" d="M581.88,634.47a25.94,25.94,0,1,1,31.62-18.83,26.13,26.13,0,0,1-31.62,18.83Zm-439-109.76a25.94,25.94,0,1,0-19-31.5A26.1,26.1,0,0,0,142.91,524.71Z"/><path class="cls-12" d="M586.1,617.72a8.68,8.68,0,1,1,4.21-16.82,8.68,8.68,0,1,1-4.21,16.82ZM147.06,508a8.68,8.68,0,1,0,4.21-16.82A8.68,8.68,0,1,0,147.06,508Z"/><path class="cls-4" d="M249.35,490.41l21.92-64.13c-58-10.84-242.35-42.17-262.36-33.3-18.21,9.66,7,21,16.84,25.73,23.26,11.23,179.83,64.61,223.6,71.7ZM495.1,552.06,506.17,485c52.79,16.6,234.64,75.21,248.35,92.73,11.55,17.08-17,16.68-27.89,16.25C700.83,592.92,537.05,566.4,495.1,552.06Z"/><g class="cls-16"><path class="cls-6" d="M773.5,600.77S574.44,552.52,496,530.88l-1.07,42.6s199.89,37.4,278.56,27.29ZM-17.5,399s206.28,57.69,282.73,73.67l-18.32,45.91S7.48,450-17.5,399Z"/></g><path d="M251.6,491.18,273.53,427a2.38,2.38,0,0,0-1.49-3,2.13,2.13,0,0,0-.42-.1c-35.6-6.65-118.56-21-182.16-29C48.94,389.73,16.13,387.17,8,390.8l-.16.07h0c-8,4.26-9.1,9.05-6.59,13.77,3.5,6.6,15.31,12.27,22.22,15.59h0l1.3.63c13.32,6.43,70,26.56,124.33,44C190.14,478,230,489.68,249,492.76a2.38,2.38,0,0,0,2.63-1.58Zm16.53-63.07-20.38,59.62C228.34,484.25,190,473,150.5,460.32,96.32,443,40,422.93,26.79,416.57l-1.3-.62h0c-6.38-3.07-17.29-8.31-20.07-13.55-1.18-2.22-.3-4.69,4.54-7.28,7.45-3.18,39.3-.56,78.92,4.47,61.9,7.86,142.36,21.69,179.26,28.52ZM497.78,550.44l10.3-62.37c34.46,10.87,114.71,36.71,174.23,58.93,36.54,13.64,65.18,25.82,70.26,32.07,4.31,6.4,1.09,9.54-4.23,11-6.73,1.89-16.32,1.68-21.62,1.47C712.08,591,652.6,582.12,596.4,572c-40.81-7.38-79.86-15.45-98.62-21.51Zm6-65.85-11.05,67a2.37,2.37,0,0,0,1.57,2.74c18.11,6.19,58.73,14.62,101.22,22.31,56.39,10.21,116.17,19.1,131,19.7,5.58.22,15.71.43,23.1-1.64,8.78-2.47,14.07-7.67,6.87-18.32h0a1.13,1.13,0,0,0-.1-.13c-5.48-7-35-19.71-72.42-33.69C622.65,519.65,539.74,493,506.88,482.7h0l-.32-.08A2.39,2.39,0,0,0,503.82,484.59Z"/><path class="cls-4" d="M234.32,495.27c.82-33.09,20.78-65,42.43-90.45,32.87-38.68,71.9-40.26,128.09-25.51,58.76,15.42,98.16,33.58,109.32,83,8.42,37.25,6.07,79.11-4.23,101.82-25.86,57-86.12,63.17-158.9,46S232.82,556.21,234.32,495.27Z"/><g class="cls-17"><path class="cls-6" d="M525.11,564.35S495.33,604.7,356,571.07s-135.47-91.28-135.47-91.28l-28.82,84.56s25.94,73,74,77.82,172,1.92,197-10.57S518.38,593.17,525.11,564.35Z"/></g><path d="M236.7,495.32c.4-16.14,5.49-32,13.15-47.05s18-29.31,28.72-41.92c16-18.87,33.54-28.68,53.85-32,20.52-3.33,44-.07,71.81,7.22h0c29.15,7.65,53.47,16,71.79,28.41,18.09,12.31,30.39,28.75,35.82,52.79a213.62,213.62,0,0,1,4.89,54.9c-.75,18-3.86,34.16-9,45.42-12.59,27.75-33.55,43.12-60.24,49.48-27,6.43-59.9,3.69-96-4.8-37.2-8.76-67.13-22.66-87.09-42.32C246,547.28,236,524.06,236.7,495.32Zm8.9-49.21c-7.95,15.57-13.24,32.15-13.66,49.1-.73,30.15,9.74,54.54,29.19,73.68,20.62,20.3,51.31,34.61,89.35,43.56,36.73,8.65,70.36,11.41,98.14,4.8,28.12-6.69,50.21-22.9,63.48-52.16,5.36-11.8,8.61-28.59,9.38-47.19a218.46,218.46,0,0,0-5-56.14c-5.73-25.35-18.71-42.69-37.8-55.67-18.87-12.83-43.63-21.31-73.24-29.09h0c-28.39-7.45-52.5-10.77-73.75-7.32-21.47,3.48-39.91,13.79-56.75,33.6C264,416.14,253.49,430.64,245.6,446.11Z"/><path d="M506.3,446.65a2.38,2.38,0,1,0-1.88-4.38L429,474.67a2.38,2.38,0,0,0,1.88,4.38l75.4-32.4Zm-181.19,8.18a2.38,2.38,0,0,0,4.22-2.2L296.2,389.26a2.38,2.38,0,0,0-4.22,2.2Z"/><path class="cls-6" d="M393.16,438.63c-55.76-13.94-110.51,11.8-121.88,57.3s24.82,94,80.57,107.91,110.5-11.8,121.88-57.3S448.9,452.57,393.16,438.63Z"/><path class="cls-18" d="M391.37,445.78C340.44,433.05,290.43,456.56,280,498.12s22.67,85.84,73.59,98.57S454.57,585.91,465,544.35,442.29,458.51,391.37,445.78Z"/><path class="cls-15" d="M373.75,504.19a34.63,34.63,0,1,0,25.2,42A34.63,34.63,0,0,0,373.75,504.19Z"/><path class="cls-10" d="M365.71,509.5a7.67,7.67,0,1,0,8.19,7.12,7.67,7.67,0,0,0-8.19-7.12ZM349.8,528.18a11,11,0,1,0,11.69,10.18A11,11,0,0,0,349.8,528.18Z"/><path d="M645.39,530.13a2.38,2.38,0,1,0-4.49,1.55c0,.07,7.68,21.51-5.48,47.08a2.38,2.38,0,0,0,4.23,2.18c14.1-27.39,5.77-50.74,5.74-50.81Zm-72.08-22.7a2.37,2.37,0,1,0-4.73.43c0,.09,3.12,32-15.58,56.92a2.38,2.38,0,1,0,3.8,2.85C576.61,541.22,573.32,507.53,573.31,507.43Z"/><path d="M126.37,404.47a2.38,2.38,0,0,0-3.28-3.45c-.06.05-18.13,17-18.06,47.83a2.38,2.38,0,1,0,4.75,0c-.06-28.75,16.54-44.34,16.59-44.38Zm75.24,11.77a2.38,2.38,0,0,0-4-2.54c-.05.09-18.35,28.57-12.77,61.11a2.38,2.38,0,0,0,4.7-.8C184.24,443.28,201.56,416.32,201.61,416.24Z"/></g></g></svg>