<svg xmlns="http://www.w3.org/2000/svg" xmlns:xlink="http://www.w3.org/1999/xlink" viewBox="0 0 448.48 530.24"><defs><style>.cls-1,.cls-2{fill:#353521;}.cls-1{clip-rule:evenodd;}.cls-10,.cls-2,.cls-3,.cls-5,.cls-7,.cls-8,.cls-9{fill-rule:evenodd;}.cls-3{fill:#fc0;}.cls-4{clip-path:url(#clip-path);}.cls-6{clip-path:url(#clip-path-2);}.cls-7{fill:#b8550e;}.cls-8{fill:#6e6e43;}.cls-9{fill:#31381f;}.cls-10{fill:#fff;}</style><clipPath id="clip-path"><path class="cls-1" d="M257.62,200.86s101,8,155.88,42.36c25.79,16.15,44,63.15,25.79,69C403,324,319.89,334,273.17,338.7,272.49,328.17,256.29,199.45,257.62,200.86Z"/></clipPath><clipPath id="clip-path-2"><path class="cls-1" d="M121,239.62S38.27,298.18,8.73,355.77c-13.89,27.08-5.5,76.78,13.17,72.53,37.17-8.46,113.7-42.43,156.25-62.29C173.35,356.61,121.41,237.72,121,239.62Z"/></clipPath></defs><g id="Слой_2" data-name="Слой 2"><g id="Layer_1" data-name="Layer 1"><path class="cls-2" d="M212,528.35c4,2.37,37.48-17.92,67.89-37.19l-13.72-59.87L207.52,490c-11,11-2.16,34.45,4.52,38.38Zm147-40.27c-2.17,4.11-41.31,4.43-77.3,4L262,433.91,342.74,453C357.93,456.64,362.67,481.23,359.05,488.08Z"/><path d="M213,526.78c1.33.78,10.08-3.63,22.21-10.5,12.38-7,27.86-16.59,42.68-26L275.05,478l-13.44-39.55-52.8,52.79a14.44,14.44,0,0,0-2.2,2.86c-2.91,4.94-3,11.49-1.64,17.49s4.07,11.49,6.71,14.13a6.39,6.39,0,0,0,1.29,1Zm24-7.32c-13.22,7.49-23.21,12-25.88,10.47a10.47,10.47,0,0,1-2-1.61c-3.08-3.08-6.21-9.19-7.69-15.91s-1.39-14.31,2.06-20.15a17.75,17.75,0,0,1,2.78-3.59l54.06-54.05,0-.12a1.83,1.83,0,0,1,1.14-2.32,1.91,1.91,0,0,1,1,0l.28.06,2.21-2.21h0a1.82,1.82,0,0,1,3.07.88l.62,2.73,74.55,17.66a17.93,17.93,0,0,1,4.24,1.59c6,3.16,10.05,9.49,12.34,16.06s2.81,13.36,1.8,17.59a10.17,10.17,0,0,1-.87,2.43c-1.44,2.74-12.33,4.11-27.52,4.66-14.59.55-33.41.51-51.43.29a1.78,1.78,0,0,1-1.47-.78c-15.06,9.54-30.79,19.27-43.26,26.35Zm30.07-76.3-2.28-6.71.78.18,1.5,6.53Zm2.46-5.59,72.8,17.25a14.17,14.17,0,0,1,3.38,1.27c5.08,2.68,8.57,8.23,10.59,14s2.56,11.91,1.7,15.55a7,7,0,0,1-.55,1.56c-.73,1.37-10.5,2.21-24.43,2.72-14.17.53-32.37.51-49.95.3L278.55,477Z"/><path class="cls-3" d="M25.39,346.67S16,305.94,21.31,293.91,47,326.71,47,326.71l-21.56,20Zm41.09-44.44S57,261.5,62.4,249.48s25.65,32.79,25.65,32.79l-21.57,20Zm328.15-50.62s-9.52-40.72-19.64-49.14-8.52,40.75-8.52,40.75l28.16,8.39Zm-56.49-21.72s-9.52-40.72-19.64-49.14S310,221.5,310,221.5Z"/><path d="M23.59,347c-.44-1.92-9.43-41.53-3.95-53.83,7-15.78,28.92,32.64,29,32.78a1.82,1.82,0,0,1-.42,2.1h0L26.63,348a1.82,1.82,0,0,1-3-1ZM23,294.66c-4.25,9.54,1.46,38.87,3.51,48.5l18.25-16.89c-3.11-6.71-18.45-39-21.76-31.61Zm41.7,7.91c-.44-1.93-9.43-41.54-3.94-53.84,7-15.78,28.91,32.64,29,32.78a1.82,1.82,0,0,1-.42,2.1h0l-21.57,20a1.82,1.82,0,0,1-2.58-.1,1.8,1.8,0,0,1-.46-.91Zm-.61-52.35c-4.25,9.54,1.46,38.87,3.51,48.5l18.25-16.89c-3.11-6.71-18.45-39-21.76-31.61Zm328-1.28c-2.41-9.53-10.25-38.38-18.27-45.07-6.28-5.22-5.75,30.61-5.57,38l23.84,7.09Zm-15.94-47.87c10.33,8.6,19.76,48,20.23,50a1.9,1.9,0,0,1,0,1,1.83,1.83,0,0,1-2.28,1.23L365.94,245h0a1.82,1.82,0,0,1-1.31-1.69c0-.15-1.73-53.25,11.52-42.21Zm-40.55,26.15c-2.41-9.54-10.25-38.38-18.28-45.07-6.28-5.22-5.74,30.61-5.56,38l23.84,7.09Zm-15.94-47.87c10.33,8.6,19.75,48,20.23,50a1.81,1.81,0,0,1,0,1,1.83,1.83,0,0,1-2.27,1.23l-28.17-8.39h0a1.83,1.83,0,0,1-1.3-1.69C308.15,221.41,306.41,168.31,319.67,179.35Z"/><path class="cls-2" d="M257.62,200.86s101,8,155.88,42.36c25.79,16.15,44,63.15,25.79,69C403,324,319.89,334,273.17,338.7,272.49,328.17,256.29,199.45,257.62,200.86Z"/><g class="cls-4"><path class="cls-5" d="M343.07,190.15S376.43,246.29,375,334.68l22.69-6.16s12.75-77.57-26.3-144l-17.86,1.28Z"/></g><path d="M258.28,199.08c7.66.65,103.12,9.35,156.19,42.59,14.28,8.94,26.27,27,31.36,42.75a50.67,50.67,0,0,1,2.64,13.81c.12,4.34-.64,8.11-2.42,11a11.17,11.17,0,0,1-6.2,4.82c-15.13,4.91-38.34,9.5-63.67,13.53-35.66,5.67-75.49,10.23-102.83,13a1.83,1.83,0,0,1-2-1.64c0-.05,0-.1,0-.15-.31-4.47-3.22-28.82-6.44-55.81-4.57-38.28-9.77-81.8-8.58-83.37h0a1.58,1.58,0,0,1,2-.46Zm154.25,45.68c-50.75-31.78-141.25-40.85-153.62-42,.59,5.37,5.44,44.7,9.62,79.68,2.93,24.48,5.59,46.79,6.3,54.22,27.26-2.77,66.06-7.25,100.78-12.77,25.14-4,48.16-8.55,63.11-13.39a7.66,7.66,0,0,0,4.24-3.3c1.38-2.21,2-5.28,1.86-8.91a47.07,47.07,0,0,0-2.47-12.78C437.49,270.52,426.07,253.25,412.53,244.76Z"/><path class="cls-2" d="M121,239.62S38.27,298.18,8.73,355.77c-13.89,27.08-5.5,76.78,13.17,72.53,37.17-8.46,113.7-42.43,156.25-62.29C173.35,356.61,121.41,237.72,121,239.62Z"/><g class="cls-6"><path class="cls-5" d="M42.08,274.14s.07,65.3,46.52,140.52L66,421S15.31,360.84,14.87,283.82l16-8.05Z"/></g><path d="M120.86,242c-10.1,7.31-83.18,61.39-110.51,114.65-7.29,14.23-8.26,34.9-4.76,50.3A47.24,47.24,0,0,0,10,419.14c1.78,3.18,3.85,5.53,6.17,6.72a7.69,7.69,0,0,0,5.32.66c15.32-3.49,37.43-11.36,61.08-20.78,32.65-13,68.28-29,93.12-40.6-3.18-6.72-12.31-27.25-22.32-49.79-14.31-32.2-30.28-68.48-32.52-73.4ZM7.11,354.93c28.57-55.69,106.11-112,112.39-116.5a1.59,1.59,0,0,1,1.81-.64l.1,0c1.68.39,19.58,40.66,35.31,76.05,11.1,25,21.1,47.49,23.06,51.32h0l0,.06a1.82,1.82,0,0,1-.89,2.42c-24.89,11.63-61.44,28.09-95,41.46-23.81,9.49-46.1,17.43-61.62,20.95a11.15,11.15,0,0,1-7.8-1c-3-1.53-5.57-4.38-7.68-8.18A50.64,50.64,0,0,1,2,407.71c-3.67-16.1-2.62-37.79,5.07-52.78Zm114.2-117.14h0Z"/><path class="cls-7" d="M345.76,287.66c-3.45,16.41-1.6,15.82-13.72,4.25-16.67,1.78-15.55,3.37-8.28-11.73-6.85-15.31-8-13.75,8.6-11.51C344.79,257.43,343,256.8,346,273.3c14.55,8.35,14.57,6.41-.19,14.36ZM89.67,359.3c11.36,12.33,9.47,12.77,14-3.37,15.23-7,15.08-5.06,1.12-14.32-2-16.66-.16-15.91-13.28-5.49-16.44-3.29-15.19-4.77-9.32,10.93C73.93,361.67,72.92,360,89.67,359.3Z"/><path class="cls-8" d="M280.82,483.3C316,467,292.12,250.45,258.1,149.49c-25.21-74.79-64.77-74.12-114-55.65C74.86,119.83,68.63,155,89.9,223.25,121.14,323.47,246.89,497,280.82,483.3Z"/><path d="M280.06,481.63c15.54-7.21,18.84-57.25,14.65-118.84-4.88-71.73-20.17-158.79-38.34-212.72-12.4-36.78-28.2-55-46.88-61.66s-40.5-2-64.74,7.13h0c-34.09,12.8-52.63,27.75-60,47.79S81.13,189,91.65,222.71c2.36,7.56,5.24,15.51,8.57,23.74,20.34,50.21,57.54,111.68,93.69,159.35,35.8,47.19,70.26,80.8,85.6,76,.21-.06.39-.13.55-.19Zm18.29-119.09c4.29,62.92.4,114.3-16.67,122.37l-.06,0,0,0h0l-.07,0c-.33.14-.63.24-.91.33-17,5.3-52.92-28.95-89.6-77.31-36.32-47.9-73.71-109.69-94.16-160.18-3.39-8.38-6.32-16.43-8.69-24-10.75-34.49-14.53-60.69-6.8-81.72s27-36.75,62.11-50h0c25-9.37,47.57-14.21,67.26-7.16S247,110.9,259.83,148.9C278.1,203.11,293.46,290.54,298.35,362.54Z"/><path d="M149.48,256a1.83,1.83,0,0,1-3.57.81c0-.21-16.42-70.48,25.62-79.36,41.6-8.8,69.57,47.69,69.65,47.86a1.83,1.83,0,1,1-3.27,1.65c-.07-.15-26.82-54.14-65.63-45.94-38.37,8.11-22.85,74.79-22.8,75Zm26.9,67.2a1.83,1.83,0,1,1,3.07-2c.09.15,32.58,50.6,60.56,42.27l.05,0c27.59-8.31,14.47-68.07,14.43-68.24a1.83,1.83,0,0,1,3.58-.77c0,.18,13.87,63.07-16.85,72.48l-.17.05C210.42,376.07,176.48,323.33,176.38,323.18Z"/><path class="cls-5" d="M126.76,66.6,122.09,1.82l29.25,54.33S157.24,73.93,126.76,66.6Z"/><path d="M124.93,66.55,120.27,2a1.82,1.82,0,0,1,3.42-1h0l29.24,54.32a2.22,2.22,0,0,1,.14.32h0c0,.06,6.91,20.88-26.75,12.79a1.85,1.85,0,0,1-1.4-1.84Zm-.41-56.36,4,54.93c24.36,5.47,21.57-6.81,21.15-8.28Z"/><path class="cls-9" d="M241.69,113.83C216.1,66.7,168.92,43.43,129.33,58.28,79.49,77,72.49,133.73,79.28,173.16,156.79,182.08,214,140.27,241.69,113.83Z"/><path d="M239.41,113.48C226.84,90.88,209.23,74,190,64.46c-19.51-9.64-40.7-11.71-60-4.47h0c-21.2,8-34.47,23-42.13,40.58-9.81,22.49-10.52,49.21-7,70.92a181.56,181.56,0,0,0,82.51-10.2c33.86-12.36,59.79-32.48,76-47.81ZM191.6,61.18c20.26,10,38.73,27.88,51.7,51.78h0a1.83,1.83,0,0,1-.34,2.2c-16.45,15.68-43.18,36.73-78.32,49.56A185.22,185.22,0,0,1,79.07,175h0a1.82,1.82,0,0,1-1.59-1.5c-3.88-22.54-3.3-50.68,7-74.37,8-18.44,21.94-34.18,44.19-42.53h0C149,49,171.21,51.1,191.6,61.18Z"/><path class="cls-8" d="M262.26,430.63c16.76-4.22,51.08,73.54,25.45,81.75C266.63,525.61,242.31,437.56,262.26,430.63Z"/><path d="M262,428.83c7.51-1.73,17.5,9.67,25.12,24.75a126.34,126.34,0,0,1,7.7,18.95,84.59,84.59,0,0,1,3.83,18.86c.79,11.05-1.9,19.88-10.11,22.65-5.22,3.16-10.48,1.31-15.3-3.71-4.22-4.37-8.11-11.25-11.34-19.2a129.82,129.82,0,0,1-7.26-25.36c-3.12-17.59-1.81-33.78,7.07-36.87l.29-.07Zm21.85,26.4c-6.91-13.66-15.38-24.15-21-22.85-6.77,2.45-7.42,16.88-4.6,32.75a125.53,125.53,0,0,0,7.05,24.63c3.06,7.54,6.71,14,10.58,18,3.62,3.77,7.39,5.24,10.91,3h0a2,2,0,0,1,.42-.19c6.42-2.06,8.48-9.52,7.81-19a81.24,81.24,0,0,0-3.67-18A123,123,0,0,0,283.8,455.23Z"/><path class="cls-10" d="M150.54,285.48c-10.06-31.85-4.22-74.19,31.85-85.6s64.18,20.66,74.13,52.08,5.61,72.47-30.68,84a49.86,49.86,0,0,1-14.45,2.33C180.6,338.59,159.14,312.64,150.54,285.48Z"/><path class="cls-5" d="M146.18,254.57a78.92,78.92,0,0,1,2.22-16.75c41.92,6.08,69-10.17,84.32-24.94a80.82,80.82,0,0,1,10.9,12.77c-18.25,17.36-49.69,35.93-97.44,28.92ZM261,276.46a77.21,77.21,0,0,1-2.7,25.68c-17.74,14.09-44.55,26.69-82.15,23.16a76.84,76.84,0,0,1-16.63-19.78C214.31,318,246.17,293.51,261,276.46Z"/></g></g></svg>