<svg xmlns="http://www.w3.org/2000/svg" viewBox="0 0 571.89 480.63"><defs><style>.cls-1,.cls-10,.cls-11,.cls-2,.cls-3,.cls-4,.cls-5,.cls-6,.cls-7,.cls-8,.cls-9{fill-rule:evenodd;}.cls-2{fill:#747870;}.cls-3{fill:#8c8f89;}.cls-4{fill:#fff;}.cls-5{fill:#454a40;}.cls-6{fill:#5c6157;}.cls-7{fill:#b8550e;}.cls-8{fill:#b69f76;}.cls-9{fill:#e0cba8;}.cls-10{fill:#c2272d;}.cls-11{fill:#e5e5e5;}</style></defs><g id="Слой_2" data-name="Слой 2"><g id="Layer_1" data-name="Layer 1"><path class="cls-1" d="M556.68,328.14c7.56-27.75,20.6-106.86-1.1-116.74s-16.82,92.11,1.1,116.74Zm-1.94,27.93c3.44,14.45,26.67,131.16-9.36,115.73C527.09,464,544,396.3,554.74,356.07Z"/><path class="cls-2" d="M516.09,320l.85,51.93c22.75,1.8,50.35,5.41,54.58-23.09C576.2,317.36,535.24,313.07,516.09,320Z"/><path class="cls-2" d="M142.26,279.59c-6-16-19-49.79-28.31-64.15-8.61-13.22-15.66-17.69-28.14-18.31-14.17-.7-53.27-2.3-67.28-1-15.3,1.38-15.14,8-13.66,19.44,3.69,28.48,14,63.26,18.23,91.25C25.31,321.26,30,345,35.8,362.5s2.63,24.82,29.75,39.89,116.49,35,143.83,40,114.8,15.07,143.26,13.68,76.89-2.22,87.92-9.88L429.74,248l-45.07,2.65s.05-42.78-14.64-66.3-54.44-34.42-88.84-23.47S228.54,184,203.55,206c-18.35,16.15-33.76,45.95-42.81,67.66C153.54,276.21,147.13,277,142.26,279.59Z"/><path class="cls-3" d="M39.44,375.18c2.77,9.53,6.56,16.35,26.11,27.21,27.11,15.08,116.49,35,143.83,40s114.8,15.07,143.26,13.68,76.89-2.22,87.92-9.88l-4.29-78.6C246.49,356.79,97.52,369,39.44,375.18Z"/><path class="cls-4" d="M185.31,277.71c7.39,8.91,81,14.19,113.33,12.08s64.47-10.07,66.05-27.78-13-58.47-32.18-68.6-46.48-8.06-68,.66c-16.75,6.79-30.64,13.54-44.08,23.71C214.71,222.11,174.77,265,185.31,277.71Z"/><path class="cls-5" d="M209.55,285.07c26.38,4.19,67.22,6.15,89.09,4.72,18.41-1.21,36.78-4.32,49.47-10.05-6.49-18.06-27.59-37.18-38.39-47.31l-65.38,2S217.11,258.29,209.55,285.07Z"/><path class="cls-6" d="M247.18,289c19.18,1.27,38.6,1.6,51.46.76,3.08-.21,6.17-.46,9.23-.77-7.52-16.27-22.92-25.45-37.81-23.39S250.62,274.15,247.18,289Z"/><path class="cls-3" d="M40.29,306.56c-24.72,3.62-42,19.08-40.16,34.64s38.41,19.22,64,17.43,59.51-13.59,60.45-28.24S102.53,298.4,40.29,306.56Z"/><path class="cls-6" d="M.38,335.1a19.83,19.83,0,0,0-.25,6.1c1.8,15.56,38.41,19.22,64,17.43s59.51-13.59,60.45-28.24a13.23,13.23,0,0,0-.21-3.31c-12.12,5-39.92,15.24-68.67,16.38A143.75,143.75,0,0,1,.38,335.1Z"/><path class="cls-2" d="M125.49,430.18c-4.61,14.24-5.92,37.39,35.71,42.75s111.78,9.19,133.05,7.14,52-3.16,50.77-23.82-13.44-57.91-50.87-70.95c-33.24-11.58-62-15.55-108.55-1.86C162.43,390.24,133.48,405.52,125.49,430.18Z"/><path class="cls-6" d="M123.34,440.79c-.89,13.11,5.55,28,37.86,32.14,41.63,5.37,111.78,9.19,133.05,7.14s52-3.16,50.77-23.82a86.91,86.91,0,0,0-4.41-21.81c-2.81,6.24-6.41,12.6-10.22,15.31-8.61,6.09-18.08,10.95-49.43,11s-66,.61-117.63-7.13C144.58,450.81,131.89,445.9,123.34,440.79Z"/><path class="cls-6" d="M426.15,242.4c-3.76,5.21-6.38,21-8.07,39.64-4.23,46.73-2.54,119.59,8.8,159.76,3.05,10.82,12.14,16.1,26.65,18.39,20,3.16,33.65,1.83,50.28-10,27.36-19.41,34-76.12,31.55-107.09-3.74-46.86-2.55-118.12-67.18-115C449.8,229.06,438.63,230.46,426.15,242.4Z"/><path class="cls-4" d="M495.64,448.11c13.89-10.11,25.28-30.93,29.9-55.91s6.94-36.66,1-35.45S510.14,391.42,505,399.27s-13.71,25.55-37.82,29.51c-19.59,3.22-21,18.73-14.85,24.79C460.37,461.52,485,454.66,495.64,448.11Z"/><path class="cls-4" d="M56.3,220.46c-11,5-21.67,17.65-20.19,33.5,2.09,22.21,26.8,28.51,43.2,24.94s21.57-20.17,22.33-29.92C103.28,227.9,72.17,213.19,56.3,220.46Z"/><path class="cls-1" d="M58.18,224.91c-9.37,4.29-18.39,15-17.13,28.42,1.77,18.83,22.74,24.18,36.64,21.15s18.31-17.1,19-25.37C98,231.23,71.64,218.74,58.18,224.91Z"/><path class="cls-7" d="M48.38,247.13c4.59,4.1,17.24,4.22,21.43,5.42l3.88,6.54s-13.89-1-18.37-3.56a14.08,14.08,0,0,1-6.94-8.4Zm-4.93-14.41C46.47,250,64,244.85,70,248.94c5.25,3.58,8.41,13.87,14.51,18.15,2.44,1.72,6.63,1.9,11.45-.13-5.49-7.37-11.84-22.7-17.77-27.41-10.27-8.16-29.43-4.41-34.69-6.83Zm17.2,27.92,14.75,1.24,6.09,6.94S63.69,269.29,60.65,260.64Z"/><path class="cls-2" d="M421.09,134.67s26.53,9.21,25.42,40.08-26.87,36.59-26.87,36.59l1.45-76.67Zm-261.67-7.06s-26.53,9.21-25.42,40.08,26.87,36.59,26.87,36.59Z"/><path class="cls-8" d="M434.19,118.33c11.84,42.46-1.86,105.4-28.07,120.6-30.2,20.23-78.8,26-112.82,24.47-43.5-2-115.83-11.91-134.91-59.89-10.89-27.4-5.78-58.79,2.84-86.59,18.55-59.81,73.85-96.85,135.82-96.12C363.13,21.58,416,53.17,434.19,118.33Z"/><path class="cls-9" d="M303.72,164.66c-45.74.51-85.14,24.44-82.14,56.87,2.46,26.53,39.88,37.55,73.33,39.47,37.84,2.16,78.34-8.82,82.23-34.32C383.79,183.13,339.46,164.27,303.72,164.66Z"/><path class="cls-4" d="M303.42,209.19s-8.82,11.13-21.21,7.56c0,0-1.68,27.3,15.75,28.14s21.42-24.57,21.42-24.57S309.09,220.74,303.42,209.19Z"/><path class="cls-6" d="M418.21,219.34c8-26.07,7.13-45-1-85.66-75.58,20.21-169.58,11-238.14-.25,0,0-9.29,21.23-6.52,73.23,1.06,20,5.64,33.75-11.68,9.07-9.52-13.56-15.64-40.5-12.93-76C152.68,76.82,171.38-2,303.59,0,380.16,1.22,424.77,43.53,437,110.59c5.83,32.09,6.15,68.35-7,101.78C423.57,228.75,411,242.92,418.21,219.34Z"/><path class="cls-3" d="M241,141.72C244.13,116.3,252,62,250.25,4.5c15.34-3.17,33-4.77,53.34-4.46a182.85,182.85,0,0,1,48,6.88c10,35.31,10.59,78.85,9.56,136.51C322.4,147.14,279.66,145.63,241,141.72Z"/><path d="M243.05,210.28c2.48,1.36,3.45-.84,1-2.2-16-8.82-40.47-5.63-43.8-3.52,26.84-3.89,42.78,5.7,42.82,5.72ZM196,214.58c4.77-2.15,27.13-7.75,48.71-1.63,2.84.86,1.38,2.86-1.47,2-22.3-6.78-47.17-.38-47.24-.36Zm45.78,5.36c3,.64,2.86-1.68-.08-2.32-19.08-4.2-40.61,5-42.77,7.88C222.35,215,241.71,219.93,241.76,219.94Z"/><path d="M358.88,214.17c-2.47,1.36-3.45-.85-1-2.2,16-8.82,40.47-5.63,43.8-3.52-26.84-3.89-42.78,5.69-42.82,5.72ZM406,218.46c-4.78-2.14-27.14-7.74-48.72-1.63-2.84.87-1.38,2.86,1.47,2,22.3-6.78,47.18-.38,47.25-.37Zm-45.79,5.37c-2.95.64-2.86-1.68.09-2.32,19.07-4.21,40.6,5,42.77,7.88C379.58,218.88,360.22,223.81,360.17,223.83Z"/><path class="cls-10" d="M284.55,233.33s19.36-11.23,30.48,1.39c0,0-6.81,9.81-16.49,10.16S284.65,234.59,284.55,233.33Z"/><path d="M303.25,211.62a17.14,17.14,0,0,0,4.43,6,17.48,17.48,0,0,0,9.62,4.18l.68.06c-1.27,5-6.41,21.28-19.37,21.27-12.56,0-14.52-18.25-14.82-24.21a17.66,17.66,0,0,0,12.09-1.27,20.84,20.84,0,0,0,7.37-6ZM310,215a13.85,13.85,0,0,1-4.34-7.09c4.15-7.9,5.25-19.77-.06-35.18a1.76,1.76,0,0,0-3.32,1.15c5.63,16.33,3.65,28.17-1.41,35.09-3.23,4.42-8.38,7.43-14,6.95-11.74.16-20.21-16.87-16.24-8.27a20.64,20.64,0,0,0,9.58,9.95c.08,4,1.27,29.07,18.38,29.09,16.51,0,22.11-20.94,23-24.92,10.29-1.39,13.62-19.25,11.22-14.67-3.61,6.86-6.14,12.2-15.17,11.23A14,14,0,0,1,310,215Z"/><path class="cls-1" d="M333.33,168.68c-1.54-13-53.46-14.41-54,0-.47,13.35,17.89,23.27,27.84,24C315.92,193.34,334.47,178.36,333.33,168.68Z"/><path class="cls-1" d="M177.88,97.86l-2.75,36.34s-20.84,2.47-26.35,8c-4.13,4.13-13.14-20.09,2.17-34.7,5.1-4.87,18-7.68,26.93-9.61Zm257.76,35.68-4-32.78s10.12,2.83,12.95,10.12S448.6,131.92,435.64,133.54Z"/><path class="cls-5" d="M199.67,58.52c18.52-9.16,51-12,108.18-12.46,69.32-.53,91.72,8,106.12,16.53s32,49.06,26.66,69.32S411.3,159.65,385.17,157s-64.52-26.85-74.66-26.32-53.85,24.19-89,25.25-49.06-9.06-52.26-28.79C165.74,105.78,177,69.72,199.67,58.52Z"/><path class="cls-4" d="M213,67.15c16-7.89,48.23-9.45,95.38-9.67,59.88-.28,91.6,5.46,102.63,14.2s24.82,38.61,20.22,56.08-28.35,19.63-50.87,17.33-60.95-29.47-69.68-29-49.1,25-79.43,26-40.16-1.42-42.92-18.42C185.31,105.22,193.43,76.81,213,67.15Z"/><path class="cls-11" d="M274.52,58q5.93-.2,12.29-.31l-21.15,25c-2.16,2.56,8.73,2.73,11.85,6.47,2.26,2.72-25.11,35-40.23,52.36-2.06.25-4.09.41-6.07.47l-4.31.11L265,94.72C266.7,92.6,252.43,91.6,250.7,89c-1.2-1.82,14.24-20,23.82-30.95Zm22-.45c-8.89,10.39-18.76,22.51-17.8,24,1.74,2.63,16,3.63,14.29,5.75l-41.22,51.33c12.66-3.44,25.48-8.88,36-13.55,14.45-16.59,35.06-41.08,33-43.53-3.12-3.74-14-3.91-11.85-6.47l14.81-17.53c-4.93-.07-10.07-.09-15.45-.07q-6.09,0-11.84.09Zm35.85.16c4.08.1,8,.25,11.73.42L337.46,66c-2.16,2.57,8.73,2.74,11.85,6.48,2,2.36-18.4,27-33.7,44.79a13.77,13.77,0,0,0-5-1.17,22.14,22.14,0,0,0-5.74,1.6L336.79,78c1.71-2.13-12.56-3.12-14.29-5.75C321.83,71.19,326.46,64.94,332.35,57.73Z"/><path class="cls-1" d="M380.56,162.26A8.55,8.55,0,1,1,372,170.8a8.54,8.54,0,0,1,8.54-8.54Zm-150.29,0a8.55,8.55,0,1,1-8.55,8.54A8.54,8.54,0,0,1,230.27,162.26Z"/><path d="M166.38,343.78c-.51,1.11-1,2.22-1.52,3.34s-1,2.23-1.48,3.33l-2.53.14c-.73,1.59-1.44,3.2-2.17,4.79s-1.45,3.19-2.19,4.79l-9.23.53c1.94-4.23,3.9-8.44,5.83-12.68s3.83-8.45,5.78-12.68l9.06-.48c-.67,1.51-1.39,3-2.06,4.53s-1.36,3-2,4.52l2.54-.13ZM181,334.24l-8.95.42c-1.92,4.22-3.84,8.42-5.71,12.65s-3.77,8.43-5.66,12.64l9.2-.46c1.82-4.2,3.72-8.41,5.57-12.62s3.69-8.42,5.55-12.63Zm40.87-1.42c-1.13,2.72-2.22,5.43-3.33,8.15s-2.21,5.43-3.33,8.14a14.32,14.32,0,0,1-2.38,3.89,15.27,15.27,0,0,1-3.56,3.08,18.13,18.13,0,0,1-9.38,2.83c-3.45.11-5.75-.63-6.87-2.23a4.73,4.73,0,0,1-.79-3,12.48,12.48,0,0,1,1.11-4.13c1.14-2.68,2.26-5.37,3.4-8.05s2.31-5.37,3.44-8l9-.29c-1.15,2.68-2.29,5.36-3.39,8s-2.23,5.35-3.36,8c-.64,1.53-.28,2.28,1,2.24s2.25-.83,2.89-2.36c1.12-2.67,2.2-5.36,3.31-8s2.26-5.35,3.35-8l8.9-.23Zm8.51,24.7q1.63-4.06,3.23-8.13c1.07-2.71,2.14-5.44,3.2-8.15a14,14,0,0,1,2.28-3.86,15.31,15.31,0,0,1,3.47-3,16.88,16.88,0,0,1,9.11-2.68c3.33,0,5.57.79,6.71,2.44a5.09,5.09,0,0,1,.88,3,12.53,12.53,0,0,1-.88,4.12c-1,2.67-2,5.33-3,8s-2,5.33-3,8l-9,.09c1-2.67,2.08-5.33,3.1-8s2-5.35,3.05-8c.59-1.53.23-2.29-1.07-2.27s-2.2.79-2.79,2.32c-1,2.66-2.07,5.34-3.08,8s-2.06,5.33-3.12,8l-9,.15Zm60.6-18.08c-1.05,3-2.08,5.95-3.13,8.91s-2.08,5.95-3.14,8.91l-8.92-.05c1-3,2.12-5.93,3.19-8.91s2.1-5.94,3.19-8.91c-2.27,0-4.51,0-6.77,0l1.29-3.59c.43-1.19.88-2.39,1.29-3.59q11.15.06,22.2.18c-.39,1.19-.81,2.39-1.23,3.59s-.81,2.39-1.24,3.58l-6.73-.09Zm38.45,3.31c-.58,1.86-1.18,3.72-1.78,5.58l-5.76-.16a4.18,4.18,0,0,0-1.76.25,1.49,1.49,0,0,0-.81,1c-.16.54-.12.89.14,1.05a4.7,4.7,0,0,0,2,.3l6,.16c-.36,1.2-.77,2.39-1.15,3.58s-.76,2.39-1.13,3.58l-7-.19c-3.28-.09-5.57-.83-6.87-2.17s-1.56-3.26-.74-5.74l1.62-4.9q.82-2.44,1.64-4.9a10.08,10.08,0,0,1,4.3-5.52,13,13,0,0,1,7.45-1.81l7.58.19c-.37,1.2-.74,2.4-1.13,3.6s-.76,2.39-1.13,3.59l-5.62-.15c-1.53,0-2.42.37-2.69,1.2-.15.49-.08.81.24,1a3.87,3.87,0,0,0,1.8.34l4.86.13Zm28.83-2c-.93,3.08-1.86,6.16-2.75,9.22s-1.83,6.15-2.75,9.22l-8.86-.39c1.27-4.19,2.54-8.39,3.81-12.57s2.57-8.38,3.84-12.58c3.7.14,7.42.27,11.17.43,3.42.13,5.84,1,7.3,2.53a6.19,6.19,0,0,1,1.34,6.35c-.73,2.57-2.65,4.66-5.78,6.3.33,1.78.71,3.57,1.05,5.35s.71,3.57,1.08,5.36l-9.34-.49c-.32-1.4-.61-2.8-.93-4.19s-.67-2.78-.94-4.17c.65-2.17,1.27-4.32,1.9-6.48l.71,0c1.83.08,2.94-.56,3.33-1.91s-.48-1.85-2.63-1.94Z"/></g></g></svg>