<svg xmlns="http://www.w3.org/2000/svg" xmlns:xlink="http://www.w3.org/1999/xlink" viewBox="0 0 652.62 562.31"><defs><style>.cls-1,.cls-5{fill:#6e6e43;}.cls-1,.cls-2{clip-rule:evenodd;}.cls-10,.cls-12,.cls-13,.cls-14,.cls-15,.cls-3,.cls-4,.cls-5,.cls-7,.cls-8,.cls-9{fill-rule:evenodd;}.cls-3{fill:url(#GradientFill_1);}.cls-6{clip-path:url(#clip-path);}.cls-7{fill:#91915a;}.cls-8{fill:#3f4212;}.cls-9{fill:#b8550e;}.cls-10{fill:#fc0;}.cls-11{clip-path:url(#clip-path-2);}.cls-12{fill:#fff;}.cls-13{fill:#947f59;}.cls-14{fill:url(#GradientFill_1-2);}.cls-15{fill:#ccac6d;}.cls-16{clip-path:url(#clip-path-3);}</style><radialGradient id="GradientFill_1" cx="128.62" cy="515.34" r="42.03" gradientUnits="userSpaceOnUse"><stop offset="0" stop-color="#fff"/><stop offset="0.53" stop-color="#d0e1e7"/><stop offset="1" stop-color="#b1d8e4"/></radialGradient><clipPath id="clip-path"><path class="cls-1" d="M522.56,509.72c12-46.87,7.63-98.35-7.35-151.74-121.88-1-262.92,13.13-381.06,33,.66,3.56,1.28,7.15,1.89,10.74-38.36,14-87.21,15.7-121.75,5.77-14.5,12.18,21.34,38.73,28.86,43.4.75-2.62.06-9.66,1-12.74,21.31-10.56,79.42-12.36,98.53-.91.11,1.95-3.39,6.75-4.58,8.68-3.39,4.46-7.35,10.17-14.06,19.15-1.47,1.59-2.92,3.23-4.38,4.85h0l0,.06-.82.9H119c-2.89,3.89-11.2,11.49-11.42,11.74C226.89,526.74,397.38,527,522.56,509.72Z"/></clipPath><clipPath id="clip-path-2"><path class="cls-1" d="M355.28,465.92C279.93,472,167.1,531.35,170.35,546.75c3,14.11,136.88,9.71,172.35,7.23,47.27-3.31,95.46-9,115.94-17.84,20.24-8.74,5.48-33.46-5.13-45C436.41,472.45,404.72,461.93,355.28,465.92Z"/></clipPath><radialGradient id="GradientFill_1-2" cx="447.78" cy="322.83" r="81.94" xlink:href="#GradientFill_1"/><clipPath id="clip-path-3"><path class="cls-2" d="M154.75,142.73c-10.39,10.65-32.29,28.81,43.27,39.16s204.2-8.47,230.35-18.9,12.47-21.48-4.14-38.58C424.23,124.41,264.73,94.69,154.75,142.73Z"/></clipPath></defs><g id="Слой_2" data-name="Слой 2"><g id="Layer_1" data-name="Layer 1"><path class="cls-3" d="M105.86,510.43c-2.74-2.58-8.43-1.35-9.22,2.94-12.77.2-15.91,17.18-5,22.11,2.09,8,15.71,10.92,22.46,4.35,3.86,3.42,10,1.91,10.86-3.4,6.64-1.55,5.79-10.68,1.77-12.79,2.88-10.64-9.45-20.42-20.88-13.21Zm54.35,21.88c1.88,1.85,5.88,1.09,6.5-1.91,8.93.07,11.4-11.76,3.84-15.38-1.33-5.66-10.81-7.89-15.64-3.4-2.65-2.46-6.95-1.49-7.65,2.21-4.67,1-4.22,7.36-1.43,8.91-2.2,7.4,6.27,14.43,14.38,9.57ZM44,544.84c3.34,2.62,9.6.65,10-4.25,14.31-1.53,16.08-20.91,3.32-25.31-3.16-8.82-18.74-10.64-25.65-2.58-4.68-3.44-11.39-1.11-11.83,4.94-7.3,2.42-5.4,12.57-.66,14.53C17,544.41,31.87,554.1,44,544.84Z"/><path class="cls-4" d="M519.49,526.76c4.25,7.45,20.33,10.22,37.19,9.33,19.1-1,37-2.86,42.09-13.74,11.46-16.44,20.38-43.43,24.22-70.9,17.58-1.25,28.31-15.43,27.49-28-1-15.41-12.2-23.35-26.63-24.35-1.94-23.15-14.08-57-41-61.22-13.9-2.18-68.36-3.27-69.75,16.21-17.59-1.76-42.24-.65-60.08,0L284.2,364.81c-50.9,5.54-100.16,12.08-150.78,23.6-9.28-34-24.6-68-45.53-93.82C57.06,256.5,3.09,249.18.21,307.05c-1.47,29.51,5.22,68.33,11.66,97.05-24.49,15,24.17,46.39,31.69,50.55.33,12.06,1.74,22.36,4.4,30.21,6.74,19.93,24.38,20.23,41.56,11.29,5.33-2.78,10.3-6.86,15.56-11.24,90.09,36.27,182.86,44,279.87,46.58,42.31,1.14,91.16-.11,134.54-4.73ZM630.58,399c-6.42-12.59-39.22-90.33-6.87-93.73,34.8-3.66,10.91,81.16,6.87,93.73Zm2.85,51.31c5.27,12.56,37.76,93.29,4.19,96.28C603.49,549.66,629.39,462,633.43,450.34Z"/><path class="cls-5" d="M522.56,509.72c12-46.87,7.63-98.35-7.35-151.74-121.88-1-262.92,13.13-381.06,33,.66,3.56,1.28,7.15,1.89,10.74-38.36,14-87.21,15.7-121.75,5.77-14.5,12.18,21.34,38.73,28.86,43.4.75-2.62.06-9.66,1-12.74,21.31-10.56,79.42-12.36,98.53-.91.11,1.95-3.39,6.75-4.58,8.68-3.39,4.46-7.35,10.17-14.06,19.15-1.47,1.59-2.92,3.23-4.38,4.85h0l0,.06-.82.9H119c-2.89,3.89-11.2,11.49-11.42,11.74C226.89,526.74,397.38,527,522.56,509.72Z"/><g class="cls-6"><path class="cls-7" d="M547.67,479.58s-34.77,10.93-212.07,15S55.71,469.54-1.21,405.8c0,0,39.14,102.67,248.78,125.14s288.37,4,288.37,4Z"/></g><path class="cls-5" d="M132.94,399.48c-5.86-30.17-19.87-57.16-35.39-83.57-18.12-30.84-78.86-74.34-92.8-14.84-2,8.43-2.45,16.67-2.09,26.38,12.54,2.22,23.48.1,35.91-.59l-13.09-51.2L68.17,409.09c23.11-1.28,42.68-3.93,64.77-9.61Zm4.73,39.82c-19.76-10.82-73.2-8.41-90.91,2.57.17,2.23,0,4.37.1,6.6,8.59-4.9,20.12-5.4,28.74-5.27l-11,52.59C88.43,503.19,125.1,463.4,137.67,439.3Z"/><path class="cls-8" d="M601.14,513.45c12.37-27.13,17.53-52.56,18.47-83.06.91-29.89-1-77.5-34.63-88.69-10-3.31-37-2.09-53.57,2.48-11.13,3.05-13.39,8-13.1,12.92,15.86,45.59,21.38,111.24,5.45,167,1.48,11.58,49.7,9.59,66.59,1.75C595.91,523.28,598.7,518.8,601.14,513.45Z"/><path class="cls-4" d="M582.71,524c6.86-1.64,7.18-5.56-1.29-6.44a132,132,0,0,0-35.88,1.82c-7.37,1.35-8.06,5.58-.22,6.88,14.16,1,23.46.74,37.39-2.26Zm8.68-41.54c5.26-1.19,9.41-6.52-.56-8.6a80.72,80.72,0,0,0-20-1.64,101.49,101.49,0,0,0-24.46,4.22c-9.92,3.67-7.5,6.4,1.73,8.55,11.34,2.06,27.58.9,43.25-2.53ZM573.88,345.19c6.73-1.74,6-2.22.3-3l-36.3,2c-7,1.85-4.83,2,.62,2.94,6-.24,11.92.32,17.76,0s11.63-1.54,17.62-2Zm25.75,77.44c-2.24-14.72-60.38-6.57-57.56,4.67C545,439,601.53,435,599.63,422.63Zm-18.08-42.24c9.23-2,13.12-7.83-.3-9.72-12.14-1.71-25-1.71-36.82,1.84-15.3,4.57-10.68,8.39,2.06,9.67a82.13,82.13,0,0,0,17.59.88A90,90,0,0,0,581.55,380.39Z"/><path class="cls-8" d="M645.28,425.87c-.71-16.06-9.19-19.58-21.18-22.23a329.13,329.13,0,0,1-.84,45.1C633.17,448.19,645.8,437.53,645.28,425.87Z"/><path class="cls-7" d="M60.57,408c-1.54-6-21.26-76.22-21.3-76.13-12.62.71-23.81.68-36.46-1.66,2.52,23.4,6,51.84,13,74.23,15.5,3.59,31.07,4.18,44.72,3.56Zm-.29,86.61,11.11-48.72c-8.88-.7-16.94.19-24.67,4.6-.25.48-.25.48-.47,2.35C47.28,471.44,51.53,489,60.28,494.64Z"/><path class="cls-5" d="M630.2,392.09c2.18-9.67,19.08-82.28-5-82.17-23.32.11,1.86,73.6,5,82.17Zm3.8,68.65c3.06,8.84,26.58,80.28,3.23,81.32C613.59,543.09,631.83,469.8,634,460.74Z"/><path class="cls-9" d="M45.68,301.71A28.78,28.78,0,1,0,76,328.86,28.84,28.84,0,0,0,45.68,301.71Z"/><polygon class="cls-10" points="45.74 308.62 41.27 323.9 25.39 325.2 38.55 334.18 34.87 349.68 47.48 339.93 61.08 348.23 55.71 333.23 67.8 322.85 51.87 323.32 45.74 308.62"/><path class="cls-4" d="M355.72,462.6a244.73,244.73,0,0,0-36.94,6.19c-13.09,3.15-26,7.09-38.73,11.53-14.79,5.18-29.37,11.09-43.63,17.62-12.58,5.76-25,12-37,19-4.91,2.86-9.77,5.86-14.48,9a125.66,125.66,0,0,0-11,8.29,43,43,0,0,0-7.12,7.41c-1.57,2.22-2.87,5-2.29,7.77,1,4.67,7.24,6.63,11.21,7.67a135.8,135.8,0,0,0,21.53,3.24c9.74.87,19.56,1.3,29.34,1.58,11.09.31,22.2.39,33.3.34q24.36-.1,48.71-1c11.61-.41,23.29-.89,34.88-1.7,23.16-1.62,46.5-3.71,69.48-7,9.56-1.38,19.15-3,28.57-5.11a119.9,119.9,0,0,0,21.07-6.39c5.17-2.25,9.36-5.88,11.23-11.36,4.52-13.21-6.82-30.83-15.34-40.19C448,478.07,434,471,419.23,467,399,461.33,376.56,460.92,355.72,462.6Z"/><path class="cls-5" d="M355.28,465.92C279.93,472,167.1,531.35,170.35,546.75c3,14.11,136.88,9.71,172.35,7.23,47.27-3.31,95.46-9,115.94-17.84,20.24-8.74,5.48-33.46-5.13-45C436.41,472.45,404.72,461.93,355.28,465.92Z"/><g class="cls-11"><path class="cls-7" d="M490.66,511.61S465.46,532,204.62,538s1.28,42,48.58,40.48S533.29,577.7,490.66,511.61Z"/></g><polygon class="cls-12" points="483.84 440.39 485.31 439.06 486.82 437.77 489.06 435.95 488.14 419.46 481.71 413.99 478.27 411.47 474.8 409.34 471.4 407.7 468.13 406.46 464.67 405.64 461.29 405.35 458.03 405.54 454.68 406.19 451.42 407.39 448.29 408.99 445.17 411 442.13 413.4 439.07 416.19 436.03 419.41 433.51 422.23 434.44 438.94 438.48 441.64 441.65 444.04 443.23 445.31 444.77 446.62 446.36 447.97 447.84 449.36 449.31 450.83 450.84 452.34 452.36 454 453.92 455.55 456.85 458.88 458.36 460.68 459.96 462.57 464.04 467.42 468.26 460.14 469.37 458.34 471.78 454.67 472.98 453.02 474.27 451.25 476.85 447.88 478.16 446.33 479.51 444.82 480.94 443.31 483.84 440.39"/><polygon class="cls-4" points="437.96 436.93 437.22 423.53 437.22 423.53 438.7 421.87 441.62 418.78 444.48 416.17 447.28 413.95 450.11 412.14 452.87 410.72 455.66 409.7 458.48 409.14 461.24 408.99 464.1 409.23 467.06 409.93 469.97 411.04 473.06 412.53 476.25 414.49 479.46 416.84 484.61 421.22 485.33 434.31 485.33 434.31 484.5 434.98 482.91 436.34 481.33 437.76 479.84 439.27 478.34 440.78 476.84 442.37 475.43 443.95 474.02 445.6 472.69 447.34 471.37 449.07 470.04 450.88 468.79 452.61 467.55 454.5 466.31 456.39 465.15 458.27 463.49 461.13 463.49 461.13 462.73 460.23 461.12 458.34 459.6 456.52 458.08 454.79 456.56 453.06 454.97 451.48 453.46 449.83 451.87 448.25 450.36 446.76 448.78 445.26 447.12 443.85 445.54 442.51 443.89 441.19 442.24 439.93 440.59 438.68 437.96 436.93"/><path class="cls-9" d="M462.84,456.58l1.66-3,2.2-3.15,2.43-3.23,2.67-3.17,2.75-3.11,2.77-2.89,2.78-2.62,2.56-2.32-.29-5.19L480,430l-2.42,2.1L475,434.32l-2.56,2.39-2.55,2.61-2.52,2.88-2.51,3.3-2.41,3.65-2.79-3.36-2.86-3L454,440.2l-2.89-2.3-2.73-2.1-2.79-1.89-2.63-1.82-2.71-1.82.29,5.19,2.88,2,3,2.29,3.15,2.57,3.08,2.78,3,2.86,2.77,2.94,2.46,2.89,2,2.77ZM462.2,445l-2-2.25-2.42-2.34L455,438l-3-2.32L449,433.41l-3.12-2.07-2.95-1.86-2.85-1.62-.24-4.26,2.69,1.47,2.61,1.47,2.77,1.51,2.71,1.7,2.87,1.86,2.8,2.09,2.83,2.44,2.75,2.73,2.45-3,2.53-2.74,2.56-2.38,2.57-2.17,2.57-2,2.59-1.82,2.44-1.74,2.43-1.75.24,4.25-2.59,1.93-2.8,2.17-2.79,2.4-2.79,2.58-2.7,2.63-2.46,2.67-2.23,2.6Z"/><polygon class="cls-10" points="460.35 412.19 458.53 419.11 451.39 419.49 457.41 423.35 455.56 430.26 461.1 425.73 467.1 429.62 464.5 422.96 470.05 418.45 462.92 418.86 460.35 412.19"/><path d="M200.33,430l24.37-.88.23,6.29-15.25.56.17,4.68,14.15-.51.21,6-14.14.52.21,5.8,15.7-.57.24,6.66-24.82.9L200.33,430Zm64.53,22.28-10.37.37-1.25,4.92-9.29.34,10-29.86,9.92-.36L276,456.75l-9.53.35-1.62-4.81Zm-2.14-6.3-3.64-10.47-2.85,10.71,6.49-.24Zm45.68-1.09-.23-6.13,14.06-.51.46,12.55a28.51,28.51,0,0,1-7,4,24.65,24.65,0,0,1-7.32,1.26,18,18,0,0,1-8.61-1.48,12.2,12.2,0,0,1-5.32-5.14,17.43,17.43,0,0,1-2.11-8A16.91,16.91,0,0,1,294,433a13,13,0,0,1,5.63-5.63,18.94,18.94,0,0,1,8-1.72,22.67,22.67,0,0,1,7.34.62,9.65,9.65,0,0,1,4.11,2.6,12,12,0,0,1,2.57,4.62l-8.71,1.89a4.74,4.74,0,0,0-1.94-2.48,5.61,5.61,0,0,0-3.33-.78,6,6,0,0,0-4.7,2.26q-1.7,2.15-1.53,6.64.17,4.78,2,6.77a6.31,6.31,0,0,0,5.09,1.87,9.62,9.62,0,0,0,2.88-.55,15.43,15.43,0,0,0,3.13-1.62l-.1-2.77-6.08.22ZM343,424.83l9.11-.34.81,22.2,14.19-.51.26,7.25-23.3.85L343,424.83Zm43.24-1.58,24.37-.88.23,6.29-15.26.56.18,4.68,14.15-.52.21,6-14.14.52.21,5.8,15.7-.57.24,6.66-24.82.9Z"/><path class="cls-4" d="M321.14,367.68C264.69,373,219.4,386.06,220,396.76s46.85,15,103.3,9.68S425,388.06,424.44,377.36,377.59,362.32,321.14,367.68Z"/><path d="M321,366.2c-28.31,2.68-53.84,7.3-72.24,12.59-19,5.46-30.61,11.91-30.27,18l0,.2c.51,5.42,10,9.29,25.45,11.33,14.77,1.95,35.24,2.42,58.48,1.13,6.84-.37,13.86-.9,21-1.58,28.31-2.68,53.84-7.3,72.24-12.59,19-5.46,30.6-11.91,30.26-18.05v-.21c-.51-5.41-10-9.28-25.45-11.32-14.78-1.95-35.25-2.42-58.49-1.13-6.84.37-13.85.9-21,1.58Zm-71.43,15.44c18.21-5.23,43.55-9.81,71.7-12.48,7.19-.68,14.17-1.21,20.84-1.58,23.05-1.27,43.34-.81,58,1.12,14,1.85,22.5,4.82,22.87,8.65v.09c.26,4.56-10.5,10-28.1,15-18.21,5.23-43.55,9.81-71.7,12.48-7.2.68-14.18,1.2-20.86,1.58-23.05,1.27-43.33.81-57.94-1.12-14-1.85-22.5-4.82-22.87-8.65a.41.41,0,0,0,0-.09C221.22,392.12,232,386.7,249.58,381.64Z"/><polygon class="cls-5" points="402.79 353.05 347.03 318.68 335.64 377.26 394.32 390.4 402.79 353.05"/><path d="M403.57,351.78l-55.76-34.37L346,316.28l-.41,2.11L334.18,377l-.28,1.42,1.41.32L394,391.86l1.44.32.33-1.45,8.47-37.35.23-1-.9-.56Zm-55.49-30.71,53,32.69-7.91,34.86-55.83-12.5Z"/><path class="cls-5" d="M296.2,300.63l46.75-.24S375.72,366.84,381.4,386c-34.77,12.73-86.82,14.69-150.18,12.95,0,0-3.38-37.84,3.71-69.62C238.64,312.66,272.37,304.31,296.2,300.63Z"/><path d="M296.33,302.12l45.7-.25c3.7,7.53,31.31,64,37.53,83.18-17,6-38.13,9.53-62.64,11.33-24.87,1.84-53.22,1.92-84.32,1.09-.51-6.92-2.49-39.74,3.78-67.85,1.45-6.51,8.08-11.75,17-15.91,12.5-5.85,29.36-9.49,43-11.59ZM343,298.9l-46.76.25H296C282.11,301.3,264.92,305,252.09,311c-9.68,4.53-16.93,10.41-18.62,18-7.13,32-3.75,70-3.74,70.07l.12,1.32,1.33,0c31.73.87,60.63.82,86-1s47.24-5.57,64.77-12l1.32-.48-.4-1.33c-5.72-19.25-38.45-85.62-38.54-85.82l-.41-.83Z"/><path d="M340,342.64c0,.1,13.39,34.19,15.17,50.37l2-.21c-1.81-16.45-15.25-50.77-15.29-50.87Z"/><path class="cls-4" d="M351.05,343.16a3.66,3.66,0,1,0,3.86,3.46,3.67,3.67,0,0,0-3.86-3.46Zm9.55,32.27a3.66,3.66,0,1,0,3.86,3.45A3.66,3.66,0,0,0,360.6,375.43Z"/><path class="cls-13" d="M345.41,306.31l-3.17,36.82-44-32.12S343.08,304.88,345.41,306.31Z"/><path class="cls-5" d="M309.29,310.53,269,300.78l33.13,40.28,14.54-11.85,25.49,16.55s-10.94-25.67-32.9-35.23Zm33.47-14.1,9.82,4.54,7.5,24.31-9.92-1.42-7.93,22.19S338.52,312.94,342.76,296.43Z"/><path d="M309.63,309.08l-40.25-9.75a1.49,1.49,0,0,0-1.43,2.48L301,342a1.49,1.49,0,0,0,2.09.2h0l13.7-11.16,24.09,15.64a1.48,1.48,0,0,0,2.74-.14l7.52-21.05,8.64,1.23a1.51,1.51,0,0,0,.73,0,1.48,1.48,0,0,0,1-1.86L354,300.53h0a1.52,1.52,0,0,0-.8-.91l-9.71-4.49a1.94,1.94,0,0,0-.36-.15,1.5,1.5,0,0,0-1.81,1.08c-3,11.7-2.1,31.43-1.27,42.33-4.89-8.45-14.92-22.59-30.17-29.23l-.25-.08ZM273,303.28l35.8,8.67c15.51,6.81,25.37,21.85,29.61,29.59L317.58,328a1.49,1.49,0,0,0-1.82.05L302.36,339,273,303.28Zm70.79-4.74,7.55,3.5L358,323.47l-7.6-1.08a1.48,1.48,0,0,0-1.61,1l-5.67,15.85C342.3,329.27,341.3,310.44,343.8,298.54Z"/><path d="M335.56,362.9c0,.05,4.76,17.67,4.39,20.75-.14,1.11-2,2.75-4.31,4.26-3,2-6.63,3.64-7.95,3.62h-1.28c-4.6,0-17.6-.1-19.84-1.66s-.36-23.43-.36-23.49l-2-.17c0,.06-2.06,23,1.2,25.28,2.74,1.92,16.2,2,21,2h1.26c1.67,0,5.77-1.77,9.08-3.95,2.7-1.78,5-3.9,5.17-5.67.42-3.45-4.43-21.46-4.44-21.51Z"/><path class="cls-8" d="M336.21,353.25a320.13,320.13,0,0,1-36.1,3.29l1.58,13.52c8.66-2.51,16.18,1.49,22.7.38,5.06-.86,9.59-5,14.59-6.5Z"/><path class="cls-10" d="M332.52,369.74l-6.8,4.76L314,372.29l1.06,5.28,11.74,1.83,6.43-4.73-.66-4.93Zm1.6,8.12.65,4.93-6.42,4.73-11.78-1.1L315.5,381l11.81,1.65Z"/><path class="cls-4" d="M322.39,360.94a3.66,3.66,0,1,0,3.86,3.45A3.66,3.66,0,0,0,322.39,360.94Z"/><path class="cls-14" d="M374.9,398.86c25.5-4.71,75.82-15.55,97.28-28,9.12-5.27,8.6-12.09-.8-24.66C452.88,321.46,418,307.38,382.56,305,382.56,305,365.34,352.55,374.9,398.86Z"/><path d="M375.17,400.32c15.11-2.79,38.93-7.73,60.37-13.89,14.83-4.26,28.52-9.11,37.39-14.24,5.08-2.94,7.47-6.38,7.28-10.94-.18-4.27-2.76-9.38-7.63-15.9-9.08-12.16-22-21.78-37-28.74a151,151,0,0,0-52.89-13.1l-1.11-.07-.38,1.06c-.05.14-17.37,47.95-7.72,94.66l.29,1.43,1.43-.27Zm59.55-16.74c-20.6,5.92-43.52,10.72-58.64,13.54-8.06-41.46,5.11-83.42,7.52-90.55a147.53,147.53,0,0,1,50.7,12.73c14.56,6.76,27.11,16.08,35.89,27.83,4.52,6,6.9,10.63,7.05,14.24.14,3.31-1.77,5.91-5.8,8.24C462.78,374.62,449.33,379.38,434.72,383.58Z"/><path class="cls-13" d="M384.59,64s7.32-26.76,28.07-33.36c27.6-8.78,65.2,26.53,52.32,54.76-5.52,12.1-22,26-40.92,28.28,0,0,31.91,69.45,23.67,121.38s-59.24,85.38-136.17,90.36c-88.44,5.73-158.69-22.12-168.82-83.81S168.51,123,168.51,123c-41,3.9-59-29.09-49.28-55.62,9.19-25.05,47.93-38.14,78,2.57,25.85-15,50.63-27.57,92.74-31.14S372.18,51.62,384.59,64Z"/><path d="M383.74,60.77c2.54-7.15,10.83-26.29,28.37-31.88,8.65-2.75,18.17-1.42,26.92,2.57a56.24,56.24,0,0,1,17.6,12.78,49,49,0,0,1,11,18.29,32.22,32.22,0,0,1-1,23.57c-3.07,6.72-9.34,14-17.47,19.58a57.13,57.13,0,0,1-22.48,9.4c5.28,12.16,30.31,73.13,22.84,120.22-4.2,26.44-19.23,48.16-43,63.91s-56,25.45-94.86,28c-46,3-87.13-3.08-117.61-18.21-28.79-14.29-48.1-36.65-53.1-67.11C132.09,187.77,158.1,137.49,165.23,125a56.55,56.55,0,0,1-22.29-3.11A42,42,0,0,1,115.05,86a44,44,0,0,1,2.5-19.32,37.22,37.22,0,0,1,12.91-17.06A39.25,39.25,0,0,1,148,42.44a42.37,42.37,0,0,1,20.85,2.3c9.71,3.56,19.67,10.8,28.84,22.82,12.52-7.21,24.87-13.85,39.17-19.17,14.84-5.53,31.72-9.61,53-11.41a157.3,157.3,0,0,1,53.07,5c18.23,4.85,33,12.21,40.87,18.83ZM413.2,32.31c-19.49,6.2-26.63,31.22-26.87,32.11a1.92,1.92,0,0,1-.47.81,1.8,1.8,0,0,1-2.54,0c-6.73-6.69-22-14.65-41.36-19.82a153.69,153.69,0,0,0-51.87-4.85c-20.89,1.77-37.46,5.78-52,11.18S211,64,198.11,71.46h0a1.81,1.81,0,0,1-2.35-.48c-9-12.17-18.72-19.4-28.16-22.86A38.79,38.79,0,0,0,148.51,46a35.56,35.56,0,0,0-15.91,6.54A33.69,33.69,0,0,0,120.92,68a40.51,40.51,0,0,0-2.3,17.74,38.41,38.41,0,0,0,25.56,32.81,54.75,54.75,0,0,0,24.16,2.66h0a1.76,1.76,0,0,1,1.11.25,1.8,1.8,0,0,1,.58,2.47c-.1.16-35.54,56.35-25.52,117.38,4.8,29.21,23.4,50.68,51.15,64.46,29.91,14.85,70.42,20.79,115.79,17.85,38.23-2.48,70-12,93.11-27.38C427.44,281,441.92,260.13,446,234.74c8-50.49-22.34-117.75-23.5-120.28a2.05,2.05,0,0,1-.18-.61,1.8,1.8,0,0,1,1.58-2,52.58,52.58,0,0,0,23.25-9.13c7.6-5.26,13.43-12,16.25-18.12a28.73,28.73,0,0,0,.88-21A45.59,45.59,0,0,0,454,46.69a52.77,52.77,0,0,0-16.46-12C429.56,31.08,420.93,29.85,413.2,32.31Z"/><path class="cls-15" d="M197.73,288.74c9,32.24,59.08,36.6,113.92,33.1,55.27-3.53,100.32-22.63,102.61-52.09,4.61-59.05-70.5-72-110.9-68.8C243,205.79,183.87,239.36,197.73,288.74Z"/><path class="cls-12" d="M184.62,82.63s-13.69-20.69-28.23-19.16-22,23.78-15.25,35.1,25.34,8.06,25.34,8.06,10.83-18.93,18.14-24Zm213.15-7.24c2.27-5.74,10.37-19.19,25-19.53s24.43,15.27,19.14,27.37-23.07,13.63-23.07,13.63S405.67,79.47,397.77,75.39Z"/><path d="M186.38,210.6a1.84,1.84,0,0,1-3.67,0c.14-10.06,5.16-19.9,15.57-22.18,10.59-2.32,20.69,4.24,25.68,13.37a1.82,1.82,0,1,1-3.2,1.75C216.56,195.83,208,190,199.07,192c-8.73,1.91-12.58,10.32-12.69,18.64Zm219.11-11.12a1.84,1.84,0,0,0,3.63-.56c-1.56-9.94-7.92-19-18.55-19.76-10.81-.8-19.89,7.13-23.54,16.87a1.83,1.83,0,0,0,3.43,1.28c3.07-8.18,10.67-15.17,19.83-14.49,8.91.66,13.92,8.43,15.2,16.66Zm-100.84,43.6c19-1.86,35.33-19.86,33.16-34.79-1.36-9.4-16.15-11.83-37.22-10.64-23.06,1.3-33.79,8.66-35.76,16.12C260.36,230.75,286.71,244.83,304.65,243.08Z"/><path d="M277.87,272.52a2.54,2.54,0,0,0-5,.78c1.56,10,5.79,17.13,11.34,21.63a25.53,25.53,0,0,0,14.28,5.65,29,29,0,0,0,15.19-3.16c7.28-3.68,13.69-10.48,17.31-20.14a2.52,2.52,0,1,0-4.73-1.76c-3.14,8.36-8.64,14.23-14.87,17.38a23.88,23.88,0,0,1-12.52,2.63A20.6,20.6,0,0,1,287.37,291C282.76,287.25,279.22,281.16,277.87,272.52Z"/><path class="cls-8" d="M156.69,133.34c-8.95-13.15-55.46-30.93-15-53.8,16-9.05,18.12-9.79,34.93-23.16S207.55,11,224.79,8.32,266.75,20,286,19.39,327.46-4,350,3.21c7.95,2.54,30.31,39.1,62.95,56,14.18,7.35,25.94,2.24,35.11,15.52,7.49,10.87-9.47,38.93-16.73,46.81,0,0-113.7-15.14-139.65-12.94S156.69,133.34,156.69,133.34Z"/><path d="M155.16,134.29c-2.1-3.06-6.63-6.58-11.54-10.39-6.69-5.2-14-10.91-17.7-17.38C121,97.8,122.67,88.25,140.83,78h0l4.53-2.56c12-6.74,15.2-8.54,30.17-20.45,6.52-5.19,12.72-13.4,18.86-21.53,9.6-12.69,19.05-25.2,30.15-26.91,9.46-1.46,20.81,1.9,32.34,5.32,10.05,3,20.26,6,29.09,5.74,7.49-.22,15.69-4.1,24.2-8.11C323,3.41,336.53-3,350.5,1.5c3.34,1.07,8.26,6.62,14.91,14.14,11.29,12.74,27.79,31.37,48.31,42,5.28,2.73,10.29,3.68,14.93,4.56,7.89,1.5,14.81,2.81,20.83,11.53,3.41,5,2.46,12.68-.4,20.68C445,105.8,437,118,432.6,122.8a1.78,1.78,0,0,1-1.64.55c-3.65-.48-113.79-15.07-139.18-12.93C265.91,112.61,157.36,135,157,135.1a1.82,1.82,0,0,1-1.88-.81Zm-9.33-13.23c4.68,3.64,9,7,11.62,10.29C169,129,267,108.91,291.49,106.84c24.76-2.09,128.21,11.41,139.08,12.84A95.77,95.77,0,0,0,445.7,93.22c2.51-7,3.46-13.62.83-17.43-5.18-7.51-11.42-8.7-18.54-10-4.89-.93-10.17-1.93-15.91-4.91C391,49.89,374.2,31,362.73,18c-6.28-7.09-10.91-12.32-13.33-13.1-12.61-4-25.48,2-37.71,7.82-8.85,4.18-17.38,8.21-25.63,8.45-9.41.28-19.88-2.82-30.2-5.88-11.14-3.3-22.1-6.55-30.8-5.21-9.64,1.49-18.66,13.42-27.81,25.53-6.28,8.3-12.62,16.69-19.5,22.17-15.2,12.09-18.46,13.92-30.64,20.77L142.6,81.1h0C126.83,90,125.12,97.82,129,104.76,132.32,110.57,139.39,116.07,145.83,121.06Z"/><path class="cls-4" d="M154.75,142.73c-10.39,10.65-32.29,28.81,43.27,39.16s204.2-8.47,230.35-18.9,12.47-21.48-4.14-38.58C424.23,124.41,264.73,94.69,154.75,142.73Z"/><g class="cls-16"><path class="cls-12" d="M333.11,99.58l19.41,96.19,52.84-9.67L364,101l-30.91-1.44Zm37.55.51,9.16,2.55,60.95,75.79-20.84,7.77Z"/></g><path d="M153.1,141.85l-1.4,1.43c-4,4.06-8.92,9-9.93,14.31-1.78,9.38,8.37,19.28,55.87,25.79,32.17,4.4,73.8,3.57,113.12.34,53.71-4.41,103.29-13.31,118.56-19.41,16-6.39,18.21-13.11,13.75-21.18-2.67-4.84-7.81-10.06-13.69-16-1.25-1.27-2.53-2.57-3.49-3.57a2.23,2.23,0,0,0-1.16-.57h0c-.46-.08-160.29-29.86-271,18.49a2,2,0,0,0-.63.42ZM155,145l1.16-1.17C261.32,98.14,411.6,123.71,423,125.75l3.07,3.14c5.73,5.82,10.74,10.91,13.22,15.4,3.59,6.49,1.65,12-11.88,17.37-14.92,6-63.83,14.69-117.06,19.06-39,3.2-80.24,4-112-.31C154,174.32,144.32,165.85,145.81,158,146.67,153.41,151.22,148.83,155,145Z"/><path class="cls-5" d="M144.38,122.27c-4.64,6.53-.36,20.13,7.17,24.33,23.21-10.39,59.35-20.85,132.05-26.27S425.38,135.85,432,135.11s7.62-19.36,3.84-22S355.9,87.07,285.34,91.32,181.3,106.43,144.38,122.27Z"/><path d="M142.54,121.64c-2.49,3.56-2.64,8.87-1.18,13.85s4.75,10,8.95,12.32a2.63,2.63,0,0,0,2.32.06c11.46-5.13,26.13-10.28,46.94-14.82s48-8.52,84.22-11.22c54.67-4.06,107.39,6.89,132.61,12.12,8.38,1.75,13.83,2.88,15.85,2.65a6.19,6.19,0,0,0,3.9-2c1.72-1.78,2.84-4.78,3.42-8a29.79,29.79,0,0,0,.2-9.19c-.39-2.48-1.24-4.48-2.57-5.4-2.52-1.74-35.32-12.27-77.13-18.33-23.26-3.37-49.4-5.41-74.87-3.87C249.75,92,223.59,95.75,201.64,101S162,113,143.37,121a1.78,1.78,0,0,0-.83.67Zm2.8,13.18c-1.23-4.2-1.22-8.57.59-11.48,18.14-7.77,35.49-14.32,56.93-19.46,21.67-5.19,47.53-8.94,82.63-11.06,25-1.51,50.8.51,73.76,3.84,41.08,6,72.8,16,75.16,17.57.58.4,1,1.74,1.3,3.55a27.28,27.28,0,0,1-.18,8.47c-.5,2.78-1.39,5.28-2.7,6.65a2.08,2.08,0,0,1-1.14.72c-1.18.13-6.29-.93-14.16-2.57-25.45-5.29-78.68-16.34-134.11-12.22-36.5,2.72-63.84,6.71-85,11.32-20.46,4.47-35.13,9.53-46.69,14.61-2.93-2.11-5.24-5.91-6.43-9.94Zm7.29,13.05.53-.36A1.77,1.77,0,0,1,152.63,147.87Z"/><path class="cls-10" d="M298.59,45.28a42.93,42.93,0,0,0,10.62,5.56c15.82,6.12,18.43,0,15.36,19.78-1.65,10.6-5.59,22.46-14.79,31.4-11.38,11-20.08,11.76-33.41,3.5C267,99.71,258.5,89.7,253,72.82c-5.36-16.41-1.79-10.73,11.46-17.1a39.1,39.1,0,0,0,12.94-9.58C285.35,37,288.14,37.3,298.59,45.28Z"/><path class="cls-9" d="M282.84,69.75c-14.14,4.65-13.73,3-3,12.85.09,14.42-1.46,13.55,11.67,6.62,14.2,4.26,12.84,5.41,10.21-8.76,8.68-11.79,9.39-10.2-5.36-12C287.55,56.89,289.33,56.71,282.84,69.75Z"/><path class="cls-8" d="M247.76,320.35s9.1,8.08,12.85,23,3.5,24.7-2.38,36.67S223.72,400.92,207,389,192.9,337.61,197,330,226.58,309.41,247.76,320.35Z"/><path d="M249,319s9.51,8.44,13.4,23.94c1.91,7.65,2.81,14,2.47,20a45.28,45.28,0,0,1-5,17.9,15.08,15.08,0,0,1-1.32,2.2c-3.85,5.39-11.82,9.93-20.88,12.06s-19.18,1.89-27.56-2.22a29.32,29.32,0,0,1-4.14-2.46c-7.11-5.08-10.91-14.63-12.63-24.77-2.56-15.05-.5-31.7,2.07-36.5s12.84-11.57,25.28-13.93c8.78-1.67,18.72-1.23,27.91,3.52a1.7,1.7,0,0,1,.38.26Zm9.9,24.82a47,47,0,0,0-12.15-22c-8.32-4.22-17.35-4.6-25.38-3.07-11.37,2.16-20.58,8-22.77,12.09-2.33,4.35-4.12,19.88-1.69,34.21,1.58,9.31,5,18,11.17,22.43a25.9,25.9,0,0,0,3.63,2.16c7.56,3.71,16.87,3.89,25.17,1.94s15.4-6,18.75-10.64a12.35,12.35,0,0,0,1-1.69,41.91,41.91,0,0,0,4.61-16.52C261.55,357.15,260.69,351.14,258.86,343.83Z"/><path class="cls-13" d="M213.33,314.42c13.74-.26,40.66-4.43,36.74,23.72,6.3,7.46,4.33,19.86.24,26.15-2.15,13.5-4.92,18-17.35,20.95-11,2.59-28.19,2.92-38.15-2.56-14.5-8-17.46-33.32-14.43-47.42,3.87-18-1.87-39.85,8.12-47.81C202.37,276.39,213.85,288.94,213.33,314.42Z"/><path d="M215.14,312.57l2.46-.1a89.46,89.46,0,0,1,16,.3c11.12,1.55,20.57,7.12,18.39,24.84a20.9,20.9,0,0,1,4,12.62A28.5,28.5,0,0,1,252,364.94c-1.11,6.85-2.43,11.49-5.13,14.9S240,385.43,233.37,387a77.16,77.16,0,0,1-21.84,1.69c-6.51-.43-12.8-1.79-17.59-4.43-6.85-3.77-11.27-11.07-13.77-19.3a64.31,64.31,0,0,1-1.54-30.06c1.43-6.65,1.51-13.9,1.6-20.75.14-11.87.27-22.61,7.15-28.1a19.9,19.9,0,0,1,8.05-4.11,12,12,0,0,1,9.63,1.83,19.86,19.86,0,0,1,6.67,8.87c2.15,5.09,3.39,11.85,3.41,19.94Zm2.6,3.49c-1.51.06-3,.12-4.36.15h-.08a1.8,1.8,0,0,1-1.76-1.83c.17-8.41-1-15.33-3.12-20.36a16.16,16.16,0,0,0-5.39-7.29,8.51,8.51,0,0,0-6.84-1.29,16.48,16.48,0,0,0-6.57,3.41c-5.55,4.43-5.67,14.35-5.81,25.34-.08,7-.17,14.49-1.67,21.44a60.66,60.66,0,0,0,1.45,28.28c2.26,7.41,6.15,13.92,12.08,17.19,4.3,2.37,10.07,3.59,16.1,4a73.48,73.48,0,0,0,20.78-1.61c5.8-1.36,9.3-3,11.53-5.87s3.43-7.14,4.46-13.57a1.7,1.7,0,0,1,.27-.74,24.68,24.68,0,0,0,3.51-13.05,17.08,17.08,0,0,0-3.62-11h0a1.8,1.8,0,0,1-.41-1.41c2.16-15.45-5.81-20.25-15.22-21.57a86.81,86.81,0,0,0-15.33-.26Zm-4.36.15h0Z"/></g></g></svg>