<svg xmlns="http://www.w3.org/2000/svg" xmlns:xlink="http://www.w3.org/1999/xlink" viewBox="0 0 784.9 685.93"><defs><style>.cls-1{fill:#990d1a;}.cls-2{fill:url(#Безымянный_градиент_133);}.cls-3{fill:#191919;}.cls-4{fill:#7e7f7f;}.cls-5{fill:#7f7f7f;}.cls-6{fill:#c3c5c6;}.cls-7{fill:#999;}.cls-8{fill:#d81617;}.cls-9{fill:#b50f17;}.cls-10{fill:#e5e5e5;}.cls-11{fill:url(#Безымянный_градиент_127);}.cls-12{fill:#444547;}</style><radialGradient id="Безымянный_градиент_133" cx="392.16" cy="450.57" r="159.2" gradientUnits="userSpaceOnUse"><stop offset="0" stop-color="#efab86"/><stop offset="0.35" stop-color="#eea985"/><stop offset="0.51" stop-color="#eca27f"/><stop offset="0.62" stop-color="#e79576"/><stop offset="0.72" stop-color="#e0836a"/><stop offset="0.8" stop-color="#d86c59"/><stop offset="0.88" stop-color="#cd4f45"/><stop offset="0.95" stop-color="#c12e2d"/><stop offset="1" stop-color="#b50f17"/></radialGradient><radialGradient id="Безымянный_градиент_127" cx="392.17" cy="450.55" r="43.01" gradientTransform="translate(774.09 -8.72) rotate(80.78)" gradientUnits="userSpaceOnUse"><stop offset="0" stop-color="#efaba1"/><stop offset="1" stop-color="#b50f17"/></radialGradient></defs><g id="Слой_2" data-name="Слой 2"><g id="Слой_1-2" data-name="Слой 1"><circle class="cls-1" cx="392.16" cy="450.57" r="162.06"/><circle class="cls-2" cx="392.16" cy="450.57" r="159.2"/><circle class="cls-1" cx="392.05" cy="450.68" r="120.47"/><circle class="cls-3" cx="392.05" cy="450.68" r="118.32"/><path class="cls-4" d="M506.3,419.87,396.59,448l79.2-80.92-.15-.15-80.92,79.19,28.13-109.7-.21-.06L392.16,445.45,361.65,336.31l-.2.06,28.14,109.76-81-79.3-.15.15,79.3,81-109.9-28.19-.06.2L387,450.57,277.7,481.13l.06.2,110-28.2-79.41,81.14.15.14L389.59,455,361.4,565l.19.06,30.57-109.33L422.7,565l.2-.06L394.72,455l81,79.31.14-.15-79.3-81,109.76,28.15.06-.21-109.13-30.5,109.07-30.49C506.34,420,506.31,419.94,506.3,419.87Z"/><path class="cls-5" d="M393.23.21h0Z"/><path class="cls-6" d="M392.05,0c-17.24.17-31.2,56.7-31.2,169.54s14,250.73,31.2,251.13c17.24-.4,31.2-138.29,31.2-251.13S409.29.17,392.05,0Z"/><path class="cls-7" d="M394.57,386.46c-2.25-8.67-4.18-17.38-6-26.12-3.49-17.47-6.39-35-8.91-52.67q-7.51-52.83-11.06-106c-2.33-35.44-3.57-71-2.26-106.5.74-17.73,2-35.48,5.06-53a142.78,142.78,0,0,1,6.65-25.9,46.46,46.46,0,0,1,6.36-12A21.58,21.58,0,0,1,386,2.55c-14.32,12.15-25.1,67.82-25.1,167,0,112.84,14,250.73,31.2,251.13,3.16-.07,6.21-4.78,9.08-13.09A205.9,205.9,0,0,1,394.57,386.46Z"/><path class="cls-8" d="M369.15,46.88H415C409.25,15.72,401.1.09,392.05,0,383,.09,374.85,15.72,369.15,46.88Z"/><path class="cls-9" d="M385.93,2.57c-9.35,8-14.56,32.13-16.78,44.31h1.53C372.64,34.12,376.94,11.86,385.93,2.57Z"/><path class="cls-10" d="M401.13,407.58c.39-1.13.78-2.32,1.16-3.57-2.15-5.91-3.9-12-5.53-18-2.31-8.61-4.28-17.28-6.11-26-3.58-17.43-6.58-35-9.19-52.55q-7.77-52.72-11.61-105.88c-2.54-35.42-4-70.93-2.85-106.41.62-17.74,1.83-35.47,4.75-53a141.46,141.46,0,0,1,6.51-25.91A45.42,45.42,0,0,1,384.53,4.3a22.32,22.32,0,0,1,2-2.24c-.2.15-.4.32-.6.49a21.58,21.58,0,0,0-1.5,1.69,46.46,46.46,0,0,0-6.36,12,142.78,142.78,0,0,0-6.65,25.9c-3,17.56-4.32,35.31-5.06,53-1.31,35.51-.07,71.06,2.26,106.5s6.05,70.82,11.06,106c2.52,17.62,5.42,35.2,8.91,52.67,1.78,8.74,3.71,17.45,6,26.12A205.9,205.9,0,0,0,401.13,407.58Z"/><path class="cls-5" d="M.69,679.72h0Z"/><path class="cls-6" d="M1.11,680.85c8.9,14.76,64.68-2,161.86-59.31S371.8,482.08,363.39,467c-9.12-14.64-135,43.42-232.14,100.78S-7.51,665.92,1.11,680.85Z"/><path class="cls-7" d="M332.64,482.24c-6.32,6.35-12.84,12.44-19.46,18.41-13.27,11.89-26.94,23.32-40.84,34.44q-41.67,33.33-85.69,63.43c-29.34,20-59.33,39.15-90.57,56.08C80.44,663,64.49,670.87,47.83,677.2a142.36,142.36,0,0,1-25.68,7.44,46.39,46.39,0,0,1-13.53.59c-.74-.1-1.48-.25-2.22-.42C24.14,691,77.57,672,163,621.54,260.15,564.19,371.8,482.08,363.39,467c-1.68-2.68-7.28-2.91-15.9-1.16A208.45,208.45,0,0,1,332.64,482.24Z"/><path class="cls-8" d="M53.12,676.74,29.84,637.3C5.9,658-3.42,673,1.11,680.85S23.39,687.67,53.12,676.74Z"/><path class="cls-9" d="M6.44,684.81c11.58,4,35.17-3.8,46.68-8.07l-.78-1.31C40.37,680.21,19,687.83,6.44,684.81Z"/><path class="cls-10" d="M347.49,465.86c-1.17.23-2.39.51-3.66.82-4,4.85-8.32,9.43-12.71,13.92-6.24,6.36-12.7,12.46-19.28,18.47-13.18,11.94-26.76,23.43-40.58,34.62Q229.8,567.18,186,597.51c-29.21,20.19-59,39.49-90.19,56.54-15.59,8.49-31.47,16.45-48.08,22.86a141.4,141.4,0,0,1-25.61,7.56,45.27,45.27,0,0,1-13.46.67,21.87,21.87,0,0,1-3-.6l.72.27c.74.17,1.48.32,2.22.42a46.39,46.39,0,0,0,13.53-.59,142.36,142.36,0,0,0,25.68-7.44c16.66-6.33,32.61-14.22,48.25-22.6,31.24-16.93,61.23-36.06,90.57-56.08s57.91-41.21,85.69-63.43c13.9-11.12,27.57-22.55,40.84-34.44,6.62-6,13.14-12.06,19.46-18.41A208.45,208.45,0,0,0,347.49,465.86Z"/><path class="cls-5" d="M783.07,677.24h0Z"/><path class="cls-6" d="M783.84,676.32c8.45-15-33.6-55.32-131.42-111.57S428.1,451.87,419.16,466.62c-8.25,15.14,104.33,96,202.15,152.24S775.1,691.18,783.84,676.32Z"/><path class="cls-7" d="M447.56,485.86c8.64,2.36,17.15,5,25.61,7.85,16.89,5.68,33.57,11.93,50.1,18.54q49.56,19.82,97.45,43.26c31.88,15.65,63.31,32.3,93.44,51.13,15,9.48,29.75,19.46,43.46,30.83a141.32,141.32,0,0,1,19.14,18.68A46.2,46.2,0,0,1,784,667.62a21.5,21.5,0,0,1,.72,2.14c-3.39-18.47-46.28-55.57-132.25-105C554.6,508.5,428.1,451.87,419.16,466.62c-1.51,2.77,1,7.77,6.82,14.4A204.9,204.9,0,0,1,447.56,485.86Z"/><path class="cls-8" d="M754.62,633.1l-22.83,39.7c29.85,10.59,47.46,11.32,52.05,3.52C788.28,668.43,778.78,653.57,754.62,633.1Z"/><path class="cls-9" d="M784.66,669.73c-2.24-12.05-20.61-28.68-30-36.63l-.75,1.32C763.93,642.48,781.09,657.31,784.66,669.73Z"/><path class="cls-10" d="M426,481c.79.9,1.63,1.83,2.52,2.78,6.19,1.08,12.31,2.58,18.38,4.19,8.61,2.29,17.11,4.91,25.57,7.66,16.9,5.58,33.59,11.73,50.14,18.23q49.59,19.56,97.58,42.71c32,15.46,63.47,31.9,93.67,50.58,15.06,9.37,29.83,19.26,43.59,30.55a142,142,0,0,1,19.21,18.55,45.39,45.39,0,0,1,7.22,11.38,21,21,0,0,1,.94,2.87c0-.25-.08-.51-.13-.76a21.5,21.5,0,0,0-.72-2.14,46.2,46.2,0,0,0-7.19-11.47,141.32,141.32,0,0,0-19.14-18.68c-13.71-11.37-28.45-21.35-43.46-30.83-30.13-18.83-61.56-35.48-93.44-51.13s-64.41-30-97.45-43.26c-16.53-6.61-33.21-12.86-50.1-18.54-8.46-2.81-17-5.49-25.61-7.85A204.9,204.9,0,0,0,426,481Z"/><circle class="cls-11" cx="392.17" cy="450.55" r="43.01" transform="translate(-115.38 765.49) rotate(-80.78)"/><circle class="cls-12" cx="392.16" cy="450.57" r="8.73"/></g></g></svg>