<?xml version="1.0" encoding="UTF-8"?><svg xmlns="http://www.w3.org/2000/svg" viewBox="0 0 29.65 19.33"><defs><style>.d{fill:#fff5d9;}.d,.e,.f,.g,.h{opacity:.3;}.i{fill:#ffbb63;}.j,.k,.l{opacity:.2;}.j,.f,.m,.h{fill:#ff8d63;}.j,.m,.h{mix-blend-mode:multiply;}.n{isolation:isolate;}.k{fill:#ffe6ba;}.e{fill:#ffda73;}.l{fill:#f8ffde;}.g{fill:#ffd7a6;}.m{opacity:.1;}</style></defs><g class="n"><g id="a"/><g id="b"><g id="c"><g><g><polygon class="i" points="12.53 0 0 19.33 .27 19.33 12.53 19.33 24.79 19.33 25.06 19.33 12.53 0"/><polygon class="h" points="12.53 0 0 19.33 .27 19.33 8.85 19.33 12.53 0"/><polygon class="d" points="15 4.85 13.38 4.85 15.7 5.47 18.56 9.91 17.32 9.91 19.08 10.72 21.87 15.52 16.64 15.52 22.05 15.96 24.14 19.33 24.79 19.33 25.06 19.33 12.53 0 15 4.85"/><polygon class="e" points="0 19.33 .27 19.33 .73 19.33 1.71 18.12 4.86 17.6 1.71 17.6 5.68 11.68 8.05 11.33 5.68 11.33 8.57 6.87 9.82 6.43 8.75 6.43 12.53 0 0 19.33"/><polygon class="j" points="12.53 0 11.85 6.55 13.53 6.55 12 7.01 10.92 11.77 13.3 11.77 10.92 12.29 10.08 17.39 12.81 17.39 10.08 18.12 9.82 19.33 8.85 19.33 12.53 0"/></g><polygon class="h" points="20.99 16.89 20.55 16.89 19.6 14.99 19.19 14.99 18.58 13.39 17.19 13.39 16.14 13.39 14.8 13.39 14.75 13.39 14.14 14.99 13.81 14.99 13.73 14.99 12.78 16.89 12.46 16.89 12.34 16.89 10.9 19.33 11.39 19.33 15.49 19.33 17.84 19.33 22.43 19.33 20.99 16.89"/><g><polygon class="i" points="25.95 16.3 25.4 16.3 24.23 13.94 23.72 13.94 22.96 11.94 21.22 11.94 19.92 11.94 18.25 11.94 18.18 11.94 17.43 13.94 17.01 13.94 16.92 13.94 15.74 16.3 15.34 16.3 15.2 16.3 13.4 19.33 14.01 19.33 19.11 19.33 22.04 19.33 27.74 19.33 25.95 16.3"/><polygon class="h" points="25.95 16.3 25.4 16.3 24.23 13.94 23.72 13.94 22.96 11.94 21.22 11.94 19.92 11.94 18.25 11.94 18.18 11.94 17.43 13.94 17.01 13.94 16.92 13.94 15.74 16.3 15.34 16.3 15.2 16.3 13.4 19.33 14.01 19.33 19.11 19.33 22.04 19.33 27.74 19.33 25.95 16.3"/><polygon class="l" points="23.9 14.09 24.3 14.09 24.23 13.94 23.84 13.94 23.9 14.09"/><polygon class="l" points="25.58 16.45 26.04 16.45 25.95 16.3 25.51 16.3 25.58 16.45"/><polygon class="k" points="15.38 16.45 15.52 16.45 15.92 16.45 17.1 14.09 17.2 14.09 17.61 14.09 18.37 12.09 18.43 12.09 20.1 12.09 21.4 12.09 23.02 12.09 22.96 11.94 21.22 11.94 19.92 11.94 18.25 11.94 18.18 11.94 17.43 13.94 17.01 13.94 16.92 13.94 15.74 16.3 15.34 16.3 15.2 16.3 13.4 19.33 13.67 19.33 15.38 16.45"/><g><g><polygon class="i" points="24.86 11.94 23.12 11.94 21.82 11.94 20.09 11.94 19.29 14.04 21.82 14.04 23.12 14.04 25.66 14.04 24.86 11.94"/><polygon class="g" points="20.09 11.94 24.66 12.13 25.66 14.04 24.86 11.94 20.09 11.94"/><path class="f" d="M19.29,14.04h.27c.07-.21,.13-.41,.13-.43,0-.04,.82-.2,.82-.2h-.78l.22-.42,1.21-.36h-1.14l.07-.69-.8,2.09Z"/><polygon class="m" points="21.82 14.04 23.12 14.04 25.66 14.04 25.66 14.03 20.15 11.94 20.09 11.94 19.29 14.04 21.82 14.04"/></g><g><polygon class="i" points="26.13 13.94 23.47 13.94 21.48 13.94 18.82 13.94 17.6 16.38 21.48 16.38 23.47 16.38 27.35 16.38 26.13 13.94"/><polygon class="g" points="18.82 13.94 25.82 14.16 27.35 16.38 26.13 13.94 18.82 13.94"/><path class="f" d="M17.6,16.38h.42c.11-.25,.2-.48,.2-.5,0-.04,1.25-.24,1.25-.24h-1.19l.33-.49,1.85-.41h-1.75l.11-.81-1.22,2.45Z"/><polygon class="m" points="21.48 16.38 23.47 16.38 27.35 16.38 27.34 16.38 18.92 13.94 18.82 13.94 17.6 16.38 21.48 16.38"/></g><g><polygon class="i" points="27.85 16.3 23.94 16.3 21.01 16.3 17.1 16.3 15.3 19.33 21.01 19.33 23.94 19.33 29.65 19.33 27.85 16.3"/><polygon class="g" points="17.1 16.3 27.4 16.58 29.65 19.33 27.85 16.3 17.1 16.3"/><path class="f" d="M15.3,19.33h.61c.15-.31,.3-.6,.3-.62,0-.05,1.84-.29,1.84-.29h-1.75l.49-.6,2.72-.51h-2.57l.16-1-1.79,3.03Z"/><polygon class="m" points="21.01 19.33 23.94 19.33 29.65 19.33 29.64 19.32 17.24 16.3 17.1 16.3 15.3 19.33 21.01 19.33"/></g></g></g></g></g></g></g></svg>