<?xml version="1.0" encoding="UTF-8"?><svg xmlns="http://www.w3.org/2000/svg" viewBox="0 0 34.91 23.51"><defs><style>.d{opacity:.6;}.d,.e,.f{fill:#ffcd8a;}.g{isolation:isolate;}.e{opacity:.5;}.h{fill:#ffaf6e;}.i{opacity:.3;}.i,.j{fill:#f0a467;mix-blend-mode:multiply;}.f,.j{opacity:.4;}</style></defs><g class="g"><g id="a"/><g id="b"><g id="c"><g><polygon class="h" points="17.46 0 0 23.51 34.91 23.51 17.46 0"/><polygon class="i" points="17.46 0 13.73 23.51 0 23.51 17.46 0"/><path class="d" d="M16.92,12.8h9.27l-.64,.3h-4.3l-1.91-.15h-2.42v-.15Z"/><polygon class="f" points="28.49 20.39 17.58 20.39 15.28 20.39 15.86 21.14 23.7 21.14 25.64 20.77 30.42 20.77 30.98 20.39 28.49 20.39"/><polygon class="f" points="17.46 0 34.1 23.51 34.91 23.51 17.46 0"/><polygon class="f" points="20.81 6.78 21.83 7.01 22.66 7.01 22.21 6.41 20.05 6.41 18.66 6.41 19.88 6.78 20.81 6.78"/><path class="j" d="M7.61,15.52h6.46l-1.19,.45H7.44l-.85,.23h-.89l.85-.68h1.06Z"/><polygon class="i" points="14.92 8.95 12.35 8.95 11.39 9.38 14.45 9.38 14.92 8.95"/><polygon class="j" points="5.86 22.78 11.2 22.78 11.77 22.49 6.93 22.49 5.86 22.78"/><polygon class="e" points="17.46 0 13.73 23.51 14.24 23.51 17.46 0"/><polygon class="f" points="17.04 10.32 20.66 10.32 19.94 10.6 16.76 10.6 17.04 10.32"/><polygon class="e" points="29.85 16.69 22.82 16.69 23.61 17.03 27.95 17.03 29.08 17.39 30.37 17.39 29.85 16.69"/></g></g></g></g></svg>