<?xml version="1.0" encoding="UTF-8"?><svg xmlns="http://www.w3.org/2000/svg" xmlns:xlink="http://www.w3.org/1999/xlink" viewBox="0 0 169.5 147.84"><defs><style>.n{opacity:.45;}.n,.o{fill:#301d75;}.n,.o,.p,.q,.r,.s{mix-blend-mode:multiply;}.t{fill:#5a61ba;}.o,.p,.r,.s{opacity:.25;}.u{fill:url(#l);}.v{fill:#fcc924;opacity:.3;}.v,.w,.x{mix-blend-mode:screen;}.p{fill:url(#j);}.y{isolation:isolate;}.a`{fill:url(#m);}.q{fill:#281e72;opacity:.35;}.r{fill:#c64d10;}.aa{fill:url(#f);}.ab{fill:#9fbdff;}.ac{fill:#54378c;}.w,.ad{fill:#3eedff;}.ae{fill:#f4f2d9;}.af{fill:url(#i);}.x{fill:#fcb144;}.ag{fill:url(#h);}.ah{fill:url(#d);}.ai{fill:url(#e);}.aj{fill:#771d62;}.s{fill:url(#g);}.ak{fill:url(#k);}.al{fill:#751a36;}</style><linearGradient id="d" x1="84.13" y1="109.98" x2="84.13" y2="13.46" gradientTransform="matrix(1, 0, 0, 1, 0, 0)" gradientUnits="userSpaceOnUse"><stop offset="0" stop-color="#7d89ff"/><stop offset=".58" stop-color="#5362d4"/><stop offset="1" stop-color="#3c53b5"/></linearGradient><linearGradient id="e" x1="152.3" y1="46.34" x2="152.3" y2="-1.56" gradientTransform="matrix(1, 0, 0, 1, 0, 0)" gradientUnits="userSpaceOnUse"><stop offset="0" stop-color="#4955c2"/><stop offset=".37" stop-color="#8ea8ff"/><stop offset=".68" stop-color="#5d68c9"/><stop offset="1" stop-color="#465597"/></linearGradient><linearGradient id="f" x1="151.04" y1="39.77" x2="151.04" y2=".74" xlink:href="#e"/><linearGradient id="g" x1="-976.49" y1="1813.98" x2="-972.38" y2="1811.21" gradientTransform="translate(-1675.52 961.55) rotate(90.84) scale(1 -1)" gradientUnits="userSpaceOnUse"><stop offset="0" stop-color="#13178e"/><stop offset="1" stop-color="#a6b3ff"/></linearGradient><linearGradient id="h" x1="15.84" x2="15.84" xlink:href="#e"/><linearGradient id="i" x1="17.1" y1="39.77" x2="17.1" y2=".74" xlink:href="#e"/><linearGradient id="j" x1="-979.74" y1="2035.19" x2="-975.63" y2="2032.42" gradientTransform="translate(2064.9 961.55) rotate(89.16)" xlink:href="#g"/><linearGradient id="k" x1="3288.54" y1="-331.37" x2="3318.26" y2="-364.32" gradientTransform="translate(2330.01 2468.68) rotate(-138.56) scale(1 -1)" xlink:href="#e"/><linearGradient id="l" x1="117.38" y1="146.09" x2="117.38" y2="90.14" gradientTransform="matrix(1, 0, 0, 1, 0, 0)" gradientUnits="userSpaceOnUse"><stop offset="0" stop-color="#ffa631"/><stop offset=".12" stop-color="#ffab31"/><stop offset=".28" stop-color="#ffbc31"/><stop offset=".46" stop-color="#ffd731"/><stop offset=".52" stop-color="#ffe431"/><stop offset=".62" stop-color="#ffcd31"/><stop offset=".76" stop-color="#ffb731"/><stop offset=".88" stop-color="#ffaa31"/><stop offset="1" stop-color="#ffa631"/></linearGradient><linearGradient id="m" x1="117.57" y1="108.75" x2="117.57" y2="59.23" gradientTransform="translate(95.22 -57.96) rotate(45)" gradientUnits="userSpaceOnUse"><stop offset=".11" stop-color="#df0e35"/><stop offset=".74" stop-color="#f83b3b"/></linearGradient></defs><g class="y"><g id="a"/><g id="b"><g id="c"><g><path class="w" d="M156.97,1.75h0c-.09,.01-29.63,9.16-71.15,9.16C42.1,10.91,14.76,1.76,14.67,1.75h0C-5.99,7.91,2.48,61.18,6.32,74.62l12.23,4.28h0l6.35,2.39-5.78-.57h0l-9.98-.98c2.37,7.24,4.13,13.31,7.35,18.65,4.71,3.74,16.5,9.92,29.58,15.05l5.79-6.9-.02,9.18c6.36,2.23,14.79,4.75,21.33,6.26l4.67-3.03,2.8,4.66c1.51,.25,3.72,.49,5.18,.67,5.73-.71,10.09-1.53,16.15-3.15,.4,13.01,.12,22.77-.28,26.69l1.75-.91h0c5.31-4.38,14.19-14.76,15.89-18.42,3.39,6.04,12.23,15.73,16.8,19.33h0c-1.03-9.9-.76-30.1-.5-38.64,8.73-3.97,15.16-7.67,18.42-10.27,2.16-3.57,4.56-8.82,6.35-13.33l-6.83-2.02,7.54,.22c.36-.97,1.17-3.27,1.51-4.27l-11.65-1.82,12.66-1.49c1.85-6.17,15.56-67.84-6.66-74.47Z"/><path class="ah" d="M155.22,0C106.44,18.96,66.33,17.41,12.92,0-3.03,4.77-2.76,42.87,5.87,73.03l17.28,6.51-15.76-1.55c2.37,7.24,5.22,13.84,8.44,19.19,4.8,3.81,15.6,9.46,28.48,14.52l7.53-8.98v11.78c6.36,2.23,13.02,4.23,19.56,5.74l5.16-3.35,3.02,4.99c1.51,.25,3,.48,4.47,.66,26.04-3.23,58.79-17.86,68.23-25.36,2.16-3.57,4.15-7.72,5.94-12.24l-7.21-2.11,8.32-.79c.36-.97,.71-1.95,1.04-2.95l-12.23-1.8,13.7-2.83C170.98,44.11,171.64,4.9,155.22,0Z"/><rect class="r" x="101.7" y="74.94" width="35.59" height="35.59" rx="5" ry="5" transform="translate(-30.57 111.66) rotate(-45)"/><path class="o" d="M151.04,82.83l8.32-.79c.36-.97,.71-1.95,1.04-2.95l-10.03-1.47c-2.34,8.26-5.57,17.05-9.91,26.32,.09,.08,.18,.14,.26,.22,5.08-2.59,9.11-5.02,11.57-6.97,2.16-3.57,4.15-7.72,5.94-12.24l-7.21-2.11Z"/><path class="o" d="M155.22,0c-3.09,1.2-6.14,2.32-9.16,3.35,6.88,9.82,14.87,36.17,4.55,73.44l11.27-2.32C170.98,44.11,171.64,4.9,155.22,0Z"/><path class="o" d="M17.38,78.98l-9.98-.98c2.37,7.24,5.22,13.84,8.44,19.19,2.39,1.9,6.27,4.25,11.16,6.76-2.18-4.8-6.09-13.94-9.62-24.97Z"/><path class="o" d="M12.92,0C-3.03,4.77-2.76,42.87,5.87,73.03l10.93,4.12C9.1,52.29,3.87,18.84,24.15,3.47,20.47,2.39,16.73,1.24,12.92,0Z"/><path class="q" d="M167.67,44.77C169.72,22.98,166.52,3.37,155.22,0,106.44,18.96,66.33,17.41,12.92,0,2.01,3.26-1.31,22.12,.45,43.36c38.52-7.82,109.19-7.64,167.22,1.41Z"/><path class="ai" d="M155.21,53.44c3.78-2.2,8.88-7.79,8.19-27.13-.57-10.7-2.29-12.47-4.17-14.63,0,0-12.27,.04-14.27-.18-2-.22-9.11,24.07,3.49,39.97l6.77,1.97Z"/><path class="n" d="M155.21,53.44c3.78-2.2,8.88-7.79,8.19-27.13-.57-10.7-2.29-12.47-4.17-14.63,0,0-12.27,.04-14.27-.18-2-.22-9.11,24.07,3.49,39.97l6.77,1.97Z"/><path class="t" d="M157.6,37.23c.8-.19,2.05-3.88,2.05-3.88,0,0,.54-5.62-.43-8.52l-4.97-.1-.11,12.44,3.45,.07h0Z"/><path class="o" d="M157.6,37.23c.8-.19,2.05-3.88,2.05-3.88,0,0,.54-5.62-.43-8.52l-4.97-.1-.11,12.44,3.45,.07h0Z"/><path class="aa" d="M157.6,37.23c-1.34,.32-2.88-2.69-2.8-11.8,.56-8.92,2.22-11.89,4.42-13.75,0,0-12-.12-14.31-.17-2.3-.05-3.07,25.52-.23,25.58,2.12,.04,12.91,.14,12.91,.14Z"/><path class="s" d="M144.95,11.5c2.3,.05,14.27,.18,14.27,.18-1.55,1.31-2.83,3.18-3.65,7.28h0c-.54-3.34-8.46-4.06-11.89-4.49,.17-.58,.73-1.9,1.27-2.97Z"/><path class="ab" d="M159.22,11.68c-1.7,1.24-3.26,5.4-4.15,10.67-.87,5.18,.09,10.77,1.01,12.68,1.5,3.14,2.18,.79,3.38-1.95,.22-1.5,.43-4.81-.24-8.31,.98,2.15,.88,7.17,.67,8.53-1.16,2.8-2.25,5.98-4.19,2.28-1.15-2.19-1.92-7.49-.99-13.33,.89-5.58,2.65-10.34,4.51-10.58Z"/><path class="ag" d="M12.93,53.44c-3.78-2.2-8.88-7.79-8.19-27.13,.57-10.7,2.29-12.47,4.17-14.63,0,0,12.27,.04,14.27-.18,2-.22,9.11,24.07-3.49,39.97l-6.77,1.97Z"/><path class="n" d="M12.93,53.44c-3.78-2.2-8.88-7.79-8.19-27.13,.57-10.7,2.29-12.47,4.17-14.63,0,0,12.27,.04,14.27-.18,2-.22,9.11,24.07-3.49,39.97l-6.77,1.97Z"/><path class="t" d="M10.54,37.23c-.8-.19-2.05-3.88-2.05-3.88,0,0-.54-5.62,.43-8.52l4.97-.1,.11,12.44-3.45,.07h0Z"/><path class="o" d="M10.54,37.23c-.8-.19-2.05-3.88-2.05-3.88,0,0-.54-5.62,.43-8.52l4.97-.1,.11,12.44-3.45,.07h0Z"/><path class="af" d="M10.54,37.23c1.34,.32,2.88-2.69,2.8-11.8-.56-8.92-2.22-11.89-4.42-13.75,0,0,12-.12,14.31-.17s3.07,25.52,.23,25.58c-2.12,.04-12.91,.14-12.91,.14Z"/><path class="p" d="M23.19,11.5c-2.3,.05-14.27,.18-14.27,.18,1.55,1.31,2.83,3.18,3.65,7.28h0c.54-3.34,8.46-4.06,11.89-4.49-.17-.58-.73-1.9-1.27-2.97Z"/><path class="ak" d="M84.07,46.69c-18.71,0-66.85,5.41-71.14,6.75,4.99-1.46,11.64-10.79,11.64-29.06C24.57,7.95,16.33,.61,12.92,0,29.2,6.05,63.99,9.16,84.07,9.16S139.36,5.19,155.22,0c-3.41,.61-11.65,7.95-11.65,24.38,0,18.28,6.65,27.6,11.64,29.06-4.29-1.34-52.43-6.75-71.14-6.75Z"/><path class="ab" d="M8.92,11.68c1.7,1.24,3.26,5.4,4.15,10.67,.87,5.18-.09,10.77-1.01,12.68-1.5,3.14-2.18,.79-3.38-1.95-.22-1.5-.43-4.81,.24-8.31-.98,2.15-.88,7.17-.67,8.53,1.16,2.8,2.25,5.98,4.19,2.28,1.15-2.19,1.92-7.49,.99-13.33-.89-5.58-2.65-10.34-4.51-10.58Z"/><path class="ac" d="M33.46,61.65l8.09-3.38,2.02-.84c.65-.26,1.43-.59,2.23-.37,.78,.21,1.37,.75,1.89,1.26,.52,.52,1.04,1.02,1.59,1.47,1.1,.9,2.38,1.63,3.77,1.72,1.39,.1,2.76-.42,4.15-.86,.7-.22,1.42-.44,2.18-.55,.76-.11,1.51-.11,2.26-.06,1.49,.1,2.93,.39,4.35,.45,2.84,.16,5.56-.96,8.29-1.99,2.72-1.02,5.77-1.93,8.84-1.2,.75,.19,1.49,.51,2.13,.9,.64,.37,1.21,.69,1.84,.74,.64,.06,1.34-.08,2.06-.21,.74-.13,1.49-.2,2.23-.22,2.99-.06,5.97,.8,8.42,2.42,.02,.02,.03,.05,.01,.07-.01,.02-.04,.03-.07,.02-2.56-1.38-5.49-1.99-8.34-1.81-.71,.05-1.41,.16-2.11,.3-.7,.14-1.45,.34-2.28,.29-.85-.04-1.6-.44-2.23-.78-.63-.35-1.24-.59-1.92-.74-1.33-.32-2.75-.26-4.14,0-1.4,.24-2.76,.67-4.13,1.16-2.72,.95-5.6,2.09-8.67,1.86-1.5-.1-2.93-.41-4.36-.53-.71-.06-1.42-.06-2.11,.02-.69,.09-1.38,.28-2.08,.49-1.38,.41-2.83,.95-4.39,.81-1.56-.13-2.92-.96-4.05-1.91-.57-.48-1.09-1.01-1.59-1.53-.5-.51-1.04-1-1.68-1.19-.64-.2-1.33,.05-2.01,.31l-2.04,.8-8.16,3.19s-.06,0-.07-.03c-.01-.02,0-.05,.03-.07Z"/><path class="ac" d="M39.46,69.88c1.34,1.14,2.72,2.32,4.38,2.88,1.66,.58,3.45,.26,5.09-.3,1.66-.57,3.31-1.24,4.97-1.86,1.66-.61,3.3-1.34,5.11-1.68,.9-.17,1.84-.24,2.78-.12,.92,.1,1.9,.46,2.66,.94,.38,.23,.7,.37,1.05,.42,.36,.05,.76,.02,1.17-.03,.81-.12,1.79-.33,2.74-.24,.94,.09,1.81,.31,2.67,.49,.87,.19,1.74,.37,2.6,.58,1.73,.4,3.45,.82,5.17,1.29,.03,0,.04,.03,.04,.06,0,.02-.03,.04-.05,.04-1.77-.19-3.53-.44-5.28-.7-.88-.12-1.75-.28-2.63-.42-.88-.14-1.75-.31-2.58-.34-.83-.07-1.6,.12-2.54,.27-.46,.07-.96,.09-1.48,0-.52-.09-1.02-.34-1.39-.58-1.38-.97-3.11-1.15-4.8-.89-1.69,.27-3.34,.93-5.02,1.5-1.68,.57-3.33,1.19-5.04,1.73-1.7,.51-3.62,.78-5.34,.1-1.71-.65-3.05-1.89-4.35-3.09-.02-.02-.02-.05,0-.07,.02-.02,.05-.02,.07,0Z"/><path class="ac" d="M61.94,82.77c1.47,.46,2.99,.91,4.47,.75,1.47-.13,2.85-1.01,4.56-1.04,.82-.02,1.6,.09,2.34,.1,.74,.02,1.49,.02,2.25-.02,1.51-.04,3.04-.23,4.61-.26,.03,0,.05,.02,.05,.05,0,.02-.01,.04-.03,.05-1.46,.56-2.98,.97-4.55,1.16-.79,.08-1.59,.1-2.39,.01-.8-.09-1.55-.25-2.28-.29-1.43-.1-2.88,.67-4.52,.74-1.63,.03-3.12-.57-4.54-1.15-.03-.01-.04-.04-.03-.07,.01-.02,.04-.04,.06-.03Z"/><path class="u" d="M99.74,90.94c2.08,10.13,2.98,44.12,1.95,54.24,5.19-4.28,14.14-14.66,15.89-18.42,3.57,6.36,12.52,15.96,16.8,19.33-1.3-12.45-.78-47.27,.65-55.95-10.64,2.61-20.63,3.28-35.29,.81Z"/><path class="v" d="M135.02,90.14c-10.64,2.61-20.63,3.28-35.29,.81,2.08,10.13,2.98,44.12,1.95,54.24,5.19-4.28,14.14-14.66,15.89-18.42,3.57,6.36,12.52,15.96,16.8,19.33-1.3-12.45-.78-47.27,.65-55.95Zm-4.51,45.74c-5.51-4.49-8.85-8.56-13.13-16.83-3.7,7.98-8.04,13.72-11.68,16.35,.02-11.43-.34-28.82-1.33-38.47,3.85,.45,8.59,.49,12.05,.49,4.38,0,9.68-.35,14.09-1.09-.66,9.77-.27,27.54,0,39.56Z"/><rect class="al" x="98.73" y="68.74" width="38.05" height="38.05" rx="5" ry="5" transform="translate(-27.57 108.97) rotate(-45)"/><path class="r" d="M99.74,90.94c.46,2.23,.86,5.62,1.19,9.65l14.01,14.01c1.71,1.71,4.47,1.71,6.18,0l12.98-12.98c.23-5.05,.55-9.19,.92-11.48-10.64,2.61-20.63,3.28-35.29,.81Z"/><rect class="a`" x="99.78" y="68.16" width="35.59" height="35.59" rx="4.37" ry="4.37" transform="translate(-26.35 108.31) rotate(-45)"/><path class="w" d="M102.76,96.31l11.34,11.89c1.92,1.92,5.04,1.92,6.96,0l11.34-11.89-11.34,9.8c-1.92,1.92-5.04,1.92-6.96,0l-11.34-9.8Z"/><path class="x" d="M95.88,84.67l18.21-18.21c1.92-1.92,5.04-1.92,6.96,0l18.21,18.21c.68,.68,1.11,1.51,1.31,2.39,.36-1.59-.06-3.33-1.31-4.57l-18.21-18.21c-1.92-1.92-5.04-1.92-6.96,0l-18.21,18.21c-1.24,1.24-1.67,2.98-1.31,4.57,.2-.87,.63-1.71,1.31-2.39Z"/><path class="al" d="M127.74,82.78l-7.17-7.17c-1.76-1.76-4.61-1.76-6.37,0l-7.17,7.17c-1.76,1.76-1.76,4.61,0,6.37l.06,.06c-.41-1.51-.04-3.18,1.14-4.36l6.61-6.61c1.41-1.41,3.69-1.41,5.1,0l6.61,6.61c1.18,1.18,1.55,2.86,1.14,4.36l.06-.06c1.76-1.76,1.76-4.61,0-6.37Z"/><path class="aj" d="M13.85,.29c-.31-.1-.63-.19-.93-.29,.28,.05,.59,.15,.93,.29Z"/><path class="o" d="M13.85,.29c3.2,.99,7.09,1.94,11.43,2.82h0c10.27,8.54,11.46,39.15-3.2,48.86-4.8,.63-8.16,1.16-9.15,1.47,4.99-1.46,11.64-10.79,11.64-29.06C24.57,9.3,17.63,1.88,13.85,.29Z"/><path class="x" d="M127.74,86.95l-7.17,7.17c-1.76,1.76-4.61,1.76-6.37,0l-7.17-7.17c-.6-.6-.97-1.32-1.17-2.09-.37,1.49,0,3.12,1.17,4.28l7.17,7.17c1.76,1.76,4.61,1.76,6.37,0l7.17-7.17c1.16-1.16,1.54-2.8,1.17-4.28-.19,.76-.57,1.49-1.17,2.09Z"/><path class="ab" d="M12.92,0c5.31,2.51,10.94,11.42,11.11,24.38,.17,13.1-3.68,24.43-11.1,29.06,6.17-2.25,12.57-11.46,12.35-29.06C25.05,6.07,14.93,.24,12.92,0Z"/><path class="aj" d="M154.29,.29c.31-.1,.63-.19,.93-.29-.28,.05-.59,.15-.93,.29Z"/><path class="o" d="M154.29,.29c-3.2,.99-7.09,1.94-11.43,2.82h0c-10.27,8.54-11.46,39.15,3.2,48.86,4.8,.63,8.16,1.16,9.15,1.47-4.99-1.46-11.64-10.79-11.64-29.06,0-15.08,6.95-22.5,10.72-24.09Z"/><path class="ab" d="M155.22,0c-5.31,2.51-10.94,11.42-11.11,24.38-.17,13.1,4.32,24.62,11.1,29.06-5.74-1.71-12.57-11.46-12.35-29.06,.22-18.31,10.35-24.14,12.36-24.38Z"/><path class="ad" d="M153.69,53.1c-19.12-4.8-49.33-7.44-69.63-7.45-27.66-.02-55.61,4.3-71.14,7.79,.25,.18,2.76-.77,3.05-.6,11.78-1.9,51.5-6.15,68.09-6.15,17.41,0,60.29,4.68,69.62,6.41Z"/><path class="ae" d="M124.12,93.65c.53,.53,.1,1.83-.96,2.89-1.06,1.06-2.36,1.5-2.89,.96-.53-.53-.1-1.83,.96-2.89,1.06-1.06,2.36-1.5,2.89-.96Z"/><path class="r" d="M117.57,126.76c3.57,6.36,12.52,15.96,16.8,19.33-.51-4.92-.74-13.32-.74-22.23-11.13,2.84-24.19,2.62-31.62-.8,.2,9.24,.11,17.83-.33,22.12,5.19-4.28,14.14-14.66,15.89-18.42Z"/></g></g></g></g></svg>