<?xml version="1.0" encoding="UTF-8"?><svg xmlns="http://www.w3.org/2000/svg" viewBox="0 0 983.22 1351.58"><defs><style>.d{opacity:.45;}.d,.e,.f,.g,.h,.i,.j{fill:#fff;}.k{fill:#4662bc;}.l{fill:#3a4baf;}.m{fill:#efba0f;}.n{fill:#d8924c;}.e{opacity:.26;}.f{opacity:.5;}.g{opacity:.24;}.o{fill:#f75b37;}.p{fill:#e8a664;}.q{fill:#e8ead6;}.r{fill:#d68243;}.h{opacity:.33;}.s{fill:#cc2e19;}.i{opacity:.31;}.t{fill:#f2d31d;}.j{opacity:.36;}.u{fill:#231f20;}.v{fill:#c97d20;}</style></defs><g id="a"/><g id="b"><g id="c"><g><path class="s" d="M98.96,954.71c41.23,44.6,137.8,70.56,190.82,77.51,53.02,6.95,107.26,1.19,158.85-12.89,50.91-13.89,102.98-59.66,101.04-73.7-5.92-42.78-59.64-134.47-79.77-172.68-5.42-10.29-11.77-20.72-21.7-26.77-17.64-10.75-40.74-4.46-58.82,5.53-44.68,24.71-75.08,68.2-107.54,107.61-32.46,39.41-72.16,78.01-122.61,85.85-6.12,.95-20.41,.15-24.31,5.69-3.75,5.34-25.05,1.84-33.18,2.26-.97,.05-.91,.34-2.8,1.58Z"/><g><path class="v" d="M197.39,1078.33c1.33-.63,2.88-.61,4.33-.34,3.02,.57,5.73,2.16,8.36,3.74,7.9,4.74,15.73,9.72,22.46,16.01,7.15,6.68,12.91,14.67,19.03,22.3,5.9,7.35,12.16,14.41,18.77,21.13,3.19,3.25,7.26,6.4,8.81,10.68,.86,2.37-.27,3.64-.42,3.84-1.74,2.33-3.68,2.97-6.1,3.52-11.48,2.61-23.41,3.2-35.09,1.74-9.71-1.22-19.8-4.19-26.33-11.47-3.86-4.31-6.15-9.77-8.21-15.18-4.13-10.87-7.64-22.21-7.67-33.85-.01-4.4-.44-8.42-.97-12.74-.4-3.23-.41-7.74,3.03-9.39Z"/><path class="p" d="M274.44,1148c-34.89,68.26-66.78,40.6-107.18,170.51-15.57-3.85-31.04-9.68-45.64-17.19,40.87-80.55,68.81-167.72,83.08-259.15,3.99-25.6,12.37-67.88,16.1-93.57,2.68-18.47-1.5-30.81,32.64-14.47,36.99,17.71,34.71,4.12,35.55,27.9,1.08,30.36-.61,158.7-14.55,185.97Z"/><path class="r" d="M216.88,972.71c28.85,5.07,58.56,39,71.07,70.82,2.17-16.11,4.1-47.65,5.42-62.12,2.07-22.61,7.88-27.14,10.64-31.91,9.1-15.75,27.66-45.88,36.75-61.63,10.57-18.3,7.42-25.04,14.05-45.1,1.45-4.39,2.6-9.57-.05-13.36-1.66-2.37-4.49-3.64-7.27-4.42-13.12-3.69-27.06,1.02-39.5,6.6-20.3,9.11-39.67,20.86-55.4,36.61-13.59,13.61-25.07,30.86-29.87,49.68-4.64,18.21-3.94,36.03-5.84,54.84Z"/><path class="p" d="M200.72,1300.63c3.02,8.02,3.81,17.54-.44,24.91-56.34,1.49-104.35,1.78-160.71,1.03-1.44-.02-2.89-.04-4.28-.45-5.73-1.7-7.79-8.87-8.92-14.94,23.21,6.05,40.98,4.33,66.11-7.57,6.81-3.23,31.56-23.56,42.61-35.53,6.5-7.04,5.57-13.78,16-15.54,5.71-.96,11.55-2.32,17.37-2.13,9.29,.3,17.47-.42,19.01,9.04,2.4,14.72,8.52,28.63,13.24,41.17Z"/><path class="l" d="M111.46,1311c.11,2.56-.35,5.28-2.03,7.22-1.53,1.77-3.83,2.63-6.05,3.35-22.52,7.27-46.77,6.4-70.4,5.07-2.42-.14-4.97-.25-7.15,.82-2.18,1.07-3.76,3.76-2.75,5.97,23.68,.97,47.37,1.94,71.08,2.16,24.35,.23,48.71-.34,73.05-.9,13.52-.31,27.04-.63,40.56-.94,.62-3.47,.61-8.11-2.71-9.27-2.51-.88-5.43,1.02-7.87-.04-1.93-.85-2.67-3.15-3.22-5.19-3.34-12.5-7.74-25.4-17.22-34.21-8.41-7.82-19.97-11.51-31.4-12.53-6.17-.55-12.55-.36-18.29,1.97-4.76,1.93-8.81,5.21-12.8,8.45-5.9,4.81-10.49,11.97-16.1,17.1,8.22-2.36,12.93,3.05,13.28,10.98Z"/><path class="t" d="M165.52,1278.49c14.37,7.06,26.68,18.71,37.38,30.63-1.72-7.42-4.2-14.84-5.93-22.26-1.43-6.15-2.87-12.43-2.21-18.71,.82-7.86,4.83-15.01,9.18-21.6,21.64-32.77,53.39-57.92,74.79-90.85-14.89,4.78-30.61-3.91-42.92-13.56-19.95-15.66-37.95-36.57-40.95-61.75-7.73,37.14-18.95,68.59-29.48,102.79-10.53,34.19-27.44,68.48-48.34,97.52,10.89-8.4,36.08-8.29,48.47-2.2Z"/><path class="m" d="M203.94,1246.55c21.64-32.77,53.39-57.92,74.79-90.85-9.13,2.93-18.58,.79-27.36-3.52-7.62,3.15-15.98,4.47-23.48,1.43-7.01-2.84-12.05-8.96-16.79-14.85-6.85-8.52-13.4-17.12-17.24-27.46-1.49,9.04,8.25,21.08,13.24,27.92,6.85,9.4,14.82,17.91,22.78,26.37-26.73,24.99-38.09,62.17-44.82,98.14-8.15-9-22.18-12.09-33.36-7.35,5.03-.17,10.1,.92,14.62,3.12,1.55,.75,3.09,1.69,4.05,3.12,1.1,1.65,1.29,3.72,1.44,5.69,.27,3.39,.53,6.86-.38,10.14-.25,.91-.62,1.81-1.08,2.65,12.17,7.13,23.07,17.47,32.55,28.01-.97-7.76-4.2-14.84-5.93-22.26-1.43-6.15-2.86-12.43-2.21-18.71,.81-7.86,4.83-15.01,9.18-21.6Z"/><path class="m" d="M196.35,1135.6c3.71,9.15,8.37,17.99,13.69,26.3,2.59,4.05,5.48,7.88,8.54,11.58,3.18,3.84,5.84,8.57,10.67,10.31,3.87,1.39,6.33-3.25,4.87-6.34-1.84-3.9-6.32-6-9.46-8.85-3.54-3.21-6.91-6.65-10.21-10.1-6.77-7.06-12.57-14.79-17.87-22.99-.07-.11-.28-.04-.22,.09h0Z"/><path class="j" d="M151.01,1234.03c12.86-19.36,25.19-39.09,35.94-59.69,3.24-6.21,6.35-12.55,8.17-19.32,1.56-5.81,2.67-18.17-5.66-19.93-6.43-1.36-6.34,13.81-7.4,18.27-4.29,18.01-10.81,35.4-18.13,52.37-3.93,9.11-7.42,20.02-12.91,28.3Z"/></g><ellipse class="q" cx="394.32" cy="1341.42" rx="394.32" ry="10.16"/><g><path class="v" d="M462.5,1143.62c3.3-4.47,8.59-6.99,13.79-8.97,17.4-6.62,36.15-9.09,54.76-9.43,6.29-.11,12.77,.05,18.54,2.54,5.77,2.49,10.73,7.84,10.97,14.12,.17,4.5-2.08,8.84-5.27,12.02-3.19,3.18-7.24,5.34-11.35,7.19-24.67,11.11-55.28,12.15-79.41-.95-6.07-3.29-6-11.16-2.03-16.54Z"/><path class="p" d="M455.99,940.74c5.6,15.31,11.75,30.56,20.62,44.24,4.69,7.23,10.74,14.4,19.11,16.47,11.86,2.94,31.08,13.28,36.17,2.17,5.08-11.11,.21-47.29-.18-59.5-1.47-45.89-5.38-87.53-6.85-133.42-1.89-58.95-24.42-96.16-44.27-151.7-2.83-7.93-88.06-18.66-85.67,18.15,3.61,55.59,18.85,113.99,32.22,167.94,8.01,32.34,17.41,64.35,28.86,95.65Z"/><path class="p" d="M549.23,1037c-6.25-21.9-12.5-43.79-18.75-65.69-.83-8.82-1.31-16.75-1.21-22.93,.27-18.66,6.35-30.19-29.94-19.44-39.32,11.65-34.92-1.42-39.51,21.93-5.86,29.81-16.83,139.07-4,166.87,33.32,72.2,35.05,74.81,44.2,204.97,15.99-1.35,31.14-3.48,46.75-8.59-3.39-58.88-3.79-102.91-2.83-153.02,4.36-17.55,11.73-38.38,15.3-56.25,4.43-22.16-3.81-46.12-10.02-67.85Z"/><path class="r" d="M497.2,924.79c19.84,9.39,29.94,32.64,36.83,53.48-1.17-39.82-3.07-81.66,.42-122.33,.17-1.93,.33-3.91-.18-5.78-.48-1.73-1.51-3.25-2.54-4.72-19.1-27.32-108.4-99.87-134.93-120.05-6.12,23.32,28.57,101.47,29.96,125.39,.72,12.29,19.57,61.93,20.23,64.64,0,0,18.37-5.7,50.21,9.37Z"/><path class="l" d="M480.89,1336.89c.35,.9,.79,1.8,1.47,2.49,.68,.69,1.57,1.14,2.46,1.55,6.43,2.9,13.57,3.77,20.61,4.29,14.29,1.06,28.68,.8,42.93-.75,3.93-.43,7.88-.96,11.61-2.27,2.14-.75,4.32-1.87,5.39-3.86,.77-1.42,.87-3.1,.84-4.72-.04-1.96-.26-3.92-.65-5.84-.31-1.54-.8-3.15-2.02-4.14-1.38-1.11-3.3-1.13-5.07-1.11-9.43,.11-18.86-.13-28.27-.7-8.64-.53-17.27-1.33-25.93-1.51-4.38-.09-8.76-.02-13.13,.35-2.18,.18-4.35,.43-6.51,.77-2.22,.35-2.96,.17-3.8,2.06-1.79,4.07-1.52,9.33,.07,13.4Z"/><path class="t" d="M505.09,1095.13c2.15-2.28,5.32-4.42,8.41-3.92,2.83,.46,7.82,3.6,9.26,6.09,8.31,14.29,12.98,31.41,25.69,41.99,3.07,2.56,11.68,6.49,11.68,6.49,0,0-10.57,91.01-7.07,131.74,1.06,12.31,2.52,24.9-.55,36.86-3.82-.94-5.99-4.83-8.71-7.68-7.02-7.36-18.95-8.05-28.43-4.38-9.48,3.67-17.1,10.87-24.46,17.89,2.43-2.32,1.04-21.9,.86-25.55-.46-9.03,1.87-19.55,.95-28.54-1.77-17.29-8.93-31.41-12.38-48.45-3.53-17.38-19.81-61.91-19.81-61.91,0,0,10.62-7.12,20.41-19.96,9.85-12.91,12.96-28.78,24.18-40.67Z"/><path class="p" d="M487.61,1310.73c3.8-7.82,7.91-15.62,13.78-22.03,5.87-6.41,13.77-11.36,22.43-12.07,8.66-.71,17.97,3.52,21.74,11.36,3.53,7.34,2.06,16.81,7.24,23.1,2.63,3.19,6.56,5,9.6,7.81,3.04,2.81,5.09,7.65,2.69,11.01-2.06,2.9-6.2,3.15-9.75,3.12-18.55-.15-37.1-.31-55.65-.46-4.56-.04-18.7,2.35-19.84-2.89-.82-3.76,6.12-15.54,7.77-18.94Z"/><path class="m" d="M548.46,1139.27c-1.73-1.44-3.3-3.01-4.76-4.66-2.7,2.36-5.9,4.29-9.21,3.35-2.59-.74-4.36-3.05-5.87-5.29-3.27-4.85-6.15-9.97-8.6-15.28-2.78-6.01-8.3-13.87-15.7-8.39-5.84,4.32-7.55,13.1-9.98,19.35,1.5-3.85,3.64-7.79,7.36-9.58,5.27-2.54,11.78,.31,15.63,4.71,3.85,4.4,5.86,10.07,8.57,15.25,2.72,5.18,12.56,17.26,18.21,18.75-11.4,1.32-24.49-22.21-35.65-19.53,9,2.97,34.22,22.14,31.44,50.29-2.03,20.52-6.08,40.8-9.12,61.2-9.23,3.12-19.61,7.36-22.73,16.58,3.82-7.11,12.11-11.56,20.15-10.81,1.06,.1,2.17,.3,3.02,.95,2.04,1.56,1.62,4.67,2.05,7.21,.54,3.21,2.67,5.89,4.72,8.41,5.39,6.61,10.78,13.22,16.17,19.83-.25-4.71-.71-9.44-1.11-14.12-3.5-40.73,7.07-131.74,7.07-131.74,0,0-8.6-3.93-11.68-6.49Z"/><path class="j" d="M479.63,1163.63c-.22,12.54,2.48,24.93,5.53,37.09,4.84,19.27,10.64,38.29,17.37,56.99-3.15-16.81-6.29-33.62-9.44-50.43-2.61-13.93-4.98-29.31,2.32-41.45,2.5-4.15,6.19-8.28,5.55-13.09-.75-5.58-8.82-8.95-13.68-6.82-6.09,2.66-7.54,11.99-7.64,17.72Z"/><path class="r" d="M533.5,1304.12c.53,2.88-.16,6.11-2.29,8.12-2.41,2.27-6.1,2.65-8.66,4.75,5.3,.05,10.59,1.07,15.54,2.97,2.55,.98,5.45,2.99,4.95,5.68-.35,1.87-2.23,3.01-3.98,3.75-5.4,2.28-11.5,2.78-17.51,3.36,4.44,.42,8.41,.48,12.37,.45,8.1-.05,16.08,.15,24.18,.09,3.34-.02,7.28-1.23,8.49-4.34,1.2-3.1-1.47-6.25-3.91-8.52-8.71-8.09-17.45-16.21-26.96-23.34-1.18-.89-8.77-5.58-7.84-1.36,.27,1.23,2.68,2.52,3.47,3.56,1.07,1.42,1.83,3.09,2.15,4.84Z"/><path class="l" d="M497.22,1286.96c5.42-6.3,11.87-12.17,19.85-14.49,12.83-3.73,27.36,3.19,34.3,14.6,6.15,10.12,9.02,25.72,14.15,36.4-11.38-8.69-11.58-14-31.43-24.42-5.42-2.85-18.83-9.08-31,.67-3.11,2.49-11.91,14.61-14.82,17.32-1.44,1.34-7.16,6.82-7.16,6.82-2.51,.01,13.25-33.58,16.1-36.89Z"/></g><path class="t" d="M676.31,783.18c-2,10.45-2.2,21.31-2.39,32.06l-1.73,99.79c5.71,.91,11.43,1.81,17.14,2.72,.83-8.43,1.66-16.87,2.5-25.3,.16,10.85,.11,21.71-.15,32.56,4.44,.84,8.95,1.16,13.44,.97,.5-10.09,1.01-20.17,1.51-30.26,.64,6.36,1.29,12.73,1.93,19.09,2.22,.45,4.44,.9,6.67,1.36-1.67-48.48-6.42-96.79-14.18-144.32-1.24-7.61-4.49-20.04-12.41-15.65-6.82,3.77-10.75,18.76-12.32,26.99Z"/><path class="m" d="M679.15,865.94c4.29-11.09,8.59-22.21,11.86-33.65-3.47,29.19-6.24,58.45-8.32,87.77,1.49,.28,2.98,.56,4.47,.84,2.73-6.42,4.68-13.16,5.79-20.05-2.01,9.13-3.18,18.44-3.51,27.79,6.67,.15,13.32,1.16,19.73,3.02-1-3.57-1.33-7.32-.98-11.01l.11,5.27c3.32-.51,6.64-1.03,9.97-1.54,.18-39.31-2.11-78.64-6.85-117.67-1.86-15.31-4.12-30.64-8.64-45.38-1.03-3.37-2.29-6.87-4.97-9.16-11.08-9.51-9.08,9.87-9.17,15.01-.2,11.23-.7,22.45-1.49,33.66-.78,11.01-1.85,21.99-3.2,32.94-1.23,9.94-1.19,22.79-4.81,32.15Z"/><path class="p" d="M601.27,365.6c.7,14.21-5.16,29.31-.24,42.65,4.49,12.18,11.39,29.9,16.03,44.76,10.95,35.12,16.43,58.56,20.42,95.13-14.13,4.59-54.6,7.25-66.11,16.65-24.65-32.8-48.06-26.94-79.86-143.38-6.73-24.65-34-30.09-35.41-55.6-1.41-25.38,7.03-51.18,23.16-70.82,10.45-12.72-.33-34.19,14.8-40.66,20.43-8.74,49.3,9.4,62.97,26.44,21.1,26.31,42.53,50.33,44.24,84.85Z"/><path class="n" d="M557.94,524.39c4.79-4.17,10.45-7.19,16.12-10.04,11.21-5.64,22.67-10.79,34.28-15.54-15.09,4.71-30.13,9.58-45.12,14.61-4.53,1.52-9.05,3.05-13.48,4.83-4.94,1.98-9.82,4.31-13.83,7.81-.35,.31-2.53-.76-2.66-.31-.24,.86,2.29,3.08,2.94,3.7,2.41,2.28,4.85,4.52,7.31,6.74,1.75,1.57,4.96,5.77,7.16,6.53-.89-.99-1.15-3.05-1.3-3.92-.3-1.69-.11-2.83,.64-4.38,1.88-3.86,4.71-7.22,7.94-10.03Z"/><path class="l" d="M495.21,173.43c11.19,16.34,23.58,32.27,39.71,43.76,16.13,11.49,36.59,18.14,55.98,14.14-13.37,30.67-32.99,59.47-60.6,78.38-27.61,18.91-63.97,26.74-95.44,15.35-25.58-9.26-45.91-30.44-57.12-55.22-11.21-24.78-13.82-52.88-10.69-79.9,2.1-18.11,6.99-36.53,18.48-50.69,9.26-11.42,22.12-19.24,34.71-26.84,5.25-3.17,10.81-6.44,16.94-6.66,4.19-.16,8.28,1.13,12.25,2.47,5.63,1.91,16.31,3.69,20.33,8.36,3.2,3.72,2.91,11.26,4.2,15.8,4.24,14.92,12.56,28.36,21.26,41.05Z"/><path class="o" d="M561.15,229.85c16.69,4.44,35.4,.49,48.86-10.34-10.31,32.33-21.88,64.25-34.68,95.67-.14,.35-.31,.72-.64,.89-.31,.16-.67,.1-1.01,.03-10.1-1.99-19.4-7.8-25.63-16-4.03-5.3-6.74-11.57-7.95-18.11-1.32-7.2,.12-8.91,4.43-14.09,8.89-10.67,14.6-24.39,16.62-38.07Z"/><path class="n" d="M281.95,546.56c.17-.35,.37-.73,.72-.91,4.19-2.15,6.86,5.45,6.95,6.58,.5,6.48-1.21,10.36-1.42,16.86-.05,1.64-3.45,1.68-4.64,2.81-.77,.73-1.85,1.03-2.88,1.29-4.94,1.25-10.05,2.27-15.17,2.09-3.03-.11-11.82-.82-12.55-4.78-.7-3.84,5.85-5.74,8.41-6.61,4.16-1.42,8.02-3.35,11.46-6.1,3.8-3.03,6.97-6.86,9.12-11.23Z"/><path class="l" d="M220.96,146.56c-32.76,90.07-17.51,194.19-60.67,279.76-1.76,3.5-3.67,7.21-3.28,11.11,.29,2.93,1.87,5.57,3.5,8.03,19.01,28.68,51.08,47.62,85.01,53.42,33.92,5.8,69.37-.92,100.32-15.98,1.98-.96,4.04-2.04,5.2-3.91,1.46-2.34,1.17-5.33,.77-8.05-2.56-17.35-7.76-34.18-12.86-50.96-19.66-64.6-38.32-130.15-42.92-197.52-3.69-54.08,2.15-109.82,23.14-160.16,5.18-12.41,23.63-37.19-2.46-32.89-22.22,3.67-37.33,21.27-50.8,37.86-19.24,23.69-34.51,50.6-44.94,79.29Z"/><path class="p" d="M292.77,628.5c-.99,17.02,2.25,34.99,14.24,48.51,20.25,22.85,57.86,26.3,91.13,27.88,12.63,.6,26.78,.74,36.02-6.71,4.66-3.76,7.35-8.97,9.78-14.07,20.55-43.03,31.98-89.3,33.55-135.83,.4-11.71-.27-24.51-9.09-33.41-5.06-5.11-12.28-8.28-19.67-10.4-80.51-23.07-152.47,63.89-155.96,124.02Z"/><path class="p" d="M160.85,334.35c-8.72,11.24-16.53,27.88-20.11,30.13-10.91,6.86-31.33,23.01-43.64,32.52-29.1,22.5-58.34,48.32-67.22,71.39,8.95,11.86,30.92,53.44,34.97,67.74,48.42-45.65,78.8-39.29,135.07-81.9,28.75-21.77,50.82-56.69,83.85-72.44,22.94-10.94,19.5-10.06,17.55-35.4-1.27-16.42-6.66-32.46-15.35-46.43-11.74-18.87-18.06-23.18-39.03-17.05-32.37,9.46-64.9,24.12-86.09,51.42Z"/><path class="p" d="M718.54,633.1c3.19,5.36,14.72,19.64,18.27,24.76,3.36,4.85,7.79,8.87,12.23,12.75,12.36,10.82,25.22,21.05,38.53,30.67l-17.72,23.16c-46.68-16.96-94.09-51.32-144.3-82.66-10.58-6.6-48.47-59.73-57.44-80.09-2.72-6.17,30.95-13.82,36.62-42.85,12.18,10.08,59.18,50.67,68.04,56.45,23.61,15.4,30.51,32.16,45.76,57.8Z"/><path class="p" d="M755.58,668.03c4.7-2.1,9.4-4.92,14.54-4.7,3.64,.15,7.53-.06,10.99,1.11,5.71,1.94,12.44-5.43,25.25-4.04-.62,3.09-6.92,12.99-7.54,16.08,9.78,5.28-22.69,60.66-28.68,58.56-15.93-5.58-19.05-6.61-33.46-15.41-24.28-14.84-42.45-37.83-58.01-61.66,2.28,3.49,15.07,6.02,19.03,7.3,6.46,2.1,13.04,3.87,19.68,5.3,13.52,2.9,25.23,3.26,38.19-2.55Z"/><path class="p" d="M562.71,306.45c-.53-8.66-5.76-16.52-11.53-23.52-14.41-17.51-33.14-29.74-57.56-32.42-17.2-1.89-62.88-4.96-100.74-3.8-37.86-1.16-83.54,1.91-100.74,3.8-24.42,2.69-43.15,14.92-57.56,32.42-5.77,7.01-11,14.87-11.53,23.52-.45,7.35,2.51,14.46,4.87,21.52,3.28,9.81,5.46,19.91,6.5,30.1,.5,4.95,.76,10.03,2.93,14.6,2.47,5.2,7.17,9.27,11.64,13.28,50.24,45.12,47.79,114.73,48.64,180.3,19.34,.15,65.45-7.79,95.25-9.23,29.8,1.44,80.52,3.29,99.86,3.14-5.65-70.4-6.21-129.08,44.03-174.2,4.47-4.02,9.17-8.08,11.64-13.28,2.17-4.58,2.43-9.66,2.93-14.6,1.03-10.19,3.21-20.29,6.5-30.1,2.36-7.05,5.33-14.17,4.87-21.52Z"/><path class="p" d="M346.85,176.35c20.58,5.34,74.57,8.72,95.68,6.96,2.47,12.35-3.44,93.53-22.4,120-23.97,33.46-70.98,11.26-98.09,4.72-5.04-1.22-10.41-2.91-13.57-7.3-3.54-4.91-17.23-21.83-12.68-25.89,13.49-12.06,34.61-18,45.33-32.83,17.72-24.49,14.07-44.27,5.73-65.66Z"/><g><path class="p" d="M436.5,194.31c-5.13,1.18-10.28,2.36-15.44,3.43l8.85-.13c2.2-1.1,4.4-2.19,6.6-3.29Z"/><path class="p" d="M507.52,134c-3.88-11.44-12.88-20.78-16.29-32.37-1.81-6.17-7.45-13.19-3.63-20.37,2.27-4.27-1.84-13.88-3.13-20v-.04c-2.25-15.75-7.41-29.96-20.41-39.29-20-14.33-45.42-19.25-70.03-19.14-32.63,.15-66.53,9.36-89.92,32.11-23.39,22.75-33.3,60.79-17.58,89.38,7.35,13.37,19.26,23.52,28.98,35.27,7.55,9.12,13.93,19.37,23.01,26.97,13.05,10.92,32.18,7.23,48.72,11.21,20.22,4.86,88.66,2.2,92.7,0,1.52-.83,.48-11.76,2.34-22.28,.37-2.08,4.06-3.28,4.38-5.33,1.63-10.39,2.41-18.79,2.58-24.4,5.48-2.69,10.95-5.39,16.43-8.08,.9-.44,1.91-1.02,2.1-2.01,.1-.54-.08-1.1-.26-1.62Z"/></g><path class="k" d="M393.88,91.17c10.27-9.04,22.08-16.17,34.27-22.4,12.23-6.25,24.99-11.67,38.42-14.51,5.36-1.13,10.9-1.85,16.32-1.09-1.16-10.52-6.16-20.57-13.85-27.85-9.98-9.44-23.6-13.81-36.8-17.6-10.3-2.96-20.93-5.76-31.6-4.69-10.28,1.03-20.05,5.7-27.85,12.48-7.8,6.78-13.7,15.58-17.78,25.08-6.64,15.48-8.15,32.95-4.95,49.43,1.63,8.43,4.49,16.62,8.54,24.2,1.46,2.73,3.44,8.09,7.1,8.16,3.59,.07,6.56-4.57,8.24-7.13,5.84-8.92,11.89-17,19.95-24.09Z"/><path class="o" d="M280.48,343.58c17.33,8.86,36.02,15.17,55.28,17.99,13.82,2.02,27.83,2.24,41.79,1.93,15.93-.36,31.88-1.43,47.58-4.13,54.56-9.4,104.38-35.68,145.09-73.2-12.77-11.78-36.16-39.73-100.99-45.92-1.72-.16-14.66,2.65-16.26,3.31-1.83,.75-3.24,2.25-4.64,3.64-15.78,15.67-38.87,23.21-61.02,21.28-22.15-1.94-43.12-12.97-58.34-29.19-1.5-1.59-3.03-3.3-5.09-4.03-2.49-.89-5.24-.2-7.78,.52-27.53,7.8-54.27,18.38-79.69,31.51-6.47,3.34-12.99,6.73-19.2,10.54-6.85,4.21-6.09,6.93-1.38,12.99,8.02,10.32,17.47,19.69,27.46,28.08,11.42,9.58,23.91,17.89,37.19,24.68Z"/><path class="o" d="M290.27,590.83c-3.4,73.48-19.29,131.44-67.27,205.71-43.27,66.98-73.35,116-118.25,150.83,37,11.99,101.88-11.01,138.99-22.66,22.65-7.11,44.24-10.46,62.39-25.77,16.07-13.56,37.53-18.42,48.12-36.59,44.24-75.92,68.45-163.39,69.53-251.25,1.17,42.94-2.91,101.62,2.93,144.18,3.59,26.2,107.89,121.34,124.8,190.38,2.29-25.17-19.23-111.41-24.42-142.23-20.75-123.3-31.24-118.52-51.14-237.18,.72,1.19-96.75,11.62-106.97,10.97-18.2-1.16-35.54-4.98-53.44-7.91-18.12-2.97-24.39,2.6-25.27,21.53Z"/><path class="t" d="M282.95,920.56c20.1-10.07,91.23-47.26,84.28-95.19-3.34-3.2-7.37-5.69-11.72-7.25-7.47,36.53-40.34,54.86-74.3,77.97-30.83,20.98-150.71,46-161.9,44.25-17.92-2.79-20.35,14.37-20.35,14.37,38.98,26.97,163.89-24.07,183.99-34.15Z"/><path class="s" d="M351.81,791.41c13.17-15.77,26.24-31.67,37.84-48.64-4-10.15-8-20.3-12-30.45-41.72,80.21-102.74,150.29-176.45,202.64,48.46-13.22,89.62-54.2,122.33-90.65,9.66-10.77,18.72-22.04,28.27-32.9Z"/><path class="s" d="M255.09,849.99c37.07-41.03,60.54-92.28,82.63-142.97,6.8-15.62,13.56-31.36,17.74-47.87,1.37-5.42,2.46-11.14,1.03-16.54-1.43-5.4-6.07-10.33-11.66-10.33-12.01,0-11.82,29.21-13.71,38.28-3.29,15.79-7.08,31.48-11.55,46.98-8.81,30.54-20.24,60.43-35.52,88.35-8.24,15.05-17.39,31.32-28.95,44.11Z"/><path class="s" d="M479.84,707.7c-.25,29.46-2.6,59.45-13.47,86.83,11.9,6.34,19.63,18.23,26.84,29.63,9.51,15.02,19.01,30.05,28.52,45.07,12.59,19.9,25.36,40.18,31.6,62.89-9.78-81.41-8.71-157.49-24.14-238.02-7.2-37.56-11.56-69.81-32.03-102.11-4.08-6.45-33.96-32.45-43.24-25.18-5.65,4.43-14.89,47.22-9.64,47.75,23.67,2.37,30.56,19.5,33.45,45.64,1.74,15.76,2.23,31.65,2.1,47.5Z"/><path class="t" d="M500.01,853.13c20.44,30.89,39.2,56.77,49.17,96.3,4.16-2,7.38-13.26,6.67-20.2-1.13-11.01-2.29-22.16-6.13-32.55-3.26-8.82-8.56-16.7-13.57-24.66-24.97-39.66-65.98-72.98-100.45-112.24-9.42-10.73-5.17-25.93-16.06-35.16-4.5,9.16-2.94,40.57,4.88,51.8,15.41,22.13,60.6,54.21,75.48,76.71Z"/><path class="k" d="M327.78,719.27c-.23,77.95,3.64,155.91,11.59,233.4,.12,1.15,.27,2.37,.99,3.24,.82,.98,2.15,1.24,3.38,1.45,16.33,2.74,32.65,5.47,48.98,8.2,9.55-29.48,14.84-60.25,20.11-90.88l13.67-79.54c3.93-22.85,10.63-44.08,13.51-67.1,5.09-40.69,10.93-85.2,9.43-126.2-.35-9.55-8.11-18.38-14.75-24.9-5.01-4.91-12.16-6.39-18.92-7.58-25.39-4.47-67.92-18.33-77.72,13.21-12.45,40.07-10.14,95.01-10.26,136.71Z"/><path class="l" d="M411.49,687.03c-4.51,73.82-20.65,146.85-47.57,215.24-4.09,10.38-9.77,21.89-20.16,24.51,14.47,9.61,29.92,17.59,46.01,23.76,2.15,.82,4.54,1.61,6.66,.72,2.09-.88,4.47-9.95,5.5-12.05,25.13-51.3,26.43-107.3,34.79-164.3,6.4-43.62,25.41-205.37,3.58-208.6-15.34-2.27-34.24-8.56-32.12,25.51,1.44,23.15,4.88,71.79,3.31,95.22Z"/><path class="l" d="M330.41,621.33c2.79-1.02,5.58-.33,7.73,1.78,5.48,5.4,8.29,13.25,9.29,21.08s.37,15.78-.03,23.67c-1.01,20-.53,40.05-.04,60.08-1.55-6.4-.33-13.15,.98-19.62,4.68-23.09,10.68-46.42,23.21-66.03,.29,4.48,.05,8.98-.19,13.47-2.48,46.39-4.95,92.78-7.43,139.18,4.32-33.03,9.9-65.89,16.72-98.46,2.35-11.21,4.85-22.42,8.77-33.13,5.2-14.22,13.46-28.03,26.23-35.23,1.88-1.06,3.95-2.07,5.07-3.98,.73-1.25,.96-2.74,1.18-4.19,.8-5.39,1.61-10.77,2.41-16.16,.28-1.86,.49-3.99-.69-5.41-.77-.92-1.95-1.31-3.07-1.66-19.84-6.09-39.81-12.21-60.37-14.49-5-.55-10.12-.87-15,.39-16.21,4.17-12.78,24.87-14.76,38.71Z"/><path class="t" d="M287.46,597.86c7.1,5.06,195.11,7.9,196.33-5.04-1.15-25.56-1.61-42.42-2.76-67.97-1.11-4.22-12.55-1.09-26.2-.1-32.62,2.38-63.06,5.63-95.75,4.79-16.63-.43-33.25-1.42-49.82-2.96-4.16-.39-12.83-7.06-16.16-3.91-2.97,2.81-7.09,74.16-5.64,75.19Z"/><path class="m" d="M383.7,598.86c13.3-.65,26.7-1.71,39.5-5.41,12.8-3.7,25.07-10.23,33.73-20.35,8.66-10.12,13.29-24.13,10.34-37.12-.15-.64-.31-1.3-.2-1.95,.22-1.32,1.47-2.18,2.18-3.32,1.65-2.66-.73-6.74-3.86-6.62,4.35-2.42,23-4.3,27.81-5.59,6.16,25.43,.4,52.53,5.99,78.09-31.69,8.29-78.87,8.31-111.63,8.28-18.47-.02-36.95-.04-55.41-.66-9.42-.32-18.25-2.16-27.64-2.87-6.46-.49-11.26-.69-17.05-3.49,9.18,1.58,25.05,.91,35.84,1.33,20.13,.77,40.29,.66,60.4-.32Z"/><path class="o" d="M365.88,553.53c16.69-.21,33.39-.43,50.08-.64,17.02-.22,34.17-.45,50.82-4,6.14-1.31,26.61-3.64,29.28-9.32,.76,12.42,1.39,25.84,1.01,39.02-5.46-4.31-26.65-7.61-33.27-9.73-28.55-9.15-59.1-9.33-89.07-8.93-16,.21-32.04,.57-47.9,2.68-14.9,1.98-30.81,6.24-39.96,18.16,.56-7.98,1.11-15.95,1.67-23.92,.14-2.03,.28-4.06,.43-6.08,.12-1.65-.23-4.38,.41-5.89,.72-1.71,2.19-.34,3.82,.3,1.65,.64,3.32,1.24,5,1.79,13.85,4.54,28.48,6.07,42.98,6.52,8.23,.26,16.46,.17,24.69,.07Z"/><g><path class="k" d="M363.25,519.62c3.05-4.02,6.27-8,10.37-10.94,4.1-2.94,9.22-4.76,14.2-3.97,4.34,.69,8.14,3.25,11.48,6.1,11.9,10.19,19.42,24.49,25.91,38.74,3.83,8.4,7.4,16.92,10.71,25.55,.58,1.51,1.37,2.73,1.09,4.33-1.91,10.83-24.33,10.86-35.8,11.68-18.58,1.33-37.28,1.16-55.84-.5-3.31-.3-6.8-.71-9.46-2.71-8.82-6.65,2.92-27.1,6.32-34.25,5.73-12.07,12.95-23.4,21.02-34.03Z"/><path class="l" d="M435.93,575.1c-3.31-8.62-6.89-17.14-10.71-25.55-6.49-14.25-14.01-28.55-25.91-38.74-3.34-2.86-7.14-5.42-11.48-6.1-.38-.06-.77-.1-1.16-.13,.1,.09,.21,.17,.32,.26,11.9,10.19,19.42,24.49,25.91,38.74,3.83,8.4,7.4,16.92,10.71,25.55,.58,1.51,1.37,2.73,1.09,4.33-1.91,10.83-24.33,10.86-35.8,11.68-18.45,1.32-37,1.16-55.43-.46,.52,1.27,1.31,2.37,2.45,3.23,2.66,2,6.15,2.41,9.46,2.71,18.56,1.66,37.25,1.83,55.83,.5,11.47-.82,33.89-.85,35.8-11.68,.28-1.6-.51-2.82-1.09-4.33Z"/><path class="l" d="M374.92,577.39c4.38,.12,8.75,.23,13.13,.35,4.89,.13,9.81,.26,14.63-.56,3.51-.6,7.24-1.94,9.04-5.01,1.24-2.14,1.33-4.74,1.28-7.21-.06-3.33-14.7-37.72-20.65-44.9-1.94-2.34-4.16-4.64-7.04-5.6s-6.57-.14-7.97,2.56c3.37-1.4,7.25,.62,9.7,3.33,4.78,5.29,6.13,12.77,7.04,19.85,.55,4.29,1.01,8.65,.51,12.95-.5,4.3-2.04,8.6-5.03,11.73-4,4.18-9.96,5.75-15.65,6.78-3.81,.69-7.79,1.2-11.5,.11-1.48-.44-2.94-1.16-3.9-2.37-1.81-2.28-1.4-5.54-.91-8.4-.45,2.6-3.23,6.67-4.98,8.64-1.46,1.64-3.43,3.36-.88,5.23,2.55,1.87,8.11,1.71,11.16,1.97,4,.34,8.01,.45,12.02,.56Z"/><path class="i" d="M354.09,539.68c-.48,.9-.87,2.18-.05,2.78,.48,.35,1.16,.24,1.72,.01,2.27-.9,3.66-3.15,4.9-5.26,3.7-6.3,7.47-12.55,11.3-18.77,.86-1.4,1.73-2.81,2.81-4.05,.84-.97,2.98-2.07,3.03-3.45,.09-2.59-3.23-.35-4.14,.33-2.59,1.94-4.42,4.71-6.31,7.29-2.28,3.12-4.46,6.32-6.53,9.59-2.38,3.76-4.63,7.6-6.72,11.53Z"/><path class="i" d="M348.66,547.94c-1.68,1.83-2.86,4.06-4.02,6.25-1.04,1.97-2.08,3.94-3.12,5.91-1.69,3.19-3.39,6.42-4.25,9.92-.16,.65-.29,1.33-.15,1.98,.14,.65,.61,1.28,1.27,1.41,.67,.13,1.35-.29,1.74-.86,.39-.56,.56-1.25,.74-1.91,1.97-7.21,6.53-13.37,10.56-19.66,.69-1.08,1.88-2.94,.61-4.08-1.14-1.02-2.55,.14-3.37,1.02Z"/></g><path class="n" d="M395.67,178.08c1.99,2.89,7.87,11.67,11.22,12.71,11.63,3.62,24.2,7.41,36.17,9.68,0,11.06-.95,20.43-2.97,31.51-18.03-5.23-35.96-14.11-46.64-29.54-7.71-11.15-4.67-26.4-6.58-39.72,3.45-.4,6.8,12.46,8.8,15.37Z"/><path class="t" d="M403.28,76.81c11.92-10.52,23.84-21.04,35.76-31.56,5.86-5.17,11.94-10.65,14.69-17.96,1.06-2.83,1.59-5.84,2.72-8.63,1.14-2.8,3.05-5.49,5.89-6.53,3.33-1.23,7.18,.15,9.77,2.58,2.59,2.43,4.15,5.73,5.53,9,4.86,11.51,8.21,23.87,7.92,36.36,.02-.75-23.69,2.06-25.78,2.45-8.75,1.61-17.35,4-25.68,7.11-16.67,6.22-38.08,22.15-51.63,33.67-3.82,3.25-1.66-.15-5.13,3.46-1.86,1.94-3.75,5.09-6.24,6.01-.77-4.57,4.6-11.49,7.36-14.76,6.77-8.04,16.91-14.21,24.82-21.19Z"/><path class="l" d="M369.96,73.62c.98-17.1,4.34-34.28,11.96-49.62-2.09,3.76-3.09,8.01-4.05,12.2-2.63,11.4-3.66,23.04-5.06,34.66-1.34,11.08,1.51,16.73,8.13,24.81,1.08,1.32,.16,6.6,1.53,7.63-4.38,6.29-7.35,11.34-11.76,16.34-.54-13.36-1.09-20.36-1.08-33.8,0-4.07,.11-8.15,.34-12.21Z"/><path class="o" d="M466.66,22.54c-.43,1.63-.31,3.36-.12,5.04,.56,4.94,1.64,9.82,3.21,14.53,1.12,3.36,2.66,6.84,5.64,8.77,1.38,.89,2.97,1.39,4.54,1.87,1.52,.47,3.24,.91,4.62,.12,1.18-.68,1.72-2.09,2.08-3.41,1.8-6.74,.93-13.99-1.35-20.58-.95-2.75-2.17-5.46-4.08-7.65-4.05-4.64-12.55-6.2-14.55,1.31Z"/><path class="s" d="M504.91,299.23c-5.81,18.48-42.35,34.7-59.48,43.74,32.43-5.55,64.02-17.53,90.64-36.87,6.66-4.84,13.05-10.18,18.17-16.63,3-3.79,5.66-8.72,4.03-13.27-1.11-3.11-3.95-5.22-6.69-7.07-18.99-12.8-40.31-22.12-62.59-27.41-5.42-1.29-10.95-2.5-16.49-3.16-5.41-.64-7.46,.52-4.12,5.44,5.62,8.27,20,12.06,28.16,18.44,16.32,12.76,11.72,26.14,8.37,36.8Z"/><path class="t" d="M217.91,299.72c23.72,24.22,50.77,46.43,82.9,57.24,16.02,5.39,32.92,7.8,49.79,8.86,54.11,3.4,109.04-7.13,158.06-30.29,25.77-12.18,50.61-28.45,66.38-52.2-6.06-4.09-12.12-8.18-18.18-12.26-3.75,7.79-11.53,12.7-18.96,17.1-26.07,15.45-52.93,29.92-81.68,39.49-49.77,16.56-104.54,17.71-154.96,3.26-34.15-9.79-52.25-31.7-78.26-59.85-4.58,1.78-18.53,6.47-23.09,8.28,3.78,6.87,12.33,14.9,18,20.36Z"/><path class="t" d="M338.9,274.19c8.38,5.35,17.88,8.79,27.59,10.92,21.56,4.72,44.54,2.97,65-5.3,20.46-8.27,38.28-23.06,49.88-41.84-5.75-1.85-11.49-3.7-17.24-5.54-1.09-.35-2.25-.7-3.35-.38-.95,.28-1.67,1.02-2.36,1.74-3.65,3.81-7.31,7.63-11.31,11.08-17.19,14.79-40.78,21.87-63.27,19-22.5-2.87-43.55-15.65-56.48-34.28-.57-.83-1.2-1.72-2.16-2.04-1.04-.35-2.16,.07-3.18,.48-2.97,1.21-16.75,4.79-17.54,7.99-.73,2.97,7.8,11.77,9.68,14.22,7.08,9.18,15,17.57,24.72,23.97Z"/><path class="n" d="M501.88,404.07c-1.87,6.79-4.17,14.18-10.11,17.97-4.51,2.88-10.19,3.01-15.54,2.96-19.83-.21-39.64-1.84-59.24-4.88,17.64,6.77,35,14.26,52.03,22.44,3.68,1.77,7.59,3.61,11.65,3.19,5.08-.53,9.05-4.44,12.59-8.13,2.8-2.92,5.61-5.85,8.41-8.77,1.43-1.49,2.89-3.02,3.84-4.85,.89-1.71,1.3-3.63,1.7-5.52,3.87-18.41,8.21-37.78,9.13-56.6-9.3,9.91-10.99,29.6-14.46,42.2Z"/><path class="n" d="M269.05,403.27c1.77,6.81,3.96,14.24,9.83,18.12,4.47,2.94,10.14,3.17,15.49,3.19,19.83,.09,39.67-1.25,59.31-4-17.74,6.51-35.21,13.74-52.36,21.66-3.7,1.71-7.64,3.5-11.7,3.01-5.07-.61-8.98-4.58-12.46-8.31-2.76-2.97-5.52-5.93-8.28-8.9-1.41-1.52-2.84-3.06-3.77-4.91-.86-1.73-1.25-3.65-1.62-5.54-3.59-18.47-7.64-37.9-8.28-56.73,9.15,10.05,10.55,29.76,13.83,42.41Z"/><path class="n" d="M576.85,330.74c9.71,8.03,17.04,18.1,23.89,28.68-.24-13-4.14-25.64-10.41-37.03-6.26-11.39-21.39-30.78-21.65-30.44-7.31,9.48-24.89,23.17-24.89,23.17,1.21,2.22,14.13,4.03,16.95,5.34,5.79,2.69,11.19,6.21,16.11,10.28Z"/><path class="n" d="M270.99,413.59c.1,2.41,1.03,4.71,1.95,6.94,9.9,24.04,18.83,48.1,21.9,73.92,1.09,9.18,1.71,12.87,1.89,22.12,.25-15.19,1.2-24.46,1.45-39.64,.07-4.47,.15-9,1.32-13.31,1.38-5.13,4.24-9.74,7.38-14.02,.35-.48,.71-.97,.9-1.54,.24-.73,.16-1.52,.12-2.29-.32-6.09,1.8-12.27,5.79-16.88-3.26-1.2-6.64-2.04-10.09-2.5-3.5-.46-7.07-.53-10.47-1.47-2.69-.74-5.2-2-7.63-3.36-4.06-2.27-7.97-4.82-11.68-7.63-.3-.22-.61-.46-.98-.5-.75-.08-1.35,.71-1.37,1.46-.02,.75,.37,1.44,.75,2.09l-1.23-3.38Z"/><path class="n" d="M485.68,450.34c-.43,15.79,4.31,33.47,4.6,49.27,2.59-26.6,6.33-51.57,15.15-76.37,.48-1.35,.92-2.93,.14-4.13-6.2,5.46-12.41,10.89-18.64,16.31-1.12,.98-3.96,2.58-4.5,3.9-.82,1.97-.03,1.18,1.24,2.95,1.69,2.34,2.07,5.25,2.01,8.08Z"/><path class="n" d="M213.4,442.8c12.55-8.58,21.49-21.65,33.35-31.16,5.15-4.13,11.6-7.55,18.09-6.39-.86-.15-3.09-14.81-3.44-16.41-.93-4.17-1.3-10.51-3.59-14.03-2.7,3.23-4.04,9.39-6.11,13.24-3.54,6.6-7.31,13.07-11.3,19.41-7.9,12.56-17.46,23.97-27,35.34Z"/><path class="n" d="M49.26,498.31c17.94-6.26,41.9-14.46,60.89-13.74,11.87,.45,26.38,5.17,37.94,2.42-4.64,1.72-16.43,6.54-20.86,8.75-3.73,1.86-12.23,9.44-14.92,4.96-2.08-3.46-7.69-7.61-14.6-8.08-14.12-.95-31.49,0-48.45,5.7Z"/><path class="p" d="M193.37,538.91c5.25,4.51,10.18,9.48,16.09,13.09,5.6,3.42,11.89,5.51,18.15,7.47,17.41,5.44,38.32,10.18,56.16,13.97-2.54,10.49-4.54,28.7-7.08,39.19-63.19-10.15-121.01-9.38-175.31-31.89-12.79-5.3-79.49-44.6-87.11-66.68-2.45-7.08,5.8-36.77,20.33-55.24,16.89,4.78,21.86,32.89,38.48,38.18,11.24,3.58,19.27-4.83,30.87-2.94,30.9,5.05,65.41,24.21,89.43,44.83Z"/><path class="p" d="M241.94,618.35c8.24,9.01,20.55,12.95,32.42,15.77,2.29,.54,4.69,1.06,6.98,.49,4.63-1.16,7.09-6.27,7.87-10.99,.77-4.71,.53-9.71,2.56-14.03,.78-1.67,1.88-3.17,2.66-4.84,1.24-2.67,1.61-5.65,1.97-8.58,.77-6.36,1.54-12.72,2.31-19.07,.1-.83,.2-1.7-.08-2.5-.28-.81-.92-1.44-1.58-1.99-3.09-2.55-7-3.84-10.81-5.07-8.23-2.66-16.5-5.33-25.06-6.55-4.89-.69-9.84-.91-14.78-1.12-8.63-.37-17.26-.74-25.89-1.1,2.71,11.38,5.86,22.66,9.45,33.8,.66,2.04,1.34,4.15,1.14,6.29-.21,2.25-1.89,3.34-2.65,5.13,5.6,3.96,8.94,9.36,13.5,14.36Z"/><path class="n" d="M254.41,622.31c5.41,3.03,11.14,5.89,17.33,6.25,1.78,.1,3.63-.02,5.22-.83,2.23-1.14,3.6-3.42,4.85-5.59,1.99-3.46,4.05-7.24,3.59-11.2-.11-.9-.34-1.83-.03-2.69,.42-1.16,1.66-1.75,2.66-2.47,3.57-2.53,4.64-7.24,5.77-11.47,1.15-4.29,2.61-8.5,4.39-12.57-.41,7.09-.82,14.18-1.23,21.27-.1,1.66-.21,3.37-.96,4.85-.66,1.29-1.77,2.31-2.49,3.57-1.25,2.2-1.18,4.87-1.29,7.4-.14,3.43-.67,6.85-1.57,10.17-.97,3.6-2.76,7.47-6.28,8.73-2.78,1-5.84,.06-8.65-.87-5.77-1.92-11.55-3.84-17.32-5.77-3-1-6.05-2.02-8.62-3.87-2.42-1.74-4.29-4.13-6.12-6.49-3.42-4.4-6.8-8.83-10.27-13.19,4.16,6.81,14.27,10.96,21.03,14.75Z"/><polygon class="k" points="690.46 748.9 885.36 600.07 894.07 606.03 705.21 759.79 690.46 748.9"/><path class="l" d="M712.36,724.59c-3.13,1.94-5.22,5.17-6.91,8.45-1.71-.73-3.66-.41-5.49-.05-5.53,1.08-11.47,2.68-14.88,7.16-3.62,4.76-3.26,11.71-.39,16.96,2.87,5.25,7.81,9.05,12.97,12.09,2.97,1.75,6.32,3.35,9.74,2.87,2.59-.36,4.85-1.87,7.01-3.34,2.9-1.97,5.87-4.01,7.92-6.86,2.05-2.85,3.02-6.75,1.54-9.93,4.81,.75,9.58-3.18,10.59-7.94,1.01-4.76-1.22-9.82-4.85-13.06-4.97-4.43-10.03-10.83-17.26-6.35Z"/><path class="t" d="M965.64,556.42c-2.21,6.68-6.59,12.45-11.47,17.52-8.06,8.38-18.39,15.49-30.01,16.12-7.93,.43-15.98-2.35-21.97-7.56-1.32-1.15-2.57-2.44-4.12-3.26-3.96-2.12-8.81-.8-13.09,.55-1.38,.44-2.84,.93-3.72,2.08-.54,.71-.78,1.58-1.02,2.44-1.87,6.95-3.08,14.81,.61,21,4.02,6.73,12.42,9.21,20.09,10.84,5.19,1.1,10.42,2.08,15.72,2.5,12.31,.97,24.98-1.17,35.86-7.01,21.66-11.63,33.9-38.13,29.64-62.34-4.26-24.21-24.18-44.65-48.07-50.48,11.57,2.83,20.03,15.91,26.06,25.13,6.19,9.47,9.12,21.5,5.49,32.48Z"/><path class="m" d="M982.38,548.96c-4.12-23.38-22.84-43.24-45.62-49.83,.34,.17,.67,.35,1.01,.52,1.97,.86,3.84,2,5.62,3.35,14.34,9.53,25.02,24.64,28.01,41.61,4.26,24.21-7.98,50.71-29.64,62.34-10.88,5.84-23.55,7.99-35.86,7.01-5.29-.42-10.52-1.39-15.72-2.5-1.12-.24-2.25-.5-3.38-.78,4.18,2.67,9.42,4.08,14.37,5.13,5.19,1.1,10.42,2.08,15.72,2.5,12.31,.97,24.98-1.17,35.86-7.01,21.66-11.63,33.9-38.13,29.64-62.34Z"/><path class="l" d="M851.4,623.34c-.55,.44-1.14,.93-1.28,1.61-.15,.71,.23,1.41,.6,2.03,2.62,4.43,5.59,8.66,8.87,12.63,10.84-12.77,27.25-20.64,44-21.09-1.72,.05-6.28-5.46-7.54-6.69-2.58-2.52-5.02-5.17-7.33-7.93s-4.48-5.65-6.49-8.63c-1.65-2.44-5.09-11.66-5.39-10.61-1.21,4.32-3.93,12.86-5.18,15.03-1.71,2.99-3.61,5.86-5.68,8.62-4.2,5.6-9.11,10.67-14.58,15.03Z"/><path class="t" d="M845.71,623.53c0,.52,14.08,18.17,14.08,18.17l6.52-4.95-14.25-19.92-6.35,6.7Z"/><path class="f" d="M890.02,591.85c11.64,7.85,26.15,11.78,40,9.47,1.85-.31,3.73-.75,5.26-1.83,1.53-1.08,2.64-2.94,2.33-4.79-6.13,2.9-13.34,1.16-19.88-.63-5.85-1.6-11.76-3.22-17.09-6.11-3.12-1.69-9.26-7.43-13.2-6.14-5.66,1.85,.04,8.31,2.58,10.03Z"/><path class="f" d="M957.78,586.5c.24-.38,.47-.85,.28-1.25-.1-.22-.31-.37-.53-.48-1.25-.61-2.71,0-3.96,.61-1.53,.75-15.77,5.56-12.55,9.47,1.61,1.95,7.83-1.04,9.51-1.91,2.8-1.46,5.65-3.65,7.25-6.44Z"/><path class="n" d="M766.68,727.96c-2.45-3.26-4.44-6.98-5.05-11.02s.31-8.42,3.03-11.45c2.08-2.31,5.14-3.84,6.38-6.69,.77-1.78,.69-3.8,.88-5.73,.19-1.93,.8-4.02,2.43-5.07,.85-.55,1.87-.74,2.84-1.02,2.53-.72,4.87-2.11,6.71-3.99,.73-.74,1.4-1.57,2.28-2.12,1.05-.66,2.31-.87,3.55-.92,2.42-.1,4.83,.38,7.21,.86,4.71,.97,9.4,2,14.09,3.09,6.86,1.6,13.85,3.39,19.68,7.34,1.4,.95,2.87,2.33,2.68,4.01-.08,.71-.45,1.34-.81,1.96-2.88,4.9-5.76,9.8-8.63,14.7-.38,.65-.79,1.33-1.44,1.72-1.46,.86-3.43-.12-5,.52-.77,.31-1.34,.97-1.9,1.59-5.74,6.35-13.35,10.77-21.34,13.85-5.81,2.24-11.86,3.82-17.93,5.19-5.96,1.34-6.35-2.41-9.66-6.8Z"/><path class="p" d="M774.21,686.76c2.8-3.11,5.79-6.34,9.79-7.58,2.43-.75,5.03-.68,7.57-.5,14.02,1.02,27.77,5.51,39.69,12.95-12.31-2.82-25.01-3.92-37.63-3.26-.87,.05-1.75,.1-2.56,.4-1.13,.41-2.04,1.24-2.9,2.08-2.91,2.85-5.53,6-7.8,9.38-1.31-1.04-3.1-1.46-4.73-1.09-6.08,6.21-11.54,13.01-16.29,20.28,1.28-6.75,3.29-13.2,5.35-19.73,1.68-5.31,5.83-8.83,9.52-12.94Z"/><path class="p" d="M813.22,712.14c2,.63,4.16,1.35,5.34,3.09-3.56,4.19-8.2,7.46-13.35,9.4-3.7-6.09-10.68-9.19-17.03-12.44-5.23-2.68-11.89-5.63-16.19-9.7-4.69-4.45,1.39-6.19,5.28-4.26,11.53,5.71,23.68,10.05,35.96,13.92Z"/><path class="t" d="M610.09,429.35c2.34-.6,5.53-.81,6.48,1.36,.36,.82,.24,1.75,.22,2.65-.07,2.63,.73,5.2,1.51,7.71,4.07,13,8.14,26.01,12.21,39.01,.25,.81,.53,1.65,1.16,2.22,.43,.39,.98,.62,1.44,.97,1.75,1.35,1.53,4.17,.12,5.86-1.41,1.69-3.6,2.53-5.7,3.27-29.88,10.5-62.16,16.03-88.8,32.89-1.72,1.09-3.5,2.26-5.54,2.47-2.04,.21-4.39-.92-4.73-2.89-.22-1.34,.51-2.68,.39-4.03-.09-1.01-.64-1.92-1.18-2.79-7.22-11.62-14.44-23.25-21.66-34.87-.65-1.04-1.33-2.12-2.39-2.78-1.09-.68-2.45-.82-3.59-1.42-3.02-1.61-3.13-5.65-.62-7.69,2.09-1.7,6.01-1.5,8.54-2.62,8.14-3.61,15.93-8.09,24.05-11.79,15.97-7.27,32.36-13.65,49.08-19.1,9.57-3.12,19.25-5.94,29.01-8.44Z"/><path class="m" d="M627.53,492.4c2.1-.74,4.3-1.57,5.7-3.27,1.41-1.69,1.63-4.51-.12-5.86-.46-.35-1.01-.58-1.44-.97-.63-.57-.91-1.42-1.16-2.23-4.07-13-8.14-26.01-12.21-39.01-.79-2.52-1.58-5.08-1.51-7.71,.02-.89,.14-1.83-.22-2.65-.95-2.17-4.14-1.96-6.48-1.35-4.62,1.19-9.21,2.45-13.79,3.77,1.86,.93,3.13,3.1,3.13,5.24-.01,2.75-1.72,5.27-3.92,6.93-2.19,1.66-4.84,2.59-7.44,3.48-12.13,4.11-24.46,7.6-36.79,11.1,5.52-.87,11.03-1.74,16.55-2.61,6.77-1.07,14.05-2.06,20.18,1.01,6.21,3.12,9.93,10.11,10.2,17.05,.26,6.94-2.56,13.75-6.74,19.3,1.37-.43,2.9-.33,4.21,.26-.12,2.41-2.69,3.83-4.91,4.77-20.62,8.76-41.24,17.53-61.86,26.29,.84,1.29,2.65,1.99,4.28,1.82,2.04-.21,3.82-1.38,5.54-2.47,26.64-16.86,58.92-22.38,88.8-32.89Z"/><path class="d" d="M503.33,475.99c.55,.53,1.37,.67,2.14,.66,2.11-.02,4.11-.91,6.03-1.79,13.59-6.21,27.17-12.43,40.76-18.64,1.6-.73,3.46-1.85,3.42-3.61-6.94,.63-13.16,4.32-19.36,7.48-9.05,4.62-18.58,8.29-28.39,10.95-1.4,.38-7.05,2.61-4.61,4.95Z"/><path class="d" d="M561.86,510.4c2.93-1.06,6.2-2.45,7.12-5.21-1.75-.77-3.82-.18-5.65,.42-7.14,2.36-14.24,4.84-21.28,7.45-4.06,1.5-10.17,2.74-10.54,7.53,3.98,.99,11.32-3.29,15.06-4.64l15.29-5.55Z"/><path class="t" d="M103.59,444.95c14.44,12.85,27.51,27.71,35.48,45.31,.55,1.23,1.13,2.52,2.2,3.33,1.07,.81,2.82,.91,3.63-.16,.83-1.1,.33-2.86,1.24-3.9,.59-.68,1.58-.81,2.47-.92,23.75-2.89,43.16-19.62,60.98-35.59,.89,2.3,2.7,5.09,5.06,4.38,2.56-.76,2.24-4.49,1.27-6.98-6.69-17.15-18.06-32.18-31.27-44.99-13.21-12.82-28.27-23.56-43.52-33.87-4.82-3.26-11.33-9.66-15.95-6.16-1.24,1.86-.16,4.38-.63,6.56-.71,3.3-4.71,4.24-7.72,5.74-17.31,8.63-23.62,13.83-36.19,26.23-2.74,2.71-6.58,7.82-10.06,9.47-3.78,1.79-12.83,2.84-12.32,6.98,.64,5.14,1.3,4.19,5.79,4.23,5,.05,8.76,.53,13.28,2.49,9.76,4.22,18.36,10.81,26.26,17.84Z"/><path class="m" d="M184.64,405.54c-4.98-4.83-10.22-9.36-15.63-13.69-.27,.79-.81,1.51-1.54,1.89-1.85,.97-4.1,.45-6.08-.19,8.9,7.46,18.39,15.91,20.32,27.37,1.93,11.47-4.81,23.26-14.6,29.54-9.79,6.28-22.03,7.75-33.61,6.58,1.57,1.86,2.54,4.23,2.73,6.66,.07,.88,.02,1.82-.51,2.53-1.49,2.01-4.63,.3-6.39-1.48-8.87-8.95-17.3-18.4-26.95-26.51-9.65-8.12-20.71-14.94-33.02-17.66-3.27-.72-6.81-1.12-9.85,.29-.89,.41-1.03,.29-1.7,1.04,1.37,1.88,3.09,2.8,6.24,2.83,5,.05,8.76,.53,13.29,2.49,9.76,4.22,18.36,10.81,26.26,17.84,14.44,12.85,27.51,27.71,35.48,45.31,.55,1.23,1.13,2.52,2.2,3.33,1.07,.81,2.82,.91,3.63-.16,.83-1.1,3.04-2.99,3.9-3.24,23.38-6.95,42.97-21.19,60.78-37.16,.89,2.3,2.7,5.09,5.06,4.38,2.56-.76,2.24-4.49,1.27-6.98-6.69-17.15-18.06-32.18-31.27-44.99Z"/><path class="h" d="M128.28,373.74c1.22,.89,2.67,1.38,4.06,1.96,6.33,2.62,11.74,7.06,17.95,9.94,.98,.46,2.03,.88,3.11,.85,.47-1.85-1.13-3.53-2.59-4.75-4.54-3.81-9.22-7.46-14.01-10.95-1.97-1.44-5.85-4.2-8.53-3.57-3.41,.8-2.03,5.03,0,6.51Z"/><path class="h" d="M120.5,383.39c-9.77,4.41-19.37,9.95-26.08,18.31-1.33,1.66-2.59,3.6-2.44,5.72,.05,.73,.32,1.5,.93,1.9,.39,.25,.87,.32,1.33,.34,4.55,.19,8.09-3.64,11.64-6.5,5.66-4.55,12.88-7.13,20.15-7.2,1.93-.02,3.9,.13,5.77-.36,1.87-.49,3.67-1.81,4.08-3.7,.48-2.25-1.14-4.42-2.94-5.85-3.82-3.03-7.85-4.73-12.43-2.66Z"/><path class="m" d="M370.05,105.05c.16-.43,10.74-9.62,10.74-9.62l3.65,6.2-12.9,24.7s-2.84-17.57-1.49-21.28Z"/><path class="m" d="M464.71,15.97c-2.2,2.39-3.26,5.66-3.49,8.9-.23,3.24,.31,6.48,.96,9.67,1.49,7.33,2.35,15.45,12.66,20.42l-10.13-38.99Z"/><path class="m" d="M375.37,111.23c10.66-15.8,27.76-26.63,43.77-36.36,17.74-10.78,37.97-20.26,59.24-18.72,1.21,.09,1.19-1.77,0-1.87-22.19-1.85-42.17,6.65-60.8,17.91-16.59,10.02-33.88,20.78-42.34,38.95-.04,.09,.08,.17,.14,.08h0Z"/><path class="m" d="M410.82,74.4c10.47-4.6,19.42-13.17,28.35-20.14,8.94-6.98,15.31-16.31,22.87-24.6,2.2-2.41-1.87-5.5-3.52-2.71-5.79,9.8-14.82,17.85-22.36,26.26-7.49,8.35-16.79,14.11-25.49,21-.12,.09,.03,.24,.15,.19h0Z"/><path class="m" d="M558.55,281.6c-5.57,3.23-10.67,7.57-16.03,11.16-5.22,3.49-10.61,6.76-16.09,9.83-11.49,6.43-23.45,12.08-35.78,16.73-26.62,10.04-54,16.34-82.24,19.63-6.63,.77-5.48,10.14,1.23,9.11,28.75-4.41,57.89-10.66,84.73-22.12,12.4-5.3,24.36-11.54,35.52-19.12,10.09-6.85,21.71-15,28.76-25.11,.05-.07-.04-.15-.11-.11h0Z"/><path class="m" d="M466.04,239.28c-5.68,2.87-10.73,7.46-16.02,11.02-5.45,3.66-11.18,6.9-17.11,9.71-12.36,5.86-25.5,9.59-39.11,10.92-6.14,.6-5,9.61,1.14,8.39,13.88-2.77,27.53-7.51,40.01-14.22,6.11-3.28,11.94-7.08,17.45-11.28,5.06-3.86,10.9-8.54,13.98-14.2,.12-.22-.12-.44-.33-.33h0Z"/><path class="m" d="M216.11,283.35c4.77,7.65,11.77,14.05,18.25,20.24,7.13,6.81,14.62,13.3,22.39,19.38,7.32,5.73,14.9,11.08,22.96,15.72,4.1,2.37,8.31,4.56,12.61,6.54,4.09,1.88,8.61,4.5,13.16,4.5,3.18,0,5.63-4.56,2.82-6.81-3.24-2.59-7.24-3.51-11.05-5.09-4.54-1.89-8.97-4.06-13.3-6.4-8.12-4.38-15.92-9.38-23.43-14.73-7.6-5.42-14.83-11.31-22.04-17.24-7-5.76-13.85-12.31-21.88-16.61-.31-.17-.7,.18-.5,.5h0Z"/><path class="k" d="M382.41,24.04c-18.69,33.02-15.03,73.71-9.63,111.26,5.08,35.33,11.27,70.72,23.36,104.29,12.1,33.58,25.58,58.98,56.91,73.65-34.72,54.88-91.45,76.55-143.99,91.5-42.77-71.3-70.86-153.81-65.27-236.77,1.23-18.24,4.07-36.36,8.48-54.1,3.93-15.83,9.16-31.47,17.23-45.65C292.28,28.15,337.39,2.9,383.42,.24c11.98-.69,24.7-.09,35.9,4.62-18.31-2.75-27.66,2.83-36.92,19.19Z"/><path class="s" d="M285.88,361.87s60.08-15.66,90.17-31.52c30.08-15.86,50.8-35.49,50.8-35.49,0,0,10.45,5.78,18.6,11.49,9.67,6.78,15.73,7.22,15.73,7.22,0,0-15.81,30.57-58.7,58.86-42.89,28.29-91.7,36.37-91.7,36.37l-24.89-46.93Z"/><path class="s" d="M287.64,341.75c10.39-.78,20.93-4.31,30.84-7.37,10.23-3.15,20.25-6.83,30.09-11.05,9.97-4.28,19.67-9.11,29.27-14.16,4.92-2.59,9.78-5.31,14.58-8.14,5.17-3.06,10.28-6.92,15.87-9.18,5.97-2.41,.41-10.35-3.63-6.24-2.49,2.53-2.25,5.63,1.65,6.24-.55-2.08-1.1-4.16-1.65-6.24-6.99,7.78-17.73,13.31-26.65,18.62-9.31,5.53-19,10.41-28.87,14.87-10,4.52-20.22,8.61-30.57,12.26-10.19,3.59-20.97,5.86-30.99,9.84-.27,.11-.27,.59,.08,.56h0Z"/><path class="s" d="M272.59,292.82c9.62-.08,19.74-3.17,29.04-5.42,10.11-2.45,20.07-5.34,29.93-8.66,9.55-3.22,18.99-6.78,28.29-10.67,9.77-4.08,19.36-9.11,29.31-12.66,4.6-1.64,1.21-8.43-2.48-5.88-8.14,5.64-17.8,9.82-26.86,13.76-9.64,4.2-19.44,8.02-29.36,11.49-9.23,3.23-18.57,6.19-27.96,8.93-9.85,2.87-20.52,4.4-30.06,8.14-.48,.19-.46,.96,.13,.96h0Z"/><path class="s" d="M258.44,237.56c9.22,2.82,20.63,.92,30.06,0,10.11-.98,20.17-2.53,30.11-4.64,10.11-2.15,20.01-4.97,29.84-8.14,5.19-1.67,10.35-3.41,15.44-5.36,4.62-1.76,9.95-3.05,14.03-5.85,2.37-1.63,.99-5.71-2.04-4.83-4.54,1.32-8.63,4.17-12.94,6.1-4.81,2.15-9.7,4.16-14.64,5.98-9.66,3.56-19.69,6.29-29.73,8.54-10.21,2.29-20.56,4-30.98,5.06-9.47,.97-20.01-.03-29.16,2.59-.27,.08-.27,.47,0,.55h0Z"/><path class="s" d="M253.27,176.75c9.19,2.82,19.62,2.69,29.16,2.88,9.69,.19,19.38-.1,29.04-.88,8.74-.71,17.52-1.73,26.15-3.31,8.37-1.53,18.4-3.28,25.86-7.51,3.42-1.94,.41-6.58-3-5.13-4.1,1.75-7.8,4.18-12.05,5.67-3.86,1.35-7.86,2.32-11.85,3.19-9.21,2-18.61,3.1-28,3.87-9.02,.73-18.07,1.04-27.11,.93-9.27-.12-18.8-1.58-28.03-.9-.67,.05-.84,.99-.16,1.2h0Z"/><path class="s" d="M258.17,141.68c5.95,3.89,14.75,4.05,21.69,4.78,8.66,.91,17.38,1.27,26.09,1.09,16.59-.35,34.31-2.43,50.21-7.35,2.55-.79,1.5-4.64-1.1-4-16.35,4.01-32.2,7.26-49.1,8.01-16.16,.72-31.68-1.56-47.7-2.83-.17-.01-.21,.22-.08,.3h0Z"/><path class="s" d="M269.25,103.07c5.63,2.74,13.24,2.88,19.42,3.35,7.73,.58,15.49,.63,23.22,.22,13.19-.7,28.3-1.74,40.22-7.95,1.97-1.03,.24-3.88-1.73-2.95-12.57,5.93-26.66,7.49-40.42,8.32-6.44,.39-12.9,.44-19.35,.13-6.86-.33-14.45-2.29-21.24-1.57-.22,.02-.36,.34-.12,.45h0Z"/><path class="s" d="M290.86,62.76c4.78,2.94,10.97,3.73,16.43,4.7,5.41,.96,10.9,1.58,16.37,1.97,5.96,.42,11.94,.52,17.91,.3,4.91-.18,11.34,.35,15.68-2.17,.97-.56,.77-2.09-.31-2.38-4.64-1.27-10.56,.43-15.37,.67-5.65,.29-11.32,.29-16.97,0-5.81-.3-11.59-.93-17.35-1.79-5.28-.79-10.75-2.55-16.1-2.36-.56,.02-.78,.76-.29,1.06h0Z"/><path class="g" d="M276.94,111.84c-7.89,25.14-10.46,51.78-9.21,78.1,.85,17.74,3.46,35.56,9.89,52.11,1.59,4.09,3.48,8.19,6.6,11.28,3.12,3.08,7.73,4.99,11.97,3.85,5.08-1.36,8.27-6.7,8.78-11.93,.51-5.23-1.09-10.41-2.68-15.42-1.49-4.72-2.99-9.44-4.48-14.16-2.86-9.06-5.73-18.12-7.79-27.4-7.65-34.4-3.7-71.28,11.04-103.28,9.27-20.13,22.58-38.17,37.35-54.69-13.94,9.5-27.4,18.89-37.3,32.65-10.67,14.83-18.71,31.49-24.18,48.9Z"/><path class="n" d="M429.29,117.55c11.99-.93,24.03-.85,36.01,.24,.76,.07,1.58,.13,2.23-.35,.53-.39,.86-1.07,1.16-1.73,2.88-6.51,4.62-13.75,5.08-21.1,.45-7.33-2.62-6.46-7.17-4.7-4.77,1.85-9.42,4.17-13.88,6.93-4.37,2.71-8.56,5.83-12.52,9.34-1.98,1.75-3.9,3.6-5.75,5.54-.95,.99-4.05,5.75-5.16,5.83Z"/><path class="u" d="M469.87,86.11c-9.32,1.42-17.9,5.9-25.78,11.08-2.77,1.82-5.53,3.78-7.6,6.38-.32,.4-.61,1-.26,1.37,.2,.21,.53,.22,.82,.21,1.84-.11,3.53-.99,5.18-1.82,5.57-2.81,11.35-5.22,17.27-7.2,2.23-.75,4.5-1.44,6.85-1.61,2.16-.16,4.35,.14,6.39,.87,.32,.12,.67,.24,1.01,.16,.27-.07,.48-.27,.67-.47,1.74-1.87,2.39-4.68,1.66-7.12-.12-.41-.29-.82-.57-1.14-1.21-1.37-4.08-.92-5.64-.69Z"/><g><path class="u" d="M446.06,113.93c8.35-2.95,16.24-8.09,25.1-8.19,.43,0,.93,.04,1.18,.39,.12,.17,.15,.38,.19,.58,.8,5.33-1.3,10.64-3.42,15.59-.49,1.15-1.08,2.38-2.21,2.91-.94,.43-2.05,.26-2.99-.18-.94-.43-10.2-3.26-14.09-4.32-4.02-1.09-8.6-.97-12.75-.61-6.96,.61-13.93,1.08-20.9,1.4-.65,.03-1.34,.05-1.93-.24-.58-.3-1-1.03-.72-1.62,.26-.55,.95-.72,1.55-.82,10.4-1.77,20.84-1.36,30.99-4.9Z"/><path class="k" d="M468.43,111.24c-1.24,1.29-2.33,2.71-3.24,4.25-.64,1.07-1.2,2.22-1.39,3.45-.19,1.23,.03,2.58,.82,3.54-2.71-1.09-5.41-2.18-8.12-3.27-1.35-.54-2.71-1.09-4.13-1.41-2.03-.46-4.13-.44-6.21-.42,.67,0,1.24-.93,1.77-1.22,.73-.4,1.66-.56,2.45-.8,1.99-.59,3.98-1.14,5.99-1.65,3.98-1,8-1.82,12.04-2.47Z"/></g><polygon class="n" points="475.69 136.45 482.8 147.17 504.99 141.42 507.77 135.62 482.9 140.14 475.69 136.45"/><polygon class="n" points="482.8 147.17 487.23 165.61 491.73 143.79 482.8 147.17"/><path class="n" d="M485.85,164.02c.23-.04,.48-.09,.66-.24,.17-.14,.27-.36,.36-.56,.91-2.14,1.59-4.38,2.05-6.65-.11,.55-6.93,2.18-7.78,2.48-2.61,.91-5.2,1.88-7.76,2.92-5.04,2.05-9.94,4.39-14.76,6.89,9.11-1.22,18.18-3.23,27.23-4.84Z"/><path class="n" d="M376.84,162.79c1.01,4.5,1.8,9.05,2.36,13.63,3.24,.88,6.9,0,9.38-2.25,.34-.31,.66-.65,.82-1.07,.16-.41,.15-.86,.13-1.3-.08-1.82-.39-3.62-.91-5.36-.48-1.6-.68-3.56-2.56-3-3.25,.97-6.22,1.43-9.23-.65Z"/><path class="n" d="M575.8,575.98c12.69,20.96,26.24,41.62,43.3,59.21-17.17-22.31-34.91-45.92-39.16-73.75-.57-3.75-1.01-7.81-3.56-10.62-1.64-1.8-3.93-2.82-6.06-3.99-3.73-2.04-7.13-4.68-10.06-7.76-2.08-2.18-4.8-8.8-7.09-10.04-3.91-2.12-4.58,3.65-4.54,7.22,.07,7.99,6.95,11.29,11.72,16.85,6,7.01,10.69,15.01,15.46,22.88Z"/><path class="h" d="M185.77,319.97c-12.43,13.97-22.5,30.04-29.64,47.32,12.73-17.54,30.2-31.61,50.05-40.32,3.53-1.55,7.26-3.01,9.87-5.84,6.5-7.03-.46-14.43-8.35-14.93-8.59-.55-16.76,7.94-21.93,13.76Z"/><path class="e" d="M691.02,738.51c-.77,.44-1.52,.94-2.1,1.61-1.38,1.61-1.53,4.14-.35,5.9,1.18,1.76,3.58,2.59,5.59,1.92,1.91-.63,3.25-2.36,5.04-3.28,1.94-1,4.32-.97,6.35-.16,2.03,.81,3.71,2.34,4.97,4.12-.99-1.41-.52-4.86-1.72-6.76-.95-1.49-2.64-3.56-4.17-4.55-3.8-2.46-9.98-.85-13.61,1.2Z"/><path class="t" d="M334.21,965.62c-.14,.86-.27,1.79,.06,2.59,.37,.89,1.22,1.42,2.02,1.89,19.33,11.17,42.77,14.25,64.14,8.41-.02-19.18,8.92-41.84,10.67-60.93-1.57,2.06-10.53,7.9-12.86,8.89-21.05,9.02-43.28,4.65-62.07-7.46-.12,15.62,.5,31.08-1.96,46.61Z"/><path class="r" d="M511.02,986.89c-.25,1.07-.51,2.18-1.18,3.05-.83,1.08-2.16,1.63-3.43,2.13-6.85,2.7-13.76,5.21-20.74,7.54,9.86-.9,19.8-.84,29.65,.17,1.36-14.34,2.72-28.68,4.08-43.02-.4,4.17-3.4,8.73-4.39,12.9-1.36,5.73-2.65,11.48-3.98,17.22Z"/></g></g></g></svg>