<svg xmlns="http://www.w3.org/2000/svg" viewBox="0 0 886.39 276.92"><defs><style>.cls-1{fill:#fff;}.cls-2{fill:#b5872d;}</style></defs><g id="Слой_2" data-name="Слой 2"><g id="_Layer_" data-name="&lt;Layer&gt;"><path class="cls-1" d="M801.25,166.9a54.73,54.73,0,0,1,.12,10.25c-.26,2.86-.44,4.46-.56,5.33.48-.17.92-.34,1.3-.49a85.67,85.67,0,0,0,.71-10,86,86,0,0,0-.71-10,66.89,66.89,0,0,0-12.3-3.43v6.2Z"/><path class="cls-1" d="M119.75,192.1h-9.12a6.68,6.68,0,0,1-5.56-3h-16v4.64H642.77v-4.64H125.31A6.67,6.67,0,0,1,119.75,192.1Z"/><path class="cls-1" d="M642.77,199.47v-4.73H89.09v13.39c15.78,0,121.91-.24,178.34-.24a6.62,6.62,0,0,1,.88-1c7.7-7.25,40.81-5.87,90.45-3,17.71,1,34.44,2,46.69,2a181.92,181.92,0,0,1,28.22,2H571.11C589.51,207.89,615.07,204.49,642.77,199.47Z"/><path class="cls-1" d="M644.2,194.74v4.47c7.73-1.41,15.62-2.85,23.57-4.47Z"/><path class="cls-1" d="M644.2,193.78h27.17c7.41-1.53,14.84-3,22.21-4.66H644.2Z"/><path class="cls-1" d="M525.07,129a132.59,132.59,0,0,1,3.79-17.77q4-13.47,9.77-19.27H533.8c-11,0-16.75,23.39-18.77,37Z"/><polygon class="cls-1" points="823.24 17.72 871.47 15.59 872.77 13.53 820.38 13.53 745.41 132.43 797.79 132.43 868.85 19.74 823.24 17.72"/><path class="cls-1" d="M743.6,135.31l-3.45,5.47c23.21,4,41.3,8.11,46.5,9.32L796,135.31Z"/><path class="cls-1" d="M546.77,92.11C536.68,94,531.33,115.94,529.4,129H533C534.3,119.91,538.07,100.31,546.77,92.11Z"/><path class="cls-1" d="M597.43,92H552c-9.33,4.07-14.31,24.61-16.15,37h28.91l.21.07a6,6,0,0,1,2.89,2.65h84.48c26.62,0,57.57,4,83.2,8.28L821.11,4.31l-54.06,0L696.49,83.1H677.36A35.71,35.71,0,0,1,653.88,92Zm107.05,3.43q23.74.28,47.49,1.12c-15.83.56-79.14,1.42-95,1.44s-79.14-.88-95-1.44c15.83-.55,79.14-1.4,95-1.43S688.66,95.16,704.48,95.39Z"/><path class="cls-1" d="M678.9,81.67h17L765,4.45A39,39,0,0,0,739.7,16.64S679.23,81.34,678.9,81.67Z"/><path class="cls-1" d="M569.81,136c0,.08.05.16.08.24,6.27.59,35.41,4.49,39,5l.25.05c.89.29,3.7,2,3.91,12,2,4.06,4.09,9.63,4.09,15.44,0,11.35-20.59,12.17-27.66,13.35-4.46.75-8.49,2.81-12.91,4.22h66.23V136Z"/><path class="cls-1" d="M125.66,136.65c-3.51.21-7,.57-10.48,1.06-6,.86-12,2-17.94,3.45-2.73.66-5.45,1.39-8.15,2.14v42.95H104a6,6,0,0,1-.08-.85V155.66a6.7,6.7,0,0,1,6.69-6.7h9.12a6.71,6.71,0,0,1,6.7,6.7V185.4a6,6,0,0,1-.09.85H505.25a88.6,88.6,0,0,1-5.49-11.53c-3.15-5-3.26-20.15-3.26-20.33s.09-12.17,2.33-18.37H138.18C134.17,136,130,136.24,125.66,136.65Zm55.54,32.16c-2.77,0-3.85-2.24-3.85-5s1.08-5,3.85-5,3.84,2.23,3.84,5S184,168.81,181.2,168.81Zm19.11,0c-2.77,0-3.85-2.24-3.85-5s1.08-5,3.85-5,3.84,2.23,3.84,5S203.07,168.81,200.31,168.81Zm19.11,0c-2.76,0-3.85-2.24-3.85-5s1.09-5,3.85-5,3.84,2.23,3.84,5S222.18,168.81,219.42,168.81Zm19.11,0c-2.77,0-3.85-2.24-3.85-5s1.08-5,3.85-5,3.85,2.23,3.85,5S241.29,168.81,238.53,168.81Zm19.11,0c-2.76,0-3.85-2.24-3.85-5s1.09-5,3.85-5,3.84,2.23,3.84,5S260.4,168.81,257.64,168.81Zm19.11,0c-2.77,0-3.85-2.24-3.85-5s1.08-5,3.85-5,3.84,2.23,3.84,5S279.51,168.81,276.75,168.81Zm19.11,0c-2.77,0-3.85-2.24-3.85-5s1.08-5,3.85-5,3.84,2.23,3.84,5S298.62,168.81,295.86,168.81Zm19.11,0c-2.77,0-3.85-2.24-3.85-5s1.08-5,3.85-5,3.85,2.23,3.85,5S317.73,168.81,315,168.81Zm19.11,0c-2.77,0-3.85-2.24-3.85-5s1.08-5,3.85-5,3.85,2.23,3.85,5S336.84,168.81,334.08,168.81Zm19.11,0c-2.77,0-3.85-2.24-3.85-5s1.08-5,3.85-5,3.84,2.23,3.84,5S356,168.81,353.19,168.81Zm19.11,0c-2.77,0-3.85-2.24-3.85-5s1.08-5,3.85-5,3.84,2.23,3.84,5S375.06,168.81,372.3,168.81Zm19.11,0c-2.77,0-3.85-2.24-3.85-5s1.08-5,3.85-5,3.84,2.23,3.84,5S394.17,168.81,391.41,168.81Zm19.11,0c-2.77,0-3.85-2.24-3.85-5s1.08-5,3.85-5,3.84,2.23,3.84,5S413.28,168.81,410.52,168.81Zm19.1,0c-2.76,0-3.84-2.24-3.84-5s1.08-5,3.84-5,3.85,2.23,3.85,5S432.39,168.81,429.62,168.81Zm19.12,0c-2.76,0-3.85-2.24-3.85-5s1.09-5,3.85-5,3.84,2.23,3.84,5S451.5,168.81,448.74,168.81Zm19.1,0c-2.76,0-3.84-2.24-3.84-5s1.08-5,3.84-5,3.85,2.23,3.85,5S470.61,168.81,467.84,168.81Zm19.12-10c2.76,0,3.84,2.23,3.84,5s-1.08,5-3.84,5-3.85-2.24-3.85-5S484.19,158.81,487,158.81Zm-285-20.05s268.41.38,281.84.7c-13.43.33-308.68.33-322.1,0C175.1,139.14,188.52,139,201.94,138.76Zm-39.85,20.05c2.76,0,3.84,2.23,3.84,5s-1.08,5-3.84,5-3.85-2.24-3.85-5S159.32,158.81,162.09,158.81Zm-19.11,0c2.76,0,3.85,2.23,3.85,5s-1.09,5-3.85,5-3.85-2.24-3.85-5S140.22,158.81,143,158.81Z"/><polygon class="cls-1" points="822.2 10.65 874.58 10.65 878.59 4.31 826.2 4.31 822.2 10.65"/><path class="cls-1" d="M652.35,136H644.2v50.23s127.88-.4,132.64-.56c-4.76-.16-62.47-.7-65.13-.69,28.24-6.56,54.56-13.31,73.79-18.41V154.26C774,151.59,704.64,136,652.35,136Z"/><path class="cls-2" d="M886.39,0H768.11a43.3,43.3,0,0,0-31.55,13.7l-59.83,64a31.37,31.37,0,0,1-22.85,9.92H533.8c-15.72,0-21.44,29.31-23.13,41.35H508.5c-1.21,0-2.19,1.05-3,2.72H138.18c-25.77,0-59.75,8.41-88.68,22C18,168.42,0,185.63,0,200.93c0,11.68,14.57,21.63,42.15,28.78a281.93,281.93,0,0,0,32.41,6.17v8.52a16.49,16.49,0,1,0,15.86,5l9.72-10.91c12.59.94,25.85,1.43,39.48,1.43H438.38l4.7,7.91a16.47,16.47,0,1,0,23.42,2.23l9-10.14h78.38c22,0,54.72-5.11,88.85-12v.13h1.43v-.42c69-14,142.93-34.91,144-35.23l1.57-.44V189.8A68.07,68.07,0,0,0,806.05,185,96.66,96.66,0,0,0,807.12,172a96.47,96.47,0,0,0-1.07-13.07,67.53,67.53,0,0,0-16.24-4.78v-.93ZM342.25,235.57h0Zm-244-1.34c-12.13-1-24.24-2.44-36.24-4.57-6-1.07-12-2.31-17.9-3.85a170.68,170.68,0,0,1-17.53-5.45,69.16,69.16,0,0,1-16.49-8.5,20.61,20.61,0,0,1-6.38-7.31A16.51,16.51,0,0,1,3,202.08a13.74,13.74,0,0,1-.19-2.6,17.08,17.08,0,0,1,.92-4.85,26,26,0,0,1,2.73-5.51H87.65v4.94H42.21l45.44.57v13.5C49,208,13,205.87,7.44,193.09a22,22,0,0,0-1,2.45,14.68,14.68,0,0,0-.79,4.06,10.23,10.23,0,0,0,.11,1.94,16.58,16.58,0,0,0,.58,1.86,18.22,18.22,0,0,0,5.48,6.28,66.23,66.23,0,0,0,15.77,8.23c11.23,4.34,23.06,7.12,34.9,9.58s23.89,4.1,36,5.34,24.18,2,36.33,2.38C122.59,235.51,110.42,235.09,98.28,234.23Zm465.9-102.36c.44.33,1.78,1.55,2.94,5.25-3,3.68-3.1,17.11-3.1,17.27a77,77,0,0,0,.82,10.49H506.63c.56,5.27,1.48,10.17,2.44,12h-.43c-1.74-1.42-3.49-14.15-3.49-22.51s1.75-21.09,3.49-22.52ZM533.8,92h4.83q-5.79,5.79-9.77,19.27A132.59,132.59,0,0,0,525.07,129H515C517.05,115.35,522.8,92,533.8,92ZM786.65,150.1c-5.2-1.21-23.29-5.3-46.5-9.32l3.45-5.47H796Zm-41.24-17.67,75-118.9h52.39l-1.3,2.06-48.23,2.13,45.61,2L797.79,132.43ZM874.58,10.65H822.2l4-6.34h52.39ZM765,4.45,695.85,81.67h-17c.33-.33.66-.66,1-1l59.83-64A39,39,0,0,1,765,4.45ZM677.36,83.1h19.13L767.05,4.34l1.06,0h53L735.55,140c-25.63-4.3-56.58-8.28-83.2-8.28H567.87a6,6,0,0,0-2.89-2.65l-.21-.07H535.86c1.84-12.43,6.82-33,16.15-37H653.88A35.71,35.71,0,0,0,677.36,83.1ZM270.76,210.92c0-.14,0-.46.51-.94,6.92-6.52,51.45-3.9,87.24-1.8,17.78,1,34.56,2,46.94,2,23.55,0,37.68,3.51,45.4,6.46-3.43-.27-28.5-2.29-37.63-2.81s-18.3-.86-27.46-.83-103.7-1.52-114.54-1.51A1.35,1.35,0,0,1,270.76,210.92Zm147.32,6.39-3.58.06c-31.65.46-67.53,1-95.64.13-24.05-.73-36.08-2.35-42.1-3.81,8.95.57,45.1,2.48,54.23,2.84s18.26.51,27.4.65,18.27.09,27.42-.1,18.16-.06,27.27.11Zm-95.79,3.51a25.94,25.94,0,0,0,9.43,3.88c3.32.75,6.74.44,10.2.41,6.88-.11,58.51.39,61.95.55-3.44.17-34.41.67-41.3.72s-25.82-.27-25.82-.27a25.26,25.26,0,0,1-5.19-.73A24.83,24.83,0,0,1,322.29,220.82Zm111.38-12.93a181.92,181.92,0,0,0-28.22-2c-12.25,0-29-1-46.69-2-49.64-2.91-82.75-4.29-90.45,3a6.62,6.62,0,0,0-.88,1c-56.43,0-162.56.28-178.34.24V194.74H642.77v4.73c-27.7,5-53.26,8.42-71.66,8.42ZM644.2,194.74h23.57c-7.95,1.62-15.84,3.06-23.57,4.47Zm27.17-1H644.2v-4.66h49.38C686.21,190.76,678.78,192.25,671.37,193.78Zm-28.6,0H89.09v-4.64h16a6.68,6.68,0,0,0,5.56,3h9.12a6.67,6.67,0,0,0,5.56-3H642.77Zm-537.4-8.36V155.66a5.27,5.27,0,0,1,5.26-5.27h9.12a5.27,5.27,0,0,1,5.26,5.27V185.4a5.26,5.26,0,0,1-5.26,5.26h-9.12A5.26,5.26,0,0,1,105.37,185.4Zm424-56.4c1.93-13.06,7.28-35,17.37-36.89-8.7,8.2-12.47,27.8-13.8,36.89Zm37.5,25.39c0-5.37,1.09-13.77,2.2-15.32,3.1.22,24.26,3,38.71,4.92l0,.06a2.18,2.18,0,0,1,.82.61,3.82,3.82,0,0,1,.5.68,8.85,8.85,0,0,1,.68,1.43,17.59,17.59,0,0,1,.72,3,38.11,38.11,0,0,1,.27,5.94,34.27,34.27,0,0,1-.58,5.89,16.87,16.87,0,0,1-.83,2.85,4.37,4.37,0,0,1-1.78,2.3,4.4,4.4,0,0,0,1.51-2.4,16.1,16.1,0,0,0,.59-2.84,44.86,44.86,0,0,0,.23-5.8,39.28,39.28,0,0,0-.54-5.76,15.39,15.39,0,0,0-.7-2.73,7.88,7.88,0,0,0-.59-1.2,4.09,4.09,0,0,0-.38-.5,1.17,1.17,0,0,0-.29-.25,38.06,38.06,0,0,0-.82,9.15c0,1.78.06,3.28.15,4.56l-38.7,1.31a43.11,43.11,0,0,0,1.61,9.39l-.56,0C568,168.15,566.9,159.75,566.9,154.39Zm-62.6-19.1c-1.9,7.46-2,18.93-2,19.1s0,2.91.29,6.64h-2c.43,5.15,1.28,10.45,2.2,12.45h-.49c-1.44-1.49-2.88-12.18-2.88-19.09s1.44-17.61,2.88-19.1Zm72.24,51c4.42-1.41,8.45-3.47,12.91-4.22,7.07-1.18,27.66-2,27.66-13.35,0-5.81-2.07-11.38-4.09-15.44-.21-9.93-3-11.67-3.91-12l-.25-.05c-3.56-.48-32.7-4.38-39-5,0-.08,0-.16-.08-.24h73v50.23Zm-80-31.86c0,.18.11,15.29,3.26,20.33a88.6,88.6,0,0,0,5.49,11.53H126.36a6,6,0,0,0,.09-.85V155.66a6.71,6.71,0,0,0-6.7-6.7h-9.12a6.7,6.7,0,0,0-6.69,6.7V185.4a6,6,0,0,0,.08.85H89.09V143.3c2.7-.75,5.42-1.48,8.15-2.14,5.93-1.4,11.91-2.59,17.94-3.45,3.48-.49,7-.85,10.48-1.06,4.32-.41,8.51-.63,12.52-.63H498.83C496.59,142.22,496.5,154.22,496.5,154.39ZM14.8,179.53a105.61,105.61,0,0,1,14.82-11,204.41,204.41,0,0,1,32.8-16.29q12.4-4.89,25.23-8.57v42.54H8.44A54,54,0,0,1,14.8,179.53Zm770.7-12.94c-19.23,5.1-45.55,11.85-73.79,18.41,2.66,0,60.37.53,65.13.69-4.76.16-132.64.56-132.64.56V136h8.15c52.29,0,121.64,15.57,133.15,18.24ZM78.15,268.06a7.59,7.59,0,0,1-5.77-2.69,7.55,7.55,0,0,0,5,1.88,7.62,7.62,0,0,0,5.78-12.62,7.63,7.63,0,0,1-5,13.43Zm14.67-13.27a15.86,15.86,0,0,1,1,6A16,16,0,0,0,89.06,250a15.56,15.56,0,0,0-21.73,0,16,16,0,0,0-4.78,10.87,15.68,15.68,0,0,1,30.27-6Zm-8.29-9.54a14.71,14.71,0,0,0-2.78-.87v-7.6c3.09.37,6.24.69,9.44,1ZM443.39,240h5.83v4.65a16.8,16.8,0,0,0-2.51.94Zm10.26,28.1a7.59,7.59,0,0,1-5.77-2.69,7.61,7.61,0,0,0,10.74-10.73,7.56,7.56,0,0,1,2.68,5.77A7.65,7.65,0,0,1,453.65,268.06Zm14.66-13.27a15.67,15.67,0,0,1,1,6A16,16,0,0,0,464.57,250a15.58,15.58,0,0,0-21.74,0,16,16,0,0,0-4.78,10.87,15.67,15.67,0,0,1,1-6A15.73,15.73,0,0,1,465,249.58,15.72,15.72,0,0,1,468.31,254.79Zm-7.46-9.15a15.9,15.9,0,0,0-4.44-1.42V240h9.5ZM802.11,161.9a86,86,0,0,1,.71,10,85.67,85.67,0,0,1-.71,10c-.38.15-.82.32-1.3.49.12-.87.3-2.47.56-5.33a54.73,54.73,0,0,0-.12-10.25l-11.44-2.23v-6.2A66.89,66.89,0,0,1,802.11,161.9Z"/><path class="cls-1" d="M331.09,212.44c9.12.2,45.57.61,54.67.6s18.34.27,27.46.83,18.23,1.24,27.33,2c3.43.3,6.87.58,10.3.85-7.72-3-21.85-6.46-45.4-6.46-12.38,0-29.16-1-46.94-2-35.79-2.1-80.32-4.72-87.24,1.8-.5.48-.51.8-.51.94a1.35,1.35,0,0,0,.46.61C282.06,211.52,331.09,212.44,331.09,212.44Z"/><path class="cls-1" d="M385.81,217.08c-9.15.19-18.29.15-27.42.1s-18.28-.34-27.4-.65-45.28-2.27-54.23-2.84c6,1.46,18.05,3.08,42.1,3.81,28.11.86,64,.33,95.64-.13l3.58-.06-5-.12C404,217,394.9,216.83,385.81,217.08Z"/><polygon class="cls-2" points="62.51 159.49 48.97 173.61 72.09 175.66 70.77 159.49 62.51 159.49"/><path class="cls-2" d="M60.53,159.49h-8.8A191,191,0,0,0,31,170.77c-.56.36-1.11.73-1.66,1.1l17.79,1.58Z"/><path class="cls-1" d="M87.65,186.25V143.71q-12.81,3.66-25.23,8.57a204.41,204.41,0,0,0-32.8,16.29,105.61,105.61,0,0,0-14.82,11,54,54,0,0,0-6.36,6.72Zm-58.3-14.38c.55-.37,1.1-.74,1.66-1.1a191,191,0,0,1,20.72-11.28h8.8l-13.39,14ZM49,173.61l13.54-14.12h8.26l1.32,16.17Z"/><path class="cls-1" d="M134.74,235.21c-12.15-.35-24.27-1.05-36.33-2.38s-24.09-3-36-5.34-23.67-5.24-34.9-9.58a66.23,66.23,0,0,1-15.77-8.23A18.22,18.22,0,0,1,6.3,203.4a16.58,16.58,0,0,1-.58-1.86,10.23,10.23,0,0,1-.11-1.94,14.68,14.68,0,0,1,.79-4.06,22,22,0,0,1,1-2.45C13,205.87,49,208,87.65,208.13v-13.5l-45.44-.57H87.65v-4.94H6.41a26,26,0,0,0-2.73,5.51,17.08,17.08,0,0,0-.92,4.85,13.74,13.74,0,0,0,.19,2.6,16.51,16.51,0,0,0,.79,2.47,20.61,20.61,0,0,0,6.38,7.31,69.16,69.16,0,0,0,16.49,8.5,170.68,170.68,0,0,0,17.53,5.45c5.92,1.54,11.89,2.78,17.9,3.85,12,2.13,24.11,3.61,36.24,4.57S122.59,235.51,134.74,235.21Z"/><path class="cls-2" d="M143,168.81c2.76,0,3.85-2.24,3.85-5s-1.09-5-3.85-5-3.85,2.23-3.85,5S140.22,168.81,143,168.81Z"/><path class="cls-2" d="M162.09,168.81c2.76,0,3.84-2.24,3.84-5s-1.08-5-3.84-5-3.85,2.23-3.85,5S159.32,168.81,162.09,168.81Z"/><path class="cls-2" d="M181.2,158.81c-2.77,0-3.85,2.23-3.85,5s1.08,5,3.85,5,3.84-2.24,3.84-5S184,158.81,181.2,158.81Z"/><path class="cls-2" d="M200.31,158.81c-2.77,0-3.85,2.23-3.85,5s1.08,5,3.85,5,3.84-2.24,3.84-5S203.07,158.81,200.31,158.81Z"/><path class="cls-2" d="M219.42,158.81c-2.76,0-3.85,2.23-3.85,5s1.09,5,3.85,5,3.84-2.24,3.84-5S222.18,158.81,219.42,158.81Z"/><path class="cls-2" d="M238.53,158.81c-2.77,0-3.85,2.23-3.85,5s1.08,5,3.85,5,3.85-2.24,3.85-5S241.29,158.81,238.53,158.81Z"/><path class="cls-2" d="M257.64,158.81c-2.76,0-3.85,2.23-3.85,5s1.09,5,3.85,5,3.84-2.24,3.84-5S260.4,158.81,257.64,158.81Z"/><path class="cls-2" d="M276.75,158.81c-2.77,0-3.85,2.23-3.85,5s1.08,5,3.85,5,3.84-2.24,3.84-5S279.51,158.81,276.75,158.81Z"/><path class="cls-2" d="M295.86,158.81c-2.77,0-3.85,2.23-3.85,5s1.08,5,3.85,5,3.84-2.24,3.84-5S298.62,158.81,295.86,158.81Z"/><path class="cls-2" d="M315,158.81c-2.77,0-3.85,2.23-3.85,5s1.08,5,3.85,5,3.85-2.24,3.85-5S317.73,158.81,315,158.81Z"/><path class="cls-2" d="M334.08,158.81c-2.77,0-3.85,2.23-3.85,5s1.08,5,3.85,5,3.85-2.24,3.85-5S336.84,158.81,334.08,158.81Z"/><path class="cls-2" d="M353.19,158.81c-2.77,0-3.85,2.23-3.85,5s1.08,5,3.85,5,3.84-2.24,3.84-5S356,158.81,353.19,158.81Z"/><path class="cls-2" d="M372.3,158.81c-2.77,0-3.85,2.23-3.85,5s1.08,5,3.85,5,3.84-2.24,3.84-5S375.06,158.81,372.3,158.81Z"/><path class="cls-2" d="M391.41,158.81c-2.77,0-3.85,2.23-3.85,5s1.08,5,3.85,5,3.84-2.24,3.84-5S394.17,158.81,391.41,158.81Z"/><path class="cls-2" d="M410.52,158.81c-2.77,0-3.85,2.23-3.85,5s1.08,5,3.85,5,3.84-2.24,3.84-5S413.28,158.81,410.52,158.81Z"/><path class="cls-2" d="M429.62,158.81c-2.76,0-3.84,2.23-3.84,5s1.08,5,3.84,5,3.85-2.24,3.85-5S432.39,158.81,429.62,158.81Z"/><path class="cls-2" d="M448.74,158.81c-2.76,0-3.85,2.23-3.85,5s1.09,5,3.85,5,3.84-2.24,3.84-5S451.5,158.81,448.74,158.81Z"/><path class="cls-2" d="M467.84,158.81c-2.76,0-3.84,2.23-3.84,5s1.08,5,3.84,5,3.85-2.24,3.85-5S470.61,158.81,467.84,158.81Z"/><path class="cls-2" d="M487,168.81c2.76,0,3.84-2.24,3.84-5s-1.08-5-3.84-5-3.85,2.23-3.85,5S484.19,168.81,487,168.81Z"/><rect class="cls-1" x="105.37" y="150.39" width="19.64" height="40.27" rx="5.26"/><path class="cls-1" d="M499.37,154.39c0,6.91,1.44,17.6,2.88,19.09h.49c-.92-2-1.77-7.3-2.2-12.45h2c-.25-3.73-.29-6.56-.29-6.64s.13-11.64,2-19.1h-2.05C500.81,136.78,499.37,147.47,499.37,154.39Z"/><path class="cls-1" d="M505.15,154.39c0,8.36,1.75,21.09,3.49,22.51h.43c-1-1.85-1.88-6.75-2.44-12h58.21a77,77,0,0,1-.82-10.49c0-.16.05-13.59,3.1-17.27-1.16-3.7-2.5-4.92-2.94-5.25H508.64C506.9,133.3,505.15,146,505.15,154.39Z"/><path class="cls-1" d="M569.1,169.7l.56,0a43.11,43.11,0,0,1-1.61-9.39l38.7-1.31c-.09-1.28-.15-2.78-.15-4.56a38.06,38.06,0,0,1,.82-9.15,1.17,1.17,0,0,1,.29.25,4.09,4.09,0,0,1,.38.5,7.88,7.88,0,0,1,.59,1.2,15.39,15.39,0,0,1,.7,2.73,39.28,39.28,0,0,1,.54,5.76,44.86,44.86,0,0,1-.23,5.8,16.1,16.1,0,0,1-.59,2.84,4.4,4.4,0,0,1-1.51,2.4,4.37,4.37,0,0,0,1.78-2.3,16.87,16.87,0,0,0,.83-2.85,34.27,34.27,0,0,0,.58-5.89,38.11,38.11,0,0,0-.27-5.94,17.59,17.59,0,0,0-.72-3,8.85,8.85,0,0,0-.68-1.43,3.82,3.82,0,0,0-.5-.68,2.18,2.18,0,0,0-.82-.61l0-.06c-14.45-1.94-35.61-4.7-38.71-4.92-1.11,1.55-2.2,10-2.2,15.32S568,168.15,569.1,169.7Z"/><path class="cls-2" d="M562,96.51c15.83.56,79.14,1.41,95,1.44s79.14-.88,95-1.44c-15.83-.56-79.14-1.41-95-1.43S577.86,96,562,96.51Z"/><path class="cls-2" d="M242.2,140.57c26.84.23,228.15-.78,241.58-1.11-13.43-.32-308.68-.32-322.1,0C175.1,139.79,242.2,140.57,242.2,140.57Z"/><path class="cls-1" d="M336.75,226.11s39.59.22,46.47.1c0,0,17.21-.38,20.65-.55-3.44-.16-34.41-.66-41.3-.71s-13.77.05-20.65.16c-3.46,0-6.88.34-10.2-.41a25.94,25.94,0,0,1-9.43-3.88,24.83,24.83,0,0,0,9.27,4.56A25.26,25.26,0,0,0,336.75,226.11Z"/><path class="cls-1" d="M83.12,254.63a7.61,7.61,0,0,1-10.74,10.74,7.62,7.62,0,1,0,10.74-10.74Z"/><path class="cls-1" d="M78.2,244.84a15.53,15.53,0,0,0-15.65,16A16,16,0,0,1,67.33,250a15.56,15.56,0,0,1,21.73,0,16,16,0,0,1,4.79,10.87,15.59,15.59,0,0,0-15.65-16Z"/><path class="cls-1" d="M458.62,254.64a7.55,7.55,0,0,1,1.87,5,7.6,7.6,0,0,1-12.61,5.77,7.62,7.62,0,1,0,10.74-10.73Z"/><path class="cls-1" d="M453.7,244.84a15.67,15.67,0,0,0-14.62,9.95,15.67,15.67,0,0,0-1,6A16,16,0,0,1,442.83,250a15.58,15.58,0,0,1,21.74,0,16,16,0,0,1,4.77,10.87A15.41,15.41,0,0,0,465,249.58,15.91,15.91,0,0,0,453.7,244.84Z"/></g></g></svg>