<svg xmlns="http://www.w3.org/2000/svg" viewBox="0 0 190.85 100.71"><defs><style>.cls-1{isolation:isolate;}.cls-2{fill:#db7301;}.cls-3{fill:#273141;}.cls-4{fill:#58094c;}.cls-5{fill:#8c2c1c;}.cls-6{fill:#fea900;}.cls-7{fill:#5f243b;}.cls-8{fill:#ba381b;}.cls-9{fill:#ad2f1a;}.cls-10{fill:#ff5725;}.cls-11{fill:#d34220;}.cls-12{fill:#ffdd57;}.cls-13{fill:#842653;}.cls-14{fill:#fffd73;}.cls-15{fill:#d23c2b;}.cls-16{fill:#ff862e;}.cls-17{fill:#ffa34e;mix-blend-mode:screen;opacity:0.42;}.cls-18{fill:#53688a;}.cls-19{fill:#ff4d25;}.cls-20{fill:#ce2409;}</style></defs><g class="cls-1"><g id="Слой_2" data-name="Слой 2"><g id="Layer_1" data-name="Layer 1"><path class="cls-2" d="M67.49,6.23c8.53.9,115.23,32.68,123.36,37.7-.06-.66-.18-1.49-.18-1.49a15,15,0,0,0-3.11-2.53C184.81,38.09,72.9,1,64.07,0,57.38-.69,42.49,16.45,47,25,49.31,18.05,62.06,5.65,67.49,6.23Z"/><path class="cls-3" d="M130.45,86.32a5.79,5.79,0,1,1-6.63-4.81A5.79,5.79,0,0,1,130.45,86.32Z"/><path class="cls-4" d="M166.4,39.55l-4.65,31.3,1.73.63,5-32.27S166.7,37.52,166.4,39.55Z"/><path class="cls-2" d="M140.1,62.17s32.67,5.52,34.38,8.69-11.61,8.4-17.21,8.58c-4.34.13-61.3-7.39-61.3-7.39Z"/><path class="cls-5" d="M139.44,62.84s32.68,5.52,34.38,8.7-11.61,8.39-17.21,8.57c-4.34.13-61.3-7.39-61.3-7.39Z"/><polygon class="cls-4" points="124.43 88.93 120.04 73.09 122.14 72.51 125.01 82.86 133.76 65.21 135.72 66.17 124.43 88.93"/><path class="cls-6" d="M16.14,76.24C15.76,73.83,4.21,55.39,7.3,53.46S24,59.26,28.56,61.84s5.29,5.72,5.29,5.72Z"/><path class="cls-7" d="M84.92,44.26s9.75,1.2,14.91,0,4.48-.77,6.83-1.63,11.25-3.1,11.25-3.1l-2.27,11.13L92.4,52.39l-7-2.71Z"/><path class="cls-8" d="M48.65,26.39s59.26,14.89,63.6,14.8,59.85,12.1,67.9,11.92,11.46-7.42,10.55-10.59S75.2,5.32,66.37,4.39C59.05,3.61,40.5,22.21,48.65,26.39Z"/><path class="cls-9" d="M111.78,41.15c4.34-.1,59.84,12.05,67.9,12.05A11.21,11.21,0,0,0,186,51.46c-15.59-8.6-44.28-22.85-66.4-25.27-19.44-2.12-39.38,1.55-52.13,4.86C85.16,35.4,109.08,41.21,111.78,41.15Z"/><path class="cls-6" d="M16.21,73.61s-6.53,5.88,24.56,9,112.4-15.4,112.4-15.4l-3-36.3L119,36.1s-9,12-21.76,12.65-12.28-4.49-12.28-4.49S21.51,55.77,16.21,73.61Z"/><path class="cls-10" d="M153.17,67.23l-1.66-20.36c-4.14,3-10.88,6.87-21.44,10.31-18.79,6.11-88.88,8-107.41,8.42-3.29,2.5-5.6,5.17-6.45,8,0,0-6.53,5.88,24.56,9S153.17,67.23,153.17,67.23Z"/><path class="cls-11" d="M39.08,78.38c-13.2-1.3-19.76-3.08-22.93-4.71-.57.62-4.66,6,24.62,9,31.08,3.14,112.4-15.4,112.4-15.4l-.33-4C142.84,65.42,68.68,81.31,39.08,78.38Z"/><polygon class="cls-4" points="124.29 86.53 109.04 88.47 109.24 90.64 124.49 88.36 124.29 86.53"/><path class="cls-12" d="M160.73,48.31c.84,10-2.5,18.49-7.47,18.91s-9.68-7.37-10.52-17.39,2.5-18.49,7.46-18.9S159.88,38.29,160.73,48.31Z"/><path class="cls-13" d="M159.24,48.62c.63,7.41-1.65,13.65-5.07,13.94s-6.71-5.49-7.33-12.89,1.64-13.65,5.07-13.93S158.62,41.22,159.24,48.62Z"/><path class="cls-4" d="M87.2,22.84l-7,33.08,2.13.58,7.41-33.33C90,22.11,87.6,21.42,87.2,22.84Z"/><path class="cls-4" d="M71.21,18.3,64.07,51.68l2.13.58,7.42-33.33C73.9,17.13,71.43,17.17,71.21,18.3Z"/><path class="cls-14" d="M154,48.33S138.78,67.52,140.78,71.6c2.15,4.38,6.8,2,8.41-3.48,1.3-4.46,5.38-19.22,5.38-19.22Z"/><path class="cls-14" d="M154.71,46.91s3.88-18.52,7.89-20,6.28,1.55,5.12,4.37-12.07,16.41-12.07,16.41Z"/><path class="cls-15" d="M33.85,67.56s-17.76-1.88-30.28-.51,12.1,8.17,12.1,8.17l18.92-3.06Z"/><path class="cls-16" d="M3.57,67.05c-3.66.4-4.12,1.22-3.1,2.21,1.44-.34,4-.51,8.9-.21a244.4,244.4,0,0,1,25.22,3.11l-.74-4.6S16.09,65.68,3.57,67.05Z"/><path class="cls-2" d="M45.44,60.35s15.86,1.54,24.91,2.39c7.71.72,49.1-.22,49.1-.22l.2-3.05S74.29,44.81,64.78,44.07c-6.12-.47-15.09,3.35-18.87,8.19C43.81,54.94,44.2,58.82,45.44,60.35Z"/><path class="cls-5" d="M45.44,60.35S62,66.2,71,67.05s48.44-4.53,48.44-4.53S74.29,49.88,64.78,49.15,42,56.07,45.44,60.35Z"/><path class="cls-17" d="M138,44.33c.95,3.23-2.81,7.19-8.39,8.83s-10.88.35-11.83-2.89,2.8-7.2,8.38-8.84S137.07,41.09,138,44.33Z"/><path class="cls-4" d="M166.4,52.75l2.12-13.54c0-.89-1.66-1.24-2-.4l-2,13.29A2.55,2.55,0,0,1,166.4,52.75Z"/><path class="cls-17" d="M40.58,58.21S28,61.57,27,64.25s13,.37,14.93-1.51S40.58,58.21,40.58,58.21Z"/><path class="cls-4" d="M116.24,72.41c-.64,1.27-1.34,2.67-2.12,4.26-2.18,4.43-4.31,8.89-5.6,11.61l-6.68-13.44c-.34-.28-2.19.17-2.14.62,5.09,10.23,7.68,15.25,7.58,15.46l1,.46c4.73-9,8-15.06,10.34-19.2C118.61,71.89,116.44,72.07,116.24,72.41Z"/><path class="cls-3" d="M115.69,91.67a7.8,7.8,0,1,1-8.93-6.47A7.8,7.8,0,0,1,115.69,91.67Z"/><path class="cls-18" d="M112.26,92.22a4.32,4.32,0,1,1-5-3.59A4.32,4.32,0,0,1,112.26,92.22Z"/><path class="cls-4" d="M127.23,87.29a3,3,0,1,1-2.94-2.73A2.84,2.84,0,0,1,127.23,87.29Z"/><path class="cls-19" d="M156.94,49.36c-.23,1.86-1.47,3.24-2.78,3.08s-2.19-1.8-2-3.66,1.47-3.24,2.78-3.08S157.16,47.5,156.94,49.36Z"/><path class="cls-20" d="M154.37,52.67h-.24a2.31,2.31,0,0,1-1.72-1.31,4.45,4.45,0,0,1-.43-2.59,4.39,4.39,0,0,1,1-2.42,2.28,2.28,0,0,1,2-.86,2.32,2.32,0,0,1,1.73,1.31,4.39,4.39,0,0,1,.42,2.6h0a4.44,4.44,0,0,1-1,2.42A2.4,2.4,0,0,1,154.37,52.67Zm.4-6.77a2,2,0,0,0-1.43.73,4.26,4.26,0,0,0-.55,4.52,1.71,1.71,0,0,0,3,.36,3.91,3.91,0,0,0,.93-2.18h0a3.94,3.94,0,0,0-.38-2.34A1.9,1.9,0,0,0,155,45.91Z"/></g></g></g></svg>