<?xml version="1.0" encoding="UTF-8"?><svg xmlns="http://www.w3.org/2000/svg" xmlns:xlink="http://www.w3.org/1999/xlink" viewBox="0 0 96.32 211.22"><defs><style>.f{fill:#ff3e30;}.g,.h{stroke:#282a33;stroke-linecap:round;stroke-miterlimit:10;stroke-width:.24px;}.g,.i{fill:#343642;}.h,.j{fill:none;}.k{fill:#23368c;}.l{clip-path:url(#e);}.m{fill:#e88d2a;}.n{clip-path:url(#d);}.o{fill:#282a33;}.p{fill:#219a9c;}.q{fill:#fc9e3a;}.r{fill:#f1e7dd;}.s{fill:#1e888a;}.t{fill:#ffa13d;}</style><clipPath id="d"><path class="j" d="M41.93,39.7s-1.62-4.11-6.33-1.34c0,0,1.69,3.46,6.33,1.34Z"/></clipPath><clipPath id="e"><path class="j" d="M10.08,64.31c2.12-2.08,4.7-4.06,10.84-4.63,7.66-.72,8.57-.73,8.57-.73h10.86s5.09,.48,8.76,.99c3.67,.52,6.99,3.17,8.58,6.42,1.59,3.25,2.06,7.23,1.99,13.8s.4,15.78,1.66,18.04c1.26,2.26,5.41,6.33,12.73,10.61,6.21,3.63,8.89,3.12,8.89,3.12l-2.45,6.76s-14.66-3.91-22.09-7.96c-7.43-4.05-9.22-17.71-10.08-19.7,0,0-1.79,4.05-2.25,10.35l-27.52-11.34s-1.92-7.3-2.52-11.08l-.46-.66s-2.72,11.81-3.98,16.85c-1.26,5.04-1.39,5.5-1.26,15.19,.13,9.68-.04,12.47-.04,12.47H5.04s-3.12-13.2-3.85-19.7c-.73-6.5,.73-11.34,1.86-19.03,1.13-7.69,2.45-15.26,7.03-19.76Z"/></clipPath></defs><g id="a"/><g id="b"><g id="c"><g><g><path class="s" d="M34.35,32.21s1.5-9.88,.32-16.38c-1.19-6.5-3.72-13.1-9.79-14.34-6.06-1.24-6.69,4.12-4.54,7.76,0,0-1.96,.87,.71,3.47,2.67,2.61,9.78,13.94,10.76,19.33,.97,5.38,2.54,.16,2.54,.16Z"/><path class="h" d="M33.62,32.26c.06-.14,.37-21.37-11.84-29.56"/><path class="m" d="M22.78,16.66s1.94,0,4.11,1.84-2.82,3.09-2.13,4.69-1.79,1.24-1.79,1.24c0,0-1.09-1.39-2.52-2.75-1.42-1.36-1.88-2.2,.48-4.09l1.85-.93Z"/><path class="t" d="M33.27,31.95l-.34-4.83s0-3.86-3.13-3.9c-3.13-.05-5.57,.66-5.73-.86-.16-1.52,1.32-4.68-.38-5.49s-5.04,.95-3.53,1.64c1.51,.69,1.69,.61,1.69,.61,0,0-1.49,7.42,3.38,7.01,4.87-.41,5.48,6.33,5.48,6.33l2.56-.51Z"/><path class="m" d="M31.81,32.05l-.2-2.84s-.54-3.88-3.6-3.87-12.54,5.13-16.53-1.57c0,0,2.8,7.52,9.85,6.16s7.4-3.62,7.88,2.19l2.6-.06Z"/><path class="p" d="M33.57,31.62s-2.19-9.75-1.46-16.31c.73-6.57,2.8-13.33,8.76-14.99,5.96-1.66,6.96,3.65,5.07,7.43,0,0,2.02,.73-.47,3.52-2.49,2.79-8.79,14.59-9.38,20.03-.6,5.44-2.52,.33-2.52,.33Z"/><path class="h" d="M34.3,31.62c-.07-.13-1.86-21.29,9.75-30.31"/><path class="m" d="M44.03,15.3s-1.93,.13-3.97,2.12c-2.04,1.99,3.03,2.89,2.45,4.53-.58,1.64,1.88,1.11,1.88,1.11,0,0,.99-1.46,2.32-2.92,1.33-1.46,1.72-2.32-.76-4.05l-1.91-.8Z"/><path class="t" d="M34.63,31.29v-4.84s-.27-3.85,2.85-4.11c3.12-.27,5.6,.27,5.65-1.26,.05-1.53-1.64-4.58,0-5.5,1.64-.93,5.09,.6,3.63,1.39-1.46,.8-1.64,.73-1.64,.73,0,0,2.01,7.3-2.89,7.23-4.89-.07-5.02,6.7-5.02,6.7l-2.59-.33Z"/><path class="m" d="M36.09,31.29v-2.85s.27-3.91,3.32-4.11c3.05-.2,12.86,4.24,16.38-2.72,0,0-2.27,7.69-9.39,6.83s-7.64-3.09-7.71,2.73l-2.59,.12Z"/><path class="f" d="M46.4,12.93c0-1.31-1.06-2.37-2.37-2.37s-2.37,1.06-2.37,2.37,1.06,2.37,2.37,2.37,2.37-1.06,2.37-2.37Z"/><path class="f" d="M25.01,14.29c0-1.31-1.06-2.37-2.37-2.37s-2.37,1.06-2.37,2.37,1.06,2.37,2.37,2.37,2.37-1.06,2.37-2.37Z"/><circle class="f" cx="33.27" cy="17.47" r="5.68"/></g><path class="k" d="M44.55,33.38s-6.31-4.78-18.12-.8c-9.18,3.09-15.12,13.03-16.61,20.79s-1.39,18.6-1.29,18.9c.1,.3,40.29,.13,40.29,.13v-27.49l-4.26-11.53Z"/><path class="i" d="M10.08,64.31c2.12-2.08,4.7-4.06,10.84-4.63,7.66-.72,8.57-.73,8.57-.73h10.86s5.09,.48,8.76,.99c3.67,.52,6.99,3.17,8.58,6.42,1.59,3.25,2.06,7.23,1.99,13.8s.4,15.78,1.66,18.04c1.26,2.26,5.33,6.48,12.73,10.61,1.55,.86,8.79,3.4,8.79,3.4l-2.35,6.48s-14.66-3.91-22.09-7.96c-7.43-4.05-9.22-17.71-10.08-19.7,0,0-1.79,4.05-2.25,10.35l-27.52-11.34s-1.92-7.3-2.52-11.08l-.46-.66s-2.72,11.81-3.98,16.85c-1.26,5.04-1.39,5.5-1.26,15.19,.13,9.68-.04,12.47-.04,12.47H5.04s-3.12-13.2-3.85-19.7c-.73-6.5,.73-11.34,1.86-19.03,1.13-7.69,2.45-15.26,7.03-19.76Z"/><g><path class="f" d="M34.93,75.19c9.25,0,17.04-5.51,19.34-12.99-.87-.68-1.83-1.23-2.85-1.63-1.6,6.52-8.38,11.43-16.49,11.43s-15.23-5.18-16.59-11.96c-1.18,.22-2.2,.51-3.09,.84,1.75,8.14,9.89,14.3,19.68,14.3Z"/><path class="t" d="M48.33,59.84c-1.26,5.11-6.79,8.98-13.39,8.98s-12.27-3.97-13.43-9.19c-.19,.02-.38,.03-.58,.05-.94,.09-1.79,.21-2.58,.36,1.36,6.78,8.27,11.96,16.59,11.96s14.89-4.91,16.49-11.43c-.74-.29-1.51-.51-2.3-.62-.26-.04-.52-.07-.79-.11Z"/><path class="f" d="M34.93,68.82c6.61,0,12.13-3.86,13.39-8.98-1.04-.14-2.15-.27-3.2-.39-1.09,3.54-5.24,6.18-10.19,6.18s-9.2-2.7-10.23-6.3c-.89,.08-1.95,.18-3.2,.29,1.16,5.22,6.74,9.19,13.43,9.19Z"/><path class="t" d="M34.93,63.25c-3.64,0-6.8-1.78-7.78-4.12-.64,.05-1.44,.12-2.45,.21,1.03,3.6,5.22,6.3,10.23,6.3s9.1-2.64,10.19-6.18c-.88-.1-1.72-.19-2.44-.26-1.01,2.32-4.15,4.06-7.75,4.06Z"/><path class="f" d="M34.93,63.25c3.61,0,6.75-1.74,7.75-4.06-1.38-.14-2.33-.23-2.33-.23h-.33c-.93,1.04-2.83,1.9-5.09,1.9s-4.17-.87-5.09-1.9h-.35s-.35,0-2.33,.17c.98,2.35,4.14,4.12,7.78,4.12Z"/></g><g><path class="k" d="M30.99,73.89c-.73-3.99-2.09-13.2-1.24-22.72l-8.69,5.58c-.09,.37-1.02,10.39,.83,17.41,1.8,.27,5.44,.6,9.1-.28Z"/><path class="q" d="M31.4,75.95s-.17-.75-.41-2.06c-3.65,.87-7.3,.54-9.1,.28,.16,.62,.41,1.75,.62,2.32,0,0,4.32,.66,8.89-.53Z"/></g><g><path class="k" d="M50.89,73.89c-.73-3.99-2.93-19.46-2.07-28.98,0,0-9.04-.08-8.75,10.28s.53,12.93,1.73,18.97c1.8,.27,5.44,.6,9.1-.28Z"/><path class="q" d="M51.3,75.95s-.17-.75-.41-2.06c-3.65,.87-7.3,.54-9.1,.28,.16,.62,.69,1.75,.9,2.32,0,0,4.04,.66,8.61-.53Z"/></g><path class="p" d="M29.49,58.96l.26-7.78s.45-4.62-.22-5.02c-.67-.4-4.2-2.44-4.05-5.97,.15-3.53,3.08-6.27,6.76-7.31,3.68-1.04,7.66-.99,9.65-.45,1.99,.55,2.79,.65,4.03,2.34,1.24,1.69,2.45,3.18,4.7,3.23,2.26,.05,7.43,.05,8.68,.15,1.24,.1,2.69,1.34,2.29,3.43s-1.99,4.2-3.98,4.14c0,0-1.74,3.17-4.28,3.12-2.54-.05-8.34-.05-9.77-.05s-3.94,2.83-3.39,10.16c0,0-4.57,4.48-10.68,0Z"/><g><polygon class="r" points="42.24 45.21 43.14 47.7 44.03 45.32 42.24 45.21"/><polygon class="r" points="45.13 45.35 46.37 42.49 47.66 45.35 45.13 45.35"/><polygon class="r" points="48.51 45.45 49.05 47.3 49.6 45.49 48.51 45.45"/><polygon class="r" points="50.89 45.52 51.64 43.92 52.19 45.56 50.89 45.52"/><polygon class="r" points="52.88 45.56 53.39 44.03 53.78 45.61 52.88 45.56"/><polygon class="r" points="54.92 45.64 55.42 47.3 55.97 45.67 54.92 45.64"/></g><path class="h" d="M39.41,46.9s.64-1.74,1.59-1.69c1.69,.08,16.61,.51,16.61,.51"/><path class="o" d="M57.61,42s.07-1.26-.63-1.76c-.7-.5-1.06,.56-.36,.88,.7,.32,.99,.88,.99,.88Z"/><path class="h" d="M55.79,39.18s-2.02,.63-1.09,2.55"/><path class="h" d="M58.41,39.84s.5,.53,.46,1.21"/><g><path class="t" d="M41.93,39.7s-2.23-4.17-6.33-1.34c0,0,1.69,3.58,6.33,1.34Z"/><g class="n"><path class="i" d="M38.89,37.08s.75,1.77-.24,3.57c0,0-.8-1.6,.24-3.57Z"/></g></g><g><path class="t" d="M3.24,82.8c-.06,.43-.13,.85-.19,1.28-.06,.42-.12,.82-.19,1.22,2.99,3.69,8.62,3.85,10.2,3.82,.23-.98,.47-1.98,.7-2.96-1.71,.16-5.58,.02-10.52-3.36Z"/><path class="t" d="M4.78,74.79c-.29,1.15-.54,2.34-.77,3.54,1.83,1.54,5.63,4.12,10.62,4.13,.3-1.28,.55-2.36,.72-3.1-6.2-1.48-9.41-3.63-10.57-4.57Z"/><path class="t" d="M49.61,87.81c-.58,1.65-1.04,2.72-1.04,2.72,7.32,.92,10.42-.74,11.34-1.41-.04-.73-.08-1.47-.11-2.22-2.14,.82-5.51,1.52-10.19,.91Z"/><path class="t" d="M59.7,82.78c0-.9-.01-1.78,0-2.62,0-.39,0-.77,0-1.14-2.65,1.36-8.01,1.08-8.01,1.08-.22,1.27-.52,2.54-.84,3.72,2.33,.27,5.54,.22,8.85-1.04Z"/><path class="f" d="M4,78.34c-.28,1.46-.53,2.96-.76,4.46,4.94,3.37,8.8,3.52,10.52,3.36,.31-1.31,.6-2.57,.86-3.69-4.99,0-8.8-2.59-10.62-4.13Z"/><path class="f" d="M59.8,86.89c-.06-1.38-.09-2.77-.1-4.11-3.31,1.26-6.51,1.31-8.85,1.04-.41,1.5-.85,2.87-1.24,3.98,4.68,.61,8.06-.1,10.19-.91Z"/></g><path class="o" d="M23.8,81.94c-.33,.44-1.41,.18-2.42-.58-1.01-.76-1.56-1.73-1.23-2.16,.33-.44,1.41-.18,2.42,.58,1.01,.76,1.56,1.73,1.23,2.16Z"/><path class="o" d="M44.72,81.94c.33,.44,1.41,.18,2.42-.58,1.01-.76,1.56-1.73,1.23-2.16-.33-.44-1.41-.18-2.42,.58-1.01,.76-1.56,1.73-1.23,2.16Z"/><g class="l"><path class="h" d="M52.73,73.89s-.99,9.33-4.38,17.15"/></g><path class="h" d="M16.98,80.1s-2.98-3.77-4.51-5.77"/><path class="t" d="M18.35,89.45l2.81,15.08,24.97,.47v-4.54s-15.85-6.85-27.78-11.01Z"/><polygon class="p" points="18.96 94.32 46.13 102.18 46.13 104.01 21.5 104.01 18.96 94.32"/><polygon class="t" points="46.13 104.54 46.13 103.21 20.06 99.83 21.16 104.54 46.13 104.54"/><path class="r" d="M16.08,150.47v-34.12c0-5.07,2.98-10.78,5.07-11.81h24.97s.6,12.41,1.1,19.57c.5,7.16,.5,23.38,.4,26.36,0,0-16.41,.4-31.54,0Z"/><path class="i" d="M17.51,148.08s1.99,6.9,1.19,9.82c-.8,2.92-4.11,10.61-3.98,18.31,.13,7.69,3.05,12.47,4.91,17.91,1.86,5.44,2.79,17.11,2.79,17.11h16.98s-8.09-1.86-12.6-7.43c0,0-.4-23.21-.53-29.31s.13-8.62,1.2-12.2c1.06-3.58,1.86-5.17,1.59-8.75-.27-3.58,0-4.78,0-4.78l-11.54-.66Z"/><path class="t" d="M26.7,198.52h-5.96c.34,1.71,.62,3.55,.86,5.27h5.19s-.04-2.14-.09-5.27Z"/><path class="i" d="M35.93,148.08s1.99,6.9,1.19,9.82c-.8,2.92-4.11,10.61-3.98,18.31,.13,7.69,3.05,12.47,4.91,17.91,1.86,5.44,2.79,17.11,2.79,17.11h16.98s-8.09-1.86-12.6-7.43c0,0-.4-23.21-.53-29.31-.13-6.1,.4-8.09,1.47-11.67,1.06-3.58,1.59-5.7,1.32-9.29-.27-3.58,0-4.78,0-4.78l-11.54-.66Z"/><path class="t" d="M45.12,198.52h-5.96c.34,1.71,.62,3.55,.86,5.27h5.19s-.04-2.14-.09-5.27Z"/><path class="k" d="M16.08,150.47v-34.12c0-5.07,2.98-10.78,5.07-11.81h24.97s.6,12.41,1.1,19.57c.5,7.16,.5,23.38,.4,26.36,0,0-16.41,.4-31.54,0Z"/><path class="f" d="M46.13,105l.02-.09-.02-.38H21.16c-2.09,1.02-5.07,6.74-5.07,11.81v34.12c28.02-10.48,30.04-45.46,30.04-45.46Z"/><path class="t" d="M14.19,141.24h-5.46s5.02-1.48,5.02-5.85-3.58-6.02-3.58-6.02v2.61s4.02,4.34-3.07,8.2c-7.1-3.86-3.07-8.2-3.07-8.2v-2.61s-3.58,1.65-3.58,6.02,5.02,5.85,5.02,5.85H0v3.63c1.82-1.65,5.84-2.03,5.84-2.03,0,10.9-1.26,14.35-1.26,14.35h5.02s-1.26-3.45-1.26-14.35c0,0,4.02,.39,5.84,2.03v-3.63Z"/><path class="i" d="M5.25,122.54s-2.45,3.63-2.45,6.49v3.35s0,1.19,1.05,1.19,1.05-.84,1.05-.84c0,0,.18,.84,1.09,.84s1.15-.84,1.15-.84c0,0,.21,.84,1.12,.84s1.05-.84,1.05-.84c0,0,.12,.78,.91,.78s1.53-.43,1.53-3.23c0,0,1.12-.98,1.26-2.23,.14-1.26-2.91-5.51-2.91-5.51H5.25Z"/><path class="i" d="M80.49,118.69s.35,1.66,3.74,2.86c3.38,1.19,6.17,1.42,6.63,.49,.46-.93-.33-1.39-.33-1.39,0,0,.8,.26,1.26-.6,.46-.85-.27-1.36-.27-1.36,0,0,.89,.45,1.26-.52,.37-.98-.53-1.46-.53-1.46,0,0,.78,.27,1.23-.66,.3-.63,.92-1.82-4.21-3.58-6.03-2.08-6.58-.64-6.58-.64l-2.2,6.87Z"/><path class="t" d="M88.7,45.81c-.72-.27-1.52,.1-1.79,.82-.27,.72,.1,1.52,.82,1.79,.21,.08,3.23,1.25,4.82,4.36-1.08-.07-2.5,.07-3.72,.96-1.51,1.1-2.28,2.99-2.28,5.6V192.16c-4.34,1.03-6.22,6.38-1.29,9.57,1.58,1.03,2.02,2.65,2.02,2.65,.4-4.51-1.39-4.31-1.39-6.63s2.19-2.39,2.19-2.39c0,0,2.19,.07,2.19,2.39s-1.79,2.12-1.39,6.63c0,0,.44-1.63,2.02-2.65,5.02-3.26,2.97-8.75-1.56-9.63V59.34c0-1.67,.38-2.79,1.12-3.34,.92-.68,2.4-.44,2.9-.28,.03,0,.06,.01,.09,.02,.19,1.53,.04,3.35-.66,5.5-.24,.73,.16,1.52,.89,1.76,.14,.05,.29,.07,.43,.07,.59,0,1.13-.37,1.32-.96,3.95-12.14-6.63-16.24-6.74-16.28Z"/><path class="g" d="M82.69,117.84s3.32-.13,3.36-4.45c0,0,3.46,2.19,4.63,2.31,1.17,.12,.82-1.96-1.69-4.03-2.51-2.06-4.96-1.11-6.48,.36"/><path class="g" d="M91.91,114.4s-4.87-1.24-4.87,.25c0,1.07,5.21,2.06,5.21,2.06,0,0-5.98-1.69-6.39-.76-.36,.82,5.66,2.74,5.66,2.74,0,0-5.84-2.35-6.2-1.39-.56,1.47,5.21,3.34,5.21,3.34-4.26-1.61-4.87-1.82-5.11-1.38-.66,1.23,4.06,2.95,4.14,2.95"/><path class="t" d="M82.5,112.03l-8.65-3.35c-2.4,3.77-2.09,7.03-2,7.42,4.52,1.47,8.64,2.59,8.64,2.59,.62-3.64,2-6.66,2-6.66Z"/><path class="t" d="M2.87,112.86c1,4.83,2.18,9.95,2.18,9.95h5.26s.15-2.36,.07-10.21c-2.48-.37-5.07-.22-7.51,.26Z"/><path class="t" d="M21.6,203.79s-.86-5.27-1.67-8.73h6.71l.15,8.73h-5.19Z"/><path class="t" d="M40.02,203.79s-.86-5.27-1.67-8.73h6.71l.15,8.73h-5.19Z"/></g></g></g></svg>