<?xml version="1.0" encoding="UTF-8"?><svg xmlns="http://www.w3.org/2000/svg" xmlns:xlink="http://www.w3.org/1999/xlink" viewBox="0 0 163.99 171"><defs><style>.ah,.ai,.aj,.ak,.al,.am,.an,.ao,.ap,.aq,.ar,.as,.at{mix-blend-mode:multiply;}.ah,.an,.aq{opacity:.25;}.ah,.at{fill:#9a0fa5;}.ai,.au,.as{fill:#bc6182;}.ai,.al{opacity:.15;}.av{fill:url(#t);}.aw{fill:url(#r);}.ax{fill:url(#y);}.ay,.aj,.ak{opacity:.3;}.ay,.b`,.ba{fill:#fff5cc;}.bb{fill:url(#l);}.bc{fill:#932c11;}.aj,.am,.ap,.aq{fill:#aa114f;}.bd{fill:url(#af);}.ak{fill:#a33611;}.be{isolation:isolate;}.bf{fill:url(#v);}.bg{fill:url(#a`);}.bh{fill:url(#m);}.ba,.am{opacity:.5;}.ba,.bi,.bj,.bk,.bl{mix-blend-mode:screen;}.bm{fill:url(#f);}.bn{fill:url(#ae);}.bo{fill:url(#p);}.bp{fill:url(#g);}.bi{fill:#3eedff;}.an{fill:url(#u);}.ao{fill:url(#k);opacity:.6;}.bq{fill:url(#ad);}.br{fill:url(#ab);}.bs{fill:#f4f2d9;}.bj{fill:#ea6e45;}.bk{fill:#ff9578;}.bt{fill:url(#i);}.bu{fill:#ffcfa4;}.ap,.bl{opacity:.35;}.bv{fill:url(#h);}.ar{fill:#8e1613;opacity:.1;}.bw{fill:url(#d);}.bx{fill:url(#e);}.bl{fill:#ed863a;}.by{fill:url(#x);}.c`{fill:url(#aa);}.ca{fill:url(#s);}.cb{fill:url(#n);}.cc{fill:url(#ac);}.cd{fill:url(#w);}.ce{fill:url(#j);}.cf{fill:url(#o);}.cg{fill:url(#q);}.ch{fill:url(#ag);}.as{opacity:.75;}.at{opacity:.45;}</style><linearGradient id="d" x1="-2441.78" y1="-1851.23" x2="-2428.5" y2="-1849.98" gradientTransform="translate(2877.79 -895.19) rotate(-52.87) scale(1 .93)" gradientUnits="userSpaceOnUse"><stop offset="0" stop-color="#b83d00"/><stop offset=".25" stop-color="#e2770e"/><stop offset=".25" stop-color="#e4790f"/><stop offset=".56" stop-color="#fee34d"/><stop offset=".62" stop-color="#fad444"/><stop offset=".75" stop-color="#f1af2e"/><stop offset=".91" stop-color="#e4790f"/></linearGradient><linearGradient id="e" x1="2800.03" y1="-1091.41" x2="2825.83" y2="-1091.41" gradientTransform="translate(2900.99 -960.79) rotate(139.9) scale(1 -1)" xlink:href="#d"/><linearGradient id="f" x1="2660.43" y1="-1325.23" x2="2686.06" y2="-1325.23" gradientTransform="translate(2875.8 -937.36) rotate(134.9) scale(1 -1)" gradientUnits="userSpaceOnUse"><stop offset=".01" stop-color="#e8b321"/><stop offset="1" stop-color="#cf4b0b"/></linearGradient><linearGradient id="g" x1="-2480.06" y1="-1860.13" x2="-2466.78" y2="-1858.88" xlink:href="#d"/><linearGradient id="h" x1="2839.19" y1="-1090.98" x2="2864.99" y2="-1090.98" gradientTransform="translate(2900.99 -960.79) rotate(139.9) scale(1 -1)" xlink:href="#d"/><linearGradient id="i" x1="2699.48" y1="-1328.21" x2="2725.11" y2="-1328.21" xlink:href="#f"/><linearGradient id="j" x1="-1021.89" y1="31.55" x2="-993.16" y2="-10.11" gradientTransform="translate(1089.73 150.04) rotate(4.35)" gradientUnits="userSpaceOnUse"><stop offset="0" stop-color="#ffc488"/><stop offset="1" stop-color="#ffa274"/></linearGradient><linearGradient id="k" x1="781.02" y1="-1081.28" x2="779.64" y2="-1237.6" gradientTransform="translate(262.98 1462.96) rotate(-41.6)" gradientUnits="userSpaceOnUse"><stop offset="0" stop-color="#b81c19"/><stop offset="1" stop-color="#ffa8a6"/></linearGradient><linearGradient id="l" x1="-636.61" y1="-2192.24" x2="-611.65" y2="-2192.24" gradientTransform="translate(1326.77 468.68) rotate(-43.43) scale(1 .49)" gradientUnits="userSpaceOnUse"><stop offset="0" stop-color="#ffa274"/><stop offset="1" stop-color="#ffc488"/></linearGradient><linearGradient id="m" x1="-627.29" y1="-2189.98" x2="-619.68" y2="-2189.98" xlink:href="#l"/><linearGradient id="n" x1="-627.31" y1="-2195.59" x2="-611.65" y2="-2195.59" gradientTransform="translate(1326.77 468.68) rotate(-43.43) scale(1 .49)" xlink:href="#j"/><linearGradient id="o" x1="952.58" y1="-1069.28" x2="970.62" y2="-1069.28" gradientTransform="translate(272.09 1549.02) rotate(-47.25)" gradientUnits="userSpaceOnUse"><stop offset=".07" stop-color="#991208"/><stop offset=".54" stop-color="#b32203"/><stop offset=".94" stop-color="#991208"/></linearGradient><linearGradient id="p" x1="-1008.42" y1="-1.13" x2="-989.03" y2="-22.63" gradientTransform="translate(1089.73 150.04) rotate(4.35)" gradientUnits="userSpaceOnUse"><stop offset="0" stop-color="#ffa274"/><stop offset=".37" stop-color="#ffc488"/><stop offset=".68" stop-color="#ffa274"/><stop offset="1" stop-color="#bf7258"/></linearGradient><linearGradient id="q" x1="1228.44" y1="-2128.39" x2="1253.4" y2="-2128.39" gradientTransform="translate(1730.72 97.85) rotate(138.48) scale(1 -.49)" xlink:href="#l"/><linearGradient id="r" x1="1237.75" y1="-2126.14" x2="1245.36" y2="-2126.14" gradientTransform="translate(1730.72 97.85) rotate(138.48) scale(1 -.49)" xlink:href="#l"/><linearGradient id="s" x1="1237.74" y1="-2131.74" x2="1253.4" y2="-2131.74" gradientTransform="translate(1730.72 97.85) rotate(138.48) scale(1 -.49)" xlink:href="#j"/><linearGradient id="t" x1="880.12" y1="-1057.83" x2="898.15" y2="-1057.83" gradientTransform="translate(255.92 1518.89) rotate(-46.17)" xlink:href="#o"/><linearGradient id="u" x1="751.27" y1="-1090.06" x2="753.65" y2="-1091.66" gradientTransform="translate(262.98 1462.96) rotate(-41.6)" gradientUnits="userSpaceOnUse"><stop offset="0" stop-color="#8e1613"/><stop offset="1" stop-color="#ffa8a6"/></linearGradient><linearGradient id="v" x1="267.07" y1="-1361.2" x2="286.83" y2="-1383.11" gradientTransform="translate(1433.79 -165.49) rotate(90.69) scale(1 -1)" xlink:href="#p"/><linearGradient id="w" x1="1072.34" y1="-2643.92" x2="1099.04" y2="-2643.92" gradientTransform="translate(2780.89 1546.01) rotate(140.17) scale(1 -1.05) skewX(-.55)" xlink:href="#d"/><linearGradient id="x" x1="137.73" y1="134.77" x2="150.35" y2="111.94" gradientTransform="matrix(1, 0, 0, 1, 0, 0)" xlink:href="#f"/><linearGradient id="y" x1="-414.81" y1="-3223.7" x2="-401.03" y2="-3222.4" gradientTransform="translate(2760.1 1634.33) rotate(-52.21) scale(1 .93)" xlink:href="#d"/><linearGradient id="a`" x1="995.08" y1="-3141.61" x2="985.97" y2="-3142.35" gradientTransform="translate(2503.79 1335.31) rotate(136.74) scale(1 -.79) skewX(1.89)" xlink:href="#f"/><linearGradient id="aa" x1="1188.56" y1="-2591.99" x2="1215.26" y2="-2591.99" gradientTransform="translate(2732.97 1592.86) rotate(143.08) scale(1 -1.05) skewX(-.55)" xlink:href="#d"/><linearGradient id="ab" x1="103.72" y1="163.39" x2="121.36" y2="138.14" gradientTransform="matrix(1, 0, 0, 1, 0, 0)" xlink:href="#f"/><linearGradient id="ac" x1="-540.3" y1="-3192.26" x2="-526.52" y2="-3190.97" gradientTransform="translate(2707.74 1679.55) rotate(-49.29) scale(1 .93)" xlink:href="#d"/><linearGradient id="ad" x1="1112.89" y1="-3081.44" x2="1103.78" y2="-3082.18" gradientTransform="translate(2467.74 1368.56) rotate(139.66) scale(1 -.79) skewX(1.89)" xlink:href="#f"/><linearGradient id="ae" x1="65.06" y1="126.89" x2="91.14" y2="42.75" gradientTransform="matrix(1, 0, 0, 1, 0, 0)" xlink:href="#d"/><linearGradient id="af" x1="71.23" y1="96.56" x2="84.2" y2="54.71" gradientTransform="matrix(1, 0, 0, 1, 0, 0)" xlink:href="#d"/><radialGradient id="ag" cx="78.53" cy="71.01" fx="78.53" fy="71.01" r="11.83" gradientTransform="matrix(1, 0, 0, 1, 0, 0)" gradientUnits="userSpaceOnUse"><stop offset="0" stop-color="#ea7c4d"/><stop offset="1" stop-color="#ea0a0a"/></radialGradient></defs><g class="be"><g id="a"/><g id="b"><g id="c"><g><path class="bi" d="M161.73,139.12c7.09-9.75-4.31-3.7-9.02-14.52,2.99-4.5,3.93-8.26,1.32-10.36,.3-2.65,.19-4.79-.64-6.99-12.26-9.87-26.23-22.8-39.96-35.93,1.5-2.54,1.48-4.36,.58-5.11,.01,0,.03,0,.04-.01-2.77-2.94-11.33-11.5-13.66-13.92-3.55-3.51-3.5-2.7-6.46-1.41-8.24-9.83-18.24-23.1-26.61-35.09h0c-2.14-3.76-4.73-6.86-9.47-6.46h0c-.16,.88-.18,2.42-.17,3.39-3.26-3.78-8.82-4.12-13.73-1.24-3.27-3.09-3.06-5.63-5.41-7.83-1.62-2.61-7.71,.41-8.62,4.34h0c-1.6,5.66,5.85,5.62,8.8,8.49-2.95,6.22-5.95,16.23,1.22,20.62h0c1.43,1.12,2.9,2.31,4.38,3.53-1.72,1.57-3.53,3.06-5.4,4.45-.98-1.41-1.92-2.81-2.82-4.19h0c-3.59-8.04-14.94-6.78-21.82-3.86-3.27-3.09-3.06-5.63-5.41-7.83-1.62-2.61-7.71,.41-8.62,4.34h0c-1.61,5.65,5.86,5.64,8.8,8.49-2,3.11-2.77,6.38-1.94,9.75-1.86,5.4-.64,10.6,4.44,13.42,11.97,10.01,25.32,22.07,34.61,31.52-2.83,2.7,6.12,8.24,7.36,11.01,6.49,6.87,6.41,11.78,11.99,11.43,11.29,14.26,21.49,27.42,30.04,40.18h0c1.72,1.05,4.18,1.48,7.25,1.18,2.28,3.38,7.74,1.11,10.83-.8,11.16,4.24,5.5,16.41,15.08,8.89,1.98-1.96,4.2-5.28,1.87-6.76-3.24-.68-8.43-4.49-9.64-8.39,6.67-4.1,12.97-9.21,18.58-14.74h0c-.88-1.49-1.86-3.14-2.73-4.62,.54,.19,1.17,.26,1.86,.23,1.02,.74,2.05,1.48,3.06,2.24,1.4-1.56,2.92-3.42,4.22-5.1,11.31,3.67,6.27,16.58,15.8,7.65Zm-49-68.47c.14,.13,.27,.26,.41,.4-.14-.13-.27-.27-.41-.4Zm-17.31,88.43l.03,.06s-.02-.04-.03-.06Z"/><g><g><path class="bw" d="M31.64,2.43c3.29-3.43,5.69-2.56,6.91-1.42,2.44,2.29,2.11,4.93,5.79,8.19,3.68,3.26,5.2,3.23,8.57,5.13,1.88,1.06,2.71,3.81-.25,7.39-3.1,3.11-6,2.78-7.23,.98-2.2-3.22-2.32-4.75-5.89-8.14-3.56-3.39-6.12-2.8-8.61-5.03-1.24-1.11-2.34-3.45,.7-7.11Z"/><path class="b`" d="M43.13,12.79c-.12-.27-4.68-5.22-6.34-6.92-.93-.95-2.02-1.89-2.51-1.21-.27,.82,.64,1.88,1.65,2.66,1.81,1.41,6.95,5.39,7.19,5.46Z"/><path class="am" d="M39.54,14.56c-3.56-3.39-6.12-2.8-8.61-5.03-.87-.78-1.66-2.17-1.01-4.19-.62,2.7,2.15,4.3,5.61,5.3,2.76,.8,4.63,2.51,6.89,7.17h0c-.66-.95-1.52-1.97-2.88-3.26Z"/></g><g><path class="bx" d="M38.94,27.58c.62,.68,2.12,2.11,2.12,2.11L59.15,11.54s-1.22-1.22-2.12-2.11c-3.98-3.97-11.27-3.13-16.26,1.89-5,5.01-5.74,11.98-1.83,16.27Z"/><path class="bm" d="M41.06,29.69c3.98,3.97,11.27,3.13,16.26-1.89,5-5.01,5.82-12.3,1.83-16.27-3.98-3.97-11.26-3.13-16.26,1.89-5,5.01-5.82,12.3-1.83,16.27Z"/><path class="ap" d="M38.94,27.58c-2.23-2.45-2.94-5.78-2.21-9.11-.21,1.44,1.13,2.97,1.96,2.91v.02c.45-2.78,1.86-5.63,4.21-7.98,5-5.01,12.28-5.86,16.26-1.89,3.98,3.97,3.17,11.25-1.83,16.27-5,5.01-12.28,5.86-16.26,1.89h0s-1.5-1.43-2.12-2.11Z"/></g><g><path class="bp" d="M1.96,27.98c3.29-3.43,5.69-2.56,6.91-1.42,2.44,2.29,2.11,4.93,5.79,8.19,3.68,3.26,5.2,3.23,8.57,5.13,1.88,1.06,2.71,3.81-.25,7.39-3.1,3.11-6,2.78-7.23,.98-2.2-3.22-2.32-4.75-5.89-8.14s-6.12-2.8-8.61-5.03c-1.24-1.11-2.34-3.45,.7-7.11Z"/><path class="b`" d="M13.46,38.34c-.12-.27-4.68-5.22-6.34-6.92-.93-.95-2.02-1.89-2.51-1.21-.27,.82,.64,1.88,1.65,2.66,1.81,1.41,6.95,5.39,7.19,5.46Z"/><path class="am" d="M9.87,40.12c-3.56-3.39-6.12-2.8-8.61-5.03-.87-.78-1.66-2.17-1.01-4.19-.62,2.7,2.15,4.3,5.61,5.3,2.76,.8,4.63,2.51,6.89,7.17h0c-.66-.95-1.52-1.97-2.88-3.26Z"/></g><g><path class="bv" d="M9.26,53.14c.62,.68,2.12,2.11,2.12,2.11l18.09-18.15s-1.22-1.22-2.12-2.11c-3.98-3.97-11.27-3.13-16.26,1.89-5,5.01-5.74,11.98-1.83,16.27Z"/><path class="bt" d="M11.38,55.25c3.98,3.97,11.27,3.13,16.26-1.89,5-5.01,5.82-12.3,1.83-16.27-3.98-3.97-11.26-3.13-16.26,1.89-5,5.01-5.82,12.3-1.83,16.27Z"/><path class="ap" d="M9.26,53.14c-2.23-2.45-2.94-5.78-2.21-9.11-.21,1.44,1.13,2.97,1.96,2.91v.02c.45-2.78,1.86-5.63,4.21-7.98,5-5.01,12.28-5.86,16.26-1.89,3.98,3.97,3.17,11.25-1.83,16.27-5,5.01-12.28,5.86-16.26,1.89h0s-1.5-1.43-2.12-2.11Z"/></g><path class="ce" d="M153.38,104.63c1.38,3.47,1.32,9.69-3.15,17.75-.97,.29-3.33,.84-3.33,.84,0,0,.32,1.84,1.02,2.9-1.42,2.09-4.18,5.54-6.22,7.82-2.43-1.83-6.04-4.37-6.04-4.37,0,0,2.18,3.67,3.86,6.52-1.27,1.27-2.64,2.56-4.12,3.87-18.62,16.54-33.82,20.42-39.86,16.75-7.66-14.8-30.15-50.36-30.15-50.36,0,0-44.99-41.65-57-49,25.41-7.16,47.46-24.12,55.45-49.23,8.68,24.14,44.11,64.99,44.11,64.99l45.42,31.52h0Z"/><g class="al"><path class="au" d="M139.52,136.09c-1.51-2.56-3.42-5.78-3.79-6.4-12.18,13.21-30.9,21.55-42.98,21.85,1.06,1.9,2.01,3.65,2.8,5.17,6.03,3.67,21.23-.21,39.86-16.75,1.48-1.31,2.85-2.6,4.12-3.87Z"/><path class="au" d="M146.9,123.22s2.37-.55,3.33-.84c4.47-8.06,4.53-14.28,3.15-17.75l-5.7-3.96c.5,10.99-4.47,20.89-11.91,28.98,.59,.42,3.73,2.64,5.93,4.3,2.04-2.28,4.8-5.73,6.22-7.82-.7-1.06-1.02-2.9-1.02-2.9Z"/></g><path class="ao" d="M153.38,104.63c1.38,3.47,1.32,9.69-3.15,17.75-.97,.29-3.33,.84-3.33,.84,0,0,.32,1.84,1.02,2.9-1.42,2.09-4.18,5.54-6.22,7.82-2.43-1.83-6.04-4.37-6.04-4.37,0,0,2.18,3.67,3.86,6.52-1.27,1.27-2.64,2.56-4.12,3.87-18.62,16.54-33.82,20.42-39.86,16.75-7.66-14.8-30.15-50.36-30.15-50.36,0,0-44.99-41.65-57-49,25.41-7.16,47.46-24.12,55.45-49.23,8.68,24.14,44.11,64.99,44.11,64.99l45.42,31.52h0Z"/><path class="bb" d="M128.85,129.35c3.29,1.45,10.7-2.41,15.52-6.98,4.34-4.92,4.06-6.76,3.84-8.87,0,0-4.23-4.32-5.36-5.67-1.13-1.36-19.01,13.88-17.3,16.4l3.3,5.12Z"/><path class="as" d="M128.85,129.35c3.29,1.45,10.7-2.41,15.52-6.98,4.34-4.92,4.06-6.76,3.84-8.87,0,0-4.23-4.32-5.36-5.67-1.13-1.36-19.01,13.88-17.3,16.4l3.3,5.12Z"/><path class="ai" d="M50.88,31.26c-4.2,4.92-9.09,9.26-14.46,13.01l2.94,4.62c3.89-2.65,15.77-12.84,15.77-12.84l-4.24-4.78Z"/><path class="bh" d="M136.02,123.36c.57,.42,2.96-.36,2.96-.36,0,0,2.8-2.05,3.47-3.9l-3.01-3.18-5.52,5.23,2.09,2.21h0Z"/><path class="ar" d="M136.02,123.36c.57,.42,2.96-.36,2.96-.36,0,0,2.8-2.05,3.47-3.9l-3.01-3.18-5.52,5.23,2.09,2.21h0Z"/><path class="cb" d="M136.02,123.36c-.96-.71-.6-2.97,3.45-6.8,4.26-3.45,6.58-3.66,8.75-3.06,0,0-3.67-3.88-5.07-5.36-1.4-1.48-13.07,8.93-11.35,10.76,1.29,1.36,4.22,4.47,4.22,4.47Z"/><g><polygon class="cf" points="141.33 106.36 129.09 117 137.98 127.82 150.96 116.39 141.33 106.36"/><polygon class="aq" points="141.67 106.72 139.5 107.95 138.33 108.97 139.27 110.22 141.7 112.73 145.89 111.1 141.67 106.72"/></g><path class="bo" d="M153.38,104.63c-.61-.49-1.63-.44-2.91,0-2.96-1.47-6.36-3.51-6.36-3.51,0,0,1.45,2.94,2.74,5.27-3.29,1.95-7.11,4.93-10.05,7.52-4.76,4.19-8.79,10.76-7.95,15.46-2.05-3.28-34.31-41.63-45.44-53.82-10.46-11.47-30.61-31.5-46.41-43.32-4.25-8.71,1.62-17.66,9.62-22.3,1.48,.47,2.93,1.32,2.93,1.32,0,0,.22-1.58,.3-2.91,.82-.33,1.64-.62,2.47-.85,2.02,1.36,5.37,3.47,5.37,3.47,0,0-.1-2.9,.15-4.25,2.14,.03,4.19,.48,6,1.43,11.51,16.93,27.58,38.09,37.46,48.48,12.2,12.84,40.4,38.87,52.08,48.03Z"/><path class="cg" d="M122.33,134.44c1.16,3.4-3.34,10.44-8.31,14.84-5.28,3.89-7.09,3.45-9.18,3.05,0,0-3.93-4.59-5.18-5.84s15.5-17.72,17.86-15.79l4.81,3.74Z"/><path class="as" d="M122.33,134.44c1.16,3.4-3.34,10.44-8.31,14.84-5.28,3.89-7.09,3.45-9.18,3.05,0,0-3.93-4.59-5.18-5.84s15.5-17.72,17.86-15.79l4.81,3.74Z"/><path class="aw" d="M115.74,141.05c.37,.61-.62,2.92-.62,2.92,0,0-2.29,2.61-4.19,3.12l-2.91-3.28,5.7-5.04,2.02,2.28h0Z"/><path class="ar" d="M115.74,141.05c.37,.61-.62,2.92-.62,2.92,0,0-2.29,2.61-4.19,3.12l-2.91-3.28,5.7-5.04,2.02,2.28h0Z"/><path class="ca" d="M115.74,141.05c-.62-1.02-2.91-.86-7.08,2.83-3.81,3.94-4.23,6.23-3.82,8.45,0,0-3.55-4-4.89-5.52s10.05-12.24,11.72-10.36c1.24,1.4,4.08,4.6,4.08,4.6Z"/><g><polygon class="av" points="110.3 134.14 97.86 144.54 106.54 155.53 119.74 144.34 110.3 134.14"/><polygon class="aq" points="110.63 134.5 108.44 135.69 107.25 136.68 108.17 137.95 110.55 140.51 114.76 138.96 110.63 134.5"/></g><path class="an" d="M97.72,144.32c1.35,1.52,7.12,8.02,7.12,8.02-.29-1.56-.16-3.16,1.27-5.34h0c-1.86,.97-5.63-1.25-7.97-3.05-.01,.16-.51,.28-.42,.37Z"/><path class="bf" d="M95.55,156.71c-1.68-2.52,5.34-10.6,10.69-15.7,4.59-4.37,11.49-7.81,16.1-6.57-3.09-2.33-38.46-37.84-49.62-49.99-10.5-11.43-28.68-33.26-39.07-50.04-9.58-5.77-20.67,1.86-25.2,11.27,.81,1.83,2.21,4.03,2.21,4.03,0,0-1.78-1.04-3.23-1.57-1.3,3.74-1.5,7.6-.13,10.89,15.86,12.95,35.52,30.82,45,41.57,11.72,13.28,35.17,43.66,43.26,56.1Z"/><path class="bu" d="M95.55,156.71c0-3.58,5.37-10.25,10.39-14.94,5.02-4.69,9.69-7.15,16.39-7.33-2.02-.82-8.57-.72-16.82,6.86-8.25,7.58-11.02,13.96-9.97,15.4Z"/><g><path class="cd" d="M133.33,128.39c.46,.46,2.32,2.39,2.32,2.39l18.9-18.65s-1.81-1.77-2.48-2.37c-2.35-2.08-8.91-.46-14.12,4.7-5.21,5.15-6.91,11.63-4.62,13.94Z"/><path class="by" d="M135.65,130.78c2.44,2.37,8.66,.12,13.87-5.04,5.22-5.15,7.47-11.25,5.02-13.62-2.44-2.37-8.66-.12-13.87,5.04-5.22,5.15-7.47,11.25-5.02,13.62Z"/><path class="b`" d="M151.87,111.18c-2.08-.66-12.17,3.22-16.09,12.67,3.06-6.08,10.1-12.22,16.09-12.67Z"/><path class="aj" d="M140.04,131.51c2.81-.62,6.3-2.64,9.43-5.73l.23-1.99-8.68-.98-.98,8.7Z"/></g><g><path class="ax" d="M143.04,119.42c3.45-3.52,5.93-2.58,7.17-1.38,2.5,2.4,2.13,5.13,5.9,8.55,3.77,3.42,3.7,2.07,6.94,3.57,1.76,.81,.51,4.37-1.64,6.7-1.99,1.76-5.32,3.62-6.29,1.92-1.74-3.03-.39-3.13-4.04-6.68-3.65-3.55-6.31-2.97-8.86-5.31-1.27-1.17-2.38-3.6,.81-7.35Z"/><path class="b`" d="M148.53,124.05c.24,.05,4.48,3.11,5.93,4.24,.81,.63,1.2,1.22,.53,1.78-.77,.4-1.28,0-1.93-.74-1.17-1.32-4.48-5.08-4.53-5.28Z"/><path class="bg" d="M155.34,139.08c1.19,1.11,3.96,.06,6.19-2.34,2.22-2.4,3.05-5.24,1.86-6.35-1.19-1.11-3.96-.06-6.19,2.34-2.22,2.4-3.05,5.24-1.86,6.35Z"/><path class="b`" d="M162.48,129.97c-2.74,.22-4.66,1.71-6.82,4.7,1.07-2.18,3.41-4.94,6.82-4.7Z"/><path class="ap" d="M143.04,119.42c1.27-1.3,2.41-1.99,3.41-2.28h0s.06-.02,.08-.02h0c-2.62,2.27-4.61,7.23-1.27,9.34,3.34,2.11,5.14,2.09,8.12,8.03,0,0,0,0-.09,.08-.42-.62-1.08-1.38-2.21-2.48-3.65-3.55-6.31-2.97-8.86-5.31-1.27-1.17-2.38-3.6,.81-7.35Z"/></g><g><path class="c`" d="M101.18,156.04c.43,.48,2.2,2.5,2.2,2.5l19.82-17.67s-1.71-1.86-2.35-2.49c-2.24-2.2-8.87-.91-14.34,3.97-5.47,4.88-7.5,11.27-5.32,13.69Z"/><path class="br" d="M103.37,158.54c2.32,2.49,8.64,.56,14.11-4.32s8.03-10.85,5.71-13.35c-2.32-2.49-8.64-.56-14.11,4.32-5.47,4.88-8.03,10.85-5.71,13.35Z"/><path class="b`" d="M120.57,139.79c-2.04-.76-12.32,2.6-16.72,11.83,3.37-5.92,10.71-11.69,16.72-11.83Z"/><path class="aj" d="M107.72,159.5c2.84-.47,6.42-2.32,9.71-5.24l.33-1.98-8.62-1.42-1.42,8.64Z"/></g><g><path class="cc" d="M111.33,147.57c3.62-3.34,6.05-2.28,7.23-1.02,2.37,2.52,1.87,5.23,5.46,8.84,3.59,3.61,3.59,2.25,6.75,3.92,1.72,.9,.29,4.39-1.98,6.6-2.07,1.65-5.5,3.34-6.38,1.6-1.58-3.12-.23-3.15-3.7-6.88s-6.15-3.29-8.58-5.76c-1.21-1.23-2.2-3.72,1.19-7.3Z"/><path class="b`" d="M116.58,152.47c.24,.07,4.32,3.33,5.71,4.54,.77,.67,1.13,1.28,.44,1.8-.79,.36-1.27-.06-1.89-.83-1.1-1.38-4.22-5.3-4.26-5.51Z"/><path class="bq" d="M122.62,167.83c1.14,1.17,3.96,.26,6.3-2.03s3.32-5.08,2.18-6.24-3.96-.26-6.3,2.03-3.32,5.08-2.18,6.24Z"/><path class="b`" d="M130.21,159.1c-2.75,.08-4.74,1.47-7.05,4.35,1.17-2.12,3.65-4.76,7.05-4.35Z"/><path class="ap" d="M111.33,147.57c1.34-1.23,2.51-1.86,3.52-2.11h0s.06-.01,.08-.02h0c-2.74,2.13-4.97,6.98-1.74,9.26,3.22,2.28,5.02,2.35,7.7,8.43,0,0,0,0-.1,.08-.39-.64-1.01-1.43-2.08-2.59-3.47-3.73-6.15-3.29-8.58-5.76-1.21-1.23-2.2-3.72,1.19-7.3Z"/></g><path class="ai" d="M67.32,13.15h0c-1.19-1.71-2.35-3.39-3.47-5.03-1.81-.95-3.86-1.4-6-1.43-.25,1.35-.15,4.25-.15,4.25,0,0-3.34-2.12-5.37-3.47-.83,.24-1.66,.52-2.47,.85-.09,1.33-.3,2.91-.3,2.91,0,0-1.45-.86-2.93-1.32-8,4.63-13.87,13.59-9.62,22.3,.96,.72,1.95,1.47,2.94,2.25-.76-1.97-.88-4.17-.46-6.41,.18-.99,1.19-1.6,2.15-1.26l5.27,1.89-4.34-3.77c-.89-.77-1.14-2.24-.52-3.23,1.1-1.75,2.5-3.39,4.13-4.83,1.24-1.08,3.12-.95,4.25,.24l11.45,12.13s-6.08-8.55-9.4-13.41c-.8-1.16-.27-2.79,1.06-3.23,4.13-1.38,8.86-1.45,13.77,.56Z"/><g class="al"><path class="au" d="M148.67,100.78h0c-1.1,.07-2.33,.38-3.63,.88,1.21,.71,3.42,1.97,5.43,2.97,1.28-.43,2.3-.48,2.91,0-1.36-1.07-2.95-2.37-4.71-3.85Z"/><path class="au" d="M130.98,108.87l-16.38-15.84,12.62,15.07,1.05,1.06c1.47,1.48,1.65,3.84,.37,5.49-2.64,3.37-4.31,6.7-4.12,9.16,2.35,2.89,3.93,4.9,4.33,5.54-.83-4.69,3.2-11.27,7.95-15.46,2.94-2.59,6.76-5.57,10.05-7.52-.88-1.59-1.84-3.47-2.36-4.5-3.35,1.4-7.11,4-10.47,7.03-.87,.79-2.2,.77-3.05-.04Z"/></g><polygon class="ai" points="89.44 55.4 110.86 74.27 118.32 86.25 102.86 69.05 89.44 55.4"/><path class="bu" d="M128.85,129.35c.06-3.92,1.2-7.57,4.25-11.26,3.95-4.77,11.09-10.08,14.08-11.54-.32-.84-2.59-4.91-2.59-4.91l5.79,3.26c.57-.35,2.2-.69,3-.28-1.02-.8-2.48-.39-2.99-.35-1.82-1.01-6.73-3.63-6.73-3.63l2.64,5.43c-1.82,1.06-9.78,6.73-13.71,11.55-3.93,4.83-4.23,9.99-3.75,11.72Z"/><polygon class="ai" points="34.49 61.33 45.56 71.42 58.37 88.07 45.21 74.56 34.49 61.33"/><polygon class="ai" points="53.6 91.24 70.63 108.94 76.36 120.86 69.13 109.93 53.6 91.24"/><path class="ai" d="M36.1,38.26h0c-.86-1.31-1.68-2.59-2.46-3.85-9.58-5.77-20.67,1.86-25.2,11.27,.81,1.83,2.21,4.03,2.21,4.03,0,0-1.78-1.04-3.23-1.57-1.3,3.74-1.5,7.6-.13,10.89,1.4,1.14,2.83,2.32,4.27,3.53l.27-.15c-1.06-2.15-1.33-4.63-.96-7.18,.26-1.77,2.36-2.57,3.78-1.48l6.53,5.05-7.16-8.38c-.69-.81-.79-1.97-.24-2.87,.78-1.27,1.7-2.48,2.72-3.6,.93-1.02,2.48-1.17,3.57-.33l4.65,3.6-2.53-5.04c-.61-1.22-.1-2.73,1.14-3.31,3.86-1.8,8.28-2.3,12.76-.62Z"/><path class="ai" d="M116.7,129.16c-3.74-.14-8.13,2.03-12.19,5.13-1.05,.8-2.47,.91-3.62,.26l-1.79-1.01,1.05,1.91c.55,1,.38,2.25-.43,3.05-.23,.23-.45,.45-.67,.68-1.08,1.12-2.88,1.15-4.02,.08l-5.96-5.54s2.79,5.5,4.67,9.17c.5,.98,.46,2.16-.13,3.09-1.12,1.78-1.88,3.41-2.15,4.7h0c1.6,2.27,3,4.31,4.1,6.01-1.68-2.52,5.34-10.6,10.69-15.7,4.59-4.37,11.49-7.81,16.1-6.57-.64-.49-2.7-2.42-5.64-5.28Z"/><path class="bl" d="M162.39,133.57c.44,.39-.1,1.66-1.19,2.83-1.1,1.17-2.34,1.8-2.77,1.4-.44-.39,.1-1.66,1.19-2.83,1.1-1.17,2.34-1.8,2.77-1.4Z"/><path class="bl" d="M129.76,162.51c.44,.39-.1,1.66-1.19,2.83-1.1,1.17-2.34,1.8-2.77,1.4-.44-.39,.1-1.66,1.19-2.83,1.1-1.17,2.34-1.8,2.77-1.4Z"/></g><path class="bc" d="M111.3,66.63c-2.61,.49-6.76,2.85-10.92,6.36-4.61,3.89-24.15,21.75-33.37,33.06-3.45,4.22-4.23,6.95-3.33,8.15,.84,1.12,1.22,1.51,1.86,2.32-.25,.07-.49,.11-.71,.15-2.2,.36-4.51-2.69-4.51-2.69,0,0-.65-3.39,1.31-5.97,1.96-2.57,7.22-10.23,22.27-24.18,12.68-11.76,21.1-17.65,21.1-17.65,0,0,4.03-2.07,7.03-2.87,2.46-.66,3.67,1.54,1.4,5.38-.7-.67-1.12-1.09-2.12-2.06Z"/><path class="bn" d="M60.32,113.98s-6.26-9.18-13.89-16.61c-.73-.71-1.36-1.25-.86-2.23,2.41-4.72,11.74-16.99,24.37-28.5,13.4-12.23,21.18-17.5,26.46-19.49,.86,0,1.64,.09,3.98,2.51s10.9,10.98,13.66,13.92c-6.61,1.46-16.69,8.3-27.06,18.59-10.38,10.29-25.22,24.38-26.66,31.82Z"/><path class="ah" d="M83.13,85.97l-20.28-12.45c-.95,.97-1.86,1.94-2.75,2.89l-.79,8.24,9.94,11.26,3.84,.21h0c3.25-3.43,6.74-6.9,10.03-10.16Z"/><path class="ak" d="M101.53,72.06c-3.14,3.71-5.63,14.44-5.46,17.89-.84-.98-8.15-9.39-8.15-9.39l13.62-8.51Z"/><path class="ak" d="M71.22,101.19c3.83-2.61,12.66-4,15.76-1.83-2.09-2.15-10.62-11.01-10.62-11.01l-5.14,12.85Z"/><g><polygon class="bc" points="85.95 95.36 94.42 87.51 97.53 84.63 98.02 69.54 86.05 56.58 71.31 57.02 61.28 65.92 60.61 84.09 70.08 94.86 85.95 95.36"/><polygon class="bd" points="95.85 67.02 86.05 56.58 71.73 56.12 61.28 65.92 60.82 80.23 70.62 90.68 84.94 91.14 95.39 81.34 95.85 67.02"/><polygon class="bc" points="91.02 68.85 83.92 61.28 73.55 60.95 65.99 68.04 65.65 78.41 72.75 85.98 83.12 86.31 90.69 79.21 91.02 68.85"/><polygon class="ch" points="90.13 70.35 83.51 63.29 73.84 62.98 66.78 69.6 66.47 79.28 73.09 86.34 82.76 86.65 89.82 80.03 90.13 70.35"/><polygon class="bk" points="78.01 65.15 81.74 65.78 83 68.84 79.24 70.66 76.26 68.36 78.01 65.15"/><polygon class="bj" points="77.75 80.01 75.93 80.23 74.92 78.99 76.41 77.63 78.11 78.28 77.75 80.01"/><polygon class="at" points="69.21 67.32 68.39 73.63 72.45 80.52 82.14 82.33 88.62 79.48 89.91 77.15 89.82 80.03 82.76 86.65 73.09 86.34 66.47 79.28 66.78 69.6 69.21 67.32"/><ellipse class="bs" cx="74.91" cy="87.13" rx=".73" ry="1.94" transform="translate(-14.58 159.21) rotate(-88.16)"/><polygon class="ba" points="67.6 59.99 71.79 57.37 85.57 57.84 94.73 66.83 95.55 76.4 95.85 67.02 86.05 56.58 71.73 56.12 67.6 59.99"/><polygon class="bi" points="60.85 77.63 61.38 80.23 71.07 90.29 84.73 90.29 90.63 85.81 85.16 91.5 70.69 91.67 60.71 81.21 60.85 77.63"/></g><path class="ah" d="M51.7,86.21c-3.01,3.85-5.15,7.01-6.12,8.93-.5,.98,.13,1.52,.86,2.23,7.63,7.43,13.89,16.61,13.89,16.61,.6-3.12,3.58-7.42,7.58-12.11-7.16-2.28-13.39-9.78-16.2-15.66Z"/><path class="ay" d="M91.75,49.41c2.74,3.75,11.11,12.51,16.24,16.48-1.44,.77-4.8,2.85-4.8,2.85-3.03-4.69-10.35-13.35-16.2-16.24,2.23-1.52,4.76-3.09,4.76-3.09Z"/><path class="bs" d="M95.24,53.55c-.27,.31-1.14-.01-1.95-.71-.81-.7-1.25-1.52-.99-1.82s1.14,.01,1.95,.71c.81,.7,1.25,1.52,.99,1.82Z"/></g></g></g></g></svg>