<?xml version="1.0" encoding="UTF-8"?><svg xmlns="http://www.w3.org/2000/svg" xmlns:xlink="http://www.w3.org/1999/xlink" viewBox="0 0 76.47 88.74"><defs><style>.y{fill:url(#t);}.a`{fill:url(#r);}.aa{fill:url(#l);}.ab{fill:url(#u);}.ac{isolation:isolate;}.ad{fill:url(#v);}.ae{fill:url(#m);}.af{fill:url(#p);}.ag{fill:url(#g);}.ah{fill:url(#f);mix-blend-mode:multiply;}.ai{fill:url(#i);}.aj{fill:url(#h);}.ak{fill:url(#d);}.al{fill:url(#e);}.am{fill:url(#x);}.an{fill:url(#s);}.ao{fill:url(#n);}.ap{fill:url(#w);}.aq{fill:url(#j);}.ar{fill:url(#o);}.as{fill:#fff;mix-blend-mode:overlay;opacity:.65;}.at{fill:url(#q);}.au{fill:url(#k);}</style><linearGradient id="d" x1="96.49" y1="6.73" x2="113.16" y2="23.41" gradientTransform="translate(-44.97 -62.52) rotate(35.43)" gradientUnits="userSpaceOnUse"><stop offset="0" stop-color="#7ac000"/><stop offset="1" stop-color="#0d3300"/></linearGradient><linearGradient id="e" x1="38.71" y1="84.09" x2="38.71" y2="23.39" gradientTransform="matrix(1, 0, 0, 1, 0, 0)" gradientUnits="userSpaceOnUse"><stop offset="0" stop-color="#ff5335"/><stop offset="1" stop-color="#d8091b"/></linearGradient><linearGradient id="f" x1="38.86" y1="78.44" x2="38.86" y2="40.17" xlink:href="#e"/><linearGradient id="g" x1="-37.62" y1="-335.92" x2="-28.18" y2="-323.86" gradientTransform="translate(-159.17 -338.48) rotate(162.02) scale(1.7 1.23)" gradientUnits="userSpaceOnUse"><stop offset="0" stop-color="#7ac000"/><stop offset="1" stop-color="#438100"/></linearGradient><linearGradient id="h" x1="-32.71" y1="-335.65" x2="-32.71" y2="-326.59" gradientTransform="translate(-159.17 -338.48) rotate(162.02) scale(1.7 1.23)" gradientUnits="userSpaceOnUse"><stop offset="0" stop-color="#569400"/><stop offset="1" stop-color="#285500"/></linearGradient><linearGradient id="i" x1="-39.3" y1="-336.67" x2="-29.86" y2="-324.61" gradientTransform="translate(238.64 -338.48) rotate(17.98) scale(1.7 -1.23)" xlink:href="#g"/><linearGradient id="j" x1="-34.39" y1="-336.4" x2="-34.39" y2="-327.34" gradientTransform="translate(238.64 -338.48) rotate(17.98) scale(1.7 -1.23)" xlink:href="#h"/><linearGradient id="k" x1="26.75" y1="35.25" x2="41.18" y2="35.25" gradientTransform="matrix(1, 0, 0, 1, 0, 0)" xlink:href="#g"/><linearGradient id="l" x1="124.03" y1="-188.51" x2="124.03" y2="-179.45" gradientTransform="translate(-276.31 -88.48) rotate(89.61) scale(1.01 1.72)" xlink:href="#h"/><linearGradient id="m" x1="70.37" y1="-4.22" x2="70.37" y2="4.34" gradientTransform="translate(-57.8 47.03)" gradientUnits="userSpaceOnUse"><stop offset="0" stop-color="#ffb61c"/><stop offset="1" stop-color="#f5811b"/></linearGradient><linearGradient id="n" x1="84.66" y1="-5.88" x2="84.66" y2="2.68" xlink:href="#m"/><linearGradient id="o" x1="109.25" y1="-5.88" x2="109.25" y2="2.68" xlink:href="#m"/><linearGradient id="p" x1="33.94" y1="8.56" x2="33.94" y2="17.12" gradientTransform="translate(-8.03 60.66) rotate(-13.79)" xlink:href="#m"/><linearGradient id="q" x1="185.96" y1="-4.41" x2="185.96" y2="4.15" gradientTransform="translate(-122.71 -2.83) rotate(21.44)" xlink:href="#m"/><linearGradient id="r" x1="123.09" y1="-3.11" x2="123.09" y2="5.45" xlink:href="#m"/><linearGradient id="s" x1="321.3" y1="-21.64" x2="321.3" y2="-13.08" gradientTransform="translate(-123.68 -64.32) rotate(42.15) scale(.71 .9)" xlink:href="#m"/><linearGradient id="t" x1="246.65" y1="1.56" x2="246.65" y2="10.12" gradientTransform="translate(-91.32 -18.81) rotate(25.83) scale(.71 .9)" xlink:href="#m"/><linearGradient id="u" x1="280.77" y1="7.12" x2="280.77" y2="15.68" gradientTransform="translate(162.45 -64.32) rotate(137.85) scale(.71 -.9)" xlink:href="#m"/><linearGradient id="v" x1="197.45" y1="20.24" x2="197.45" y2="28.79" gradientTransform="translate(130.08 -18.81) rotate(154.17) scale(.71 -.9)" xlink:href="#m"/><linearGradient id="w" x1="95.85" y1="3.87" x2="95.85" y2="12.43" xlink:href="#m"/><linearGradient id="x" x1="95.85" y1="27.87" x2="95.85" y2="36.43" xlink:href="#m"/></defs><g class="ac"><g id="a"/><g id="b"><g id="c"><g><path class="ak" d="M32.87,64.94c-1.45-1.03-1.83-3.03-.85-4.53,.2-.3,18.44-31.07-9.45-54.55-1.4-1.18-1.58-3.28-.4-4.68,1.18-1.4,3.3-1.58,4.68-.4,27.47,23.13,16.68,54.22,10.73,63.28-1.01,1.53-3.07,1.96-4.6,.95-.04-.02-.07-.05-.1-.07Z"/><path class="al" d="M71.34,53.39c-2.42,18.12-17.22,35.36-32.63,35.36S8.5,71.5,6.08,53.39c-2.84-21.27,12.56-27.77,32.63-27.77s35.47,6.5,32.63,27.77Z"/><path class="ah" d="M71.61,50.55c.04-.66,.06-1.31,.06-1.94,0-.07,0-.15,0-.22-.01-1.51-.13-2.93-.35-4.27-1.73-10.54-9.87-15.72-21-17.62-.02,0-.04,0-.07,0-.6-.1-1.2-.21-1.82-.29,.19,.15,.37,.3,.56,.46-4.44,.68-7.98,2.35-9.41,3.11-.79-.33-1.3-.52-1.3-.52,0,0-.52,.2-1.33,.55-1.46-.78-5.35-2.64-10.2-3.25-11.03,1.96-19.06,7.2-20.69,17.79,4.51,1.12,10.86,1.97,16.62,.1,1.32-.43,2.54-.98,3.67-1.61,2.44,5.49,12.1,10,12.1,10,0,0,9.29-4.5,11.83-9.92,1.09,.6,2.26,1.12,3.52,1.53,1.03,.33,2.08,.56,3.14,.74,.06,1.08,.09,2.18,.07,3.35-.23,17.75-9.55,35.61-21.49,39.94,.52,.08,1.03,.14,1.55,.18,.02,0,.04,0,.06,0,.53,.04,1.06,.07,1.59,.07,15.41,0,30.21-17.24,32.63-35.36,.11-.8,.18-1.58,.24-2.34,.01-.17,.02-.33,.03-.49Z"/><g><path class="ag" d="M0,35.74s6.75-11.63,17.13-15c10.38-3.37,20.47,2.8,20.47,2.8,0,0-4.54,10.92-14.92,14.29-10.38,3.37-22.68-2.08-22.68-2.08Z"/><path class="aj" d="M0,35.74l37.6-12.2s-4.54,10.92-14.92,14.29c-10.38,3.37-22.68-2.08-22.68-2.08Z"/></g><g><path class="ai" d="M76.47,35.74s-6.75-11.63-17.13-15c-10.38-3.37-20.47,2.8-20.47,2.8,0,0,4.54,10.92,14.92,14.29,10.38,3.37,22.68-2.08,22.68-2.08Z"/><path class="aq" d="M76.47,35.74l-37.6-12.2s4.54,10.92,14.92,14.29c10.38,3.37,22.68-2.08,22.68-2.08Z"/></g><g><path class="au" d="M38.45,47.04s-12.61-5.89-12.65-12.4c-.04-6.51,12.49-11.19,12.49-11.19,0,0,12.6,4.5,12.64,11.02,.04,6.51-12.48,12.57-12.48,12.57Z"/><path class="aa" d="M38.45,47.04l-.16-23.59s12.6,4.5,12.64,11.02c.04,6.51-12.48,12.57-12.48,12.57Z"/></g><path class="ae" d="M15.32,47.02c0,2.41-1.23,4.36-2.74,4.36s-2.74-1.95-2.74-4.36,1.23-4.36,2.74-4.36,2.74,1.95,2.74,4.36Z"/><path class="ao" d="M29.6,45.36c0,2.41-1.23,4.36-2.74,4.36s-2.74-1.95-2.74-4.36,1.23-4.36,2.74-4.36,2.74,1.95,2.74,4.36Z"/><path class="ar" d="M54.19,45.36c0,2.41-1.23,4.36-2.74,4.36s-2.74-1.95-2.74-4.36,1.23-4.36,2.74-4.36,2.74,1.95,2.74,4.36Z"/><path class="af" d="M30.63,64.31c.57,2.34-.15,4.53-1.62,4.89-1.47,.36-3.13-1.24-3.7-3.58-.57-2.34,.15-4.53,1.62-4.89,1.47-.36,3.13,1.24,3.7,3.58Z"/><path class="at" d="M53,65.96c-.88,2.24-2.74,3.61-4.15,3.06-1.41-.55-1.84-2.82-.96-5.06,.88-2.24,2.74-3.61,4.15-3.06,1.41,.55,1.84,2.82,.96,5.06Z"/><path class="a`" d="M68.03,48.13c0,2.41-1.23,4.36-2.74,4.36s-2.74-1.95-2.74-4.36,1.23-4.36,2.74-4.36,2.74,1.95,2.74,4.36Z"/><path class="an" d="M56.76,77.78c-1.46,1.61-3.28,2.34-4.08,1.62-.79-.72-.25-2.61,1.2-4.22,1.46-1.61,3.28-2.33,4.08-1.62,.79,.72,.25,2.61-1.2,4.22Z"/><path class="y" d="M65.15,62.7c-.95,1.96-2.5,3.16-3.46,2.7-.96-.47-.98-2.43-.03-4.39,.95-1.96,2.5-3.16,3.46-2.7,.96,.47,.98,2.43,.03,4.39Z"/><path class="ab" d="M20.66,77.78c1.46,1.61,3.28,2.34,4.08,1.62,.79-.72,.25-2.61-1.2-4.22-1.46-1.61-3.28-2.33-4.08-1.62-.79,.72-.25,2.61,1.2,4.22Z"/><path class="ad" d="M12.27,62.7c.95,1.96,2.5,3.16,3.46,2.7,.96-.47,.98-2.43,.03-4.39-.95-1.96-2.5-3.16-3.46-2.7-.96,.47-.98,2.43-.03,4.39Z"/><path class="ap" d="M40.79,55.1c0,2.41-1.23,4.36-2.74,4.36s-2.74-1.95-2.74-4.36,1.23-4.36,2.74-4.36,2.74,1.95,2.74,4.36Z"/><path class="am" d="M40.79,79.11c0,2.41-1.23,4.36-2.74,4.36s-2.74-1.95-2.74-4.36,1.23-4.36,2.74-4.36,2.74,1.95,2.74,4.36Z"/><path class="as" d="M38.09,78.5c-2.33,2.13-5.31,3.1-7.68,3.1s-5.35-.97-7.68-3.1c-5.9-5.41-13.04-26.8,6.85-26.8s14.41,21.39,8.51,26.8Z"/></g></g></g></g></svg>