<?xml version="1.0" encoding="UTF-8"?><svg xmlns="http://www.w3.org/2000/svg" viewBox="0 0 48.55 82.52"><defs><style>.d{fill:#fff;}.e{fill:#f60;}.f{fill:#ab1919;}.g{opacity:.2;}.h{fill:#d6d6d6;}.i{fill:#b07e71;}.j{fill:#ba8678;}.k{fill:#a1a1a1;}.l{fill:#2b2b2b;}.m{fill:#ff2b2b;}.n{fill:#171717;}.o{fill:#bd4b00;}.p{fill:#e8a795;}.q{fill:#1a1a1a;}</style></defs><g id="a"/><g id="b"><g id="c"><g><path class="j" d="M27,34.21l-9.98-5.2v22.12l9.98,5.2s3.56-15.26,5.09-17.78v-6.71l-5.09,2.36Z"/><path class="h" d="M12.44,30.23c-3.58-.5-7.46,3.43-7.46,3.43h0C2.65,35.28,.8,48.17,.02,56.52c-.17,1.86,.76,3.66,2.38,4.59l6.58,3.8s1.2-25.79,3.46-34.67Z"/><path class="h" d="M43.19,47.55l-6.67,4.01v.07c-.07-.08-.14-.15-.22-.2-2.7-1.63-4.2,14.46-4.2,14.46l.74,12.36,5.91,3.41c1.99,1.15,4.43,1.16,6.43,.04l.07-.04c2.21-1.24,3.5-3.65,3.29-6.18-.8-10-2.52-26.04-5.35-27.92Z"/><path class="h" d="M32.09,38.55c-2.29,6.08-8.58,9.87-12.72,9-4.64-.9-.58-15.82-.58-15.82,0,0-5.59-1.67-6.36-1.5l-3.7,2.08c-1.88,1.06-2.28,2.77-2.46,5.32l-.62,31.07,16.99,9.37c3.27,1.89,7.24,2.08,10.68,.51l.06-.03c-.03-1.9-.04-3.84,0-5.79,.23-5.87,.79-11.74,.79-11.74,.13-.96,.41-2.27,.75-3.62,.9-3.66,3.26-6.78,6.54-8.63l1.96-1.1c-.76-1.05-11.32-9.13-11.32-9.13Z"/><polygon class="k" points="17.95 47.55 16.26 53.38 17.95 53.79 19.57 48.16 17.95 47.55"/><path class="l" d="M33.36,39.53c-7.44,2.01-11.04,15.74-16.34,13.62-6.02-2.94,0-21.92,0-21.92,0,0-3.82-1.16-4.58-.99l-3.7,2.08c-1.88,1.06-2.28,2.77-2.46,5.32l-.82,13.71c-.06,1.32-2.64,3.88-3.06,9.77-.2,2.76,1.72,6.77,3.26,7.59l16.99,9.37c3.27,1.89,7.24,2.08,10.68,.51l.06-.03c-.03-1.9-.04-3.84,0-5.79,.23-5.87,.79-11.74,.79-11.74,.13-.96,.41-2.27,.75-3.62,.9-3.66,3.26-6.78,6.54-8.63l1.96-1.1c-.76-1.05-10.05-8.15-10.05-8.15Z"/><path class="g" d="M17.29,40.36c-1.06,3.22,1.3,6.82,1.3,6.82l-5.04,1.25s-.93-7.95,.12-8.71c1.05-.76,3.68-.91,3.62,.64Z"/><path class="h" d="M17.62,40.02c-1.06,3.22,1.17,6.62,1.17,6.62l-4.76,1.11s-.82-7.32,.23-8.08c1.05-.76,3.41-1.2,3.35,.35Z"/><path class="p" d="M34.43,29.85s3.17-3.94,3.25-5.55c.08-1.61,1.66-10.15,1.66-10.15H7.38s-.85,25.24,9.19,26.88c9.89,1.36,17.86-11.18,17.86-11.18Z"/><path class="m" d="M14.81,35.07c-.36-.21-.62,.1-.77,.01-.16-.09-.42-.7-.78-.91-.36-.21-1.87-.22-1.87,.07s1.12,2.09,2.64,2.97c1.51,.87,2.64,.36,2.64,.08s-1.5-2.01-1.86-2.22Z"/><path class="e" d="M7.38,15.82s1.97,3.44,4.01,5.26c-.72-2.16-.59-3.69,0-3.3,1.46,2.48,2.58,5.44,8.28,7.13-1.68-2.13-1.94-4.25-.67-4.82,2.27-1.02,8.52,1.28,9.76,3.25,1.21,2.16,.92,4.4,1.22,7.54,1.43-2.02,1.37-6.21,2.88-7.49,3.79-2.66,3.85,3.56,3.85,3.56,0,0,12.4-20.72-8.82-24.57C22.74-5.38,7.18,7.84,6.27,13.1c-.47,2.69,1.11,5.72,1.11,5.72v-2.99Z"/><path class="p" d="M31.85,26.24s.52-5.23,3.75-2.99c3.23,2.24-.71,8.16-2.13,9.19-1.42,1.03-1.62-6.2-1.62-6.2Z"/><path class="i" d="M33.45,26.48s.3-2.81,2.16-1.61c1.86,1.2-.41,4.39-1.23,4.94-.82,.56-.93-3.34-.93-3.34Z"/><g><path class="f" d="M33.17,32.01l.19-.44-.41-.21s-.02,0-.03-.01l-.04-.02h0c-.14-.05-.32-.03-.52,.08-.45,.26-.82,.9-.82,1.42,0,.27,.09,.45,.25,.53h0l.49,.26,.16-.37c.38-.26,.69-.78,.73-1.25Z"/><path class="m" d="M33.58,32.09c0,.52-.37,1.16-.82,1.42s-.82,.05-.82-.47,.37-1.16,.82-1.42c.45-.26,.82-.05,.82,.47Z"/></g><path class="o" d="M27.28,2.73c1.32,0-9.24,7.28-9.24,7.28,0,0,7.92-7.28,9.24-7.28Z"/><path class="g" d="M32.41,39.24c-2.11,2.46-6.96,6.34-12.56,8.66l3.22,4.89s11.02-8.25,11.06-12.71l-1.72-.85Z"/><path class="h" d="M32.09,35.42v3.13c-2.11,2.46-6.64,5.97-12.24,8.29l3.51,4.5s10.32-7.08,10.36-11.54c.1-2.68-1.63-4.38-1.63-4.38Z"/><path class="n" d="M22.97,46.88l-3.41-.1c-.13-.56-.52-1.13-.98-1.39h-.02c-.49-.3-.9-.13-1.01,.34-.01-.02-.02-.04-.04-.05l-3.54-3.98c-.6-.67-1.29-.57-1.29,.2v3.57c0,.76,.69,1.66,1.29,1.68l3.54,.1s.03,0,.05,0c.11,.58,.51,1.2,1,1.48h.02c.45,.27,.83,.16,.97-.23l3.41,3.84c.6,.67,1.29,.57,1.29-.2v-3.57c0-.76-.69-1.66-1.29-1.68Z"/><polygon class="d" points="30.33 63 23.9 59.28 27.91 57.69 30.33 63"/><polygon class="q" points="31.38 65.27 22.99 60.42 22.99 58.42 31.38 63.26 31.38 65.27"/><path class="q" d="M12.58,72.52c-1.38-10.97,2.59-12.99,3.85-19.73,0,0,.86,.77,1.64,.57-1.26,8.5-4.45,7.43-3.85,20.05-.67-.22-.69,.04-1.63-.9Z"/></g></g></g></svg>