<?xml version="1.0" encoding="UTF-8"?><svg xmlns="http://www.w3.org/2000/svg" viewBox="0 0 550.3 489.75"><defs><style>.d{fill:#a50053;}.e{fill:#fff;}.f{mix-blend-mode:screen;}.f,.g,.h{fill:#290b4b;}.g{opacity:.41;}.g,.i{mix-blend-mode:multiply;}.i{opacity:.55;}.i,.j{fill:#ffd5b2;}.k{mix-blend-mode:color-dodge;}.k,.l{fill:#ec931f;}.k,.m{opacity:.59;}.n{isolation:isolate;}.m{fill:#ffb81a;mix-blend-mode:lighten;}.o{fill:#dd8317;}</style></defs><g class="n"><g id="a"/><g id="b"><g id="c"><g><g><polygon class="k" points="514.86 244.88 315.4 263.73 465.66 396.26 293.18 294.22 336.97 489.75 257.43 305.79 177.88 489.75 221.68 294.22 49.2 396.26 199.46 263.73 0 244.88 199.46 226.02 49.2 93.49 221.68 195.54 177.88 0 257.43 183.96 336.98 0 293.18 195.54 465.66 93.5 315.4 226.02 514.86 244.88"/><polygon class="m" points="433.33 301.17 301.16 244.67 432.81 186.97 292.64 218.98 365.33 94.94 270.75 203.25 256.62 60.16 243.79 203.34 148.25 95.9 221.94 219.31 81.52 188.59 213.69 245.09 82.04 302.78 222.21 270.77 149.53 394.81 244.11 286.5 258.24 429.6 271.07 286.41 366.61 393.85 292.92 270.44 433.33 301.17"/></g><g><path class="o" d="M314.41,298.62c-1.4,0-6.15-.44-8.63-6.07-.54-1.24-.99-2.71-1.4-4.64-.62-2.93-1.17-6.98-1.63-12.05-.9-9.98-1.4-23.2-1.4-37.22s.5-27.24,1.4-37.22c.46-5.07,1-9.12,1.63-12.05,.41-1.93,.86-3.41,1.4-4.64,2.48-5.63,7.24-6.07,8.63-6.07,.07,0,224.94,.06,224.94,.06l1.82,.95c4.67,2.43,6.31,7.29,7.64,22.6,.85,9.87,1.32,22.79,1.32,36.37s-.47,26.5-1.32,36.37c-1.32,15.31-2.96,20.17-7.64,22.6l-1.82,.95s-224.86,.06-224.94,.06Z"/><g><path class="l" d="M50.08,356.22c-2.72,0-11.98-.85-16.8-11.81-1.06-2.41-1.93-5.28-2.73-9.03-1.21-5.69-2.28-13.58-3.17-23.45-1.75-19.43-2.72-45.15-2.72-72.43s.96-53,2.72-72.43c.89-9.87,1.95-17.76,3.17-23.45,.8-3.76,1.67-6.63,2.73-9.03,4.83-10.96,14.08-11.81,16.8-11.81,.14,0,437.73,.12,437.73,.12l3.55,1.85c9.09,4.73,12.29,14.19,14.86,43.98,1.66,19.21,2.57,44.35,2.57,70.77s-.91,51.56-2.57,70.77c-2.57,29.8-5.76,39.25-14.86,43.98l-3.55,1.85s-437.58,.12-437.73,.12Z"/><path class="d" d="M492.42,239.5c0-53.82-3.82-97.74-8.61-100.24,0,0-433.58-.12-433.72-.12-5,0-9.04,44.93-9.04,100.35s4.05,100.35,9.04,100.35c.14,0,433.72-.12,433.72-.12,4.8-2.49,8.61-46.42,8.61-100.24Z"/><path class="j" d="M483.8,239.5c0,48.91-2.98,80.9-5.49,91.63-46.79,0-378.02,.09-423.15,.11-2.51-10.62-5.51-42.67-5.51-91.74s3.01-81.12,5.51-91.74h12.19c19.82,0,55.04,.02,96.9,.03,27.32,0,57.48,0,88.02,.02,9.64,0,19.31,0,28.95,0,30.52,0,60.65,.02,87.98,.03,41.77,0,76.98,.02,96.94,.03h12.17c2.51,10.73,5.49,42.72,5.49,91.63Z"/><path class="l" d="M358.01,326.56c.65-4.62,1.22-10,1.76-16.29,1.65-19.21,2.57-44.35,2.57-70.77s-.91-51.56-2.57-70.77c-.67-7.74-1.38-14.09-2.22-19.36,4.41-12.11,20.6-15.36,20.6-15.36l-25.9-2.36c-1.92-3.22-4.29-5.33-7.33-6.91l-3.55-1.84s-144.7-.12-144.85-.12c-2.45,0-10.16,.69-15.2,8.78l-26.96,2.45s18.1,3.63,21.24,17.51c-.65,4.44-1.25,9.64-1.78,15.55-1.75,19.42-2.71,45.15-2.71,72.43s.96,53,2.71,72.43c.4,4.46,.84,8.52,1.31,12.15-1.66,7.63-6.39,17.83-19.78,18.36l25.11,3.49c4.97,9.52,13.47,10.3,16.06,10.3,.15,0,144.85-.12,144.85-.12l3.55-1.84c3.51-1.82,6.13-4.36,8.19-8.48l24.06-3.34c-11.98-.48-17.02-8.69-19.15-15.88Zm-26.14,4.57c-22.6,.02-108.42,.09-130.27,.11-2.52-10.63-5.51-42.67-5.51-91.74s3-81.11,5.51-91.74c21.85,.03,107.66,.09,130.27,.11,2.51,10.72,5.49,42.72,5.49,91.63s-2.98,80.9-5.49,91.63Z"/><path class="d" d="M337.36,139.25s-140.7-.11-140.84-.11c-5,0-9.04,44.93-9.04,100.35s4.05,100.35,9.04,100.35c.15,0,140.84-.11,140.84-.11,4.8-2.5,8.61-46.42,8.61-100.24s-3.82-97.75-8.61-100.24Zm-5.49,191.87c-22.6,.02-108.42,.09-130.27,.11-2.52-10.63-5.51-42.67-5.51-91.74s3-81.11,5.51-91.74c21.85,.03,107.66,.09,130.27,.11,2.51,10.72,5.49,42.72,5.49,91.63s-2.98,80.9-5.49,91.63Z"/><g><path class="e" d="M234.83,294.2v-5.17c0-33.7,20.76-63.77,32.53-78.1h-18.61l-5.55,11.1h-19.47v-38.09h88.06v23.96l-1.51,1.51c-.25,.26-26.24,27.15-26.24,79.62v5.17h-49.2Z"/><path class="h" d="M228.9,189.1v27.76h11.1l5.55-11.1h33.31s-38.86,38.86-38.86,83.27h38.86c0-55.51,27.76-83.27,27.76-83.27v-16.65h-77.72Z"/></g><g><path class="e" d="M392.47,294.2v-5.17c0-33.7,20.76-63.77,32.53-78.1h-18.61l-5.55,11.1h-19.47v-38.09h88.06v23.96l-1.51,1.51c-.25,.26-26.24,27.15-26.24,79.62v5.17h-49.2Z"/><path class="h" d="M386.54,189.1v27.76h11.1l5.55-11.1h33.31s-38.86,38.86-38.86,83.27h38.86c0-55.51,27.76-83.27,27.76-83.27v-16.65h-77.72Z"/></g><g><path class="e" d="M77.19,294.2v-5.17c0-33.7,20.76-63.77,32.53-78.1h-18.61l-5.55,11.1h-19.47v-38.09h88.06v23.96l-1.51,1.51c-.25,.26-26.24,27.15-26.24,79.62v5.17h-49.2Z"/><path class="h" d="M71.26,189.1v27.76h11.1l5.55-11.1h33.31s-38.86,38.86-38.86,83.27h38.86c0-55.51,27.76-83.27,27.76-83.27v-16.65H71.26Z"/></g><path class="i" d="M478.31,147.87h-12.17c32.82,124.68-14.7,175.46-46.25,173.03-33.6-2.58-54.27-30.15-54.27-97.34,0-42.39,2.06-64.89,3.57-75.72-27.32,0-57.46-.02-87.98-.03,61.13,22.73,46.43,108.5,45.64,129.15-.82,21.29-22.66,43.34-57.37,43.25v-.18c-.94,.06-1.85,.09-2.76,.13-.91-.03-1.83-.07-2.76-.13v.18c-34.72,.09-56.56-21.97-57.38-43.25-.79-20.65-15.48-106.45,45.67-129.16-30.54,0-60.7-.02-88.02-.02,1.52,10.81,3.58,33.31,3.58,75.77,0,67.19-20.67,94.76-54.27,97.34-31.56,2.43-79.1-48.38-46.21-173.14h-12.19c-2.51,10.62-5.51,42.67-5.51,91.74s3.01,81.12,5.51,91.74c45.13-.02,376.36-.1,423.15-.11,2.51-10.73,5.49-42.72,5.49-91.63s-2.98-80.9-5.49-91.63Z"/></g><g><path class="l" d="M526.18,210.64h0c-3.81,0-6.89-3.09-6.89-6.89V123.64h13.78v80.11c0,1.9-.77,3.63-2.02,4.87-1.25,1.25-2.97,2.02-4.87,2.02Z"/><path class="h" d="M550.3,109.85c0,3.02-.55,5.89-1.57,8.55-3.45,9.1-12.25,15.57-22.55,15.57-13.32,0-24.12-10.8-24.12-24.12,0-10.71,6.99-19.79,16.64-22.93,2.35-.78,4.87-1.19,7.48-1.19,13.32,0,24.12,10.8,24.12,24.12Z"/><path class="g" d="M548.74,118.41c-3.45,9.1-12.25,15.57-22.55,15.57-13.32,0-24.12-10.8-24.12-24.12,0-10.71,6.99-19.79,16.64-22.93-13.22,28.43,14.3,39.91,30.03,31.48Z"/><path class="f" d="M531.35,90.9c-5.33,3.2,6.03,15.51,10.34,10.34,4.31-5.17-6.03-12.92-10.34-10.34Z"/></g></g></g></g></g></g></svg>